<svg xmlns="http://www.w3.org/2000/svg" xmlns:xlink="http://www.w3.org/1999/xlink" width="85" height="85" viewBox="0 0 85 85"><defs><clipPath id="a"><rect width="85" height="85" transform="translate(200 12037)" fill="#2ff980"/></clipPath></defs><g transform="translate(-200 -12037)" clip-path="url(#a)"><g transform="translate(207.212 12041.212)"><path d="M6,21H64.355V60.277H6Z" transform="translate(0.611 2.444)" fill="#8892a0"/><path d="M9,24H60.621V56.544H9Z" transform="translate(0.978 2.811)" fill="#c7e2fc"/><path d="M9,24V45.964a32.66,32.66,0,0,0,17.394,4.969C42.677,50.933,56.109,39.188,58.11,24Z" transform="translate(0.978 2.811)" fill="#ebf7fe"/><path d="M69.332,56H2v4.489a2.244,2.244,0,0,0,2.244,2.244H67.088a2.244,2.244,0,0,0,2.244-2.244Z" transform="translate(0.122 6.721)" fill="#4d5d7a"/><path d="M13,35H28.711V50.711H13Z" transform="translate(1.466 4.155)" fill="#c66b60"/><path d="M13,17H28.711V32.711H13Z" transform="translate(1.466 1.955)" fill="#78b75b"/><g transform="translate(16.935 21.726)"><path d="M19.464,30.165h.047a1.121,1.121,0,0,0,.9-.526l5.611-8.978-1.9-1.191L19.38,27.06,17,23.88l-1.8,1.347,3.367,4.489a1.121,1.121,0,0,0,.9.449Z" transform="translate(-15.2 -19.469)" fill="#fff"/><path d="M24.271,37.293l-3.7,3.7-3.7-3.7L15.293,38.88l3.7,3.7-3.7,3.7,1.587,1.587,3.7-3.7,3.7,3.7,1.587-1.587-3.7-3.7,3.7-3.7Z" transform="translate(-15.189 -17.291)" fill="#fff"/></g><g transform="translate(43.644 31.3)"><path d="M52.466,34.733a6.733,6.733,0,1,0-6.733,6.733A6.733,6.733,0,0,0,52.466,34.733Zm-10.1,0A3.367,3.367,0,1,1,45.733,38.1,3.366,3.366,0,0,1,42.367,34.733Z" transform="translate(-39 -28)" fill="#8892a0"/></g><path d="M48.1,26.688h4.489v-2.5a10.036,10.036,0,0,0,3.125-1.3l1.772,1.772,3.174-3.174-1.772-1.772a10.035,10.035,0,0,0,1.3-3.125h2.5V12.1h-2.5a10.036,10.036,0,0,0-1.3-3.125L60.66,7.2,57.486,4.029,55.714,5.8a10.036,10.036,0,0,0-3.125-1.3V2H48.1V4.5a10.036,10.036,0,0,0-3.125,1.3L43.2,4.029,40.029,7.2,41.8,8.975A10.035,10.035,0,0,0,40.5,12.1H38v4.489h2.5a10.036,10.036,0,0,0,1.3,3.125l-1.772,1.772L43.2,24.66l1.772-1.772a10.036,10.036,0,0,0,3.125,1.3ZM43.611,14.344a6.733,6.733,0,1,1,6.733,6.733A6.733,6.733,0,0,1,43.611,14.344Z" transform="translate(4.522 0.122)" fill="#4d5d7a"/><g transform="translate(41.399 36.911)"><path d="M37,33h2.244v2.244H37Z" transform="translate(-37 -33)" fill="#8892a0"/></g><g transform="translate(57.11 36.911)"><path d="M51,33h2.244v2.244H51Z" transform="translate(-51 -33)" fill="#8892a0"/></g><g transform="translate(49.255 44.766)"><path d="M44,40h2.244v2.244H44Z" transform="translate(-44 -40)" fill="#8892a0"/></g><g transform="translate(49.255 29.055)"><path d="M44,26h2.244v2.244H44Z" transform="translate(-44 -26)" fill="#8892a0"/></g><g transform="translate(54.061 41.731)"><path d="M0,0H2.244V2.629H0Z" transform="translate(0 1.587) rotate(-45)" fill="#8892a0"/></g><g transform="translate(43.228 30.893)"><path d="M0,0H2.244V2.629H0Z" transform="translate(0 1.587) rotate(-45)" fill="#8892a0"/></g><g transform="translate(54.065 30.902)"><path d="M0,0H2.629V2.244H0Z" transform="translate(0 1.859) rotate(-45)" fill="#8892a0"/></g><g transform="translate(43.226 41.739)"><path d="M0,0H2.629V2.244H0Z" transform="translate(0 1.859) rotate(-45)" fill="#8892a0"/></g><g transform="translate(42.522 30.177)"><path d="M38,34.855a7.855,7.855,0,1,1,7.855,7.855A7.865,7.865,0,0,1,38,34.855Zm13.466,0a5.611,5.611,0,1,0-5.611,5.611A5.617,5.617,0,0,0,51.466,34.855Z" transform="translate(-38 -27)" fill="#4d5d7a"/></g><path d="M69.454,59.766H66.088V23.855H63.843V59.766H7.733V22.733h5.611v1.122H9.978a1.121,1.121,0,0,0-1.122,1.122V57.522a1.121,1.121,0,0,0,1.122,1.122H61.6a1.121,1.121,0,0,0,1.122-1.122V24.978H60.477V56.4H11.1V26.1h2.244v6.733a1.121,1.121,0,0,0,1.122,1.122H30.177A1.121,1.121,0,0,0,31.3,32.833V26.1H41.4V23.855H31.3V22.733H41.4V20.489H31.3V17.122A1.121,1.121,0,0,0,30.177,16H14.466a1.121,1.121,0,0,0-1.122,1.122v3.367H6.611a1.121,1.121,0,0,0-1.122,1.122V59.766H2.122A1.121,1.121,0,0,0,1,60.888v4.489a3.371,3.371,0,0,0,3.367,3.367H67.21a3.371,3.371,0,0,0,3.367-3.367V60.888A1.121,1.121,0,0,0,69.454,59.766ZM15.589,18.244H29.055V31.711H15.589ZM68.332,65.377A1.123,1.123,0,0,1,67.21,66.5H4.367a1.123,1.123,0,0,1-1.122-1.122V62.01H68.332Z" transform="translate(0 1.833)"/><path d="M62.811,17.833a1.121,1.121,0,0,0,1.122-1.122V12.222A1.121,1.121,0,0,0,62.811,11.1H61.166a10.981,10.981,0,0,0-.755-1.817l1.165-1.165a1.121,1.121,0,0,0,0-1.587L58.4,3.358a1.121,1.121,0,0,0-1.587,0L55.65,4.523a10.982,10.982,0,0,0-1.817-.755V2.122A1.121,1.121,0,0,0,52.711,1H48.222A1.121,1.121,0,0,0,47.1,2.122V3.767a10.982,10.982,0,0,0-1.817.755L44.118,3.358a1.121,1.121,0,0,0-1.587,0L39.358,6.531a1.121,1.121,0,0,0,0,1.587l1.165,1.165a10.981,10.981,0,0,0-.755,1.817H38.122A1.121,1.121,0,0,0,37,12.222v4.489a1.121,1.121,0,0,0,1.122,1.122h1.645a10.982,10.982,0,0,0,.755,1.817l-1.165,1.165a1.121,1.121,0,0,0,0,1.587l3.174,3.174a1.121,1.121,0,0,0,1.587,0l1.165-1.165a11.161,11.161,0,0,0,1.817.755v1.645a1.121,1.121,0,0,0,1.122,1.122h4.489a1.121,1.121,0,0,0,1.122-1.122V25.166a10.982,10.982,0,0,0,1.817-.755l1.165,1.165a1.121,1.121,0,0,0,1.587,0L61.575,22.4a1.121,1.121,0,0,0,0-1.587L60.41,19.65a11.161,11.161,0,0,0,.755-1.817Zm-2.5-2.244a1.122,1.122,0,0,0-1.094.873,8.938,8.938,0,0,1-1.153,2.776,1.122,1.122,0,0,0,.156,1.392l.979.979-1.587,1.587-.979-.979a1.121,1.121,0,0,0-1.392-.156,8.938,8.938,0,0,1-2.776,1.153,1.123,1.123,0,0,0-.874,1.1v1.38H49.344v-1.38a1.122,1.122,0,0,0-.873-1.094,8.938,8.938,0,0,1-2.776-1.153,1.121,1.121,0,0,0-1.392.156l-.979.979-1.587-1.587.979-.979a1.122,1.122,0,0,0,.156-1.392,8.938,8.938,0,0,1-1.153-2.776,1.123,1.123,0,0,0-1.1-.874h-1.38V13.344h1.38a1.122,1.122,0,0,0,1.094-.873,8.938,8.938,0,0,1,1.153-2.776A1.122,1.122,0,0,0,42.715,8.3l-.979-.979,1.587-1.587.979.979a1.12,1.12,0,0,0,1.392.156A8.938,8.938,0,0,1,48.47,5.72a1.123,1.123,0,0,0,.874-1.1V3.244h2.244v1.38a1.122,1.122,0,0,0,.873,1.094,8.938,8.938,0,0,1,2.776,1.153,1.119,1.119,0,0,0,1.392-.156l.979-.979,1.587,1.587-.979.979a1.122,1.122,0,0,0-.156,1.392,8.938,8.938,0,0,1,1.153,2.776,1.123,1.123,0,0,0,1.1.874h1.38v2.244Z" transform="translate(4.399 0)"/><path d="M49.855,6a7.855,7.855,0,1,0,7.855,7.855A7.865,7.865,0,0,0,49.855,6Zm0,13.466a5.611,5.611,0,1,1,5.611-5.611A5.617,5.617,0,0,1,49.855,19.466Z" transform="translate(5.01 0.611)"/><path d="M54.955,36.1V33.855H53.743a7.8,7.8,0,0,0-1.484-3.573l.86-.86-1.587-1.587-.86.86A7.8,7.8,0,0,0,47.1,27.212V26H44.855v1.212A7.8,7.8,0,0,0,41.282,28.7l-.86-.86-1.587,1.587.86.86a7.8,7.8,0,0,0-1.484,3.573H37V36.1h1.212A7.8,7.8,0,0,0,39.7,39.673l-.86.86,1.587,1.587.86-.86a7.808,7.808,0,0,0,3.573,1.484v1.212H47.1V42.743a7.8,7.8,0,0,0,3.573-1.484l.86.86,1.587-1.587-.86-.86A7.808,7.808,0,0,0,53.743,36.1Zm-3.367-1.122a5.611,5.611,0,1,1-5.611-5.611A5.617,5.617,0,0,1,51.589,34.978Z" transform="translate(4.399 3.055)"/><path d="M45.489,30a4.489,4.489,0,1,0,4.489,4.489A4.493,4.493,0,0,0,45.489,30Zm0,6.733a2.244,2.244,0,1,1,2.244-2.244A2.247,2.247,0,0,1,45.489,36.733Z" transform="translate(4.888 3.544)"/><path d="M28.833,34H13.122A1.121,1.121,0,0,0,12,35.122V50.833a1.121,1.121,0,0,0,1.122,1.122H28.833a1.121,1.121,0,0,0,1.122-1.122V35.122A1.121,1.121,0,0,0,28.833,34ZM27.711,49.711H14.244V36.244H27.711Z" transform="translate(1.344 4.033)"/><path d="M19.38,27.06,17,23.88l-1.8,1.347,3.367,4.489a1.121,1.121,0,0,0,.9.449h.047a1.121,1.121,0,0,0,.9-.526l5.611-8.978-1.9-1.191Z" transform="translate(1.735 2.257)"/><path d="M16.88,47.857l3.7-3.7,3.7,3.7,1.587-1.587-3.7-3.7,3.7-3.7-1.587-1.587-3.7,3.7-3.7-3.7L15.293,38.88l3.7,3.7-3.7,3.7Z" transform="translate(1.747 4.435)"/></g></g></svg>