<svg xmlns="http://www.w3.org/2000/svg" xmlns:xlink="http://www.w3.org/1999/xlink" width="125" height="125" viewBox="0 0 125 125"><defs><clipPath id="a"><rect width="125" height="125" transform="translate(200.436 12037.436)" fill="#2ff980"/></clipPath></defs><g transform="translate(-200.436 -12037.436)" clip-path="url(#a)"><g transform="translate(201.917 12041.277)"><g transform="translate(11.527 7.165)"><path d="M109.663,71.823l-5.657-3.269a43.115,43.115,0,0,0,0-17.186l5.657-3.269a4.549,4.549,0,0,0,1.665-6.212l-8.793-15.224A4.542,4.542,0,0,0,96.328,25l-5.67,3.274a42.317,42.317,0,0,0-14.88-8.6V13.137A4.542,4.542,0,0,0,71.235,8.59H53.657a4.542,4.542,0,0,0-4.543,4.547v6.535a42.317,42.317,0,0,0-14.88,8.6L28.564,25a4.542,4.542,0,0,0-6.208,1.661L13.564,41.887A4.549,4.549,0,0,0,15.228,48.1l5.657,3.269a43.115,43.115,0,0,0,0,17.186l-5.657,3.269a4.549,4.549,0,0,0-1.665,6.212L22.357,93.26a4.542,4.542,0,0,0,6.208,1.661l5.67-3.274a42.317,42.317,0,0,0,14.88,8.6v6.53a4.539,4.539,0,0,0,4.543,4.547H71.235a4.539,4.539,0,0,0,4.543-4.547v-6.53a42.317,42.317,0,0,0,14.88-8.6l5.67,3.274a4.542,4.542,0,0,0,6.208-1.661l8.793-15.224a4.549,4.549,0,0,0-1.665-6.212ZM62.446,91.186A31.223,31.223,0,1,1,93.665,59.959,31.22,31.22,0,0,1,62.446,91.186Z" transform="translate(-12.954 -8.59)" fill="#fc5d3d"/></g><path d="M83.176,117.337a4.555,4.555,0,0,1-3.942-6.828l16.687-28.9a4.555,4.555,0,0,1,7.884,0l16.687,28.9a4.555,4.555,0,0,1-3.942,6.828Z" transform="translate(-38.844 -41.735)" fill="#f0c020"/><path d="M92.571,119.216l15.242-26.4,15.242,26.4Z" transform="translate(-46.794 -49.418)" fill="#efefef"/><g transform="translate(10.45 6.09)"><path d="M69.808,110.979H52.23a5.624,5.624,0,0,1-5.618-5.623V99.6a43.22,43.22,0,0,1-13.934-8.057l-5,2.891A5.621,5.621,0,0,1,20,92.373l-2.4-4.164a1.071,1.071,0,0,1,.391-1.467,1.1,1.1,0,0,1,1.467.391L21.863,91.3A3.473,3.473,0,0,0,26.6,92.566l5.67-3.274a1.091,1.091,0,0,1,1.252.125,40.963,40.963,0,0,0,14.5,8.389,1.068,1.068,0,0,1,.74,1.02v6.53a3.475,3.475,0,0,0,3.467,3.472H69.808a3.475,3.475,0,0,0,3.468-3.472v-6.53a1.067,1.067,0,0,1,.74-1.02,41.036,41.036,0,0,0,14.5-8.389,1.091,1.091,0,0,1,1.252-.125l5.67,3.274a3.469,3.469,0,0,0,4.736-1.269l8.793-15.224a3.469,3.469,0,0,0-1.269-4.741l-5.657-3.274a1.068,1.068,0,0,1-.516-1.144,42.05,42.05,0,0,0,0-16.756,1.078,1.078,0,0,1,.516-1.149L107.7,45.74A3.475,3.475,0,0,0,108.973,41l-8.8-15.224a3.469,3.469,0,0,0-4.736-1.269l-5.67,3.278a1.1,1.1,0,0,1-1.252-.129,41.1,41.1,0,0,0-14.5-8.389,1.072,1.072,0,0,1-.74-1.02V11.713a3.48,3.48,0,0,0-3.468-3.472H52.23a3.48,3.48,0,0,0-3.467,3.472v6.535a1.068,1.068,0,0,1-.74,1.02,41.032,41.032,0,0,0-14.5,8.389,1.1,1.1,0,0,1-1.252.129L26.6,24.511a3.462,3.462,0,0,0-4.737,1.265L13.066,41a3.473,3.473,0,0,0,1.273,4.741L20,49.01a1.085,1.085,0,0,1,.516,1.149,42.051,42.051,0,0,0,0,16.756A1.079,1.079,0,0,1,20,68.059l-5.657,3.269a3.48,3.48,0,0,0-1.273,4.745l2.086,3.609a1.078,1.078,0,0,1-.391,1.471,1.11,1.11,0,0,1-1.471-.4l-2.082-3.609a5.62,5.62,0,0,1,2.056-7.679l4.99-2.887a44.387,44.387,0,0,1,0-16.093L13.264,47.6a5.619,5.619,0,0,1-2.056-7.679L20,24.7a5.625,5.625,0,0,1,7.679-2.056l5,2.891a43.294,43.294,0,0,1,13.934-8.057V11.713A5.632,5.632,0,0,1,52.231,6.09H69.808a5.632,5.632,0,0,1,5.619,5.623v5.765a43.3,43.3,0,0,1,13.934,8.057l5-2.887a5.614,5.614,0,0,1,7.675,2.052l8.793,15.224a5.627,5.627,0,0,1-2.056,7.683l-4.99,2.882a44.4,44.4,0,0,1,0,16.093l4.99,2.887a5.621,5.621,0,0,1,2.056,7.679l-8.793,15.224a5.617,5.617,0,0,1-7.675,2.056l-5-2.891A43.22,43.22,0,0,1,75.427,99.6v5.76a5.624,5.624,0,0,1-5.619,5.623Zm-54.367-26.5a1.076,1.076,0,0,1,.4-1.467,1.1,1.1,0,0,1,1.467.391,1.075,1.075,0,1,1-1.863,1.075Z" transform="translate(-10.45 -6.09)"/></g><g transform="translate(34.83 21.948)"><path d="M117.671,105.418a1.076,1.076,0,0,1,0-1.521c.333-.333.663-.677.981-1.022a1.075,1.075,0,1,1,1.581,1.459c-.337.366-.687.73-1.04,1.084A1.075,1.075,0,0,1,117.671,105.418Zm3.861-4.271a1.075,1.075,0,0,1-.245-1.5A34.447,34.447,0,0,0,68.958,55.183a1.075,1.075,0,0,1-1.521-1.521,36.6,36.6,0,0,1,55.6,47.239,1.077,1.077,0,0,1-1.5.244Z" transform="translate(-67.122 -42.952)" fill="#ffcbc3"/></g><path d="M103.314,79.644a5.629,5.629,0,0,0-9.748,0l-16.687,28.9a5.636,5.636,0,0,0,4.874,8.44h33.374a5.634,5.634,0,0,0,4.874-8.44l-6.35-10.991a1.1,1.1,0,0,0-1.467-.4,1.08,1.08,0,0,0-.4,1.467v0l6.35,10.991a3.481,3.481,0,0,1-3.011,5.214H81.753a3.481,3.481,0,0,1-3.011-5.214l16.687-28.9a3.477,3.477,0,0,1,6.023,0l6.036,10.458a1.1,1.1,0,0,0,1.471.391,1.075,1.075,0,0,0,.391-1.467Z" transform="translate(-37.421 -40.309)"/><path d="M155.311,117.1a1.075,1.075,0,0,0,.391-1.467,1.1,1.1,0,0,0-1.467-.4,1.075,1.075,0,1,0,1.075,1.863Z" transform="translate(-81.623 -62.118)"/><path d="M105.455,90.856l-15.242,26.4a1.076,1.076,0,0,0,.931,1.613h30.484a1.076,1.076,0,0,0,.931-1.613l-15.242-26.4a1.076,1.076,0,0,0-1.862,0ZM93.007,116.717l13.379-23.173,13.379,23.173Z" transform="translate(-45.367 -47.994)"/><path d="M126.576,135.75a1.076,1.076,0,0,0-1.075,1.075v.869a1.075,1.075,0,1,0,2.151,0v-.869A1.076,1.076,0,0,0,126.576,135.75Z" transform="translate(-65.557 -73.882)"/><path d="M125.5,114.84v5.773a1.075,1.075,0,0,0,2.151,0V114.84a1.075,1.075,0,1,0-2.151,0Z" transform="translate(-65.557 -61.352)"/><path d="M117.52,85.224a32.3,32.3,0,0,0-52.16-25.467,1.081,1.081,0,0,0-.185,1.514,1.1,1.1,0,0,0,1.51.185A30.131,30.131,0,1,1,60.916,67.4a1.076,1.076,0,0,0-.228-1.506,1.107,1.107,0,0,0-1.506.232,32.3,32.3,0,1,0,58.337,19.1Z" transform="translate(-24.207 -26.69)"/><path d="M73.739,75.287s0,0,0,0a1.074,1.074,0,1,0,1.519-.022A1.1,1.1,0,0,0,73.739,75.287Z" transform="translate(-35.886 -39.251)"/></g></g></svg>