<svg xmlns="http://www.w3.org/2000/svg" xmlns:xlink="http://www.w3.org/1999/xlink" width="146" height="130" viewBox="0 0 146 130"><defs><clipPath id="a"><rect width="146" height="130" transform="translate(-3551 -6996)" fill="#fff" stroke="#707070" stroke-width="1"/></clipPath></defs><g transform="translate(3551 6996)" clip-path="url(#a)"><g transform="translate(-3553.613 -7003.228)"><path d="M175.326,415.063v-9.193A15.806,15.806,0,0,1,183,392.316l2.262-1.357h19.871a15.805,15.805,0,0,1,9.936,14.675v9.429Z" transform="translate(-119.751 -281.824)" fill="#462eb4"/><circle cx="43.469" cy="43.469" r="43.469" transform="translate(32.144 18.483)" fill="#c4baf5"/><g transform="translate(30.149 38.098)"><circle cx="3.735" cy="3.735" r="3.735" transform="translate(69.548 40.288)" fill="#462eb4"/><circle cx="3.735" cy="3.735" r="3.735" transform="translate(83.458 29.806)" fill="#462eb4"/><circle cx="3.735" cy="3.735" r="3.735" transform="translate(83.458 9.934)" fill="#462eb4"/><circle cx="3.735" cy="3.735" r="3.735" transform="translate(69.548 0)" fill="#462eb4"/><circle cx="3.735" cy="3.735" r="3.735" transform="translate(13.91 0)" fill="#462eb4"/><circle cx="3.735" cy="3.735" r="3.735" transform="translate(0 9.934)" fill="#462eb4"/><circle cx="3.735" cy="3.735" r="3.735" transform="translate(0 29.807)" fill="#462eb4"/><circle cx="3.735" cy="3.735" r="3.735" transform="translate(13.91 39.991)" fill="#462eb4"/></g><circle cx="16.761" cy="16.761" r="16.761" transform="translate(58.684 79.587)" fill="#462eb4"/><path d="M222.022,318.863l0,0v9.46l8.192,4.73v-9.184Z" transform="translate(-154.846 -227.636)" fill="#e6e1fb"/><path d="M263.206,318.863l0,0v9.46l-8.192,4.73v-9.184Z" transform="translate(-179.649 -227.636)" fill="#e6e1fb"/><path d="M230.223,309.566l8.192-4.987v-.018l-8.192-4.73-8.188,4.727Z" transform="translate(-154.859 -213.331)" fill="#e6e1fb"/><path d="M186.293,113.653a16.875,16.875,0,0,1,4.552-2.761,1.987,1.987,0,0,0-1.5-3.682,20.925,20.925,0,0,0-11.411,11.322,1.987,1.987,0,1,0,3.67,1.526A16.954,16.954,0,0,1,186.293,113.653Z" transform="translate(-121.599 -68.444)"/><path d="M288.326,117.324,284.841,115A16.337,16.337,0,0,1,281,111.432a20.677,20.677,0,0,0-11.159-7.371,1.987,1.987,0,1,0-1.009,3.844,16.734,16.734,0,0,1,9.031,5.967,20.3,20.3,0,0,0,4.771,4.435l3.484,2.323a1.987,1.987,0,0,0,2.2-3.307Z" transform="translate(-188.919 -66.139)"/><path d="M247.346,175.971l-.441-.22a26.794,26.794,0,0,1-11.011-10.2,2.1,2.1,0,0,1,.316-2.568,2.076,2.076,0,0,1,1.906-.574,1.987,1.987,0,1,0,.785-3.9,6.076,6.076,0,0,0-6.415,9.082A30.763,30.763,0,0,0,245.128,179.3l.441.221a1.987,1.987,0,0,0,1.778-3.555Z" transform="translate(-162.063 -107.026)"/><path d="M280.164,182.294l-3.549-1.774a14.941,14.941,0,0,1-5.635-4.915,1.987,1.987,0,1,0-3.28,2.244,18.919,18.919,0,0,0,7.138,6.225l3.549,1.775a1.987,1.987,0,1,0,1.777-3.555Z" transform="translate(-188.92 -119.311)"/><path d="M211.821,135.88a1.987,1.987,0,0,0-2.7-.772,13.418,13.418,0,0,0-5.5,17.767,1.987,1.987,0,1,0,3.554-1.778,9.452,9.452,0,0,1,3.872-12.515A1.987,1.987,0,0,0,211.821,135.88Z" transform="translate(-139.944 -89.335)"/><path d="M278.339,143.114l-.942-.628a39.583,39.583,0,0,1-8.457-7.6,13.354,13.354,0,0,0-7.127-4.451,1.987,1.987,0,0,0-.946,3.86,9.407,9.407,0,0,1,5.02,3.135,43.559,43.559,0,0,0,9.305,8.362l.942.628a1.987,1.987,0,0,0,2.2-3.307Z" transform="translate(-182.907 -85.968)"/><path d="M122.961,53.755h10.277a1.987,1.987,0,1,0,0-3.974H122.961a5.982,5.982,0,0,0-4.444-3.857,45.719,45.719,0,0,0-3.9-8.065h18.621a1.987,1.987,0,1,0,0-3.974H111.89a45.742,45.742,0,0,0-72.554,0H17.987a1.987,1.987,0,0,0,0,3.974H36.608a45.722,45.722,0,0,0-3.9,8.065,5.982,5.982,0,0,0-4.444,3.857H17.987a1.987,1.987,0,0,0,0,3.974H28.264a5.985,5.985,0,0,0,1.949,2.705,45.4,45.4,0,0,0,0,10.487,5.988,5.988,0,0,0-1.949,2.7H17.987a1.987,1.987,0,1,0,0,3.974H28.264a5.982,5.982,0,0,0,4.448,3.858,45.8,45.8,0,0,0,3.9,8.065H17.987a1.987,1.987,0,0,0,0,3.974H39.333A45.665,45.665,0,0,0,58.35,104.028a18.8,18.8,0,0,0,3.372,5.074,17.889,17.889,0,0,0-8.134,14.942v9.194a1.987,1.987,0,0,0,1.987,1.987H95.317a1.987,1.987,0,0,0,1.987-1.987V123.81a17.9,17.9,0,0,0-8-14.85,18.811,18.811,0,0,0,3.161-4.766A45.618,45.618,0,0,0,111.9,89.523h21.343a1.987,1.987,0,0,0,0-3.974H114.62a45.83,45.83,0,0,0,3.894-8.065,5.982,5.982,0,0,0,4.448-3.858h10.277a1.987,1.987,0,0,0,0-3.974H122.961a5.985,5.985,0,0,0-1.949-2.705,45.364,45.364,0,0,0,0-10.486,5.985,5.985,0,0,0,1.949-2.705ZM33.884,49.781A1.987,1.987,0,1,1,31.9,51.768a1.987,1.987,0,0,1,1.987-1.987Zm0,23.845a1.987,1.987,0,1,1,1.987-1.987,1.987,1.987,0,0,1-1.987,1.987ZM93.329,123.81v7.441H89.355v-3.984a1.987,1.987,0,0,0-3.974,0v3.984H65.454v-3.984a1.987,1.987,0,0,0-3.974,0v3.984H57.562v-7.206A13.889,13.889,0,0,1,64.271,112.2l.612-.368a18.694,18.694,0,0,0,21.293-.121,13.9,13.9,0,0,1,7.153,12.1ZM75.445,111.122A14.774,14.774,0,1,1,90.22,96.348a14.774,14.774,0,0,1-14.774,14.774ZM114.5,76.875a41.821,41.821,0,0,1-3.85,7.526l-1.484-1.187a5.973,5.973,0,1,0-2.313,3.239l1.479,1.184A41.617,41.617,0,0,1,93.979,99.185,18.753,18.753,0,0,0,82.125,78.836c-.087-.108-1.654-1.388-1.654-1.388l-.043-.034a40.292,40.292,0,0,1-8.415-8.667,1.987,1.987,0,0,0-3.234,2.31,44.258,44.258,0,0,0,5.756,6.568,18.672,18.672,0,0,0-3.527.512l-5.244-5.008a27.053,27.053,0,0,1-5.6-8.157,16.809,16.809,0,0,1-1.446-6.245,1.987,1.987,0,0,0-3.972.145,20.763,20.763,0,0,0,1.786,7.713,31.014,31.014,0,0,0,6.433,9.368l.033.032,3.871,3.7A18.709,18.709,0,0,0,56.889,99,41.67,41.67,0,0,1,42.9,87.635l1.475-1.18a5.961,5.961,0,1,0-2.313-3.239L40.581,84.4a41.754,41.754,0,0,1-3.85-7.526,5.959,5.959,0,0,0-2.655-11.193c-.125-1.32-.193-2.652-.193-3.979s.067-2.659.192-3.979a5.959,5.959,0,0,0,2.658-11.191A41.67,41.67,0,0,1,40.58,39l1.483,1.186a5.973,5.973,0,1,0,2.313-3.239l-1.468-1.175a41.741,41.741,0,0,1,65.409,0l-1.468,1.175a5.961,5.961,0,1,0,2.313,3.239L110.644,39a41.661,41.661,0,0,1,3.848,7.528,5.959,5.959,0,0,0,2.658,11.191c.124,1.32.191,2.652.191,3.979s-.067,2.659-.191,3.979A5.959,5.959,0,0,0,114.5,76.875Zm-9.077,4.7a1.987,1.987,0,1,1-1.987-1.987A1.987,1.987,0,0,1,105.419,81.574Zm-59.613,0a1.987,1.987,0,1,1,1.987,1.987A1.987,1.987,0,0,1,45.806,81.574Zm0-39.742a1.987,1.987,0,1,1,1.987,1.987A1.987,1.987,0,0,1,45.806,41.832Zm59.613,0a1.987,1.987,0,1,1-1.987-1.987A1.987,1.987,0,0,1,105.419,41.832Zm11.923,31.794a1.987,1.987,0,1,1,1.987-1.987,1.987,1.987,0,0,1-1.987,1.987Zm0-19.871a1.987,1.987,0,1,1,1.987-1.987,1.987,1.987,0,0,1-1.987,1.987Z" transform="translate(0)"/><path d="M233.4,296.825l-8.192-4.731a1.987,1.987,0,0,0-1.987,0l-8.192,4.73a1.987,1.987,0,0,0-.994,1.721V308a1.987,1.987,0,0,0,.993,1.721l8.192,4.73a1.987,1.987,0,0,0,1.987,0l8.192-4.729a1.987,1.987,0,0,0,.994-1.721v-9.46a1.987,1.987,0,0,0-.993-1.721Zm-11.173,12.469-4.218-2.435v-4.6l4.218,2.435Zm1.987-8.037-4.457-2.573,4.457-2.573,4.457,2.573Zm6.205,5.6-4.218,2.435v-4.6l4.218-2.435Z" transform="translate(-148.846 -207.316)"/></g></g></svg>