<svg xmlns="http://www.w3.org/2000/svg" xmlns:xlink="http://www.w3.org/1999/xlink" width="125" height="125" viewBox="0 0 125 125"><defs><clipPath id="a"><rect width="125" height="125" transform="translate(200.436 12037.436)" fill="#2ff980"/></clipPath></defs><g transform="translate(-200.436 -12037.436)" clip-path="url(#a)"><g transform="translate(186.36 12046.266)"><path d="M45.7,17.142a.42.42,0,0,1,.419-.419h62.312V8.129a.629.629,0,0,0-.629-.629h-70.7a.629.629,0,0,0-.629.629v93.925a.629.629,0,0,0,.629.629H45.7Z" transform="translate(-5.928 -5.928)" fill="#fac600"/><path d="M45.7,17.142a.42.42,0,0,1,.419-.419h.95V8.129A.629.629,0,0,1,47.7,7.5H37.111a.629.629,0,0,0-.629.629v93.925a.629.629,0,0,0,.629.629H45.7Z" transform="translate(-5.928 -5.928)" fill="#e8b800"/><path d="M135.046,134.671a.839.839,0,0,1-.839-.839V112.777a.839.839,0,0,1,.839-.839h16.378v-6.767H135.046a.839.839,0,0,1-.839-.839V83.278a.839.839,0,0,1,.839-.839h16.378V51.118a.629.629,0,0,0-.629-.629H80.1a.629.629,0,0,0-.629.629v93.925a.629.629,0,0,0,.629.629h70.7a.629.629,0,0,0,.629-.629V134.671Z" transform="translate(-39.905 -39.904)" fill="#fff3de"/><g transform="translate(39.566 10.585)"><path d="M88.344,145.043V51.118a.629.629,0,0,1,.629-.629H80.1a.629.629,0,0,0-.629.629v93.925a.629.629,0,0,0,.629.629h8.873A.629.629,0,0,1,88.344,145.043Z" transform="translate(-79.471 -50.489)" fill="#ffe5c2"/></g><g transform="translate(94.093 71.825)"><g transform="translate(0)"><path d="M361.661,365.748H340.606a1.048,1.048,0,0,1-1.048-1.048V343.644a1.048,1.048,0,0,1,1.048-1.048h21.055a1.048,1.048,0,0,1,1.048,1.048V364.7A1.049,1.049,0,0,1,361.661,365.748Z" transform="translate(-339.558 -342.596)" fill="#4fc123"/></g><g transform="translate(0)"><path d="M346.569,364.7V343.644a1.048,1.048,0,0,1,1.048-1.048h-7.011a1.048,1.048,0,0,0-1.048,1.048V364.7a1.048,1.048,0,0,0,1.048,1.048h7.011A1.048,1.048,0,0,1,346.569,364.7Z" transform="translate(-339.558 -342.596)" fill="#47a920"/></g></g><g transform="translate(28.981 0)"><g transform="translate(65.112 42.325)"><path d="M361.661,225.038H340.606a1.048,1.048,0,0,1-1.048-1.048V202.934a1.048,1.048,0,0,1,1.048-1.048h21.055a1.048,1.048,0,0,1,1.048,1.048V223.99A1.049,1.049,0,0,1,361.661,225.038Z" transform="translate(-339.558 -201.886)" fill="#4fc123"/></g><g transform="translate(65.112 42.325)"><path d="M346.569,223.99V202.934a1.048,1.048,0,0,1,1.048-1.048h-7.011a1.048,1.048,0,0,0-1.048,1.048V223.99a1.048,1.048,0,0,0,1.048,1.048h7.011A1.048,1.048,0,0,1,346.569,223.99Z" transform="translate(-339.558 -201.886)" fill="#47a920"/></g><g transform="translate(0 0)"><path d="M147.466,168.439h40.957a1.572,1.572,0,1,0,0-3.145H147.466a1.572,1.572,0,1,0,0,3.145Z" transform="translate(-121.383 -130.64)"/><path d="M147.467,212.564H162.06a1.572,1.572,0,0,0,0-3.145H147.467a1.572,1.572,0,0,0,0,3.145Z" transform="translate(-121.384 -165.514)"/><path d="M147.466,344.941h23.4a1.572,1.572,0,0,0,0-3.145h-23.4a1.572,1.572,0,1,0,0,3.145Z" transform="translate(-121.383 -270.139)"/><path d="M185.1,111.442h25.179a1.572,1.572,0,1,0,0-3.145H185.1a1.572,1.572,0,1,0,0,3.145Z" transform="translate(-151.125 -85.593)"/><path d="M121.486,70.589l-2.668,2.668v-.384a2.623,2.623,0,0,0-2.621-2.621h-3.105v-3.2H116.2a2.623,2.623,0,0,0,2.621-2.621V61.847a1.572,1.572,0,1,0-3.145,0V63.9H95.666V43.9h20.007v3l-8.634,8.634-5.655-5.655A1.572,1.572,0,1,0,99.16,52.1l6.767,6.767a1.573,1.573,0,0,0,2.224,0l7.522-7.522v3.159a1.572,1.572,0,1,0,3.145,0V48.2l4.892-4.892a1.572,1.572,0,1,0-2.224-2.224l-2.668,2.668v-.384a2.623,2.623,0,0,0-2.621-2.621h-3.105V11.214a2.2,2.2,0,0,0-2.2-2.2h-6.811V2.2a2.2,2.2,0,0,0-2.2-2.2h-70.7a2.2,2.2,0,0,0-2.2,2.2V96.127a2.2,2.2,0,0,0,2.2,2.2h6.811v6.811a2.2,2.2,0,0,0,2.2,2.2h70.7a2.2,2.2,0,0,0,2.2-2.2v-8.59H116.2a2.623,2.623,0,0,0,2.621-2.621V77.7l4.892-4.892a1.572,1.572,0,0,0-2.224-2.224ZM115.673,76.4l-8.634,8.634-5.655-5.655A1.572,1.572,0,0,0,99.16,81.6l6.767,6.767a1.573,1.573,0,0,0,2.224,0l7.522-7.522V93.4h-6.392a1.572,1.572,0,0,0,0,3.145h.666V104.2H41.139V12.157H55.611a1.572,1.572,0,0,0,0-3.145H40.2a2.2,2.2,0,0,0-2.2,2.2V95.183H32.126V3.145h68.809V9.013H62.948a1.572,1.572,0,0,0,0,3.145h47v28.6H95.142a2.623,2.623,0,0,0-2.621,2.621V43.9H75.527a1.572,1.572,0,1,0,0,3.145H92.521v6.106H55.064a1.572,1.572,0,0,0,0,3.145H92.521v6.106H55.064a1.572,1.572,0,0,0,0,3.145H92.777a2.621,2.621,0,0,0,2.364,1.5h14.805v3.2H95.141a2.622,2.622,0,0,0-2.319,1.4h-8.49a1.572,1.572,0,0,0,0,3.145h8.189v6.106H55.064a1.572,1.572,0,1,0,0,3.145H92.521v6.106H55.064a1.572,1.572,0,0,0,0,3.145H92.521v.625a2.623,2.623,0,0,0,2.621,2.621h6.8a1.572,1.572,0,1,0,0-3.145H95.666V73.4h20.007v3Z" transform="translate(-28.981 0)"/></g></g></g></g></svg>