<svg xmlns="http://www.w3.org/2000/svg" xmlns:xlink="http://www.w3.org/1999/xlink" width="85" height="85" viewBox="0 0 85 85"><defs><clipPath id="a"><rect width="85" height="85" transform="translate(200 12037)" fill="#2ff980"/></clipPath></defs><g transform="translate(-200 -12037)" clip-path="url(#a)"><g transform="translate(204.353 12040.775)"><g transform="translate(3)"><path d="M62.087,76.029H4V1H54.826l7.261,7.261Z" transform="translate(-2.79 0.21)" fill="#e6e6e6"/><path d="M53.683,10.714V8.261L46.423,1H43.989v9.714Z" transform="translate(5.614 0.21)" fill="#e6e6e6"/><path d="M7.63,17.942V1H4V76.029H62.087V72.4A54.456,54.456,0,0,1,7.63,17.942Z" transform="translate(-2.79 0.21)" fill="#f2f2f2"/><path d="M62.3,77.449H4.21A1.21,1.21,0,0,1,3,76.239V1.21A1.21,1.21,0,0,1,4.21,0H55.036a1.21,1.21,0,0,1,.855.354l7.261,7.261a1.21,1.21,0,0,1,.355.856V21.783h-2.42V8.972L54.535,2.42H5.42V75.029H61.087V49.616h2.42V76.239A1.21,1.21,0,0,1,62.3,77.449Z" transform="translate(-3 0)"/><path d="M53.683,10.714V8.261L46.423,1H43.989v9.714Z" transform="translate(5.614 0.21)" fill="#f2f2f2"/><path d="M8,31h7.261v7.261H8Z" transform="translate(-1.949 6.514)" fill="#f29500"/><path d="M8,42h7.261v7.261H8Z" transform="translate(-1.949 8.826)" fill="#f29500"/><path d="M8,53h7.261v7.261H8Z" transform="translate(-1.949 11.138)" fill="#f29500"/><path d="M53.894,12.134H44.2a1.21,1.21,0,0,1-1.21-1.21V1.21A1.21,1.21,0,0,1,44.2,0h2.435a1.21,1.21,0,0,1,.855.354l7.261,7.261a1.21,1.21,0,0,1,.355.856v2.453A1.21,1.21,0,0,1,53.894,12.134Zm-8.486-2.42h7.275V8.972L46.132,2.42h-.726Z" transform="translate(5.403 0)" fill="#383838"/><circle cx="13.312" cy="13.312" r="13.312" transform="translate(16.942 6.051)" fill="#f4b400"/><path d="M33.942,27.6A13.312,13.312,0,0,1,22.891,6.868,13.312,13.312,0,1,0,41.363,25.34,13.245,13.245,0,0,1,33.942,27.6Z" transform="translate(-0.058 1.443)" fill="#f29500"/><g transform="translate(4.841 4.84)"><path d="M30.52,33.044A14.522,14.522,0,1,1,35.512,4.881l-.833,2.273A12.117,12.117,0,1,0,38.72,9.622l1.641-1.779a14.522,14.522,0,0,1-9.841,25.2Z" transform="translate(-5.107 -4)" fill="#060606"/><path d="M15.471,39.681H8.21A1.21,1.21,0,0,1,7,38.471V31.21A1.21,1.21,0,0,1,8.21,30h2.42v2.42H9.42v4.841h4.841V36.18h2.42v2.291A1.21,1.21,0,0,1,15.471,39.681Z" transform="translate(-7 1.464)" fill="#060606"/><path d="M15.471,50.681H8.21A1.21,1.21,0,0,1,7,49.471V42.21A1.21,1.21,0,0,1,8.21,41h2.42v2.42H9.42v4.841h4.841V47.18h2.42v2.291A1.21,1.21,0,0,1,15.471,50.681Z" transform="translate(-7 3.776)" fill="#060606"/><path d="M15.471,61.681H8.21A1.21,1.21,0,0,1,7,60.471V53.21A1.21,1.21,0,0,1,8.21,52h2.42v2.42H9.42v4.841h4.841V58.18h2.42v2.291A1.21,1.21,0,0,1,15.471,61.681Z" transform="translate(-7 6.087)" fill="#060606"/><path d="M0,0H8.557V2.42H0Z" transform="translate(3.979 35.447) rotate(-45)" fill="#060606"/><path d="M0,0H8.557V2.42H0Z" transform="translate(3.978 48.757) rotate(-45)" fill="#060606"/><path d="M0,0H9.412V2.42H0Z" transform="translate(3.977 62.066) rotate(-45)" fill="#060606"/><path d="M18,33H34.942v2.42H18Z" transform="translate(-4.688 2.095)" fill="#060606"/><path d="M18,44H28.891v2.42H18Z" transform="translate(-4.688 4.406)" fill="#060606"/><path d="M18,55H37.362v2.42H18Z" transform="translate(-4.688 6.718)" fill="#060606"/><path d="M43.722,46.041a1.21,1.21,0,0,1-.857-.363l-5.2-5.2a1.21,1.21,0,0,1,0-1.711L55.021,21.4a1.21,1.21,0,0,1,1.711,0l5.2,5.21a1.21,1.21,0,0,1,0,1.711L44.578,45.678A1.21,1.21,0,0,1,43.722,46.041Zm-3.5-6.414,3.5,3.5L59.374,27.463l-3.5-3.5Z" transform="translate(-0.631 -0.418)" fill="#060606"/></g><path d="M0,0H24.555V7.366H0Z" transform="translate(42.715 44.04) rotate(-45)" fill="#f4b400"/><path d="M43.722,46.041a1.21,1.21,0,0,1-.857-.363l-5.2-5.2a1.21,1.21,0,0,1,0-1.711L55.021,21.4a1.21,1.21,0,0,1,1.711,0l5.2,5.21a1.21,1.21,0,0,1,0,1.711L44.578,45.678A1.21,1.21,0,0,1,43.722,46.041Zm-3.5-6.414,3.5,3.5L59.374,27.463l-3.5-3.5Z" transform="translate(4.209 4.422)" fill="#060606"/><path d="M57.86,27.892l-5.2-5.2,2.595-2.61a3.684,3.684,0,0,1,5.21,5.21Z" transform="translate(7.435 3.993)" fill="#db4437"/><path d="M58.07,29.331a1.21,1.21,0,0,1-.855-.354l-5.2-5.2a1.21,1.21,0,0,1,0-1.711l2.6-2.609a4.893,4.893,0,1,1,6.916,6.916l-2.6,2.6A1.21,1.21,0,0,1,58.07,29.331Zm-3.5-6.414,3.5,3.5,1.747-1.755a2.475,2.475,0,0,0,0-3.5,2.529,2.529,0,0,0-3.5,0Z" transform="translate(7.225 3.764)" fill="#060606"/><path d="M34,46.206l6.945-1.737-5.208-5.208Z" transform="translate(3.514 8.25)" fill="#f4b400"/><path d="M34.21,47.626a1.21,1.21,0,0,1-1.174-1.5l1.737-6.945a1.21,1.21,0,0,1,2.029-.562l5.2,5.2a1.21,1.21,0,0,1-.563,2.031L34.5,47.59a1.21,1.21,0,0,1-.293.036ZM36.6,41.838l-.726,2.914,2.915-.726Z" transform="translate(3.304 8.04)" fill="#060606"/><path d="M0,0H4.911V7.366H0Z" transform="translate(39.241 47.51) rotate(-45)" fill="#db4437"/><path d="M40.853,46.492A1.21,1.21,0,0,1,40,46.137l-5.2-5.2a1.21,1.21,0,0,1,0-1.711l3.473-3.472a1.21,1.21,0,0,1,1.711,0l5.2,5.2a1.21,1.21,0,0,1,0,1.711l-3.472,3.472A1.21,1.21,0,0,1,40.853,46.492Zm-3.5-6.414,3.5,3.5,1.761-1.761-3.5-3.5Z" transform="translate(3.607 7.438)" fill="#060606"/><path d="M26.3,23.1a1.21,1.21,0,0,1-.855-.354l-3.681-3.681,1.711-1.711L26.3,20.179l8.843-8.844,1.711,1.711-9.7,9.7A1.21,1.21,0,0,1,26.3,23.1Z" transform="translate(0.943 2.382)" fill="#070707"/><path d="M51,37h2.42v2.42H51Z" transform="translate(7.087 7.775)" fill="#383838"/><path d="M29,44h2.42v2.42H29Z" transform="translate(2.464 9.246)" fill="#060606"/></g></g></g></svg>