<svg xmlns="http://www.w3.org/2000/svg" xmlns:xlink="http://www.w3.org/1999/xlink" width="85" height="85" viewBox="0 0 85 85"><defs><clipPath id="a"><rect width="85" height="85" transform="translate(200 12037)" fill="#2ff980"/></clipPath></defs><g transform="translate(-200 -12037)" clip-path="url(#a)"><g transform="translate(205.493 12032.352)"><g transform="translate(1.135 12.988)"><path d="M44.4,24.318,64.048,58.351A8.973,8.973,0,0,1,56.277,71.81H16.98A8.973,8.973,0,0,1,9.21,58.351L28.858,24.318a8.973,8.973,0,0,1,15.541,0Z" transform="translate(-7.998 -19.832)" fill="#fe646f" fill-rule="evenodd"/><path d="M206.807,24.318l19.649,34.032a8.973,8.973,0,0,1-7.771,13.459H216.35a8.973,8.973,0,0,0,7.771-13.459L204.472,24.318a8.9,8.9,0,0,0-6.6-4.412,9.17,9.17,0,0,1,1.167-.075A8.912,8.912,0,0,1,206.807,24.318Z" transform="translate(-170.405 -19.832)" fill="#fd4755" fill-rule="evenodd"/><path d="M68.009,54.318,87.658,88.35a4.3,4.3,0,0,1-3.72,6.443h-39.3a4.3,4.3,0,0,1-3.72-6.443L60.569,54.318a4.3,4.3,0,0,1,7.439,0Z" transform="translate(-35.659 -47.493)" fill="#ffe177" fill-rule="evenodd"/><path d="M46.975,94.793H44.641a4.3,4.3,0,0,1-3.72-6.443L60.569,54.318a4.235,4.235,0,0,1,3.72-2.148,4.393,4.393,0,0,1,1.167.156A4.23,4.23,0,0,0,62.9,54.318L43.255,88.35a4.3,4.3,0,0,0,3.72,6.443Z" transform="translate(-35.659 -47.493)" fill="#ffd064" fill-rule="evenodd"/><path d="M191.409,146.216a2.457,2.457,0,1,1-2.457,2.457,2.457,2.457,0,0,1,2.457-2.457Zm0-2.569a1.918,1.918,0,0,1-1.917-1.849l-.485-13.425a1.918,1.918,0,0,1,1.917-1.987h.97a1.918,1.918,0,0,1,1.917,1.987l-.485,13.425A1.918,1.918,0,0,1,191.409,143.647Z" transform="translate(-162.778 -110.974)" fill="#fe646f" fill-rule="evenodd"/><path d="M202.487,146.215a2.457,2.457,0,1,1-.584,4.844,2.457,2.457,0,0,0,0-4.774A2.48,2.48,0,0,1,202.487,146.215Zm0-2.569a1.914,1.914,0,0,1-.584-.091,1.919,1.919,0,0,0,1.333-1.758l.485-13.425a1.918,1.918,0,0,0-1.818-1.985l.1,0h.97a1.918,1.918,0,0,1,1.917,1.987L204.4,141.8a1.918,1.918,0,0,1-1.917,1.849Z" transform="translate(-173.856 -110.973)" fill="#fd4755" fill-rule="evenodd"/><g transform="translate(24.252 22.178)"><path d="M378.75,366.042a14.632,14.632,0,0,1-2.469,2.719L383,375.342l2.556-2.634Z" transform="translate(-347.263 -338.143)" fill="#a79ba7" fill-rule="evenodd"/><path d="M389.344,365.729a1.687,1.687,0,0,1-.731.98l6.67,6.626.817-.9Z" transform="translate(-357.811 -337.876)" fill="#837683" fill-rule="evenodd"/><path d="M420.805,412.711l2.885-2.973a1.327,1.327,0,0,0-.028-1.87l-7.99-7.754a1.327,1.327,0,0,0-1.87.028l-2.885,2.973a1.327,1.327,0,0,0,.028,1.871l7.99,7.753A1.327,1.327,0,0,0,420.805,412.711Z" transform="translate(-376.571 -366.969)" fill="#f1ba84" fill-rule="evenodd"/><path d="M435.867,400.114l7.99,7.754a1.327,1.327,0,0,1,.028,1.87L441,412.711a1.308,1.308,0,0,1-.358.262,1.328,1.328,0,0,0,1.54-.262l2.885-2.973a1.327,1.327,0,0,0-.028-1.87l-7.99-7.754a1.328,1.328,0,0,0-1.512-.234A1.31,1.31,0,0,1,435.867,400.114Z" transform="translate(-397.948 -366.969)" fill="#e3a76f" fill-rule="evenodd"/><circle cx="14.55" cy="14.55" r="14.55" transform="translate(0 20.574) rotate(-45)" fill="#8ac9fe"/><path d="M313.794,214.808a14.55,14.55,0,0,1,0,29.1q-.355,0-.706-.017a14.55,14.55,0,0,0,0-29.066C313.322,214.814,313.557,214.808,313.794,214.808Z" transform="translate(-293.211 -208.784)" fill="#60b7ff" fill-rule="evenodd"/><circle cx="10.448" cy="10.448" r="10.448" transform="matrix(0.305, -0.952, 0.952, 0.305, 7.429, 27.339)" fill="#eceff1"/><path d="M256.187,243.17c.237,0,.473.009.706.024a10.447,10.447,0,0,0,0,20.847c-.233.016-.469.024-.706.024a10.448,10.448,0,1,1,0-20.9Z" transform="translate(-235.603 -233.044)" fill="#d1d1d6" fill-rule="evenodd"/></g></g><path d="M45.974,64.913a9.173,9.173,0,1,1,9.173-9.173A9.183,9.183,0,0,1,45.974,64.913Zm0-20.66A11.487,11.487,0,1,0,57.461,55.741,11.5,11.5,0,0,0,45.974,44.253ZM71.68,77.13,68.794,80.1a.17.17,0,0,1-.234,0l-7.99-7.754a.16.16,0,0,1-.048-.116.156.156,0,0,1,.044-.118l2.884-2.973a.173.173,0,0,1,.117-.05h0a.162.162,0,0,1,.114.045l7.99,7.755a.17.17,0,0,1,0,.234Zm-39.1-21.39A13.392,13.392,0,1,0,45.974,42.348,13.407,13.407,0,0,0,32.581,55.741Zm-.315-7.663a15.745,15.745,0,0,1,11.641-7.906L32.487,20.392a3.138,3.138,0,0,0-5.436,0L7.4,54.424a3.137,3.137,0,0,0,2.718,4.707H30.636a15.679,15.679,0,0,1-.369-3.39c0-.5.025-1,.071-1.484a3.712,3.712,0,0,1-.568.045,3.614,3.614,0,1,1,2.5-6.224Zm-2.5,3.909a1.3,1.3,0,1,1,1.3-1.3A1.3,1.3,0,0,1,29.769,51.987ZM10.121,63.809H32.5a15.747,15.747,0,0,1-1.163-2.363H10.121A5.452,5.452,0,0,1,5.4,53.267L25.047,19.235a5.452,5.452,0,0,1,9.444,0L46.5,40.044a15.593,15.593,0,0,1,2.948.379L36.537,18.054a7.813,7.813,0,0,0-13.535,0L3.351,52.086a7.816,7.816,0,0,0,6.769,11.723Zm50.8,4.617-.945.973-2.774-2.691q.475-.486.906-1.01Zm12.363,6.81L65.3,67.481a2.472,2.472,0,0,0-1.763-.7,2.5,2.5,0,0,0-.82.153l-3.252-3.155A15.7,15.7,0,0,0,52.8,41.6L38.542,16.9A10.129,10.129,0,0,0,21,16.9L1.348,50.928a10.13,10.13,0,0,0,8.772,15.195H34.2a15.68,15.68,0,0,0,21.27,2.121l2.989,2.9a2.493,2.493,0,0,0-.25,1.125,2.463,2.463,0,0,0,.751,1.742l7.99,7.754a2.484,2.484,0,0,0,3.506-.052h0l2.884-2.973A2.483,2.483,0,0,0,73.288,75.235ZM30.53,43.771a.761.761,0,0,1-1.522,0l-.485-13.426a.759.759,0,0,1,.761-.787h.969a.758.758,0,0,1,.761.787Zm-.276-16.527a3.077,3.077,0,0,1,3.074,3.185l-.486,13.426a3.075,3.075,0,0,1-6.146,0l-.484-13.426a3.076,3.076,0,0,1,3.074-3.185Z" transform="translate(0)" fill-rule="evenodd"/></g></g></svg>