<svg xmlns="http://www.w3.org/2000/svg" xmlns:xlink="http://www.w3.org/1999/xlink" width="125" height="125" viewBox="0 0 125 125"><defs><clipPath id="a"><rect width="125" height="125" transform="translate(200.436 12037.436)" fill="#2ff980"/></clipPath></defs><g transform="translate(-200.436 -12037.436)" clip-path="url(#a)"><g transform="translate(208.09 12047.627)"><g transform="translate(1.717 1.712)"><path d="M61.857,26.47,90.929,76.824a13.276,13.276,0,0,1-11.5,19.914H21.288a13.276,13.276,0,0,1-11.5-19.914L38.863,26.47a13.276,13.276,0,0,1,22.994,0Z" transform="translate(-7.998 -19.832)" fill="#fe646f" fill-rule="evenodd"/><path d="M211.093,26.47l29.072,50.354a13.276,13.276,0,0,1-11.5,19.914h-3.454a13.276,13.276,0,0,0,11.5-19.914L207.639,26.47a13.171,13.171,0,0,0-9.77-6.527,13.568,13.568,0,0,1,1.727-.11A13.186,13.186,0,0,1,211.093,26.47Z" transform="translate(-157.234 -19.832)" fill="#fd4755" fill-rule="evenodd"/><path d="M81.281,55.347,110.353,105.7a6.355,6.355,0,0,1-5.5,9.533H46.705a6.355,6.355,0,0,1-5.5-9.533L70.273,55.347a6.355,6.355,0,0,1,11.007,0Z" transform="translate(-33.415 -45.249)" fill="#ffe177" fill-rule="evenodd"/><path d="M50.159,115.234H46.705a6.355,6.355,0,0,1-5.5-9.533L70.273,55.347a6.265,6.265,0,0,1,5.5-3.177A6.5,6.5,0,0,1,77.5,52.4a6.259,6.259,0,0,0-3.777,2.947L44.655,105.7a6.355,6.355,0,0,0,5.5,9.533Z" transform="translate(-33.415 -45.249)" fill="#ffd064" fill-rule="evenodd"/><path d="M192.587,155.726a3.635,3.635,0,1,1-3.635,3.635,3.635,3.635,0,0,1,3.635-3.635Zm0-3.8a2.838,2.838,0,0,1-2.836-2.735l-.717-19.864a2.838,2.838,0,0,1,2.836-2.94H193.3a2.838,2.838,0,0,1,2.836,2.94l-.717,19.864A2.838,2.838,0,0,1,192.587,151.925Z" transform="translate(-150.225 -103.582)" fill="#fe646f" fill-rule="evenodd"/><path d="M202.767,155.725a3.635,3.635,0,1,1-.864,7.167,3.636,3.636,0,0,0,0-7.064A3.669,3.669,0,0,1,202.767,155.725Zm0-3.8a2.833,2.833,0,0,1-.864-.134,2.839,2.839,0,0,0,1.973-2.6l.717-19.864a2.838,2.838,0,0,0-2.69-2.937c.048,0,.1,0,.146,0h1.435a2.837,2.837,0,0,1,2.836,2.94l-.717,19.864a2.838,2.838,0,0,1-2.836,2.736Z" transform="translate(-160.405 -103.581)" fill="#fd4755" fill-rule="evenodd"/><g transform="translate(35.883 32.815)"><path d="M379.935,366.042a21.652,21.652,0,0,1-3.654,4.022l9.934,9.738L390,375.9Z" transform="translate(-333.347 -324.763)" fill="#a79ba7" fill-rule="evenodd"/><path d="M389.694,365.729a2.5,2.5,0,0,1-1.081,1.45l9.869,9.8,1.209-1.324Z" transform="translate(-343.039 -324.517)" fill="#837683" fill-rule="evenodd"/><path d="M425.726,418.931l4.268-4.4a1.963,1.963,0,0,0-.042-2.767l-11.823-11.472a1.963,1.963,0,0,0-2.767.042l-4.268,4.4a1.963,1.963,0,0,0,.042,2.768l11.822,11.472A1.963,1.963,0,0,0,425.726,418.931Z" transform="translate(-360.277 -351.251)" fill="#f1ba84" fill-rule="evenodd"/><path d="M436.025,400.292l11.822,11.472a1.963,1.963,0,0,1,.042,2.767l-4.268,4.4a1.935,1.935,0,0,1-.53.387,1.965,1.965,0,0,0,2.279-.387l4.268-4.4a1.963,1.963,0,0,0-.042-2.767l-11.822-11.472a1.964,1.964,0,0,0-2.237-.346A1.94,1.94,0,0,1,436.025,400.292Z" transform="translate(-379.921 -351.251)" fill="#e3a76f" fill-rule="evenodd"/><circle cx="21.528" cy="21.528" r="21.528" transform="translate(0 30.441) rotate(-45)" fill="#8ac9fe"/><path d="M314.133,214.808a21.528,21.528,0,0,1,0,43.057q-.525,0-1.045-.026a21.528,21.528,0,0,0,0-43.005C313.434,214.817,313.782,214.808,314.133,214.808Z" transform="translate(-283.678 -205.895)" fill="#60b7ff" fill-rule="evenodd"/><circle cx="15.459" cy="15.459" r="15.459" transform="matrix(0.305, -0.952, 0.952, 0.305, 10.992, 40.451)" fill="#eceff1"/><path d="M261.2,243.17c.351,0,.7.013,1.045.036a15.458,15.458,0,0,0,0,30.845c-.345.023-.694.036-1.045.036a15.459,15.459,0,1,1,0-30.917Z" transform="translate(-230.742 -228.188)" fill="#d1d1d6" fill-rule="evenodd"/></g></g><path d="M68.035,90.371A13.572,13.572,0,1,1,81.607,76.8,13.587,13.587,0,0,1,68.035,90.371Zm0-30.569a17,17,0,1,0,17,17A17.017,17.017,0,0,0,68.035,59.8Zm38.034,48.645-4.27,4.4a.252.252,0,0,1-.346.006L89.631,101.379a.236.236,0,0,1-.071-.172.231.231,0,0,1,.066-.175l4.268-4.4a.256.256,0,0,1,.174-.074h0a.24.24,0,0,1,.169.067L106.062,108.1a.251.251,0,0,1,.007.346ZM48.219,76.8A19.815,19.815,0,1,0,68.035,56.984,19.837,19.837,0,0,0,48.219,76.8Zm-.467-11.339a23.3,23.3,0,0,1,17.224-11.7L48.079,24.5a4.643,4.643,0,0,0-8.043,0L10.965,74.852a4.642,4.642,0,0,0,4.022,6.964H45.34a23.2,23.2,0,0,1-.546-5.016c0-.741.036-1.472.105-2.2a5.491,5.491,0,0,1-.841.067,5.347,5.347,0,1,1,3.694-9.209Zm-3.694,5.784a1.923,1.923,0,1,1,1.924-1.921A1.925,1.925,0,0,1,44.058,71.245ZM14.987,88.737H48.1a23.3,23.3,0,0,1-1.72-3.5H14.987A8.067,8.067,0,0,1,8,73.139L37.071,22.786a8.067,8.067,0,0,1,13.973,0L68.819,53.574a23.072,23.072,0,0,1,4.362.561l-19.109-33.1a11.56,11.56,0,0,0-20.027,0L4.971,71.391A11.564,11.564,0,0,0,14.987,88.737Zm75.17,6.831-1.4,1.44-4.1-3.982q.7-.719,1.341-1.494Zm18.292,10.076L96.625,94.171a3.657,3.657,0,0,0-2.609-1.034,3.7,3.7,0,0,0-1.214.227L87.991,88.7a23.224,23.224,0,0,0-9.853-32.823l-21.1-36.547a14.987,14.987,0,0,0-25.96,0L2.007,69.679A14.989,14.989,0,0,0,14.987,92.161H50.612A23.2,23.2,0,0,0,82.082,95.3l4.423,4.293a3.689,3.689,0,0,0-.37,1.665,3.644,3.644,0,0,0,1.111,2.577l11.822,11.473a3.675,3.675,0,0,0,5.188-.077l0,0,4.267-4.4A3.674,3.674,0,0,0,108.449,105.644ZM45.184,59.09a1.126,1.126,0,0,1-2.251,0l-.717-19.865a1.123,1.123,0,0,1,1.126-1.164h1.434A1.121,1.121,0,0,1,45.9,39.225Zm-.409-24.453a4.553,4.553,0,0,1,4.549,4.712L48.6,59.214a4.55,4.55,0,0,1-9.094,0l-.717-19.865a4.552,4.552,0,0,1,4.548-4.712Z" transform="translate(0.025 -11.831)" fill-rule="evenodd"/></g></g></svg>