<svg xmlns="http://www.w3.org/2000/svg" xmlns:xlink="http://www.w3.org/1999/xlink" width="125" height="125" viewBox="0 0 125 125"><defs><clipPath id="a"><rect width="125" height="125" transform="translate(200.436 12037.436)" fill="#2ff980"/></clipPath></defs><g transform="translate(-200.436 -12037.436)" clip-path="url(#a)"><g transform="translate(210.544 12048.561)"><g transform="translate(1.551 1.534)"><path d="M56.354,165.346H9.541A2.046,2.046,0,0,1,7.495,163.3V88.8a2.046,2.046,0,0,1,2.046-2.046H56.354A2.046,2.046,0,0,1,58.4,88.8v74.5a2.046,2.046,0,0,1-2.046,2.046Z" transform="translate(-7.495 -70.539)" fill="#e1ebf0"/><path d="M77.871,88.8v69.463a2.046,2.046,0,0,1-2.046,2.046h-41.8a2.046,2.046,0,0,1-2.046-2.046V88.8a2.046,2.046,0,0,1,2.046-2.046h41.8A2.046,2.046,0,0,1,77.871,88.8Z" transform="translate(-26.967 -70.536)" fill="#d2e4e7"/><path d="M104.025,125.72H49.017a2.046,2.046,0,0,1-2.046-2.046v-74.5a2.046,2.046,0,0,1,2.046-2.046h55.008a2.046,2.046,0,0,1,2.046,2.046v74.5A2.046,2.046,0,0,1,104.025,125.72Z" transform="translate(-38.895 -39.02)" fill="#e1ebf0"/><path d="M125.539,49.176v69.463a2.046,2.046,0,0,1-2.046,2.046h-50a2.046,2.046,0,0,1-2.046-2.046V49.176a2.046,2.046,0,0,1,2.046-2.046h50a2.046,2.046,0,0,1,2.046,2.046Z" transform="translate(-58.361 -39.022)" fill="#d2e4e7"/><path d="M86.445,84.048V9.546A2.046,2.046,0,0,1,88.491,7.5H143.5a2.046,2.046,0,0,1,2.046,2.046v74.5a2.046,2.046,0,0,1-2.046,2.046H88.491A2.046,2.046,0,0,1,86.445,84.048Z" transform="translate(-70.293 -7.5)" fill="#e1ebf0"/><path d="M254.661,71.5h16.2a1.023,1.023,0,0,0,1.023-1.023V54.21a1.023,1.023,0,0,0-1.023-1.023h-16.2a1.023,1.023,0,0,0-1.023,1.023V70.477A1.023,1.023,0,0,0,254.661,71.5Z" transform="translate(-203.279 -43.84)" fill="#f3d332"/><path d="M258.75,71.5h-4.092a1.023,1.023,0,0,1-1.023-1.023V54.213a1.023,1.023,0,0,1,1.023-1.023h4.092a1.023,1.023,0,0,0-1.023,1.023V70.48A1.023,1.023,0,0,0,258.75,71.5Z" transform="translate(-203.277 -43.842)" fill="#ecc52e"/><g transform="translate(21.27 23.646)"><path d="M133.894,126.144h-20.9a1.534,1.534,0,1,1,0-3.069h20.9a1.534,1.534,0,1,1,0,3.069Z" transform="translate(-111.456 -123.075)" fill="#b4d2d7"/></g><g transform="translate(33.622 36.618)"><path d="M194.459,189.548H173.365a1.534,1.534,0,0,1,0-3.069h21.094a1.534,1.534,0,0,1,0,3.069Z" transform="translate(-171.831 -186.479)" fill="#b4d2d7"/></g><g transform="translate(21.27 16.969)"><path d="M133.894,93.511h-20.9a1.534,1.534,0,1,1,0-3.069h20.9a1.534,1.534,0,0,1,0,3.069Z" transform="translate(-111.456 -90.442)" fill="#b4d2d7"/></g><g transform="translate(21.27 10.293)"><path d="M133.894,60.878h-20.9a1.534,1.534,0,1,1,0-3.069h20.9a1.534,1.534,0,1,1,0,3.069Z" transform="translate(-111.456 -57.809)" fill="#b4d2d7"/></g><g transform="translate(21.27 53.595)"><path d="M144.468,272.53H112.99a1.534,1.534,0,0,1,0-3.069h31.477a1.534,1.534,0,0,1,0,3.069Z" transform="translate(-111.456 -269.461)" fill="#b4d2d7"/></g><g transform="translate(21.27 45.011)"><path d="M137.885,230.573H112.99a1.534,1.534,0,0,1,0-3.069h24.894a1.534,1.534,0,1,1,0,3.069Z" transform="translate(-111.456 -227.504)" fill="#b4d2d7"/></g><g transform="translate(52.815 45.011)"><path d="M281.526,230.573H267.178a1.534,1.534,0,1,1,0-3.069h14.348a1.534,1.534,0,1,1,0,3.069Z" transform="translate(-265.644 -227.504)" fill="#b4d2d7"/></g><path d="M187.3,328.24a2.046,2.046,0,0,1,2.046,2.046v1.389a9.52,9.52,0,0,1-9.5,9.538l-31.021,1.023-16.867-1.023a9.522,9.522,0,0,0,9.5-9.538v-1.389a2.046,2.046,0,0,1,2.046-2.046Z" transform="translate(-106.492 -262.619)" fill="#d2e4e7"/><path d="M292.418,264.7v12.985H271.1a22.62,22.62,0,0,1,20.441-13C291.83,264.68,292.125,264.686,292.418,264.7Z" transform="translate(-217.165 -212.063)" fill="#d2e4e7"/><path d="M276.014,328.24v14a2.047,2.047,0,0,1-2.046,2.046H261.546a22.191,22.191,0,0,1-.561-2.369,22.637,22.637,0,0,1,1.782-13.673Z" transform="translate(-208.837 -262.619)" fill="#b4d2d7"/><path d="M424.233,424.094l10.386,9.242a4.239,4.239,0,0,1,.141,6.032,4.3,4.3,0,0,1-6.064-.151l-10.374-9.291Z" transform="translate(-334.27 -338.862)" fill="#f3d332"/><path d="M427.317,426.834a22.76,22.76,0,0,1-5.847,5.9l-3.145-2.815,5.911-5.833Z" transform="translate(-334.273 -338.859)" fill="#ecc52e"/><path d="M279.594,396.65v5.037a2.047,2.047,0,0,1-2.046,2.046h-10.24a22.374,22.374,0,0,1-2.183-5.037h12.423A2.047,2.047,0,0,0,279.594,396.65Z" transform="translate(-212.416 -317.033)" fill="#d2e4e7"/><path d="M280.622,303.231a18.491,18.491,0,1,1,18.491,18.548A18.569,18.569,0,0,1,280.622,303.231Z" transform="translate(-224.743 -227.974)" fill="#3a67c1"/><path d="M313.28,329a18.477,18.477,0,0,1-32.655-11.919,18.51,18.51,0,0,1,7.594-14.984A18.516,18.516,0,0,0,313.28,329Z" transform="translate(-224.745 -241.827)" fill="#30569f"/><path d="M314.572,330.32a11.545,11.545,0,1,1,11.545,11.58A11.589,11.589,0,0,1,314.572,330.32Z" transform="translate(-251.747 -255.062)" fill="#e1ebf0"/><path d="M336.057,342.41a11.556,11.556,0,1,1-15.784-15.88,11.384,11.384,0,0,0-.953,2.048,11.552,11.552,0,0,0,16.738,13.832Z" transform="translate(-251.749 -261.259)" fill="#d2e4e7"/></g><g transform="translate(0.022)"><path d="M248.722,67.069h16.2a2.56,2.56,0,0,0,2.557-2.557V48.245a2.56,2.56,0,0,0-2.557-2.557h-16.2a2.56,2.56,0,0,0-2.557,2.557v3.849a1.534,1.534,0,1,0,3.069,0V48.757h15.174V64H249.234V59.477a1.534,1.534,0,1,0-3.069,0v5.035A2.56,2.56,0,0,0,248.722,67.069Z" transform="translate(-195.806 -36.341)"/><path d="M113.017,126.144h20.9a1.534,1.534,0,1,0,0-3.069h-20.9a1.534,1.534,0,1,0,0,3.069Z" transform="translate(-88.679 -97.895)"/><path d="M196.02,188.013a1.534,1.534,0,0,0-1.534-1.534H173.392a1.534,1.534,0,0,0,0,3.069h21.094A1.534,1.534,0,0,0,196.02,188.013Z" transform="translate(-136.702 -148.327)"/><path d="M113.017,93.511h20.9a1.534,1.534,0,0,0,0-3.069h-20.9a1.534,1.534,0,0,0,0,3.069Z" transform="translate(-88.679 -71.938)"/><path d="M113.017,60.878h20.9a1.534,1.534,0,1,0,0-3.069h-20.9a1.534,1.534,0,0,0,0,3.069Z" transform="translate(-88.679 -45.982)"/><path d="M113.017,272.53h31.477a1.534,1.534,0,0,0,0-3.069H113.017a1.534,1.534,0,0,0,0,3.069Z" transform="translate(-88.679 -214.332)"/><path d="M113.017,230.573h24.894a1.534,1.534,0,1,0,0-3.069H113.017a1.534,1.534,0,0,0,0,3.069Z" transform="translate(-88.679 -180.959)"/><path d="M281.553,227.5H267.205a1.534,1.534,0,1,0,0,3.069h14.348a1.534,1.534,0,0,0,0-3.069Z" transform="translate(-211.322 -180.959)"/><path d="M102.982,94.915l-.057-.054-9.442-8.4a20.02,20.02,0,0,0,2.457-8.938,1.534,1.534,0,0,0-3.067-.109,16.989,16.989,0,1,1-.971-6.339,1.534,1.534,0,0,0,2.891-1.028A20.087,20.087,0,0,0,78.344,56.858V2.557A2.56,2.56,0,0,0,75.786,0H18.732a2.56,2.56,0,0,0-2.557,2.557v5.55H10.656A2.56,2.56,0,0,0,8.1,10.665v5.55H2.579A2.56,2.56,0,0,0,.022,18.772V95.319a2.56,2.56,0,0,0,2.557,2.557H51.438A2.56,2.56,0,0,0,54,95.319v-5.55h6.661a19.981,19.981,0,0,0,24.757,4.715L94.928,103a5.711,5.711,0,1,0,8.054-8.09ZM19.244,3.069H75.275V56.722a20.053,20.053,0,0,0-15.99,8.9h-6.23a1.534,1.534,0,1,0,0,3.069H57.6q-.308.7-.566,1.432a20.087,20.087,0,0,0-1.131,6.67c0,.607.029,1.207.081,1.8H34.635a11.056,11.056,0,0,0,3.422-8v-1.9H46.4a1.534,1.534,0,1,0,0-3.069H36.523a1.534,1.534,0,0,0-1.534,1.534v3.433a8,8,0,0,1-7.967,8H19.244ZM11.167,86.7V65.725a1.534,1.534,0,0,0-3.069,0V87.211a2.56,2.56,0,0,0,2.557,2.557H50.927v5.038H3.091V19.283H8.1V59.239a1.534,1.534,0,1,0,3.069,0V11.176h5.008V80.127a1.534,1.534,0,0,0,1.534,1.534H56.5A19.986,19.986,0,0,0,58.514,86.7H11.167Zm89.8,14.25a2.786,2.786,0,0,1-3.96-.2l-8.924-7.993a20.327,20.327,0,0,0,3.7-3.7l9.066,8.068a2.717,2.717,0,0,1,.113,3.824Z" transform="translate(-0.022)"/><path d="M320.172,311.233a13.115,13.115,0,1,0,13.079,13.115A13.156,13.156,0,0,0,320.172,311.233Zm0,23.161a10.046,10.046,0,1,1,10.01-10.046A10.04,10.04,0,0,1,320.172,334.394Z" transform="translate(-244.267 -247.557)"/></g></g></g></svg>