<svg xmlns="http://www.w3.org/2000/svg" xmlns:xlink="http://www.w3.org/1999/xlink" width="125" height="125" viewBox="0 0 125 125"><defs><clipPath id="a"><rect width="125" height="125" transform="translate(200.436 12037.436)" fill="#2ff980"/></clipPath></defs><g transform="translate(-200.436 -12037.436)" clip-path="url(#a)"><g transform="translate(192.765 12029.424)"><path d="M197.057,253.707A30.714,30.714,0,0,1,160,258.589L175.351,232Z" transform="translate(-111.498 -167.247)" fill="#8acce7"/><path d="M141.364,54.686h-30.7L95.317,81.274a30.7,30.7,0,1,1,46.047-26.589Z" transform="translate(-49.526 -6.184)" fill="#e44042"/><path d="M194.037,54.7h-30.7L147.99,28.108A30.7,30.7,0,0,1,194.037,54.7Z" transform="translate(-102.199 -6.195)" fill="#a2c32a"/><path d="M286.7,199.83a30.6,30.6,0,0,1-8.99,21.706L256,199.83Z" transform="translate(-185.83 -142.338)" fill="#eedc9a"/><path d="M29.417,265h32.5a5.417,5.417,0,0,0,5.417-5.417V210.834L56.5,200H29.417A5.417,5.417,0,0,0,24,205.417v54.17A5.417,5.417,0,0,0,29.417,265Z" transform="translate(-6.195 -142.47)" fill="#eedc9a"/><path d="M168,200v10.834h10.834Z" transform="translate(-117.692 -142.47)" fill="#eebe33"/><rect width="28.981" height="18.248" rx="9.124" transform="translate(80.903 104.518)" fill="#8acce7"/><rect width="25.761" height="18.248" rx="9.124" transform="translate(97.004 28.307)" fill="#2d80b3"/><path d="M51.585,192.529A1.806,1.806,0,0,0,50.308,192H23.222A7.231,7.231,0,0,0,16,199.223v54.17a7.231,7.231,0,0,0,7.223,7.223h32.5a7.231,7.231,0,0,0,7.223-7.223V204.64a1.806,1.806,0,0,0-.529-1.277Zm.529,5.636,4.669,4.669H52.113ZM55.725,257h-32.5a3.615,3.615,0,0,1-3.611-3.611v-54.17a3.615,3.615,0,0,1,3.611-3.611H48.5v9.028a1.806,1.806,0,0,0,1.806,1.806h9.028v46.948A3.615,3.615,0,0,1,55.725,257Z" transform="translate(0 -136.276)"/><path d="M48,224h7.223v3.611H48Z" transform="translate(-24.777 -161.053)"/><path d="M80,272H98.057v3.611H80Z" transform="translate(-49.555 -198.219)"/><path d="M176,272h3.611v3.611H176Z" transform="translate(-123.887 -198.219)"/><path d="M160,336h7.223v3.611H160Z" transform="translate(-111.498 -247.773)"/><path d="M48,336H69.668v3.611H48Z" transform="translate(-24.777 -247.773)"/><path d="M128,304h14.445v3.611H128Z" transform="translate(-86.721 -222.996)"/><path d="M48,304H62.445v3.611H48Z" transform="translate(-24.777 -222.996)"/><path d="M48,368H58.834v3.611H48Z" transform="translate(-24.777 -272.551)"/><path d="M112,368h18.057v3.611H112Z" transform="translate(-74.332 -272.551)"/><path d="M48,400H66.057v3.611H48Z" transform="translate(-24.777 -297.328)"/><path d="M144.8,400h7.043v3.611H144.8Z" transform="translate(-99.727 -297.328)"/><path d="M152.8,432h7.043v3.611H152.8Z" transform="translate(-105.922 -322.105)"/><path d="M231.77,358.924l.1,3.61a32.894,32.894,0,0,0,3.822-.335l-.526-3.573a29.19,29.19,0,0,1-3.4.3Z" transform="translate(-167.069 -265.293)"/><path d="M247.251,266.081a32.506,32.506,0,0,0,8.646-6.194,1.806,1.806,0,0,0,0-2.554l-19-19-2.554,2.554,17.684,17.684a28.861,28.861,0,0,1-6.371,4.27Z" transform="translate(-169.061 -172.151)"/><path d="M75.809,51.9a29.324,29.324,0,0,1-.2-3.4,29.006,29.006,0,0,1,12.909-24.07l13.9,24.07-3.649,6.32,3.128,1.806,3.649-6.32H135.2A1.806,1.806,0,0,0,137,48.5a32.5,32.5,0,1,0-65,0,32.939,32.939,0,0,0,.222,3.82ZM133.337,46.7H105.545l-13.9-24.073A28.9,28.9,0,0,1,133.337,46.7Z" transform="translate(-43.361)"/><path d="M262.445,191.83h-12.64a1.806,1.806,0,0,0-1.277,3.083l21.706,21.706a1.806,1.806,0,0,0,2.554,0,32.29,32.29,0,0,0,9.519-22.983,1.806,1.806,0,0,0-1.806-1.806h-3.611v3.611h1.751a28.641,28.641,0,0,1-7.168,17.308l-17.308-17.308h8.28Z" transform="translate(-179.636 -136.144)"/><path d="M244.9,330.343l-2.554,2.554,10.834,10.834a1.806,1.806,0,0,0,1.277.529h32.5v-3.611H255.2Z" transform="translate(-175.255 -243.393)"/><path d="M321.279,400H303.223A7.231,7.231,0,0,0,296,407.223v7.223a7.231,7.231,0,0,0,7.223,7.223h18.057a7.231,7.231,0,0,0,7.223-7.223v-7.223A7.231,7.231,0,0,0,321.279,400Zm3.611,14.445a3.616,3.616,0,0,1-3.611,3.611H303.223a3.616,3.616,0,0,1-3.611-3.611v-7.223a3.616,3.616,0,0,1,3.611-3.611h18.057a3.615,3.615,0,0,1,3.611,3.611Z" transform="translate(-216.801 -297.328)"/><path d="M336,424h10.834v3.611H336Z" transform="translate(-247.773 -315.911)"/><path d="M400,424h3.611v3.611H400Z" transform="translate(-297.328 -315.911)"/><path d="M320,456h3.611v3.611H320Z" transform="translate(-235.384 -340.688)"/><path d="M352,456h10.834v3.611H352Z" transform="translate(-260.162 -340.688)"/><path d="M389.668,64H375.223A7.231,7.231,0,0,0,368,71.223v7.223a7.231,7.231,0,0,0,7.223,7.223h14.445a7.231,7.231,0,0,0,7.223-7.223V71.223A7.231,7.231,0,0,0,389.668,64Zm3.611,14.445a3.615,3.615,0,0,1-3.611,3.611H375.223a3.616,3.616,0,0,1-3.611-3.611V71.223a3.616,3.616,0,0,1,3.611-3.611h14.445a3.615,3.615,0,0,1,3.611,3.611Z" transform="translate(-272.55 -37.166)"/><path d="M408,88h7.223v3.611H408Z" transform="translate(-303.522 -55.749)"/><path d="M456,88h3.611v3.611H456Z" transform="translate(-340.688 -55.749)"/><path d="M392,120h3.611v3.611H392Z" transform="translate(-291.133 -80.527)"/><path d="M424,120h7.223v3.611H424Z" transform="translate(-315.911 -80.527)"/><path d="M331.371,168.529l-9.028,9.028,2.554,2.554,8.5-8.5h28.143V168H332.648a1.806,1.806,0,0,0-1.277.529Z" transform="translate(-237.199 -117.693)"/></g></g></svg>