<svg xmlns="http://www.w3.org/2000/svg" xmlns:xlink="http://www.w3.org/1999/xlink" width="125" height="125" viewBox="0 0 125 125"><defs><clipPath id="a"><rect width="125" height="125" transform="translate(200.436 12037.436)" fill="#2ff980"/></clipPath></defs><g transform="translate(-200.436 -12037.436)" clip-path="url(#a)"><g transform="translate(208.12 12043.547)"><path d="M95.123,81.322V17H12.934V81.322L4,97.4H104.057Z" transform="translate(0.787 12.588)" fill="#5a6d80"/><path d="M9,17H91.19V81.322H9Z" transform="translate(4.72 12.588)" fill="#e6e1fb"/><g transform="translate(26.228 2.787)"><circle cx="3.5" cy="3.5" r="3.5" transform="translate(24.772 -0.009)" fill="#aecdf8"/><circle cx="3.5" cy="3.5" r="3.5" transform="translate(49.772 3.991)" fill="#aecdf8"/><circle cx="3.5" cy="3.5" r="3.5" transform="translate(-0.228 3.991)" fill="#aecdf8"/></g><path d="M62.882,33.409l-1.965-.329A35.82,35.82,0,0,1,41.441,23,35.82,35.82,0,0,1,21.965,33.081L20,33.409A42.51,42.51,0,0,0,37.841,63.235l3.6,2.646,4.49-3.473a42.439,42.439,0,0,0,16.951-28.97Z" transform="translate(13.374 17.308)" fill="#462eb4"/><path d="M4.787,99.976H104.844a1.787,1.787,0,0,0,1.562-2.655L97.7,81.646V17.787A1.787,1.787,0,0,0,95.91,16H13.72a1.787,1.787,0,0,0-1.787,1.787v63.86L3.225,97.321a1.787,1.787,0,0,0,1.562,2.655Zm10.72-80.4H94.123V80.322H15.507ZM14.771,83.9H94.859L101.806,96.4H7.824Z" transform="translate(0 11.801)"/><path d="M31,9h3.573v8.934H31Z" transform="translate(22.029 6.294)"/><path d="M34.36,11.72A5.36,5.36,0,1,0,29,6.36a5.36,5.36,0,0,0,5.36,5.36Zm0-7.147A1.787,1.787,0,1,1,32.573,6.36,1.787,1.787,0,0,1,34.36,4.573Z" transform="translate(20.455)"/><path d="M42.573,13.869l3.05-3.05L43.1,8.293l-3.573,3.573A1.787,1.787,0,0,0,39,13.13v5.36h3.573Z" transform="translate(28.322 5.738)"/><path d="M48.36,13.72A5.36,5.36,0,1,0,43,8.36,5.36,5.36,0,0,0,48.36,13.72Zm0-7.147A1.787,1.787,0,1,1,46.573,8.36,1.787,1.787,0,0,1,48.36,6.573Z" transform="translate(31.469 1.573)"/><path d="M24.343,18.49h3.573V13.13a1.787,1.787,0,0,0-.523-1.263L23.819,8.293l-2.526,2.526,3.05,3.05Z" transform="translate(14.392 5.738)"/><path d="M20.36,13.72A5.36,5.36,0,1,0,15,8.36,5.36,5.36,0,0,0,20.36,13.72Zm0-7.147A1.787,1.787,0,1,1,18.573,8.36,1.787,1.787,0,0,1,20.36,6.573Z" transform="translate(9.441 1.573)"/><path d="M63.964,32.422,62,32.093a33.855,33.855,0,0,1-18.5-9.57,1.837,1.837,0,0,0-2.534,0A33.855,33.855,0,0,1,22.457,32.1l-1.965.329A1.787,1.787,0,0,0,19.01,34.4,44.227,44.227,0,0,0,37.571,65.449l3.6,2.646a1.787,1.787,0,0,0,2.144-.027l4.49-3.473A44.324,44.324,0,0,0,65.433,34.426V34.4a1.787,1.787,0,0,0-1.469-1.976ZM45.624,61.769,42.2,64.418l-2.512-1.847a40.864,40.864,0,0,1-16.9-26.912l.256-.043A37.343,37.343,0,0,0,42.229,26.25a37.343,37.343,0,0,0,19.182,9.366l.248.043a40.979,40.979,0,0,1-16.036,26.11Z" transform="translate(12.587 16.534)"/><path d="M33.46,40.31l-2.526-2.528L28.4,40.308,32.19,44.1a1.787,1.787,0,0,0,2.526,0L44.838,33.99l-2.526-2.526Z" transform="translate(19.983 23.967)" fill="#fff"/></g></g></svg>