<svg xmlns="http://www.w3.org/2000/svg" xmlns:xlink="http://www.w3.org/1999/xlink" width="125" height="125" viewBox="0 0 125 125"><defs><clipPath id="a"><rect width="125" height="125" transform="translate(200.436 12037.436)" fill="#2ff980"/></clipPath></defs><g transform="translate(-200.436 -12037.436)" clip-path="url(#a)"><g transform="translate(204.541 12046.527)"><g transform="translate(8.836 1.656)"><g transform="translate(0)"><path d="M19.5,8.01H109.99a4.324,4.324,0,0,1,4.312,4.312v70.3a4.325,4.325,0,0,1-4.312,4.312H19.5a4.325,4.325,0,0,1-4.312-4.312v-70.3A4.324,4.324,0,0,1,19.5,8.01Z" transform="translate(-15.185 -8.01)" fill="#eceff1" fill-rule="evenodd"/><path d="M455.861,8.01h4.116a4.324,4.324,0,0,1,4.312,4.312v70.3a4.325,4.325,0,0,1-4.312,4.312h-4.116a4.325,4.325,0,0,0,4.312-4.312v-70.3a4.324,4.324,0,0,0-4.312-4.312Z" transform="translate(-365.172 -8.01)" fill="#d1d1d6" fill-rule="evenodd"/><path d="M19.5,8.01H109.99a4.324,4.324,0,0,1,4.312,4.312V23.409H15.185V12.322A4.324,4.324,0,0,1,19.5,8.01Z" transform="translate(-15.185 -8.01)" fill="#a79ba7" fill-rule="evenodd"/><path d="M455.861,8.01h4.116a4.324,4.324,0,0,1,4.312,4.312V23.409h-4.116V12.322A4.324,4.324,0,0,0,455.861,8.01Z" transform="translate(-365.172 -8.01)" fill="#837683" fill-rule="evenodd"/><path d="M62.453,38.218a2.52,2.52,0,1,0-2.52-2.52A2.525,2.525,0,0,0,62.453,38.218Z" transform="translate(-50.724 -27.999)" fill="#fe646f" fill-rule="evenodd"/><path d="M109.457,38.218a2.52,2.52,0,1,0-2.52-2.52A2.525,2.525,0,0,0,109.457,38.218Z" transform="translate(-88.055 -27.999)" fill="#ffe177" fill-rule="evenodd"/><path d="M156.46,38.218a2.52,2.52,0,1,0-2.52-2.52A2.525,2.525,0,0,0,156.46,38.218Z" transform="translate(-125.385 -27.999)" fill="#6cf5c2" fill-rule="evenodd"/></g><g transform="translate(8.123 19.404)"><circle cx="14.004" cy="14.004" r="14.004" transform="matrix(0.94, -0.34, 0.34, 0.94, 0, 9.523)" fill="#60b7ff"/><circle cx="12.264" cy="12.264" r="12.264" transform="matrix(0.94, -0.34, 0.34, 0.94, 2.227, 10.567)" fill="#8ac9fe"/><path d="M141.877,189.393h14a14,14,0,0,1-7,12.13Z" transform="translate(-123.927 -171.469)" fill="#fd4755" fill-rule="evenodd"/><path d="M141.877,189.393h12.264a12.259,12.259,0,0,1-6.131,10.623Z" transform="translate(-123.927 -171.469)" fill="#fe646f" fill-rule="evenodd"/><path d="M155.88,135.347h-14v-14A14,14,0,0,1,155.88,135.347Z" transform="translate(-123.926 -117.424)" fill="#ffd064" fill-rule="evenodd"/><path d="M154.14,142.062H141.876V129.8A12.264,12.264,0,0,1,154.14,142.062Z" transform="translate(-123.926 -124.139)" fill="#ffe177" fill-rule="evenodd"/></g><g transform="translate(62.717 38.84)"><path d="M320.97,246.969h2.758A1.031,1.031,0,0,1,324.757,248v16.3a1.031,1.031,0,0,1-1.029,1.029H320.97a1.031,1.031,0,0,1-1.029-1.029V248A1.031,1.031,0,0,1,320.97,246.969Z" transform="translate(-319.941 -236.632)" fill="#ffe177" fill-rule="evenodd"/><path d="M328.341,246.969H330.4A1.031,1.031,0,0,1,331.428,248v16.3a1.031,1.031,0,0,1-1.029,1.029h-2.058a1.031,1.031,0,0,0,1.029-1.029V248A1.031,1.031,0,0,0,328.341,246.969Z" transform="translate(-326.612 -236.632)" fill="#ffd064" fill-rule="evenodd"/><path d="M371.309,221.854h2.758a1.031,1.031,0,0,1,1.029,1.029v21.464a1.031,1.031,0,0,1-1.029,1.029h-2.758a1.031,1.031,0,0,1-1.029-1.029V222.883A1.031,1.031,0,0,1,371.309,221.854Z" transform="translate(-359.92 -216.686)" fill="#6cf5c2" fill-rule="evenodd"/><path d="M378.68,221.854h2.058a1.031,1.031,0,0,1,1.029,1.029v21.464a1.031,1.031,0,0,1-1.029,1.029H378.68a1.031,1.031,0,0,0,1.029-1.029V222.883A1.031,1.031,0,0,0,378.68,221.854Z" transform="translate(-366.592 -216.686)" fill="#00e499" fill-rule="evenodd"/><path d="M421.648,196.74h2.758a1.031,1.031,0,0,1,1.029,1.029V224.4a1.031,1.031,0,0,1-1.029,1.029h-2.758a1.031,1.031,0,0,1-1.029-1.029V197.769A1.031,1.031,0,0,1,421.648,196.74Z" transform="translate(-399.9 -196.74)" fill="#8ac9fe" fill-rule="evenodd"/><path d="M429.019,196.74h2.058a1.031,1.031,0,0,1,1.029,1.029V224.4a1.031,1.031,0,0,1-1.029,1.029h-2.058a1.031,1.031,0,0,0,1.029-1.029V197.769A1.031,1.031,0,0,0,429.019,196.74Z" transform="translate(-406.571 -196.74)" fill="#60b7ff" fill-rule="evenodd"/></g><g transform="translate(20.582 44.208)"><path d="M295.121,392.841a18.362,18.362,0,0,1-3.1,3.409l8.42,8.254,3.205-3.3Z" transform="translate(-255.634 -357.853)" fill="#a79ba7" fill-rule="evenodd"/><path d="M303.811,392.565a2.115,2.115,0,0,1-.917,1.229l8.364,8.31,1.024-1.122Z" transform="translate(-264.267 -357.633)" fill="#837683" fill-rule="evenodd"/><path d="M335.092,438.808l3.618-3.728a1.663,1.663,0,0,0-.035-2.345l-10.02-9.723a1.664,1.664,0,0,0-2.346.035l-3.618,3.728a1.664,1.664,0,0,0,.035,2.346l10.02,9.723A1.664,1.664,0,0,0,335.092,438.808Z" transform="translate(-279.619 -381.443)" fill="#f1ba84" fill-rule="evenodd"/><path d="M344.668,423.012l10.02,9.723a1.664,1.664,0,0,1,.035,2.345l-3.618,3.728a1.645,1.645,0,0,1-.449.328,1.665,1.665,0,0,0,1.932-.328l3.618-3.728a1.663,1.663,0,0,0-.035-2.345l-10.02-9.723a1.665,1.665,0,0,0-1.9-.293A1.641,1.641,0,0,1,344.668,423.012Z" transform="translate(-297.115 -381.445)" fill="#e3a76f" fill-rule="evenodd"/><ellipse cx="18.247" cy="18.246" rx="18.247" ry="18.246" transform="translate(0 25.801) rotate(-45)" fill="#8ac9fe"/><path d="M237.211,259.543a18.247,18.247,0,0,1,0,36.493q-.445,0-.886-.022a18.246,18.246,0,0,0,0-36.45Q236.765,259.544,237.211,259.543Z" transform="translate(-211.397 -251.987)" fill="#60b7ff" fill-rule="evenodd"/><circle cx="13.102" cy="13.102" r="13.102" transform="translate(8.718 18.708) rotate(-22.514)" fill="#eceff1"/><path d="M190.065,284.541c.3,0,.593.011.886.03a13.1,13.1,0,0,0,0,26.143c-.293.02-.588.03-.886.03a13.1,13.1,0,1,1,0-26.2Z" transform="translate(-164.252 -271.84)" fill="#d1d1d6" fill-rule="evenodd"/></g></g><path d="M55.232,83.122A11.455,11.455,0,1,1,66.687,71.668,11.47,11.47,0,0,1,55.232,83.122Zm0-26.2a14.748,14.748,0,1,0,14.747,14.75A14.766,14.766,0,0,0,55.232,56.919ZM79.407,34.038a1.646,1.646,0,0,1-1.646,1.646H61.683a1.646,1.646,0,1,1,0-3.292H77.76A1.646,1.646,0,0,1,79.407,34.038ZM60.037,27.08a1.646,1.646,0,0,1,1.646-1.646H93.837a1.646,1.646,0,1,1,0,3.293H61.683A1.646,1.646,0,0,1,60.037,27.08ZM95.443,67.54H93.919v-25.4h1.523Zm1.646-28.69H92.273A1.645,1.645,0,0,0,90.627,40.5v28.69a1.646,1.646,0,0,0,1.646,1.646h4.815a1.646,1.646,0,0,0,1.646-1.646V40.5A1.645,1.645,0,0,0,97.088,38.85ZM85.083,67.54H83.56V47.31h1.523Zm1.646-23.522H81.913a1.647,1.647,0,0,0-1.646,1.646V69.186a1.646,1.646,0,0,0,1.646,1.646h4.816a1.646,1.646,0,0,0,1.645-1.646V45.664A1.647,1.647,0,0,0,86.729,44.017ZM27.906,69.046a1.646,1.646,0,0,1-1.646,1.646H20.9a1.646,1.646,0,1,1,0-3.292H26.26A1.646,1.646,0,0,1,27.906,69.046Zm0-7.193A1.646,1.646,0,0,1,26.26,63.5H20.9a1.646,1.646,0,1,1,0-3.292H26.26A1.645,1.645,0,0,1,27.906,61.853ZM42.53,48.7l-4.744-8.07,9.368,0A12.357,12.357,0,0,1,42.53,48.7ZM22.551,38.983A12.357,12.357,0,0,0,39.7,50.376L33.49,39.819a1.648,1.648,0,0,1-.226-.836V26.739A12.376,12.376,0,0,0,22.551,38.983Zm24.6-1.64-10.6,0v-10.6A12.38,12.38,0,0,1,47.154,37.343ZM34.909,23.333A15.651,15.651,0,1,0,50.56,38.983a15.668,15.668,0,0,0-15.652-15.65ZM37.391,9.356a2.52,2.52,0,1,1,2.521,2.521A2.525,2.525,0,0,1,37.391,9.356Zm-9.673,0a2.52,2.52,0,1,1,2.519,2.521A2.524,2.524,0,0,1,27.719,9.356Zm-9.674,0a2.52,2.52,0,1,1,2.52,2.521A2.525,2.525,0,0,1,18.045,9.356Zm85.6,69.575a2.669,2.669,0,0,0,2.666-2.666V18.7H10.484V76.265a2.669,2.669,0,0,0,2.665,2.666H36.712a19.777,19.777,0,0,1-1.372-7.262q0-.492.022-.976h-2.8a1.646,1.646,0,1,1,0-3.292H35.8a19.9,19.9,0,0,1,1.292-3.9H32.56a1.646,1.646,0,1,1,0-3.292h6.421a19.868,19.868,0,0,1,30.926-1.955v-7.42a1.646,1.646,0,0,1,1.646-1.646h4.816a1.646,1.646,0,0,1,1.646,1.646V69.186a1.646,1.646,0,0,1-1.646,1.646H75.105c.013.278.019.555.019.836a19.761,19.761,0,0,1-1.373,7.262ZM77.307,88.613l10.021,9.743-3.618,3.727h-.019L73.671,92.342Zm-4.646.042-3.2-3.1c.3-.314.6-.634.885-.968l3.227,3.13ZM74.723,67.54h-.029a19.706,19.706,0,0,0-1.494-4.4V52.479h1.523V67.54ZM38.632,71.668a16.6,16.6,0,1,0,16.6-16.6,16.617,16.617,0,0,0-16.6,16.6ZM13.149,3.3a2.669,2.669,0,0,0-2.665,2.665v9.442h95.823V5.967A2.669,2.669,0,0,0,103.641,3.3H13.149ZM103.641.01H13.149A5.964,5.964,0,0,0,7.191,5.967v70.3a5.963,5.963,0,0,0,5.958,5.959h25.23a19.867,19.867,0,0,0,28.59,5.495l3.609,3.5a3.31,3.31,0,0,0,.8,3.5l10.02,9.724a3.311,3.311,0,0,0,4.673-.072l3.618-3.727a3.31,3.31,0,0,0-.07-4.674L79.6,86.25a3.3,3.3,0,0,0-3.523-.695l-3.433-3.332h31a5.963,5.963,0,0,0,5.958-5.959V5.967A5.964,5.964,0,0,0,103.641.01Z" fill-rule="evenodd"/></g></g></svg>