<svg xmlns="http://www.w3.org/2000/svg" xmlns:xlink="http://www.w3.org/1999/xlink" width="85" height="85" viewBox="0 0 85 85"><defs><clipPath id="a"><rect width="85" height="85" transform="translate(200 12037)" fill="#2ff980"/></clipPath></defs><g transform="translate(-200 -12037)" clip-path="url(#a)"><g transform="translate(207.502 11915.381)"><path d="M18.343,166.449c-1.525,0-1.525-2.8,0-2.8S19.868,166.449,18.343,166.449ZM58.5,165.9H54.181a1.185,1.185,0,0,1-1.1-.8L52.063,161.7c-.339-.127-.678-.3-1.017-.424l-3.135,1.652a1.088,1.088,0,0,1-1.313-.169l-3.05-3.092a1.04,1.04,0,0,1-.212-1.313l1.694-3.135a10.345,10.345,0,0,1-.424-1.017c-4.533-1.356-4.236-.72-4.236-3.686H6.312v25.756H59.858V164.162C59.646,164.882,59.476,165.9,58.5,165.9ZM40.371,148.276c0-1.313.381-1.44,1.525-1.822H3.813a1.592,1.592,0,0,0-1.567,1.567V182a1.592,1.592,0,0,0,1.567,1.567H23.6c6.312-.127,12.624.085,18.936,0H62.4A1.555,1.555,0,0,0,63.924,182V162.51l-1.779-.974v15.886a1.131,1.131,0,0,1-1.144,1.1H5.211a1.131,1.131,0,0,1-1.144-1.1v-28a1.139,1.139,0,0,1,1.144-1.144Zm4.406-4.067-1.44-2.669a1.09,1.09,0,0,1,.212-1.356l3.05-3.05a1.04,1.04,0,0,1,1.313-.212l3.135,1.694a10.352,10.352,0,0,1,1.017-.424L53.08,134.8a1.131,1.131,0,0,1,1.1-.8H58.5a1.131,1.131,0,0,1,1.1.8l1.017,3.389a10.352,10.352,0,0,1,1.017.424l3.135-1.694a1.04,1.04,0,0,1,1.313.212l3.05,3.05a1.09,1.09,0,0,1,.212,1.356l-1.694,3.092a10.35,10.35,0,0,1,.424,1.017l3.431,1.017a1.185,1.185,0,0,1,.8,1.1v4.321a1.185,1.185,0,0,1-.8,1.1l-3.431,1.017a10.346,10.346,0,0,1-.424,1.017l1.694,3.135a1.04,1.04,0,0,1-.212,1.313l-2.923,2.965V182a3.824,3.824,0,0,1-3.813,3.813H43.379l-2.415,6.905H53.249a1.123,1.123,0,0,1,0,2.245H12.963a1.123,1.123,0,0,1,0-2.245H25.205l-2.372-6.905H3.813A3.8,3.8,0,0,1,0,182V148.022a3.8,3.8,0,0,1,3.813-3.813Zm10.252,19.4h2.626c1.483-4.872.424-3.008,3.474-4.617a1.167,1.167,0,0,1,1.059,0l2.881,1.567,1.906-1.864c-2.415-4.49-1.864-2.5-.847-5.761a1.088,1.088,0,0,1,.763-.72l3.135-.974v-2.626c-4.872-1.483-3.05-.466-4.617-3.474a1.167,1.167,0,0,1,0-1.059l1.567-2.881L65.068,139.3c-4.49,2.415-2.457,1.864-5.719.847a1.088,1.088,0,0,1-.72-.763l-.974-3.135H55.028c-1.483,4.872-.466,3.05-3.474,4.617a1.167,1.167,0,0,1-1.059,0L47.615,139.3,45.709,141.2c2.457,4.49,1.779,2.669.847,5.719a1.088,1.088,0,0,1-.763.72l-3.135.974v2.626c4.872,1.483,3.05.466,4.617,3.474a1.167,1.167,0,0,1,0,1.059L45.709,158.7l1.906,1.864c4.49-2.415,2.457-1.822,5.719-.847a1.088,1.088,0,0,1,.72.763Zm1.313-4.787a8.875,8.875,0,1,1,8.9-8.9A8.895,8.895,0,0,1,56.342,158.824Zm0-15.5a6.608,6.608,0,1,0,6.608,6.608A6.617,6.617,0,0,0,56.342,143.32ZM41.006,185.809h-15.8l2.415,6.905H38.592Zm-5.973-3.643H31.178a1.123,1.123,0,0,1,0-2.245h3.855A1.123,1.123,0,0,1,35.033,182.166ZM24.485,169.542H12.2a2.967,2.967,0,0,1-2.542-4.363L15.843,154.5a2.9,2.9,0,0,1,5,0l6.142,10.675A2.933,2.933,0,0,1,24.485,169.542Zm-6.142-14.234a.584.584,0,0,0-.551.339L11.65,166.28a.617.617,0,0,0,.551.974H24.485a.617.617,0,0,0,.551-.974l-6.142-10.633A.667.667,0,0,0,18.343,155.308ZM50.665,174.54H29.187a1.123,1.123,0,0,1,0-2.245h.847v-7.074a1.131,1.131,0,0,1,1.144-1.1h2.881a1.131,1.131,0,0,1,1.144,1.1V172.3h2.16V160.985a1.131,1.131,0,0,1,1.1-1.144h2.923a1.131,1.131,0,0,1,1.1,1.144V172.3h2.16v-5.507a1.131,1.131,0,0,1,1.144-1.1h2.881a1.131,1.131,0,0,1,1.144,1.1V172.3c.847,0,1.949-.085,1.949,1.1A1.1,1.1,0,0,1,50.665,174.54ZM32.322,172.3h.635v-5.931h-.635Zm7.286,0h.635V162.086h-.635Zm7.286,0h.635v-4.363h-.635Zm-28.552-9.277a1.139,1.139,0,0,1-1.144-1.144v-3.3a1.146,1.146,0,0,1,2.288,0v3.3A1.139,1.139,0,0,1,18.343,163.018Z" fill-rule="evenodd"/><path d="M1010.05,191.956c2.457,4.49,1.779,2.669.847,5.719a1.088,1.088,0,0,1-.763.72l-3.135.974V202c4.872,1.483,3.05.466,4.618,3.474a1.167,1.167,0,0,1,0,1.059l-1.567,2.923,1.906,1.864c4.49-2.415,2.457-1.822,5.719-.847a1.088,1.088,0,0,1,.72.763l.974,3.135H1022c1.483-4.872.424-3.008,3.474-4.617a1.167,1.167,0,0,1,1.059,0l2.881,1.567,1.906-1.864c-2.415-4.49-1.864-2.5-.847-5.761a1.088,1.088,0,0,1,.763-.72l3.135-.974V199.37c-4.872-1.483-3.05-.466-4.618-3.474a1.167,1.167,0,0,1,0-1.059l1.567-2.881-1.906-1.906c-4.49,2.415-2.457,1.864-5.719.847a1.088,1.088,0,0,1-.72-.763L1022,187h-2.626c-1.483,4.872-.466,3.05-3.474,4.617a1.167,1.167,0,0,1-1.059,0l-2.881-1.567Zm1.737,8.727a8.9,8.9,0,1,1,8.9,8.9A8.886,8.886,0,0,1,1011.787,200.683Z" transform="translate(-964.341 -50.755)" fill="#963" fill-rule="evenodd"/><path d="M201.19,539.378h-4.321a1.185,1.185,0,0,1-1.1-.8l-1.017-3.389c-.339-.127-.678-.3-1.017-.424l-3.135,1.652a1.088,1.088,0,0,1-1.313-.169l-3.05-3.092a1.041,1.041,0,0,1-.212-1.313l1.694-3.135a10.337,10.337,0,0,1-.424-1.017c-4.533-1.356-4.236-.72-4.236-3.686H149v25.756h53.546V537.641C202.334,538.361,202.164,539.378,201.19,539.378Zm-8.684.89v5.507c.847,0,1.949-.085,1.949,1.1a1.1,1.1,0,0,1-1.1,1.144H171.875a1.123,1.123,0,0,1,0-2.245h.847V538.7a1.131,1.131,0,0,1,1.144-1.1h2.881a1.131,1.131,0,0,1,1.144,1.1v7.074h2.16V534.463a1.131,1.131,0,0,1,1.1-1.144h2.923a1.131,1.131,0,0,1,1.1,1.144v11.311h2.16v-5.507a1.131,1.131,0,0,1,1.144-1.1h2.881A1.131,1.131,0,0,1,192.506,540.267Zm-22.833-1.61a2.933,2.933,0,0,1-2.5,4.363H154.888a2.967,2.967,0,0,1-2.542-4.363l6.185-10.675a2.9,2.9,0,0,1,5,0Z" transform="translate(-142.688 -373.479)" fill="#6fc" fill-rule="evenodd"/><path d="M111.756,460.068H55.965a1.131,1.131,0,0,1-1.144-1.1v-28a1.139,1.139,0,0,1,1.144-1.144H91.126c0-1.313.381-1.44,1.525-1.822H54.567A1.592,1.592,0,0,0,53,429.567v33.974a1.592,1.592,0,0,0,1.567,1.567H74.35c6.312-.127,12.624.085,18.936,0h19.868a1.555,1.555,0,0,0,1.525-1.567V444.055l-1.779-.974v15.886A1.131,1.131,0,0,1,111.756,460.068Zm-25.968,1.4a1.123,1.123,0,0,1,0,2.245H81.933a1.123,1.123,0,0,1,0-2.245Z" transform="translate(-50.755 -281.546)" fill="#366" fill-rule="evenodd"/><path d="M610.8,1357H595l2.415,6.905h10.972Z" transform="translate(-569.794 -1171.191)" fill="#366" fill-rule="evenodd"/><path d="M273.05,648.946h12.285a.617.617,0,0,0,.551-.974l-6.143-10.633a.667.667,0,0,0-.551-.339.584.584,0,0,0-.551.339L272.5,647.972A.617.617,0,0,0,273.05,648.946Zm6.142-3.6c1.525,0,1.525,2.8,0,2.8S277.667,645.345,279.192,645.345Zm0-.635a1.139,1.139,0,0,1-1.144-1.144v-3.3a1.146,1.146,0,0,1,2.288,0v3.3A1.139,1.139,0,0,1,279.192,644.71Z" transform="translate(-260.849 -481.692)" fill="#ffa721" fill-rule="evenodd"/><path d="M1107,935v4.363h.635V935Z" transform="translate(-1060.105 -767.068)" fill="#ff3131" fill-rule="evenodd"/><path d="M935.635,807.209V797H935v10.209Z" transform="translate(-895.391 -634.914)" fill="#7dd63e" fill-rule="evenodd"/><path d="M763.635,903.931V898H763v5.931Z" transform="translate(-730.678 -731.635)" fill="#ffa721" fill-rule="evenodd"/></g></g></svg>