<svg xmlns="http://www.w3.org/2000/svg" xmlns:xlink="http://www.w3.org/1999/xlink" width="85" height="85" viewBox="0 0 85 85"><defs><clipPath id="a"><rect width="85" height="85" transform="translate(200 12037)" fill="#2ff980"/></clipPath></defs><g transform="translate(-200 -12037)" clip-path="url(#a)"><g transform="translate(170.626 12025.747)"><path d="M111.621,322.961,107.1,307.89a12.584,12.584,0,0,0-9-8.592L84.908,296H72.324l-13.19,3.3a12.584,12.584,0,0,0-9,8.592l-4.522,15.072a2.517,2.517,0,0,0,2.411,3.24H109.21a2.517,2.517,0,0,0,2.411-3.24Z" transform="translate(-6.742 -235.955)" fill="#006cda"/><path d="M127.693,351.55l-.963-3.211a12.573,12.573,0,0,0-2.3-4.339H72.067a12.573,12.573,0,0,0-2.3,4.339L68.8,351.55Z" transform="translate(-26.373 -276.405)" fill="#c6dcf5"/><path d="M111.621,444.31,110.328,440H46.9l-1.293,4.31a2.517,2.517,0,0,0,2.411,3.24H109.21a2.517,2.517,0,0,0,2.411-3.24Z" transform="translate(-6.742 -357.304)" fill="#c6dcf5"/><path d="M368,392h2.517v15.1H368Z" transform="translate(-278.509 -316.854)" fill="#0063b5"/><path d="M216,248v6.292a6.292,6.292,0,1,0,12.584,0V248Z" transform="translate(-150.418 -195.506)" fill="#edb6a4"/><path d="M181.842,24A13.843,13.843,0,0,0,168,37.842V47.91a13.842,13.842,0,0,0,27.685,0V37.842A13.842,13.842,0,0,0,181.842,24Z" transform="translate(-109.969 -6.741)" fill="#f9c7b2"/><path d="M168.229,95.986A13.922,13.922,0,0,0,168,98.5V108.57c0,.43.021.855.059,1.274l4.382,1.2a35.73,35.73,0,0,0,18.8,0l4.382-1.2c.038-.42.059-.845.059-1.274V98.5a13.926,13.926,0,0,0-.229-2.519Z" transform="translate(-109.969 -67.402)" fill="#006cda"/><path d="M345.5,128H344v7.55l2.357-.589A3.533,3.533,0,0,0,345.5,128Z" transform="translate(-258.284 -94.382)" fill="#edb6a4"/><path d="M139.532,128a3.533,3.533,0,0,0-.857,6.961l2.357.589V128Z" transform="translate(-83.001 -94.382)" fill="#edb6a4"/><path d="M0,0H4.537V2.517H0Z" transform="matrix(0.832, -0.555, 0.555, 0.832, 68.667, 50.176)" fill="#d89e8f"/><path d="M264,128.983l3.775-3.775a1.78,1.78,0,0,1,2.517,0,3.559,3.559,0,1,1-5.034,5.034Z" transform="translate(-190.868 -91.589)" fill="#f4f4f4"/><path d="M208.707,128.915l-3.775-3.775a1.78,1.78,0,0,0-2.517,0,3.559,3.559,0,1,0,5.034,5.034Z" transform="translate(-138.092 -91.532)" fill="#f4f4f4"/><path d="M193.062,354.718,181.221,335.59a2.517,2.517,0,0,0-4.28,0L165.1,354.718a2.517,2.517,0,0,0,2.14,3.842h23.682a2.517,2.517,0,0,0,2.14-3.842Z" transform="translate(-107.207 -268.313)" fill="#f4c44d"/><path d="M248,368h2.517v10.067H248Z" transform="translate(-177.385 -296.63)" fill="#f4f4f4"/><path d="M248,448h2.517v2.517H248Z" transform="translate(-177.385 -364.046)" fill="#f4f4f4"/><path d="M128,392h2.517v15.1H128Z" transform="translate(-76.261 -316.854)" fill="#0063b5"/><path d="M0,0H4.537V2.517H0Z" transform="matrix(0.832, -0.555, 0.555, 0.832, 68.667, 50.176)"/><path d="M198.19,125.741a4.786,4.786,0,0,0,3.407-1.411l1.622-1.622,1.632,1.632a4.818,4.818,0,0,0,6.813-6.813,3.042,3.042,0,0,0-4.3,0l-4.138,4.139-4.149-4.149a3.042,3.042,0,0,0-4.3,0,4.818,4.818,0,0,0,3.407,8.224Zm10.957-6.434a.522.522,0,0,1,.737,0,2.3,2.3,0,0,1-3.254,3.254l-.369-.369Zm-12.584-.011a.522.522,0,0,1,.737,0l2.885,2.885-.369.369a2.3,2.3,0,1,1-3.254-3.254Z" transform="translate(-131.35 -84.798)"/><path d="M248,368h2.517v10.067H248Z" transform="translate(-177.385 -296.63)"/><path d="M248,448h2.517v2.517H248Z" transform="translate(-177.385 -364.046)"/><path d="M106.084,86.645l-4.522-15.072a13.905,13.905,0,0,0-9.9-9.452L79.417,59.061c0-.091.007-.182.007-.274V54.242A15.118,15.118,0,0,0,86.941,42.16l1.437-.359a4.792,4.792,0,0,0-1.162-9.44h-.242V31.1a15.1,15.1,0,1,0-30.2,0V32.36h-.242a4.792,4.792,0,0,0-1.162,9.44l1.437.359a15.118,15.118,0,0,0,7.517,12.083v4.544c0,.092,0,.183.007.274L52.086,62.122a13.905,13.905,0,0,0-9.9,9.452L37.663,86.645a3.775,3.775,0,0,0,3.616,4.86h61.189a3.775,3.775,0,0,0,3.616-4.86Zm-19.159-.9-1.107-1.788h3.673v5.034H87.274a3.721,3.721,0,0,0-.349-3.246Zm-2.665-4.3L81.144,76.4h8.348v5.034ZM92.008,76.4h8.376l1.51,5.034H92.008Zm7.621-2.517H79.586L76.47,68.854H97.428A11.262,11.262,0,0,1,99.152,72.3ZM91.05,64.563a11.277,11.277,0,0,1,3.826,1.774H74.892a3.794,3.794,0,0,0-.409-.465,7.589,7.589,0,0,0,4.424-4.344ZM59.289,41.169V31.1c0-.425.022-.844.063-1.258H84.395c.041.414.063.834.063,1.258V41.169c0,.1-.005.2-.008.3l-3.506.956a34.5,34.5,0,0,1-18.14,0L59.3,41.468c0-.1-.008-.2-.008-.3Zm27.927-6.292a2.275,2.275,0,0,1,.552,4.482l-.794.2v-4.68ZM71.874,18.517a12.606,12.606,0,0,1,12,8.809H59.869a12.606,12.606,0,0,1,12-8.809ZM54.256,37.151a2.277,2.277,0,0,1,2.275-2.275h.242v4.68l-.794-.2a2.272,2.272,0,0,1-1.723-2.207Zm5.4,7.023,2.486.678a37.015,37.015,0,0,0,19.467,0l2.483-.677a12.582,12.582,0,0,1-24.437,0Zm12.219,12.1a15.032,15.032,0,0,0,5.034-.864v3.381a5.034,5.034,0,1,1-10.067,0V55.406a15.032,15.032,0,0,0,5.034.864ZM52.7,64.563,64.84,61.527a7.589,7.589,0,0,0,4.424,4.344,3.794,3.794,0,0,0-.409.465H48.871A11.276,11.276,0,0,1,52.7,64.563Zm-6.378,4.291H67.278l-3.116,5.034H44.118L44.6,72.3a11.262,11.262,0,0,1,1.724-3.443ZM56.473,88.988H54.256V83.955h3.673l-1.107,1.788a3.721,3.721,0,0,0-.349,3.246Zm3.014-7.55H54.256V76.4H62.6Zm-7.748,0H41.853l1.51-5.034h8.376ZM40.27,88.481a1.247,1.247,0,0,1-.2-1.113L41.1,83.955H51.739v5.034H41.279A1.247,1.247,0,0,1,40.27,88.481Zm19.763.507a1.258,1.258,0,0,1-1.07-1.921l6.6-10.663h.018v-.029L70.8,67.939a1.258,1.258,0,0,1,2.14,0l5.222,8.436V76.4h.018l6.6,10.663a1.258,1.258,0,0,1-1.07,1.921Zm43.445-.507a1.247,1.247,0,0,1-1.01.507H92.008V83.955h10.641l1.024,3.414a1.247,1.247,0,0,1-.2,1.113Z" transform="translate(0)"/></g></g></svg>