<svg xmlns="http://www.w3.org/2000/svg" width="400" height="447" viewBox="0 0 400 447"><g transform="translate(-180 -864)"><g transform="translate(-840 -5859)"><rect width="400" height="447" transform="translate(1020 6723)" fill="none"/><g transform="translate(228.592 6215.462)"><path d="M850.989,731.115c23.128-29.761,39.389-57.071,20.348-80.663-20.348-25.212-5.087-70.1,39.38-61.8s88.194,33.935,152.014-8.921c28.566-19.467,58.447-10.82,68,7.4,22.359,42.639-58.206,76.145-27.519,108.928,38.178,40.786,35.579,71.692,3.033,105.54-24.88,25.876,14.7,41.634-10.616,79.158-26.026,38.574-146.811,41.7-202.447,4.644C837.288,848.184,818.872,772.444,850.989,731.115Z" transform="translate(-2.96 -2.502)" fill="#e6e1fb"/><g transform="translate(810.217 719.236)"><path d="M19.822,0H134.194a0,0,0,0,1,0,0V70.032a0,0,0,0,1,0,0H19.822A19.822,19.822,0,0,1,0,50.21V19.822A19.822,19.822,0,0,1,19.822,0Z" transform="translate(0.597 0.597)" fill="#c4baf5"/><path d="M945.6,813.505H828.271a18.1,18.1,0,0,1-18.054-18.094v-35.04a18.1,18.1,0,0,1,18.054-18.093H945.6ZM828.271,743.473a16.9,16.9,0,0,0-16.862,16.9v35.04a16.9,16.9,0,0,0,16.862,16.9h116.14V743.473Z" transform="translate(-810.217 -742.278)" fill="#32293a"/></g><g transform="translate(896.742 740.953)"><path d="M5.547,0H44.835a1.39,1.39,0,0,1,1.39,1.39V9.7a1.39,1.39,0,0,1-1.39,1.39H5.546A5.546,5.546,0,0,1,0,5.547v0A5.547,5.547,0,0,1,5.547,0Z" transform="translate(0.597 0.597)" fill="#fffdf7"/><path d="M953.789,779.2h-39.3a6.144,6.144,0,0,1,0-12.288h39.3a1.987,1.987,0,0,1,1.983,1.986v8.314A1.988,1.988,0,0,1,953.789,779.2Zm-39.3-11.093a4.949,4.949,0,0,0,0,9.9h39.3a.792.792,0,0,0,.791-.792V768.9a.793.793,0,0,0-.791-.792Z" transform="translate(-908.354 -766.909)" fill="#32293a"/></g><g transform="translate(896.742 758.252)"><path d="M5.547,0H44.835a1.39,1.39,0,0,1,1.39,1.39V9.7a1.39,1.39,0,0,1-1.39,1.39H5.546A5.546,5.546,0,0,1,0,5.547v0A5.547,5.547,0,0,1,5.547,0Z" transform="translate(0.597 0.597)" fill="#fff5d7"/><path d="M953.789,798.817h-39.3a6.144,6.144,0,0,1,0-12.287h39.3a1.987,1.987,0,0,1,1.983,1.986v8.313A1.987,1.987,0,0,1,953.789,798.817Zm-39.3-11.092a4.949,4.949,0,0,0,0,9.9h39.3a.793.793,0,0,0,.791-.793v-8.313a.793.793,0,0,0-.791-.792Z" transform="translate(-908.354 -786.53)" fill="#32293a"/></g><g transform="translate(1055.778 565.817)"><path d="M1205.037,568.947v77.232a10.861,10.861,0,0,1-10.844,10.877h-93.938a10.861,10.861,0,0,1-10.845-10.877V568.947Z" transform="translate(-1088.813 -568.35)" fill="#fffdf7"/><path d="M1194.112,657.573h-93.938a11.471,11.471,0,0,1-11.441-11.475V568.27h116.82V646.1A11.471,11.471,0,0,1,1194.112,657.573Zm-104.187-88.109V646.1a10.277,10.277,0,0,0,10.249,10.28h93.938a10.276,10.276,0,0,0,10.248-10.28V569.465Z" transform="translate(-1088.733 -568.27)" fill="#32293a"/></g><rect width="94.576" height="30.675" rx="6.029" transform="translate(1067.125 574.85)" fill="#e6e1fb"/><path d="M6.029,0H88.547a6.029,6.029,0,0,1,6.029,6.029V24.646a6.029,6.029,0,0,1-6.029,6.029H6.03A6.03,6.03,0,0,1,0,24.645V6.029A6.029,6.029,0,0,1,6.029,0Z" transform="translate(1067.125 614.063)" fill="#e6e1fb"/><path d="M1205.037,559.093v7.4H1089.409v-7.4a10.861,10.861,0,0,1,10.845-10.877h93.938A10.861,10.861,0,0,1,1205.037,559.093Z" transform="translate(-33.035 -0.08)" fill="#583ae2"/><path d="M1205.553,567.012h-116.82v-8a11.471,11.471,0,0,1,11.441-11.475h93.938a11.471,11.471,0,0,1,11.441,11.475Zm-115.628-1.195H1204.36v-6.8a10.275,10.275,0,0,0-10.248-10.28h-93.938a10.276,10.276,0,0,0-10.249,10.28Z" transform="translate(-32.955)" fill="#32293a"/><g transform="translate(1062.598 553.87)"><path d="M3.039,0h61.9A3.039,3.039,0,0,1,67.98,3.039v0a3.04,3.04,0,0,1-3.04,3.04H3.04A3.04,3.04,0,0,1,0,3.039v0A3.039,3.039,0,0,1,3.039,0Z" transform="translate(0.596 0.597)" fill="#fffdf7"/><path d="M1162.012,561.994H1100.1a3.637,3.637,0,0,1,0-7.274h61.915a3.637,3.637,0,0,1,0,7.274Zm-61.915-6.079a2.442,2.442,0,0,0,0,4.884h61.915a2.442,2.442,0,0,0,0-4.884Z" transform="translate(-1096.468 -554.72)" fill="#32293a"/></g><g transform="translate(1156.342 553.567)"><path d="M1203.467,558.393a3.332,3.332,0,1,1,3.332,3.338A3.336,3.336,0,0,1,1203.467,558.393Z" transform="translate(-1202.872 -554.456)" fill="#fffdf7"/><path d="M1206.72,562.249a3.936,3.936,0,1,1,3.928-3.936A3.936,3.936,0,0,1,1206.72,562.249Zm0-6.678a2.742,2.742,0,1,0,2.735,2.742A2.742,2.742,0,0,0,1206.72,555.571Z" transform="translate(-1202.792 -554.376)" fill="#32293a"/></g><g transform="translate(1148.176 554.73)"><path d="M1194.206,558.549a2.171,2.171,0,1,1,2.171,2.175A2.174,2.174,0,0,1,1194.206,558.549Z" transform="translate(-1193.61 -555.775)" fill="#fffdf7"/><path d="M1196.3,561.242a2.773,2.773,0,1,1,2.767-2.773A2.773,2.773,0,0,1,1196.3,561.242Zm0-4.352a1.579,1.579,0,1,0,1.575,1.579A1.578,1.578,0,0,0,1196.3,556.89Z" transform="translate(-1193.53 -555.695)" fill="#32293a"/></g><path d="M972.9,624.483c-1.707.87-5.869.659-6.229-4.087s-4.706-3.1-4.764-6.909,3.688-2.274,4.977-8.245,6.814-4.3,9.223-6.09,6.3-9.34,12.567-7.225,8.037,10.1,4.9,16.039-12.919,15.816-12.919,15.816Z" transform="translate(-17.948 -5.208)" fill="#32293a"/><g transform="translate(986.11 875.546)"><path d="M1038.193,940.687h-24.619l5.958-21.122h24.619Z" transform="translate(-1010.172 -919.565)" fill="#f4c7a8"/><path d="M1010.141,936.7v-1.754a3.463,3.463,0,0,1,3.459-3.467h1.151a3.458,3.458,0,0,1,3.085,1.9l1.632,3.225a3.457,3.457,0,0,0,3.085,1.9h9.953a3.458,3.458,0,0,0,2.812-1.447l5.507-7.7a3.456,3.456,0,0,1,2.811-1.447h0a4.25,4.25,0,0,1,2.543,1.116c9.549,7.368,19.846,14.66,29.844,21.179,1.616,1.054,3.249,2.075,3.866,3.9l2.478,7.345h-72Z" transform="translate(-1009.765 -920.553)" fill="#583ae2"/><g transform="translate(0 40.308)"><path d="M1080.09,975.612h-67.553a2.828,2.828,0,0,1-2.821-2.828v-6.9a.6.6,0,1,1,1.192,0v6.9a1.632,1.632,0,0,0,1.629,1.632h67.553a1.632,1.632,0,0,0,1.628-1.632v-6.9a.6.6,0,1,1,1.193,0v6.9A2.828,2.828,0,0,1,1080.09,975.612Z" transform="translate(-1009.715 -965.283)" fill="#32293a"/></g><g transform="translate(0.375 26.073)"><path d="M1024.332,964.3l-7.366-11.329a5.767,5.767,0,0,0-4.85-2.634h-1.977v-1.2h1.977a6.959,6.959,0,0,1,5.85,3.178l7.365,11.329Z" transform="translate(-1010.14 -949.137)" fill="#32293a"/></g><g transform="translate(35.575 11.636)"><path d="M1067.788,953.789a3.477,3.477,0,0,1-1.912-.574l-14.221-9.322a3.518,3.518,0,0,1-.91-5.021l4.467-6.109.962.706-4.467,6.109a2.325,2.325,0,0,0,.6,3.315l14.221,9.322a2.313,2.313,0,0,0,3.214-.682l3.659-5.659,1,.65-3.658,5.66a3.522,3.522,0,0,1-2.952,1.6Z" transform="translate(-1050.064 -932.763)" fill="#32293a"/></g><g transform="translate(39.48 14.907)"><path d="M1060.74,937.149l-5.57,7.95Z" transform="translate(-1054.573 -936.553)" fill="#ffcc38"/><path d="M1055.09,945.617a.6.6,0,0,1-.489-.941l5.572-7.95a.6.6,0,1,1,.975.686l-5.572,7.95A.592.592,0,0,1,1055.09,945.617Z" transform="translate(-1054.493 -936.472)" fill="#32293a"/></g><g transform="translate(43.942 18.055)"><path d="M1065.8,940.72l-5.57,7.95Z" transform="translate(-1059.635 -940.123)" fill="#ffcc38"/><path d="M1060.15,949.188a.6.6,0,0,1-.487-.941l5.57-7.95a.6.6,0,1,1,.975.686l-5.569,7.95A.6.6,0,0,1,1060.15,949.188Z" transform="translate(-1059.555 -940.043)" fill="#32293a"/></g><g transform="translate(48.488 21.012)"><path d="M1070.956,944.074l-5.57,7.95Z" transform="translate(-1064.79 -943.477)" fill="#ffcc38"/><path d="M1065.306,952.541a.6.6,0,0,1-.488-.941l5.57-7.949a.6.6,0,1,1,.976.686l-5.571,7.949A.594.594,0,0,1,1065.306,952.541Z" transform="translate(-1064.71 -943.397)" fill="#32293a"/></g></g><g transform="translate(940.645 875.966)"><rect width="24.619" height="25.744" transform="translate(7.176)" fill="#f4c7a8"/><path d="M991.583,933.283h-.959a3.013,3.013,0,0,0-2.662,1.6l-1.93,3.64H968.485l-1.931-3.64a3.012,3.012,0,0,0-2.662-1.6h-.958a4.253,4.253,0,0,0-4.251,4.26v27.622a4.937,4.937,0,0,0,4.931,4.943H990.9a4.937,4.937,0,0,0,4.931-4.943V937.543A4.253,4.253,0,0,0,991.583,933.283Z" transform="translate(-958.211 -921.608)" fill="#583ae2"/><path d="M970.661,937.847v-2.292a8.022,8.022,0,0,1,8.014-8.031h0a8.023,8.023,0,0,1,8.014,8.031v2.292Z" transform="translate(-959.629 -920.927)" fill="#583ae2"/><g transform="translate(10.436 16.323)"><path d="M986.69,939.232l-2.519,17.815a3.788,3.788,0,0,1-3.748,3.262h-3.495a3.789,3.789,0,0,1-3.749-3.262l-2.518-17.815Z" transform="translate(-970.065 -938.635)" fill="#583ae2"/><path d="M980.342,960.827h-3.495a4.406,4.406,0,0,1-4.338-3.776l-2.518-17.815a.6.6,0,1,1,1.179-.168l2.518,17.814a3.209,3.209,0,0,0,3.159,2.749h3.495a3.209,3.209,0,0,0,3.16-2.749l2.517-17.814a.6.6,0,1,1,1.179.168l-2.517,17.815A4.406,4.406,0,0,1,980.342,960.827Z" transform="translate(-969.985 -938.555)" fill="#32293a"/></g><g transform="translate(11.403 21.414)"><path d="M971.758,945.008h0Z" transform="translate(-971.161 -944.41)" fill="#ffcc38"/><path d="M986.019,945.525H971.677a.6.6,0,0,1,0-1.195h14.342a.6.6,0,0,1,0,1.195Z" transform="translate(-971.081 -944.33)" fill="#32293a"/></g><g transform="translate(12.709 26.851)"><path d="M973.239,951.174h0Z" transform="translate(-972.643 -950.576)" fill="#ffcc38"/><path d="M984.89,951.692H973.159a.6.6,0,0,1,0-1.2H984.89a.6.6,0,0,1,0,1.2Z" transform="translate(-972.563 -950.496)" fill="#32293a"/></g><g transform="translate(13.246 32.362)"><path d="M973.848,957.424h0Z" transform="translate(-973.252 -956.827)" fill="#ffcc38"/><path d="M984.425,957.942H973.768a.6.6,0,0,1,0-1.195h10.657a.6.6,0,0,1,0,1.195Z" transform="translate(-973.172 -956.747)" fill="#32293a"/></g><g transform="translate(0 43.236)"><path d="M990.962,982.331H963.676a5.539,5.539,0,0,1-5.528-5.539v-7.114a.6.6,0,1,1,1.192,0v7.114a4.345,4.345,0,0,0,4.336,4.344h27.286a4.345,4.345,0,0,0,4.336-4.344v-7.114a.6.6,0,1,1,1.192,0v7.114A5.539,5.539,0,0,1,990.962,982.331Z" transform="translate(-958.148 -969.08)" fill="#32293a"/></g></g><path d="M957.841,732.531V900.592a1.644,1.644,0,0,0,1.643,1.646h36.882a1.645,1.645,0,0,0,1.643-1.646V787.6l27.814,40.057-21.85,72.506a1.646,1.646,0,0,0,1.533,2.121l35.256.838a1.643,1.643,0,0,0,1.6-1.147l21.861-68.919a24.218,24.218,0,0,0-2.757-20.49l-36.94-57.01a8.883,8.883,0,0,1-1.427-4.732l-.212-18.3Z" transform="translate(-17.467 -21.889)" fill="#32293a"/><path d="M1059.479,641.856h17.806l5.242-41.4a9.915,9.915,0,0,1,6.666-8.155L1120,581.982a.78.78,0,0,1,.987.47l.28.761,6.005-1.96a.694.694,0,0,1,.845.377,5.183,5.183,0,0,1-.025,3.928c1.709,2.931-.683,6.3-2.231,7.187.446,2.166.064,3.963-1.88,5.089s-16.151,10.046-16.151,10.046c.459,3.407-5.607,7.022-7.471,7.425.146,2.95.9,28.715,1.36,44.79a12.544,12.544,0,0,1-12.482,12.917l-29.76.109Z" transform="translate(-29.493 -3.985)" fill="#f4c7a8"/><g transform="translate(1046.54 576.636)"><path d="M1103.706,652.452a.6.6,0,0,1-.6-.58c-.648-22.328-1.026-34.648-1.122-36.617a.6.6,0,0,1,.469-.613c.741-.161,7.25-1.725,7.046-6.967a.592.592,0,0,1,.277-.529c.569-.359,13.926-8.791,15.856-9.91,1.551-.9,2.045-2.27,1.6-4.452a.6.6,0,0,1,.323-.658,4.962,4.962,0,0,0,2.224-6.39.6.6,0,0,1-.019-.48,4.683,4.683,0,0,0,.035-3.464l-6.121,1.907a.6.6,0,0,1-.745-.363l-.279-.761a.186.186,0,0,0-.234-.111l-30.815,10.32a9.373,9.373,0,0,0-6.263,7.663l-5.9,46.967a.6.6,0,1,1-1.182-.149l5.9-46.968a10.572,10.572,0,0,1,7.065-8.646l30.812-10.318a1.385,1.385,0,0,1,1.735.83l.081.223,5.459-1.783a1.285,1.285,0,0,1,1.571.7,5.706,5.706,0,0,1,.075,4.154c.743,1.858.714,5.682-2.477,7.53.377,2.425-.378,4.2-2.248,5.283-1.757,1.018-13.546,8.453-15.533,9.707-.037,5.274-5.667,7.218-7.5,7.71.125,3.066.495,15.21,1.1,36.149a.6.6,0,0,1-.578.614Z" transform="translate(-1078.255 -580.541)" fill="#32293a"/></g><path d="M933.054,661.41l-16.428,33.178,26.561,9.589,9.777-16.868v35.457h65.052V681.259h24.56V649.993l-91.585.237A20.079,20.079,0,0,0,933.054,661.41Z" transform="translate(-12.591 -12.123)" fill="#45bbcc"/><path d="M976.908,645.114c0,6.043,5.212,15.5,17.432,15.5s13.191-9.741,13.015-15.57l-4.862-3.576a7.022,7.022,0,0,1-2.263-2.823l-3.236-7.338s7.977-1.541,7.033-8.821-8.171-15.306-8.171-15.306c-1.959,3.8-13.125,2.647-13.125,2.647-.3,3.514-4.257,3.255-3.875,5.661s2.57,7.692-1.478,7.665-7.109,4.659-4.336,7.168a5.439,5.439,0,0,0,7.243.479c.35,1.255.846,3.007,1.3,4.606a7.031,7.031,0,0,1-1.852,6.953Z" transform="translate(-19.14 -7.057)" fill="#f4c7a8"/><path d="M1011.435,729.721l-10.862,3.8a6.266,6.266,0,0,1-7.986-3.861L981.2,696.973a6.286,6.286,0,0,1,3.852-8l10.862-3.8a6.268,6.268,0,0,1,7.987,3.862l11.39,32.687A6.286,6.286,0,0,1,1011.435,729.721Z" transform="translate(-20.189 -16.243)" fill="#32293a"/><g transform="translate(972.372 703.601)"><path d="M999.019,739.647a5.144,5.144,0,0,1-4.853-3.451.6.6,0,1,1,1.126-.393,3.939,3.939,0,0,0,5.022,2.428l14.13-4.945a3.958,3.958,0,0,0,2.424-5.034l-1.016-2.913a.6.6,0,1,1,1.126-.393l1.016,2.914a5.148,5.148,0,0,1-3.156,6.554l-14.13,4.945A5.124,5.124,0,0,1,999.019,739.647Z" transform="translate(-994.133 -724.545)" fill="#faf5ff"/></g><path d="M915.172,699.908l-9.089,20.839c-6.874,15.759,7.671,32.419,24.169,27.686l50.675-14.539s22.06-10.732,24.39-11.981c3.707-1.987,2.372-8.4-1.673-6.747,4.149-1.829,1.509-7.928-1.8-6.854,3.735-1.41,2.081-6.979-1.558-6.369,3.281-1.4.392-7.842-2.714-6.892.041.081-23.649,8.215-23.649,8.215l-1.925-5.523-10.516,13.919-23.085,6.376,3.34-8.543Z" transform="translate(-11.137 -17.443)" fill="#f4c7a8"/><g transform="translate(918.859 676.917)"><path d="M939.355,747.327a.6.6,0,0,1-.163-1.172l45.015-12.915c.123-.07,21.98-10.7,24.273-11.933a3.7,3.7,0,0,0,1.554-4.717,1.916,1.916,0,0,0-2.72-.951.6.6,0,0,1-.465-1.1,2.885,2.885,0,0,0,1.53-3.89c-.469-1.235-1.615-2.267-2.912-1.849a.6.6,0,0,1-.394-1.127,2.571,2.571,0,0,0,1.622-3.228,2.51,2.51,0,0,0-2.872-1.994.59.59,0,0,1-.67-.422.6.6,0,0,1,.339-.717c1.288-.55,1.244-2.128.814-3.312-.55-1.512-1.878-2.847-3.121-2.46l-.013-.041c-1.073.506-5.362,1.983-23.618,8.252a.6.6,0,0,1-.756-.369l-1.557-4.471-9.843,13.03a.605.605,0,0,1-.317.216l-30.888,8.532a.6.6,0,0,1-.317-1.152l30.692-8.477L974.963,697.3a.6.6,0,0,1,.568-.229.6.6,0,0,1,.47.393l1.728,4.963c9.047-3.108,22.157-7.633,22.993-7.981a.643.643,0,0,1,.116-.049c2.007-.607,3.861,1.188,4.588,3.193a4.2,4.2,0,0,1-.181,3.753,4.047,4.047,0,0,1,1.859,6.345,4.522,4.522,0,0,1,1.935,6.615,3.065,3.065,0,0,1,2.073,1.775,4.93,4.93,0,0,1-2.07,6.278c-2.313,1.241-23.51,11.554-24.412,11.993L939.518,747.3A.575.575,0,0,1,939.355,747.327Z" transform="translate(-933.439 -694.28)" fill="#32293a"/></g><g transform="translate(974.565 683.904)"><path d="M997.217,709.276a.6.6,0,0,1-.231-1.148l13.984-5.877a.6.6,0,0,1,.461,1.1l-13.984,5.878A.6.6,0,0,1,997.217,709.276Z" transform="translate(-996.621 -702.205)" fill="#32293a"/></g><g transform="translate(976.552 690.272)"><path d="M999.47,716.01a.6.6,0,0,1-.219-1.152l13.556-5.388a.6.6,0,0,1,.439,1.11l-13.556,5.388A.582.582,0,0,1,999.47,716.01Z" transform="translate(-998.874 -709.427)" fill="#32293a"/></g><g transform="translate(978.351 697.127)"><path d="M1001.511,723.711a.6.6,0,0,1-.218-1.153l13.563-5.315a.6.6,0,0,1,.434,1.111l-13.562,5.316A.588.588,0,0,1,1001.511,723.711Z" transform="translate(-1000.915 -717.202)" fill="#32293a"/></g><g transform="translate(939.778 663.48)"><path d="M957.761,713.094a.6.6,0,0,1-.6-.6V679.638a.6.6,0,1,1,1.192,0V712.5A.6.6,0,0,1,957.761,713.094Z" transform="translate(-957.165 -679.04)" fill="#32293a"/></g><g transform="translate(1004.469 663.48)"><path d="M1031.135,713.094a.6.6,0,0,1-.6-.6V679.638a.6.6,0,1,1,1.193,0V712.5A.6.6,0,0,1,1031.135,713.094Z" transform="translate(-1030.538 -679.04)" fill="#32293a"/></g><g transform="translate(903.439 661.167)"><path d="M943.107,707.9a.6.6,0,0,1-.2-.035l-26.562-9.589a.6.6,0,0,1-.331-.827l10.25-20.7a.6.6,0,1,1,1.067.531l-9.954,20.1,25.466,9.193,9.527-16.437a.6.6,0,0,1,1.032.6L943.623,707.6A.6.6,0,0,1,943.107,707.9Z" transform="translate(-915.95 -676.416)" fill="#32293a"/></g><g transform="translate(1075.5 578.115)"><path d="M1111.7,595.676a.6.6,0,0,1-.24-1.144c2.732-1.2,9.423-4.153,12.575-5.646,3.6-1.706,3.175-4.4,2.6-5.85a.6.6,0,1,1,1.109-.438c.455,1.156,1.571,5.106-3.2,7.367-3.165,1.5-9.869,4.459-12.6,5.662A.606.606,0,0,1,1111.7,595.676Z" transform="translate(-1111.101 -582.218)" fill="#32293a"/></g><g transform="translate(1086.42 579.258)"><path d="M1124.083,594.243a.6.6,0,0,1-.284-1.123c2.5-1.352,6.936-3.777,8.61-4.82a6.127,6.127,0,0,0,3.063-4.3.6.6,0,1,1,1.17.222,7.393,7.393,0,0,1-3.6,5.092c-1.7,1.059-6.165,3.5-8.672,4.856A.6.6,0,0,1,1124.083,594.243Z" transform="translate(-1123.486 -583.515)" fill="#32293a"/></g><g transform="translate(1087.045 587.94)"><path d="M1124.792,599.771a.6.6,0,0,1-.3-1.113l8.871-5.213a.6.6,0,1,1,.6,1.029l-8.871,5.214A.6.6,0,0,1,1124.792,599.771Z" transform="translate(-1124.196 -593.362)" fill="#32293a"/></g><g transform="translate(1067.186 589.456)"><path d="M1112.865,610.6a.573.573,0,0,1-.067,0,.6.6,0,0,1-.526-.659,17.493,17.493,0,0,0-.192-5.28.6.6,0,0,1,.435-.681c.049-.013,4.872-1.319,6.711-3.546a3.3,3.3,0,0,0-.068-3.973.369.369,0,0,0-.421-.166l-16.29,5.139a.6.6,0,0,1-.36-1.139l16.29-5.138a1.547,1.547,0,0,1,1.8.685c1.181,1.947,1.17,3.9-.031,5.353-1.716,2.076-5.424,3.364-6.8,3.788a18.357,18.357,0,0,1,.114,5.089A.6.6,0,0,1,1112.865,610.6Z" transform="translate(-1101.671 -595.081)" fill="#32293a"/></g><g transform="translate(1029.389 637.273)"><path d="M1059.4,681.776a.6.6,0,0,1-.6-.6V649.913a.6.6,0,0,1,.6-.6h17.808a.6.6,0,0,1,0,1.195h-17.211v30.667A.6.6,0,0,1,1059.4,681.776Z" transform="translate(-1058.802 -649.316)" fill="#32293a"/></g><g transform="translate(1001.224 637.273)"><path d="M1055.618,650.511h-28.165a.6.6,0,0,1,0-1.195h28.165a.6.6,0,0,1,0,1.195Z" transform="translate(-1026.857 -649.316)" fill="#32293a"/></g><g transform="translate(979.945 749.276)"><path d="M1003.319,815.019a.6.6,0,0,1-.6-.6l.066-21.906,8.157-15.845a.6.6,0,1,1,1.059.547l-8.09,15.715v21.488A.6.6,0,0,1,1003.319,815.019Z" transform="translate(-1002.723 -776.349)" fill="#faf5ff"/></g><g transform="translate(1001.56 796.248)"><path d="M1037.883,845.165a.6.6,0,0,1-.488-.255l-10.049-14.345a.6.6,0,1,1,.975-.686l10.049,14.345a.6.6,0,0,1-.488.941Z" transform="translate(-1027.238 -829.625)" fill="#faf5ff"/></g><g transform="translate(951.678 728.017)"><path d="M971.258,766.191a.6.6,0,0,1,0-1.195c7.815,0,12.137-7.191,12.137-12.163a.6.6,0,1,1,1.192,0C984.587,759.152,979.114,766.191,971.258,766.191Z" transform="translate(-970.662 -752.237)" fill="#faf5ff"/></g><g transform="translate(974.565 673.367)"><path d="M999.4,695.823a2.785,2.785,0,1,1,2.78-2.784A2.785,2.785,0,0,1,999.4,695.823Zm0-4.375a1.59,1.59,0,1,0,1.587,1.591A1.59,1.59,0,0,0,999.4,691.448Z" transform="translate(-996.621 -690.253)" fill="#faf5ff"/></g><g transform="translate(977.334 602.316)"><path d="M1003.806,619.477a.587.587,0,0,1-.176-.027.6.6,0,0,1-.393-.746l.455-1.479a.316.316,0,0,0-.043-.277.279.279,0,0,0-.213-.124,3.906,3.906,0,0,1-3.014-1.433,3.465,3.465,0,0,1-.592-2.75,4.457,4.457,0,0,1,1.942-2.884.6.6,0,0,1,.63,1.015,3.269,3.269,0,0,0-1.4,2.091,2.272,2.272,0,0,0,.377,1.814,2.829,2.829,0,0,0,2.133.955,1.469,1.469,0,0,1,1.119.638,1.5,1.5,0,0,1,.2,1.307l-.455,1.479A.6.6,0,0,1,1003.806,619.477Z" transform="translate(-999.761 -609.667)" fill="#32293a"/></g><g transform="translate(974.794 617.756)"><path d="M999.016,634.267a8.532,8.532,0,0,1-1.654-.164.6.6,0,0,1,.23-1.173c4.616.91,7.75-2.8,8.63-5.349a.6.6,0,1,1,1.126.391C1006.444,630.59,1003.469,634.267,999.016,634.267Z" transform="translate(-996.881 -627.179)" fill="#32293a"/></g><g transform="translate(967.186 607.523)"><path d="M988.848,620.115a.572.572,0,0,1-.086-.006.6.6,0,0,1-.5-.675,4.685,4.685,0,0,1,1.929-3.151,3.983,3.983,0,0,1,3.207-.6.6.6,0,0,1-.259,1.166,2.81,2.81,0,0,0-2.271.421,3.529,3.529,0,0,0-1.427,2.337A.6.6,0,0,1,988.848,620.115Z" transform="translate(-988.251 -615.573)" fill="#32293a"/></g><path d="M994.825,619.858a1.2,1.2,0,1,1-1.776-.6A1.348,1.348,0,0,1,994.825,619.858Z" transform="translate(-21.577 -8.468)" fill="#32293a"/><path d="M1003.49,614.305a1.2,1.2,0,1,1-1.776-.6A1.348,1.348,0,0,1,1003.49,614.305Z" transform="translate(-22.602 -7.81)" fill="#32293a"/><g transform="translate(978.277 614.37)"><path d="M1002.117,625.8a2.431,2.431,0,0,1-.913-.178.6.6,0,0,1,.448-1.107,1.193,1.193,0,0,0,1.007-.041.91.91,0,0,0,.472-.651.591.591,0,0,1,.7-.473.6.6,0,0,1,.472.7,2.1,2.1,0,0,1-1.074,1.474A2.34,2.34,0,0,1,1002.117,625.8Z" transform="translate(-1000.831 -623.339)" fill="#32293a"/></g><g transform="translate(957.173 623.145)"><path d="M977.49,648.8a.6.6,0,0,1-.422-1.02l3.5-3.512a5.242,5.242,0,0,0,1.288-5.309L980.3,634.07a.6.6,0,1,1,1.136-.362l1.554,4.892a6.437,6.437,0,0,1-1.579,6.515l-3.5,3.513A.6.6,0,0,1,977.49,648.8Z" transform="translate(-976.895 -633.291)" fill="#32293a"/></g><g transform="translate(975.128 623.651)"><path d="M997.856,664.368h0a.6.6,0,0,1,0-1.195h0a10.424,10.424,0,0,0,7.776-3.028c3.767-3.855,4.093-10.25,4.118-11.654l-5.142-4.015a6.4,6.4,0,0,1-1.9-2.433l-3.266-7.337a.6.6,0,1,1,1.087-.487l3.267,7.337a5.22,5.22,0,0,0,1.545,1.977l5.373,4.2a.6.6,0,0,1,.23.458c.007.329.117,8.11-4.459,12.793A11.579,11.579,0,0,1,997.856,664.368Z" transform="translate(-997.259 -633.866)" fill="#32293a"/></g><g transform="translate(1096.294 581.457)"><g transform="translate(0 15.949)"><path d="M1171.873,623.066a18.256,18.256,0,1,1-30.114-13.9,18.037,18.037,0,0,1,5.641-3.313,18.35,18.35,0,0,1,12.434,0,18.037,18.037,0,0,1,5.641,3.313A18.236,18.236,0,0,1,1171.873,623.066Z" transform="translate(-1134.766 -604.178)" fill="#3795a3"/><path d="M1153.537,641.88a18.894,18.894,0,0,1-12.246-33.245,18.56,18.56,0,0,1,5.826-3.419,19.018,19.018,0,0,1,12.839,0,18.572,18.572,0,0,1,5.829,3.423,18.893,18.893,0,0,1-12.248,33.243Zm0-36.591a17.644,17.644,0,0,0-6.015,1.05,17.342,17.342,0,0,0-5.454,3.2,17.66,17.66,0,1,0,22.94,0,17.344,17.344,0,0,0-5.456-3.206A17.663,17.663,0,0,0,1153.537,605.288Z" transform="translate(-1134.686 -604.099)" fill="#32293a"/></g><g transform="translate(6.397)"><path d="M1166.334,598.56v8.469a18.037,18.037,0,0,0-5.641-3.313V598.56a6.217,6.217,0,1,0-12.434,0v5.156a18.039,18.039,0,0,0-5.641,3.313V598.56a11.858,11.858,0,1,1,23.716,0Z" transform="translate(-1142.021 -586.089)" fill="#45bbcc"/><path d="M1166.85,608.253l-.987-.853a17.344,17.344,0,0,0-5.453-3.2l-.394-.143v-5.575a5.621,5.621,0,1,0-11.241,0v5.575l-.394.143a17.361,17.361,0,0,0-5.454,3.2l-.986.851v-9.773a12.455,12.455,0,1,1,24.909,0ZM1154.4,587.2a11.282,11.282,0,0,0-11.263,11.276V605.7a18.5,18.5,0,0,1,4.449-2.478v-4.742a6.814,6.814,0,1,1,13.627,0v4.742a18.474,18.474,0,0,1,4.448,2.478v-7.221A11.281,11.281,0,0,0,1154.4,587.2Z" transform="translate(-1141.941 -586.009)" fill="#32293a"/></g><g transform="translate(15.182 28.555)"><path d="M1158.728,622.153a3.082,3.082,0,0,1-1.167,2.422v5.25a1.909,1.909,0,0,1-3.26,1.357,1.932,1.932,0,0,1-.559-1.357v-5.258a3.078,3.078,0,1,1,4.987-2.414Z" transform="translate(-1151.985 -618.476)" fill="#32293a"/><path d="M1155.575,632.26a2.5,2.5,0,0,1-1.775-.734,2.541,2.541,0,0,1-.734-1.78v-4.987a3.667,3.667,0,1,1,5.012.01v4.977A2.511,2.511,0,0,1,1155.575,632.26Zm0-12.669a2.485,2.485,0,0,0-1.539,4.43.6.6,0,0,1,.222.466v5.258a1.333,1.333,0,0,0,.384.935,1.314,1.314,0,0,0,2.243-.935v-5.25a.6.6,0,0,1,.225-.467,2.488,2.488,0,0,0-1.535-4.437Z" transform="translate(-1151.905 -618.396)" fill="#32293a"/></g></g><g transform="translate(827.209 736.001)"><path d="M876.815,780.639v-.219a9.459,9.459,0,0,0-16.383-6.479v-2.477a9.473,9.473,0,1,0-18.946,0v9.141h-1.849a9.493,9.493,0,0,0,0,18.987h36.521a9.489,9.489,0,0,0,.657-18.953Z" transform="translate(-829.569 -761.373)" fill="#462eb4"/><path d="M876.079,800.109H839.558a10.091,10.091,0,0,1,0-20.182h1.253v-8.543a10.068,10.068,0,1,1,20.137,0v1.1a9.927,9.927,0,0,1,6.315-2.24,10.089,10.089,0,0,1,10.063,9.768,10.086,10.086,0,0,1-1.247,20.093Zm-36.521-18.987a8.9,8.9,0,0,0,0,17.792h36.521a8.891,8.891,0,0,0,.615-17.761.6.6,0,0,1-.555-.6v-.22a8.9,8.9,0,0,0-8.877-8.9,8.779,8.779,0,0,0-6.476,2.826.6.6,0,0,1-1.032-.408v-2.477a8.876,8.876,0,1,0-17.753,0v9.141a.6.6,0,0,1-.6.6Z" transform="translate(-829.489 -761.293)" fill="#32293a"/><ellipse cx="6.651" cy="6.665" rx="6.651" ry="6.665" transform="translate(20.821 18.866)" fill="#fffdf7"/><g transform="translate(23.874 17.22)"><path d="M860.106,792.4a.6.6,0,0,1-.422-.175l-2.941-2.949a.6.6,0,1,1,.842-.845l2.522,2.527,9.93-9.953a.6.6,0,0,1,.844.845L860.528,792.22A.6.6,0,0,1,860.106,792.4Z" transform="translate(-856.567 -780.824)" fill="#32293a"/></g></g><g transform="translate(1106.636 754.252)"><path d="M1152.7,884.668a.615.615,0,0,1-.177-.026.6.6,0,0,1-.392-.749c2.1-6.8.183-11.72-2.045-17.421-2.332-5.972-4.975-12.74-2.937-22.826,1.462-7.226,6.329-12.307,11.963-18.19,8.934-9.329,19.059-19.9,19.059-42.866a.6.6,0,1,1,1.192,0c0,23.445-10.752,34.672-19.392,43.693-5.506,5.749-10.26,10.714-11.653,17.6-1.97,9.741.494,16.051,2.877,22.154,2.213,5.664,4.3,11.014,2.075,18.21A.6.6,0,0,1,1152.7,884.668Z" transform="translate(-1146.416 -781.993)" fill="#32293a"/></g><g transform="translate(847.73 574.252)"><path d="M870.01,675.9l-.057,0a.6.6,0,0,1-.537-.651c.785-8.3-3.169-15.5-7.355-23.125-5.854-10.657-12.488-22.738-7.594-40.576,7.183-26.181,30.687-32.291,40.459-33.7a.6.6,0,0,1,.168,1.181c-9.54,1.378-32.483,7.336-39.479,32.838-4.766,17.37,1.744,29.224,7.489,39.684,4.277,7.787,8.318,15.142,7.5,23.811A.6.6,0,0,1,870.01,675.9Z" transform="translate(-852.764 -577.837)" fill="#32293a"/></g><g transform="translate(935.646 553.178)"><path d="M958.965,566.936a6.5,6.5,0,1,1,6.486-6.5A6.5,6.5,0,0,1,958.965,566.936Zm0-11.807a5.306,5.306,0,1,0,5.293,5.306A5.306,5.306,0,0,0,958.965,555.13Z" transform="translate(-952.479 -553.935)" fill="#32293a"/></g><g transform="translate(954.206 566.55)"><path d="M977.23,576.521a3.71,3.71,0,1,1,3.7-3.71A3.711,3.711,0,0,1,977.23,576.521Zm0-6.225a2.515,2.515,0,1,0,2.509,2.515A2.515,2.515,0,0,0,977.23,570.3Z" transform="translate(-973.529 -569.102)" fill="#32293a"/></g><g transform="translate(859.084 853.539)"><path d="M871.532,906.411a5.9,5.9,0,1,1,5.891-5.9A5.9,5.9,0,0,1,871.532,906.411Zm0-10.612a4.709,4.709,0,1,0,4.7,4.708A4.708,4.708,0,0,0,871.532,895.8Z" transform="translate(-865.642 -894.604)" fill="#32293a"/></g><g transform="translate(838.497 848.57)"><path d="M845.78,895.961a3.5,3.5,0,1,1,3.489-3.5A3.5,3.5,0,0,1,845.78,895.961Zm0-5.8a2.3,2.3,0,1,0,2.3,2.3A2.3,2.3,0,0,0,845.78,890.164Z" transform="translate(-842.292 -888.969)" fill="#32293a"/></g><g transform="translate(1129.913 699.381)"><path d="M1176.3,726.751a3.5,3.5,0,1,1,3.489-3.5A3.5,3.5,0,0,1,1176.3,726.751Zm0-5.8a2.3,2.3,0,1,0,2.3,2.3A2.3,2.3,0,0,0,1176.3,720.955Z" transform="translate(-1172.817 -719.759)" fill="#32293a"/></g></g></g></g></svg>