<svg xmlns="http://www.w3.org/2000/svg" width="400" height="257.224" viewBox="0 0 400 257.224"><g transform="translate(-1020 -1528.776)"><g transform="translate(822.682 1373.146)"><path d="M627.649,412.761c-23.562,0-366.8.084-366.995-.53l-.034-.078a.415.415,0,0,1-.033-.114c-.131-.307-52.885-86.6,29.127-146.67,32.089-23.5-2.008-39.02,23.509-65.186,29.326-30.069,61.329,3.195,93.938-10.44a52.4,52.4,0,0,0,17.331-12.226,64.354,64.354,0,0,1,10.65-8.791q.879-.583,1.776-1.137a71.1,71.1,0,0,1,7.106-3.834q2.463-1.154,5.019-2.136h0a82.437,82.437,0,0,1,8.317-2.692,94.6,94.6,0,0,1,12.405-2.42q2.767-.358,5.579-.566c36.436-2.723,77.44,12.594,98.6,34.982,4.26,4.508,23.633,27.835,8.362,59.9-9.642,20.243,30.75,39.576,45.1,62.692C663.9,372.285,627.981,411.995,627.649,412.761Z" transform="translate(-46.449 0)" fill="#daf1f5"/><g transform="translate(266.62 204.972)" opacity="0.8"><path d="M786.252,519.972a52.024,52.024,0,0,1-.835,9.307,51.683,51.683,0,0,1-98.09,11.611,50.776,50.776,0,0,1-2.631-7.43,52.035,52.035,0,0,1-.608-24.482c.008-.041.018-.08.026-.121a51.8,51.8,0,0,1,20.167-30.737q1.593-1.156,3.278-2.191a51.392,51.392,0,0,1,27.026-7.626q1.972,0,3.9.147a51.319,51.319,0,0,1,25.59,9.1h0a51.868,51.868,0,0,1,14.172,14.8q1.187,1.875,2.216,3.853a51.434,51.434,0,0,1,5.781,23.776Z" transform="translate(-682.915 -468.302)" fill="#d7e5ff"/><g transform="translate(1.173 7.143)"><path d="M723.289,537.542c-2.062,3.265.861,8.935-5.325,7.389s-9.966-2.234-10.309,1.2,4.639,3.438,4.639,7.046-2.235,4.8-5.67,3.088-4.425-4.206-8.42-2.66-6.314.515-7.216-2.577a4.52,4.52,0,0,0-.642-1.353c.008-.041.018-.08.026-.121a51.8,51.8,0,0,1,20.167-30.737q1.593-1.156,3.278-2.191a6.8,6.8,0,0,1,5.178,2.7c3.608,4.469,6.013,2.235,5.155,7.389s.515,5.843,3.435,5.67,6.358-.173,6.7,2.062S725.351,534.276,723.289,537.542Z" transform="translate(-690.346 -516.144)" fill="#aec3ff"/><path d="M773.609,785.754s-3.118,3.625-5.805,1.544-1.874-3.386-5.811-2.081-5.666-.859-7.684.781-.38,1.846-1.776,5.321-4.278,4.034-2.05,7.5,6.374,1.685,8.558,3.52,1.471,3.633,4.2,4.38,5.33-1.908,5.384,1.385-1,6.507,2.391,9.569,2.755,3.753,6.239,5.244,7.648.147,7.12-1.947-5.019-2.516-5.108-4.88,2.3-2.166,1.342-5.207,1.716-4.68.813-6.646-6.052-2.638-5.452-4.618,5.257-.3,5.512-4.488-2.574-5.677-2.157-9.763S774.086,783.244,773.609,785.754Z" transform="translate(-740.305 -740.495)" fill="#aec3ff"/><path d="M1124.969,679.487a52.053,52.053,0,0,1-.835,9.307,51.388,51.388,0,0,1-8.155,19.822,5.9,5.9,0,0,1-4.132-.111c-6.443-2.577-1.675-9.536.9-13.015s-3.995-1.933-8.763-5.155.515-11.856-4.381-10.438-10.825,3.222-13.66-1.546,2.577-5.541.129-9.536,1.418-6.314,6.315-6.7,4.252-3.866,10.309-4.381,5.928,7.216,12.629,6.7,6.4,1.031,6.4,1.031a3.122,3.122,0,0,1,1.4.294A51.757,51.757,0,0,1,1124.969,679.487Z" transform="translate(-1022.805 -634.96)" fill="#aec3ff"/><path d="M1133.954,545.513c-5.572,2.711-7.809-4.662-12.572-2.446-4.8,2.235-3.961-2.062-7.739-4.812s-11.34,2.235-11-2.062,6.013-3.093,7.216-6.528,6.7-2.577,6.7-2.577a3.725,3.725,0,0,1,1-.227s0,0,0,0a51.87,51.87,0,0,1,14.172,14.8Q1132.924,543.535,1133.954,545.513Z" transform="translate(-1037.571 -524.762)" fill="#aec3ff"/><path d="M931,519.5s2.921-4.214-1.718-5.458-4.553.384-8.161,0-5.026,2.408-2.32,5.458,4.9,8.9,7.345,5.783S928.119,519.8,931,519.5Z" transform="translate(-881.558 -513.564)" fill="#aec3ff"/></g></g><g transform="translate(294.53 261.116)"><path d="M1361.734,1143.786l-7.914,94.1s-.829,5.7,3.414,5.714c6.976.016,34.722,0,34.722,0s-5.25-1.188-5.187-3.859c.075-3.149,9.25-96.843,9.25-96.843Z" transform="translate(-1275.799 -1092.582)" fill="#7599ea"/><path d="M1406.738,1232.816c-1.372,0-28.234.049-35.027-.038-2.961-.037-3.479-2.632-3.5-4.312a8.42,8.42,0,0,1,.09-1.4l.206-2.446.525-6.234.463-5.507.6-7.077.5-5.974,5.623-66.862,34.285-.89s-3.864,39.21-6.6,67.752c-.305,3.18-.6,6.23-.864,9.076q-.131,1.363-.252,2.662c-.254,2.7-.485,5.18-.687,7.37-.106,1.154-.2,2.226-.293,3.208-.349,3.849-.553,6.307-.556,6.775a3.938,3.938,0,0,0,.067.762C1401.876,1232.68,1406.223,1232.816,1406.738,1232.816Z" transform="translate(-1287.97 -1083.47)" fill="#90aff4"/><path d="M876.7,824.069,895.98,901.5l2.639,10.6,8.978,36.065h166.8l-33.092-124.1Z" transform="translate(-874.031 -824.069)" fill="#aec3ff"/><path d="M862.444,824.068l-2.672.89,30.014,125.9,3.552-2.693Z" transform="translate(-859.772 -824.068)" fill="#90aff4"/><path d="M1049.966,1613.155h165.773l4.578-2.693h-166.8Z" transform="translate(-1019.952 -1486.362)" fill="#7599ea"/><rect width="35.892" height="1.706" transform="translate(124.121 151.052) rotate(180)" fill="#aec3ff"/><path d="M1407.35,1627.526l-.185,1.3-33.755,6.82.463-5.507.221-2.616Z" transform="translate(-1292.353 -1500.732)" fill="#5888dd"/><path d="M1406.744,1713.492c-1.372,0-28.234.05-35.027-.038-2.961-.037-3.479-2.632-3.5-4.312l33.6-6.321c-.349,3.849-.553,6.307-.556,6.775a3.947,3.947,0,0,0,.067.761C1401.881,1713.356,1406.229,1713.492,1406.744,1713.492Z" transform="translate(-1287.975 -1564.146)" fill="#5888dd" opacity="0.4"/><path d="M876.7,824.068h164.6l26.707,99.737H901.531Z" transform="translate(-874.03 -824.068)" fill="#c2d5ff"/><path d="M1096.631,948H942.514l-5.507-21.939-2.131-8.489-.869-3.462-5.661-22.546-.293-1.174-2.992-11.918-1.339-5.332-1.142-4.549L919.9,857.924h151.9l2.94,10.663,1.253,4.549,1.47,5.332,9.685,35.13h0l.821,2.976.382,1.382,6.687,24.253Z" transform="translate(-910.414 -852.581)" fill="#739af0"/><path d="M1074.744,868.586H922.585l-2.677-10.664h151.9Z" transform="translate(-910.418 -852.579)" fill="#40327b"/><g transform="translate(15.733 8.829)"><path d="M959.507,881.347a1.007,1.007,0,0,1,1-1.333,1.821,1.821,0,0,1,1.666,1.333,1.007,1.007,0,0,1-1,1.333A1.821,1.821,0,0,1,959.507,881.347Z" transform="translate(-959.466 -880.014)" fill="#e9f3fe"/><path d="M987.576,881.347a1.007,1.007,0,0,1,1-1.333,1.821,1.821,0,0,1,1.666,1.333,1.007,1.007,0,0,1-1,1.333A1.821,1.821,0,0,1,987.576,881.347Z" transform="translate(-983.105 -880.014)" fill="#e9f3fe"/><path d="M1017.8,881.347a1.007,1.007,0,0,1,1-1.333,1.821,1.821,0,0,1,1.665,1.333,1.007,1.007,0,0,1-1,1.333A1.821,1.821,0,0,1,1017.8,881.347Z" transform="translate(-1008.559 -880.014)" fill="#e9f3fe"/></g><path d="M1096.577,1456.079l-56.415,24.654-6.121-24.654Z" transform="translate(-1006.539 -1356.342)" fill="#90aff4" opacity="0.5"/></g><g transform="translate(331.039 224.664)"><path d="M1095.594,603.7a6.511,6.511,0,0,0-4.473,5.961v57.52a36.258,36.258,0,0,0,14.95,29.5l33.789,21.654a7.143,7.143,0,0,0,7.554,0l33.789-21.654a36.257,36.257,0,0,0,14.95-29.5V609.814a6.562,6.562,0,0,0-4.7-6.041c-41.047-14.052-57.5-14.428-95.865-.073Z" transform="translate(-1091.121 -593.083)" fill="#826be9"/><path d="M1471.727,603.9c-19.98-6.84-34.133-10.43-47.821-10.667V719.536a7.033,7.033,0,0,0,3.777-1.08l33.79-21.654a36.258,36.258,0,0,0,14.95-29.5V609.936a6.562,6.562,0,0,0-4.7-6.039Z" transform="translate(-1371.389 -593.207)" fill="#583ae2"/><g transform="translate(26.507 23.663)"><g transform="translate(9.265)"><path d="M1337.988,843.936H1330.3a12.514,12.514,0,0,1-12.5-12.5v-1.495a12.514,12.514,0,0,1,12.5-12.5h7.685a12.515,12.515,0,0,1,12.5,12.5v1.495A12.514,12.514,0,0,1,1337.988,843.936Zm-7.685-21.5a7.51,7.51,0,0,0-7.5,7.5v1.495a7.51,7.51,0,0,0,7.5,7.5h7.685a7.51,7.51,0,0,0,7.5-7.5v-1.495a7.511,7.511,0,0,0-7.5-7.5Z" transform="translate(-1317.803 -817.441)" fill="#2ff980"/></g><path d="M6,0H44.334a7.685,7.685,0,0,1,7.685,7.685V20.027a25.2,25.2,0,0,1-25.2,25.2h0A26.821,26.821,0,0,1,0,18.4V6A6,6,0,0,1,6,0Z" transform="translate(0 16.185)" fill="#2ff980"/><g transform="translate(17.364 21.11)"><circle cx="6.783" cy="6.783" r="6.783" transform="translate(0 4.49) rotate(-19.33)" fill="#40327b"/><path d="M1416.064,1026.051h0a1.474,1.474,0,0,1,1.469,1.469v11.3a1.474,1.474,0,0,1-1.469,1.469h0a1.474,1.474,0,0,1-1.47-1.469v-11.3A1.474,1.474,0,0,1,1416.064,1026.051Z" transform="translate(-1407.418 -1014.24)" fill="#40327b"/></g></g></g><g transform="translate(437.563 177.919)"><g transform="translate(21.887 19.931)"><path d="M1906.057,426.081a1.782,1.782,0,0,0-1.224,1.631v15.743a9.923,9.923,0,0,0,4.092,8.074l9.248,5.927a1.955,1.955,0,0,0,2.067,0l9.248-5.927a9.924,9.924,0,0,0,4.092-8.074v-15.7a1.8,1.8,0,0,0-1.285-1.653c-11.234-3.846-15.738-3.949-26.238-.02Z" transform="translate(-1904.833 -423.175)" fill="#6ac9d6"/><path d="M2009,426.135c-5.469-1.872-9.342-2.855-13.088-2.919v34.57a1.926,1.926,0,0,0,1.034-.3l9.248-5.927a9.924,9.924,0,0,0,4.092-8.074v-15.7a1.8,1.8,0,0,0-1.285-1.653Z" transform="translate(-1981.541 -423.21)" fill="#45bbcc" opacity="0.4"/></g><g transform="translate(0 0)"><path d="M1969.541,300.136l3.631.477-2.587,2.592.668,3.6-3.264-1.66-3.218,1.748.57-3.618-2.657-2.52,3.617-.576,1.576-3.306Z" transform="translate(-1931.666 -296.875)" fill="#2ff980"/><path d="M1969.541,696.616l3.631.477-2.587,2.592.668,3.6-3.264-1.66-3.218,1.748.57-3.618-2.657-2.52,3.617-.576,1.576-3.306Z" transform="translate(-1931.666 -630.786)" fill="#2ff980"/><path d="M1800.1,397.5l3.631.477-2.588,2.592.668,3.6-3.264-1.66-3.218,1.748.57-3.618-2.657-2.52,3.617-.576,1.576-3.306Z" transform="translate(-1788.969 -378.871)" fill="#2ff980"/><path d="M2141.324,397.5l3.631.477-2.587,2.592.668,3.6-3.264-1.66-3.218,1.748.57-3.618-2.657-2.52,3.617-.576,1.576-3.306Z" transform="translate(-2076.341 -378.871)" fill="#2ff980"/><path d="M1800.1,600.429l3.631.477-2.588,2.592.668,3.6-3.264-1.66-3.218,1.748.57-3.617-2.657-2.521,3.617-.576,1.576-3.306Z" transform="translate(-1788.969 -549.778)" fill="#2ff980"/><path d="M2141.324,600.429l3.631.477-2.587,2.592.668,3.6-3.264-1.66-3.218,1.748.57-3.617-2.657-2.521,3.617-.576,1.576-3.306Z" transform="translate(-2076.341 -549.778)" fill="#2ff980"/><path d="M1873.559,326.334l3.631.477L1874.6,329.4l.668,3.6-3.264-1.66-3.218,1.748.57-3.618-2.657-2.52,3.616-.576,1.576-3.306Z" transform="translate(-1850.831 -318.938)" fill="#2ff980"/><path d="M2070.528,326.334l3.631.477-2.587,2.592.668,3.6-3.264-1.66-3.218,1.748.57-3.618-2.657-2.52,3.616-.576,1.576-3.306Z" transform="translate(-2016.717 -318.938)" fill="#2ff980"/><path d="M1873.559,671.136l3.631.477L1874.6,674.2l.668,3.6-3.264-1.66-3.218,1.748.57-3.618-2.657-2.52,3.616-.576,1.576-3.306Z" transform="translate(-1850.831 -609.327)" fill="#2ff980"/><path d="M2070.528,671.136l3.631.477-2.587,2.592.668,3.6-3.264-1.66-3.218,1.748.57-3.618-2.657-2.52,3.616-.576,1.576-3.306Z" transform="translate(-2016.717 -609.327)" fill="#2ff980"/><path d="M1773,504.241l3.631.477-2.587,2.592.668,3.6-3.264-1.66L1768.225,511l.57-3.618-2.657-2.52,3.616-.576,1.576-3.306Z" transform="translate(-1766.138 -468.77)" fill="#2ff980"/><path d="M2174.558,504.241l3.631.477-2.587,2.592.668,3.6-3.264-1.66L2169.787,511l.57-3.618-2.657-2.52,3.616-.576,1.576-3.306Z" transform="translate(-2104.33 -468.77)" fill="#2ff980"/></g></g><g transform="translate(223.128 284.673)"><g transform="translate(13.293 16.083)"><g transform="translate(6.718)"><g transform="translate(3.382)"><path d="M570.4,1075.356a.343.343,0,1,1-.485,0A.343.343,0,0,1,570.4,1075.356Z" transform="translate(-567.565 -1075.257)" fill="#d5e5fb"/><path d="M563.317,1082.5a.343.343,0,1,1-.485,0A.343.343,0,0,1,563.317,1082.5Z" transform="translate(-561.6 -1081.277)" fill="#d5e5fb"/><path d="M555.658,1089.749a.343.343,0,1,1,0,.485A.343.343,0,0,1,555.658,1089.749Z" transform="translate(-555.558 -1087.376)" fill="#d5e5fb"/></g><g transform="translate(0 3.414)"><path d="M548.968,1096.989a.343.343,0,1,1-.485,0A.343.343,0,0,1,548.968,1096.989Z" transform="translate(-546.133 -1096.889)" fill="#d5e5fb"/><path d="M541.887,1104.136a.343.343,0,1,1-.485,0A.343.343,0,0,1,541.887,1104.136Z" transform="translate(-540.17 -1102.909)" fill="#d5e5fb"/><path d="M534.227,1111.38a.343.343,0,1,1,0,.485A.343.343,0,0,1,534.227,1111.38Z" transform="translate(-534.127 -1109.008)" fill="#d5e5fb"/></g></g><g transform="translate(0 6.782)"><g transform="translate(3.382)"><path d="M527.825,1118.331a.343.343,0,1,1-.485,0A.343.343,0,0,1,527.825,1118.331Z" transform="translate(-524.99 -1118.231)" fill="#d5e5fb"/><path d="M520.744,1125.478a.343.343,0,1,1-.485,0A.343.343,0,0,1,520.744,1125.478Z" transform="translate(-519.027 -1124.251)" fill="#d5e5fb"/><path d="M513.084,1132.722a.343.343,0,1,1,0,.485A.343.343,0,0,1,513.084,1132.722Z" transform="translate(-512.984 -1130.35)" fill="#d5e5fb"/></g><g transform="translate(0 3.414)"><path d="M506.394,1139.962a.343.343,0,1,1-.485,0A.343.343,0,0,1,506.394,1139.962Z" transform="translate(-503.56 -1139.862)" fill="#d5e5fb"/><path d="M499.313,1147.11a.343.343,0,1,1-.485,0A.343.343,0,0,1,499.313,1147.11Z" transform="translate(-497.596 -1145.883)" fill="#d5e5fb"/><path d="M491.653,1154.354a.343.343,0,1,1,0,.485A.343.343,0,0,1,491.653,1154.354Z" transform="translate(-491.554 -1151.981)" fill="#d5e5fb"/></g></g></g><g transform="translate(25.691 0)"><g transform="translate(0)"><circle cx="7.483" cy="7.483" r="7.483" transform="translate(0 14.767) rotate(-80.643)" fill="#c6dcf7"/></g><g transform="translate(4.397 3.196)"><path d="M609.392,996a2.4,2.4,0,1,1,2.4,2.4A2.4,2.4,0,0,1,609.392,996Z" transform="translate(-607.591 -993.597)" fill="#ebf3fa"/><path d="M602.18,1024.035a4.2,4.2,0,0,0-4.2,4.2h8.406A4.2,4.2,0,0,0,602.18,1024.035Z" transform="translate(-597.977 -1019.232)" fill="#ebf3fa"/></g></g><g transform="translate(0 29.788)"><path d="M414.516,1164.008l-.277-.687a1.947,1.947,0,0,0-1.806-1.218h-5.115v17.1h21.161v-13.858H416.5A2.143,2.143,0,0,1,414.516,1164.008Z" transform="translate(-407.317 -1162.103)" fill="#c6dcf7"/><g transform="translate(6.286 5.191)"><path d="M454.61,1197.616H453.9a2.018,2.018,0,0,0,.032-.354v-.242a2.024,2.024,0,0,0-2.022-2.022H450.67a2.024,2.024,0,0,0-2.021,2.022v.242a2.012,2.012,0,0,0,.031.354h-.786a.744.744,0,0,0-.744.744v3.244a3.325,3.325,0,0,0,3.325,3.326h1.963a3.124,3.124,0,0,0,3.124-3.124v-3.237A.953.953,0,0,0,454.61,1197.616Zm-3.016,3.265v1.507a.238.238,0,0,1-.476,0v-1.507a1.1,1.1,0,1,1,.476,0Zm1.532-3.619a1.2,1.2,0,0,1-.053.354H449.51a1.206,1.206,0,0,1-.053-.354v-.242a1.214,1.214,0,0,1,1.213-1.213h1.243a1.215,1.215,0,0,1,1.213,1.213Z" transform="translate(-447.15 -1194.998)" fill="#ebf3fa"/></g></g></g><g transform="translate(234.578 310.681)"><path d="M762.627,1142.5s.4-4.355-4.466-4.355a5.718,5.718,0,0,1,2.237,1.2,5.754,5.754,0,0,0-6.48.978c-3.377,2.8-1.279,9.82-2.306,11.153s-5.026,1.6-4.537,5.91,12.692,9.709,11.909,13.275c0,0,4.782-7.03,1.363-10.238a6.337,6.337,0,0,1,1.837,3.436s.452-3.644-1.866-4.809c-2.052-1.031-3.733-4.8-3.555-5.477S762.627,1142.5,762.627,1142.5Z" transform="translate(-704.874 -1138.15)" fill="#2c3a64"/><path d="M787.984,1298.232s3.635,15.038,7.2,18.044c2.145,1.807,8.522,5.953,8.522,5.953l-2.652.963s-8.845-2.987-10.825-5.315-7.4-13.995-7.4-13.995Z" transform="translate(-735.02 -1272.97)" fill="#ffb27d"/><path d="M830.14,1453.806l-.854-2.115a6,6,0,0,0-5.563-3.753H807.965v52.686h65.184v-42.687H836.263A6.6,6.6,0,0,1,830.14,1453.806Z" transform="translate(-756.189 -1399.051)" fill="#583ae2"/><path d="M586.923,1389.779c.032.057.066.117.1.177.8,1.382,2.62,4.77,4.63,8.477.951,1.759,1.946,3.59,2.89,5.313,1.627,2.973,3.107,5.621,3.971,7.02.878,1.423,1.525,2.422,1.786,2.822l0,0a.662.662,0,0,1,.085.413,21.571,21.571,0,0,0,.057,3.728,28.6,28.6,0,0,0,9.345,18.524l2.418.357s-3.422-12.677-4.43-19.844a13.782,13.782,0,0,1-.185-2.841,29.679,29.679,0,0,0-.78-7.756,173.757,173.757,0,0,0-4.945-17.954c-.113-.351-3.513-12.652-3.513-12.652-2.854,2.495-13.264,3.524-13.264,3.524S583.324,1383.38,586.923,1389.779Z" transform="translate(-568.121 -1338.098)" fill="#2f539b"/><path d="M737.244,1751.827H727.152a5.541,5.541,0,0,1,.285-2.7c.505-1.12,1.225-1.156.092-2.91.641.66,2.7.933,4.162.737a12.358,12.358,0,0,0,1.75,2.663C734.1,1750.086,737.041,1749.917,737.244,1751.827Z" transform="translate(-688.082 -1650.253)" fill="#233862"/><path d="M599.017,1433.883c.032.057.066.117.1.176.8,1.382,5.1,9.328,7.107,13.034a53.747,53.747,0,0,1-.709-19.162Z" transform="translate(-580.215 -1382.202)" fill="#233862"/><path d="M795.123,1161.487c.066-.265-5.764,2.635-6.06,2.963-2.734,3.033-1.955,6.991-.39,7.029,1,.025.809,1.693.809,1.693l11.178-4.729S799.315,1160.594,795.123,1161.487Z" transform="translate(-738.746 -1157.745)" fill="#2c3a64"/><path d="M781.929,1283.923s1.7,3.4,1.489,6.156c0,0-2.051,3.238-7.371,4.058C776.047,1294.136,780.621,1283.92,781.929,1283.923Z" transform="translate(-729.308 -1260.919)" fill="#40327b"/><path d="M513.683,1368.6l.034-1.888c-3.761.474-12.967-4.494-12.967-4.494s-3.934,2.617-4.473,10.09c-.263,3.648-1.926,19.073-2.11,23.68-.067,1.67-.089,2.861-.1,3.337a.011.011,0,0,1,0,0,.657.657,0,0,1-.16.388,21.552,21.552,0,0,0-2.038,3.124c-5.738,10.677-2.738,25.185-2.738,25.185l1.333-.339s4.852-15.04,8.023-21.545a13.622,13.622,0,0,1,1.436-2.459,29.669,29.669,0,0,0,3.689-6.867C505.96,1391.219,513.683,1368.6,513.683,1368.6Z" transform="translate(-487.013 -1326.857)" fill="#2f539b"/><path d="M490.021,1751.438H479.929a5.541,5.541,0,0,1,.285-2.705c.5-1.119,1.3-1.628,1.107-2.983a3.634,3.634,0,0,0,3.145,1.2,11.075,11.075,0,0,0,1.751,2.27C486.878,1749.7,489.818,1749.527,490.021,1751.438Z" transform="translate(-479.874 -1649.864)" fill="#233862"/><path d="M597.1,1265.779c-1.356.231.221,1.309-1.643,1.511-2.654.29-5.393.488-6.829,1.061a1.54,1.54,0,0,0-.983.8c-.622,1.871-4.562,5.085-4.562,5.085-17.573-.8-18.705-8.632-18.705-8.632,11.405-11.077,21.108-17.115,29.127-17.862a14.266,14.266,0,0,1,5.817.612c2.8,1.249,4.342,5.049,4.342,5.049S602.251,1264.9,597.1,1265.779Z" transform="translate(-551.042 -1230.394)" fill="#40327b"/><path d="M724.57,1295.656c-2.654.29-5.393.488-6.829,1.06a27.983,27.983,0,0,1,3.549-15.357S723.989,1292.339,724.57,1295.656Z" transform="translate(-680.155 -1258.759)" fill="#291c5e"/><path d="M732.559,1271.915s-6.673-.365-7.859,3.825,2.225,20.914,2.96,22.64c1.338,3.142,8.085,12.5,8.085,12.5l2.163-1.12s-4.344-13.7-5.313-15.057C731.072,1292.576,734.557,1273.738,732.559,1271.915Z" transform="translate(-685.855 -1250.799)" fill="#ffb27d"/><path d="M796.623,1510.225a9.832,9.832,0,0,1,1.007,1.034c.449.549.054.747,1.343,3.23,0,0-.066.345-.346.282s-1.253-1.026-1.752-.957c0,0-.356.294-.4,1.267a23.523,23.523,0,0,1-.2,3.3c-.159.379-1.317-1.586-1.887-3.006-.5-1.245-.013-5.444-.013-5.444Z" transform="translate(-744.571 -1451.262)" fill="#ffb27d"/><path d="M717.684,1274.739c.017.1,6.315,1.159,10.254-.841,0,0,3.291-10.309-1.412-9.816s-7.487,1.974-7.606,4.226A43.325,43.325,0,0,1,717.684,1274.739Z" transform="translate(-680.155 -1244.195)" fill="#40327b"/><path d="M784.817,1235.037a4.193,4.193,0,0,0,1.267,2.936c.837.861,2.045,1.534,2.894.685a9.232,9.232,0,0,0,1.313-1.587c.734-1.261,1.608-2.55,1.608-2.55l-3.777-3.309-.225-.2a9.624,9.624,0,0,1-2.814,3.193A.878.878,0,0,0,784.817,1235.037Z" transform="translate(-736.688 -1216.359)" fill="#ffb27d"/><path d="M809.207,1235.578s-.873,1.286-1.607,2.549c-2.348-1.447-2.35-4.354-2.169-5.859Z" transform="translate(-753.996 -1217.415)" fill="#ed985f"/><path d="M808.476,1201.215s-5.7-3.172-3.67-6.691,2.661-6.3,6.387-4.423,3.652,3.624,3.26,4.963S810.011,1201.949,808.476,1201.215Z" transform="translate(-753.16 -1181.394)" fill="#ffb27d"/><path d="M812.217,1190.468c-.261-1.563-1.055-1.712-1.608-1.607a4.559,4.559,0,0,0-5.544-2.123,7.761,7.761,0,0,1-4.493,2.7s.661,1.231,3.387,1.993a4.658,4.658,0,0,0,2.689-.215,15.223,15.223,0,0,1-3.868,1.458c3.592.329,7.009-2.955,7.363-3.306a5.109,5.109,0,0,1,.282,2.353c-.236,1.058-1.176,2.975-.6,3.224C809.823,1194.943,812.609,1192.811,812.217,1190.468Z" transform="translate(-749.963 -1178.85)" fill="#2c3a64"/><path d="M917.269,1449.766s-1.591,1.193-.392,1.973,3.339.99,3.348.479C920.254,1450.5,919.4,1449.279,917.269,1449.766Z" transform="translate(-847.537 -1400.499)" fill="#ffb27d"/><g transform="translate(72.086 65.27)"><path d="M958.332,1559.355h-2.055a5.88,5.88,0,0,0,.093-1.027v-.7a5.879,5.879,0,0,0-5.873-5.873h-3.61a5.878,5.878,0,0,0-5.871,5.873v.7a5.868,5.868,0,0,0,.091,1.027h-2.283a2.161,2.161,0,0,0-2.16,2.162v9.424a9.658,9.658,0,0,0,9.658,9.658h5.7a9.073,9.073,0,0,0,9.075-9.074v-9.4A2.768,2.768,0,0,0,958.332,1559.355Zm-8.76,9.485v4.378a.691.691,0,0,1-1.381,0v-4.378a3.186,3.186,0,1,1,1.381,0Zm4.449-10.512a3.5,3.5,0,0,1-.153,1.027h-10.35a3.5,3.5,0,0,1-.155-1.027v-.7a3.528,3.528,0,0,1,3.524-3.524h3.61a3.528,3.528,0,0,1,3.525,3.524Z" transform="translate(-936.664 -1551.753)" fill="#2ff980"/></g></g><g transform="translate(482.788 325.019)"><g transform="translate(0 20.564)"><path d="M2139.472,1426.082h-79.123c-11.031-12.677-10.574-28.111,4.477-42.126a28.47,28.47,0,0,1,11.228-6.132,101.325,101.325,0,0,1,15.041-2.094c.023-.009,8.849-1.238,11.365-4.3,7.82-9.51,9.83-10.871,9.83-10.871,7.971-1.558,14.77-2.016,19.81.8,0,0,0,0,0,0,4.669,2.615,7.83,8.044,9.013,18.021q.337,2.83.458,6.16c.289,8.1,1.878,15.3,2.822,21.4,0,0,0,0,0,0C2145.762,1415.781,2146.728,1422.5,2139.472,1426.082Z" transform="translate(-2052.719 -1359.316)" fill="#583ae2"/></g><path d="M2248.411,1371.479c-4.836,2.634-5.371,11.313-12.941,13.554s-20.42,2.037-27.708,9.943c-7.031,7.628-14.787-11.778-11.448-17.237a101.743,101.743,0,0,1,15.041-2.084c.023-.009,10.8-.052,13.313-3.1,7.82-9.467,7.882-12,7.882-12,7.971-1.551,14.77-2.006,19.81.8,0,0,0,0,0,0C2257.914,1367.093,2253.247,1368.844,2248.411,1371.479Z" transform="translate(-2172.98 -1338.753)" fill="#40327b"/><path d="M2415.5,1513.343c-11.1-13.856-33.9,5.033-39.8,4.5-5.426-.49,10.58-19.428,30.428-22.246,8.023-1.139,6.1-9.43,6.1-9.686.224,1.878.378,3.918.458,6.132C2412.97,1500.1,2414.558,1507.272,2415.5,1513.343Z" transform="translate(-2323.828 -1445.368)" fill="#40327b"/><g transform="translate(11.455)"><path d="M2208.162,1671.268c-.776,1.5-.951,4.249-1.181,5.183s-4.3,4.106-4.648,3.947c-.89-.4-.04-1.951.5-3.085.022-.045.043-.091.064-.136.536-1.142.075-3.691.352-5.008s-1.057-4.86-1.057-4.86l2.247-2.839s1.579,3,2.709,3.552a2.775,2.775,0,0,1,.551.351A2.2,2.2,0,0,1,2208.162,1671.268Z" transform="translate(-2189.852 -1595.75)" fill="#ffb27d"/><path d="M2368.976,1229.03a9.508,9.508,0,0,0-5.758,2.66,12.273,12.273,0,0,0-2.775,3.8c-1.482,3.384-.972,7.32-1.819,9.479s-1.356,2.536,0,3.514,1.583,1.909-.037,2.946-2.817,4.267,1.7,4.548,13.284-1.36,14.41-2.2,4.2-2.079,5.678-4.315c2.949-4.471.6-7.475-1.678-8.232C2375.233,1240.084,2376.508,1228.4,2368.976,1229.03Z" transform="translate(-2320.548 -1229.005)" fill="#163560"/><path d="M2339.31,1347.847s-4.482,10.119-5.416,11-5.307,2.6-4.914,4.073,3.686,2.9,5.062,2.555,4.864-6.289,4.864-6.289Z" transform="translate(-2296.818 -1329.093)" fill="#739af0"/><path d="M2331.425,1399.934s.242-1.74,4.49-2.3c2.357-.312,6.3-6.886,6.3-6.886l-3.944,10.367-3.822,1.653Z" transform="translate(-2298.898 -1365.221)" fill="#5a7de0"/><path d="M2204.272,1467.879s-22.123-1.549-25.155,1.963c-2.4,2.786,1.975,33.22,1.975,33.22s6.02.176,6.495-1.419c0,0-1.124-14.776-.183-17.331a14.209,14.209,0,0,0,.346-6.092s11.779,1.764,15.516.869S2204.272,1467.879,2204.272,1467.879Z" transform="translate(-2170.019 -1429.896)" fill="#233862"/><path d="M2135.72,1722.573c-1.557.642-3.467,2.633-4.245,3.2s-5.933.363-6.1.017c-.437-.915,1.365-1.567,2.511-2.094l.051-.024,0,0c1.133-.57,2.4-2.758,3.447-3.572s2.327-4.395,2.327-4.395l3.548-.719s-.73,3.315-.22,4.461a2.892,2.892,0,0,1,.122.328A2.2,2.2,0,0,1,2135.72,1722.573Z" transform="translate(-2125.309 -1638.289)" fill="#ffb27d"/><path d="M2208.023,1476.544s-24.138,2.453-26.259,4.916-10.461,34.5-10.461,34.5a5.184,5.184,0,0,0,4.7.09s6.386-10.868,9.212-14.28,3.831-12.323,5.337-13.282c.4-.257,14.605,1.34,19.815-2.657S2208.023,1476.544,2208.023,1476.544Z" transform="translate(-2164.045 -1437.48)" fill="#2a4e96"/><path d="M2353.4,1353.464a27.837,27.837,0,0,1-2.015,3.311c-1.807,2.519-3.9,4.331-6.166,4.8-3.293.684-14.332-5.724-13.773-9.258.3-1.924,6.438-5.382,7.427-6.778s1.584-8.392,2.113-11.248c.393-2.125,1.71-2.347,3.357-2.911,7-2.4,11.977.139,11.977.139C2359.52,1333.32,2357.741,1345.161,2353.4,1353.464Z" transform="translate(-2298.898 -1314.357)" fill="#739af0"/><path d="M2423.761,1243.854a30.527,30.527,0,0,0,.526-3.547c.108-1.308-1.88-5.572-4.965-5.4a6.538,6.538,0,0,0-2.6,1.275c-.974.8-2.333,2.459-.262,6.463l.568,1.365Z" transform="translate(-2369.597 -1233.975)" fill="#163560"/><g transform="translate(43.134 2.772)"><path d="M2427.607,1302.557c.1.73.751,1.148,2.2,1.055,1.468-.094,3.55-.984,3.377-1.662a20.071,20.071,0,0,1-1.071-5.526l-.267.075-4.484,1.26s.216,1.425.325,2.775A17.527,17.527,0,0,1,2427.607,1302.557Z" transform="translate(-2422.83 -1288.557)" fill="#ffb27d"/><path d="M2427.362,1298.158s.216,1.425.325,2.775c2.543-.272,3.708-2.7,4.159-4.035Z" transform="translate(-2422.83 -1288.955)" fill="#f4a269"/><path d="M2406.041,1260.659s5.867-1.476,4.892-5.115-.875-6.281-4.662-5.493-4.14,2.371-4.11,3.665S2404.49,1260.949,2406.041,1260.659Z" transform="translate(-2401.604 -1249.384)" fill="#ffb27d"/><path d="M2411.2,1247.862s1.969,3.754,5.685,4.158a3.25,3.25,0,0,1,2.771,1.67,34.131,34.131,0,0,0-1.746-6.6S2411.864,1245.506,2411.2,1247.862Z" transform="translate(-2409.221 -1246.568)" fill="#163560"/><path d="M2401.293,1254.642a10.226,10.226,0,0,0-1.681,2.235c-.587,1.369.557,4.253,1.03,4.875,0,0-2.729-4.632-1.817-6.638A1.379,1.379,0,0,1,2401.293,1254.642Z" transform="translate(-2398.639 -1252.852)" fill="#163560"/></g><path d="M2260.682,1467.129s-1.168,1.237-1.31,1.3a8.081,8.081,0,0,1-2.22.269c-.472.118-.39-.175-.042-.413s1.2-.145.854-.232a9.515,9.515,0,0,0-2.949-.249,2.651,2.651,0,0,1-2.085-.168,9.253,9.253,0,0,1,3.325-1.362c.755.043,2.924-.061,2.924-.061Z" transform="translate(-2232.789 -1428.783)" fill="#ffb27d"/><path d="M2413.72,1352.217s.7,17.208-1.322,19.62c-1.961,2.338-10.339.752-13.96-.035a1.016,1.016,0,0,0-.808.233c-.282.254-.406-1.722-.406-1.722s10.929-1.6,11.663-1.807c1.055-.3.321-12.148.321-12.148Z" transform="translate(-2354.314 -1332.773)" fill="#ffb27d"/><path d="M2379.2,1470.55s-.979.993-1.352,1.5-2.976,1.425-3.035,1.154,1.166-1.1,1.276-1.406a5.464,5.464,0,0,1,2.259-2.033C2379.163,1469.589,2379.2,1470.55,2379.2,1470.55Z" transform="translate(-2335.439 -1431.753)" fill="#ffb27d"/><path d="M2363.166,1466.887s-4.015.929-4.7,1.207-2.127,2.324-1.553,2.631c.362.194,1.947-.643,2.751-.817s3.083.221,4.126-1.839C2363.911,1467.837,2363.166,1466.887,2363.166,1466.887Z" transform="translate(-2320.256 -1429.347)" fill="#ffb27d"/><path d="M2135.72,1748.129c-1.557.642-3.467,2.633-4.245,3.2s-5.933.364-6.1.017c-.437-.915,1.365-1.567,2.511-2.094l.051-.023,0,0,.161-.053a6.345,6.345,0,0,0,4.072,0c1.442-.618,3.58-2.912,4.991-3.845A2.2,2.2,0,0,1,2135.72,1748.129Z" transform="translate(-2125.309 -1663.845)" fill="#2a4e96"/><path d="M2208.162,1692.1c-.776,1.5-.951,4.249-1.181,5.183s-4.3,4.106-4.648,3.947c-.89-.4-.04-1.952.5-3.085a2.523,2.523,0,0,0,1.242-.462,9.012,9.012,0,0,0,2.9-4.743c.126-1.229.047-2.991.729-3.734A2.2,2.2,0,0,1,2208.162,1692.1Z" transform="translate(-2189.852 -1616.579)" fill="#193b72"/><g transform="translate(14.982 28.813)"><path d="M2243,1424.672h-17.49l-5.261-13.083h17.463Z" transform="translate(-2220.247 -1411.589)" fill="#ef8035"/><path d="M2252.287,1491.265h23.1v.51h-22.891Z" transform="translate(-2247.231 -1478.691)" fill="#ed7d2b"/><path d="M2281.384,1448.6a.606.606,0,0,1,.594-.833,1.193,1.193,0,0,1,1.072.833.606.606,0,0,1-.594.832A1.194,1.194,0,0,1,2281.384,1448.6Z" transform="translate(-2271.707 -1442.056)" fill="#fff"/></g><path d="M2422.791,1476.82a27.819,27.819,0,0,1-2.016,3.311c-5.605-.21-6.957-2.475-6.957-2.475Z" transform="translate(-2368.289 -1437.712)" fill="#5a7de0"/><path d="M2415.477,1391.843s6.4-1.469,7.195-2.844,1.908-10.536,1.908-10.536l2.67,3.422-.541,8.054s-3.046,3.013-3.243,2.9S2415.477,1391.843,2415.477,1391.843Z" transform="translate(-2369.686 -1354.876)" fill="#5a7de0"/><path d="M2424.182,1337.758a5.658,5.658,0,0,1,2.1,1.833c1.112,2.033,2.3,17.784-.861,20.387s-12.337,2.084-13.416.241a5.436,5.436,0,0,1,.545-2.656s8.26-1.091,8.629-1.611-.268-11.68.123-12.694S2424.182,1337.758,2424.182,1337.758Z" transform="translate(-2366.761 -1320.596)" fill="#739af0"/></g><path d="M2314.7,1477.463s-2.384,2.234-12.362,2.555c-7.8.251-16.019,3.4-19.859,8.8a15.41,15.41,0,0,0-2.094,5.66c-.521,3.071,18.937,7.844,19.249,7.4s12.816-11.187,12.816-11.187Z" transform="translate(-2244.445 -1438.254)" fill="#583ae2"/></g><g transform="translate(440.549 282.451)"><path d="M1926.182,1087.079s9.7,10.06,10.161,13.847-4.648,9.7-4.648,9.7Z" transform="translate(-1903.911 -1066.909)" fill="#40327b"/><path d="M1828.37,1738.56s-.342,5.336-1.375,5.411c-.137.01-5.237,0-5.237,0l-6.51-.052a2.112,2.112,0,0,1,1.949-1.9c1.9-.328,5.092-1.658,6.25-4.17C1824.666,1735.208,1828.37,1738.56,1828.37,1738.56Z" transform="translate(-1810.484 -1614.128)" fill="#0e2644"/><path d="M1920.251,1738.76s-.343,5.336-1.375,5.411c-.137.01-5.237,0-5.237,0l-6.51-.052a2.112,2.112,0,0,1,1.949-1.9c1.9-.327,5.092-1.658,6.25-4.17C1916.547,1735.408,1920.251,1738.76,1920.251,1738.76Z" transform="translate(-1887.865 -1614.296)" fill="#0e2644"/><path d="M1853.5,1340.865s1.679,10.893,7.988,30.237,7.157,27.717,7.157,27.717l6.814-.176s.1-21.126-2.8-30.853-.556-35.045-.556-35.045Z" transform="translate(-1842.702 -1273.807)" fill="#163560"/><path d="M1832.556,1336.224a264.33,264.33,0,0,0,2.519,36.563c2.8,20.154,1.814,28.7,1.814,28.7l6.8.241s4.107-20.147,2.964-30.234,5.64-34.593,5.64-34.593Z" transform="translate(-1825.054 -1276.736)" fill="#1c468a"/><path d="M1869.245,1049.765l-3.628,2.368-5.234-.987c.073-.422.423-2.174.741-3.76.019-.094.038-.187.056-.278.272-1.35.508-2.509.508-2.509l4.9-2.147,1.825-.8c0,.028-.145,1.5-.164,1.713A12.467,12.467,0,0,0,1869.245,1049.765Z" transform="translate(-1848.496 -1028.649)" fill="#ffb27d"/><path d="M1857.711,1076.54c.1-.042,6.309-1.86,6.983-1.636s1.07,1.529,1.07,1.529l-10.152,2.272A5.038,5.038,0,0,1,1857.711,1076.54Z" transform="translate(-1844.477 -1056.639)" fill="#40327b"/><path d="M1848.7,1126.169c-1.062,4.795-18.564,5.326-23.065.962-.512-.5-.532-2.807-.332-5.92.392-6.082,1.627-15.23,1.685-19.905a36.987,36.987,0,0,1,.761-6.662,54.119,54.119,0,0,1,2.237-7.971s8.554-2.745,10.153-2.271C1847.842,1086.682,1849.766,1121.374,1848.7,1126.169Z" transform="translate(-1818.855 -1064.607)" fill="#583ae2"/><path d="M1825.935,1171.382c.392-6.082,1.627-15.23,1.685-19.905a36.978,36.978,0,0,1,.761-6.662l5.144-.9S1838.508,1164.464,1825.935,1171.382Z" transform="translate(-1819.484 -1114.779)" fill="#40327b"/><path d="M1835.845,1260a1.21,1.21,0,0,1-.389,1.4,2.346,2.346,0,0,0-1.05,2.137c.167.667,1.78,1.756,2.34,1.582s1.7-1.048,1.579-1.4.773-3.081-.589-4.136A1.1,1.1,0,0,0,1835.845,1260Z" transform="translate(-1826.591 -1211.872)" fill="#ffb27d"/><path d="M1800.121,1091.343s-5.017.927-9.026,6.807-6.647,10.252-5.915,12.376,7.425,9.5,8.582,9.5a3.1,3.1,0,0,0,3.134-2.727s-4.708-7.09-3.776-8.149c.4-.452,6.144-5.1,6.958-2.991C1801.426,1109.645,1800.121,1091.343,1800.121,1091.343Z" transform="translate(-1785.058 -1070.5)" fill="#583ae2"/><path d="M1871.832,1047.7c-1.078,1.817-5.083,3.381-6.753,3.956.019-.094.038-.187.056-.279.273-1.35.508-2.509.508-2.509l4.9-2.147C1871.619,1046.708,1872.277,1046.951,1871.832,1047.7Z" transform="translate(-1852.451 -1032.919)" fill="#fca56b"/><path d="M1851.759,989.272s7.872,2.475,9.338-2.452,3.469-7.924-1.5-9.713-6.5-.2-7.394,1.325S1849.749,988.5,1851.759,989.272Z" transform="translate(-1840.409 -973.625)" fill="#ffb27d"/><path d="M1857.857,963.6s.49,5.737,1.677,5.491,2.263-.429,2.086,1.3-1.827,3.722,1.828,4.036,8.931-9.1,7.931-10.89C1868.493,958.379,1853.683,957.307,1857.857,963.6Z" transform="translate(-1845.749 -959.266)" fill="#163560"/></g><g transform="translate(488.287 255.486)"><g transform="translate(8.342)"><g transform="translate(19.434 16.293)"><path d="M2263.687,891.746a.374.374,0,1,0,.528,0A.374.374,0,0,0,2263.687,891.746Z" transform="translate(-2263.577 -891.638)" fill="#d5e5fb"/><path d="M2271.4,899.528a.374.374,0,1,0,.528,0A.374.374,0,0,0,2271.4,899.528Z" transform="translate(-2270.069 -898.192)" fill="#d5e5fb"/><path d="M2279.735,907.415a.374.374,0,1,0,0,.528A.373.373,0,0,0,2279.735,907.415Z" transform="translate(-2276.647 -904.832)" fill="#d5e5fb"/><g transform="translate(3.682 3.716)"><path d="M2287.018,915.3a.373.373,0,1,0,.528,0A.373.373,0,0,0,2287.018,915.3Z" transform="translate(-2286.907 -915.189)" fill="#d5e5fb"/><path d="M2294.728,923.079a.374.374,0,1,0,.528,0A.374.374,0,0,0,2294.728,923.079Z" transform="translate(-2293.401 -921.742)" fill="#d5e5fb"/><path d="M2303.067,930.965a.374.374,0,1,0,0,.528A.374.374,0,0,0,2303.067,930.965Z" transform="translate(-2299.979 -928.382)" fill="#d5e5fb"/></g><g transform="translate(7.314 7.383)"><path d="M2310.036,938.532a.374.374,0,1,0,.528,0A.374.374,0,0,0,2310.036,938.532Z" transform="translate(-2309.926 -938.424)" fill="#d5e5fb"/><path d="M2317.746,946.314a.374.374,0,1,0,.528,0A.374.374,0,0,0,2317.746,946.314Z" transform="translate(-2316.418 -944.977)" fill="#d5e5fb"/><path d="M2326.085,954.2a.374.374,0,1,0,0,.528A.374.374,0,0,0,2326.085,954.2Z" transform="translate(-2322.997 -951.617)" fill="#d5e5fb"/><g transform="translate(3.682 3.716)"><path d="M2333.367,962.082a.374.374,0,1,0,.528,0A.373.373,0,0,0,2333.367,962.082Z" transform="translate(-2333.256 -961.974)" fill="#d5e5fb"/><path d="M2341.077,969.864a.374.374,0,1,0,.528,0A.374.374,0,0,0,2341.077,969.864Z" transform="translate(-2339.75 -968.528)" fill="#d5e5fb"/><path d="M2349.417,977.75a.374.374,0,1,0,0,.528A.374.374,0,0,0,2349.417,977.75Z" transform="translate(-2346.328 -975.167)" fill="#d5e5fb"/></g></g></g><g transform="translate(0 20.183)"><g transform="translate(2.331)"><g transform="translate(1.173)"><path d="M2168.042,916.295a.373.373,0,1,0,.28.448A.373.373,0,0,0,2168.042,916.295Z" transform="translate(-2166.805 -916.285)" fill="#d5e5fb"/><path d="M2165.585,926.97a.373.373,0,1,0,.28.448A.374.374,0,0,0,2165.585,926.97Z" transform="translate(-2164.734 -925.276)" fill="#d5e5fb"/><path d="M2163.375,938.232a.374.374,0,1,0-.447.28A.374.374,0,0,0,2163.375,938.232Z" transform="translate(-2162.637 -934.384)" fill="#d5e5fb"/></g><g transform="translate(0 5.098)"><path d="M2160.606,948.6a.374.374,0,1,0,.28.448A.373.373,0,0,0,2160.606,948.6Z" transform="translate(-2159.368 -948.59)" fill="#d5e5fb"/><path d="M2158.148,959.276a.373.373,0,1,0,.28.448A.373.373,0,0,0,2158.148,959.276Z" transform="translate(-2157.298 -957.581)" fill="#d5e5fb"/><path d="M2155.939,970.539a.373.373,0,1,0-.448.28A.373.373,0,0,0,2155.939,970.539Z" transform="translate(-2155.201 -966.69)" fill="#d5e5fb"/></g></g><g transform="translate(0 10.128)"><g transform="translate(1.174)"><path d="M2153.269,980.473a.374.374,0,1,0,.28.448A.374.374,0,0,0,2153.269,980.473Z" transform="translate(-2152.031 -980.463)" fill="#d5e5fb"/><path d="M2150.811,991.148a.374.374,0,1,0,.281.448A.374.374,0,0,0,2150.811,991.148Z" transform="translate(-2149.96 -989.454)" fill="#d5e5fb"/><path d="M2148.6,1002.412a.374.374,0,1,0-.448.28A.374.374,0,0,0,2148.6,1002.412Z" transform="translate(-2147.864 -998.563)" fill="#d5e5fb"/></g><g transform="translate(0 5.098)"><path d="M2145.832,1012.779a.374.374,0,1,0,.28.448A.374.374,0,0,0,2145.832,1012.779Z" transform="translate(-2144.594 -1012.769)" fill="#d5e5fb"/><path d="M2143.375,1023.454a.374.374,0,1,0,.281.448A.374.374,0,0,0,2143.375,1023.454Z" transform="translate(-2142.525 -1021.76)" fill="#d5e5fb"/><path d="M2141.165,1034.717a.374.374,0,1,0-.448.28A.374.374,0,0,0,2141.165,1034.717Z" transform="translate(-2140.427 -1030.868)" fill="#d5e5fb"/></g></g></g><g transform="translate(2.62)"><path d="M2173.324,796.54a8.147,8.147,0,1,0-8.146,8.146A8.147,8.147,0,0,0,2173.324,796.54Z" transform="translate(-2157.031 -788.393)" fill="#c6dcf7"/><g transform="translate(3.571 2.263)"><path d="M2197.314,805.351a2.615,2.615,0,1,0-2.615,2.615A2.615,2.615,0,0,0,2197.314,805.351Z" transform="translate(-2190.124 -802.736)" fill="#ebf3fa"/><path d="M2184.234,835.873a4.576,4.576,0,0,1,4.576,4.576h-9.151A4.576,4.576,0,0,1,2184.234,835.873Z" transform="translate(-2179.658 -830.644)" fill="#ebf3fa"/></g></g><g transform="translate(22.784 31.214)"><path d="M2292.64,988.26l-.3-.748a2.121,2.121,0,0,0-1.967-1.326H2284.8v18.621h23.038V989.72H2294.8A2.334,2.334,0,0,1,2292.64,988.26Z" transform="translate(-2284.803 -986.186)" fill="#c6dcf7"/><g transform="translate(6.844 5.652)"><path d="M2336.291,1024.849h-.771a2.178,2.178,0,0,0,.035-.385v-.263a2.2,2.2,0,0,0-2.2-2.2H2332a2.2,2.2,0,0,0-2.2,2.2v.263a2.2,2.2,0,0,0,.034.385h-.856a.81.81,0,0,0-.81.81v3.532a3.62,3.62,0,0,0,3.62,3.62h2.137a3.4,3.4,0,0,0,3.4-3.4v-3.524A1.037,1.037,0,0,0,2336.291,1024.849Zm-3.284,3.555v1.641a.259.259,0,0,1-.518,0V1028.4a1.194,1.194,0,1,1,.518,0Zm1.668-3.94a1.314,1.314,0,0,1-.058.385h-3.879a1.314,1.314,0,0,1-.058-.385v-.263a1.322,1.322,0,0,1,1.321-1.321h1.353a1.323,1.323,0,0,1,1.322,1.321Z" transform="translate(-2328.169 -1022)" fill="#ebf3fa"/></g></g></g><path d="M2087.566,1070.25c0,4.161,7.046,11.755,7.046,11.755s7.044-7.595,7.044-11.755a7.061,7.061,0,1,0-14.09,0Zm2.958-.763a4.088,4.088,0,1,1,4.088,4.088A4.088,4.088,0,0,1,2090.524,1069.486Z" transform="translate(-2087.566 -1019.428)" fill="#c6dcf7"/></g><g transform="translate(315.274 284.138)"><path d="M1055.961,1084.82c-.174-.719.141-1.282.807-1.283a1.566,1.566,0,0,1,1.42,1.28c.174.719-.137,1.282-.806,1.283A1.56,1.56,0,0,1,1055.961,1084.82Zm1.661,0c-.109-.449-.413-.789-.742-.789s-.464.33-.353.79.41.789.742.789S1057.732,1085.274,1057.621,1084.818Z" transform="translate(-1045.705 -1065.612)" fill="#f99746"/><path d="M991.857,970.706l-.411.107-.223-.446.668-.214h.376l.6,2.5h-.544Z" transform="translate(-991.224 -970.121)" fill="#2f539b"/><path d="M1007.361,971.255c-.174-.719.141-1.282.806-1.283a1.566,1.566,0,0,1,1.42,1.28c.174.719-.137,1.282-.806,1.283A1.56,1.56,0,0,1,1007.361,971.255Zm1.661,0c-.109-.45-.413-.789-.742-.789s-.464.33-.353.79.41.789.742.788S1009.132,971.708,1009.022,971.252Z" transform="translate(-1004.775 -969.968)" fill="#2f539b"/><path d="M1081.709,1189.757c-.174-.719.141-1.282.806-1.283a1.567,1.567,0,0,1,1.42,1.28c.174.719-.137,1.282-.807,1.283A1.559,1.559,0,0,1,1081.709,1189.757Zm1.661,0c-.109-.45-.413-.789-.743-.789s-.464.33-.353.79.41.789.743.789S1083.48,1190.211,1083.369,1189.755Z" transform="translate(-1067.389 -1153.99)" fill="#2f539b"/><path d="M1009.749,1044.6l-.411.107-.222-.446.668-.213h.376l.6,2.5h-.544Z" transform="translate(-1006.292 -1032.354)" fill="#2f539b"/><path d="M1025.252,1045.146c-.174-.719.141-1.282.807-1.283a1.567,1.567,0,0,1,1.42,1.28c.174.718-.137,1.282-.807,1.283A1.56,1.56,0,0,1,1025.252,1045.146Zm1.661,0c-.109-.449-.413-.789-.743-.788s-.464.33-.353.791.409.789.742.788S1027.024,1045.6,1026.913,1045.144Z" transform="translate(-1019.843 -1032.199)" fill="#2f539b"/><path d="M1020.054,1007.426l-.411.107-.223-.446.668-.214h.376l.6,2.5h-.544Z" transform="translate(-1014.971 -1001.047)" fill="#f99746"/><path d="M1035.559,1007.974c-.174-.719.141-1.282.807-1.283a1.567,1.567,0,0,1,1.42,1.28c.174.718-.137,1.282-.807,1.283A1.56,1.56,0,0,1,1035.559,1007.974Zm1.661,0c-.109-.45-.413-.789-.742-.788s-.464.33-.353.79.409.789.743.789S1037.33,1008.428,1037.219,1007.972Z" transform="translate(-1028.522 -1000.893)" fill="#f99746"/><path d="M1019.364,1084.308l-.411.107-.223-.446.668-.214h.376l.6,2.5h-.544Z" transform="translate(-1014.389 -1065.796)" fill="#2f539b"/><path d="M1034.868,1084.856c-.174-.719.141-1.282.806-1.284a1.567,1.567,0,0,1,1.42,1.28c.174.719-.137,1.282-.807,1.283A1.56,1.56,0,0,1,1034.868,1084.856Zm1.661,0c-.109-.45-.413-.789-.742-.789s-.464.33-.353.79.41.789.742.789S1036.639,1085.309,1036.528,1084.853Z" transform="translate(-1027.94 -1065.642)" fill="#2f539b"/><path d="M1067.2,971.236c-.174-.719.141-1.282.806-1.283a1.567,1.567,0,0,1,1.42,1.28c.174.719-.137,1.282-.807,1.283A1.559,1.559,0,0,1,1067.2,971.236Zm1.661,0c-.109-.45-.413-.789-.742-.789s-.464.33-.353.791.41.789.742.788S1068.969,971.69,1068.859,971.234Z" transform="translate(-1055.169 -969.953)" fill="#f99746"/><path d="M1030.6,970.724l-.411.107-.222-.446.668-.213h.376l.6,2.5h-.544Z" transform="translate(-1023.854 -970.137)" fill="#2f539b"/><path d="M1046.1,971.273c-.174-.719.141-1.282.807-1.284a1.567,1.567,0,0,1,1.42,1.28c.174.719-.137,1.282-.806,1.283A1.56,1.56,0,0,1,1046.1,971.273Zm1.661,0c-.109-.45-.413-.789-.742-.789s-.464.33-.353.791.41.789.743.789S1047.876,971.726,1047.765,971.27Z" transform="translate(-1037.404 -969.983)" fill="#2f539b"/><path d="M1074.331,1161.526c-.174-.719.141-1.282.806-1.283a1.566,1.566,0,0,1,1.42,1.28c.174.719-.137,1.283-.806,1.283A1.56,1.56,0,0,1,1074.331,1161.526Zm1.661,0c-.109-.449-.413-.789-.742-.788s-.464.33-.353.79.409.789.742.789S1076.1,1161.979,1075.991,1161.522Z" transform="translate(-1061.176 -1130.213)" fill="#f99746"/><path d="M1028.119,1121.3l-.411.107-.222-.446.668-.214h.376l.6,2.5h-.544Z" transform="translate(-1021.763 -1096.953)" fill="#2f539b"/><path d="M1043.623,1121.851c-.174-.719.141-1.282.807-1.283a1.567,1.567,0,0,1,1.42,1.28c.174.719-.137,1.282-.806,1.283A1.56,1.56,0,0,1,1043.623,1121.851Zm1.661,0c-.109-.45-.413-.789-.742-.789s-.464.33-.353.79.41.789.742.788S1045.394,1122.305,1045.283,1121.849Z" transform="translate(-1035.314 -1096.8)" fill="#2f539b"/><path d="M1064.716,1121.816c-.174-.719.141-1.282.806-1.283a1.566,1.566,0,0,1,1.42,1.28c.174.718-.137,1.282-.806,1.283A1.56,1.56,0,0,1,1064.716,1121.816Zm1.661,0c-.109-.449-.413-.789-.742-.789s-.464.33-.353.791.41.789.742.788S1066.487,1122.27,1066.376,1121.813Z" transform="translate(-1053.078 -1096.77)" fill="#2f539b"/><path d="M1084.3,1121.208l-.411.107-.222-.446.668-.214h.376l.6,2.5h-.544Z" transform="translate(-1069.077 -1096.873)" fill="#2f539b"/><path d="M1037.733,1161.012l-.411.107-.222-.446.668-.214h.376l.6,2.5h-.544Z" transform="translate(-1029.86 -1130.395)" fill="#2f539b"/><path d="M1053.238,1161.56c-.174-.719.141-1.282.806-1.283a1.567,1.567,0,0,1,1.42,1.28c.174.719-.137,1.282-.807,1.283A1.56,1.56,0,0,1,1053.238,1161.56Zm1.661,0c-.109-.45-.413-.789-.743-.788s-.464.33-.353.79.41.789.742.788S1055.009,1162.014,1054.9,1161.558Z" transform="translate(-1043.411 -1130.242)" fill="#2f539b"/><path d="M1092.982,1249.571c-.174-.719.141-1.282.806-1.283a1.566,1.566,0,0,1,1.42,1.28c.174.719-.137,1.282-.806,1.283A1.56,1.56,0,0,1,1092.982,1249.571Zm1.661,0c-.109-.449-.413-.789-.742-.789s-.464.33-.353.79.41.789.742.789S1094.753,1250.025,1094.643,1249.569Z" transform="translate(-1076.884 -1204.364)" fill="#2f539b"/><path d="M1112.564,1248.964l-.411.107-.222-.446.668-.214h.376l.6,2.5h-.544Z" transform="translate(-1092.882 -1204.468)" fill="#2f539b"/><path d="M1056.385,1249.059l-.411.107-.222-.446.668-.214h.376l.6,2.5h-.544Z" transform="translate(-1045.569 -1204.548)" fill="#2f539b"/><path d="M1071.889,1249.607c-.174-.719.141-1.282.807-1.284a1.567,1.567,0,0,1,1.42,1.28c.174.719-.137,1.282-.806,1.283A1.56,1.56,0,0,1,1071.889,1249.607Zm1.661,0c-.109-.45-.413-.789-.742-.789s-.464.33-.353.79.409.789.742.788S1073.661,1250.06,1073.55,1249.6Z" transform="translate(-1059.12 -1204.393)" fill="#2f539b"/><path d="M1128.069,1249.512c-.174-.719.141-1.282.807-1.284a1.567,1.567,0,0,1,1.42,1.28c.174.719-.137,1.282-.806,1.284A1.56,1.56,0,0,1,1128.069,1249.512Zm1.661,0c-.109-.45-.413-.789-.742-.789s-.464.33-.353.79.41.789.742.789S1129.841,1249.965,1129.73,1249.509Z" transform="translate(-1106.434 -1204.314)" fill="#f99746"/><path d="M1149.162,1249.476c-.174-.719.141-1.282.806-1.283a1.567,1.567,0,0,1,1.42,1.28c.174.719-.137,1.282-.807,1.283A1.56,1.56,0,0,1,1149.162,1249.476Zm1.661,0c-.109-.45-.413-.789-.743-.789s-.464.33-.353.79.41.789.742.788S1150.933,1249.93,1150.823,1249.474Z" transform="translate(-1124.198 -1204.284)" fill="#f99746"/><path d="M1066.92,1277.894c-.174-.719.141-1.282.807-1.283a1.566,1.566,0,0,1,1.42,1.28c.174.719-.137,1.282-.806,1.284A1.561,1.561,0,0,1,1066.92,1277.894Zm1.661,0c-.109-.449-.413-.789-.742-.789s-.464.33-.353.79.409.789.742.789S1068.691,1278.347,1068.581,1277.891Z" transform="translate(-1054.935 -1228.217)" fill="#2f539b"/><path d="M1086.5,1277.286l-.411.107-.223-.446.668-.214h.376l.6,2.5h-.544Z" transform="translate(-1070.933 -1228.32)" fill="#2f539b"/><path d="M1102.008,1277.835c-.174-.719.14-1.282.806-1.283a1.566,1.566,0,0,1,1.42,1.28c.174.719-.137,1.282-.806,1.283A1.559,1.559,0,0,1,1102.008,1277.835Zm1.661,0c-.109-.45-.413-.789-.742-.789s-.464.33-.353.79.409.789.742.789S1103.779,1278.288,1103.668,1277.832Z" transform="translate(-1084.485 -1228.167)" fill="#2f539b"/><path d="M1123.1,1277.8c-.174-.719.141-1.282.806-1.283a1.566,1.566,0,0,1,1.42,1.279c.174.719-.137,1.282-.806,1.284A1.559,1.559,0,0,1,1123.1,1277.8Zm1.661,0c-.109-.45-.413-.789-.742-.788s-.464.33-.353.79.41.789.742.788S1124.871,1278.253,1124.76,1277.8Z" transform="translate(-1102.249 -1228.137)" fill="#2f539b"/><path d="M1731.1,1249.571c-.174-.719.141-1.282.806-1.283a1.566,1.566,0,0,1,1.42,1.28c.174.719-.137,1.282-.806,1.283A1.56,1.56,0,0,1,1731.1,1249.571Zm1.66,0c-.108-.449-.413-.789-.742-.789s-.464.33-.353.79.409.789.742.789S1732.869,1250.025,1732.758,1249.569Z" transform="translate(-1614.299 -1204.364)" fill="#2f539b"/><path d="M1750.681,1248.964l-.411.107-.222-.446.668-.214h.376l.6,2.5h-.544Z" transform="translate(-1630.298 -1204.468)" fill="#2f539b"/><path d="M1694.5,1249.059l-.412.107-.222-.446.668-.214h.376l.6,2.5h-.544Z" transform="translate(-1582.983 -1204.548)" fill="#2f539b"/><path d="M1710,1249.607c-.174-.719.14-1.282.806-1.284a1.567,1.567,0,0,1,1.42,1.28c.174.719-.137,1.282-.807,1.283A1.559,1.559,0,0,1,1710,1249.607Zm1.661,0c-.109-.45-.413-.789-.742-.789s-.464.33-.353.79.409.789.742.788S1711.776,1250.06,1711.665,1249.6Z" transform="translate(-1596.534 -1204.393)" fill="#2f539b"/><path d="M1766.185,1249.512c-.174-.719.141-1.282.806-1.284a1.567,1.567,0,0,1,1.42,1.28c.174.719-.137,1.282-.806,1.284A1.56,1.56,0,0,1,1766.185,1249.512Zm1.661,0c-.109-.45-.413-.789-.743-.789s-.464.33-.353.79.41.789.743.789S1767.956,1249.965,1767.846,1249.509Z" transform="translate(-1643.849 -1204.314)" fill="#f99746"/><path d="M1787.277,1249.476c-.174-.719.141-1.282.806-1.283a1.566,1.566,0,0,1,1.42,1.28c.174.719-.137,1.282-.806,1.283A1.56,1.56,0,0,1,1787.277,1249.476Zm1.661,0c-.109-.45-.413-.789-.742-.789s-.464.33-.353.79.409.789.742.788S1789.048,1249.93,1788.938,1249.474Z" transform="translate(-1661.612 -1204.284)" fill="#f99746"/><path d="M1646.743,1277.894c-.174-.719.141-1.282.806-1.283a1.566,1.566,0,0,1,1.42,1.28c.174.719-.137,1.282-.806,1.284A1.561,1.561,0,0,1,1646.743,1277.894Zm1.661,0c-.109-.449-.413-.789-.742-.789s-.464.33-.353.79.41.789.742.789S1648.514,1278.347,1648.4,1277.891Z" transform="translate(-1543.256 -1228.217)" fill="#2f539b"/><path d="M1666.325,1277.286l-.411.107-.223-.446.668-.214h.376l.6,2.5h-.544Z" transform="translate(-1559.254 -1228.32)" fill="#2f539b"/><path d="M1681.83,1277.835c-.174-.719.141-1.282.806-1.283a1.567,1.567,0,0,1,1.42,1.28c.174.719-.137,1.282-.806,1.283A1.56,1.56,0,0,1,1681.83,1277.835Zm1.661,0c-.109-.45-.413-.789-.742-.789s-.465.33-.353.79.409.789.742.789S1683.6,1278.288,1683.49,1277.832Z" transform="translate(-1572.806 -1228.167)" fill="#2f539b"/><path d="M1702.922,1277.8c-.174-.719.14-1.282.806-1.283a1.566,1.566,0,0,1,1.42,1.279c.174.719-.137,1.282-.807,1.284A1.56,1.56,0,0,1,1702.922,1277.8Zm1.661,0c-.109-.45-.413-.789-.743-.788s-.464.33-.353.79.41.789.742.788S1704.693,1278.253,1704.583,1277.8Z" transform="translate(-1590.569 -1228.137)" fill="#2f539b"/><path d="M1119.771,1352.019c-.174-.719.141-1.282.806-1.284a1.567,1.567,0,0,1,1.42,1.28c.174.719-.137,1.282-.807,1.283A1.56,1.56,0,0,1,1119.771,1352.019Zm1.661,0c-.109-.45-.413-.789-.743-.789s-.464.33-.353.79.41.789.742.789S1121.542,1352.473,1121.431,1352.017Z" transform="translate(-1099.445 -1290.645)" fill="#f99746"/><path d="M1139.354,1351.412l-.411.107-.223-.446.668-.214h.376l.6,2.5h-.544Z" transform="translate(-1115.444 -1290.749)" fill="#f99746"/><path d="M1073.559,1311.8l-.411.107-.223-.446.668-.214h.376l.6,2.5h-.544Z" transform="translate(-1060.033 -1257.386)" fill="#2f539b"/><path d="M1089.063,1312.347c-.174-.719.141-1.282.807-1.283a1.567,1.567,0,0,1,1.42,1.28c.174.719-.137,1.282-.806,1.283A1.56,1.56,0,0,1,1089.063,1312.347Zm1.661,0c-.109-.45-.413-.789-.742-.789s-.464.33-.353.791.409.789.742.788S1090.834,1312.8,1090.724,1312.344Z" transform="translate(-1073.583 -1257.234)" fill="#2f539b"/><path d="M1110.156,1312.31c-.174-.719.141-1.282.806-1.283a1.568,1.568,0,0,1,1.42,1.28c.174.719-.137,1.282-.807,1.283A1.56,1.56,0,0,1,1110.156,1312.31Zm1.661,0c-.109-.45-.413-.789-.742-.789s-.465.33-.353.79.41.789.743.788S1111.927,1312.764,1111.817,1312.308Z" transform="translate(-1091.348 -1257.202)" fill="#2f539b"/><path d="M1129.738,1311.7l-.411.107-.223-.446.668-.214h.376l.6,2.5h-.544Z" transform="translate(-1107.346 -1257.306)" fill="#2f539b"/><path d="M1691.007,1311.8l-.411.107-.222-.446.668-.214h.376l.6,2.5h-.544Z" transform="translate(-1580.041 -1257.386)" fill="#2f539b"/><path d="M1706.51,1312.347c-.174-.719.14-1.282.806-1.283a1.567,1.567,0,0,1,1.42,1.28c.174.719-.137,1.282-.806,1.283A1.56,1.56,0,0,1,1706.51,1312.347Zm1.661,0c-.109-.45-.413-.789-.742-.789s-.464.33-.353.791.409.789.742.788S1708.281,1312.8,1708.171,1312.344Z" transform="translate(-1593.591 -1257.234)" fill="#2f539b"/><path d="M1727.6,1312.31c-.174-.719.141-1.282.806-1.283a1.567,1.567,0,0,1,1.42,1.28c.174.719-.137,1.282-.806,1.283A1.56,1.56,0,0,1,1727.6,1312.31Zm1.661,0c-.109-.45-.413-.789-.742-.789s-.464.33-.353.79.409.789.742.788S1729.374,1312.764,1729.263,1312.308Z" transform="translate(-1611.355 -1257.202)" fill="#2f539b"/><path d="M1747.186,1311.7l-.411.107-.222-.446.668-.214h.376l.6,2.5h-.544Z" transform="translate(-1627.354 -1257.306)" fill="#2f539b"/><path d="M1083.175,1351.507l-.411.107-.223-.446.668-.214h.376l.6,2.5h-.544Z" transform="translate(-1068.13 -1290.829)" fill="#2f539b"/><path d="M1098.678,1352.055c-.174-.719.141-1.282.807-1.283a1.567,1.567,0,0,1,1.42,1.28c.174.719-.137,1.282-.806,1.283A1.56,1.56,0,0,1,1098.678,1352.055Zm1.661,0c-.109-.45-.413-.789-.742-.789s-.465.33-.353.79.409.789.742.789S1100.449,1352.509,1100.338,1352.053Z" transform="translate(-1081.681 -1290.675)" fill="#2f539b"/><path d="M1154.858,1351.961c-.174-.719.141-1.282.806-1.283a1.566,1.566,0,0,1,1.42,1.28c.174.719-.137,1.282-.806,1.283A1.56,1.56,0,0,1,1154.858,1351.961Zm1.661,0c-.109-.45-.413-.789-.742-.789s-.464.33-.353.791.41.789.742.788S1156.629,1352.415,1156.518,1351.959Z" transform="translate(-1128.995 -1290.596)" fill="#2f539b"/><path d="M1175.95,1351.926c-.174-.719.141-1.282.807-1.283a1.567,1.567,0,0,1,1.42,1.28c.174.719-.137,1.282-.807,1.283A1.561,1.561,0,0,1,1175.95,1351.926Zm1.661,0c-.109-.45-.413-.789-.743-.789s-.464.33-.353.79.409.789.742.789S1177.721,1352.38,1177.611,1351.924Z" transform="translate(-1146.759 -1290.567)" fill="#2f539b"/><path d="M1127.9,1380.056c-.174-.719.141-1.282.806-1.284a1.567,1.567,0,0,1,1.42,1.28c.174.719-.137,1.282-.806,1.283A1.559,1.559,0,0,1,1127.9,1380.056Zm1.661,0c-.109-.45-.413-.789-.742-.789s-.465.33-.353.79.409.789.742.789S1129.675,1380.509,1129.564,1380.053Z" transform="translate(-1106.294 -1314.256)" fill="#f99746"/><path d="M1147.486,1379.449l-.411.107-.222-.446.668-.214h.376l.6,2.5h-.544Z" transform="translate(-1122.293 -1314.361)" fill="#f99746"/><path d="M1106.811,1380.092c-.174-.719.14-1.282.806-1.283a1.566,1.566,0,0,1,1.42,1.28c.174.719-.137,1.282-.806,1.283A1.56,1.56,0,0,1,1106.811,1380.092Zm1.661,0c-.109-.45-.413-.789-.742-.789s-.465.33-.353.79.409.789.742.788S1108.583,1380.546,1108.472,1380.09Z" transform="translate(-1088.531 -1314.288)" fill="#2f539b"/><path d="M1162.991,1380c-.174-.719.141-1.282.806-1.283a1.566,1.566,0,0,1,1.42,1.279c.174.719-.137,1.282-.807,1.284A1.56,1.56,0,0,1,1162.991,1380Zm1.661,0c-.109-.45-.413-.789-.742-.788s-.464.33-.353.79.41.789.743.788S1164.762,1380.451,1164.652,1379.995Z" transform="translate(-1135.845 -1314.208)" fill="#2f539b"/><path d="M1184.083,1379.961c-.174-.718.141-1.282.806-1.283a1.566,1.566,0,0,1,1.42,1.279c.174.719-.137,1.283-.806,1.283A1.56,1.56,0,0,1,1184.083,1379.961Zm1.661,0c-.109-.45-.413-.789-.742-.789s-.464.33-.353.791.409.789.742.789S1185.854,1380.415,1185.743,1379.959Z" transform="translate(-1153.608 -1314.177)" fill="#2f539b"/><path d="M1256.659,1380.056c-.174-.719.141-1.282.807-1.284a1.567,1.567,0,0,1,1.42,1.28c.174.719-.137,1.282-.806,1.283A1.56,1.56,0,0,1,1256.659,1380.056Zm1.661,0c-.109-.45-.413-.789-.742-.789s-.464.33-.353.79.409.789.742.789S1258.43,1380.509,1258.32,1380.053Z" transform="translate(-1214.731 -1314.256)" fill="#f99746"/><path d="M1276.241,1379.449l-.411.107-.222-.446.668-.214h.376l.6,2.5h-.544Z" transform="translate(-1230.729 -1314.361)" fill="#f99746"/><path d="M1235.566,1380.092c-.174-.719.141-1.282.807-1.283a1.566,1.566,0,0,1,1.42,1.28c.174.719-.137,1.282-.806,1.283A1.56,1.56,0,0,1,1235.566,1380.092Zm1.661,0c-.109-.45-.413-.789-.742-.789s-.465.33-.353.79.41.789.743.788S1237.337,1380.546,1237.227,1380.09Z" transform="translate(-1196.967 -1314.288)" fill="#2f539b"/><path d="M1291.746,1380c-.174-.719.141-1.282.806-1.283a1.566,1.566,0,0,1,1.42,1.279c.174.719-.137,1.282-.807,1.284A1.56,1.56,0,0,1,1291.746,1380Zm1.661,0c-.109-.45-.413-.789-.743-.788s-.464.33-.353.79.41.789.742.788S1293.517,1380.451,1293.407,1379.995Z" transform="translate(-1244.281 -1314.208)" fill="#2f539b"/><path d="M1312.839,1379.961c-.174-.718.141-1.282.806-1.283a1.566,1.566,0,0,1,1.42,1.279c.174.719-.137,1.283-.806,1.283A1.56,1.56,0,0,1,1312.839,1379.961Zm1.661,0c-.109-.45-.413-.789-.742-.789s-.464.33-.353.791.409.789.742.789S1314.61,1380.415,1314.5,1379.959Z" transform="translate(-1262.045 -1314.177)" fill="#2f539b"/><path d="M1549.792,1380.056c-.174-.719.141-1.282.807-1.284a1.567,1.567,0,0,1,1.42,1.28c.174.719-.137,1.282-.806,1.283A1.56,1.56,0,0,1,1549.792,1380.056Zm1.661,0c-.109-.45-.413-.789-.742-.789s-.464.33-.353.79.41.789.742.789S1551.563,1380.509,1551.452,1380.053Z" transform="translate(-1461.604 -1314.256)" fill="#f99746"/><path d="M1569.374,1379.449l-.411.107-.223-.446.668-.214h.376l.6,2.5h-.544Z" transform="translate(-1477.603 -1314.361)" fill="#f99746"/><path d="M1528.7,1380.092c-.174-.719.141-1.282.806-1.283a1.567,1.567,0,0,1,1.42,1.28c.174.719-.137,1.282-.807,1.283A1.56,1.56,0,0,1,1528.7,1380.092Zm1.661,0c-.109-.45-.413-.789-.742-.789s-.465.33-.353.79.41.789.742.788S1530.47,1380.546,1530.36,1380.09Z" transform="translate(-1443.84 -1314.288)" fill="#2f539b"/><path d="M1584.878,1380c-.174-.719.141-1.282.806-1.283a1.567,1.567,0,0,1,1.42,1.279c.174.719-.137,1.282-.806,1.284A1.56,1.56,0,0,1,1584.878,1380Zm1.661,0c-.109-.45-.413-.789-.742-.788s-.464.33-.353.79.409.789.742.788S1586.65,1380.451,1586.539,1379.995Z" transform="translate(-1491.154 -1314.208)" fill="#2f539b"/><path d="M1605.971,1379.961c-.174-.718.141-1.282.806-1.283a1.566,1.566,0,0,1,1.42,1.279c.174.719-.137,1.283-.806,1.283A1.56,1.56,0,0,1,1605.971,1379.961Zm1.661,0c-.109-.45-.413-.789-.742-.789s-.464.33-.353.791.409.789.742.789S1607.742,1380.415,1607.631,1379.959Z" transform="translate(-1508.918 -1314.177)" fill="#2f539b"/><path d="M1678.547,1380.056c-.174-.719.141-1.282.806-1.284a1.567,1.567,0,0,1,1.42,1.28c.174.719-.137,1.282-.806,1.283A1.559,1.559,0,0,1,1678.547,1380.056Zm1.661,0c-.109-.45-.413-.789-.742-.789s-.464.33-.353.79.409.789.742.789S1680.318,1380.509,1680.208,1380.053Z" transform="translate(-1570.041 -1314.256)" fill="#f99746"/><path d="M1698.129,1379.449l-.411.107-.222-.446.668-.214h.376l.6,2.5h-.544Z" transform="translate(-1586.04 -1314.361)" fill="#f99746"/><path d="M1657.454,1380.092c-.174-.719.141-1.282.806-1.283a1.567,1.567,0,0,1,1.42,1.28c.174.719-.137,1.282-.807,1.283A1.56,1.56,0,0,1,1657.454,1380.092Zm1.661,0c-.109-.45-.413-.789-.742-.789s-.464.33-.353.79.41.789.742.788S1659.225,1380.546,1659.115,1380.09Z" transform="translate(-1552.277 -1314.288)" fill="#2f539b"/><path d="M1713.634,1380c-.174-.719.141-1.282.806-1.283a1.566,1.566,0,0,1,1.42,1.279c.174.719-.137,1.282-.806,1.284A1.56,1.56,0,0,1,1713.634,1380Zm1.661,0c-.109-.45-.413-.789-.742-.788s-.464.33-.353.79.409.789.742.788S1715.4,1380.451,1715.294,1379.995Z" transform="translate(-1599.591 -1314.208)" fill="#2f539b"/><path d="M1734.726,1379.961c-.174-.718.14-1.282.806-1.283a1.566,1.566,0,0,1,1.42,1.279c.174.719-.137,1.283-.806,1.283A1.56,1.56,0,0,1,1734.726,1379.961Zm1.661,0c-.109-.45-.413-.789-.742-.789s-.464.33-.353.791.409.789.742.789S1736.5,1380.415,1736.387,1379.959Z" transform="translate(-1617.355 -1314.177)" fill="#2f539b"/><path d="M1197.043,1351.889c-.174-.719.141-1.282.807-1.283a1.567,1.567,0,0,1,1.42,1.28c.174.719-.137,1.282-.806,1.283A1.56,1.56,0,0,1,1197.043,1351.889Zm1.661,0c-.109-.45-.413-.789-.742-.789s-.465.33-.353.79.41.789.742.788S1198.814,1352.343,1198.7,1351.887Z" transform="translate(-1164.523 -1290.535)" fill="#2f539b"/><path d="M1218.136,1351.854c-.174-.719.141-1.282.806-1.283a1.567,1.567,0,0,1,1.42,1.28c.174.719-.137,1.282-.807,1.283A1.56,1.56,0,0,1,1218.136,1351.854Zm1.661,0c-.109-.449-.413-.789-.742-.789s-.464.33-.353.79.41.789.742.789S1219.907,1352.308,1219.8,1351.852Z" transform="translate(-1182.287 -1290.506)" fill="#2f539b"/><path d="M1603.718,1351.889c-.174-.719.14-1.282.806-1.283a1.567,1.567,0,0,1,1.42,1.28c.174.719-.137,1.282-.806,1.283A1.56,1.56,0,0,1,1603.718,1351.889Zm1.66,0c-.109-.45-.413-.789-.742-.789s-.464.33-.353.79.41.789.743.788S1605.489,1352.343,1605.379,1351.887Z" transform="translate(-1507.021 -1290.535)" fill="#2f539b"/><path d="M1624.811,1351.854c-.174-.719.141-1.282.806-1.283a1.566,1.566,0,0,1,1.42,1.28c.174.719-.137,1.282-.806,1.283A1.56,1.56,0,0,1,1624.811,1351.854Zm1.661,0c-.109-.449-.413-.789-.742-.789s-.465.33-.353.79.409.789.742.789S1626.583,1352.308,1626.472,1351.852Z" transform="translate(-1524.786 -1290.506)" fill="#2f539b"/></g></g></g></svg>