<svg xmlns="http://www.w3.org/2000/svg" width="353.24" height="329.778" viewBox="0 0 353.24 329.778"><g transform="translate(-236.761 -450.103)"><ellipse cx="176.62" cy="101.972" rx="176.62" ry="101.972" transform="translate(236.761 575.938)" fill="#bee7ed"/><g transform="translate(-282.017 -6118.341)"><g transform="translate(599.67 6568.443)"><path d="M426.406,304.208c-17.935,14.4-79.666,22.631-79.666,22.631s-5.439-41.256,12.5-55.659,33.915-5.613,52.46,3.506S444.346,289.8,426.406,304.208Z" transform="translate(-261.242 -51.48)" fill="#92b4d1" opacity="0.2"/><path d="M496.374,316.679C466.353,299.693,437,270.718,412.4,233.8l-.33-.192c-24.6,8.509-53.953,3.591-83.974-14.091l-1.149-.673,1.622,56.091c5.7,86.954,35.354,124.8,83.088,205.64l1.158.673c47.734-25.722,77.39-29.326,83.088-109.7l1.622-54.224Z" transform="translate(-326.947 -205.94)" fill="#a8cff0"/><path d="M513.062,313.782c-30.026-16.982-59.374-45.956-83.978-82.874l-.33-.192c-24.6,8.509-53.953,3.591-83.974-14.091l-1.149-.677-16.612,13.093.828.486c30.021,17.681,59.374,22.6,83.974,14.091l.33.192c24.6,36.917,53.953,65.892,83.979,82.878l1.145.646-1.622,54.224c-3.715,52.46-17.65,72.209-40.143,86.754,28.106-16.6,52.9-40.691,57.076-99.655l1.621-54.224Z" transform="translate(-326.698 -215.949)" fill="#d1ebff"/><path d="M448.441,302.98l-1.145-.65c-30.026-16.982-59.374-45.956-83.978-82.874l-.33-.192-16.933,12.9.33.192c24.6,36.917,53.953,65.892,83.978,82.878l1.145.646Z" transform="translate(-260.932 -204.496)" fill="#d1ebff"/><path d="M397.626,250.957,396,305.182c-3.715,52.46-17.65,72.209-40.143,86.754,28.106-16.6,52.9-40.691,57.076-99.655l1.621-54.224Z" transform="translate(-227.05 -139.573)" fill="#72b5e8"/><path d="M388.741,408.266c-34.253-56.813-51.48-85.391-55.632-147.745l-.949-32.734c21.989,9.943,43.074,13.115,62.065,9.333,18.991,25.709,40.071,46.883,62.06,62.332l-.944,31.638c-4.156,57.566-21.383,66.253-55.637,83.519q-2.693,1.357-5.479,2.771Q391.425,412.737,388.741,408.266Z" transform="translate(-308.937 -175.051)" fill="#084c94"/><path d="M402.506,412.133c-1.791.909-3.613,1.826-5.475,2.771q-2.8-4.644-5.488-9.11c-34.249-56.813-51.476-85.395-55.632-147.75l-.838-28.992c-.971-.414-1.938-.824-2.913-1.265l.949,32.734c4.152,62.355,21.379,90.932,55.632,147.745q2.686,4.464,5.484,9.115,2.793-1.417,5.479-2.771c13.975-7.047,25.112-12.665,33.688-20.755C425.235,400.667,415.011,405.834,402.506,412.133Z" transform="translate(-308.937 -175.051)" fill="#001a46"/><path d="M496.577,315.913c-30.021-16.986-59.374-45.956-83.974-82.874l-.334-.192c-24.6,8.509-53.953,3.591-83.974-14.091l-1.1,1.158c29.968,17.606,59.263,22.5,83.823,14l.329.192c24.6,36.917,53.953,65.892,83.974,82.878l1.149.646-1.622,54.224c-3.087,43.533-13.2,64.542-29.411,78.744,16.937-14.22,27.5-35.175,30.663-79.813l1.617-54.224Z" transform="translate(-326.076 -206.248)" fill="#fff"/></g><g transform="translate(583.484 6747.288)"><path d="M450.164,324.656l-31.946-18.387c-3.324-1.92-2.908-5.271.93-7.488h0c3.838-2.216,16.538-2.228,19.862-.31l28.323,16.344c5.1,3.012.051,7.145-4.2,9.3h0C459.3,326.335,453.489,326.576,450.164,324.656Z" transform="translate(-415.974 -242.315)" fill="#92b4d1" opacity="0.2"/><path d="M462.5,293.673l-46.19-17.225V310.7a3.015,3.015,0,0,0,1.8,2.984l31.235,18.09c2.706,1.562,7.432,1.366,10.556-.438h0c1.653-.954,2.525-2.166,2.582-3.33l.015.007Z" transform="translate(-415.858 -249.951)" fill="#a8cff0"/><path d="M449.346,298.648l-31.235-18.089c-2.7-1.562-2.366-4.292.758-6.095h0c3.124-1.8,7.852-2,10.556-.439l31.235,18.09c2.706,1.562,2.366,4.29-.758,6.095h0C456.779,300.014,452.052,300.21,449.346,298.648Z" transform="translate(-415.859 -251.238)" fill="#d1ebff"/><path d="M459.9,296.5c-3.124,1.8-7.85,2-10.556.437l-31.235-18.09a3.227,3.227,0,0,1-1.807-2.414,3.026,3.026,0,0,0,1.807,2.942l31.235,18.09c2.706,1.561,7.432,1.366,10.556-.438,1.821-1.051,2.688-2.414,2.566-3.68A4.594,4.594,0,0,1,459.9,296.5Z" transform="translate(-415.858 -249.958)" fill="#fff"/><g transform="translate(7.006)"><path d="M440.7,258.877h0a13.084,13.084,0,0,0-19.616,11.337v14.192h0l0,.021c0,1.391,1.922,2.512,4.3,2.512s4.294-1.121,4.294-2.5c0-.016,0-.032,0-.049h.047v-12.34a5.545,5.545,0,0,1,8.306-4.808h0a13.827,13.827,0,0,1,6.939,11.99v18.923h.045c.048,1.358,1.949,2.45,4.292,2.45,2.358,0,4.27-1.106,4.293-2.476h0V281.184A25.743,25.743,0,0,0,440.7,258.877Z" transform="translate(-421.087 -257.111)" fill="#084c94"/><g transform="translate(18.563 7.918)"><path d="M435.434,263.291a7.655,7.655,0,0,0-.8-.4,15.077,15.077,0,0,1,6.653,12.477v22.2a5.21,5.21,0,0,0,1.677.615V276.315A15.068,15.068,0,0,0,435.434,263.291Z" transform="translate(-434.634 -262.889)" fill="#2672ab"/></g><g transform="translate(3.565 6.042)"><path d="M430.764,261.52a7.038,7.038,0,0,0-7.031,7.031v14.821l-.044,1.537a6.03,6.03,0,0,0,2.462-.295l.044-1.537V268.255a7.041,7.041,0,0,1,4.969-6.721C431.031,261.525,430.9,261.52,430.764,261.52Z" transform="translate(-423.689 -261.52)" fill="#03336e"/></g><path d="M435.547,259.715a13.593,13.593,0,0,1,6.388,1.6,24.267,24.267,0,0,0-2.368-1.559,11.439,11.439,0,0,0-5.774-1.569,11.654,11.654,0,0,0-11.628,11.627v.033A14.041,14.041,0,0,1,435.547,259.715Z" transform="translate(-420.688 -256.711)" fill="#2672ab"/><path d="M442.394,278.312l0,16.606a5.3,5.3,0,0,0,2.15-.747,1.415,1.415,0,0,0,.148-.582V276.65C444.69,269.326,442.394,270.848,442.394,278.312Z" transform="translate(-413.199 -251.645)" fill="#03336e"/></g><path d="M435.672,298.266a9.329,9.329,0,0,0-4.234-7.3c-2.339-1.351-4.235-.27-4.235,2.414a9.213,9.213,0,0,0,2.142,5.458v8.5l4.188,2.419v-8.5C434.809,301.152,435.672,300.075,435.672,298.266Z" transform="translate(-411.816 -244.793)" fill="#084c94"/><path d="M430.075,307.008v-8.5a9.208,9.208,0,0,1-2.142-5.458,3.023,3.023,0,0,1,1.111-2.631c-1.113.234-1.842,1.28-1.842,2.945a9.213,9.213,0,0,0,2.142,5.458v8.5l4.188,2.419V309Z" transform="translate(-411.816 -244.779)" fill="#001a46"/></g><g transform="translate(558.077 6631.963)"><path d="M410.422,208.713l-41.383-23.241c-2.265-1.307-1.98-3.591.634-5.1h0c2.615-1.51,11.265-1.518,13.529-.211l38.915,21.847c3.476,2.051.036,4.867-2.86,6.337h0C416.641,209.856,412.687,210.02,410.422,208.713Z" transform="translate(-361.293 -139.428)" fill="#92b4d1" opacity="0.2"/><path d="M413.294,220.3l-45.613-26.376c-2.6-1.5-4.708-5.528-4.708-8.994V155.126c0-3.467,2.107-5.06,4.708-3.559l45.613,26.375c2.6,1.5,4.707,5.529,4.707,9v29.806C418,220.21,415.893,221.8,413.294,220.3Z" transform="translate(-362.973 -149.871)" fill="#a8cff0"/><path d="M413.185,195.559l-44.9-25.957A8.006,8.006,0,0,1,364.9,162.9v-7.747a.834.834,0,0,1,1.257-.718l.147.085,44.95,25.995c2.491,1.436,3.387,3.987,3.387,6.706v7.624a.9.9,0,0,1-1.347.781Z" transform="translate(-362.258 -148.645)" fill="#084c94"/><path d="M413.185,209.943l-44.9-25.957a8.006,8.006,0,0,1-3.386-6.706v-7.747a.834.834,0,0,1,1.257-.718l.147.085,44.95,25.995c2.491,1.436,3.387,3.987,3.387,6.706v7.624a.9.9,0,0,1-1.347.781Z" transform="translate(-362.258 -143.319)" fill="#084c94"/><path d="M414.048,195.005l-.11-.063-44.9-25.958a8,8,0,0,1-3.386-6.706v-7.746a.817.817,0,0,1,.029-.212.83.83,0,0,0-.781.828V162.9a8.006,8.006,0,0,0,3.386,6.706l44.9,25.957.111.063a.9.9,0,0,0,1.3-.51A.88.88,0,0,1,414.048,195.005Z" transform="translate(-362.258 -148.643)" fill="#001a46"/><path d="M414.048,209.389l-.11-.063-44.9-25.958a8,8,0,0,1-3.386-6.706v-7.746a.817.817,0,0,1,.029-.212.83.83,0,0,0-.781.828v7.747a8.006,8.006,0,0,0,3.386,6.706l44.9,25.957.111.063a.9.9,0,0,0,1.3-.51A.88.88,0,0,1,414.048,209.389Z" transform="translate(-362.258 -143.317)" fill="#001a46"/><path d="M415.03,177.117l-45.613-26.376a3.187,3.187,0,0,0-2.756-.4c-.1.038-2.294,1.158-2.386,1.209l-.005,0a3.081,3.081,0,0,1,2.93.325l45.613,26.375c2.6,1.5,4.708,5.529,4.708,9v29.806c0,2.164-.822,3.6-2.07,4a.788.788,0,0,0,.412-.14c.059-.034,2.366-1.261,2.424-1.3a4.349,4.349,0,0,0,1.451-3.7V186.112C419.739,182.645,417.63,178.618,415.03,177.117Z" transform="translate(-362.492 -150.177)" fill="#3f92d1"/><path d="M415.03,177.117l-45.613-26.376a3.187,3.187,0,0,0-2.756-.4c-.1.038-2.294,1.158-2.386,1.209l-.005,0a3.081,3.081,0,0,1,2.93.325l45.613,26.375Z" transform="translate(-362.492 -150.177)" fill="#4f9fdb"/><path d="M412.953,177.859l-45.614-26.376a3.123,3.123,0,0,0-2.835-.362,3.475,3.475,0,0,1,2.271.532l45.613,26.376c2.6,1.5,4.708,5.528,4.708,8.994v29.806c0,2.046-.737,3.431-1.872,3.922,1.453-.23,2.436-1.722,2.436-4.092v-29.8C417.66,183.388,415.553,179.361,412.953,177.859Z" transform="translate(-362.406 -149.9)" fill="#fff" style="mix-blend-mode:screen;isolation:isolate"/><g transform="translate(10.495 33.974)"><path d="M392,189.393a6.252,6.252,0,0,0,2.838,4.9c1.569.906,2.839.181,2.839-1.618a6.252,6.252,0,0,0-2.839-4.9C393.274,186.871,392,187.6,392,189.393Z" transform="translate(-362.719 -170.375)" fill="#001a46"/><path d="M386.661,186.291a6.258,6.258,0,0,0,2.839,4.9c1.568.9,2.838.179,2.838-1.618a6.252,6.252,0,0,0-2.838-4.9C387.933,183.767,386.661,184.492,386.661,186.291Z" transform="translate(-364.697 -171.524)" fill="#001a46"/><path d="M381.318,183.187a6.256,6.256,0,0,0,2.839,4.9c1.568.9,2.838.181,2.838-1.618a6.252,6.252,0,0,0-2.838-4.9C382.59,180.663,381.318,181.388,381.318,183.187Z" transform="translate(-366.676 -172.673)" fill="#001a46"/><path d="M375.975,180.082a6.254,6.254,0,0,0,2.839,4.9c1.568.906,2.838.181,2.838-1.618a6.255,6.255,0,0,0-2.838-4.9C377.247,177.56,375.975,178.285,375.975,180.082Z" transform="translate(-368.654 -173.822)" fill="#001a46"/><path d="M370.632,176.98a6.258,6.258,0,0,0,2.839,4.9c1.568.9,2.838.18,2.838-1.618a6.252,6.252,0,0,0-2.838-4.9C371.9,174.456,370.632,175.181,370.632,176.98Z" transform="translate(-370.632 -174.971)" fill="#001a46"/></g><g transform="translate(9.616 34.033)"><path d="M391.363,189.437a6.253,6.253,0,0,0,2.838,4.9c1.568.906,2.839.181,2.839-1.618a6.256,6.256,0,0,0-2.839-4.9C392.633,186.914,391.363,187.637,391.363,189.437Z" transform="translate(-362.078 -170.417)" fill="#a8cff0"/><path d="M386.02,186.332a6.253,6.253,0,0,0,2.838,4.9c1.569.906,2.839.181,2.839-1.618a6.255,6.255,0,0,0-2.839-4.9C387.29,183.81,386.02,184.535,386.02,186.332Z" transform="translate(-364.056 -171.566)" fill="#a8cff0"/><path d="M380.677,183.23a6.252,6.252,0,0,0,2.839,4.9c1.568.9,2.838.18,2.838-1.618a6.252,6.252,0,0,0-2.838-4.9C381.947,180.706,380.677,181.431,380.677,183.23Z" transform="translate(-366.034 -172.716)" fill="#a8cff0"/><path d="M375.334,180.126a6.256,6.256,0,0,0,2.839,4.9c1.568.906,2.838.181,2.838-1.618a6.255,6.255,0,0,0-2.838-4.9C376.606,177.6,375.334,178.327,375.334,180.126Z" transform="translate(-368.013 -173.865)" fill="#a8cff0"/><path d="M369.991,177.021a6.254,6.254,0,0,0,2.839,4.9c1.568.906,2.838.181,2.838-1.618a6.257,6.257,0,0,0-2.838-4.9C371.263,174.5,369.991,175.224,369.991,177.021Z" transform="translate(-369.991 -175.014)" fill="#a8cff0"/></g><g transform="translate(10.495 13.77)"><path d="M392,174.649a6.252,6.252,0,0,0,2.838,4.9c1.569.906,2.839.181,2.839-1.618a6.252,6.252,0,0,0-2.839-4.9C393.274,172.126,392,172.849,392,174.649Z" transform="translate(-362.719 -155.63)" fill="#001a46"/><path d="M386.661,171.546a6.253,6.253,0,0,0,2.839,4.895c1.568.906,2.838.181,2.838-1.618a6.257,6.257,0,0,0-2.838-4.9C387.933,169.022,386.661,169.747,386.661,171.546Z" transform="translate(-364.697 -156.779)" fill="#001a46"/><path d="M381.318,168.442a6.256,6.256,0,0,0,2.839,4.9c1.568.9,2.838.181,2.838-1.618a6.252,6.252,0,0,0-2.838-4.9C382.59,165.918,381.318,166.643,381.318,168.442Z" transform="translate(-366.676 -157.928)" fill="#001a46"/><path d="M375.975,165.338a6.254,6.254,0,0,0,2.839,4.9c1.568.906,2.838.181,2.838-1.618a6.255,6.255,0,0,0-2.838-4.9C377.247,162.815,375.975,163.538,375.975,165.338Z" transform="translate(-368.654 -159.077)" fill="#001a46"/><path d="M370.632,162.235a6.258,6.258,0,0,0,2.839,4.9c1.568.9,2.838.18,2.838-1.62a6.252,6.252,0,0,0-2.838-4.895C371.9,159.711,370.632,160.436,370.632,162.235Z" transform="translate(-370.632 -160.226)" fill="#001a46"/></g><g transform="translate(9.616 13.828)"><path d="M391.363,174.692a6.255,6.255,0,0,0,2.838,4.9c1.568.9,2.839.181,2.839-1.618a6.254,6.254,0,0,0-2.839-4.9C392.633,172.168,391.363,172.893,391.363,174.692Z" transform="translate(-362.078 -155.672)" fill="#a8cff0"/><path d="M386.02,171.588a6.252,6.252,0,0,0,2.838,4.9c1.569.906,2.839.181,2.839-1.618a6.252,6.252,0,0,0-2.839-4.9C387.29,169.065,386.02,169.788,386.02,171.588Z" transform="translate(-364.056 -156.822)" fill="#a8cff0"/><path d="M380.677,168.485a6.254,6.254,0,0,0,2.839,4.9c1.568.9,2.838.18,2.838-1.618a6.252,6.252,0,0,0-2.838-4.9C381.947,165.961,380.677,166.686,380.677,168.485Z" transform="translate(-366.034 -157.971)" fill="#a8cff0"/><path d="M375.334,165.381a6.256,6.256,0,0,0,2.839,4.9c1.568.9,2.838.181,2.838-1.618a6.253,6.253,0,0,0-2.838-4.9C376.606,162.857,375.334,163.582,375.334,165.381Z" transform="translate(-368.013 -159.12)" fill="#a8cff0"/><path d="M369.991,162.276a6.254,6.254,0,0,0,2.839,4.9c1.568.906,2.838.181,2.838-1.618a6.255,6.255,0,0,0-2.838-4.9C371.263,159.754,369.991,160.479,369.991,162.276Z" transform="translate(-369.991 -160.269)" fill="#a8cff0"/></g></g><g transform="translate(783.76 6578.185)"><path d="M592.241,259.208l-37.327-21.757c-2.6-1.5-4.707-5.528-4.707-9v-48.7c0-3.467,2.108-5.06,4.707-3.559l37.327,21.757c2.6,1.5,4.708,5.529,4.708,9v48.7C596.949,259.116,594.842,260.71,592.241,259.208Z" transform="translate(-550.207 -174.499)" fill="#a8cff0"/><path d="M592.134,255.264l-36.61-21.339a8.005,8.005,0,0,1-3.387-6.706V179.777a.835.835,0,0,1,1.258-.718l.146.085L590.2,200.52c2.491,1.436,3.386,3.987,3.386,6.707v47.317a.9.9,0,0,1-1.347.782Z" transform="translate(-549.493 -173.273)" fill="#084c94"/><path d="M593,254.709l-.11-.063-36.61-21.338a8.006,8.006,0,0,1-3.386-6.706V179.16a.819.819,0,0,1,.029-.212.831.831,0,0,0-.782.828v47.442a8.005,8.005,0,0,0,3.387,6.706l36.61,21.339.11.063a.9.9,0,0,0,1.3-.51A.878.878,0,0,1,593,254.709Z" transform="translate(-549.493 -173.271)" fill="#001a46"/><path d="M593.977,197.126,556.652,175.37a3.187,3.187,0,0,0-2.756-.4c-.1.038-2.294,1.158-2.387,1.209l0,0a3.074,3.074,0,0,1,2.928.323l37.327,21.757c2.6,1.5,4.708,5.529,4.708,9v48.7c0,2.164-.821,3.6-2.07,4.005a.78.78,0,0,0,.412-.141c.059-.034,2.368-1.261,2.424-1.3a4.346,4.346,0,0,0,1.451-3.7v-48.7C598.685,202.655,596.578,198.628,593.977,197.126Z" transform="translate(-549.726 -174.805)" fill="#3f92d1"/><path d="M593.977,197.126,556.652,175.37a3.187,3.187,0,0,0-2.756-.4c-.1.038-2.294,1.158-2.387,1.209l0,0a3.074,3.074,0,0,1,2.928.323l37.327,21.757Z" transform="translate(-549.726 -174.805)" fill="#4f9fdb"/><path d="M591.9,197.869l-37.327-21.758a3.123,3.123,0,0,0-2.835-.362,3.477,3.477,0,0,1,2.271.532l37.327,21.757c2.6,1.5,4.708,5.529,4.708,9v48.7c0,2.046-.737,3.431-1.873,3.922,1.452-.23,2.438-1.722,2.438-4.09v-48.7C596.608,203.4,594.5,199.37,591.9,197.869Z" transform="translate(-549.64 -174.528)" fill="#fff" style="mix-blend-mode:screen;isolation:isolate"/><g transform="translate(22.942 39.684)"><path d="M567.773,219.787a.913.913,0,0,1-.182-.019.823.823,0,0,1-.621-.984,63.256,63.256,0,0,0,1.447-13.868v-.328a.822.822,0,0,1,1.644,0v.328a64.927,64.927,0,0,1-1.488,14.23A.823.823,0,0,1,567.773,219.787Z" transform="translate(-566.95 -203.766)" fill="#a8cff0"/></g><g transform="translate(17.079 34.093)"><path d="M563.495,226.855a.788.788,0,0,1-.193-.025.821.821,0,0,1-.607-.992,109.6,109.6,0,0,0,2.446-22.546,4.263,4.263,0,0,1,1.374-3.423.821.821,0,1,1,1.032,1.278,2.7,2.7,0,0,0-.763,2.144,111.38,111.38,0,0,1-2.491,22.934A.821.821,0,0,1,563.495,226.855Z" transform="translate(-562.671 -199.686)" fill="#a8cff0"/></g><g transform="translate(24.198 34.224)"><path d="M573.34,209.449a.821.821,0,0,1-.821-.822,9.5,9.5,0,0,0-4.241-7.31.822.822,0,1,1,.822-1.424,11,11,0,0,1,5.062,8.734A.822.822,0,0,1,573.34,209.449Z" transform="translate(-567.866 -199.782)" fill="#a8cff0"/></g><g transform="translate(25.494 48.917)"><path d="M569.635,228.95a.805.805,0,0,1-.188-.022.822.822,0,0,1-.614-.987,163.022,163.022,0,0,0,2.894-16.71.822.822,0,0,1,1.633.188,165.05,165.05,0,0,1-2.927,16.894A.82.82,0,0,1,569.635,228.95Z" transform="translate(-568.812 -210.504)" fill="#a8cff0"/></g><g transform="translate(8.906 22.17)"><path d="M583.976,237.731a.813.813,0,0,1-.211-.027.823.823,0,0,1-.584-1.006,75.618,75.618,0,0,0,2.347-19.36v-.327c0-8.3-5.885-18.449-13.119-22.626-3.365-1.944-6.481-2.283-8.775-.959-2.272,1.311-3.523,4.138-3.523,7.961a79.725,79.725,0,0,1-1.78,17.245.822.822,0,1,1-1.606-.356,78.089,78.089,0,0,0,1.743-16.888c0-4.435,1.542-7.768,4.344-9.385,2.82-1.632,6.522-1.291,10.419.959,7.687,4.438,13.939,15.226,13.939,24.049v.327a77.23,77.23,0,0,1-2.4,19.782A.821.821,0,0,1,583.976,237.731Z" transform="translate(-556.706 -190.985)" fill="#a8cff0"/></g><g transform="translate(12.718 46.718)"><path d="M560.311,218.425a.822.822,0,0,1-.8-1.028,71.463,71.463,0,0,0,1.535-7.793.837.837,0,0,1,.929-.7.821.821,0,0,1,.7.929,73.094,73.094,0,0,1-1.569,7.972A.823.823,0,0,1,560.311,218.425Z" transform="translate(-559.489 -208.899)" fill="#a8cff0"/></g><g transform="translate(14.57 29.808)"><path d="M561.663,212.73a.7.7,0,0,1-.092-.005.822.822,0,0,1-.726-.907,90.169,90.169,0,0,0,.532-9.93,8.558,8.558,0,0,1,1.367-4.982.823.823,0,0,1,1.341.952,6.947,6.947,0,0,0-1.065,4.03A92.054,92.054,0,0,1,562.48,212,.822.822,0,0,1,561.663,212.73Z" transform="translate(-560.84 -196.558)" fill="#a8cff0"/></g><g transform="translate(18.856 27.885)"><path d="M577.965,207.709a.824.824,0,0,1-.765-.519,19.107,19.107,0,0,0-7.479-9.255,6.43,6.43,0,0,0-4.725-1,.822.822,0,1,1-.412-1.592,8.01,8.01,0,0,1,5.959,1.173,20.523,20.523,0,0,1,8.184,10.071.824.824,0,0,1-.763,1.126Z" transform="translate(-563.968 -195.155)" fill="#a8cff0"/></g><g transform="translate(29.931 44.811)"><path d="M572.872,231.581a.814.814,0,0,1-.259-.042.823.823,0,0,1-.521-1.04l.182-.545a67.777,67.777,0,0,0,3.134-21.3v-.327a.821.821,0,1,1,1.643,0v.327a69.438,69.438,0,0,1-3.216,21.813l-.182.548A.825.825,0,0,1,572.872,231.581Z" transform="translate(-572.05 -207.508)" fill="#a8cff0"/></g></g></g></g></svg>