<svg xmlns="http://www.w3.org/2000/svg" xmlns:xlink="http://www.w3.org/1999/xlink" width="152.898" height="149.413" viewBox="0 0 152.898 149.413"><defs><clipPath id="a"><rect width="142.252" height="71.644" fill="none"/></clipPath></defs><g transform="translate(48.861 0) rotate(43)"><g transform="translate(0 0)" clip-path="url(#a)"><path d="M140.736.282A142.345,142.345,0,0,1,110.114,25.2c-1.622-2.688-5.106-7.833-9.794-11.031C93.736,9.7,88.061,9.361,85.6,13.394c-1.968,4.278,1.477,8.794,8.872,11.765a33.972,33.972,0,0,0,12.244,2.035A145.328,145.328,0,0,1,89.006,35.75c-1.05-2.617-3.894-8.814-8.452-12.952-5.908-5.344-11.482-6.46-14.476-2.812-2.535,3.976.253,8.926,7.165,12.883,4.437,2.546,9.887,3.519,13.2,3.877-2.45.938-4.932,1.825-7.433,2.629-4.524,1.451-9.14,2.676-13.788,3.719-.727-2.669-2.823-9.225-6.919-13.9-5.243-5.99-10.645-7.737-14.042-4.47-2.975,3.661-.786,8.9,5.613,13.629a35.6,35.6,0,0,0,12.547,5.355A156.45,156.45,0,0,1,44.281,46.38C43.7,43.735,41.889,37,37.98,32.087c-4.979-6.212-10.291-8.21-13.826-5.1-3.154,3.52-1.194,8.852,4.99,13.87A34.863,34.863,0,0,0,40.9,46.626c-3.08.194-6.157.331-9.229.353-1.277,0-2.641-.007-3.995-.043-2.4-1.664-8.04-5.218-13.991-6.188C5.826,39.454.537,41.526,0,46.221c.024,4.717,5.053,7.359,13,6.947,5.807-.3,11.584-3,14.29-4.454a135.576,135.576,0,0,0,21.633-1.077,35.208,35.208,0,0,0-9.929,8.7c-4.656,6.46-5.158,12.12-1.19,14.687,4.236,2.093,8.849-1.237,12.014-8.542,2.439-5.635,2.462-12.45,2.354-15.262a163.621,163.621,0,0,0,21.863-4.55c-2.478,2.05-6.912,6.153-9.335,11.135C61.224,60.973,61.7,66.637,66.039,68.5c4.527,1.323,8.509-2.735,10.381-10.478,1.532-6.34.151-13.524-.4-15.912A154.724,154.724,0,0,0,96.31,34.533c-1.723,1.3-7.666,6.083-10.619,12.17-3.485,7.156-3.009,12.823,1.338,14.671,4.524,1.342,8.5-2.73,10.365-10.459C99.146,43.7,97.124,35.4,96.831,34.3q5.35-2.456,10.463-5.352c1.1-.611,2.178-1.264,3.251-1.906.359-.035.576-.066.576-.066s-.043-.077-.117-.206c2.469-1.5,4.9-3.069,7.273-4.717a32.789,32.789,0,0,0-5.41,9.825C110.5,39.465,111.814,45,116.376,46.19c4.679.634,8-3.971,8.705-11.9.54-6.145-1.6-12.633-2.6-15.251a144.847,144.847,0,0,0,19.54-17.572A.873.873,0,0,0,140.736.282" transform="translate(0 0)" fill="#246b1a"/></g></g></svg>