<svg xmlns="http://www.w3.org/2000/svg" xmlns:xlink="http://www.w3.org/1999/xlink" width="254.072" height="175" viewBox="0 0 254.072 175"><defs><clipPath id="a"><rect width="136.765" height="166.333" fill="none"/></clipPath><clipPath id="c"><rect width="115.178" height="75.818" fill="none"/></clipPath><clipPath id="d"><rect width="59.968" height="161.486" fill="none"/></clipPath><clipPath id="e"><rect width="143.891" height="175" fill="none"/></clipPath><clipPath id="g"><rect width="121.179" height="79.768" fill="none"/></clipPath><clipPath id="h"><rect width="63.092" height="169.9" fill="none"/></clipPath></defs><g transform="translate(-1090.776 -402)"><g transform="translate(1300.75 370.49)"><g transform="translate(-92.666 40.177)" clip-path="url(#a)"><g clip-path="url(#a)"><path d="M16.742,142.492s.116-.81.337-2.341c.326-1.383.573-3.724,1.3-6.074a88.439,88.439,0,0,1,6.688-18.344A91.615,91.615,0,0,1,38.331,95.952,88.357,88.357,0,0,1,57.57,79.784,86.571,86.571,0,0,1,80.583,69.73,90.175,90.175,0,0,1,104.2,66.682a97.615,97.615,0,0,1,10.618.676c3.24.362,6.324,1.062,8.809,1.585a60.34,60.34,0,0,1,6.025,1.566c1.428.417,2.26.752,2.26.752s-.066.886-.321,2.355c-.31,1.392-.569,3.742-1.29,6.1-.653,2.457-1.4,5.529-2.524,8.595a100.234,100.234,0,0,1-4.137,9.8,89.933,89.933,0,0,1-13.267,19.768,86.806,86.806,0,0,1-19.288,16.1,88.069,88.069,0,0,1-23.053,9.992A91.53,91.53,0,0,1,44.418,147a88.882,88.882,0,0,1-19.408-2.2c-2.426-.408-4.642-1.223-6.012-1.558-1.473-.484-2.256-.752-2.256-.752" transform="translate(4.854 19.33)" fill="#4cad3e"/><path d="M71.231,133.127q-18.886-1.43-37.744-2.838l25.985-16.066a1.283,1.283,0,0,0,.479.228q19.975,1.5,39.938,3c1.3.085,1.231-1.928-.05-2.023Q80.971,114,62.09,112.6L88.079,96.525a1.189,1.189,0,0,0,.493.224q11.528.873,23.057,1.745c1.3.085,1.227-1.934-.045-2.028q-10.44-.786-20.877-1.566l35.622-22.029-.891-1.423L90.582,93q3.357-9.4,6.7-18.805c.458-1.231-1.535-1.683-1.946-.457Q91.583,84.2,87.86,94.685L61.969,110.7q.3-.813.591-1.634c1.46-4.083,2.906-8.191,4.369-12.288,2.2-6.208,4.427-12.417,6.616-18.616.462-1.231-1.521-1.679-1.952-.466q-6.17,17.356-12.359,34.7L33.353,128.4c.2-.547.39-1.1.591-1.63q2.177-6.143,4.378-12.291,3.3-9.318,6.621-18.621c.439-1.227-1.536-1.678-1.966-.457q-6.19,17.33-12.355,34.687l-7.484,4.623.891,1.437,6.821-4.226a1.122,1.122,0,0,0,.479.23q19.975,1.5,39.942,2.99c1.3.107,1.236-1.917-.04-2.015" transform="translate(6.708 20.713)" fill="#aacd44"/><g transform="translate(21.587 86.005)" opacity="0.1"><g clip-path="url(#c)"><path d="M131.913,71.258s-.837-.344-2.251-.756a59.605,59.605,0,0,0-6.03-1.576c-2.493-.511-5.578-1.212-8.823-1.575a95.1,95.1,0,0,0-10.613-.672,89.684,89.684,0,0,0-23.612,3.044,87.021,87.021,0,0,0-23.021,10.05A88.973,88.973,0,0,0,38.324,95.94a91.579,91.579,0,0,0-13.255,19.785,88.535,88.535,0,0,0-6.692,18.349,60.64,60.64,0,0,0-1.3,6.074c-.21,1.513-.332,2.336-.344,2.345Z" transform="translate(-16.735 -66.675)" fill="#211a72"/></g></g><path d="M43.98,122.724A112.392,112.392,0,0,1,54.786,93.57a29.152,29.152,0,0,0,11.057,3.568c6.257.395,10.246-1.642,10.308-5.362-.375-3.693-4.525-5.376-10.724-4.432A26.578,26.578,0,0,0,56.3,90.863a113.072,113.072,0,0,1,8.591-12.887c1.759,1.361,6.159,4.423,10.909,5.4,6.15,1.267,10.376-.2,10.944-3.876.13-3.716-3.737-5.954-10.008-5.878a27.961,27.961,0,0,0-10.5,2.655q1.925-2.43,3.983-4.758c2.493-2.789,5.13-5.474,7.868-8.039,1.558,1.517,5.6,5.129,10.247,6.665,5.953,1.965,10.318.984,11.316-2.588.55-3.67-3.022-6.351-9.258-7a27.989,27.989,0,0,0-10.657,1.387,122.233,122.233,0,0,1,11.244-9.068c1.455,1.562,5.371,5.407,9.986,7.18,5.864,2.22,10.264,1.455,11.423-2.077.725-3.649-2.736-6.482-8.935-7.409a27.533,27.533,0,0,0-10.282.788c2.015-1.365,4.043-2.686,6.124-3.934.863-.506,1.79-1.044,2.72-1.567,2.3.17,7.543.322,11.965-1.4,5.851-2.265,8.617-5.784,7.1-9.185-1.906-3.191-6.373-2.977-11.594.488a28.861,28.861,0,0,0-7.914,8.733,107.028,107.028,0,0,0-14.248,9.387,27.787,27.787,0,0,0,3.258-9.878c.578-6.25-1.352-10.287-5.067-10.434-3.711.272-5.505,4.378-4.735,10.594.609,4.8,3.311,9.432,4.507,11.294A129.175,129.175,0,0,0,72.28,67.291,28.738,28.738,0,0,0,74.159,56c-.515-6.244-3.1-9.9-6.781-9.428-3.6.922-4.688,5.265-2.852,11.267,1.495,4.911,5.3,9.231,6.634,10.631a120.293,120.293,0,0,0-10.733,13.25c.644-1.571,2.766-7.194,2.327-12.5-.5-6.253-3.084-9.91-6.773-9.419-3.607.9-4.677,5.251-2.847,11.236,1.707,5.6,6.4,10.42,7.029,11.052-1.768,2.537-3.412,5.143-4.956,7.816-.5.85-.971,1.723-1.446,2.591-.227.161-.366.273-.366.273s.062.035.165.089q-1.618,3.009-3.048,6.11a25.769,25.769,0,0,0-.255-8.827c-1.428-6.1-4.534-9.32-8.106-8.3C38.725,83.279,38.309,87.733,41,93.4c2.091,4.387,6.137,7.928,7.861,9.307a113.585,113.585,0,0,0-6.217,19.736.682.682,0,0,0,1.334.286" transform="translate(11.377 9.572)" fill="#aed144"/><path d="M21.766,161.48s-.6-.806-1.741-2.323c-.922-1.477-2.726-3.729-4.126-6.393a107.927,107.927,0,0,1-10.068-21.7A112,112,0,0,1,.186,102.43,108.274,108.274,0,0,1,2.881,71.759,106.145,106.145,0,0,1,14.13,43.115,110.6,110.6,0,0,1,31.968,20.026a117.429,117.429,0,0,1,9.8-8.6,109.6,109.6,0,0,1,9.015-6.262,71.291,71.291,0,0,1,6.576-3.858C58.955.43,59.967,0,59.967,0s.707.828,1.763,2.314c.931,1.482,2.744,3.743,4.159,6.411,1.558,2.7,3.572,6.016,5.251,9.646a120.447,120.447,0,0,1,4.893,12.068,110.4,110.4,0,0,1,5.612,28.626,106.569,106.569,0,0,1-2.78,30.662A107.439,107.439,0,0,1,67.5,118.356a111.708,111.708,0,0,1-17.851,23.075,108.773,108.773,0,0,1-18.715,14.892c-2.462,1.745-5.1,2.964-6.572,3.859-1.687.846-2.6,1.3-2.6,1.3" transform="translate(0.001 0.001)" fill="#3a8931"/><path d="M62.267,104.581q-17.605,15.1-35.178,30.215l8.617-36.428a1.467,1.467,0,0,0,.613-.219Q54.937,82.155,73.552,66.176c1.2-1.053-.6-2.74-1.792-1.71q-17.6,15.1-35.183,30.219L45.19,58.243a1.489,1.489,0,0,0,.631-.219q10.738-9.239,21.5-18.455c1.2-1.049-.613-2.749-1.79-1.716Q55.789,46.22,46.068,54.559L57.88,4.623l-2.01-.462L44.318,53.02q-5.232-11.06-10.484-22.1c-.667-1.459-2.778-.134-2.077,1.281q5.808,12.327,11.657,24.641L34.819,93.149c-.3-.649-.6-1.3-.9-1.928-2.27-4.809-4.566-9.629-6.844-14.446Q21.88,65.837,16.695,54.9c-.671-1.459-2.78-.138-2.091,1.286q9.655,20.4,19.311,40.792L25.333,133.27q-.457-.962-.912-1.935-3.425-7.209-6.827-14.44Q12.391,105.959,7.2,95.015c-.68-1.45-2.784-.134-2.091,1.3q9.636,20.4,19.307,40.782l-2.475,10.488,2,.489,2.26-9.584a1.394,1.394,0,0,0,.618-.215q18.619-15.994,37.229-31.987c1.222-1.033-.591-2.722-1.787-1.705" transform="translate(1.443 1.206)" fill="#aacd44"/><g opacity="0.1"><g clip-path="url(#d)"><path d="M59.968,0c-.009.005-1.02.426-2.619,1.3a75.983,75.983,0,0,0-6.589,3.85c-2.591,1.714-5.886,3.773-9.006,6.275a115.509,115.509,0,0,0-9.789,8.6A110.031,110.031,0,0,0,14.122,43.1,106.829,106.829,0,0,0,2.865,71.745,108.634,108.634,0,0,0,.183,102.427a111.529,111.529,0,0,0,5.632,28.626,108.633,108.633,0,0,0,10.07,21.714c1.4,2.662,3.214,4.933,4.132,6.388,1.133,1.49,1.747,2.323,1.747,2.332Z" transform="translate(0 0)" fill="#211a72"/></g></g></g></g></g><g transform="translate(1090.776 402)"><g clip-path="url(#e)"><g clip-path="url(#e)"><path d="M137.912,146.442s-.122-.852-.354-2.463c-.343-1.455-.6-3.918-1.369-6.391a93.047,93.047,0,0,0-7.037-19.3A96.39,96.39,0,0,0,115.2,97.477a92.962,92.962,0,0,0-20.241-17.01A91.082,91.082,0,0,0,70.744,69.889,94.873,94.873,0,0,0,45.9,66.682a102.7,102.7,0,0,0-11.172.711c-3.409.381-6.654,1.117-9.268,1.668a63.479,63.479,0,0,0-6.339,1.648c-1.5.438-2.378.791-2.378.791s.069.932.338,2.478c.326,1.464.6,3.937,1.357,6.414.687,2.585,1.474,5.817,2.656,9.042a105.462,105.462,0,0,0,4.352,10.309A94.619,94.619,0,0,0,39.4,120.54,91.33,91.33,0,0,0,59.7,137.484,92.658,92.658,0,0,0,83.95,148a96.3,96.3,0,0,0,24.843,3.189,93.515,93.515,0,0,0,20.419-2.313c2.553-.429,4.884-1.287,6.326-1.639,1.55-.509,2.374-.791,2.374-.791" transform="translate(-16.742 23.812)" fill="#4cad3e"/><path d="M81.107,136.341q19.87-1.5,39.71-2.986l-27.339-16.9a1.35,1.35,0,0,1-.5.24q-21.016,1.576-42.019,3.155c-1.365.09-1.295-2.029.053-2.128q19.85-1.5,39.715-2.972L63.38,97.831a1.251,1.251,0,0,1-.518.236Q50.734,98.986,38.6,99.9c-1.371.09-1.291-2.034.047-2.133q10.985-.826,21.965-1.648L23.138,72.946l.938-1.5L60.748,94.121Q57.216,84.23,53.7,74.336c-.482-1.295,1.615-1.771,2.048-.48q3.943,11.013,7.86,22.041l27.24,16.846q-.311-.855-.622-1.719c-1.536-4.3-3.058-8.618-4.6-12.928-2.318-6.532-4.658-13.064-6.961-19.586-.486-1.295,1.6-1.767,2.053-.49q6.492,18.26,13,36.508l27.23,16.842c-.208-.575-.41-1.155-.622-1.715q-2.29-6.463-4.606-12.932-3.477-9.8-6.966-19.591c-.461-1.291,1.616-1.766,2.068-.48q6.512,18.234,13,36.494l7.874,4.864-.938,1.512-7.176-4.446a1.181,1.181,0,0,1-.5.242q-21.016,1.582-42.023,3.146c-1.371.113-1.3-2.017.042-2.12" transform="translate(-19.216 25.516)" fill="#aacd44"/><g transform="translate(0 90.486)" opacity="0.1"><g clip-path="url(#g)"><path d="M16.735,71.5s.881-.362,2.368-.8a62.707,62.707,0,0,1,6.344-1.658c2.623-.537,5.868-1.276,9.283-1.657A100.06,100.06,0,0,1,45.9,66.679a94.357,94.357,0,0,1,24.842,3.2,91.555,91.555,0,0,1,24.22,10.573A93.609,93.609,0,0,1,115.2,97.465a96.35,96.35,0,0,1,13.946,20.815,93.148,93.148,0,0,1,7.041,19.3,63.8,63.8,0,0,1,1.365,6.391c.221,1.592.349,2.458.362,2.467Z" transform="translate(-16.735 -66.675)" fill="#211a72"/></g></g><path d="M120.792,127.4a118.249,118.249,0,0,0-11.369-30.674c-2.294,1.235-6.942,3.443-11.633,3.754-6.583.415-10.78-1.728-10.845-5.642.395-3.885,4.761-5.656,11.283-4.663a27.963,27.963,0,0,1,9.6,3.7,118.965,118.965,0,0,0-9.038-13.559c-1.851,1.432-6.48,4.654-11.477,5.685C80.841,87.335,76.4,85.791,75.8,81.924c-.137-3.91,3.932-6.264,10.53-6.184A29.418,29.418,0,0,1,97.38,78.533q-2.025-2.557-4.191-5.006c-2.623-2.934-5.4-5.76-8.278-8.458-1.639,1.6-5.9,5.4-10.781,7.012-6.263,2.067-10.856,1.035-11.906-2.722-.578-3.861,3.18-6.682,9.74-7.365a29.447,29.447,0,0,1,11.212,1.459,128.6,128.6,0,0,0-11.83-9.541C69.816,55.556,65.7,59.6,60.84,61.466,54.67,63.8,50.041,63,48.821,59.281c-.763-3.839,2.878-6.819,9.4-7.8a28.968,28.968,0,0,1,10.818.829c-2.12-1.436-4.253-2.826-6.444-4.139-.908-.532-1.884-1.1-2.862-1.649-2.417.179-7.936.339-12.589-1.468-6.156-2.383-9.066-6.085-7.47-9.664,2.006-3.358,6.705-3.132,12.2.513,4.021,2.656,7,7.012,8.326,9.188A112.6,112.6,0,0,1,75.19,54.971a29.235,29.235,0,0,1-3.428-10.393C71.154,38,73.184,33.755,77.093,33.6c3.9.286,5.792,4.606,4.982,11.146-.641,5.05-3.484,9.923-4.742,11.883A135.906,135.906,0,0,1,91.018,69.077,30.236,30.236,0,0,1,89.041,57.2c.541-6.57,3.264-10.413,7.134-9.919,3.792.97,4.932,5.54,3,11.854C97.6,64.3,93.6,68.846,92.2,70.32a126.562,126.562,0,0,1,11.293,13.94c-.677-1.653-2.91-7.569-2.448-13.149.522-6.579,3.245-10.427,7.126-9.91,3.794.942,4.921,5.525,3,11.822-1.8,5.891-6.73,10.963-7.395,11.628,1.861,2.669,3.59,5.411,5.214,8.223.528.894,1.022,1.813,1.521,2.726.239.17.385.288.385.288s-.065.037-.174.094q1.7,3.165,3.207,6.429a27.112,27.112,0,0,1,.269-9.287c1.5-6.419,4.77-9.805,8.528-8.736,3.6,1.51,4.042,6.2,1.206,12.154-2.2,4.616-6.457,8.341-8.27,9.792A119.5,119.5,0,0,1,122.2,127.1a.718.718,0,0,1-1.4.3" transform="translate(-35.143 11.791)" fill="#aed144"/><path d="M63.186,169.894s.631-.848,1.832-2.444c.97-1.554,2.868-3.923,4.341-6.726A113.55,113.55,0,0,0,79.952,137.9a117.841,117.841,0,0,0,5.939-30.131A113.916,113.916,0,0,0,83.055,75.5,111.676,111.676,0,0,0,71.22,45.362,116.36,116.36,0,0,0,52.453,21.069a123.546,123.546,0,0,0-10.309-9.047,115.3,115.3,0,0,0-9.485-6.589A75.006,75.006,0,0,0,25.74,1.375C24.059.452,23,0,23,0s-.744.871-1.855,2.435C20.16,4,18.253,6.377,16.764,9.184c-1.639,2.839-3.758,6.33-5.525,10.149a126.722,126.722,0,0,0-5.148,12.7,116.152,116.152,0,0,0-5.9,30.117,113.121,113.121,0,0,0,14.877,62.377A117.529,117.529,0,0,0,33.845,148.8a114.442,114.442,0,0,0,19.69,15.668c2.591,1.836,5.365,3.119,6.914,4.06,1.775.89,2.736,1.365,2.736,1.365" transform="translate(57.803 0.001)" fill="#3a8931"/><path d="M17.267,109.814Q35.79,125.7,54.279,141.6l-9.066-38.326a1.544,1.544,0,0,1-.645-.231Q24.979,86.219,5.394,69.407c-1.266-1.107.631-2.883,1.885-1.8Q25.8,83.494,44.3,99.4l-9.061-38.34a1.566,1.566,0,0,1-.664-.231q-11.3-9.72-22.62-19.416c-1.262-1.1.645-2.892,1.884-1.8q10.25,8.8,20.476,17.576L21.883,4.647,24,4.161l12.154,51.4q5.5-11.636,11.031-23.251c.7-1.535,2.923-.141,2.185,1.348Q43.256,46.631,37.1,59.587l9.042,38.2c.316-.683.627-1.365.951-2.029,2.389-5.059,4.8-10.131,7.2-15.2q5.462-11.508,10.917-23.011c.706-1.535,2.925-.145,2.2,1.353Q57.256,80.36,47.1,101.818L56.126,140q.48-1.012.959-2.036,3.6-7.585,7.183-15.193,5.474-11.506,10.93-23.019c.715-1.525,2.929-.141,2.2,1.367q-10.138,21.46-20.313,42.907l2.6,11.035-2.1.514-2.378-10.083a1.467,1.467,0,0,1-.65-.227q-19.589-16.827-39.169-33.654c-1.285-1.087.622-2.864,1.88-1.794" transform="translate(59.594 1.486)" fill="#aacd44"/><g transform="translate(80.798)" opacity="0.1"><g clip-path="url(#h)"><path d="M0,0c.01.005,1.073.448,2.755,1.365A79.941,79.941,0,0,1,9.687,5.417c2.726,1.8,6.193,3.97,9.475,6.6a121.529,121.529,0,0,1,10.3,9.047A115.764,115.764,0,0,1,48.234,45.349,112.4,112.4,0,0,1,60.078,75.484a114.294,114.294,0,0,1,2.821,32.28,117.34,117.34,0,0,1-5.925,30.117,114.292,114.292,0,0,1-10.595,22.846c-1.475,2.8-3.382,5.19-4.347,6.72-1.192,1.567-1.838,2.444-1.838,2.454Z" transform="translate(0 0)" fill="#211a72"/></g></g></g></g></g></g></svg>