<svg xmlns="http://www.w3.org/2000/svg" xmlns:xlink="http://www.w3.org/1999/xlink" width="188.686" height="239.518" viewBox="0 0 188.686 239.518"><defs><clipPath id="a"><rect width="142.252" height="71.644" fill="none"/></clipPath><clipPath id="b"><rect width="203.186" height="102.333" fill="none"/></clipPath></defs><g transform="translate(-982.748 -290.626)"><g transform="translate(982.748 458.5)"><g transform="translate(0 0)" clip-path="url(#a)"><path d="M140.736.282A142.345,142.345,0,0,1,110.114,25.2c-1.622-2.688-5.106-7.833-9.794-11.031C93.736,9.7,88.061,9.361,85.6,13.394c-1.968,4.278,1.477,8.794,8.872,11.765a33.972,33.972,0,0,0,12.244,2.035A145.328,145.328,0,0,1,89.006,35.75c-1.05-2.617-3.894-8.814-8.452-12.952-5.908-5.344-11.482-6.46-14.476-2.812-2.535,3.976.253,8.926,7.165,12.883,4.437,2.546,9.887,3.519,13.2,3.877-2.45.938-4.932,1.825-7.433,2.629-4.524,1.451-9.14,2.676-13.788,3.719-.727-2.669-2.823-9.225-6.919-13.9-5.243-5.99-10.645-7.737-14.042-4.47-2.975,3.661-.786,8.9,5.613,13.629a35.6,35.6,0,0,0,12.547,5.355A156.45,156.45,0,0,1,44.281,46.38C43.7,43.735,41.889,37,37.98,32.087c-4.979-6.212-10.291-8.21-13.826-5.1-3.154,3.52-1.194,8.852,4.99,13.87A34.863,34.863,0,0,0,40.9,46.626c-3.08.194-6.157.331-9.229.353-1.277,0-2.641-.007-3.995-.043-2.4-1.664-8.04-5.218-13.991-6.188C5.826,39.454.537,41.526,0,46.221c.024,4.717,5.053,7.359,13,6.947,5.807-.3,11.584-3,14.29-4.454a135.576,135.576,0,0,0,21.633-1.077,35.208,35.208,0,0,0-9.929,8.7c-4.656,6.46-5.158,12.12-1.19,14.687,4.236,2.093,8.849-1.237,12.014-8.542,2.439-5.635,2.462-12.45,2.354-15.262a163.621,163.621,0,0,0,21.863-4.55c-2.478,2.05-6.912,6.153-9.335,11.135C61.224,60.973,61.7,66.637,66.039,68.5c4.527,1.323,8.509-2.735,10.381-10.478,1.532-6.34.151-13.524-.4-15.912A154.724,154.724,0,0,0,96.31,34.533c-1.723,1.3-7.666,6.083-10.619,12.17-3.485,7.156-3.009,12.823,1.338,14.671,4.524,1.342,8.5-2.73,10.365-10.459C99.146,43.7,97.124,35.4,96.831,34.3q5.35-2.456,10.463-5.352c1.1-.611,2.178-1.264,3.251-1.906.359-.035.576-.066.576-.066s-.043-.077-.117-.206c2.469-1.5,4.9-3.069,7.273-4.717a32.789,32.789,0,0,0-5.41,9.825C110.5,39.465,111.814,45,116.376,46.19c4.679.634,8-3.971,8.705-11.9.54-6.145-1.6-12.633-2.6-15.251a144.847,144.847,0,0,0,19.54-17.572A.873.873,0,0,0,140.736.282" transform="translate(0 0)" fill="#246b1a"/></g></g><g transform="matrix(0.259, 0.966, -0.966, 0.259, 1118.846, 290.626)"><g transform="translate(0 0)" clip-path="url(#b)"><path d="M201.02.4A203.318,203.318,0,0,1,157.281,36c-2.317-3.839-7.294-11.189-13.989-15.756-9.405-6.383-17.511-6.871-21.033-1.111-2.811,6.111,2.11,12.561,12.673,16.8,5.915,2.384,12.687,2.907,17.488,2.907a207.579,207.579,0,0,1-25.29,12.221c-1.5-3.738-5.562-12.59-12.072-18.5-8.438-7.633-16.4-9.228-20.677-4.017-3.621,5.678.362,12.75,10.235,18.4,6.338,3.637,14.122,5.027,18.86,5.538-3.5,1.34-7.044,2.606-10.617,3.756C106.4,58.315,99.8,60.064,93.165,61.553c-1.039-3.812-4.033-13.177-9.882-19.85-7.489-8.555-15.205-11.051-20.056-6.384-4.249,5.229-1.122,12.706,8.017,19.467,5.816,4.294,13.267,6.561,17.922,7.649a223.465,223.465,0,0,1-25.917,3.812c-.832-3.778-3.416-13.395-9-20.416C47.137,36.958,39.549,34.1,34.5,38.553c-4.5,5.028-1.7,12.644,7.127,19.811C46.932,62.68,53.794,65.23,58.42,66.6c-4.4.277-8.794.472-13.182.5-1.823,0-3.772-.01-5.706-.061C36.11,64.664,28.05,59.587,19.549,58.2,8.322,56.353.767,59.314,0,66.02c.034,6.738,7.217,10.512,18.566,9.922,8.294-.427,16.545-4.29,20.412-6.362a193.651,193.651,0,0,0,30.9-1.538C65.761,70.57,59.733,74.87,55.694,80.474c-6.65,9.228-7.367,17.312-1.7,20.978,6.05,2.989,12.639-1.767,17.16-12.2,3.484-8.049,3.517-17.783,3.362-21.8a233.708,233.708,0,0,0,31.227-6.5c-3.54,2.928-9.873,8.789-13.334,15.905-4.96,10.233-4.278,18.322,1.918,20.978,6.466,1.889,12.154-3.906,14.828-14.967,2.188-9.056.216-19.317-.573-22.728a221,221,0,0,0,28.983-10.816c-2.461,1.86-10.95,8.688-15.167,17.383-4.977,10.222-4.3,18.316,1.911,20.956,6.461,1.916,12.14-3.9,14.805-14.94,2.5-10.31-.387-22.166-.805-23.732q7.641-3.508,14.944-7.644c1.572-.872,3.111-1.806,4.644-2.723.512-.05.823-.094.823-.094s-.061-.11-.166-.295c3.527-2.139,7.006-4.383,10.388-6.738a46.834,46.834,0,0,0-7.728,14.034c-3.384,10.838-1.5,18.739,5.011,20.444,6.684.906,11.434-5.672,12.434-17,.772-8.778-2.285-18.044-3.717-21.784a206.892,206.892,0,0,0,27.91-25.1A1.247,1.247,0,0,0,201.02.4" transform="translate(0 0.001)" fill="#246b1a"/></g></g></g></svg>