<svg xmlns="http://www.w3.org/2000/svg" width="1320.691" height="506.835" viewBox="0 0 1320.691 506.835">
  <g id="Grupo_950371" data-name="Grupo 950371" transform="translate(12615.691 12759)">
    <path id="Rectangle_652" data-name="Rectangle 652" d="M1299.213,0H20.787C9.307,0,0,8.4,0,18.772V488.063c0,10.367,9.307,18.772,20.787,18.772H1299.213c11.48,0,20.787-8.4,20.787-18.772V18.772C1320,8.4,1310.693,0,1299.213,0Z" transform="translate(-12615 -12759)" fill="#583ae2"/>
    <path id="hacker-working-in-the-darkness" d="M258.97,232.013h80.487a86.368,86.368,0,0,1,92.461-56.274V97.4q-5.592-.38-11.28-.384A164.316,164.316,0,0,0,258.97,232.013Z" transform="translate(-12383.679 -12684.083) rotate(90)" fill="#583ae2" opacity="0.37" style="mix-blend-mode: multiply;isolation: isolate"/>
    <path id="Trazado_636107" data-name="Trazado 636107" d="M247.435,54.21H245.9c-16.672,51.268-66.457,88.59-125.166,88.59a134.545,134.545,0,0,1-58.99-13.506v1.574a136.043,136.043,0,0,0,58.99,13.343C180.258,144.21,230.711,106.268,247.435,54.21Z" transform="translate(-12677.435 -12813.21)" fill="#40327b"/>
    <circle id="Elipse_5490" data-name="Elipse 5490" cx="11" cy="11" r="11" transform="translate(-12513 -12721)" fill="#2ff980"/>
    <g id="Elipse_5491" data-name="Elipse 5491" transform="translate(-12480 -12737)" fill="none" stroke="#fff" stroke-width="10">
      <circle cx="25" cy="25" r="25" stroke="none"/>
      <circle cx="25" cy="25" r="20" fill="none"/>
    </g>
  </g>
</svg>
