<svg xmlns="http://www.w3.org/2000/svg" width="133" height="133" viewBox="0 0 133 133">
  <g id="Grupo_959219" data-name="Grupo 959219" transform="translate(-387 -661)">
    <circle id="Elipse_5719" data-name="Elipse 5719" cx="66.5" cy="66.5" r="66.5" transform="translate(387 661)" fill="#adc46c"/>
    <g id="ingeniero" transform="translate(356.63 691)">
      <path id="Trazado_723425" data-name="Trazado 723425" d="M138.426,363.444h15.05a10.715,10.715,0,0,1,10.715,10.715v9.34H127.711v-9.34A10.714,10.714,0,0,1,138.426,363.444Z" transform="translate(-49.189 -311.772)" fill="#2d6ccf"/>
      <path id="Trazado_723426" data-name="Trazado 723426" d="M289.513,363.444H286.3a10.715,10.715,0,0,1,10.715,10.715v9.34h3.218v-9.34A10.714,10.714,0,0,0,289.513,363.444Z" transform="translate(-185.226 -311.772)" fill="#2159aa"/>
      <path id="Trazado_723427" data-name="Trazado 723427" d="M225.871,267.73v13.556L223.2,284.04a4.619,4.619,0,0,1-3.318,1.4h0a4.62,4.62,0,0,1-3.318-1.4l-2.668-2.754V267.73Z" transform="translate(-123.124 -229.666)" fill="#fa9e3e"/>
      <rect id="Rectángulo_340240" data-name="Rectángulo 340240" width="40.946" height="9.317" transform="translate(76.289 26.938)" fill="#696970"/>
      <g id="Grupo_959155" data-name="Grupo 959155" transform="translate(74.232 31.846)">
        <path id="Trazado_723428" data-name="Trazado 723428" d="M101.558,223.99h7.019v8.048h-7.019a4.024,4.024,0,1,1,0-8.048Z" transform="translate(-97.534 -223.99)" fill="#fa9e3e"/>
        <path id="Trazado_723429" data-name="Trazado 723429" d="M343.811,223.99h-7.019v8.048h7.019a4.024,4.024,0,0,0,0-8.048Z" transform="translate(-302.776 -223.99)" fill="#fa9e3e"/>
      </g>
      <path id="Trazado_723430" data-name="Trazado 723430" d="M159.825,149.343h0a15.94,15.94,0,0,1-15.94-15.94V117.281h31.88V133.4A15.94,15.94,0,0,1,159.825,149.343Z" transform="translate(-63.063 -100.607)" fill="#ffb56b"/>
      <path id="Trazado_723431" data-name="Trazado 723431" d="M263.463,117.281v17.781a14.281,14.281,0,0,1-13.477,14.258q.425.022.855.023h0a15.94,15.94,0,0,0,15.94-15.94V117.281Z" transform="translate(-154.079 -100.607)" fill="#ef9245"/>
      <path id="Trazado_723432" data-name="Trazado 723432" d="M115,40.088v4.7h40.093v-4.7a18.111,18.111,0,0,0-18.111-18.111h-3.871A18.111,18.111,0,0,0,115,40.088Z" transform="translate(-38.285 -18.852)" fill="#ffb700"/>
      <path id="Trazado_723433" data-name="Trazado 723433" d="M249.922,21.977h-3.264a18.111,18.111,0,0,1,18.111,18.111v4.7h3.264v-4.7A18.111,18.111,0,0,0,249.922,21.977Z" transform="translate(-151.224 -18.852)" fill="#d69400"/>
      <g id="Grupo_959156" data-name="Grupo 959156" transform="translate(71.436 1.066)">
        <path id="Trazado_723434" data-name="Trazado 723434" d="M77.871,161.631h0A2.131,2.131,0,0,0,80,163.761h46.389a2.131,2.131,0,0,0,2.131-2.131h0a2.131,2.131,0,0,0-2.131-2.131H80A2.131,2.131,0,0,0,77.871,161.631Z" transform="translate(-77.871 -137.89)" fill="#ffd100"/>
        <path id="Trazado_723435" data-name="Trazado 723435" d="M226.4,9.362V29.11h8.417V9.362A1.862,1.862,0,0,0,232.954,7.5h-4.694A1.862,1.862,0,0,0,226.4,9.362Z" transform="translate(-205.282 -7.5)" fill="#ffd100"/>
      </g>
      <circle id="Elipse_5730" data-name="Elipse 5730" cx="5.071" cy="5.071" r="5.071" transform="translate(91.691 9.461)" fill="#efa707"/>
      <path id="Trazado_723436" data-name="Trazado 723436" d="M312.253,365.47a10.663,10.663,0,0,0-6.266-2.026H305.5V383.5h11.2v-3.554h-4.448Z" transform="translate(-201.701 -311.772)" fill="#ffb700"/>
      <rect id="Rectángulo_340241" data-name="Rectángulo 340241" width="6.753" height="4.763" transform="translate(103.799 59.855)" fill="#fb403f"/>
      <path id="Trazado_723437" data-name="Trazado 723437" d="M132.159,365.47a10.663,10.663,0,0,1,6.266-2.026h.487V383.5h-11.2v-3.554h4.448Z" transform="translate(-49.189 -311.772)" fill="#ffb700"/>
      <rect id="Rectángulo_340242" data-name="Rectángulo 340242" width="6.753" height="4.763" transform="translate(82.971 59.855)" fill="#fb403f"/>
      <path id="Trazado_723438" data-name="Trazado 723438" d="M303.89,215.962a1.066,1.066,0,0,0-1.066,1.066v.284a1.066,1.066,0,1,0,2.133,0v-.284A1.066,1.066,0,0,0,303.89,215.962Z" transform="translate(-199.405 -185.258)"/>
      <path id="Trazado_723439" data-name="Trazado 723439" d="M195.242,215.962a1.066,1.066,0,0,0-1.066,1.066v.284a1.066,1.066,0,1,0,2.133,0v-.284A1.066,1.066,0,0,0,195.242,215.962Z" transform="translate(-106.204 -185.258)"/>
      <path id="Trazado_723440" data-name="Trazado 723440" d="M230.373,259.165a1.066,1.066,0,0,0-1.484.27,3.716,3.716,0,0,1-6.114,0,1.066,1.066,0,0,0-1.753,1.214,5.848,5.848,0,0,0,9.62,0A1.066,1.066,0,0,0,230.373,259.165Z" transform="translate(-129.071 -222.156)"/>
      <path id="Trazado_723441" data-name="Trazado 723441" d="M119.956,28a3.2,3.2,0,1,0,0-6.394h-2.081v-.375A19.184,19.184,0,0,0,105.533,3.313a1.066,1.066,0,1,0-.76,1.992,17.052,17.052,0,0,1,10.969,15.929v.376H102.036V17.669a6.132,6.132,0,0,0,0-6.274V2.927A2.931,2.931,0,0,0,99.109,0H94.414a2.932,2.932,0,0,0-2.868,2.338,19.2,19.2,0,0,0-15.9,18.9v.375H73.567a3.2,3.2,0,1,0,0,6.394h1.655v3.78a5.089,5.089,0,0,0,3.034,9.176h3.586a17.005,17.005,0,0,0,7.867,7.313v2.332h-.473l-.093,0q-.221,0-.44.011l-.2.012q-.179.011-.357.027l-.187.018q-.224.024-.446.057l-.08.011q-.277.043-.552.1l-.05.011q-.249.052-.5.115l-.076.02q-.255.067-.507.144l-.017.005a11.634,11.634,0,0,0-1.587.626l-.023.011a11.826,11.826,0,0,0-1.776,1.059c-.02.014-.037.03-.056.046a11.772,11.772,0,0,0-4.834,9.508v9.339a1.066,1.066,0,0,0,1.066,1.066H115a1.066,1.066,0,0,0,1.066-1.066V62.387a11.772,11.772,0,0,0-4.834-9.508c-.018-.015-.036-.032-.056-.046a11.85,11.85,0,0,0-1.776-1.059l-.023-.011a11.634,11.634,0,0,0-1.587-.626l-.017-.005q-.252-.078-.507-.144l-.076-.02q-.247-.062-.5-.115l-.05-.011q-.274-.056-.552-.1l-.08-.011q-.222-.033-.446-.057l-.187-.018q-.178-.016-.357-.027l-.2-.012c-.146-.007-.293-.01-.44-.011l-.093,0h-.473V48.273a17.007,17.007,0,0,0,7.867-7.313h3.586a5.089,5.089,0,0,0,3.034-9.177V28ZM100.085,12.3l0,0a4,4,0,0,1,0,4.464l-.021.032a4.006,4.006,0,0,1-6.627-.028l0,0a4.005,4.005,0,0,1,6.648-4.468ZM93.62,19.8a6.13,6.13,0,0,0,6.284,0V21.61H93.62V19.8ZM72.814,25.56a1.064,1.064,0,0,1,.753-1.817H82.4a1.066,1.066,0,1,0,0-2.133H77.782v-.375A17.067,17.067,0,0,1,91.487,4.518V6.731a1.066,1.066,0,1,0,2.133,0v-3.8a.8.8,0,0,1,.795-.795h4.695a.8.8,0,0,1,.795.795V9.262a6.136,6.136,0,0,0-8.417,8.407V21.61H86.659a1.066,1.066,0,0,0,0,2.133h33.3a1.064,1.064,0,1,1,0,2.128H73.567A1.058,1.058,0,0,1,72.814,25.56ZM79.756,28v2.775h-1.5c-.1,0-.194,0-.291.009l-.078.005q-.123.009-.246.024l-.048.005c-.08.011-.159.022-.238.037V28Zm-1.5,10.824a2.958,2.958,0,0,1,0-5.916h1.5c0,.115,0,.225.006.334,0,.028,0,.055,0,.083,0,.058,0,.117.006.174s0,.108.007.157l0,.048c0,.021,0,.041,0,.062l0,.03c0,.076.008.152.014.228,0,.039.006.077.009.115s0,.064.008.1,0,.048.006.072c.006.075.012.147.021.232,0,.039.009.078.012.118l0,.029c.014.123.03.244.046.366,0,.025.006.05.01.076.02.154.043.309.068.455h0c.007.044.016.086.023.13.046.262.1.522.151.768v0h0l0,.018q.059.266.127.529c.015.061.033.121.049.181.033.124.067.247.1.37.02.069.041.137.062.2q.053.174.11.346.034.1.069.205c.041.118.083.235.126.352.016.044.031.089.048.133h-2.6ZM92.395,49.236l.118.031q.236.061.473.115l.079.018q.267.059.535.109l.125.023q.246.044.494.082l.061.01c.181.026.363.049.545.07l.13.014c.174.018.348.035.522.048l.036,0c.184.013.369.023.554.03l.135,0c.186.006.373.01.56.01s.374,0,.56-.01l.135,0c.185-.007.37-.017.554-.03l.036,0c.175-.013.349-.029.522-.048l.13-.014c.182-.021.364-.044.546-.07l.06-.009q.249-.037.5-.082l.122-.022c.18-.034.359-.07.537-.11l.076-.018q.24-.054.478-.116l.115-.03q.264-.07.527-.149l.027-.008v2.109l-2.368,2.444a3.575,3.575,0,0,1-2.552,1.081,3.549,3.549,0,0,1-2.551-1.081l-2.368-2.444V49.08l.028.008Q92.131,49.166,92.395,49.236Zm12.834,3.549.109.012c.129.014.257.03.385.049l.041.006c.147.023.292.049.436.078l.058.012q.455.095.893.231h0a9.6,9.6,0,0,1,2.332,1.093v4.523h-4.621V52.757C104.987,52.764,105.108,52.773,105.229,52.785Zm-.363,8.137h4.621v2.63h-4.621Zm-2.133-7.754V70.66H90.79V53.168l1.889,1.95a5.685,5.685,0,0,0,8.164,0Zm-18.7,1.1a9.611,9.611,0,0,1,2.332-1.093h0q.438-.136.893-.231l.058-.012c.144-.029.29-.056.436-.078l.041-.006c.128-.019.256-.035.385-.049l.109-.012c.12-.012.241-.02.363-.028v6.032H84.037V54.266Zm0,6.656h4.621v2.63H84.037Zm-2.133-4.8v10.98H79.589V62.387A9.605,9.605,0,0,1,81.9,56.126ZM79.589,70.66V69.239h3.382a1.066,1.066,0,0,0,1.066-1.066V65.684h4.621V70.66Zm25.277,0V65.684h4.621v2.488a1.066,1.066,0,0,0,1.066,1.066h3.382V70.66Zm9.069-8.273v4.719h-2.316V56.126A9.605,9.605,0,0,1,113.935,62.387Zm-11.589-15.8a14.768,14.768,0,0,1-5.584,1.085q-.363,0-.722-.017c-.131-.006-.261-.015-.392-.024a14.712,14.712,0,0,1-4.137-.913q-.167-.063-.333-.131h0a14.88,14.88,0,0,1-7.736-7.166c-.116-.233-.225-.47-.328-.708a14.7,14.7,0,0,1-.872-2.689q-.13-.584-.212-1.182v-.008c0-.014,0-.028-.005-.042q-.049-.367-.08-.738c0-.024,0-.048-.006-.072q-.013-.163-.022-.327l0-.063c-.005-.1-.009-.194-.012-.29,0-.044,0-.087,0-.132,0-.124,0-.248,0-.372V28h29.746V32.8c0,.124,0,.248,0,.372,0,.045,0,.089,0,.134,0,.1-.007.191-.012.286l0,.067q-.009.164-.022.327c0,.023,0,.047-.006.07q-.031.376-.082.749c0,.01,0,.021,0,.031v0q-.079.575-.2,1.14c0,.016-.007.033-.01.049-.084.382-.185.759-.3,1.134a14.863,14.863,0,0,1-8.637,9.426Zm12.921-7.757h-2.6c.017-.044.031-.089.048-.133.043-.116.085-.233.126-.35.024-.07.047-.139.07-.209q.056-.169.108-.339c.022-.07.043-.14.064-.211.035-.12.068-.241.1-.362.017-.062.034-.125.05-.187q.068-.267.128-.535l0-.013h0l0-.016c.064-.287.122-.585.17-.878h0v-.012c.025-.148.048-.3.068-.45h0c0-.021.005-.043.008-.065.017-.125.033-.249.048-.375l0-.029c0-.039.008-.078.014-.13.008-.074.014-.145.02-.22,0-.024,0-.049.006-.073s0-.061.007-.092.007-.078.01-.118c.006-.076.011-.151.014-.228l0-.029c0-.022,0-.044,0-.067l0-.039c0-.056.006-.113.007-.155,0-.061,0-.123.006-.185,0-.026,0-.052,0-.078,0-.109,0-.22.006-.336h1.5q.1,0,.19.006a2.958,2.958,0,0,1-.19,5.91Zm.9-7.968q-.119-.021-.239-.037l-.046-.005q-.123-.015-.247-.024l-.078-.005c-.1-.006-.194-.009-.291-.009h-1.5V28h2.4V30.86Z"/>
    </g>
  </g>
</svg>
