<svg xmlns="http://www.w3.org/2000/svg" width="812.263" height="423.439" viewBox="0 0 812.263 423.439">
  <g id="Grupo_950278" data-name="Grupo 950278" transform="translate(6492.263 9259.515)">
    <rect id="Rectángulo_34862" data-name="Rectángulo 34862" width="167.825" height="58.225" transform="translate(-6439.492 -9189.225)" fill="#f2f231"/>
    <rect id="Rectángulo_34868" data-name="Rectángulo 34868" width="164.4" height="58.225" transform="translate(-6243.125 -9110.451)" fill="#f2f231"/>
    <rect id="Rectángulo_34871" data-name="Rectángulo 34871" width="164.4" height="58.225" transform="translate(-6049.043 -9029.393)" fill="#f2f231"/>
    <rect id="Rectángulo_34873" data-name="Rectángulo 34873" width="164.4" height="58.225" transform="translate(-5853.818 -8948.335)" fill="#f2f231"/>
    <rect id="Rectángulo_34872" data-name="Rectángulo 34872" width="164.4" height="58.225" transform="translate(-6049.043 -8948.335)" fill="#1c954d"/>
    <rect id="Rectángulo_34869" data-name="Rectángulo 34869" width="164.4" height="58.225" transform="translate(-6243.125 -9189.225)" fill="#f1a40b"/>
    <rect id="Rectángulo_34870" data-name="Rectángulo 34870" width="164.4" height="58.225" transform="translate(-6047.901 -9110.451)" fill="#f16f0b"/>
    <rect id="Rectángulo_34875" data-name="Rectángulo 34875" width="164.4" height="58.225" transform="translate(-6047.901 -9190.367)" fill="#f10b0b"/>
    <rect id="Rectángulo_34876" data-name="Rectángulo 34876" width="164.4" height="58.225" transform="translate(-5853.818 -9190.367)" fill="#f10b0b"/>
    <rect id="Rectángulo_34877" data-name="Rectángulo 34877" width="164.4" height="58.225" transform="translate(-5853.818 -9110.451)" fill="#f10b0b"/>
    <rect id="Rectángulo_34874" data-name="Rectángulo 34874" width="164.4" height="58.225" transform="translate(-5853.818 -9029.393)" fill="#f16f0b"/>
    <rect id="Rectángulo_34863" data-name="Rectángulo 34863" width="167.825" height="58.225" transform="translate(-6439.492 -9108.167)" fill="#25c766"/>
    <rect id="Rectángulo_34864" data-name="Rectángulo 34864" width="167.825" height="58.225" transform="translate(-6439.492 -9029.393)" fill="#25c766"/>
    <rect id="Rectángulo_34865" data-name="Rectángulo 34865" width="167.825" height="58.225" transform="translate(-6439.492 -8950.617)" fill="#25c766"/>
    <rect id="Rectángulo_34866" data-name="Rectángulo 34866" width="164.4" height="58.225" transform="translate(-6243.125 -8950.617)" fill="#25c766"/>
    <rect id="Rectángulo_34867" data-name="Rectángulo 34867" width="164.4" height="58.225" transform="translate(-6243.125 -9029.393)" fill="#25c766"/>
    <path id="Trazado_636019" data-name="Trazado 636019" d="M15.712,7.359,19.2,18.241l3.48-10.882h4.963V23H23.865V19.348l.365-7.477L20.449,23H17.957L14.165,11.86l.365,7.487V23H10.76V7.359ZM35.5,23.215a5.975,5.975,0,0,1-4.329-1.6,5.509,5.509,0,0,1-1.654-4.152v-.3a7.138,7.138,0,0,1,.661-3.147A4.834,4.834,0,0,1,32.1,11.909a5.821,5.821,0,0,1,3.008-.747,5.031,5.031,0,0,1,3.867,1.52A5.973,5.973,0,0,1,40.4,16.92v1.407H33.2a2.609,2.609,0,0,0,.849,1.536,2.525,2.525,0,0,0,1.7.559,3.254,3.254,0,0,0,2.686-1.2l1.654,1.955a4.624,4.624,0,0,1-1.917,1.488A6.48,6.48,0,0,1,35.5,23.215Zm-.408-9.26q-1.59,0-1.891,2.105h3.652v-.279a1.793,1.793,0,0,0-.44-1.348A1.753,1.753,0,0,0,35.091,13.955ZM41.4,17.1a7.1,7.1,0,0,1,1.192-4.351,3.925,3.925,0,0,1,3.33-1.59,3.338,3.338,0,0,1,2.621,1.225V6.5h3.631V23H48.916l-.183-1.246A3.428,3.428,0,0,1,45.9,23.215a3.918,3.918,0,0,1-3.287-1.59A7.325,7.325,0,0,1,41.4,17.1Zm3.62.226q0,3.094,1.8,3.094a1.782,1.782,0,0,0,1.719-1.01V14.986a1.734,1.734,0,0,0-1.7-1.031q-1.676,0-1.815,2.707Z" transform="translate(-6386.976 -9174.384)" fill="#12263f"/>
    <path id="Trazado_636025" data-name="Trazado 636025" d="M15.712,7.359,19.2,18.241l3.48-10.882h4.963V23H23.865V19.348l.365-7.477L20.449,23H17.957L14.165,11.86l.365,7.487V23H10.76V7.359ZM35.5,23.215a5.975,5.975,0,0,1-4.329-1.6,5.509,5.509,0,0,1-1.654-4.152v-.3a7.138,7.138,0,0,1,.661-3.147A4.834,4.834,0,0,1,32.1,11.909a5.821,5.821,0,0,1,3.008-.747,5.031,5.031,0,0,1,3.867,1.52A5.973,5.973,0,0,1,40.4,16.92v1.407H33.2a2.609,2.609,0,0,0,.849,1.536,2.525,2.525,0,0,0,1.7.559,3.254,3.254,0,0,0,2.686-1.2l1.654,1.955a4.624,4.624,0,0,1-1.917,1.488A6.48,6.48,0,0,1,35.5,23.215Zm-.408-9.26q-1.59,0-1.891,2.105h3.652v-.279a1.793,1.793,0,0,0-.44-1.348A1.753,1.753,0,0,0,35.091,13.955ZM41.4,17.1a7.1,7.1,0,0,1,1.192-4.351,3.925,3.925,0,0,1,3.33-1.59,3.338,3.338,0,0,1,2.621,1.225V6.5h3.631V23H48.916l-.183-1.246A3.428,3.428,0,0,1,45.9,23.215a3.918,3.918,0,0,1-3.287-1.59A7.325,7.325,0,0,1,41.4,17.1Zm3.62.226q0,3.094,1.8,3.094a1.782,1.782,0,0,0,1.719-1.01V14.986a1.734,1.734,0,0,0-1.7-1.031q-1.676,0-1.815,2.707Z" transform="translate(-6194.034 -9095.608)" fill="#12263f"/>
    <path id="Trazado_636029" data-name="Trazado 636029" d="M15.712,7.359,19.2,18.241l3.48-10.882h4.963V23H23.865V19.348l.365-7.477L20.449,23H17.957L14.165,11.86l.365,7.487V23H10.76V7.359ZM35.5,23.215a5.975,5.975,0,0,1-4.329-1.6,5.509,5.509,0,0,1-1.654-4.152v-.3a7.138,7.138,0,0,1,.661-3.147A4.834,4.834,0,0,1,32.1,11.909a5.821,5.821,0,0,1,3.008-.747,5.031,5.031,0,0,1,3.867,1.52A5.973,5.973,0,0,1,40.4,16.92v1.407H33.2a2.609,2.609,0,0,0,.849,1.536,2.525,2.525,0,0,0,1.7.559,3.254,3.254,0,0,0,2.686-1.2l1.654,1.955a4.624,4.624,0,0,1-1.917,1.488A6.48,6.48,0,0,1,35.5,23.215Zm-.408-9.26q-1.59,0-1.891,2.105h3.652v-.279a1.793,1.793,0,0,0-.44-1.348A1.753,1.753,0,0,0,35.091,13.955ZM41.4,17.1a7.1,7.1,0,0,1,1.192-4.351,3.925,3.925,0,0,1,3.33-1.59,3.338,3.338,0,0,1,2.621,1.225V6.5h3.631V23H48.916l-.183-1.246A3.428,3.428,0,0,1,45.9,23.215a3.918,3.918,0,0,1-3.287-1.59A7.325,7.325,0,0,1,41.4,17.1Zm3.62.226q0,3.094,1.8,3.094a1.782,1.782,0,0,0,1.719-1.01V14.986a1.734,1.734,0,0,0-1.7-1.031q-1.676,0-1.815,2.707Z" transform="translate(-5999.951 -9014.551)" fill="#12263f"/>
    <path id="Trazado_636034" data-name="Trazado 636034" d="M15.712,7.359,19.2,18.241l3.48-10.882h4.963V23H23.865V19.348l.365-7.477L20.449,23H17.957L14.165,11.86l.365,7.487V23H10.76V7.359ZM35.5,23.215a5.975,5.975,0,0,1-4.329-1.6,5.509,5.509,0,0,1-1.654-4.152v-.3a7.138,7.138,0,0,1,.661-3.147A4.834,4.834,0,0,1,32.1,11.909a5.821,5.821,0,0,1,3.008-.747,5.031,5.031,0,0,1,3.867,1.52A5.973,5.973,0,0,1,40.4,16.92v1.407H33.2a2.609,2.609,0,0,0,.849,1.536,2.525,2.525,0,0,0,1.7.559,3.254,3.254,0,0,0,2.686-1.2l1.654,1.955a4.624,4.624,0,0,1-1.917,1.488A6.48,6.48,0,0,1,35.5,23.215Zm-.408-9.26q-1.59,0-1.891,2.105h3.652v-.279a1.793,1.793,0,0,0-.44-1.348A1.753,1.753,0,0,0,35.091,13.955ZM41.4,17.1a7.1,7.1,0,0,1,1.192-4.351,3.925,3.925,0,0,1,3.33-1.59,3.338,3.338,0,0,1,2.621,1.225V6.5h3.631V23H48.916l-.183-1.246A3.428,3.428,0,0,1,45.9,23.215a3.918,3.918,0,0,1-3.287-1.59A7.325,7.325,0,0,1,41.4,17.1Zm3.62.226q0,3.094,1.8,3.094a1.782,1.782,0,0,0,1.719-1.01V14.986a1.734,1.734,0,0,0-1.7-1.031q-1.676,0-1.815,2.707Z" transform="translate(-5804.727 -8933.492)" fill="#12263f"/>
    <path id="Trazado_636033" data-name="Trazado 636033" d="M16.222,20.1h6.563V23H12.452V7.359h3.771Zm7.53-3.019a6.86,6.86,0,0,1,.677-3.1,4.84,4.84,0,0,1,1.944-2.089,5.856,5.856,0,0,1,2.976-.73,5.344,5.344,0,0,1,4.114,1.617,6.2,6.2,0,0,1,1.5,4.4v.129a6.019,6.019,0,0,1-1.509,4.313,5.359,5.359,0,0,1-4.087,1.6,5.42,5.42,0,0,1-3.985-1.488,5.819,5.819,0,0,1-1.622-4.034Zm3.62.226a4.325,4.325,0,0,0,.5,2.363,1.682,1.682,0,0,0,1.493.752q1.934,0,1.977-2.976v-.365q0-3.126-2-3.126-1.815,0-1.966,2.7ZM46.6,18.23l1.171-6.854h3.47L48.5,23H45.441l-1.923-6.9L41.585,23H38.523L35.784,11.377h3.47L40.4,18.392l1.848-7.015h2.524Z" transform="translate(-5999.951 -8933.492)" fill="#fff"/>
    <path id="Trazado_636020" data-name="Trazado 636020" d="M22.362,23H18.613V16.469H13.059V23H9.288V7.359h3.771v6.209h5.554V7.359h3.749ZM28.4,23H24.768V11.377H28.4ZM24.553,8.38a1.616,1.616,0,0,1,.559-1.268,2.375,2.375,0,0,1,2.9,0,1.616,1.616,0,0,1,.559,1.268,1.616,1.616,0,0,1-.559,1.268,2.375,2.375,0,0,1-2.9,0A1.616,1.616,0,0,1,24.553,8.38ZM30.2,17.1a7.848,7.848,0,0,1,.58-3.115A4.67,4.67,0,0,1,32.448,11.9a4.389,4.389,0,0,1,2.524-.736,3.49,3.49,0,0,1,2.836,1.225l.129-1.01h3.287V22.56a4.9,4.9,0,0,1-.714,2.669,4.584,4.584,0,0,1-2.068,1.74,7.6,7.6,0,0,1-3.137.607,6.557,6.557,0,0,1-2.476-.483A4.47,4.47,0,0,1,31,25.836l1.515-2.127A3.319,3.319,0,0,0,35.177,24.9a2.156,2.156,0,0,0,2.406-2.471v-.365a3.4,3.4,0,0,1-2.632,1.149,4.2,4.2,0,0,1-3.437-1.627A6.743,6.743,0,0,1,30.2,17.231Zm3.631.226a4.135,4.135,0,0,0,.537,2.261,1.7,1.7,0,0,0,1.5.833,1.923,1.923,0,0,0,1.708-.784V14.75a1.875,1.875,0,0,0-1.687-.795,1.706,1.706,0,0,0-1.515.865A4.715,4.715,0,0,0,33.834,17.328Zm12.987-4.705a3.973,3.973,0,0,1,5.865-.322,5.116,5.116,0,0,1,1,3.362V23H50.055V15.749a2.046,2.046,0,0,0-.376-1.359,1.616,1.616,0,0,0-1.278-.435,1.74,1.74,0,0,0-1.579.709V23H43.2V6.5h3.62Z" transform="translate(-6194.034 -9174.384)" fill="#12263f"/>
    <path id="Trazado_636035" data-name="Trazado 636035" d="M16.212,28H11.6V8.8h4.614Zm7.211-14.265.145,1.674a4.9,4.9,0,0,1,4.074-1.938,3.611,3.611,0,0,1,3.652,2.149,4.747,4.747,0,0,1,4.192-2.149q4.337,0,4.456,5.247V28H35.486V19a2.719,2.719,0,0,0-.369-1.6,1.571,1.571,0,0,0-1.345-.5,2.1,2.1,0,0,0-1.964,1.173l.013.185V28H27.365V19.022a2.858,2.858,0,0,0-.356-1.622,1.567,1.567,0,0,0-1.358-.5A2.131,2.131,0,0,0,23.7,18.073V28H19.257V13.735Zm32.3,7.238a8.6,8.6,0,0,1-1.5,5.306,4.8,4.8,0,0,1-4.041,1.984,4.112,4.112,0,0,1-3.23-1.437v6.658H42.513V13.735h4.153l.132,1.318a4.113,4.113,0,0,1,3.362-1.582,4.836,4.836,0,0,1,4.1,1.945,8.708,8.708,0,0,1,1.463,5.346ZM51.28,20.7q0-3.8-2.215-3.8a2.091,2.091,0,0,0-2.109,1.134v5.616a2.159,2.159,0,0,0,2.136,1.187q2.123,0,2.188-3.665ZM65.716,28a5.016,5.016,0,0,1-.422-1.279,4.131,4.131,0,0,1-3.428,1.542,5.061,5.061,0,0,1-3.428-1.219,3.882,3.882,0,0,1-1.411-3.065,3.989,3.989,0,0,1,1.714-3.507,8.731,8.731,0,0,1,4.983-1.187H65.1V18.53q0-1.974-1.7-1.974a1.39,1.39,0,0,0-1.582,1.563H57.371a3.983,3.983,0,0,1,1.76-3.358,7.4,7.4,0,0,1,4.489-1.29A6.485,6.485,0,0,1,67.931,14.8a4.629,4.629,0,0,1,1.622,3.652V24.77a6.467,6.467,0,0,0,.606,3.006V28Zm-2.782-2.9a2.478,2.478,0,0,0,1.378-.356,2.231,2.231,0,0,0,.784-.8V21.659H63.8q-2.32,0-2.32,2.083a1.272,1.272,0,0,0,.409.982A1.479,1.479,0,0,0,62.934,25.1Zm15.108-.264a1.976,1.976,0,0,0,1.45-.508,1.861,1.861,0,0,0,.5-1.417H84.16a4.932,4.932,0,0,1-1.681,3.85,6.252,6.252,0,0,1-4.331,1.5,6.331,6.331,0,0,1-4.9-1.951,7.688,7.688,0,0,1-1.793-5.405v-.185a8.689,8.689,0,0,1,.8-3.817,5.807,5.807,0,0,1,2.3-2.544,6.86,6.86,0,0,1,3.56-.89,6.174,6.174,0,0,1,4.417,1.542,5.471,5.471,0,0,1,1.635,4.179H79.994a2.439,2.439,0,0,0-.541-1.7A1.866,1.866,0,0,0,78,16.9q-1.727,0-2.017,2.2a15.535,15.535,0,0,0-.092,1.925,6.1,6.1,0,0,0,.514,2.979A1.78,1.78,0,0,0,78.043,24.836Zm13.17-14.647v3.546H93.56V16.82H91.213v6.526a1.666,1.666,0,0,0,.29,1.121,1.556,1.556,0,0,0,1.147.316,6.518,6.518,0,0,0,1.107-.079v3.177a8.2,8.2,0,0,1-2.5.382,4.654,4.654,0,0,1-3.388-1.081A4.431,4.431,0,0,1,86.77,23.9V16.82H84.951V13.735H86.77V10.189Z" transform="translate(-6117.542 -8869.56)" fill="#12263f"/>
    <path id="Trazado_636018" data-name="Trazado 636018" d="M31,24.44h8.055V28H26.371V8.8H31ZM45.487,28H41.031V13.735h4.456Zm-4.72-17.943A1.983,1.983,0,0,1,41.453,8.5a2.915,2.915,0,0,1,3.56,0,1.983,1.983,0,0,1,.686,1.556,1.983,1.983,0,0,1-.686,1.556,2.915,2.915,0,0,1-3.56,0A1.983,1.983,0,0,1,40.768,10.057Zm13.184,12.63L52.7,23.939V28H48.256V7.737H52.7V18.495l.448-.593L56.5,13.735h5.326l-5,5.867L62.151,28H57.062ZM69.89,28.264a7.333,7.333,0,0,1-5.313-1.958,6.761,6.761,0,0,1-2.03-5.1v-.369a8.76,8.76,0,0,1,.811-3.863,5.933,5.933,0,0,1,2.366-2.591,7.144,7.144,0,0,1,3.691-.916,6.175,6.175,0,0,1,4.746,1.865,7.331,7.331,0,0,1,1.74,5.2v1.727H67.069A3.2,3.2,0,0,0,68.11,24.15a3.1,3.1,0,0,0,2.083.686,3.993,3.993,0,0,0,3.3-1.477l2.03,2.4a5.675,5.675,0,0,1-2.353,1.826A7.952,7.952,0,0,1,69.89,28.264Zm-.5-11.364q-1.951,0-2.32,2.584h4.482v-.343a2.2,2.2,0,0,0-.541-1.655A2.151,2.151,0,0,0,69.389,16.9ZM82.375,28H77.919V7.75h4.456ZM89.8,28H85.341V13.735H89.8Zm-4.72-17.943A1.983,1.983,0,0,1,85.763,8.5a2.915,2.915,0,0,1,3.56,0,1.983,1.983,0,0,1,.686,1.556,1.983,1.983,0,0,1-.686,1.556,2.915,2.915,0,0,1-3.56,0A1.983,1.983,0,0,1,85.078,10.057Zm11.8,5.208a4.876,4.876,0,0,1,7.2-.4A6.279,6.279,0,0,1,105.3,19v9h-4.456V19.1a2.511,2.511,0,0,0-.461-1.668,1.983,1.983,0,0,0-1.569-.534,2.136,2.136,0,0,0-1.938.87V28H92.434V7.75h4.443Zm10.336,5.471a8.419,8.419,0,0,1,.831-3.8,5.94,5.94,0,0,1,2.386-2.564,7.187,7.187,0,0,1,3.652-.9,6.559,6.559,0,0,1,5.049,1.984,7.614,7.614,0,0,1,1.846,5.4v.158a7.387,7.387,0,0,1-1.852,5.293,6.576,6.576,0,0,1-5.016,1.958,6.651,6.651,0,0,1-4.891-1.826,7.142,7.142,0,0,1-1.991-4.95Zm4.443.277a5.308,5.308,0,0,0,.62,2.9,2.064,2.064,0,0,0,1.833.923q2.373,0,2.426-3.652v-.448q0-3.836-2.452-3.836-2.228,0-2.413,3.309Zm10.718-.277a8.419,8.419,0,0,1,.831-3.8,5.94,5.94,0,0,1,2.386-2.564,7.187,7.187,0,0,1,3.652-.9,6.559,6.559,0,0,1,5.049,1.984,7.614,7.614,0,0,1,1.846,5.4v.158a7.387,7.387,0,0,1-1.852,5.293,6.576,6.576,0,0,1-5.016,1.958,6.651,6.651,0,0,1-4.891-1.826,7.142,7.142,0,0,1-1.991-4.95Zm4.443.277a5.308,5.308,0,0,0,.62,2.9,2.064,2.064,0,0,0,1.833.923q2.373,0,2.426-3.652v-.448q0-3.836-2.452-3.836-2.228,0-2.413,3.309Zm10.718-.25A8.714,8.714,0,0,1,139,15.423a4.817,4.817,0,0,1,4.087-1.951,4.1,4.1,0,0,1,3.217,1.5V7.75h4.456V28h-3.995l-.224-1.529a4.207,4.207,0,0,1-3.48,1.793,4.808,4.808,0,0,1-4.034-1.951A8.99,8.99,0,0,1,137.535,20.762Zm4.443.277q0,3.8,2.215,3.8A2.187,2.187,0,0,0,146.3,23.6V18.165a2.128,2.128,0,0,0-2.083-1.266q-2.057,0-2.228,3.322Z" transform="translate(-6500 -8944.909) rotate(-90)" fill="#12263f"/>
    <path id="Trazado_636017" data-name="Trazado 636017" d="M20.7,23.456H17.917V31H12.776V9.672h8.394A9.368,9.368,0,0,1,27.1,11.355a5.7,5.7,0,0,1,2.139,4.756,6.925,6.925,0,0,1-.9,3.688,6.394,6.394,0,0,1-2.82,2.371l4.453,8.612V31H24.465ZM17.917,19.5h3.252a2.919,2.919,0,0,0,2.2-.771,2.98,2.98,0,0,0,.74-2.151,3.015,3.015,0,0,0-.747-2.166,2.892,2.892,0,0,0-2.2-.786H17.917ZM37.327,31H32.375V15.15h4.951ZM32.082,11.063a2.2,2.2,0,0,1,.762-1.729,3.239,3.239,0,0,1,3.955,0,2.2,2.2,0,0,1,.762,1.729,2.2,2.2,0,0,1-.762,1.729,3.239,3.239,0,0,1-3.955,0A2.2,2.2,0,0,1,32.082,11.063ZM48.664,26.547a1.14,1.14,0,0,0-.659-1.011,10.027,10.027,0,0,0-2.5-.791,11.422,11.422,0,0,1-3.047-1.077,5.1,5.1,0,0,1-1.831-1.619,3.865,3.865,0,0,1-.63-2.183,4.381,4.381,0,0,1,1.8-3.6,7.422,7.422,0,0,1,4.717-1.414,8.223,8.223,0,0,1,5.039,1.421,4.443,4.443,0,0,1,1.9,3.735H48.5q0-1.9-2.007-1.9a1.989,1.989,0,0,0-1.3.432,1.338,1.338,0,0,0-.527,1.077,1.228,1.228,0,0,0,.645,1.069,6.09,6.09,0,0,0,2.058.674,17.785,17.785,0,0,1,2.483.63q3.574,1.23,3.574,4.409a4.151,4.151,0,0,1-1.926,3.53,8.447,8.447,0,0,1-4.988,1.362,8.62,8.62,0,0,1-3.633-.732,6.075,6.075,0,0,1-2.49-1.992,4.511,4.511,0,0,1-.894-2.651h4.614a1.908,1.908,0,0,0,.732,1.6,3.013,3.013,0,0,0,1.8.505,2.37,2.37,0,0,0,1.516-.41A1.312,1.312,0,0,0,48.664,26.547ZM62.1,25.1l-1.392,1.392V31H55.769V8.485h4.937V20.438l.5-.659,3.721-4.629h5.918L65.29,21.669,71.208,31H65.554ZM86.589,9.672,91.35,24.511,96.1,9.672h6.768V31H97.707V26.02l.5-10.2L93.049,31h-3.4L84.48,15.81l.5,10.21V31H79.836V9.672ZM114.831,31a5.574,5.574,0,0,1-.469-1.421,4.59,4.59,0,0,1-3.809,1.714,5.623,5.623,0,0,1-3.809-1.355,4.313,4.313,0,0,1-1.567-3.406,4.433,4.433,0,0,1,1.9-3.9,9.7,9.7,0,0,1,5.537-1.318h1.523v-.839q0-2.193-1.89-2.193a1.545,1.545,0,0,0-1.758,1.737h-4.937a4.425,4.425,0,0,1,1.956-3.731,8.218,8.218,0,0,1,4.988-1.434,7.205,7.205,0,0,1,4.79,1.479,5.144,5.144,0,0,1,1.8,4.058v7.017a7.186,7.186,0,0,0,.674,3.34V31Zm-3.091-3.223a2.754,2.754,0,0,0,1.531-.4,2.479,2.479,0,0,0,.872-.894V23.954h-1.436q-2.578,0-2.578,2.314a1.413,1.413,0,0,0,.454,1.091A1.643,1.643,0,0,0,111.741,27.777ZM127.576,11.21v3.94h2.607v3.428h-2.607v7.251a1.851,1.851,0,0,0,.322,1.245,1.729,1.729,0,0,0,1.274.352,7.242,7.242,0,0,0,1.23-.088v3.53a9.11,9.11,0,0,1-2.783.425,5.171,5.171,0,0,1-3.765-1.2,4.923,4.923,0,0,1-1.216-3.647V18.578h-2.021V15.15h2.021V11.21Zm14.136,8.408-1.626-.117q-2.329,0-2.988,1.465V31h-4.937V15.15h4.629l.161,2.036a3.823,3.823,0,0,1,3.472-2.329,4.814,4.814,0,0,1,1.377.176ZM148.7,31h-4.951V15.15H148.7Zm-5.244-19.937a2.2,2.2,0,0,1,.762-1.729,3.239,3.239,0,0,1,3.955,0,2.2,2.2,0,0,1,.762,1.729,2.2,2.2,0,0,1-.762,1.729,3.239,3.239,0,0,1-3.955,0A2.2,2.2,0,0,1,143.455,11.063Zm14.707,8.452,2.3-4.365h5.127l-4.175,7.72,4.38,8.13h-5.156l-2.49-4.687L155.7,31h-5.186l4.395-8.13-4.16-7.72h5.186Z" transform="translate(-6176.909 -9268)" fill="#12263f"/>
    <path id="Trazado_636024" data-name="Trazado 636024" d="M22.362,23H18.613V16.469H13.059V23H9.288V7.359h3.771v6.209h5.554V7.359h3.749ZM28.4,23H24.768V11.377H28.4ZM24.553,8.38a1.616,1.616,0,0,1,.559-1.268,2.375,2.375,0,0,1,2.9,0,1.616,1.616,0,0,1,.559,1.268,1.616,1.616,0,0,1-.559,1.268,2.375,2.375,0,0,1-2.9,0A1.616,1.616,0,0,1,24.553,8.38ZM30.2,17.1a7.848,7.848,0,0,1,.58-3.115A4.67,4.67,0,0,1,32.448,11.9a4.389,4.389,0,0,1,2.524-.736,3.49,3.49,0,0,1,2.836,1.225l.129-1.01h3.287V22.56a4.9,4.9,0,0,1-.714,2.669,4.584,4.584,0,0,1-2.068,1.74,7.6,7.6,0,0,1-3.137.607,6.557,6.557,0,0,1-2.476-.483A4.47,4.47,0,0,1,31,25.836l1.515-2.127A3.319,3.319,0,0,0,35.177,24.9a2.156,2.156,0,0,0,2.406-2.471v-.365a3.4,3.4,0,0,1-2.632,1.149,4.2,4.2,0,0,1-3.437-1.627A6.743,6.743,0,0,1,30.2,17.231Zm3.631.226a4.135,4.135,0,0,0,.537,2.261,1.7,1.7,0,0,0,1.5.833,1.923,1.923,0,0,0,1.708-.784V14.75a1.875,1.875,0,0,0-1.687-.795,1.706,1.706,0,0,0-1.515.865A4.715,4.715,0,0,0,33.834,17.328Zm12.987-4.705a3.973,3.973,0,0,1,5.865-.322,5.116,5.116,0,0,1,1,3.362V23H50.055V15.749a2.046,2.046,0,0,0-.376-1.359,1.616,1.616,0,0,0-1.278-.435,1.74,1.74,0,0,0-1.579.709V23H43.2V6.5h3.62Z" transform="translate(-5998.81 -9095.608)" fill="#12263f"/>
    <path id="Trazado_636021" data-name="Trazado 636021" d="M25.427,17.7a5.712,5.712,0,0,1-.881,2.884,5.316,5.316,0,0,1-2.261,1.939,7.7,7.7,0,0,1-3.325.688,6.142,6.142,0,0,1-4.855-2.009,8.294,8.294,0,0,1-1.772-5.672v-.773a9.467,9.467,0,0,1,.8-4.023,6.064,6.064,0,0,1,2.3-2.664,6.429,6.429,0,0,1,3.48-.94,6.741,6.741,0,0,1,4.576,1.5,5.921,5.921,0,0,1,1.966,4.13H21.7a2.8,2.8,0,0,0-.72-2.052,2.96,2.96,0,0,0-2.062-.623,2.252,2.252,0,0,0-2.062,1.053,6.766,6.766,0,0,0-.687,3.362v1.106a7.487,7.487,0,0,0,.628,3.577,2.3,2.3,0,0,0,2.165,1.074,2.9,2.9,0,0,0,1.987-.612,2.6,2.6,0,0,0,.73-1.944Zm8.647-3.051-1.192-.086a2.142,2.142,0,0,0-2.191,1.074V23h-3.62V11.377h3.395l.118,1.493a2.8,2.8,0,0,1,2.546-1.708,3.53,3.53,0,0,1,1.01.129ZM39.2,23H35.568V11.377H39.2ZM35.353,8.38a1.616,1.616,0,0,1,.559-1.268,2.375,2.375,0,0,1,2.9,0,1.616,1.616,0,0,1,.559,1.268,1.616,1.616,0,0,1-.559,1.268,2.375,2.375,0,0,1-2.9,0A1.616,1.616,0,0,1,35.353,8.38Zm10.291.107v2.89h1.912v2.514H45.644v5.317a1.358,1.358,0,0,0,.236.913,1.268,1.268,0,0,0,.935.258,5.311,5.311,0,0,0,.9-.064V22.9a6.681,6.681,0,0,1-2.041.312,3.792,3.792,0,0,1-2.761-.881,3.61,3.61,0,0,1-.892-2.675V13.891H40.542V11.377h1.482V8.487ZM52.8,23H49.168V11.377H52.8ZM48.953,8.38a1.616,1.616,0,0,1,.559-1.268,2.375,2.375,0,0,1,2.9,0A1.616,1.616,0,0,1,52.97,8.38a1.616,1.616,0,0,1-.559,1.268,2.375,2.375,0,0,1-2.9,0A1.616,1.616,0,0,1,48.953,8.38ZM59.942,20.422a1.61,1.61,0,0,0,1.182-.414,1.517,1.517,0,0,0,.408-1.155h3.395a4.018,4.018,0,0,1-1.37,3.137,5.1,5.1,0,0,1-3.529,1.225,5.158,5.158,0,0,1-4-1.59,6.264,6.264,0,0,1-1.461-4.4v-.15a7.08,7.08,0,0,1,.65-3.11A4.732,4.732,0,0,1,57.1,11.887a5.589,5.589,0,0,1,2.9-.725,5.03,5.03,0,0,1,3.6,1.257,4.458,4.458,0,0,1,1.332,3.405H61.532a1.987,1.987,0,0,0-.44-1.386,1.52,1.52,0,0,0-1.182-.483q-1.407,0-1.644,1.794a12.659,12.659,0,0,0-.075,1.568,4.972,4.972,0,0,0,.419,2.428A1.45,1.45,0,0,0,59.942,20.422ZM73,23a4.087,4.087,0,0,1-.344-1.042,3.366,3.366,0,0,1-2.793,1.257,4.124,4.124,0,0,1-2.793-.994,3.163,3.163,0,0,1-1.149-2.5,3.251,3.251,0,0,1,1.4-2.857,7.114,7.114,0,0,1,4.061-.967H72.5v-.615q0-1.608-1.386-1.608a1.133,1.133,0,0,0-1.289,1.274H66.2a3.245,3.245,0,0,1,1.434-2.736A6.027,6.027,0,0,1,71.3,11.162a5.284,5.284,0,0,1,3.513,1.085,3.772,3.772,0,0,1,1.321,2.976v5.146a5.269,5.269,0,0,0,.494,2.449V23Zm-2.267-2.363a2.019,2.019,0,0,0,1.123-.29,1.818,1.818,0,0,0,.639-.655V17.833H71.447q-1.891,0-1.891,1.7a1.036,1.036,0,0,0,.333.8A1.205,1.205,0,0,0,70.738,20.637ZM81.953,23H78.322V6.5h3.631Z" transform="translate(-6014.793 -9175.525)" fill="#fff"/>
    <path id="Trazado_636022" data-name="Trazado 636022" d="M25.427,17.7a5.712,5.712,0,0,1-.881,2.884,5.316,5.316,0,0,1-2.261,1.939,7.7,7.7,0,0,1-3.325.688,6.142,6.142,0,0,1-4.855-2.009,8.294,8.294,0,0,1-1.772-5.672v-.773a9.467,9.467,0,0,1,.8-4.023,6.064,6.064,0,0,1,2.3-2.664,6.429,6.429,0,0,1,3.48-.94,6.741,6.741,0,0,1,4.576,1.5,5.921,5.921,0,0,1,1.966,4.13H21.7a2.8,2.8,0,0,0-.72-2.052,2.96,2.96,0,0,0-2.062-.623,2.252,2.252,0,0,0-2.062,1.053,6.766,6.766,0,0,0-.687,3.362v1.106a7.487,7.487,0,0,0,.628,3.577,2.3,2.3,0,0,0,2.165,1.074,2.9,2.9,0,0,0,1.987-.612,2.6,2.6,0,0,0,.73-1.944Zm8.647-3.051-1.192-.086a2.142,2.142,0,0,0-2.191,1.074V23h-3.62V11.377h3.395l.118,1.493a2.8,2.8,0,0,1,2.546-1.708,3.53,3.53,0,0,1,1.01.129ZM39.2,23H35.568V11.377H39.2ZM35.353,8.38a1.616,1.616,0,0,1,.559-1.268,2.375,2.375,0,0,1,2.9,0,1.616,1.616,0,0,1,.559,1.268,1.616,1.616,0,0,1-.559,1.268,2.375,2.375,0,0,1-2.9,0A1.616,1.616,0,0,1,35.353,8.38Zm10.291.107v2.89h1.912v2.514H45.644v5.317a1.358,1.358,0,0,0,.236.913,1.268,1.268,0,0,0,.935.258,5.311,5.311,0,0,0,.9-.064V22.9a6.681,6.681,0,0,1-2.041.312,3.792,3.792,0,0,1-2.761-.881,3.61,3.61,0,0,1-.892-2.675V13.891H40.542V11.377h1.482V8.487ZM52.8,23H49.168V11.377H52.8ZM48.953,8.38a1.616,1.616,0,0,1,.559-1.268,2.375,2.375,0,0,1,2.9,0A1.616,1.616,0,0,1,52.97,8.38a1.616,1.616,0,0,1-.559,1.268,2.375,2.375,0,0,1-2.9,0A1.616,1.616,0,0,1,48.953,8.38ZM59.942,20.422a1.61,1.61,0,0,0,1.182-.414,1.517,1.517,0,0,0,.408-1.155h3.395a4.018,4.018,0,0,1-1.37,3.137,5.1,5.1,0,0,1-3.529,1.225,5.158,5.158,0,0,1-4-1.59,6.264,6.264,0,0,1-1.461-4.4v-.15a7.08,7.08,0,0,1,.65-3.11A4.732,4.732,0,0,1,57.1,11.887a5.589,5.589,0,0,1,2.9-.725,5.03,5.03,0,0,1,3.6,1.257,4.458,4.458,0,0,1,1.332,3.405H61.532a1.987,1.987,0,0,0-.44-1.386,1.52,1.52,0,0,0-1.182-.483q-1.407,0-1.644,1.794a12.659,12.659,0,0,0-.075,1.568,4.972,4.972,0,0,0,.419,2.428A1.45,1.45,0,0,0,59.942,20.422ZM73,23a4.087,4.087,0,0,1-.344-1.042,3.366,3.366,0,0,1-2.793,1.257,4.124,4.124,0,0,1-2.793-.994,3.163,3.163,0,0,1-1.149-2.5,3.251,3.251,0,0,1,1.4-2.857,7.114,7.114,0,0,1,4.061-.967H72.5v-.615q0-1.608-1.386-1.608a1.133,1.133,0,0,0-1.289,1.274H66.2a3.245,3.245,0,0,1,1.434-2.736A6.027,6.027,0,0,1,71.3,11.162a5.284,5.284,0,0,1,3.513,1.085,3.772,3.772,0,0,1,1.321,2.976v5.146a5.269,5.269,0,0,0,.494,2.449V23Zm-2.267-2.363a2.019,2.019,0,0,0,1.123-.29,1.818,1.818,0,0,0,.639-.655V17.833H71.447q-1.891,0-1.891,1.7a1.036,1.036,0,0,0,.333.8A1.205,1.205,0,0,0,70.738,20.637ZM81.953,23H78.322V6.5h3.631Z" transform="translate(-5820.71 -9175.525)" fill="#fff"/>
    <path id="Trazado_636023" data-name="Trazado 636023" d="M25.427,17.7a5.712,5.712,0,0,1-.881,2.884,5.316,5.316,0,0,1-2.261,1.939,7.7,7.7,0,0,1-3.325.688,6.142,6.142,0,0,1-4.855-2.009,8.294,8.294,0,0,1-1.772-5.672v-.773a9.467,9.467,0,0,1,.8-4.023,6.064,6.064,0,0,1,2.3-2.664,6.429,6.429,0,0,1,3.48-.94,6.741,6.741,0,0,1,4.576,1.5,5.921,5.921,0,0,1,1.966,4.13H21.7a2.8,2.8,0,0,0-.72-2.052,2.96,2.96,0,0,0-2.062-.623,2.252,2.252,0,0,0-2.062,1.053,6.766,6.766,0,0,0-.687,3.362v1.106a7.487,7.487,0,0,0,.628,3.577,2.3,2.3,0,0,0,2.165,1.074,2.9,2.9,0,0,0,1.987-.612,2.6,2.6,0,0,0,.73-1.944Zm8.647-3.051-1.192-.086a2.142,2.142,0,0,0-2.191,1.074V23h-3.62V11.377h3.395l.118,1.493a2.8,2.8,0,0,1,2.546-1.708,3.53,3.53,0,0,1,1.01.129ZM39.2,23H35.568V11.377H39.2ZM35.353,8.38a1.616,1.616,0,0,1,.559-1.268,2.375,2.375,0,0,1,2.9,0,1.616,1.616,0,0,1,.559,1.268,1.616,1.616,0,0,1-.559,1.268,2.375,2.375,0,0,1-2.9,0A1.616,1.616,0,0,1,35.353,8.38Zm10.291.107v2.89h1.912v2.514H45.644v5.317a1.358,1.358,0,0,0,.236.913,1.268,1.268,0,0,0,.935.258,5.311,5.311,0,0,0,.9-.064V22.9a6.681,6.681,0,0,1-2.041.312,3.792,3.792,0,0,1-2.761-.881,3.61,3.61,0,0,1-.892-2.675V13.891H40.542V11.377h1.482V8.487ZM52.8,23H49.168V11.377H52.8ZM48.953,8.38a1.616,1.616,0,0,1,.559-1.268,2.375,2.375,0,0,1,2.9,0A1.616,1.616,0,0,1,52.97,8.38a1.616,1.616,0,0,1-.559,1.268,2.375,2.375,0,0,1-2.9,0A1.616,1.616,0,0,1,48.953,8.38ZM59.942,20.422a1.61,1.61,0,0,0,1.182-.414,1.517,1.517,0,0,0,.408-1.155h3.395a4.018,4.018,0,0,1-1.37,3.137,5.1,5.1,0,0,1-3.529,1.225,5.158,5.158,0,0,1-4-1.59,6.264,6.264,0,0,1-1.461-4.4v-.15a7.08,7.08,0,0,1,.65-3.11A4.732,4.732,0,0,1,57.1,11.887a5.589,5.589,0,0,1,2.9-.725,5.03,5.03,0,0,1,3.6,1.257,4.458,4.458,0,0,1,1.332,3.405H61.532a1.987,1.987,0,0,0-.44-1.386,1.52,1.52,0,0,0-1.182-.483q-1.407,0-1.644,1.794a12.659,12.659,0,0,0-.075,1.568,4.972,4.972,0,0,0,.419,2.428A1.45,1.45,0,0,0,59.942,20.422ZM73,23a4.087,4.087,0,0,1-.344-1.042,3.366,3.366,0,0,1-2.793,1.257,4.124,4.124,0,0,1-2.793-.994,3.163,3.163,0,0,1-1.149-2.5,3.251,3.251,0,0,1,1.4-2.857,7.114,7.114,0,0,1,4.061-.967H72.5v-.615q0-1.608-1.386-1.608a1.133,1.133,0,0,0-1.289,1.274H66.2a3.245,3.245,0,0,1,1.434-2.736A6.027,6.027,0,0,1,71.3,11.162a5.284,5.284,0,0,1,3.513,1.085,3.772,3.772,0,0,1,1.321,2.976v5.146a5.269,5.269,0,0,0,.494,2.449V23Zm-2.267-2.363a2.019,2.019,0,0,0,1.123-.29,1.818,1.818,0,0,0,.639-.655V17.833H71.447q-1.891,0-1.891,1.7a1.036,1.036,0,0,0,.333.8A1.205,1.205,0,0,0,70.738,20.637ZM81.953,23H78.322V6.5h3.631Z" transform="translate(-5820.71 -9095.608)" fill="#fff"/>
    <path id="Trazado_636030" data-name="Trazado 636030" d="M22.362,23H18.613V16.469H13.059V23H9.288V7.359h3.771v6.209h5.554V7.359h3.749ZM28.4,23H24.768V11.377H28.4ZM24.553,8.38a1.616,1.616,0,0,1,.559-1.268,2.375,2.375,0,0,1,2.9,0,1.616,1.616,0,0,1,.559,1.268,1.616,1.616,0,0,1-.559,1.268,2.375,2.375,0,0,1-2.9,0A1.616,1.616,0,0,1,24.553,8.38ZM30.2,17.1a7.848,7.848,0,0,1,.58-3.115A4.67,4.67,0,0,1,32.448,11.9a4.389,4.389,0,0,1,2.524-.736,3.49,3.49,0,0,1,2.836,1.225l.129-1.01h3.287V22.56a4.9,4.9,0,0,1-.714,2.669,4.584,4.584,0,0,1-2.068,1.74,7.6,7.6,0,0,1-3.137.607,6.557,6.557,0,0,1-2.476-.483A4.47,4.47,0,0,1,31,25.836l1.515-2.127A3.319,3.319,0,0,0,35.177,24.9a2.156,2.156,0,0,0,2.406-2.471v-.365a3.4,3.4,0,0,1-2.632,1.149,4.2,4.2,0,0,1-3.437-1.627A6.743,6.743,0,0,1,30.2,17.231Zm3.631.226a4.135,4.135,0,0,0,.537,2.261,1.7,1.7,0,0,0,1.5.833,1.923,1.923,0,0,0,1.708-.784V14.75a1.875,1.875,0,0,0-1.687-.795,1.706,1.706,0,0,0-1.515.865A4.715,4.715,0,0,0,33.834,17.328Zm12.987-4.705a3.973,3.973,0,0,1,5.865-.322,5.116,5.116,0,0,1,1,3.362V23H50.055V15.749a2.046,2.046,0,0,0-.376-1.359,1.616,1.616,0,0,0-1.278-.435,1.74,1.74,0,0,0-1.579.709V23H43.2V6.5h3.62Z" transform="translate(-5804.727 -9014.551)" fill="#12263f"/>
    <path id="Trazado_636026" data-name="Trazado 636026" d="M16.222,20.1h6.563V23H12.452V7.359h3.771Zm7.53-3.019a6.86,6.86,0,0,1,.677-3.1,4.84,4.84,0,0,1,1.944-2.089,5.856,5.856,0,0,1,2.976-.73,5.344,5.344,0,0,1,4.114,1.617,6.2,6.2,0,0,1,1.5,4.4v.129a6.019,6.019,0,0,1-1.509,4.313,5.359,5.359,0,0,1-4.087,1.6,5.42,5.42,0,0,1-3.985-1.488,5.819,5.819,0,0,1-1.622-4.034Zm3.62.226a4.325,4.325,0,0,0,.5,2.363,1.682,1.682,0,0,0,1.493.752q1.934,0,1.977-2.976v-.365q0-3.126-2-3.126-1.815,0-1.966,2.7ZM46.6,18.23l1.171-6.854h3.47L48.5,23H45.441l-1.923-6.9L41.585,23H38.523L35.784,11.377h3.47L40.4,18.392l1.848-7.015h2.524Z" transform="translate(-6386.976 -9093.325)" fill="#fff"/>
    <path id="Trazado_636027" data-name="Trazado 636027" d="M16.222,20.1h6.563V23H12.452V7.359h3.771Zm7.53-3.019a6.86,6.86,0,0,1,.677-3.1,4.84,4.84,0,0,1,1.944-2.089,5.856,5.856,0,0,1,2.976-.73,5.344,5.344,0,0,1,4.114,1.617,6.2,6.2,0,0,1,1.5,4.4v.129a6.019,6.019,0,0,1-1.509,4.313,5.359,5.359,0,0,1-4.087,1.6,5.42,5.42,0,0,1-3.985-1.488,5.819,5.819,0,0,1-1.622-4.034Zm3.62.226a4.325,4.325,0,0,0,.5,2.363,1.682,1.682,0,0,0,1.493.752q1.934,0,1.977-2.976v-.365q0-3.126-2-3.126-1.815,0-1.966,2.7ZM46.6,18.23l1.171-6.854h3.47L48.5,23H45.441l-1.923-6.9L41.585,23H38.523L35.784,11.377h3.47L40.4,18.392l1.848-7.015h2.524Z" transform="translate(-6386.976 -9014.551)" fill="#fff"/>
    <path id="Trazado_636031" data-name="Trazado 636031" d="M16.222,20.1h6.563V23H12.452V7.359h3.771Zm7.53-3.019a6.86,6.86,0,0,1,.677-3.1,4.84,4.84,0,0,1,1.944-2.089,5.856,5.856,0,0,1,2.976-.73,5.344,5.344,0,0,1,4.114,1.617,6.2,6.2,0,0,1,1.5,4.4v.129a6.019,6.019,0,0,1-1.509,4.313,5.359,5.359,0,0,1-4.087,1.6,5.42,5.42,0,0,1-3.985-1.488,5.819,5.819,0,0,1-1.622-4.034Zm3.62.226a4.325,4.325,0,0,0,.5,2.363,1.682,1.682,0,0,0,1.493.752q1.934,0,1.977-2.976v-.365q0-3.126-2-3.126-1.815,0-1.966,2.7ZM46.6,18.23l1.171-6.854h3.47L48.5,23H45.441l-1.923-6.9L41.585,23H38.523L35.784,11.377h3.47L40.4,18.392l1.848-7.015h2.524Z" transform="translate(-6386.976 -8935.776)" fill="#fff"/>
    <path id="Trazado_636032" data-name="Trazado 636032" d="M16.222,20.1h6.563V23H12.452V7.359h3.771Zm7.53-3.019a6.86,6.86,0,0,1,.677-3.1,4.84,4.84,0,0,1,1.944-2.089,5.856,5.856,0,0,1,2.976-.73,5.344,5.344,0,0,1,4.114,1.617,6.2,6.2,0,0,1,1.5,4.4v.129a6.019,6.019,0,0,1-1.509,4.313,5.359,5.359,0,0,1-4.087,1.6,5.42,5.42,0,0,1-3.985-1.488,5.819,5.819,0,0,1-1.622-4.034Zm3.62.226a4.325,4.325,0,0,0,.5,2.363,1.682,1.682,0,0,0,1.493.752q1.934,0,1.977-2.976v-.365q0-3.126-2-3.126-1.815,0-1.966,2.7ZM46.6,18.23l1.171-6.854h3.47L48.5,23H45.441l-1.923-6.9L41.585,23H38.523L35.784,11.377h3.47L40.4,18.392l1.848-7.015h2.524Z" transform="translate(-6194.034 -8935.776)" fill="#fff"/>
    <path id="Trazado_636028" data-name="Trazado 636028" d="M16.222,20.1h6.563V23H12.452V7.359h3.771Zm7.53-3.019a6.86,6.86,0,0,1,.677-3.1,4.84,4.84,0,0,1,1.944-2.089,5.856,5.856,0,0,1,2.976-.73,5.344,5.344,0,0,1,4.114,1.617,6.2,6.2,0,0,1,1.5,4.4v.129a6.019,6.019,0,0,1-1.509,4.313,5.359,5.359,0,0,1-4.087,1.6,5.42,5.42,0,0,1-3.985-1.488,5.819,5.819,0,0,1-1.622-4.034Zm3.62.226a4.325,4.325,0,0,0,.5,2.363,1.682,1.682,0,0,0,1.493.752q1.934,0,1.977-2.976v-.365q0-3.126-2-3.126-1.815,0-1.966,2.7ZM46.6,18.23l1.171-6.854h3.47L48.5,23H45.441l-1.923-6.9L41.585,23H38.523L35.784,11.377h3.47L40.4,18.392l1.848-7.015h2.524Z" transform="translate(-6194.034 -9014.551)" fill="#fff"/>
    <line id="Línea_141" data-name="Línea 141" y1="289.983" transform="translate(-6460.612 -9173.813)" fill="none" stroke="#342287" stroke-width="3"/>
    <path id="Polígono_5" data-name="Polígono 5" d="M9.133,0l9.133,22.833H0Z" transform="translate(-6469.175 -9194.934)" fill="#342287"/>
    <g id="Grupo_84095" data-name="Grupo 84095" transform="translate(-5680 -8879.055) rotate(90)">
      <line id="Línea_142" data-name="Línea 142" y1="747.286" transform="translate(8.925 21.121)" fill="none" stroke="#342287" stroke-width="3"/>
      <path id="Polígono_6" data-name="Polígono 6" d="M9,0l9,22H0Z" transform="translate(0.055 0)" fill="#342287"/>
    </g>
  </g>
</svg>
