<svg xmlns="http://www.w3.org/2000/svg" xmlns:xlink="http://www.w3.org/1999/xlink" width="190" height="164" viewBox="0 0 190 164">
  <defs>
    <clipPath id="clip-path">
      <rect id="Rectángulo_34894" data-name="Rectángulo 34894" width="190" height="164" transform="translate(180 1158)" fill="#fff" stroke="#707070" stroke-width="1"/>
    </clipPath>
  </defs>
  <g id="Enmascarar_grupo_54" data-name="Enmascarar grupo 54" transform="translate(-180 -1158)" clip-path="url(#clip-path)">
    <g id="Grupo_949067" data-name="Grupo 949067">
      <path id="hacker-working-in-the-darkness" d="M0,0H74.525a79.915,79.915,0,0,0,75.167,52.785,80.61,80.61,0,0,0,10.445-.68v72.539q-5.177.351-10.445.356A152.145,152.145,0,0,1,0,0Z" transform="translate(305 1158) rotate(90)" fill="#583ae2" style="mix-blend-mode: multiply;isolation: isolate"/>
      <g id="metrica" transform="translate(241.448 1194.543)">
        <path id="Trazado_114913" data-name="Trazado 114913" d="M36.554,72.855a3.494,3.494,0,0,1-2.121-6.272l30.537-23.29a3.494,3.494,0,0,1,3.573-.4L97.073,55.95l28.846-24.2A3.494,3.494,0,1,1,130.41,37.1L99.873,62.722a3.493,3.493,0,0,1-3.7.5L67.542,50.12,38.671,72.139a3.477,3.477,0,0,1-2.116.716Zm0,0" transform="translate(-25.748 -24.093)" fill="#5b6fa0"/>
        <path id="Trazado_114914" data-name="Trazado 114914" d="M22.365,304.766H10.925A3.426,3.426,0,0,0,7.5,308.192v29.715a3.425,3.425,0,0,0,3.425,3.425h11.44a3.425,3.425,0,0,0,3.426-3.425V308.192A3.426,3.426,0,0,0,22.365,304.766Zm0,0" transform="translate(-5.841 -237.373)" fill="#2ff980"/>
        <path id="Trazado_114915" data-name="Trazado 114915" d="M160.462,199.445h-11.44a3.426,3.426,0,0,0-3.425,3.426v53a3.425,3.425,0,0,0,3.425,3.425h11.44a3.425,3.425,0,0,0,3.425-3.425v-53A3.426,3.426,0,0,0,160.462,199.445Zm0,0" transform="translate(-113.401 -155.341)" fill="#1c954d"/>
        <path id="Trazado_114916" data-name="Trazado 114916" d="M298.556,262.641h-11.44a3.425,3.425,0,0,0-3.425,3.425V305.1a3.425,3.425,0,0,0,3.425,3.425h11.44a3.426,3.426,0,0,0,3.426-3.425V266.066A3.426,3.426,0,0,0,298.556,262.641Zm0,0" transform="translate(-220.958 -204.563)" fill="#583ae2"/>
        <path id="Trazado_114917" data-name="Trazado 114917" d="M436.651,146.785h-11.44a3.426,3.426,0,0,0-3.426,3.426V214.86a3.425,3.425,0,0,0,3.426,3.425h11.44a3.425,3.425,0,0,0,3.425-3.425V150.21a3.425,3.425,0,0,0-3.425-3.425Zm0,0" transform="translate(-328.515 -114.326)" fill="#40327b"/>
        <path id="Trazado_114918" data-name="Trazado 114918" d="M26.976,174.156A8.676,8.676,0,1,1,18.3,165.48,8.676,8.676,0,0,1,26.976,174.156Zm0,0" transform="translate(-7.497 -128.888)" fill="#89dbd4"/>
        <path id="Trazado_114919" data-name="Trazado 114919" d="M22.723,181.022a8.676,8.676,0,0,1-7.933-12.187A8.676,8.676,0,1,0,26.234,180.28a8.654,8.654,0,0,1-3.511.742Zm0,0" transform="translate(-7.497 -131.501)" fill="#7ac5bf"/>
        <path id="Trazado_114920" data-name="Trazado 114920" d="M165.073,68.835A8.675,8.675,0,1,1,156.4,60.16,8.675,8.675,0,0,1,165.073,68.835Zm0,0" transform="translate(-115.057 -46.857)" fill="#89dbd4"/>
        <path id="Trazado_114921" data-name="Trazado 114921" d="M160.82,75.7a8.675,8.675,0,0,1-7.933-12.186,8.675,8.675,0,1,0,11.444,11.444,8.639,8.639,0,0,1-3.51.742Zm0,0" transform="translate(-115.056 -49.471)" fill="#7ac5bf"/>
        <path id="Trazado_114922" data-name="Trazado 114922" d="M303.167,132.028a8.676,8.676,0,1,1-8.676-8.676A8.676,8.676,0,0,1,303.167,132.028Zm0,0" transform="translate(-222.613 -96.075)" fill="#89dbd4"/>
        <path id="Trazado_114923" data-name="Trazado 114923" d="M298.914,138.9a8.675,8.675,0,0,1-7.933-12.186,8.675,8.675,0,1,0,11.445,11.444,8.657,8.657,0,0,1-3.511.742Zm0,0" transform="translate(-222.613 -98.691)" fill="#7ac5bf"/>
        <path id="Trazado_114924" data-name="Trazado 114924" d="M441.261,16.175A8.676,8.676,0,1,1,432.586,7.5a8.675,8.675,0,0,1,8.675,8.675Zm0,0" transform="translate(-330.169 -5.842)" fill="#89dbd4"/>
        <path id="Trazado_114925" data-name="Trazado 114925" d="M437.009,23.042a8.674,8.674,0,0,1-7.933-12.187A8.675,8.675,0,1,0,440.52,22.3a8.64,8.64,0,0,1-3.511.743Zm0,0" transform="translate(-330.17 -8.455)" fill="#7ac5bf"/>
        <path id="Trazado_114926" data-name="Trazado 114926" d="M16.524,297.266H5.083A5.089,5.089,0,0,0,0,302.35v29.715a5.089,5.089,0,0,0,5.083,5.083h11.44a5.089,5.089,0,0,0,5.084-5.083V302.35A5.09,5.09,0,0,0,16.524,297.266Zm1.767,34.8a1.769,1.769,0,0,1-1.767,1.766H5.083a1.769,1.769,0,0,1-1.766-1.766V302.35a1.769,1.769,0,0,1,1.766-1.767h11.44a1.77,1.77,0,0,1,1.767,1.767Zm0,0" transform="translate(0 -231.531)"/>
        <path id="Trazado_114927" data-name="Trazado 114927" d="M154.621,191.945h-11.44a5.089,5.089,0,0,0-5.083,5.083v9.43a1.659,1.659,0,1,0,3.317,0v-9.43a1.769,1.769,0,0,1,1.766-1.766h11.44a1.769,1.769,0,0,1,1.766,1.766v53.005a1.769,1.769,0,0,1-1.766,1.766h-11.44a1.769,1.769,0,0,1-1.766-1.766V213.093a1.659,1.659,0,0,0-3.317,0v36.941a5.089,5.089,0,0,0,5.083,5.084h11.44a5.089,5.089,0,0,0,5.083-5.084v-53a5.089,5.089,0,0,0-5.083-5.084Zm0,0" transform="translate(-107.559 -149.5)"/>
        <path id="Trazado_114928" data-name="Trazado 114928" d="M292.715,255.141h-11.44a5.089,5.089,0,0,0-5.083,5.083v39.031a5.089,5.089,0,0,0,5.083,5.083h11.44a5.089,5.089,0,0,0,5.084-5.083V260.224A5.089,5.089,0,0,0,292.715,255.141Zm1.767,44.114a1.769,1.769,0,0,1-1.767,1.766h-11.44a1.769,1.769,0,0,1-1.766-1.766V260.224a1.768,1.768,0,0,1,1.766-1.767h11.44a1.769,1.769,0,0,1,1.767,1.767Zm0,0" transform="translate(-215.116 -198.721)"/>
        <path id="Trazado_114929" data-name="Trazado 114929" d="M430.81,139.285H419.37a5.09,5.09,0,0,0-5.084,5.083v47.39a1.658,1.658,0,1,0,3.317,0v-47.39a1.769,1.769,0,0,1,1.767-1.766h11.44a1.769,1.769,0,0,1,1.766,1.766v64.65a1.769,1.769,0,0,1-1.766,1.766H419.37a1.769,1.769,0,0,1-1.767-1.766V198.392a1.658,1.658,0,1,0-3.317,0v10.626a5.09,5.09,0,0,0,5.084,5.083h11.44a5.089,5.089,0,0,0,5.083-5.083v-64.65A5.089,5.089,0,0,0,430.81,139.285Zm0,0" transform="translate(-322.673 -108.485)"/>
        <path id="Trazado_114930" data-name="Trazado 114930" d="M12.459,34.934A10.334,10.334,0,1,0,22.793,45.268a10.448,10.448,0,0,0-.089-1.334L39,31.507a10.308,10.308,0,0,0,9.993-1.119l14.254,6.523a10.333,10.333,0,1,0,20.461-2.767l16.812-14.106a10.334,10.334,0,1,0-6.782-9.7,10.4,10.4,0,0,0,.162,1.809L77.086,26.248a10.308,10.308,0,0,0-9.547,1.3L53.285,21.02a10.332,10.332,0,1,0-20.533,2.293L16.457,35.739a10.277,10.277,0,0,0-4-.805ZM104.072,3.317a7.017,7.017,0,0,1,0,14.034,7.1,7.1,0,0,1-7.018-7.018A7.025,7.025,0,0,1,104.072,3.317ZM95.1,15.462c.028.048.058.1.086.143a10.391,10.391,0,0,0,2.273,2.669L82.5,30.823c-.028-.048-.481-.769-.7-1.065a10.427,10.427,0,0,0-1.656-1.747ZM66.518,35.849a7.017,7.017,0,0,1,14.032.1,7.017,7.017,0,1,1-14.033,0c0-.035,0-.069,0-.1Zm-15-8.033a10.417,10.417,0,0,0,1.49-3.274l12.045,5.511a10.417,10.417,0,0,0-1.406,2.895q-.067.219-.124.441L51.477,27.877c.014-.02.027-.041.041-.061ZM43,14.961a7.025,7.025,0,0,1,7.017,7.017,7.017,7.017,0,1,1-14.034,0A7.025,7.025,0,0,1,43,14.961ZM33.8,26.686c.02.038.042.076.062.114a10.4,10.4,0,0,0,2.165,2.8L21.657,40.561a10.5,10.5,0,0,0-2.227-2.918ZM16.64,39.694a6.957,6.957,0,1,1-4.182-1.443,6.909,6.909,0,0,1,4.182,1.443Zm0,0" transform="translate(-1.655)"/>
      </g>
    </g>
  </g>
</svg>
