<svg xmlns="http://www.w3.org/2000/svg" width="107" height="92.951" viewBox="0 0 107 92.951">
  <g id="filtro-de-agua" transform="translate(-1 -5.036)">
    <path id="Trazado_722744" data-name="Trazado 722744" d="M88.122,46V59.78H64.008V46h-6.89V59.78H2v6.89H105.555V59.78H95.012V46Z" transform="translate(0.722 29.595)" fill="#666"/>
    <path id="Trazado_722745" data-name="Trazado 722745" d="M68.669,74.9l-.861.579a17.089,17.089,0,0,1-18.947,0L48,74.9V9.445l.861-.579a17.089,17.089,0,0,1,18.947,0l.861.579Z" transform="translate(33.955 0.697)" fill="#9e9e9e"/>
    <path id="Trazado_722746" data-name="Trazado 722746" d="M58.062,10A7.062,7.062,0,0,0,51,17.062V74.635a16.951,16.951,0,0,0,14.641-2.048l.861-.579V10Z" transform="translate(36.122 3.586)" fill="#b2b2b2"/>
    <path id="Trazado_722747" data-name="Trazado 722747" d="M50.669,74.9l-.861.579a17.089,17.089,0,0,1-18.947,0L30,74.9V9.445l.861-.579a17.089,17.089,0,0,1,18.947,0l.861.579Z" transform="translate(20.951 0.697)" fill="#9e9e9e"/>
    <path id="Trazado_722748" data-name="Trazado 722748" d="M40.062,10A7.062,7.062,0,0,0,33,17.062V74.635a16.951,16.951,0,0,0,14.641-2.048l.861-.579V10Z" transform="translate(23.118 3.586)" fill="#b2b2b2"/>
    <path id="Trazado_722749" data-name="Trazado 722749" d="M6,59.559V38.89A6.89,6.89,0,0,1,12.89,32H23.224a6.89,6.89,0,0,1,6.89,6.89V59.559Z" transform="translate(3.612 19.48)" fill="#f79b31"/>
    <path id="Trazado_722750" data-name="Trazado 722750" d="M9,57.392H27.947V36.722a6.845,6.845,0,0,0-.186-1.536A6.845,6.845,0,0,0,26.224,35H15.89A6.89,6.89,0,0,0,9,41.89Z" transform="translate(5.78 21.648)" fill="#fcb732"/>
    <path id="Trazado_722751" data-name="Trazado 722751" d="M20,39H37.224v6.89H20Z" transform="translate(13.726 24.537)" fill="#666"/>
    <path id="Trazado_722752" data-name="Trazado 722752" d="M20,41H37.224v3.445H20Z" transform="translate(13.726 25.982)" fill="#707070"/>
    <path id="Trazado_722753" data-name="Trazado 722753" d="M5,58.335V48H32.559V58.335Z" transform="translate(2.89 31.039)" fill="#004180"/>
    <path id="Trazado_722754" data-name="Trazado 722754" d="M42,13H52.335v6.89H42Z" transform="translate(29.62 5.754)" fill="#666"/>
    <path id="Trazado_722755" data-name="Trazado 722755" d="M40.89,26.89a3.445,3.445,0,1,1-6.89,0c0-1.9,3.445-6.89,3.445-6.89S40.89,25,40.89,26.89Z" transform="translate(23.841 10.811)" fill="#3693cf"/>
    <path id="Trazado_722756" data-name="Trazado 722756" d="M58.89,26.89a3.445,3.445,0,0,1-6.89,0c0-1.9,3.445-6.89,3.445-6.89S58.89,25,58.89,26.89Z" transform="translate(36.845 10.811)" fill="#3693cf"/>
    <path id="Trazado_722757" data-name="Trazado 722757" d="M9,48H29.669V58.335H9Z" transform="translate(5.78 31.039)" fill="#004c9d"/>
    <path id="Trazado_722758" data-name="Trazado 722758" d="M42,15H52.335v3.445H42Z" transform="translate(29.62 7.199)" fill="#707070"/>
    <path id="Trazado_722759" data-name="Trazado 722759" d="M35,26.339a3.445,3.445,0,0,0,2.584,3.323,3.445,3.445,0,0,0,2.584-3.323,16.019,16.019,0,0,0-2.584-5.576A16.019,16.019,0,0,0,35,26.339Z" transform="translate(24.563 11.362)" fill="#8adef9"/>
    <path id="Trazado_722760" data-name="Trazado 722760" d="M53,26.339a3.445,3.445,0,0,0,2.584,3.323,3.445,3.445,0,0,0,2.584-3.323,16.019,16.019,0,0,0-2.584-5.576A16.019,16.019,0,0,0,53,26.339Z" transform="translate(37.567 11.362)" fill="#8adef9"/>
    <path id="Trazado_722761" data-name="Trazado 722761" d="M106.278,87.652H97.457v-7.62a18.8,18.8,0,0,0,5.255-2.425l.861-.579a1.722,1.722,0,0,0,.773-1.433V10.142a1.723,1.723,0,0,0-.767-1.433l-.861-.579a19.1,19.1,0,0,0-20.842,0l-.861.579a1.722,1.722,0,0,0-.784,1.433v6.89h-6.89v-6.89a1.723,1.723,0,0,0-.767-1.433l-.861-.579a19.1,19.1,0,0,0-20.842,0l-.861.579a1.722,1.722,0,0,0-.784,1.433V61.815H35.449V58.37a8.623,8.623,0,0,0-8.612-8.612H16.5A8.623,8.623,0,0,0,7.89,58.37V77.317a1.722,1.722,0,0,0-1.722,1.722v8.612H2.722A1.722,1.722,0,0,0,1,89.374v6.89a1.722,1.722,0,0,0,1.722,1.722H106.278A1.722,1.722,0,0,0,108,96.264v-6.89A1.722,1.722,0,0,0,106.278,87.652Zm-22.6-76.589.1-.067A15.59,15.59,0,0,1,100.8,11l.1.067v63.61l-.1.067a15.59,15.59,0,0,1-17.021,0l-.1-.067ZM66.453,80.032a18.8,18.8,0,0,0,5.255-2.425l.861-.579a1.722,1.722,0,0,0,.773-1.433V27.366h6.89V75.595A1.723,1.723,0,0,0,81,77.028l.861.579a18.8,18.8,0,0,0,5.262,2.425v7.62H66.453Zm13.78-59.555v3.445h-6.89V20.476ZM52.673,11.063l.1-.067A15.59,15.59,0,0,1,69.8,11l.1.067v63.61l-.1.067a15.59,15.59,0,0,1-17.021,0l-.1-.067ZM35.449,77.317V72.15h13.78v3.445A1.723,1.723,0,0,0,50,77.028l.861.579a18.8,18.8,0,0,0,5.262,2.425v7.62H37.171V79.039A1.722,1.722,0,0,0,35.449,77.317ZM49.228,65.26V68.7H35.449V65.26ZM11.335,58.37A5.167,5.167,0,0,1,16.5,53.2H26.837A5.167,5.167,0,0,1,32,58.37V77.317H11.335ZM9.612,80.762H33.726v6.89H9.612Zm94.943,13.78H4.445V91.1h53.4a1.722,1.722,0,0,0,1.722-1.722v-8.7c.57.052,1.144.088,1.722.088s1.152-.036,1.722-.088v8.7A1.722,1.722,0,0,0,64.73,91.1H88.845a1.722,1.722,0,0,0,1.722-1.722v-8.7c.57.052,1.144.088,1.722.088s1.152-.036,1.722-.088v8.7A1.722,1.722,0,0,0,95.734,91.1h8.821Z" transform="translate(0 0)"/>
    <path id="Trazado_722762" data-name="Trazado 722762" d="M38.167,32.76a5.167,5.167,0,0,0,5.167-5.167c0-2.2-2.622-6.235-3.75-7.868a1.788,1.788,0,0,0-2.835,0C35.622,21.358,33,25.392,33,27.593A5.167,5.167,0,0,0,38.167,32.76Zm0-8.864a12.918,12.918,0,0,1,1.722,3.7,1.722,1.722,0,1,1-3.445,0A12.844,12.844,0,0,1,38.167,23.9Z" transform="translate(23.118 10.108)"/>
    <path id="Trazado_722763" data-name="Trazado 722763" d="M56.167,32.76a5.167,5.167,0,0,0,5.167-5.167c0-2.2-2.622-6.235-3.75-7.868a1.788,1.788,0,0,0-2.835,0C53.622,21.358,51,25.392,51,27.593A5.167,5.167,0,0,0,56.167,32.76Zm0-8.864a12.918,12.918,0,0,1,1.722,3.7,1.722,1.722,0,1,1-3.445,0A12.844,12.844,0,0,1,56.167,23.9Z" transform="translate(36.122 10.108)"/>
  </g>
</svg>
