<svg xmlns="http://www.w3.org/2000/svg" width="132.628" height="113" viewBox="0 0 132.628 113">
  <g id="Grupo_950292" data-name="Grupo 950292" transform="translate(-180 -1831)">
    <path id="hacker-working-in-the-darkness" d="M0,103.527H61.723a66.233,66.233,0,0,1,70.905-43.154V.295Q128.34,0,123.978,0A126.009,126.009,0,0,0,0,103.527Z" transform="translate(312.628 1934.527) rotate(180)" fill="#c4baf5"/>
    <g id="Grupo_84088" data-name="Grupo 84088" transform="translate(-221 -766)">
      <rect id="Rectángulo_34429" data-name="Rectángulo 34429" width="92" height="92" transform="translate(421 2618)" fill="none"/>
      <g id="grafico" transform="translate(427.139 2621.406)">
        <path id="Trazado_113695" data-name="Trazado 113695" d="M10.323,9.04H77.739a5.2,5.2,0,0,1,5.2,5.2V56.948a5.2,5.2,0,0,1-5.2,5.2H10.323a5.2,5.2,0,0,1-5.2-5.2V14.242a5.2,5.2,0,0,1,5.2-5.2Z" transform="translate(-3.856 -3.855)" fill="#e0feec"/>
        <path id="Trazado_113696" data-name="Trazado 113696" d="M73.883,59.559H6.467A6.475,6.475,0,0,1,0,53.092V10.387A6.475,6.475,0,0,1,6.467,3.92H73.883a6.475,6.475,0,0,1,6.467,6.467V53.092A6.475,6.475,0,0,1,73.883,59.559ZM6.467,6.449a3.942,3.942,0,0,0-3.937,3.937V53.092A3.942,3.942,0,0,0,6.467,57.03H73.883a3.942,3.942,0,0,0,3.937-3.937V10.387a3.942,3.942,0,0,0-3.937-3.937Z"/>
        <path id="Trazado_113697" data-name="Trazado 113697" d="M140.244,224.043h11.064v13.093H140.244Z" transform="translate(-105.601 -165.748)" fill="#e0feec"/>
        <path id="Trazado_113698" data-name="Trazado 113698" d="M147.454,234.545H136.39a1.265,1.265,0,0,1-1.265-1.265V220.187a1.265,1.265,0,0,1,1.265-1.265h11.064a1.265,1.265,0,0,1,1.265,1.265V233.28A1.265,1.265,0,0,1,147.454,234.545Zm-9.8-2.529h8.535V221.451h-8.535Z" transform="translate(-101.747 -161.892)"/>
        <path id="Trazado_113699" data-name="Trazado 113699" d="M104.227,277.047h22.389a4.3,4.3,0,0,1,4.3,4.3v5.386H99.931v-5.386A4.3,4.3,0,0,1,104.227,277.047Z" transform="translate(-75.246 -205.659)" fill="#e0feec"/>
        <path id="Trazado_113700" data-name="Trazado 113700" d="M127.056,284.139H96.075a1.265,1.265,0,0,1-1.265-1.265v-5.385a5.567,5.567,0,0,1,5.561-5.56H122.76a5.567,5.567,0,0,1,5.561,5.56v5.385A1.265,1.265,0,0,1,127.056,284.139Zm-29.716-2.529h28.452v-4.121a3.035,3.035,0,0,0-3.032-3.031H100.371a3.035,3.035,0,0,0-3.032,3.031Z" transform="translate(-71.39 -201.805)"/>
        <path id="Trazado_113701" data-name="Trazado 113701" d="M74.415,157.393h5.621v7.584H74.415Z" transform="translate(-56.033 -115.562)" fill="#2ff980"/>
        <path id="Trazado_113702" data-name="Trazado 113702" d="M76.181,162.386H70.56a1.265,1.265,0,0,1-1.265-1.265v-7.584a1.265,1.265,0,0,1,1.265-1.265h5.622a1.265,1.265,0,0,1,1.265,1.265v7.584A1.265,1.265,0,0,1,76.181,162.386Zm-4.357-2.529h3.092V154.8H71.824Z" transform="translate(-52.178 -111.707)"/>
        <path id="Trazado_113703" data-name="Trazado 113703" d="M128.38,135.062H134v13.1H128.38Z" transform="translate(-96.668 -98.747)" fill="#2ff980"/>
        <path id="Trazado_113704" data-name="Trazado 113704" d="M130.146,145.572h-5.621a1.265,1.265,0,0,1-1.265-1.265v-13.1a1.265,1.265,0,0,1,1.265-1.265h5.622a1.265,1.265,0,0,1,1.265,1.265v13.1A1.265,1.265,0,0,1,130.146,145.572Zm-4.357-2.529h3.092V132.471h-3.092Z" transform="translate(-92.812 -94.892)"/>
        <path id="Trazado_113705" data-name="Trazado 113705" d="M182.345,92.725h5.621v23.558h-5.621Z" transform="translate(-137.302 -66.868)" fill="#2ff980"/>
        <path id="Trazado_113706" data-name="Trazado 113706" d="M184.11,113.693h-5.622a1.265,1.265,0,0,1-1.265-1.265V88.87a1.265,1.265,0,0,1,1.265-1.265h5.622a1.265,1.265,0,0,1,1.265,1.265v23.558A1.265,1.265,0,0,1,184.11,113.693Zm-4.357-2.529h3.092V90.134h-3.092Z" transform="translate(-133.446 -63.013)"/>
        <path id="Trazado_113707" data-name="Trazado 113707" d="M236.31,121.661h5.621v16.41H236.31Z" transform="translate(-177.937 -88.657)" fill="#2ff980"/>
        <path id="Trazado_113708" data-name="Trazado 113708" d="M238.076,135.482h-5.622a1.265,1.265,0,0,1-1.265-1.265v-16.41a1.265,1.265,0,0,1,1.265-1.265h5.622a1.265,1.265,0,0,1,1.265,1.265v16.41A1.265,1.265,0,0,1,238.076,135.482Zm-4.357-2.529h3.092V119.071h-3.092Z" transform="translate(-174.082 -84.802)"/>
        <path id="Trazado_113709" data-name="Trazado 113709" d="M96.753,77.448H37.212a1.265,1.265,0,0,1-1.265-1.265V40.735a1.265,1.265,0,1,1,2.529,0V74.918H96.753a1.265,1.265,0,0,1,0,2.529Z" transform="translate(-27.067 -26.768)"/>
        <path id="Trazado_113710" data-name="Trazado 113710" d="M81.937,65.373a1.265,1.265,0,0,1-.653-2.348l26.661-16.045a1.26,1.26,0,0,1,1.255-.028l13.33,7.232a1.265,1.265,0,1,1-1.207,2.223l-12.694-6.887L82.588,65.192A1.259,1.259,0,0,1,81.937,65.373Z" transform="translate(-60.744 -32.286)"/>
        <circle id="Elipse_4725" data-name="Elipse 4725" cx="3.32" cy="3.32" r="3.32" transform="translate(44.533 12.457)" fill="#fde05e"/>
        <path id="Trazado_113711" data-name="Trazado 113711" d="M179.747,42.529a4.585,4.585,0,1,1,4.585-4.585A4.585,4.585,0,0,1,179.747,42.529Zm0-6.64a2.055,2.055,0,1,0,2.055,2.055A2.055,2.055,0,0,0,179.747,35.889Z" transform="translate(-131.894 -22.168)"/>
        <circle id="Elipse_4726" data-name="Elipse 4726" cx="3.32" cy="3.32" r="3.32" transform="translate(57.864 20.479)" fill="#fde05e"/>
        <path id="Trazado_113712" data-name="Trazado 113712" d="M233.712,75.007a4.585,4.585,0,1,1,4.585-4.585A4.585,4.585,0,0,1,233.712,75.007Zm0-6.64a2.055,2.055,0,1,0,2.055,2.055A2.055,2.055,0,0,0,233.712,68.367Z" transform="translate(-172.528 -46.623)"/>
        <circle id="Elipse_4727" data-name="Elipse 4727" cx="3.32" cy="3.32" r="3.32" transform="translate(31.203 20.479)" fill="#fde05e"/>
        <path id="Trazado_113713" data-name="Trazado 113713" d="M125.782,75.007a4.585,4.585,0,1,1,4.585-4.585A4.585,4.585,0,0,1,125.782,75.007Zm0-6.64a2.055,2.055,0,1,0,2.055,2.055A2.055,2.055,0,0,0,125.782,68.367Z" transform="translate(-91.259 -46.623)"/>
        <circle id="Elipse_4728" data-name="Elipse 4728" cx="3.32" cy="3.32" r="3.32" transform="translate(17.873 28.502)" fill="#fde05e"/>
        <path id="Trazado_113714" data-name="Trazado 113714" d="M71.817,107.484A4.585,4.585,0,1,1,76.4,102.9,4.585,4.585,0,0,1,71.817,107.484Zm0-6.64a2.055,2.055,0,1,0,2.055,2.055A2.055,2.055,0,0,0,71.817,100.844Z" transform="translate(-50.624 -71.078)"/>
      </g>
    </g>
  </g>
</svg>
