<svg xmlns="http://www.w3.org/2000/svg" width="400" height="364" viewBox="0 0 400 364">
  <g id="Grupo_950277" data-name="Grupo 950277" transform="translate(-180 -1144)">
    <g id="Grupo_81220" data-name="Grupo 81220" transform="translate(-840 396)">
      <g id="Grupo_81218" data-name="Grupo 81218" transform="translate(20)">
        <g id="Elipse_4722" data-name="Elipse 4722" transform="translate(1315 1040)" fill="none" stroke="#583ae2" stroke-width="15">
          <circle cx="36" cy="36" r="36" stroke="none"/>
          <circle cx="36" cy="36" r="28.5" fill="none"/>
        </g>
        <circle id="Elipse_4723" data-name="Elipse 4723" cx="11.5" cy="11.5" r="11.5" transform="translate(1377 1021)" fill="#40327b"/>
        <circle id="Elipse_4724" data-name="Elipse 4724" cx="22.5" cy="22.5" r="22.5" transform="translate(1000 748)" fill="#1c954d"/>
      </g>
      <g id="Grupo_81221" data-name="Grupo 81221" transform="translate(493.703 627.074)">
        <path id="Trazado_113616" data-name="Trazado 113616" d="M593.218,390.044c-3.7-23.555-29.01-24.557-29.01-54.554s38.774-50.284,38.774-71.015-27.019-80.307,12.961-93.971c20.9-7.141,31.956,24.3,58.694,2.983,29.956-23.883,48.42-37.549,70.176-24.154,25.679,15.81,24.712,75.937,61.263,86.382s106.331,24.777,106.331,53.51-35.532,34.2-35.532,47.116,16.7,35.336,0,52.073-40.072,1.778-54.882,4.069c-30.989,4.795-42.424,49.76-76.977,66.308C694.236,483.114,605.164,466.015,593.218,390.044Z" transform="translate(-1.11 -3.229)" fill="#e6e1fb"/>
        <path id="Trazado_113617" data-name="Trazado 113617" d="M642.5,217.682c-3-8.68-2.734-17.222,2.772-22.862,6.4-6.555,11.234-4.414,11.479-15.576.248-11.357,13.69-19.78,27.256-11.815,7.95-2.741,15.717,7.346,16.247,15.529.842,12.985-10.362,28.081-2.285,36.992Z" transform="translate(-11.768 -6.051)" fill="#32293a"/>
        <g id="Grupo_81226" data-name="Grupo 81226" transform="translate(724.98 168.063)">
          <g id="Grupo_81221-2" data-name="Grupo 81221" transform="translate(0 20.327)">
            <path id="Trazado_113618" data-name="Trazado 113618" d="M901.955,200.007v85.887a12.079,12.079,0,0,1-12.06,12.1H765.076a12.079,12.079,0,0,1-12.06-12.1V200.007Z" transform="translate(-752.433 -199.424)" fill="#fffdf7"/>
            <path id="Trazado_113619" data-name="Trazado 113619" d="M889.8,298.479H764.98a12.676,12.676,0,0,1-12.641-12.68v-86.47h150.1V285.8A12.676,12.676,0,0,1,889.8,298.479ZM753.5,200.5v85.3a11.507,11.507,0,0,0,11.477,11.513H889.8A11.507,11.507,0,0,0,901.278,285.8V200.5Z" transform="translate(-752.339 -199.329)" fill="#32293a"/>
          </g>
          <g id="Grupo_81222" data-name="Grupo 81222">
            <path id="Trazado_113620" data-name="Trazado 113620" d="M901.955,188.48v8.231H753.016V188.48a12.079,12.079,0,0,1,12.06-12.1H889.895A12.079,12.079,0,0,1,901.955,188.48Z" transform="translate(-752.433 -175.8)" fill="#25c766"/>
            <path id="Trazado_113621" data-name="Trazado 113621" d="M902.441,197.2h-150.1v-8.815a12.675,12.675,0,0,1,12.641-12.679H889.8a12.675,12.675,0,0,1,12.641,12.679ZM753.5,196.033H901.278v-7.648A11.508,11.508,0,0,0,889.8,176.872H764.98A11.508,11.508,0,0,0,753.5,188.385Z" transform="translate(-752.339 -175.706)" fill="#25c766"/>
          </g>
          <g id="Grupo_81223" data-name="Grupo 81223" transform="translate(7.584 7.041)">
            <rect id="Rectángulo_34856" data-name="Rectángulo 34856" width="75.599" height="6.761" rx="3.38" transform="translate(0.582 0.583)" fill="#fffdf7"/>
            <path id="Trazado_113622" data-name="Trazado 113622" d="M833.961,191.816H765.108a3.963,3.963,0,0,1,0-7.927h68.854a3.963,3.963,0,0,1,0,7.927Zm-68.854-6.761a2.8,2.8,0,0,0,0,5.595h68.854a2.8,2.8,0,0,0,0-5.595Z" transform="translate(-761.153 -183.889)" fill="#32293a"/>
          </g>
          <g id="Grupo_81224" data-name="Grupo 81224" transform="translate(132.186 6.704)">
            <path id="Trazado_113623" data-name="Trazado 113623" d="M906.634,187.888a3.705,3.705,0,1,1,3.705,3.713A3.709,3.709,0,0,1,906.634,187.888Z" transform="translate(-906.052 -183.591)" fill="#fffdf7"/>
            <path id="Trazado_113624" data-name="Trazado 113624" d="M910.246,192.09a4.3,4.3,0,1,1,4.287-4.3A4.3,4.3,0,0,1,910.246,192.09Zm0-7.427a3.13,3.13,0,1,0,3.123,3.13A3.131,3.131,0,0,0,910.246,184.663Z" transform="translate(-905.958 -183.497)" fill="#32293a"/>
          </g>
          <g id="Grupo_81225" data-name="Grupo 81225" transform="translate(123.105 7.997)">
            <path id="Trazado_113625" data-name="Trazado 113625" d="M896.081,188.1a2.414,2.414,0,1,1,2.414,2.42A2.417,2.417,0,0,1,896.081,188.1Z" transform="translate(-895.499 -185.095)" fill="#fffdf7"/>
            <path id="Trazado_113626" data-name="Trazado 113626" d="M898.4,191.005a3,3,0,1,1,3-3A3,3,0,0,1,898.4,191.005Zm0-4.838A1.836,1.836,0,1,0,900.233,188,1.837,1.837,0,0,0,898.4,186.167Z" transform="translate(-895.405 -185)" fill="#32293a"/>
          </g>
          <rect id="Rectángulo_34857" data-name="Rectángulo 34857" width="59.616" height="32.156" rx="7.57" transform="translate(11.551 32.451)" fill="#e0feec"/>
          <rect id="Rectángulo_34858" data-name="Rectángulo 34858" width="59.616" height="32.156" rx="7.57" transform="translate(11.551 74.87)" fill="#e0feec"/>
          <rect id="Rectángulo_34859" data-name="Rectángulo 34859" width="59.617" height="32.156" rx="7.57" transform="translate(79.381 32.451)" fill="#e0feec"/>
          <rect id="Rectángulo_34860" data-name="Rectángulo 34860" width="59.617" height="32.156" rx="7.57" transform="translate(79.381 74.87)" fill="#e0feec"/>
        </g>
        <path id="Trazado_113627" data-name="Trazado 113627" d="M738.961,239.783l9.475,6.554,42.342-36.8a8.9,8.9,0,0,1,9.031-1.483l24.58,9.732a1.368,1.368,0,0,1,.707,1.918,5.32,5.32,0,0,1-2.238,2.492,7.294,7.294,0,0,1-3.933.263l2.25,5.393a1.44,1.44,0,0,1-.953,1.949c-1.673.441-3.7.472-5.021-.947-.228,1.4-4.243,2.661-6.044,1.686-.972,1.613-4.22,1.236-5.721,0a37.189,37.189,0,0,1-2.906-3.34,9.76,9.76,0,0,1-8.25,8.538c-1.754,1.937-23.266,22.615-34.75,33.634a14.151,14.151,0,0,1-15.985,2.523l-17-8.255Z" transform="translate(-23.481 -12.069)" fill="#f4c7a8"/>
        <g id="Grupo_81227" data-name="Grupo 81227" transform="translate(741.624 194.772)">
          <path id="Trazado_113628" data-name="Trazado 113628" d="M772.263,262.022a.583.583,0,0,1-.4-1c11.352-10.91,25.177-24.237,26.564-25.77a.578.578,0,0,1,.355-.186,9.144,9.144,0,0,0,7.747-8,.581.581,0,0,1,1.037-.323,34.584,34.584,0,0,0,2.819,3.25,3.827,3.827,0,0,0,2.921.646,2.365,2.365,0,0,0,1.689-.984.583.583,0,0,1,.49-.281.473.473,0,0,1,.5.268,2.3,2.3,0,0,0,2.488.7,4.018,4.018,0,0,0,2.735-1.675.581.581,0,0,1,1-.3,4.259,4.259,0,0,0,4.135.857,1.107,1.107,0,0,0,.744-.57,1.061,1.061,0,0,0,.037-.9l-2.151-5.157a.583.583,0,0,1,.743-.769,4.65,4.65,0,0,0,3.459-.237,4.081,4.081,0,0,0,1.822-1.947,1.035,1.035,0,0,0,.082-.87,1.087,1.087,0,0,0-.626-.654L806.172,208.5a8.311,8.311,0,0,0-8.442,1.388L773.5,230.944a.582.582,0,1,1-.761-.88L796.975,209a9.471,9.471,0,0,1,9.625-1.586l24.273,9.611a2.252,2.252,0,0,1,1.3,1.356,2.215,2.215,0,0,1-.173,1.836,5.223,5.223,0,0,1-2.3,2.4,5.556,5.556,0,0,1-3.229.556l1.719,4.122a2.229,2.229,0,0,1-.077,1.89,2.266,2.266,0,0,1-1.526,1.171,5.7,5.7,0,0,1-4.638-.666,6,6,0,0,1-3.245,1.792,3.612,3.612,0,0,1-3.2-.625,3.838,3.838,0,0,1-2,.931,4.954,4.954,0,0,1-3.858-.893,22.881,22.881,0,0,1-2.16-2.392,10.522,10.522,0,0,1-8.342,7.687c-2.028,2.137-15.422,15.051-26.474,25.671A.577.577,0,0,1,772.263,262.022Z" transform="translate(-771.681 -206.746)" fill="#32293a"/>
        </g>
        <g id="Grupo_81234" data-name="Grupo 81234" transform="translate(685.589 435.506)">
          <rect id="Rectángulo_34861" data-name="Rectángulo 34861" width="24.027" height="20.614" transform="translate(4.828 0)" fill="#f4c7a8"/>
          <path id="Trazado_113629" data-name="Trazado 113629" d="M706.988,503.44v-1.711a3.38,3.38,0,0,1,3.377-3.383h1.122A3.376,3.376,0,0,1,714.5,500.2l1.592,3.148A3.373,3.373,0,0,0,719.1,505.2h9.714a3.374,3.374,0,0,0,2.744-1.412l5.375-7.514a3.374,3.374,0,0,1,2.744-1.412h0a4.15,4.15,0,0,1,2.482,1.089c9.318,7.192,19.368,14.307,29.125,20.67,1.577,1.028,3.171,2.025,3.773,3.812l2.418,7.168H707.2Z" transform="translate(-706.621 -487.679)" fill="#583ae2"/>
          <g id="Grupo_81228" data-name="Grupo 81228" transform="translate(0 39.339)">
            <path id="Trazado_113630" data-name="Trazado 113630" d="M775.244,542.313h-65.93a2.76,2.76,0,0,1-2.754-2.76v-6.738a.582.582,0,1,1,1.163,0v6.738a1.593,1.593,0,0,0,1.59,1.594h65.93a1.593,1.593,0,0,0,1.59-1.594v-6.738a.582.582,0,1,1,1.163,0v6.738A2.76,2.76,0,0,1,775.244,542.313Z" transform="translate(-706.561 -532.232)" fill="#32293a"/>
          </g>
          <g id="Grupo_81229" data-name="Grupo 81229" transform="translate(0.367 25.447)">
            <path id="Trazado_113631" data-name="Trazado 113631" d="M720.838,530.88l-7.187-11.056a5.632,5.632,0,0,0-4.735-2.571h-1.927v-1.166h1.927a6.791,6.791,0,0,1,5.71,3.1l7.188,11.057Z" transform="translate(-706.988 -516.087)" fill="#32293a"/>
          </g>
          <g id="Grupo_81230" data-name="Grupo 81230" transform="translate(34.721 11.356)">
            <path id="Trazado_113632" data-name="Trazado 113632" d="M764.209,520.233a3.389,3.389,0,0,1-1.867-.56l-13.879-9.1a3.436,3.436,0,0,1-.889-4.9l4.36-5.962.939.689-4.36,5.962a2.271,2.271,0,0,0,.586,3.236l13.878,9.1a2.262,2.262,0,0,0,3.138-.665l3.57-5.523.976.634-3.571,5.523a3.4,3.4,0,0,1-2.166,1.491A3.491,3.491,0,0,1,764.209,520.233Z" transform="translate(-746.911 -499.712)" fill="#32293a"/>
          </g>
          <g id="Grupo_81231" data-name="Grupo 81231" transform="translate(38.532 14.548)">
            <path id="Trazado_113633" data-name="Trazado 113633" d="M757.453,504.1l-5.436,7.759Z" transform="translate(-751.436 -503.516)" fill="#ffcc38"/>
            <path id="Trazado_113634" data-name="Trazado 113634" d="M751.923,512.346a.582.582,0,0,1-.476-.917l5.437-7.76a.582.582,0,1,1,.952.669L752.4,512.1A.579.579,0,0,1,751.923,512.346Z" transform="translate(-751.341 -503.422)" fill="#32293a"/>
          </g>
          <g id="Grupo_81232" data-name="Grupo 81232" transform="translate(42.886 17.621)">
            <path id="Trazado_113635" data-name="Trazado 113635" d="M762.513,507.669l-5.436,7.759Z" transform="translate(-756.495 -507.087)" fill="#ffcc38"/>
            <path id="Trazado_113636" data-name="Trazado 113636" d="M756.983,515.917a.582.582,0,0,1-.476-.917l5.437-7.76a.582.582,0,1,1,.952.669l-5.437,7.76A.581.581,0,0,1,756.983,515.917Z" transform="translate(-756.401 -506.992)" fill="#32293a"/>
          </g>
          <g id="Grupo_81233" data-name="Grupo 81233" transform="translate(47.323 20.506)">
            <path id="Trazado_113637" data-name="Trazado 113637" d="M767.669,511.023l-5.437,7.759Z" transform="translate(-761.652 -510.44)" fill="#ffcc38"/>
            <path id="Trazado_113638" data-name="Trazado 113638" d="M762.14,519.27a.582.582,0,0,1-.476-.918l5.436-7.758a.582.582,0,1,1,.952.669l-5.436,7.759A.579.579,0,0,1,762.14,519.27Z" transform="translate(-761.558 -510.346)" fill="#32293a"/>
          </g>
        </g>
        <g id="Grupo_81241" data-name="Grupo 81241" transform="translate(600.572 435.36)">
          <path id="Trazado_113639" data-name="Trazado 113639" d="M635.646,506.959H611.62l5.815-20.614h24.027Z" transform="translate(-608.298 -486.345)" fill="#f4c7a8"/>
          <path id="Trazado_113640" data-name="Trazado 113640" d="M608.186,503.27v-1.711a3.379,3.379,0,0,1,3.376-3.383h1.123a3.373,3.373,0,0,1,3.011,1.853l1.592,3.147a3.375,3.375,0,0,0,3.012,1.853h9.714a3.374,3.374,0,0,0,2.744-1.412l5.374-7.514a3.374,3.374,0,0,1,2.744-1.412h0a4.151,4.151,0,0,1,2.482,1.089c9.319,7.191,19.368,14.308,29.126,20.67,1.577,1.028,3.17,2.026,3.773,3.812l2.418,7.169H608.4Z" transform="translate(-607.819 -487.509)" fill="#583ae2"/>
          <g id="Grupo_81235" data-name="Grupo 81235" transform="translate(0 39.339)">
            <path id="Trazado_113641" data-name="Trazado 113641" d="M676.442,542.142h-65.93a2.76,2.76,0,0,1-2.754-2.76v-6.738a.582.582,0,1,1,1.163,0v6.738a1.593,1.593,0,0,0,1.59,1.594h65.93a1.593,1.593,0,0,0,1.59-1.594v-6.738a.582.582,0,1,1,1.163,0v6.738A2.76,2.76,0,0,1,676.442,542.142Z" transform="translate(-607.759 -532.062)" fill="#32293a"/>
          </g>
          <g id="Grupo_81236" data-name="Grupo 81236" transform="translate(0.367 25.446)">
            <path id="Trazado_113642" data-name="Trazado 113642" d="M622.036,530.711l-7.187-11.057a5.63,5.63,0,0,0-4.736-2.571h-1.927v-1.166h1.927a6.794,6.794,0,0,1,5.711,3.1l7.188,11.057Z" transform="translate(-608.186 -515.917)" fill="#32293a"/>
          </g>
          <g id="Grupo_81237" data-name="Grupo 81237" transform="translate(34.72 11.356)">
            <path id="Trazado_113643" data-name="Trazado 113643" d="M665.406,520.063a3.4,3.4,0,0,1-1.868-.561l-13.877-9.1a3.437,3.437,0,0,1-.889-4.9l4.36-5.962.939.689-4.36,5.962a2.267,2.267,0,0,0,.587,3.236l13.877,9.1a2.26,2.26,0,0,0,3.136-.664l3.572-5.523.975.634-3.571,5.523a3.4,3.4,0,0,1-2.166,1.491A3.473,3.473,0,0,1,665.406,520.063Z" transform="translate(-648.109 -499.542)" fill="#32293a"/>
          </g>
          <g id="Grupo_81238" data-name="Grupo 81238" transform="translate(38.532 14.548)">
            <path id="Trazado_113644" data-name="Trazado 113644" d="M658.651,503.929l-5.436,7.759Z" transform="translate(-652.633 -503.346)" fill="#ffcc38"/>
            <path id="Trazado_113645" data-name="Trazado 113645" d="M653.121,512.176a.582.582,0,0,1-.476-.918l5.436-7.758a.582.582,0,1,1,.953.669l-5.436,7.759A.582.582,0,0,1,653.121,512.176Z" transform="translate(-652.539 -503.252)" fill="#32293a"/>
          </g>
          <g id="Grupo_81239" data-name="Grupo 81239" transform="translate(42.886 17.621)">
            <path id="Trazado_113646" data-name="Trazado 113646" d="M663.711,507.5l-5.436,7.759Z" transform="translate(-657.693 -506.917)" fill="#ffcc38"/>
            <path id="Trazado_113647" data-name="Trazado 113647" d="M658.18,515.747a.583.583,0,0,1-.476-.918l5.438-7.759a.581.581,0,1,1,.951.669l-5.437,7.759A.58.58,0,0,1,658.18,515.747Z" transform="translate(-657.598 -506.823)" fill="#32293a"/>
          </g>
          <g id="Grupo_81240" data-name="Grupo 81240" transform="translate(47.323 20.507)">
            <path id="Trazado_113648" data-name="Trazado 113648" d="M668.868,510.853l-5.436,7.759Z" transform="translate(-662.85 -510.271)" fill="#ffcc38"/>
            <path id="Trazado_113649" data-name="Trazado 113649" d="M663.337,519.1a.583.583,0,0,1-.476-.918l5.436-7.759a.582.582,0,1,1,.952.669l-5.436,7.759A.582.582,0,0,1,663.337,519.1Z" transform="translate(-662.755 -510.176)" fill="#32293a"/>
          </g>
        </g>
        <path id="Trazado_113650" data-name="Trazado 113650" d="M683.847,299.781l-7.687,36.408L721.1,373.2a19.481,19.481,0,0,1,7.137,15.076v74.669a2.213,2.213,0,0,1-2.211,2.216H693.017a2.213,2.213,0,0,1-2.211-2.216V399.137L666.313,378.01l-19.937,83.849a2.21,2.21,0,0,1-2.15,1.7H611.48a2.214,2.214,0,0,1-2.152-2.721L634.076,355.06l-11.353-12.624,8.052-42.655Z" transform="translate(-7.397 -24.954)" fill="#32293a"/>
        <path id="Trazado_113651" data-name="Trazado 113651" d="M688.835,220.676l-51.282.218a15.6,15.6,0,0,0-9.193,3.046l-22.429,16,16.589,23.538,17.32-11.385-9.531,36.653h53.073L691.7,255.45l16.3,10.036,14.419-23.853-23.831-17.589A15.6,15.6,0,0,0,688.835,220.676Z" transform="translate(-6.932 -13.917)" fill="#25c766"/>
        <path id="Trazado_113652" data-name="Trazado 113652" d="M686.861,215.176c.069,4.186-4.14,13.887-14.838,13.81-7.949-.058-13.589-9.6-13.333-13.689.082-.064,4.049-2.634,6.148-3.993a4.148,4.148,0,0,0,1.716-2.282l3.613-11.872c-5.493.515-5.152-8.57.444-6.6,6.884,2.421,14.027-9.57,14.027-9.57,1.721,4.789,10.762,7.077,12.3,6.974-1.717,6.491-6.311,19.446-13.023,16.519.008,0-.632,1.878-1.209,3.561a4.173,4.173,0,0,0,1.158,4.456Z" transform="translate(-14.291 -8.378)" fill="#f4c7a8"/>
        <path id="Trazado_113653" data-name="Trazado 113653" d="M621.9,352.97l-6.17-9.4a6.142,6.142,0,0,1,1.752-8.494l28.174-18.563a6.112,6.112,0,0,1,8.476,1.755l6.168,9.4a6.141,6.141,0,0,1-1.751,8.494l-28.174,18.563A6.111,6.111,0,0,1,621.9,352.97Z" transform="translate(-8.159 -27.148)" fill="#32293a"/>
        <g id="Grupo_81242" data-name="Grupo 81242" transform="translate(605.99 287.774)">
          <path id="Trazado_113654" data-name="Trazado 113654" d="M626.935,356.22a6.7,6.7,0,0,1-5.611-3.024l-6.169-9.4a6.733,6.733,0,0,1,1.919-9.3l28.174-18.563a6.7,6.7,0,0,1,9.281,1.922l6.169,9.4a6.731,6.731,0,0,1-1.92,9.3L630.6,355.118A6.645,6.645,0,0,1,626.935,356.22Zm-4.639-3.665a5.538,5.538,0,0,0,7.67,1.588l28.174-18.563a5.563,5.563,0,0,0,1.584-7.686l-6.168-9.4a5.539,5.539,0,0,0-7.67-1.589l-28.174,18.563a5.565,5.565,0,0,0-1.585,7.687Z" transform="translate(-614.056 -314.828)" fill="#faf5ff"/>
        </g>
        <path id="Trazado_113655" data-name="Trazado 113655" d="M617.9,285.791l7.727,13.694,15.644,6.673-4.761,3.136s13.307,20.545,13.374,20.487c1.634,2.721-3.765,6.991-5.866,4.21,1.44,3.308-3.429,6.2-5.647,2.989,1.8,2.89-3.334,6.842-6.046,3.34,2.523,3.444-3.219,6.232-5.976,3.187-1.733-1.913-17.105-20.3-17.105-20.3L593.532,295.99l-10.253-18.054a20.255,20.255,0,0,1,6.82-27.145l12.3-7.731L618.991,266.6l-8.779,5.807Z" transform="translate(-3.402 -17.041)" fill="#f4c7a8"/>
        <g id="Grupo_81243" data-name="Grupo 81243" transform="translate(621.647 281.863)">
          <path id="Trazado_113656" data-name="Trazado 113656" d="M648.476,315.8a.577.577,0,0,1-.227-.046L632.6,309.077A.582.582,0,0,1,633.06,308l15.644,6.673a.583.583,0,0,1-.228,1.119Z" transform="translate(-632.251 -307.958)" fill="#faf5ff"/>
        </g>
        <g id="Grupo_81244" data-name="Grupo 81244" transform="translate(585.523 271.277)">
          <path id="Trazado_113657" data-name="Trazado 113657" d="M627.7,351.43a.578.578,0,0,1-.43-.192c-1.72-1.9-16.493-19.561-17.122-20.312L594.373,303.62l-4.028-7.093a.582.582,0,1,1,1.012-.577l4.026,7.089,15.711,27.22c.1.1,15.329,18.312,17.033,20.2a.583.583,0,0,1-.43.975Z" transform="translate(-590.269 -295.656)" fill="#32293a"/>
        </g>
        <g id="Grupo_81245" data-name="Grupo 81245" transform="translate(622.368 288.535)">
          <path id="Trazado_113658" data-name="Trazado 113658" d="M636.677,355.526a4.581,4.581,0,0,1-3.437-1.489.582.582,0,1,1,.86-.783,3.6,3.6,0,0,0,4.826.354,1.877,1.877,0,0,0,.251-2.805l.928-.7a2.8,2.8,0,0,0,4.039.528c1.057-.738,1.757-2.075,1.055-3.2l.971-.641a2.5,2.5,0,0,0,3.433.773,2.461,2.461,0,0,0,1.2-3.2l-1.953-4.489,2.951,3.9c.825,1.092,2.3.675,3.32-.014,1.3-.879,2.243-2.446,1.583-3.545l.036-.022c-.736-.9-3.152-4.627-13.4-20.448l-.315-.486,5.245-3.454a.582.582,0,1,1,.638.973l-4.277,2.82c4.856,7.495,11.813,18.2,12.884,19.761l.033,0,.152.252c1.055,1.755-.206,3.944-1.929,5.112a4.076,4.076,0,0,1-3.586.718,3.938,3.938,0,0,1-5.553,3.27,4.4,4.4,0,0,1-5.789,3.407,3,3,0,0,1-1.185,2.386A4.757,4.757,0,0,1,636.677,355.526Z" transform="translate(-633.089 -315.712)" fill="#faf5ff"/>
        </g>
        <g id="Grupo_81246" data-name="Grupo 81246" transform="translate(604.766 251.942)">
          <path id="Trazado_113659" data-name="Trazado 113659" d="M630.095,304.272a.581.581,0,0,1-.506-.3l-16.88-29.92a.582.582,0,1,1,1.012-.574L630.6,303.4a.582.582,0,0,1-.219.793A.566.566,0,0,1,630.095,304.272Z" transform="translate(-612.633 -273.185)" fill="#32293a"/>
        </g>
        <g id="Grupo_81247" data-name="Grupo 81247" transform="translate(631.166 304.497)">
          <path id="Trazado_113660" data-name="Trazado 113660" d="M652.767,347.3a.578.578,0,0,1-.466-.234l-8.872-11.872a.582.582,0,1,1,.931-.7l8.872,11.873a.583.583,0,0,1-.116.815A.574.574,0,0,1,652.767,347.3Z" transform="translate(-643.314 -334.263)" fill="#32293a"/>
        </g>
        <g id="Grupo_81248" data-name="Grupo 81248" transform="translate(626.082 307.777)">
          <path id="Trazado_113661" data-name="Trazado 113661" d="M646.295,350.822a.58.58,0,0,1-.472-.244L637.515,339a.582.582,0,1,1,.944-.681l8.307,11.582a.583.583,0,0,1-.471.923Z" transform="translate(-637.405 -338.074)" fill="#32293a"/>
        </g>
        <g id="Grupo_81249" data-name="Grupo 81249" transform="translate(620.105 311.094)">
          <path id="Trazado_113662" data-name="Trazado 113662" d="M639.28,354.7a.577.577,0,0,1-.473-.245l-8.239-11.605a.582.582,0,1,1,.946-.676l8.239,11.605a.583.583,0,0,1-.473.922Z" transform="translate(-630.459 -341.929)" fill="#32293a"/>
        </g>
        <g id="Grupo_81250" data-name="Grupo 81250" transform="translate(643.987 300.507)">
          <path id="Trazado_113663" data-name="Trazado 113663" d="M660.925,335.061a2.718,2.718,0,0,1-2.326-4.114,2.71,2.71,0,0,1,4.956.736,2.715,2.715,0,0,1-2.63,3.378Zm0-4.271a1.559,1.559,0,0,0-.38.047h0a1.551,1.551,0,1,0,1.173.175A1.523,1.523,0,0,0,660.929,330.791Zm-.521-.518h0Z" transform="translate(-658.213 -329.625)" fill="#faf5ff"/>
        </g>
        <g id="Grupo_81251" data-name="Grupo 81251" transform="translate(657.502 291.583)">
          <path id="Trazado_113664" data-name="Trazado 113664" d="M699.452,351.44a.582.582,0,0,1-.368-.133L673.92,330.626l1.888-10.889a.581.581,0,1,1,1.145.2l-1.771,10.22,24.639,20.251a.583.583,0,0,1-.369,1.033Z" transform="translate(-673.92 -319.254)" fill="#faf5ff"/>
        </g>
        <g id="Grupo_81252" data-name="Grupo 81252" transform="translate(628.68 325.953)">
          <path id="Trazado_113665" data-name="Trazado 113665" d="M700.049,413.031a.581.581,0,0,1-.387-.148l-59.043-52.667a.582.582,0,0,1,.774-.87l59.043,52.667a.584.584,0,0,1-.387,1.018Z" transform="translate(-640.425 -359.198)" fill="#faf5ff"/>
        </g>
        <g id="Grupo_81253" data-name="Grupo 81253" transform="translate(598.418 212.168)">
          <path id="Trazado_113666" data-name="Trazado 113666" d="M622.427,264.937a.581.581,0,0,1-.475-.247l-16.59-23.539a.583.583,0,0,1,.138-.811l18.6-13.269a.583.583,0,0,1,.675.95l-18.132,12.932,15.924,22.594L644.3,248.583a.582.582,0,0,1,.659.96l-22.2,15.291A.586.586,0,0,1,622.427,264.937Z" transform="translate(-605.255 -226.963)" fill="#32293a"/>
        </g>
        <g id="Grupo_81254" data-name="Grupo 81254" transform="translate(679.963 221.047)">
          <path id="Trazado_113667" data-name="Trazado 113667" d="M700.6,274.314a.583.583,0,0,1-.569-.7l4.772-22.524a7.091,7.091,0,0,0-.623-4.951c-4.209-7.976-4.192-8.094-4.154-8.354a.581.581,0,0,1,1.144-.036c.081.2.618,1.366,4.037,7.846a8.256,8.256,0,0,1,.729,5.752l-4.769,22.51A.582.582,0,0,1,700.6,274.314Z" transform="translate(-700.022 -237.281)" fill="#32293a"/>
        </g>
        <g id="Grupo_81255" data-name="Grupo 81255" transform="translate(770.397 205.488)">
          <path id="Trazado_113668" data-name="Trazado 113668" d="M811.945,229.4l-.348-1.113s4.835-1.519,8.581-2.648c1.575-.473,1.905-2.692,1.727-3.719a.63.63,0,0,0-.588-.519l-15.653-1.035a.583.583,0,0,1,.076-1.163l15.653,1.034a1.8,1.8,0,0,1,1.658,1.483c.284,1.637-.326,4.37-2.538,5.036C816.772,227.88,811.946,229.4,811.945,229.4Z" transform="translate(-805.12 -219.2)" fill="#32293a"/>
        </g>
        <g id="Grupo_81256" data-name="Grupo 81256" transform="translate(787.197 207.664)">
          <path id="Trazado_113669" data-name="Trazado 113669" d="M832.891,225.034a.572.572,0,0,1-.156-.022l-7.666-2.14a.583.583,0,0,1,.312-1.123l7.665,2.14a.583.583,0,0,1-.155,1.144Z" transform="translate(-824.644 -221.728)" fill="#32293a"/>
        </g>
        <g id="Grupo_81257" data-name="Grupo 81257" transform="translate(787.485 210.429)">
          <path id="Trazado_113670" data-name="Trazado 113670" d="M829.213,231.878a.582.582,0,0,1-.492-.271l-3.651-5.771a.582.582,0,1,1,.983-.624l3.652,5.771a.584.584,0,0,1-.181.8A.578.578,0,0,1,829.213,231.878Z" transform="translate(-824.979 -224.942)" fill="#32293a"/>
        </g>
        <g id="Grupo_81258" data-name="Grupo 81258" transform="translate(782.569 212.814)">
          <path id="Trazado_113671" data-name="Trazado 113671" d="M822.371,233.951a.583.583,0,0,1-.521-.324l-2.524-5.072a.582.582,0,1,1,1.041-.52l2.523,5.072a.583.583,0,0,1-.262.781A.576.576,0,0,1,822.371,233.951Z" transform="translate(-819.266 -227.713)" fill="#32293a"/>
        </g>
        <g id="Grupo_81259" data-name="Grupo 81259" transform="translate(683.486 227.132)">
          <path id="Trazado_113672" data-name="Trazado 113672" d="M721.692,269.372a.579.579,0,0,1-.3-.083L704.4,259.169a.582.582,0,0,1,.593-1l16.5,9.827,14.121-23.359a.579.579,0,0,1,.8-.2l15.119,9.21a.582.582,0,0,1-.6,1l-14.621-8.906-14.119,23.354A.579.579,0,0,1,721.692,269.372Z" transform="translate(-704.117 -244.353)" fill="#32293a"/>
        </g>
        <g id="Grupo_81260" data-name="Grupo 81260" transform="translate(694.441 212.21)">
          <path id="Trazado_113673" data-name="Trazado 113673" d="M737.888,243.1a.578.578,0,0,1-.342-.112l-20.458-14.921a.585.585,0,0,1-.128-.814.579.579,0,0,1,.813-.128l20.458,14.921a.583.583,0,0,1-.342,1.054Z" transform="translate(-716.848 -227.011)" fill="#32293a"/>
        </g>
        <g id="Grupo_81266" data-name="Grupo 81266" transform="translate(753.859 229.069)">
          <path id="Trazado_113674" data-name="Trazado 113674" d="M870.455,326.583l-29.8,18.15a16.1,16.1,0,0,1-16.79-.022l-29.577-18.12a16.178,16.178,0,0,1-7.409-16.939l9.771-49.352a16.139,16.139,0,0,1,15.822-13.019h39.838A16.14,16.14,0,0,1,868.134,260.3l9.765,49.322A16.179,16.179,0,0,1,870.455,326.583Z" transform="translate(-785.994 -246.699)" fill="#583ae2"/>
          <g id="Grupo_81261" data-name="Grupo 81261" transform="translate(0 29.412)">
            <path id="Trazado_113675" data-name="Trazado 113675" d="M823.773,349.968a.58.58,0,0,1-.3-.085l-29.577-18.12a16.821,16.821,0,0,1-7.675-17.549l6.526-32.96a.575.575,0,0,1,.683-.459.582.582,0,0,1,.456.685l-6.525,32.96a15.655,15.655,0,0,0,7.141,16.328l29.577,18.119a.583.583,0,0,1-.3,1.08Z" transform="translate(-785.9 -280.785)" fill="#32293a"/>
          </g>
          <g id="Grupo_81262" data-name="Grupo 81262" transform="translate(64.876 33.035)">
            <path id="Trazado_113676" data-name="Trazado 113676" d="M861.878,344a.583.583,0,0,1-.3-1.081l19-11.575A15.647,15.647,0,0,0,887.754,315l-5.8-29.307a.581.581,0,1,1,1.14-.226l5.8,29.307a16.816,16.816,0,0,1-7.712,17.571l-19,11.575A.577.577,0,0,1,861.878,344Z" transform="translate(-861.296 -284.995)" fill="#32293a"/>
          </g>
          <g id="Grupo_81263" data-name="Grupo 81263" transform="translate(14.943)">
            <path id="Trazado_113677" data-name="Trazado 113677" d="M871.8,267.56a.583.583,0,0,1-.57-.47l-1.34-6.77a15.6,15.6,0,0,0-15.253-12.549H814.8a15.489,15.489,0,0,0-10.56,4.145.582.582,0,0,1-.79-.856A16.655,16.655,0,0,1,814.8,246.6h39.839a16.763,16.763,0,0,1,16.393,13.489l1.34,6.771a.583.583,0,0,1-.456.685A.661.661,0,0,1,871.8,267.56Z" transform="translate(-803.266 -246.604)" fill="#32293a"/>
          </g>
          <g id="Grupo_81264" data-name="Grupo 81264" transform="translate(33.443 32.351)">
            <path id="Trazado_113678" data-name="Trazado 113678" d="M825.442,297.438A12.532,12.532,0,1,1,837.974,310,12.546,12.546,0,0,1,825.442,297.438Z" transform="translate(-824.86 -284.295)" fill="#fffdf7"/>
            <path id="Trazado_113679" data-name="Trazado 113679" d="M837.88,310.485a13.143,13.143,0,1,1,13.115-13.142A13.144,13.144,0,0,1,837.88,310.485Zm0-25.119a11.977,11.977,0,1,0,11.951,11.977A11.977,11.977,0,0,0,837.88,285.366Z" transform="translate(-824.766 -284.2)" fill="#32293a"/>
          </g>
          <g id="Grupo_81265" data-name="Grupo 81265" transform="translate(40.318 30.375)">
            <path id="Trazado_113680" data-name="Trazado 113680" d="M838.883,302.622a.571.571,0,0,1-.41-.171l-5.547-5.557a.582.582,0,1,1,.822-.824l5.135,5.145,19.1-19.139a.583.583,0,0,1,.824.824l-19.508,19.551A.577.577,0,0,1,838.883,302.622Z" transform="translate(-832.756 -281.904)" fill="#32293a"/>
          </g>
        </g>
        <g id="Grupo_81267" data-name="Grupo 81267" transform="translate(676.754 181.723)">
          <path id="Trazado_113681" data-name="Trazado 113681" d="M697.119,199.772l-.826-.822s.761-.768,1.242-1.244a3.7,3.7,0,0,1-.087-3.979,4.165,4.165,0,0,1,3.99-2.132.581.581,0,0,1,.534.627.568.568,0,0,1-.625.535,3.031,3.031,0,0,0-2.887,1.544,2.544,2.544,0,0,0,.04,2.744,1.168,1.168,0,0,1-.149,1.49C697.875,199.008,697.119,199.772,697.119,199.772Z" transform="translate(-696.293 -191.581)" fill="#32293a"/>
        </g>
        <g id="Grupo_81268" data-name="Grupo 81268" transform="translate(667.751 179.778)">
          <path id="Trazado_113682" data-name="Trazado 113682" d="M686.412,191.926a.573.573,0,0,1-.372-.135.581.581,0,0,1-.073-.821c1.591-1.909,3.85-2.174,6.19-.727a.582.582,0,0,1-.609.992c-1.293-.8-3.153-1.364-4.69.482A.58.58,0,0,1,686.412,191.926Z" transform="translate(-685.83 -189.321)" fill="#32293a"/>
        </g>
        <path id="Trazado_113683" data-name="Trazado 113683" d="M690.15,194.935a1.172,1.172,0,1,1-.8-1.652A1.311,1.311,0,0,1,690.15,194.935Z" transform="translate(-18.365 -10.092)" fill="#32293a"/>
        <path id="Trazado_113684" data-name="Trazado 113684" d="M699.952,196.288a1.172,1.172,0,1,1-.8-1.651A1.312,1.312,0,0,1,699.952,196.288Z" transform="translate(-19.733 -10.281)" fill="#32293a"/>
        <g id="Grupo_81269" data-name="Grupo 81269" transform="translate(672.085 190.211)">
          <path id="Trazado_113685" data-name="Trazado 113685" d="M692.831,203.393a2.186,2.186,0,0,1-.806-.163,1.981,1.981,0,0,1-1.119-1,.582.582,0,0,1,1.087-.415,1.063,1.063,0,0,0,.517.347.732.732,0,0,0,.52.022.582.582,0,0,1,.509,1.047A1.6,1.6,0,0,1,692.831,203.393Z" transform="translate(-690.867 -201.445)" fill="#32293a"/>
        </g>
        <g id="Grupo_81270" data-name="Grupo 81270" transform="translate(665.651 193.98)">
          <path id="Trazado_113686" data-name="Trazado 113686" d="M687.714,208.875a.593.593,0,0,1-.148-.019,8.269,8.269,0,0,1-4.022-2.052.582.582,0,0,1,.855-.79,7.187,7.187,0,0,0,3.462,1.714.583.583,0,0,1-.147,1.147Z" transform="translate(-683.39 -205.825)" fill="#32293a"/>
        </g>
        <g id="Grupo_81271" data-name="Grupo 81271" transform="translate(658.014 206.215)">
          <path id="Trazado_113687" data-name="Trazado 113687" d="M675.1,235.1a.583.583,0,0,1,0-1.166,12.9,12.9,0,0,0,9.315-3.937,13.794,13.794,0,0,0,4.075-9.363.583.583,0,0,1,.577-.588h.006a.584.584,0,0,1,.582.579,14.8,14.8,0,0,1-4.414,10.192A14.04,14.04,0,0,1,675.1,235.1Z" transform="translate(-674.515 -220.044)" fill="#32293a"/>
        </g>
        <g id="Grupo_81272" data-name="Grupo 81272" transform="translate(788.922 386.74)">
          <path id="Trazado_113688" data-name="Trazado 113688" d="M827.231,476.332a.583.583,0,0,1-.442-.961c2.071-2.434,4.009-5.157,6.06-8.039,8.132-11.427,17.346-24.378,37.678-20.646,28.491,5.233,45.492,4.157,53.727-16.478a.582.582,0,1,1,1.08.432c-8.49,21.274-26.6,22.411-55.016,17.192-19.609-3.6-28.2,8.489-36.521,20.177-2.067,2.9-4.018,5.646-6.123,8.119A.58.58,0,0,1,827.231,476.332Z" transform="translate(-826.649 -429.84)" fill="#32293a"/>
        </g>
        <g id="Grupo_81273" data-name="Grupo 81273" transform="translate(585.117 156.054)">
          <path id="Trazado_113689" data-name="Trazado 113689" d="M590.378,195.93h-.026a.582.582,0,0,1-.554-.608c.43-9.828,6.158-20.312,14.589-26.709,5.818-4.413,15.614-9,29.254-5.786a.583.583,0,0,1-.267,1.135c-13.195-3.108-22.666,1.318-28.285,5.579-8.168,6.2-13.713,16.337-14.131,25.832A.58.58,0,0,1,590.378,195.93Z" transform="translate(-589.797 -161.749)" fill="#32293a"/>
        </g>
        <g id="Grupo_81274" data-name="Grupo 81274" transform="translate(886.79 338.523)">
          <path id="Trazado_113690" data-name="Trazado 113690" d="M946.711,386.5a6.338,6.338,0,0,1-5.991-4.315,6.354,6.354,0,0,1,3.969-8.041,6.325,6.325,0,0,1,8.023,3.978h0a6.343,6.343,0,0,1-6,8.378Zm.009-11.528a5.181,5.181,0,1,0,4.891,3.523h0a5.178,5.178,0,0,0-4.891-3.523Z" transform="translate(-940.386 -373.806)" fill="#32293a"/>
        </g>
        <g id="Grupo_81275" data-name="Grupo 81275" transform="translate(716.403 120.926)">
          <path id="Trazado_113691" data-name="Trazado 113691" d="M746.8,129.81a4.439,4.439,0,1,1,1.424-.236A4.475,4.475,0,0,1,746.8,129.81Zm0-7.718a3.276,3.276,0,1,0,3.1,2.227h0A3.275,3.275,0,0,0,746.8,122.091Z" transform="translate(-742.371 -120.926)" fill="#32293a"/>
        </g>
        <g id="Grupo_81276" data-name="Grupo 81276" transform="translate(556.276 322.614)">
          <path id="Trazado_113692" data-name="Trazado 113692" d="M563.107,368.994a6.839,6.839,0,1,1,6.456-9.026h0a6.83,6.83,0,0,1-6.456,9.026Zm0-12.51a5.674,5.674,0,1,0,5.356,3.858h0a5.664,5.664,0,0,0-5.356-3.858Z" transform="translate(-556.28 -355.317)" fill="#32293a"/>
        </g>
        <g id="Grupo_81277" data-name="Grupo 81277" transform="translate(556.25 304.1)">
          <path id="Trazado_113693" data-name="Trazado 113693" d="M559.225,339.769a2.985,2.985,0,1,1,2.822-3.94h0a2.987,2.987,0,0,1-1.867,3.782A3,3,0,0,1,559.225,339.769Zm0-4.8a1.817,1.817,0,1,0,1.717,1.236h0a1.813,1.813,0,0,0-1.717-1.236Z" transform="translate(-556.25 -333.801)" fill="#32293a"/>
        </g>
        <g id="Grupo_81278" data-name="Grupo 81278" transform="translate(879.07 319.564)">
          <path id="Trazado_113694" data-name="Trazado 113694" d="M935.031,359.014a3.621,3.621,0,0,1-1.158-7.049,3.61,3.61,0,0,1,4.577,2.27h0a3.615,3.615,0,0,1-3.419,4.779Zm0-6.076a2.457,2.457,0,0,0-2.323,3.241,2.449,2.449,0,1,0,2.323-3.241Z" transform="translate(-931.414 -351.772)" fill="#32293a"/>
        </g>
      </g>
    </g>
  </g>
</svg>
