<svg xmlns="http://www.w3.org/2000/svg" width="400" height="364" viewBox="0 0 400 364">
  <g id="Grupo_950277" data-name="Grupo 950277" transform="translate(-1020 -748)">
    <g id="Grupo_81219" data-name="Grupo 81219">
      <g id="Grupo_81217" data-name="Grupo 81217" transform="translate(242.177 207.558)">
        <path id="Trazado_113531" data-name="Trazado 113531" d="M849.825,719.114c21.419-27.562,36.479-52.854,18.845-74.7-18.845-23.35-4.711-64.922,36.471-57.23s81.678,31.428,140.782-8.262c26.456-18.029,54.129-10.02,62.978,6.856,20.707,39.488-53.905,70.519-25.486,100.88,35.358,37.773,32.951,66.395,2.809,97.742-23.042,23.964,13.616,38.558-9.832,73.309-24.1,35.724-135.964,38.615-187.489,4.3C837.136,827.533,820.081,757.389,849.825,719.114Z" transform="translate(-4.59 -3.879)" fill="#e6e1fb"/>
        <g id="Grupo_81158" data-name="Grupo 81158" transform="translate(810.217 706.55)">
          <path id="Rectángulo_34849" data-name="Rectángulo 34849" d="M19.822,0H124.279a0,0,0,0,1,0,0V64.857a0,0,0,0,1,0,0H19.822A19.822,19.822,0,0,1,0,45.035V19.822A19.822,19.822,0,0,1,19.822,0Z" transform="translate(0.553 0.553)" fill="#c4baf5"/>
          <path id="Trazado_113532" data-name="Trazado 113532" d="M935.6,808.243H826.937a16.759,16.759,0,0,1-16.72-16.757V759.034a16.758,16.758,0,0,1,16.72-16.756H935.6ZM826.937,743.384a15.651,15.651,0,0,0-15.616,15.65v32.452a15.651,15.651,0,0,0,15.616,15.65H934.5V743.384Z" transform="translate(-810.217 -742.278)" fill="#32293a"/>
        </g>
        <g id="Grupo_81159" data-name="Grupo 81159" transform="translate(890.349 726.662)">
          <path id="Rectángulo_34850" data-name="Rectángulo 34850" d="M5.137,0H41.522a1.287,1.287,0,0,1,1.287,1.287v7.7a1.287,1.287,0,0,1-1.287,1.287H5.136A5.136,5.136,0,0,1,0,5.137v0A5.137,5.137,0,0,1,5.137,0Z" transform="translate(0.553 0.553)" fill="#fffdf7"/>
          <path id="Trazado_113533" data-name="Trazado 113533" d="M950.432,778.289h-36.4a5.69,5.69,0,0,1,0-11.38h36.4a1.84,1.84,0,0,1,1.836,1.84v7.7A1.841,1.841,0,0,1,950.432,778.289Zm-36.4-10.274a4.583,4.583,0,0,0,0,9.166h36.4a.734.734,0,0,0,.732-.733v-7.7a.734.734,0,0,0-.732-.733Z" transform="translate(-908.354 -766.909)" fill="#32293a"/>
        </g>
        <g id="Grupo_81160" data-name="Grupo 81160" transform="translate(890.349 742.683)">
          <path id="Rectángulo_34851" data-name="Rectángulo 34851" d="M5.137,0H41.522a1.287,1.287,0,0,1,1.287,1.287v7.7a1.287,1.287,0,0,1-1.287,1.287H5.136A5.136,5.136,0,0,1,0,5.137v0A5.137,5.137,0,0,1,5.137,0Z" transform="translate(0.553 0.553)" fill="#fff5d7"/>
          <path id="Trazado_113534" data-name="Trazado 113534" d="M950.432,797.909h-36.4a5.69,5.69,0,0,1,0-11.379h36.4a1.84,1.84,0,0,1,1.836,1.84v7.7A1.841,1.841,0,0,1,950.432,797.909Zm-36.4-10.273a4.583,4.583,0,0,0,0,9.166h36.4a.734.734,0,0,0,.732-.734v-7.7a.734.734,0,0,0-.732-.733Z" transform="translate(-908.354 -786.53)" fill="#32293a"/>
        </g>
        <g id="Grupo_81161" data-name="Grupo 81161" transform="translate(1037.635 564.466)">
          <path id="Trazado_113535" data-name="Trazado 113535" d="M1196.493,568.947v71.525a10.058,10.058,0,0,1-10.043,10.074h-87a10.059,10.059,0,0,1-10.043-10.074V568.947Z" transform="translate(-1088.857 -568.394)" fill="#fffdf7"/>
          <path id="Trazado_113536" data-name="Trazado 113536" d="M1186.326,650.975h-87a10.624,10.624,0,0,1-10.6-10.627V568.27h108.188v72.078A10.624,10.624,0,0,1,1186.326,650.975Zm-96.489-81.6v70.972a9.517,9.517,0,0,0,9.491,9.521h87a9.517,9.517,0,0,0,9.491-9.521V569.376Z" transform="translate(-1088.733 -568.27)" fill="#32293a"/>
        </g>
        <rect id="Rectángulo_34852" data-name="Rectángulo 34852" width="87.588" height="28.408" rx="6.029" transform="translate(1048.143 572.832)" fill="#e6e1fb"/>
        <path id="Rectángulo_34853" data-name="Rectángulo 34853" d="M6.029,0h75.53a6.029,6.029,0,0,1,6.029,6.029v16.35a6.029,6.029,0,0,1-6.029,6.029H6.03A6.03,6.03,0,0,1,0,22.379V6.029A6.029,6.029,0,0,1,6.029,0Z" transform="translate(1048.143 609.148)" fill="#e6e1fb"/>
        <path id="Trazado_113537" data-name="Trazado 113537" d="M1196.493,558.29v6.854H1089.409V558.29a10.059,10.059,0,0,1,10.043-10.074h87A10.058,10.058,0,0,1,1196.493,558.29Z" transform="translate(-51.222 -0.124)" fill="#583ae2"/>
        <path id="Trazado_113538" data-name="Trazado 113538" d="M1196.921,565.573H1088.733v-7.408a10.624,10.624,0,0,1,10.6-10.627h87a10.624,10.624,0,0,1,10.6,10.627Zm-107.084-1.106h105.98v-6.3a9.516,9.516,0,0,0-9.491-9.52h-87a9.517,9.517,0,0,0-9.491,9.52Z" transform="translate(-51.098)" fill="#32293a"/>
        <g id="Grupo_81162" data-name="Grupo 81162" transform="translate(1043.951 553.402)">
          <path id="Rectángulo_34854" data-name="Rectángulo 34854" d="M2.815,0H60.143a2.815,2.815,0,0,1,2.815,2.815v0A2.815,2.815,0,0,1,60.142,5.63H2.815A2.815,2.815,0,0,1,0,2.815v0A2.815,2.815,0,0,1,2.815,0Z" transform="translate(0.552 0.553)" fill="#fffdf7"/>
          <path id="Trazado_113539" data-name="Trazado 113539" d="M1157.169,561.456h-57.34a3.368,3.368,0,0,1,0-6.736h57.34a3.368,3.368,0,0,1,0,6.736Zm-57.34-5.63a2.262,2.262,0,0,0,0,4.524h57.34a2.262,2.262,0,0,0,0-4.524Z" transform="translate(-1096.468 -554.72)" fill="#32293a"/>
        </g>
        <g id="Grupo_81163" data-name="Grupo 81163" transform="translate(1130.768 553.121)">
          <path id="Trazado_113540" data-name="Trazado 113540" d="M1203.467,558.146a3.086,3.086,0,1,1,3.086,3.091A3.089,3.089,0,0,1,1203.467,558.146Z" transform="translate(-1202.916 -554.5)" fill="#fffdf7"/>
          <path id="Trazado_113541" data-name="Trazado 113541" d="M1206.43,561.667a3.645,3.645,0,1,1,3.638-3.645A3.645,3.645,0,0,1,1206.43,561.667Zm0-6.184a2.539,2.539,0,1,0,2.533,2.539A2.539,2.539,0,0,0,1206.43,555.482Z" transform="translate(-1202.792 -554.376)" fill="#32293a"/>
        </g>
        <g id="Grupo_81164" data-name="Grupo 81164" transform="translate(1123.205 554.198)">
          <path id="Trazado_113542" data-name="Trazado 113542" d="M1194.206,558.388a2.01,2.01,0,1,1,2.01,2.014A2.013,2.013,0,0,1,1194.206,558.388Z" transform="translate(-1193.654 -555.819)" fill="#fffdf7"/>
          <path id="Trazado_113543" data-name="Trazado 113543" d="M1196.092,560.832a2.568,2.568,0,1,1,2.562-2.568A2.568,2.568,0,0,1,1196.092,560.832Zm0-4.03a1.462,1.462,0,1,0,1.458,1.462A1.461,1.461,0,0,0,1196.092,556.8Z" transform="translate(-1193.53 -555.695)" fill="#32293a"/>
        </g>
        <path id="Trazado_113544" data-name="Trazado 113544" d="M972.089,622.05c-1.581.806-5.436.61-5.769-3.785s-4.359-2.869-4.412-6.4,3.416-2.106,4.609-7.635,6.31-3.982,8.542-5.64,5.833-8.65,11.639-6.691,7.444,9.35,4.536,14.854S979.27,621.4,979.27,621.4Z" transform="translate(-27.83 -8.076)" fill="#32293a"/>
        <g id="Grupo_81171" data-name="Grupo 81171" transform="translate(973.114 851.311)">
          <path id="Trazado_113545" data-name="Trazado 113545" d="M1036.374,939.127h-22.8l5.518-19.561h22.8Z" transform="translate(-1010.423 -919.565)" fill="#f4c7a8"/>
          <path id="Trazado_113546" data-name="Trazado 113546" d="M1010.141,936.053v-1.624a3.207,3.207,0,0,1,3.2-3.211h1.066a3.2,3.2,0,0,1,2.857,1.759l1.511,2.987a3.2,3.2,0,0,0,2.857,1.759h9.218a3.2,3.2,0,0,0,2.6-1.34l5.1-7.13a3.2,3.2,0,0,1,2.6-1.34h0a3.936,3.936,0,0,1,2.355,1.034c8.843,6.824,18.379,13.577,27.639,19.614,1.5.976,3.009,1.921,3.58,3.616l2.294,6.8h-66.685Z" transform="translate(-1009.793 -921.097)" fill="#583ae2"/>
          <g id="Grupo_81165" data-name="Grupo 81165" transform="translate(0 37.33)">
            <path id="Trazado_113547" data-name="Trazado 113547" d="M1074.89,974.849h-62.562a2.619,2.619,0,0,1-2.613-2.619v-6.394a.552.552,0,1,1,1.1,0v6.394a1.511,1.511,0,0,0,1.509,1.511h62.562a1.511,1.511,0,0,0,1.508-1.511v-6.394a.552.552,0,1,1,1.1,0v6.394A2.619,2.619,0,0,1,1074.89,974.849Z" transform="translate(-1009.715 -965.283)" fill="#32293a"/>
          </g>
          <g id="Grupo_81166" data-name="Grupo 81166" transform="translate(0.347 24.146)">
            <path id="Trazado_113548" data-name="Trazado 113548" d="M1023.284,963.176l-6.821-10.492a5.341,5.341,0,0,0-4.492-2.44h-1.831v-1.107h1.831a6.445,6.445,0,0,1,5.418,2.943l6.82,10.492Z" transform="translate(-1010.14 -949.137)" fill="#32293a"/>
          </g>
          <g id="Grupo_81167" data-name="Grupo 81167" transform="translate(32.947 10.776)">
            <path id="Trazado_113549" data-name="Trazado 113549" d="M1066.479,952.236a3.22,3.22,0,0,1-1.771-.531l-13.171-8.633a3.257,3.257,0,0,1-.843-4.65l4.137-5.658.891.654-4.137,5.658a2.154,2.154,0,0,0,.554,3.07l13.171,8.633a2.142,2.142,0,0,0,2.976-.631l3.389-5.241.925.6-3.388,5.242a3.261,3.261,0,0,1-2.734,1.486Z" transform="translate(-1050.064 -932.763)" fill="#32293a"/>
          </g>
          <g id="Grupo_81168" data-name="Grupo 81168" transform="translate(36.563 13.805)">
            <path id="Trazado_113550" data-name="Trazado 113550" d="M1060.329,937.149l-5.159,7.363Z" transform="translate(-1054.617 -936.597)" fill="#ffcc38"/>
            <path id="Trazado_113551" data-name="Trazado 113551" d="M1055.046,944.941a.548.548,0,0,1-.318-.1.554.554,0,0,1-.135-.771l5.161-7.363a.552.552,0,1,1,.9.635l-5.161,7.363A.548.548,0,0,1,1055.046,944.941Z" transform="translate(-1054.493 -936.473)" fill="#32293a"/>
          </g>
          <g id="Grupo_81169" data-name="Grupo 81169" transform="translate(40.696 16.721)">
            <path id="Trazado_113552" data-name="Trazado 113552" d="M1065.389,940.72l-5.159,7.363Z" transform="translate(-1059.678 -940.167)" fill="#ffcc38"/>
            <path id="Trazado_113553" data-name="Trazado 113553" d="M1060.106,948.512a.547.547,0,0,1-.318-.1.553.553,0,0,1-.133-.77l5.158-7.363a.552.552,0,1,1,.9.635l-5.158,7.363A.551.551,0,0,1,1060.106,948.512Z" transform="translate(-1059.555 -940.043)" fill="#32293a"/>
          </g>
          <g id="Grupo_81170" data-name="Grupo 81170" transform="translate(44.905 19.46)">
            <path id="Trazado_113554" data-name="Trazado 113554" d="M1070.545,944.074l-5.159,7.363Z" transform="translate(-1064.834 -943.521)" fill="#ffcc38"/>
            <path id="Trazado_113555" data-name="Trazado 113555" d="M1065.262,951.865a.553.553,0,0,1-.452-.871l5.158-7.362a.552.552,0,1,1,.9.635l-5.159,7.362A.55.55,0,0,1,1065.262,951.865Z" transform="translate(-1064.71 -943.397)" fill="#32293a"/>
          </g>
        </g>
        <g id="Grupo_81177" data-name="Grupo 81177" transform="translate(931.008 851.7)">
          <rect id="Rectángulo_34855" data-name="Rectángulo 34855" width="22.8" height="23.842" transform="translate(6.646)" fill="#f4c7a8"/>
          <path id="Trazado_113556" data-name="Trazado 113556" d="M989.152,933.283h-.888a2.791,2.791,0,0,0-2.465,1.486l-1.787,3.371H967.76l-1.788-3.371a2.789,2.789,0,0,0-2.465-1.486h-.888a3.939,3.939,0,0,0-3.937,3.945V962.81a4.572,4.572,0,0,0,4.567,4.577h25.271a4.572,4.572,0,0,0,4.567-4.577V937.229A3.939,3.939,0,0,0,989.152,933.283Z" transform="translate(-958.246 -922.471)" fill="#583ae2"/>
          <path id="Trazado_113557" data-name="Trazado 113557" d="M970.661,937.084v-2.122a7.43,7.43,0,0,1,7.422-7.438h0a7.43,7.43,0,0,1,7.422,7.438v2.122Z" transform="translate(-960.444 -921.414)" fill="#583ae2"/>
          <g id="Grupo_81172" data-name="Grupo 81172" transform="translate(9.665 15.117)">
            <path id="Trazado_113558" data-name="Trazado 113558" d="M985.506,939.232l-2.333,16.5a3.509,3.509,0,0,1-3.471,3.021h-3.237a3.509,3.509,0,0,1-3.472-3.021l-2.332-16.5Z" transform="translate(-970.109 -938.679)" fill="#583ae2"/>
            <path id="Trazado_113559" data-name="Trazado 113559" d="M979.577,959.181H976.34a4.081,4.081,0,0,1-4.017-3.5l-2.332-16.5a.551.551,0,1,1,1.092-.155l2.332,16.5a2.972,2.972,0,0,0,2.926,2.546h3.237a2.972,2.972,0,0,0,2.927-2.546l2.331-16.5a.551.551,0,1,1,1.092.155l-2.331,16.5A4.08,4.08,0,0,1,979.577,959.181Z" transform="translate(-969.985 -938.555)" fill="#32293a"/>
          </g>
          <g id="Grupo_81173" data-name="Grupo 81173" transform="translate(10.56 19.832)">
            <path id="Trazado_113560" data-name="Trazado 113560" d="M971.758,945.008h0Z" transform="translate(-971.205 -944.454)" fill="#ffcc38"/>
            <path id="Trazado_113561" data-name="Trazado 113561" d="M984.916,945.436H971.633a.553.553,0,0,1,0-1.106h13.283a.553.553,0,0,1,0,1.106Z" transform="translate(-971.081 -944.33)" fill="#32293a"/>
          </g>
          <g id="Grupo_81174" data-name="Grupo 81174" transform="translate(11.77 24.867)">
            <path id="Trazado_113562" data-name="Trazado 113562" d="M973.239,951.174h0Z" transform="translate(-972.687 -950.62)" fill="#ffcc38"/>
            <path id="Trazado_113563" data-name="Trazado 113563" d="M983.979,951.6H973.115a.554.554,0,0,1,0-1.107h10.864a.554.554,0,0,1,0,1.107Z" transform="translate(-972.563 -950.496)" fill="#32293a"/>
          </g>
          <g id="Grupo_81175" data-name="Grupo 81175" transform="translate(12.268 29.971)">
            <path id="Trazado_113564" data-name="Trazado 113564" d="M973.848,957.424h0Z" transform="translate(-973.296 -956.871)" fill="#ffcc38"/>
            <path id="Trazado_113565" data-name="Trazado 113565" d="M983.593,957.853h-9.869a.553.553,0,0,1,0-1.106h9.869a.553.553,0,0,1,0,1.106Z" transform="translate(-973.172 -956.747)" fill="#32293a"/>
          </g>
          <g id="Grupo_81176" data-name="Grupo 81176" transform="translate(0 40.042)">
            <path id="Trazado_113566" data-name="Trazado 113566" d="M988.538,981.352h-25.27a5.13,5.13,0,0,1-5.12-5.129v-6.589a.552.552,0,1,1,1.1,0v6.589a4.024,4.024,0,0,0,4.016,4.023h25.27a4.024,4.024,0,0,0,4.016-4.023v-6.589a.552.552,0,1,1,1.1,0v6.589A5.13,5.13,0,0,1,988.538,981.352Z" transform="translate(-958.148 -969.08)" fill="#32293a"/>
          </g>
        </g>
        <path id="Trazado_113567" data-name="Trazado 113567" d="M957.841,732.531V888.175a1.523,1.523,0,0,0,1.521,1.524h34.157a1.524,1.524,0,0,0,1.522-1.524V783.536l25.759,37.1-20.235,67.148a1.524,1.524,0,0,0,1.42,1.965l32.651.776a1.522,1.522,0,0,0,1.486-1.062l20.246-63.827a22.429,22.429,0,0,0-2.553-18.976l-34.21-52.8a8.226,8.226,0,0,1-1.322-4.382l-.2-16.946Z" transform="translate(-27.084 -33.94)" fill="#32293a"/>
        <path id="Trazado_113568" data-name="Trazado 113568" d="M1059.479,637.375h16.491l4.855-38.343A9.183,9.183,0,0,1,1087,591.48l28.532-9.555a.722.722,0,0,1,.915.435l.259.7,5.561-1.815a.642.642,0,0,1,.782.349,4.8,4.8,0,0,1-.023,3.638c1.583,2.714-.633,5.83-2.067,6.656.413,2.006.06,3.67-1.741,4.713s-14.957,9.3-14.957,9.3c.425,3.155-5.193,6.5-6.919,6.877.135,2.732.831,26.594,1.26,41.481a11.617,11.617,0,0,1-11.56,11.962l-27.561.1Z" transform="translate(-45.731 -6.179)" fill="#f4c7a8"/>
        <g id="Grupo_81178" data-name="Grupo 81178" transform="translate(1029.079 574.486)">
          <path id="Trazado_113569" data-name="Trazado 113569" d="M1101.826,647.139a.554.554,0,0,1-.552-.537c-.6-20.679-.951-32.088-1.04-33.911a.551.551,0,0,1,.434-.568c.687-.149,6.714-1.6,6.526-6.452a.548.548,0,0,1,.256-.49c.527-.332,12.9-8.142,14.685-9.178,1.436-.831,1.894-2.1,1.478-4.123a.554.554,0,0,1,.3-.609,4.6,4.6,0,0,0,2.06-5.917.555.555,0,0,1-.018-.444,4.337,4.337,0,0,0,.033-3.208l-5.668,1.766a.552.552,0,0,1-.69-.336l-.258-.7a.172.172,0,0,0-.216-.1l-28.538,9.558a8.68,8.68,0,0,0-5.8,7.1l-5.464,43.5a.551.551,0,1,1-1.094-.138l5.464-43.5a9.791,9.791,0,0,1,6.543-8.007l28.535-9.556a1.282,1.282,0,0,1,1.607.768l.075.207,5.056-1.651a1.19,1.19,0,0,1,1.455.648,5.284,5.284,0,0,1,.069,3.847c.688,1.72.661,5.263-2.294,6.973.349,2.246-.35,3.891-2.082,4.893-1.627.943-12.545,7.828-14.386,8.99-.034,4.885-5.249,6.685-6.946,7.141.116,2.84.458,14.086,1.022,33.478a.553.553,0,0,1-.536.569Z" transform="translate(-1078.255 -580.541)" fill="#32293a"/>
        </g>
        <path id="Trazado_113570" data-name="Trazado 113570" d="M931.84,660.566l-15.214,30.726,24.6,8.881,9.055-15.622v32.837h60.246V678.949h22.745V649.993l-84.818.22A18.6,18.6,0,0,0,931.84,660.566Z" transform="translate(-19.522 -18.797)" fill="#2ff980"/>
        <path id="Trazado_113571" data-name="Trazado 113571" d="M976.544,642.311c0,5.6,4.827,14.353,16.144,14.353s12.216-9.021,12.054-14.419l-4.5-3.312a6.5,6.5,0,0,1-2.1-2.615l-3-6.8s7.387-1.427,6.513-8.169-7.567-14.175-7.567-14.175c-1.814,3.517-12.155,2.451-12.155,2.451-.274,3.255-3.942,3.015-3.589,5.243s2.38,7.123-1.369,7.1-6.584,4.315-4.016,6.638a5.037,5.037,0,0,0,6.708.443c.324,1.163.783,2.785,1.2,4.266a6.512,6.512,0,0,1-1.715,6.439Z" transform="translate(-29.678 -10.942)" fill="#f4c7a8"/>
        <path id="Trazado_113572" data-name="Trazado 113572" d="M1009.175,726.4l-10.06,3.521a5.8,5.8,0,0,1-7.4-3.576l-10.548-30.273a5.822,5.822,0,0,1,3.567-7.412l10.06-3.521a5.805,5.805,0,0,1,7.4,3.576l10.548,30.272A5.822,5.822,0,0,1,1009.175,726.4Z" transform="translate(-31.304 -25.186)" fill="#32293a"/>
        <g id="Grupo_81179" data-name="Grupo 81179" transform="translate(960.391 692.07)">
          <path id="Trazado_113573" data-name="Trazado 113573" d="M998.658,738.531a4.764,4.764,0,0,1-4.494-3.2.552.552,0,1,1,1.043-.364,3.648,3.648,0,0,0,4.651,2.249l13.086-4.58a3.666,3.666,0,0,0,2.245-4.662l-.941-2.7a.552.552,0,1,1,1.043-.364l.941,2.7a4.768,4.768,0,0,1-2.922,6.07l-13.086,4.58A4.747,4.747,0,0,1,998.658,738.531Z" transform="translate(-994.133 -724.545)" fill="#faf5ff"/>
        </g>
        <path id="Trazado_113574" data-name="Trazado 113574" d="M914.372,699.542l-8.418,19.3c-6.366,14.595,7.1,30.024,22.384,25.641l46.931-13.465s20.431-9.939,22.588-11.1c3.433-1.841,2.2-7.781-1.549-6.248,3.843-1.694,1.4-7.342-1.671-6.348,3.459-1.306,1.927-6.464-1.443-5.9,3.038-1.3.363-7.262-2.513-6.383.038.075-21.9,7.608-21.9,7.608L967,697.538l-9.739,12.891-21.379,5.905,3.093-7.911Z" transform="translate(-17.268 -27.046)" fill="#f4c7a8"/>
        <g id="Grupo_81180" data-name="Grupo 81180" transform="translate(910.832 667.358)">
          <path id="Trazado_113575" data-name="Trazado 113575" d="M938.918,743.408a.553.553,0,0,1-.151-1.085l41.689-11.961c.114-.065,20.356-9.914,22.479-11.052a3.431,3.431,0,0,0,1.44-4.368,1.774,1.774,0,0,0-2.519-.88.553.553,0,0,1-.43-1.018,2.671,2.671,0,0,0,1.417-3.6,2.314,2.314,0,0,0-2.7-1.712.553.553,0,0,1-.365-1.044,2.381,2.381,0,0,0,1.5-2.989,2.325,2.325,0,0,0-2.66-1.847.546.546,0,0,1-.62-.39.552.552,0,0,1,.314-.664c1.193-.51,1.152-1.971.754-3.067-.51-1.4-1.739-2.637-2.891-2.278l-.012-.038c-.994.469-4.966,1.836-21.873,7.642a.553.553,0,0,1-.7-.342l-1.442-4.141-9.116,12.068a.56.56,0,0,1-.294.2l-28.606,7.9a.553.553,0,0,1-.293-1.067l28.424-7.851,9.625-12.741a.559.559,0,0,1,.526-.212.552.552,0,0,1,.435.364l1.6,4.6c8.378-2.878,20.52-7.069,21.294-7.391a.6.6,0,0,1,.107-.046c1.858-.562,3.576,1.1,4.249,2.958a3.89,3.89,0,0,1-.167,3.476,3.748,3.748,0,0,1,1.722,5.876,4.188,4.188,0,0,1,1.792,6.126,2.838,2.838,0,0,1,1.92,1.644,4.566,4.566,0,0,1-1.917,5.814c-2.143,1.149-21.773,10.7-22.608,11.107l-41.779,11.995A.534.534,0,0,1,938.918,743.408Z" transform="translate(-933.439 -694.28)" fill="#32293a"/>
        </g>
        <g id="Grupo_81181" data-name="Grupo 81181" transform="translate(962.422 673.829)">
          <path id="Trazado_113576" data-name="Trazado 113576" d="M997.173,708.754a.553.553,0,0,1-.214-1.063l12.951-5.443a.552.552,0,0,1,.427,1.019l-12.951,5.444A.559.559,0,0,1,997.173,708.754Z" transform="translate(-996.621 -702.205)" fill="#32293a"/>
        </g>
        <g id="Grupo_81182" data-name="Grupo 81182" transform="translate(964.262 679.726)">
          <path id="Trazado_113577" data-name="Trazado 113577" d="M999.426,715.524a.553.553,0,0,1-.2-1.067l12.554-4.99a.553.553,0,0,1,.407,1.028l-12.554,4.99A.539.539,0,0,1,999.426,715.524Z" transform="translate(-998.875 -709.427)" fill="#32293a"/>
        </g>
        <g id="Grupo_81183" data-name="Grupo 81183" transform="translate(965.928 686.075)">
          <path id="Trazado_113578" data-name="Trazado 113578" d="M1001.467,723.23a.553.553,0,0,1-.2-1.068l12.561-4.922a.552.552,0,0,1,.4,1.029l-12.56,4.923A.546.546,0,0,1,1001.467,723.23Z" transform="translate(-1000.915 -717.202)" fill="#32293a"/>
        </g>
        <g id="Grupo_81184" data-name="Grupo 81184" transform="translate(930.205 654.914)">
          <path id="Trazado_113579" data-name="Trazado 113579" d="M957.717,710.578a.552.552,0,0,1-.552-.553V679.594a.552.552,0,1,1,1.1,0v30.431A.553.553,0,0,1,957.717,710.578Z" transform="translate(-957.165 -679.04)" fill="#32293a"/>
        </g>
        <g id="Grupo_81185" data-name="Grupo 81185" transform="translate(990.117 654.914)">
          <path id="Trazado_113580" data-name="Trazado 113580" d="M1031.091,710.578a.553.553,0,0,1-.553-.553V679.594a.552.552,0,1,1,1.1,0v30.431A.553.553,0,0,1,1031.091,710.578Z" transform="translate(-1030.538 -679.04)" fill="#32293a"/>
        </g>
        <g id="Grupo_81186" data-name="Grupo 81186" transform="translate(896.551 652.771)">
          <path id="Trazado_113581" data-name="Trazado 113581" d="M941.1,705.574a.557.557,0,0,1-.187-.033l-24.6-8.881a.552.552,0,0,1-.306-.766l9.493-19.171a.552.552,0,1,1,.988.492L917.27,695.83l23.585,8.514,8.823-15.223a.553.553,0,0,1,.955.556L941.578,705.3A.554.554,0,0,1,941.1,705.574Z" transform="translate(-915.95 -676.416)" fill="#32293a"/>
        </g>
        <g id="Grupo_81187" data-name="Grupo 81187" transform="translate(1055.899 575.856)">
          <path id="Trazado_113582" data-name="Trazado 113582" d="M1111.652,594.682a.554.554,0,0,1-.222-1.06c2.53-1.111,8.727-3.846,11.646-5.229,3.332-1.58,2.94-4.072,2.41-5.418a.552.552,0,1,1,1.027-.406c.421,1.07,1.455,4.729-2.966,6.823-2.931,1.39-9.139,4.129-11.673,5.244A.561.561,0,0,1,1111.652,594.682Z" transform="translate(-1111.101 -582.218)" fill="#32293a"/>
        </g>
        <g id="Grupo_81188" data-name="Grupo 81188" transform="translate(1066.012 576.914)">
          <path id="Trazado_113583" data-name="Trazado 113583" d="M1124.039,593.451a.554.554,0,0,1-.263-1.04c2.313-1.253,6.424-3.5,7.974-4.464a5.674,5.674,0,0,0,2.837-3.981.551.551,0,1,1,1.083.206,6.848,6.848,0,0,1-3.337,4.716c-1.577.981-5.709,3.238-8.031,4.5A.56.56,0,0,1,1124.039,593.451Z" transform="translate(-1123.486 -583.515)" fill="#32293a"/>
        </g>
        <g id="Grupo_81189" data-name="Grupo 81189" transform="translate(1066.591 584.955)">
          <path id="Trazado_113584" data-name="Trazado 113584" d="M1124.748,599.3a.553.553,0,0,1-.279-1.03l8.216-4.828a.552.552,0,1,1,.558.953l-8.215,4.829A.552.552,0,0,1,1124.748,599.3Z" transform="translate(-1124.196 -593.362)" fill="#32293a"/>
        </g>
        <g id="Grupo_81190" data-name="Grupo 81190" transform="translate(1048.199 586.359)">
          <path id="Trazado_113585" data-name="Trazado 113585" d="M1112.038,609.455a.529.529,0,0,1-.062,0,.551.551,0,0,1-.487-.61,16.2,16.2,0,0,0-.178-4.89.554.554,0,0,1,.4-.63c.045-.012,4.512-1.222,6.216-3.284a3.06,3.06,0,0,0-.063-3.679.342.342,0,0,0-.39-.153l-15.086,4.76a.553.553,0,0,1-.333-1.055l15.086-4.759a1.433,1.433,0,0,1,1.665.634c1.094,1.8,1.084,3.611-.028,4.957-1.589,1.923-5.023,3.116-6.3,3.508a17,17,0,0,1,.105,4.713A.553.553,0,0,1,1112.038,609.455Z" transform="translate(-1101.671 -595.081)" fill="#32293a"/>
        </g>
        <g id="Grupo_81191" data-name="Grupo 81191" transform="translate(1013.195 630.643)">
          <path id="Trazado_113586" data-name="Trazado 113586" d="M1059.354,679.378a.553.553,0,0,1-.552-.554V649.869a.553.553,0,0,1,.552-.553h16.492a.553.553,0,0,1,0,1.106h-15.94v28.4A.553.553,0,0,1,1059.354,679.378Z" transform="translate(-1058.802 -649.316)" fill="#32293a"/>
        </g>
        <g id="Grupo_81192" data-name="Grupo 81192" transform="translate(987.111 630.643)">
          <path id="Trazado_113587" data-name="Trazado 113587" d="M1053.493,650.422h-26.084a.553.553,0,0,1,0-1.106h26.084a.553.553,0,0,1,0,1.106Z" transform="translate(-1026.857 -649.316)" fill="#32293a"/>
        </g>
        <g id="Grupo_81193" data-name="Grupo 81193" transform="translate(967.405 734.37)">
          <path id="Trazado_113588" data-name="Trazado 113588" d="M1003.275,812.162a.552.552,0,0,1-.552-.553l.061-20.288,7.555-14.674a.552.552,0,1,1,.981.507l-7.492,14.554v19.9A.552.552,0,0,1,1003.275,812.162Z" transform="translate(-1002.723 -776.349)" fill="#faf5ff"/>
        </g>
        <g id="Grupo_81194" data-name="Grupo 81194" transform="translate(987.422 777.872)">
          <path id="Trazado_113589" data-name="Trazado 113589" d="M1037.1,844.017a.551.551,0,0,1-.452-.236l-9.306-13.285a.552.552,0,1,1,.9-.635l9.307,13.285a.554.554,0,0,1-.452.871Z" transform="translate(-1027.238 -829.625)" fill="#faf5ff"/>
        </g>
        <g id="Grupo_81195" data-name="Grupo 81195" transform="translate(941.226 714.682)">
          <path id="Trazado_113590" data-name="Trazado 113590" d="M971.214,765.16a.553.553,0,0,1,0-1.106c7.238,0,11.24-6.66,11.24-11.264a.552.552,0,1,1,1.1,0C983.558,758.641,978.489,765.16,971.214,765.16Z" transform="translate(-970.662 -752.237)" fill="#faf5ff"/>
        </g>
        <g id="Grupo_81196" data-name="Grupo 81196" transform="translate(962.422 664.07)">
          <path id="Trazado_113591" data-name="Trazado 113591" d="M999.194,695.411a2.579,2.579,0,1,1,2.575-2.579A2.579,2.579,0,0,1,999.194,695.411Zm0-4.052a1.473,1.473,0,1,0,1.47,1.473A1.473,1.473,0,0,0,999.194,691.359Z" transform="translate(-996.621 -690.253)" fill="#faf5ff"/>
        </g>
        <g id="Grupo_81197" data-name="Grupo 81197" transform="translate(964.987 598.269)">
          <path id="Trazado_113592" data-name="Trazado 113592" d="M1003.507,618.752a.545.545,0,0,1-.163-.025.552.552,0,0,1-.364-.691l.421-1.37a.293.293,0,0,0-.04-.256.259.259,0,0,0-.2-.115,3.617,3.617,0,0,1-2.791-1.327,3.21,3.21,0,0,1-.548-2.547,4.128,4.128,0,0,1,1.8-2.671.553.553,0,0,1,.583.94,3.028,3.028,0,0,0-1.3,1.937,2.1,2.1,0,0,0,.349,1.68,2.62,2.62,0,0,0,1.975.884,1.361,1.361,0,0,1,1.036.591,1.394,1.394,0,0,1,.185,1.21l-.421,1.37A.553.553,0,0,1,1003.507,618.752Z" transform="translate(-999.761 -609.667)" fill="#32293a"/>
        </g>
        <g id="Grupo_81198" data-name="Grupo 81198" transform="translate(962.635 612.567)">
          <path id="Trazado_113593" data-name="Trazado 113593" d="M998.858,633.743a7.9,7.9,0,0,1-1.532-.152.553.553,0,0,1,.213-1.086c4.275.843,7.177-2.59,7.992-4.954a.552.552,0,1,1,1.043.362C1005.737,630.338,1002.982,633.743,998.858,633.743Z" transform="translate(-996.881 -627.179)" fill="#32293a"/>
        </g>
        <g id="Grupo_81199" data-name="Grupo 81199" transform="translate(955.588 603.091)">
          <path id="Trazado_113594" data-name="Trazado 113594" d="M988.8,619.78a.527.527,0,0,1-.08-.006.552.552,0,0,1-.467-.625,4.339,4.339,0,0,1,1.787-2.918,3.689,3.689,0,0,1,2.97-.559.553.553,0,0,1-.24,1.079,2.6,2.6,0,0,0-2.1.389,3.269,3.269,0,0,0-1.321,2.165A.551.551,0,0,1,988.8,619.78Z" transform="translate(-988.251 -615.573)" fill="#32293a"/>
        </g>
        <path id="Trazado_113595" data-name="Trazado 113595" d="M994.659,619.8a1.113,1.113,0,1,1-1.645-.56A1.249,1.249,0,0,1,994.659,619.8Z" transform="translate(-33.456 -13.129)" fill="#32293a"/>
        <path id="Trazado_113596" data-name="Trazado 113596" d="M1003.324,614.249a1.113,1.113,0,1,1-1.644-.56A1.248,1.248,0,0,1,1003.324,614.249Z" transform="translate(-35.046 -12.111)" fill="#32293a"/>
        <g id="Grupo_81200" data-name="Grupo 81200" transform="translate(965.86 609.432)">
          <path id="Trazado_113597" data-name="Trazado 113597" d="M1002.021,625.618a2.25,2.25,0,0,1-.846-.165.553.553,0,0,1,.415-1.025,1.1,1.1,0,0,0,.932-.038.843.843,0,0,0,.437-.6.547.547,0,0,1,.647-.438.553.553,0,0,1,.437.648,1.949,1.949,0,0,1-.995,1.365A2.168,2.168,0,0,1,1002.021,625.618Z" transform="translate(-1000.831 -623.339)" fill="#32293a"/>
        </g>
        <g id="Grupo_81201" data-name="Grupo 81201" transform="translate(946.315 617.559)">
          <path id="Trazado_113598" data-name="Trazado 113598" d="M977.446,647.656a.554.554,0,0,1-.39-.945l3.24-3.252a4.855,4.855,0,0,0,1.193-4.916l-1.44-4.53a.552.552,0,1,1,1.052-.336l1.44,4.53a5.962,5.962,0,0,1-1.462,6.033l-3.241,3.253A.553.553,0,0,1,977.446,647.656Z" transform="translate(-976.895 -633.291)" fill="#32293a"/>
        </g>
        <g id="Grupo_81202" data-name="Grupo 81202" transform="translate(962.943 618.028)">
          <path id="Trazado_113599" data-name="Trazado 113599" d="M997.812,662.114h0a.553.553,0,0,1,0-1.106h0a9.654,9.654,0,0,0,7.2-2.8c3.489-3.57,3.79-9.492,3.814-10.793l-4.762-3.718a5.926,5.926,0,0,1-1.76-2.253l-3.024-6.8a.552.552,0,1,1,1.007-.451l3.025,6.8a4.834,4.834,0,0,0,1.431,1.831l4.976,3.886a.552.552,0,0,1,.213.425c.006.3.109,7.51-4.129,11.848A10.723,10.723,0,0,1,997.812,662.114Z" transform="translate(-997.259 -633.866)" fill="#32293a"/>
        </g>
        <g id="Grupo_81206" data-name="Grupo 81206" transform="translate(1075.157 578.951)">
          <g id="Grupo_81203" data-name="Grupo 81203" transform="translate(0 14.771)">
            <path id="Trazado_113600" data-name="Trazado 113600" d="M1169.176,621.714a16.907,16.907,0,1,1-27.889-12.87,16.7,16.7,0,0,1,5.224-3.069,16.994,16.994,0,0,1,11.516,0,16.706,16.706,0,0,1,5.224,3.069A16.889,16.889,0,0,1,1169.176,621.714Z" transform="translate(-1134.81 -604.222)" fill="#25c766"/>
            <path id="Trazado_113601" data-name="Trazado 113601" d="M1152.144,639.088A17.5,17.5,0,0,1,1140.8,608.3a17.188,17.188,0,0,1,5.4-3.167,17.613,17.613,0,0,1,11.89,0,17.2,17.2,0,0,1,5.4,3.17,17.5,17.5,0,0,1-11.343,30.787Zm0-33.888a16.338,16.338,0,0,0-5.57.972,16.058,16.058,0,0,0-5.051,2.966,16.355,16.355,0,1,0,21.245,0,16.06,16.06,0,0,0-5.053-2.969A16.356,16.356,0,0,0,1152.144,605.2Z" transform="translate(-1134.686 -604.099)" fill="#32293a"/>
          </g>
          <g id="Grupo_81204" data-name="Grupo 81204" transform="translate(5.924)">
            <path id="Trazado_113602" data-name="Trazado 113602" d="M1164.582,597.682v7.844a16.706,16.706,0,0,0-5.224-3.069v-4.775a5.758,5.758,0,1,0-11.516,0v4.775a16.707,16.707,0,0,0-5.224,3.069v-7.844a10.982,10.982,0,1,1,21.964,0Z" transform="translate(-1142.065 -586.133)" fill="#2ff980"/>
            <path id="Trazado_113603" data-name="Trazado 113603" d="M1165.01,606.609l-.914-.79a16.061,16.061,0,0,0-5.05-2.966l-.365-.132v-5.163a5.205,5.205,0,1,0-10.411,0v5.163l-.365.132a16.075,16.075,0,0,0-5.051,2.967l-.913.788v-9.05a11.534,11.534,0,1,1,23.069,0Zm-11.534-19.494a10.448,10.448,0,0,0-10.431,10.443v6.687a17.132,17.132,0,0,1,4.12-2.3v-4.392a6.31,6.31,0,1,1,12.62,0v4.392a17.11,17.11,0,0,1,4.119,2.3v-6.687A10.447,10.447,0,0,0,1153.475,587.115Z" transform="translate(-1141.941 -586.009)" fill="#32293a"/>
          </g>
          <g id="Grupo_81205" data-name="Grupo 81205" transform="translate(14.06 26.445)">
            <path id="Trazado_113604" data-name="Trazado 113604" d="M1158.274,621.925a2.855,2.855,0,0,1-1.081,2.243v4.862a1.768,1.768,0,0,1-3.02,1.257,1.789,1.789,0,0,1-.518-1.257v-4.87a2.851,2.851,0,1,1,4.618-2.236Z" transform="translate(-1152.029 -618.52)" fill="#32293a"/>
            <path id="Trazado_113605" data-name="Trazado 113605" d="M1155.3,631.235a2.311,2.311,0,0,1-1.644-.68,2.353,2.353,0,0,1-.68-1.649v-4.618a3.4,3.4,0,1,1,4.641.009v4.609A2.325,2.325,0,0,1,1155.3,631.235Zm0-11.733a2.3,2.3,0,0,0-1.426,4.1.553.553,0,0,1,.206.431v4.87a1.235,1.235,0,0,0,.356.866,1.217,1.217,0,0,0,2.077-.866v-4.862a.553.553,0,0,1,.208-.433,2.3,2.3,0,0,0-1.422-4.109Z" transform="translate(-1151.905 -618.396)" fill="#32293a"/>
          </g>
        </g>
        <g id="Grupo_81209" data-name="Grupo 81209" transform="translate(825.953 722.076)">
          <g id="Grupo_81207" data-name="Grupo 81207">
            <path id="Trazado_113606" data-name="Trazado 113606" d="M873.369,779.259v-.2a8.76,8.76,0,0,0-15.173-6v-2.294a8.773,8.773,0,1,0-17.546,0v8.466h-1.712a8.792,8.792,0,0,0,0,17.584H872.76a8.788,8.788,0,0,0,.608-17.553Z" transform="translate(-829.613 -761.417)" fill="#462eb4"/>
            <path id="Trazado_113607" data-name="Trazado 113607" d="M872.636,797.241H838.814a9.345,9.345,0,0,1,0-18.69h1.16v-7.912a9.324,9.324,0,1,1,18.649,0v1.023a9.194,9.194,0,0,1,5.849-2.075,9.344,9.344,0,0,1,9.319,9.046,9.341,9.341,0,0,1-1.155,18.608Zm-33.823-17.584a8.239,8.239,0,0,0,0,16.478h33.823a8.235,8.235,0,0,0,.57-16.448.551.551,0,0,1-.514-.551v-.2a8.239,8.239,0,0,0-8.221-8.238,8.13,8.13,0,0,0-6,2.617.552.552,0,0,1-.955-.378v-2.294a8.22,8.22,0,1,0-16.441,0V779.1a.552.552,0,0,1-.552.553Z" transform="translate(-829.489 -761.293)" fill="#32293a"/>
          </g>
          <ellipse id="Elipse_4721" data-name="Elipse 4721" cx="6.16" cy="6.173" rx="6.16" ry="6.173" transform="translate(19.282 17.472)" fill="#fffdf7"/>
          <g id="Grupo_81208" data-name="Grupo 81208" transform="translate(22.11 15.948)">
            <path id="Trazado_113608" data-name="Trazado 113608" d="M859.845,791.54a.555.555,0,0,1-.391-.162l-2.724-2.731a.552.552,0,0,1,.78-.782l2.335,2.34,9.2-9.218a.553.553,0,0,1,.781.782l-9.588,9.609A.553.553,0,0,1,859.845,791.54Z" transform="translate(-856.567 -780.824)" fill="#32293a"/>
          </g>
        </g>
        <g id="Grupo_81210" data-name="Grupo 81210" transform="translate(1084.735 738.979)">
          <path id="Trazado_113609" data-name="Trazado 113609" d="M1152.232,877.082a.57.57,0,0,1-.164-.025.555.555,0,0,1-.363-.693c1.949-6.294.169-10.854-1.894-16.134-2.16-5.53-4.608-11.8-2.72-21.139,1.354-6.692,5.862-11.4,11.08-16.846,8.274-8.64,17.651-18.432,17.651-39.7a.552.552,0,1,1,1.1,0c0,21.712-9.958,32.11-17.96,40.465-5.1,5.324-9.5,9.923-10.792,16.3-1.825,9.021.457,14.865,2.664,20.517,2.05,5.245,3.984,10.2,1.921,16.865A.554.554,0,0,1,1152.232,877.082Z" transform="translate(-1146.416 -781.993)" fill="#32293a"/>
        </g>
        <g id="Grupo_81211" data-name="Grupo 81211" transform="translate(844.958 572.278)">
          <path id="Trazado_113610" data-name="Trazado 113610" d="M868.735,668.654l-.053,0a.553.553,0,0,1-.5-.6c.727-7.69-2.935-14.357-6.812-21.416-5.422-9.869-11.565-21.058-7.033-37.578,6.652-24.247,28.419-29.906,37.47-31.212a.553.553,0,0,1,.156,1.094c-8.835,1.276-30.083,6.794-36.562,30.412-4.414,16.087,1.615,27.065,6.936,36.751,3.961,7.212,7.7,14.023,6.944,22.052A.554.554,0,0,1,868.735,668.654Z" transform="translate(-852.764 -577.837)" fill="#32293a"/>
        </g>
        <g id="Grupo_81212" data-name="Grupo 81212" transform="translate(926.379 552.761)">
          <path id="Trazado_113611" data-name="Trazado 113611" d="M958.486,565.976a6.02,6.02,0,1,1,6.006-6.02A6.021,6.021,0,0,1,958.486,565.976Zm0-10.934a4.914,4.914,0,1,0,4.9,4.914A4.914,4.914,0,0,0,958.486,555.041Z" transform="translate(-952.479 -553.935)" fill="#32293a"/>
        </g>
        <g id="Grupo_81213" data-name="Grupo 81213" transform="translate(943.567 565.146)">
          <path id="Trazado_113612" data-name="Trazado 113612" d="M976.957,575.973a3.436,3.436,0,1,1,3.428-3.436A3.436,3.436,0,0,1,976.957,575.973Zm0-5.765a2.329,2.329,0,1,0,2.324,2.329A2.329,2.329,0,0,0,976.957,570.208Z" transform="translate(-973.529 -569.102)" fill="#32293a"/>
        </g>
        <g id="Grupo_81214" data-name="Grupo 81214" transform="translate(855.473 830.93)">
          <path id="Trazado_113613" data-name="Trazado 113613" d="M871.1,905.538a5.467,5.467,0,1,1,5.455-5.468A5.468,5.468,0,0,1,871.1,905.538Zm0-9.828a4.361,4.361,0,1,0,4.351,4.36A4.36,4.36,0,0,0,871.1,895.71Z" transform="translate(-865.642 -894.604)" fill="#32293a"/>
        </g>
        <g id="Grupo_81215" data-name="Grupo 81215" transform="translate(836.407 826.328)">
          <path id="Trazado_113614" data-name="Trazado 113614" d="M845.522,895.444a3.238,3.238,0,1,1,3.231-3.238A3.237,3.237,0,0,1,845.522,895.444Zm0-5.369a2.131,2.131,0,1,0,2.127,2.131A2.131,2.131,0,0,0,845.522,890.075Z" transform="translate(-842.292 -888.969)" fill="#32293a"/>
        </g>
        <g id="Grupo_81216" data-name="Grupo 81216" transform="translate(1106.293 688.162)">
          <path id="Trazado_113615" data-name="Trazado 113615" d="M1176.047,726.234a3.238,3.238,0,1,1,3.231-3.238A3.238,3.238,0,0,1,1176.047,726.234Zm0-5.368a2.131,2.131,0,1,0,2.127,2.13A2.131,2.131,0,0,0,1176.047,720.866Z" transform="translate(-1172.817 -719.759)" fill="#32293a"/>
        </g>
      </g>
      <g id="Grupo_81218" data-name="Grupo 81218" transform="translate(20)">
        <g id="Elipse_4722" data-name="Elipse 4722" transform="translate(1315 1040)" fill="none" stroke="#583ae2" stroke-width="15">
          <circle cx="36" cy="36" r="36" stroke="none"/>
          <circle cx="36" cy="36" r="28.5" fill="none"/>
        </g>
        <circle id="Elipse_4723" data-name="Elipse 4723" cx="11.5" cy="11.5" r="11.5" transform="translate(1377 1021)" fill="#40327b"/>
        <circle id="Elipse_4724" data-name="Elipse 4724" cx="22.5" cy="22.5" r="22.5" transform="translate(1000 748)" fill="#1c954d"/>
      </g>
    </g>
  </g>
</svg>
