<svg xmlns="http://www.w3.org/2000/svg" xmlns:xlink="http://www.w3.org/1999/xlink" width="146" height="130" viewBox="0 0 146 130"><defs><clipPath id="a"><rect width="146" height="130" transform="translate(-3551 -6996)" fill="#fff" stroke="#707070" stroke-width="1"/></clipPath></defs><g transform="translate(3551 6996)" clip-path="url(#a)"><g transform="translate(-3534.244 -6987.539)"><path d="M142.846,175.439a25.392,25.392,0,0,0-38.427,32.984l-6.26,6.26,5.443,5.443,6.26-6.26a25.394,25.394,0,0,0,32.984-38.427Zm-1.034,24.493a18.141,18.141,0,1,1-23.459-23.441,17.8,17.8,0,0,1,6.532-1.234,18.146,18.146,0,0,1,16.928,24.675Zm0,0" transform="translate(-75.898 -129.899)" fill="#ccd1d9"/><path d="M29.772,401.072l-12.7,12.7A9.044,9.044,0,0,1,8,404.7L20.7,392Zm0,0" transform="translate(-6.186 -303.098)" fill="#cf9e76"/><path d="M206.558,205.316l-11.049,11.049a30.753,30.753,0,0,1-8.31-15.131A17.8,17.8,0,0,1,193.731,200,18.087,18.087,0,0,1,206.558,205.316Zm0,0" transform="translate(-144.745 -154.642)" fill="#ff826e"/><path d="M214.843,40V70.843l-5.625,5.625A25.441,25.441,0,0,0,184,70.081,30.864,30.864,0,0,1,214.843,40Zm0,0" transform="translate(-142.271 -30.928)" fill="#ff826e"/><path d="M240.2,236.268a18.177,18.177,0,0,1-1.215,6.532,30.807,30.807,0,0,1-15.15-8.31l11.049-11.049a18.086,18.086,0,0,1,5.316,12.827Zm0,0" transform="translate(-173.075 -172.767)" fill="#b4dd7f"/><path d="M300.823,176h30.843a30.864,30.864,0,0,1-30.082,30.843,25.442,25.442,0,0,0-6.386-25.219Zm0,0" transform="translate(-228.251 -136.085)" fill="#b4dd7f"/><path d="M379.215,24.329A30.843,30.843,0,0,0,352,8V38.843h30.843A30.525,30.525,0,0,0,379.215,24.329Zm0,0" transform="translate(-272.17 -6.186)" fill="#fcd770"/><path d="M71.747,367.654,79,374.912l-5.933,5.933L64,371.773l5.933-5.933Zm0,0" transform="translate(-49.485 -282.871)" fill="#ffeaa7"/><path d="M171.071,228.882a18.141,18.141,0,1,1-23.459-23.441,30.878,30.878,0,0,0,23.459,23.441Zm0,0" transform="translate(-105.157 -158.85)" fill="#69d6f4"/><g transform="translate(0)"><path d="M147.957,192a19.957,19.957,0,1,0,19.958,19.957A19.981,19.981,0,0,0,147.957,192Zm10.18,7.212-8.357,8.357a28.935,28.935,0,0,1-6.174-11.334,16.158,16.158,0,0,1,14.53,2.978Zm-10.18,29.074a16.325,16.325,0,0,1-7.749-30.7,32.746,32.746,0,0,0,22.116,22.116,16.339,16.339,0,0,1-14.367,8.58Zm15.721-11.978a28.981,28.981,0,0,1-11.334-6.174l8.357-8.357a16.14,16.14,0,0,1,2.978,14.53Zm0,0" transform="translate(-98.971 -148.456)" fill="#1e1713"/><path d="M35.629,449.814A1.814,1.814,0,1,1,33.814,448,1.814,1.814,0,0,1,35.629,449.814Zm0,0" transform="translate(-24.743 -346.398)" fill="#1e1713"/><path d="M74.387,32H72.573A32.839,32.839,0,0,0,40.021,62.578a27.137,27.137,0,0,0-13.841,40.465l-3.91,3.909-1.814-1.814L0,125.591v.753A10.9,10.9,0,0,0,10.886,137.23h.751l20.454-20.454-1.814-1.814,3.909-3.91A27.138,27.138,0,0,0,74.652,97.212a32.842,32.842,0,0,0,30.578-32.554V62.843H74.387Zm-3.629,3.687V63.907l-3.881,3.881A27.012,27.012,0,0,0,43.725,61.55,29.239,29.239,0,0,1,70.758,35.687ZM10.169,133.565a7.269,7.269,0,0,1-6.5-6.5L14.516,116.21l6.506,6.506Zm13.417-13.417-6.5-6.5,3.374-3.374,6.506,6.506Zm4.127-7.754-2.877-2.877,3.547-3.547a27.573,27.573,0,0,0,2.877,2.877Zm21.273-.564A23.586,23.586,0,1,1,72.573,88.244,23.613,23.613,0,0,1,48.987,111.83Zm52.557-45.358A29.237,29.237,0,0,1,75.681,93.5a27.008,27.008,0,0,0-6.238-23.15l3.881-3.881Zm0,0" transform="translate(0 -24.743)" fill="#1e1713"/><path d="M240,96h12.7v3.629H240Zm0,0" transform="translate(-185.571 -74.228)" fill="#1e1713"/><path d="M240,128h12.7v3.629H240Zm0,0" transform="translate(-185.571 -98.971)" fill="#1e1713"/><path d="M352,200h12.7v3.629H352Zm0,0" transform="translate(-272.17 -154.642)" fill="#1e1713"/><path d="M352,232h12.7v3.629H352Zm0,0" transform="translate(-272.17 -179.385)" fill="#1e1713"/><path d="M345.814,0H344V34.472h34.472V32.658A32.7,32.7,0,0,0,345.814,0Zm24.942,17.851L357.763,30.843h-7.569l17.363-17.363A29.112,29.112,0,0,1,370.756,17.851Zm-23.127,2.858L360.621,7.716a29.022,29.022,0,0,1,4.37,3.2L347.629,28.278Zm9.589-14.72-9.589,9.589V3.684a28.792,28.792,0,0,1,9.589,2.3Zm5.677,24.855,9.589-9.589a28.8,28.8,0,0,1,2.3,9.589Zm0,0" transform="translate(-265.984)" fill="#1e1713"/><path d="M163.629,280H160a12.714,12.714,0,0,0,12.7,12.7v-3.629A9.082,9.082,0,0,1,163.629,280Zm0,0" transform="translate(-123.714 -216.499)" fill="#1e1713"/></g></g></g></svg>