<svg xmlns="http://www.w3.org/2000/svg" xmlns:xlink="http://www.w3.org/1999/xlink" width="146" height="130" viewBox="0 0 146 130"><defs><clipPath id="a"><rect width="146" height="130" transform="translate(-3551 -6996)" fill="#fff" stroke="#707070" stroke-width="1"/></clipPath></defs><g transform="translate(3551 6996)" clip-path="url(#a)"><g transform="translate(-3530.218 -7005.679)"><g transform="translate(1.53 32.532)"><path d="M41.285,262.137l9.738-10.393a23.066,23.066,0,0,1-5.331-5.331L28.91,262.137,16.761,273.521a4.688,4.688,0,0,0-.672.785,5.074,5.074,0,0,0,.668,6.373,5.02,5.02,0,0,0,7.158,0l5.9-6.3Z" transform="translate(-13.676 -204.004)" fill="#ffee89" fill-rule="evenodd"/><path d="M108.876,323.5H35.109L23.642,335.739h82.175a3.069,3.069,0,0,0,3.059-3.022V323.5ZM7.5,323.5v9.179a3.071,3.071,0,0,0,2.412,2.99,4.689,4.689,0,0,1,.672-.785L22.734,323.5H7.5Z" transform="translate(-7.501 -265.368)" fill="#a9baca" fill-rule="evenodd"/><path d="M12.09,333.476V323.5H7.5v9.179a3.071,3.071,0,0,0,2.412,2.99,4.688,4.688,0,0,1,.672-.785Z" transform="translate(-7.501 -265.369)" fill="#8ca3b7" fill-rule="evenodd"/><path d="M221.585,389.62V383.5h-9.179v6.119L207,395.739H226.99Z" transform="translate(-166.308 -313.13)" fill="#8ca3b7" fill-rule="evenodd"/><path d="M126.6,443.5H109.06a3.07,3.07,0,0,0-3.06,3.06v3.06h61.193v-3.06a3.069,3.069,0,0,0-3.06-3.06H126.6Z" transform="translate(-85.908 -360.891)" fill="#a9baca" fill-rule="evenodd"/><path d="M109.06,443.5a3.07,3.07,0,0,0-3.06,3.06v3.06h4.589v-3.06a3.07,3.07,0,0,1,3.06-3.06Z" transform="translate(-85.908 -360.891)" fill="#8ca3b7" fill-rule="evenodd"/><path d="M7.5,96.635H22.735l16.78-15.723a22.955,22.955,0,1,1,5.332,5.33L35.109,96.635h73.767V38.5H7.5Z" transform="translate(-7.501 -38.502)" fill="#75e6fb" fill-rule="evenodd"/><path d="M7.5,38.5h4.589V96.635H7.5Z" transform="translate(-7.499 -38.502)" fill="#00ccf6" fill-rule="evenodd"/><circle cx="22.947" cy="22.947" r="22.947" transform="translate(27.741 6.119)" fill="#fff"/><path d="M153.471,255.116l3.159-3.371a23.067,23.067,0,0,1-5.331-5.331l-3.371,3.159A27.724,27.724,0,0,0,153.471,255.116Z" transform="translate(-119.283 -204.005)" fill="#ffe200" fill-rule="evenodd"/><path d="M168.743,114.279a22.948,22.948,0,0,1,0-45.666,22.948,22.948,0,1,0,0,45.666Z" transform="translate(-115.759 -62.379)" fill="#9ce4f8" fill-rule="evenodd"/><g transform="translate(93.727 4.589)"><path d="M470.062,70.181H467v-3.06h3.06Zm0-6.119H467V61h3.06Z" transform="translate(-467.002 -61.002)" fill="#fff"/></g></g><g transform="translate(0 31.002)"><path d="M0,31v9.179H3.06V34.062h98.316V89.135H32.668l6.441-6.874a24.5,24.5,0,1,0-7.553-7.553l-15.4,14.427H3.06V43.24H0v56.6a4.612,4.612,0,0,0,1.9,3.709,6.509,6.509,0,0,0-.317,1.915,6.645,6.645,0,0,0,6.658,6.766h.107a6.294,6.294,0,0,0,4.536-1.985l5.449-5.816H46.1v4.01l-4.565,5.168H24.681a4.6,4.6,0,0,0-4.589,4.589v4.589H65.986v-3.06H23.151V118.2a1.532,1.532,0,0,1,1.53-1.53H79.754a1.532,1.532,0,0,1,1.53,1.53v1.53H75.165v3.06h9.179V118.2a4.6,4.6,0,0,0-4.589-4.589H62.9l-4.565-5.168v-4.01H99.846a4.6,4.6,0,0,0,4.59-4.589V31Zm52.218,9.179A21.417,21.417,0,1,1,30.8,61.6,21.442,21.442,0,0,1,52.218,40.181ZM12.893,92.194l-9.325,8.737-.023.023a1.531,1.531,0,0,1-.485-1.112V92.194Zm-2.241,15.962A3.26,3.26,0,0,1,8.3,109.174a3.586,3.586,0,0,1-3.656-3.656,3.259,3.259,0,0,1,1.018-2.353L33.371,77.2a24.683,24.683,0,0,0,3.246,3.246Zm48.167,5.455h-13.2l3.543-4.01v-5.168h6.119V109.6Zm41.026-12.238H21.2l8.6-9.179h71.575v7.649A1.532,1.532,0,0,1,99.846,101.373Z" transform="translate(0 -31.002)"/><path d="M338.5,466h3.06v3.06H338.5Z" transform="translate(-269.456 -377.271)"/><path d="M248.5,346h3.06v3.06H248.5Z" transform="translate(-197.813 -281.749)"/><path d="M291.2,159.023l7.572-7.572-7.572-7.572-2.164,2.163,5.409,5.409-5.409,5.409Z" transform="translate(-230.077 -120.855)"/><path d="M0,0H20.056V3.06H0Z" transform="matrix(0.305, -0.952, 0.952, 0.305, 47.687, 39.691)"/><path d="M184.975,156.86l-5.409-5.409,5.409-5.409-2.164-2.163-7.572,7.572,7.572,7.572Z" transform="translate(-139.495 -120.855)"/></g></g></g></svg>