<svg xmlns="http://www.w3.org/2000/svg" xmlns:xlink="http://www.w3.org/1999/xlink" width="146" height="130" viewBox="0 0 146 130"><defs><clipPath id="a"><rect width="146" height="130" transform="translate(-3551 -6996)" fill="#fff" stroke="#707070" stroke-width="1"/></clipPath></defs><g transform="translate(3551 6996)" clip-path="url(#a)"><g transform="translate(-3535.396 -6988.396)"><g transform="translate(2.819 2.819)"><g transform="translate(3.638 54.577)"><path d="M40.385,75.661V84.1A2.48,2.48,0,0,1,36,85.685L27.65,75.661H7.638A3.649,3.649,0,0,1,4,72.023V35.638A3.649,3.649,0,0,1,7.638,32H26.431l2.292,2.747a2.48,2.48,0,0,0,4.384-1.583V32H47.661v3.638A3.649,3.649,0,0,0,51.3,39.277H65.854V72.023a3.649,3.649,0,0,1-3.638,3.638Z" transform="translate(-4 -32)" fill="#e6e9ed"/></g><g transform="translate(47.3 14.554)"><path d="M31.638,42.746a3.649,3.649,0,0,0,3.638-3.638V10H86.215a3.649,3.649,0,0,1,3.638,3.638V53.661A3.649,3.649,0,0,1,86.215,57.3H66.2l-8.35,10.024a2.48,2.48,0,0,1-4.384-1.583V57.3H31.638A3.649,3.649,0,0,1,28,53.661V42.746Z" transform="translate(-28 -10)" fill="#ffeaa7"/></g><g transform="translate(0)"><path d="M56.577,16.554V45.661A3.649,3.649,0,0,1,52.938,49.3H34.746v8.441a2.48,2.48,0,0,1-4.384,1.583L28.07,56.577,22.011,49.3H5.638A3.649,3.649,0,0,1,2,45.661V5.638A3.649,3.649,0,0,1,5.638,2h47.3a3.649,3.649,0,0,1,3.638,3.638Z" transform="translate(-2 -2)" fill="#f0d0b4"/></g><g transform="translate(10.915 80.046)"><path d="M22.608,47.874A10.068,10.068,0,0,0,21.553,51.4l-.819,7.331H8V55.1A9.1,9.1,0,0,1,17.1,46a8.964,8.964,0,0,1,5.512,1.874Z" transform="translate(-8 -46)" fill="#b4dd7f"/></g><g transform="translate(43.607 80.046)"><path d="M40.578,55.1v3.638H27.844L27.025,51.4a10.069,10.069,0,0,0-1.055-3.529A8.964,8.964,0,0,1,31.482,46a9.069,9.069,0,0,1,9.1,9.1Z" transform="translate(-25.97 -46)" fill="#b4dd7f"/></g><g transform="translate(23.65 76.408)"><path d="M36.012,53.042l.819,7.331H15l.819-7.331A10.13,10.13,0,0,1,25.915,44,10.233,10.233,0,0,1,32.7,46.583a10.776,10.776,0,0,1,2.256,2.929A10.069,10.069,0,0,1,36.012,53.042Z" transform="translate(-15 -44)" fill="#fcd770"/></g><g transform="translate(43.661 69.131)"><ellipse cx="5.5" cy="5" rx="5.5" ry="5" transform="translate(-0.085 0.446)" fill="#f0d0b4"/></g><g transform="translate(29.108 65.492)"><ellipse cx="5" cy="5.5" rx="5" ry="5.5" transform="translate(0.469 0.084)" fill="#f0d0b4"/></g><g transform="translate(14.554 69.131)"><ellipse cx="5.5" cy="5" rx="5.5" ry="5" transform="translate(0.023 0.446)" fill="#f0d0b4"/></g><g transform="translate(10.915 10.915)"><path d="M40.746,17.533v.291A10.592,10.592,0,0,1,37.217,25.7L24.373,37.108,11.529,25.7A10.592,10.592,0,0,1,8,17.824v-.291a9.862,9.862,0,0,1,2.893-6.968,8.784,8.784,0,0,1,12.407,0l1.073,1.073,1.073-1.073a8.784,8.784,0,0,1,12.407,0A9.862,9.862,0,0,1,40.746,17.533Z" transform="translate(-8 -8)" fill="#ff826e"/></g><g transform="translate(61.854 32.746)"><path d="M46.915,38.192v1.819A1.825,1.825,0,0,1,45.1,41.831H37.819A1.825,1.825,0,0,1,36,40.011V21.819A1.825,1.825,0,0,1,37.819,20H45.1a1.825,1.825,0,0,1,1.819,1.819Z" transform="translate(-36 -20)" fill="#b4dd7f"/></g><g transform="translate(72.769 21.831)"><path d="M67.469,30.373V41.288a5.45,5.45,0,0,1-5.458,5.458H54.025A21.727,21.727,0,0,1,42,43.108V26.735l2.165-2.165a16.893,16.893,0,0,0,4.421-7.823A3.623,3.623,0,0,1,52.115,14a5.293,5.293,0,0,1,5.221,6.167l-.782,4.748h5.458a5.45,5.45,0,0,1,5.458,5.458Z" transform="translate(-42 -14)" fill="#f0d0b4"/></g></g><g transform="translate(1 1)"><path d="M43.385,18.641v-.286a11.59,11.59,0,0,0-3.418-8.25,10.6,10.6,0,0,0-14.774-.215,10.6,10.6,0,0,0-14.774.215A11.59,11.59,0,0,0,7,18.356v.286a12.363,12.363,0,0,0,4.146,9.233L25.192,40.361,39.237,27.876a12.359,12.359,0,0,0,4.148-9.234ZM25.192,35.493,13.564,25.156a8.72,8.72,0,0,1-2.925-6.515v-.286a7.976,7.976,0,0,1,2.352-5.678,6.966,6.966,0,0,1,9.849,0l2.352,2.352,2.352-2.352a7.136,7.136,0,0,1,9.849,0,7.976,7.976,0,0,1,2.352,5.678v.286a8.723,8.723,0,0,1-2.925,6.515Z" transform="translate(3.915 3.915)"/><path d="M108.334,15.554H59.215v-9.1A5.464,5.464,0,0,0,53.758,1H6.458A5.464,5.464,0,0,0,1,6.458V46.481a5.464,5.464,0,0,0,5.458,5.458H21.979l3.033,3.638H10.1a5.464,5.464,0,0,0-5.458,5.458V97.419a5.464,5.464,0,0,0,5.458,5.458h19.16l7.808,9.369a4.3,4.3,0,0,0,7.6-2.751v-6.618H64.673a5.464,5.464,0,0,0,5.458-5.458V66.492h3.638V73.11a4.3,4.3,0,0,0,7.6,2.751l7.808-9.369h19.16a5.464,5.464,0,0,0,5.458-5.458V21.011a5.464,5.464,0,0,0-5.458-5.458ZM23.682,48.3H6.458a1.821,1.821,0,0,1-1.819-1.819V6.458A1.821,1.821,0,0,1,6.458,4.638h47.3a1.821,1.821,0,0,1,1.819,1.819V46.481A1.821,1.821,0,0,1,53.758,48.3H33.746V58.557a.681.681,0,0,1-1.164.42ZM48.3,51.938v3.638H37.385V51.938ZM66.492,97.419a1.821,1.821,0,0,1-1.819,1.819H41.023V109.5a.681.681,0,0,1-1.164.42l-8.9-10.677H10.1a1.821,1.821,0,0,1-1.819-1.819V61.034A1.821,1.821,0,0,1,10.1,59.215H28.043l1.745,2.092a4.284,4.284,0,0,0,7.53-2.092H48.3v1.819a5.464,5.464,0,0,0,5.458,5.458H66.492Zm43.661-36.385a1.821,1.821,0,0,1-1.819,1.819H87.471l-8.9,10.677a.682.682,0,0,1-1.164-.42V62.854H53.758a1.821,1.821,0,0,1-1.819-1.819v-9.1h1.819a5.464,5.464,0,0,0,5.458-5.458V19.192h49.119a1.821,1.821,0,0,1,1.819,1.819Z" transform="translate(-1 -1)"/><path d="M39.746,47.915a7.206,7.206,0,0,0,.673,3.014,12,12,0,0,0-2.6-1.759,7.277,7.277,0,1,0-10.7,0,12,12,0,0,0-2.6,1.759,7.206,7.206,0,0,0,.673-3.014,7.277,7.277,0,1,0-12.54,5A10.921,10.921,0,0,0,7,62.469v3.638h3.638V62.469a7.262,7.262,0,0,1,10.522-6.5,12.1,12.1,0,0,0-.6,2.609l-.815,7.331,3.615.4.815-7.331a8.345,8.345,0,0,1,16.588,0l.815,7.331,3.615-.4-.815-7.331a12,12,0,0,0-.6-2.609,7.262,7.262,0,0,1,10.522,6.5v3.638h3.638V62.469a10.921,10.921,0,0,0-5.652-9.556,7.269,7.269,0,1,0-12.54-5ZM17.915,51.554a3.638,3.638,0,1,1,3.638-3.638A3.642,3.642,0,0,1,17.915,51.554Zm14.554-3.638a3.638,3.638,0,1,1,3.638-3.638A3.642,3.642,0,0,1,32.469,47.915Zm18.192,0a3.638,3.638,0,1,1-3.638-3.638A3.642,3.642,0,0,1,50.661,47.915Z" transform="translate(3.915 28.492)"/><path d="M67.746,23.915H64.435l.438-2.627A7.119,7.119,0,0,0,57.853,13a5.453,5.453,0,0,0-5.3,4.133A15.007,15.007,0,0,1,48.611,24.1l-.537.537a3.612,3.612,0,0,0-2.159-.726H38.638A3.642,3.642,0,0,0,35,27.554V45.746a3.642,3.642,0,0,0,3.638,3.638h7.277a3.631,3.631,0,0,0,3.422-2.449,23.386,23.386,0,0,0,10.413,2.449h8a7.284,7.284,0,0,0,7.277-7.277V31.192a7.284,7.284,0,0,0-7.277-7.277ZM38.638,45.746V27.554h7.277l0,18.192Zm32.746-3.638a3.642,3.642,0,0,1-3.638,3.638h-8a19.767,19.767,0,0,1-10.2-2.834v-14.6l1.63-1.63a18.648,18.648,0,0,0,4.9-8.661,1.816,1.816,0,0,1,1.765-1.377,3.481,3.481,0,0,1,3.431,4.053l-1.142,6.862h7.6a3.642,3.642,0,0,1,3.638,3.638Z" transform="translate(26.854 8.831)"/></g></g></g></svg>