<svg xmlns="http://www.w3.org/2000/svg" xmlns:xlink="http://www.w3.org/1999/xlink" width="146" height="130" viewBox="0 0 146 130"><defs><clipPath id="a"><rect width="146" height="130" transform="translate(-3551 -6996)" fill="#fff" stroke="#707070" stroke-width="1"/></clipPath></defs><g transform="translate(3551 6996)" clip-path="url(#a)"><g transform="translate(-3562.441 -7015.441)"><g transform="translate(24 28.168)"><path d="M262.253,62.926a2.084,2.084,0,0,1,2.084-2.084h47.936V40H256V53.654a24.257,24.257,0,0,1,3.428,11.357h4.908A2.084,2.084,0,0,1,262.253,62.926Zm10.421-18.758H306.02a2.084,2.084,0,0,1,0,4.168H272.673a2.084,2.084,0,0,1,0-4.168Zm0,8.337H306.02a2.084,2.084,0,0,1,0,4.168H272.673a2.084,2.084,0,0,1,0-4.168Z" transform="translate(-195.559 -40)" fill="#2ff980"/><path d="M58.212,48.954a24.254,24.254,0,0,1,38.061,4.7V40H40V60.842h8.337a2.084,2.084,0,1,1,0,4.168h2.784a23.972,23.972,0,0,1,7.09-16.057Z" transform="translate(-35.832 -40)" fill="#25c766"/><path d="M256,166.589a2.084,2.084,0,0,1,2.084-2.084h14.589a2.084,2.084,0,1,1,0,4.168H258.084A2.084,2.084,0,0,1,256,166.589v6.253h16.673a2.084,2.084,0,1,1,0,4.168H256v12.505h16.673a2.084,2.084,0,1,1,0,4.168H256v4.168h16.673a2.084,2.084,0,1,1,0,4.168H256v12.505h16.673a2.084,2.084,0,1,1,0,4.168H256v4.168h16.673a2.084,2.084,0,1,1,0,4.168H256v8.337h56.273v-79.2h-39.6a2.084,2.084,0,0,1,0-4.168h-13.4A24.222,24.222,0,0,1,256,161.489Zm22.926-4.168a2.084,2.084,0,0,1,2.084-2.084h25.01a2.084,2.084,0,0,1,2.084,2.084v16.673a2.084,2.084,0,0,1-2.084,2.084H281.01a2.084,2.084,0,0,1-2.084-2.084Zm0,25.01a2.084,2.084,0,0,1,2.084-2.084h25.01a2.084,2.084,0,0,1,2.084,2.084V204.1a2.084,2.084,0,0,1-2.084,2.084H281.01a2.084,2.084,0,0,1-2.084-2.084Zm0,25.01a2.084,2.084,0,0,1,2.084-2.084h25.01a2.084,2.084,0,0,1,2.084,2.084v16.673a2.084,2.084,0,0,1-2.084,2.084H281.01a2.084,2.084,0,0,1-2.084-2.084Z" transform="translate(-195.559 -122.821)" fill="#b6fdd3"/><path d="M51,169.829l-4.223,4.223,1.142,1.142a2.084,2.084,0,0,1,0,2.947l-9.329,9.323a2.084,2.084,0,0,1-2.948,0l0,0L25.186,177a2.084,2.084,0,0,1,0-2.947l9.333-9.335a2.084,2.084,0,0,1,2.947,0l1.328,1.328,2.03-2.03,2.126-2.128a25.319,25.319,0,0,1-3.506-9.9H36.505a2.084,2.084,0,0,1,0,4.168H28.168v8.337a2.084,2.084,0,0,1-4.168,0v22.93a2.084,2.084,0,0,1,4.168,0v47.936H84.441v-8.337H42.758a2.084,2.084,0,1,1,0-4.168H84.441v-4.168H42.758a2.084,2.084,0,1,1,0-4.168H84.441V202.009H42.758a2.084,2.084,0,1,1,0-4.168H84.441v-4.168H42.758a2.084,2.084,0,1,1,0-4.168H84.441V177H76.1a2.084,2.084,0,1,1,0-4.168h8.337V161.477a24.285,24.285,0,0,1-3.643,4.706c-2.287,1.658-7.347,6.267-14.905,7.021C59.115,173.88,53.6,170.88,51,169.829Z" transform="translate(-24 -122.81)" fill="#e0feec"/><path d="M400,200h10.421v12.505H400Z" transform="translate(-302.043 -158.316)" fill="#d8f5ff"/><path d="M360,200h10.421v12.505H360Z" transform="translate(-272.464 -158.316)" fill="#b1dfff"/><path d="M400,296h10.421v12.505H400Z" transform="translate(-302.043 -229.306)" fill="#d8f5ff"/><path d="M400,392h10.421v12.505H400Z" transform="translate(-302.043 -300.296)" fill="#d8f5ff"/><path d="M92.1,206.679l2.1,2.1,3.752-3.752q-.625-.546-1.23-1.148c-.3-.3-.6-.625-.886-.934Z" transform="translate(-74.355 -160.493)" fill="#003f68"/><g transform="translate(5.598 5.986)"><path d="M45.487,224.22l6.385-6.385,7.513,7.513L53,231.733Z" transform="translate(-45.487 -177.491)" fill="#0a4b75"/><path d="M132.947,68.885a20.175,20.175,0,1,0,0,28.533A20.175,20.175,0,0,0,132.947,68.885Zm-2.282,26.246a16.947,16.947,0,1,1,0-23.968A16.947,16.947,0,0,1,130.665,95.131Z" transform="translate(-84.694 -62.976)" fill="#0a4b75"/></g><circle cx="12.776" cy="12.776" r="12.776" transform="translate(26.799 13.385)" fill="#d8f5ff"/><g transform="translate(87.536 66.694)"><path d="M360,296h10.421v12.505H360Z" transform="translate(-360 -296)" fill="#b1dfff"/><path d="M360,392h10.421v12.505H360Z" transform="translate(-360 -366.99)" fill="#b1dfff"/></g></g><g transform="translate(24 24)"><path d="M139.827,104.288a16.947,16.947,0,1,0-23.968,0A16.946,16.946,0,0,0,139.827,104.288ZM118.808,83.273a12.778,12.778,0,1,1,0,18.071h0A12.782,12.782,0,0,1,118.808,83.273Z" transform="translate(-88.258 -61.979)" fill-rule="evenodd"/><path d="M39.1,87.046a2.084,2.084,0,0,0-2.947,0L26.82,96.381a2.084,2.084,0,0,0,0,2.947L37.28,109.789a2.084,2.084,0,0,0,2.948,0l0,0,9.333-9.333a2.084,2.084,0,0,0,0-2.947L48.42,96.367l4.223-4.223a24.345,24.345,0,1,0-8.06-7.92l-4.152,4.15Zm-.336,18.322-7.516-7.5,6.386-6.386,7.5,7.5Zm12.2-48.339a14.266,14.266,0,1,1-.008,0ZM47.12,87.576c.286.317.581.625.886.934q.6.6,1.23,1.148l-3.752,3.752-2.109-2.088Z" transform="translate(-25.634 -40.967)" fill-rule="evenodd"/><path d="M142.8,24H26.084A2.084,2.084,0,0,0,24,26.084v25.01a2.084,2.084,0,0,0,2.084,2.084H36.505a2.084,2.084,0,0,0,0-4.168H28.168V28.168H140.714V49.01H92.778a2.084,2.084,0,0,0,0,4.168H142.8a2.084,2.084,0,0,0,2.084-2.084V26.084A2.084,2.084,0,0,0,142.8,24Z" transform="translate(-24 -24)" fill-rule="evenodd"/><path d="M314.084,60.168h33.347a2.084,2.084,0,0,0,0-4.168H314.084a2.084,2.084,0,1,0,0,4.168Z" transform="translate(-236.969 -47.663)" fill-rule="evenodd"/><path d="M314.084,92.168h33.347a2.084,2.084,0,0,0,0-4.168H314.084a2.084,2.084,0,1,0,0,4.168Z" transform="translate(-236.969 -71.327)" fill-rule="evenodd"/><path d="M142.8,152H101.115a2.084,2.084,0,1,0,0,4.168h39.6v79.2H28.168V187.431a2.084,2.084,0,1,0-4.168,0v50.02a2.084,2.084,0,0,0,2.084,2.084H142.8a2.084,2.084,0,0,0,2.084-2.084V154.084A2.084,2.084,0,0,0,142.8,152Z" transform="translate(-24 -118.653)" fill-rule="evenodd"/><path d="M346.084,204.842h25.01a2.084,2.084,0,0,0,2.084-2.084V186.084A2.084,2.084,0,0,0,371.094,184h-25.01A2.084,2.084,0,0,0,344,186.084v16.673A2.084,2.084,0,0,0,346.084,204.842Zm2.084-16.673H369.01v12.505H348.168Z" transform="translate(-260.633 -142.316)" fill-rule="evenodd"/><path d="M344,298.758a2.084,2.084,0,0,0,2.084,2.084h25.01a2.084,2.084,0,0,0,2.084-2.084V282.084A2.084,2.084,0,0,0,371.094,280h-25.01A2.084,2.084,0,0,0,344,282.084Zm4.168-14.589H369.01v12.505H348.168Z" transform="translate(-260.633 -213.306)" fill-rule="evenodd"/><path d="M344,394.758a2.084,2.084,0,0,0,2.084,2.084h25.01a2.084,2.084,0,0,0,2.084-2.084V378.084A2.084,2.084,0,0,0,371.094,376h-25.01A2.084,2.084,0,0,0,344,378.084Zm4.168-14.589H369.01v12.505H348.168Z" transform="translate(-260.633 -284.296)" fill-rule="evenodd"/><path d="M272.673,200H258.084a2.084,2.084,0,1,0,0,4.168h14.589a2.084,2.084,0,1,0,0-4.168Z" transform="translate(-195.559 -154.148)" fill-rule="evenodd"/><path d="M243.094,232h-25.01a2.084,2.084,0,0,0,0,4.168h25.01a2.084,2.084,0,1,0,0-4.168Z" transform="translate(-165.98 -177.811)" fill-rule="evenodd"/><path d="M148.441,296H90.084a2.084,2.084,0,0,0,0,4.168h58.357a2.084,2.084,0,0,0,0-4.168Z" transform="translate(-71.327 -225.138)" fill-rule="evenodd"/><path d="M148.441,328H90.084a2.084,2.084,0,1,0,0,4.168h58.357a2.084,2.084,0,1,0,0-4.168Z" transform="translate(-71.327 -248.801)" fill-rule="evenodd"/><path d="M148.441,392H90.084a2.084,2.084,0,1,0,0,4.168h58.357a2.084,2.084,0,1,0,0-4.168Z" transform="translate(-71.327 -296.127)" fill-rule="evenodd"/><path d="M148.441,424H90.084a2.084,2.084,0,1,0,0,4.168h58.357a2.084,2.084,0,1,0,0-4.168Z" transform="translate(-71.327 -319.791)" fill-rule="evenodd"/><path d="M26.084,166.589a2.084,2.084,0,0,0,2.084-2.084v-8.337h8.337a2.084,2.084,0,0,0,0-4.168H26.084A2.084,2.084,0,0,0,24,154.084v10.421A2.084,2.084,0,0,0,26.084,166.589Z" transform="translate(-24 -118.653)" fill-rule="evenodd"/></g></g></g></svg>