<svg xmlns="http://www.w3.org/2000/svg" xmlns:xlink="http://www.w3.org/1999/xlink" width="146" height="130" viewBox="0 0 146 130"><defs><clipPath id="a"><rect width="146" height="130" transform="translate(-3551 -6996)" fill="#fff" stroke="#707070" stroke-width="1"/></clipPath></defs><g transform="translate(3551 6996)" clip-path="url(#a)"><g transform="translate(-3554.795 -6991.972)"><path d="M167.739,58.522c0-.011,0-.022,0-.034,0-6.819-17.973-50.938-40.143-50.938S87.454,51.669,87.454,58.488c0,.011,0,.022,0,.033s0,.021,0,.031c0,6.352,27.067,39.745,40.143,39.745,12.8,0,40.143-33.393,40.143-39.745,0-.011,0-.022,0-.032Z" transform="translate(-50.803 -5.752)" fill="#135370"/><g transform="translate(45.718 38.645)"><path d="M354.035,175.48h-4.559V162.258h4.559a4.254,4.254,0,0,1,4.254,4.254v4.714A4.254,4.254,0,0,1,354.035,175.48Z" transform="translate(-296.137 -162.258)" fill="#f4c892"/><path d="M129.777,175.48h4.559V162.258h-4.559a4.254,4.254,0,0,0-4.254,4.254v4.714A4.254,4.254,0,0,0,129.777,175.48Z" transform="translate(-125.523 -162.258)" fill="#f4c892"/></g><g transform="translate(52.204 13.435)"><path d="M221.856,287.826l-2.876-.578a4.37,4.37,0,0,1-3.509-4.284V278.82H196.66v4.248a4.37,4.37,0,0,1-3.509,4.284l-2.355.473v15.818h31.06Z" transform="translate(-181.736 -225.848)" fill="#ffdfb8"/><path d="M177.345,112.5h0a24.59,24.59,0,0,1-24.59-24.59V81a24.59,24.59,0,0,1,24.59-24.59h0A24.59,24.59,0,0,1,201.936,81v6.911A24.59,24.59,0,0,1,177.345,112.5Z" transform="translate(-152.755 -56.408)" fill="#ffdfb8"/></g><path d="M235.484,56.408h0a24.617,24.617,0,0,0-6.414.847A24.6,24.6,0,0,1,247.246,81v6.911a24.6,24.6,0,0,1-18.176,23.743,24.618,24.618,0,0,0,6.414.847h0a24.59,24.59,0,0,0,24.59-24.59V81A24.59,24.59,0,0,0,235.484,56.408Z" transform="translate(-158.69 -42.973)" fill="#f4cfa6"/><path d="M127.6,44.507c22.134,0,40.083,7.669,40.142,14.015,0-.011,0-.022,0-.034,0-6.819-17.973-50.938-40.143-50.938S87.454,51.669,87.454,58.488c0,.011,0,.022,0,.034C87.514,52.176,105.463,44.507,127.6,44.507Z" transform="translate(-50.803 -5.752)" fill="#1e608b"/><path d="M237.612,7.551a18.044,18.044,0,0,0-5.749.972c14.318,4.793,26.2,26.242,31.466,39.705,8.789,2.8,14.392,6.754,14.425,10.295,0-.011,0-.022,0-.034C277.755,51.67,259.782,7.551,237.612,7.551Z" transform="translate(-160.818 -5.753)" fill="#135370"/><path d="M136.75,358.986c-1.069-7.861-5.414-30.657-20.338-36.646L99.39,317.033H65.7L48.676,322.34c-14.924,5.989-19.27,28.784-20.338,36.646a2.368,2.368,0,0,0,2.348,2.684H134.4A2.368,2.368,0,0,0,136.75,358.986Z" transform="translate(-5.75 -241.525)" fill="#1e608b"/><path d="M322.167,358.986c-1.069-7.861-5.414-30.657-20.338-36.646l-17.022-5.307H271.7l17.022,5.307c18.123,7.272,20.646,39.33,20.646,39.33h10.45A2.368,2.368,0,0,0,322.167,358.986Z" transform="translate(-191.166 -241.525)" fill="#135370"/><path d="M169.07,313.418H101.762a4.045,4.045,0,0,0-4.045,4.045v38.354h75.4V317.462A4.045,4.045,0,0,0,169.07,313.418Z" transform="translate(-58.621 -238.771)" fill="#cfcfcf"/><path d="M356.269,313.418H343.44a4.045,4.045,0,0,1,4.045,4.045v38.354h12.829V317.462A4.045,4.045,0,0,0,356.269,313.418Z" transform="translate(-245.82 -238.771)" fill="#c2c4c6"/><path d="M158.95,478.8H78.686a2.756,2.756,0,0,0-2.756,2.756v.6a2.756,2.756,0,0,0,2.756,2.756H158.95a2.756,2.756,0,0,0,2.756-2.756v-.6A2.756,2.756,0,0,0,158.95,478.8Z" transform="translate(-42.023 -364.767)" fill="#9c9da0"/><path d="M392.028,478.8H381.876v6.108h10.152a2.756,2.756,0,0,0,2.756-2.756v-.6A2.756,2.756,0,0,0,392.028,478.8Z" transform="translate(-275.102 -364.767)" fill="#8d8f93"/><circle cx="5.659" cy="5.659" r="5.659" transform="translate(71.136 90.293)" fill="#fff"/><g transform="translate(58.816 42.745)"><path d="M191.439,188.291h-9.109a1.817,1.817,0,0,1-1.817-1.817v-5.185a1.817,1.817,0,0,1,1.817-1.817h11.353a1.817,1.817,0,0,1,1.817,1.817v2.94A4.061,4.061,0,0,1,191.439,188.291Z" transform="translate(-180.514 -179.472)" fill="#4d4d4d"/><path d="M272.625,188.291h9.109a1.817,1.817,0,0,0,1.817-1.817v-5.185a1.817,1.817,0,0,0-1.817-1.817H270.38a1.817,1.817,0,0,0-1.817,1.817v2.94A4.061,4.061,0,0,0,272.625,188.291Z" transform="translate(-247.592 -179.472)" fill="#4d4d4d"/></g><path d="M232.148,371.558a7.457,7.457,0,1,0,7.457,7.457A7.466,7.466,0,0,0,232.148,371.558Zm0,11.318a3.861,3.861,0,1,1,3.861-3.861A3.865,3.865,0,0,1,232.148,382.876Z" transform="translate(-155.354 -283.063)"/><path d="M132.783,117.219a84.134,84.134,0,0,0-4.268-17.371c-3.056-8.186-7.165-14.208-12.223-17.923V78.692a5.85,5.85,0,0,0-5.843-5.843H106.04c6.668-7.729,12.7-16.416,12.7-20.047,0-.011,0-.023,0-.035s0-.021,0-.03c0-3.736-4.4-16.284-11.578-28.232a1.8,1.8,0,0,0-3.084,1.851,112.1,112.1,0,0,1,9.072,18.919,48.157,48.157,0,0,0-13.893-5.6l-.505-.128-.353-.086A89.583,89.583,0,0,0,81.03,37.051l-.378-.016c-.259-.01-.518-.021-.777-.029q-.615-.02-1.233-.031l-.414-.007c-.477-.007-.954-.012-1.432-.012q-.756,0-1.508.013c-.249,0-.5.01-.745.016-.23.005-.46.01-.689.017q-.531.016-1.06.038l-.265.011A88.819,88.819,0,0,0,54.192,39.71q-.5.128-.985.261l-.188.052a46.312,46.312,0,0,0-12.572,5.248q.133-.368.276-.75l.087-.233q.113-.3.232-.61l.1-.256c.109-.281.22-.565.336-.855a115.369,115.369,0,0,1,8.467-16.918C54.978,17.413,65.162,3.6,76.794,3.6c9.176,0,17.389,8.58,22.662,15.778a1.8,1.8,0,1,0,2.9-2.126A55.841,55.841,0,0,0,90.792,5.17C86.125,1.739,81.416,0,76.794,0c-7.019,0-17.907,4.124-29.92,23.772-7.448,12.183-12.021,25.08-12.021,28.964,0,.012,0,.023,0,.035s0,.021,0,.03c0,3.655,5.983,12.336,12.6,20.047H43.141A5.85,5.85,0,0,0,37.3,78.692v3.235c-4.589,3.371-8.409,8.659-11.362,15.74a1.8,1.8,0,0,0,3.319,1.384A36.056,36.056,0,0,1,37.3,86.607V112.24h-.635a4.56,4.56,0,0,0-4.554,4.554v.6a4.561,4.561,0,0,0,.025.476c.005.052.016.1.024.154.014.1.028.207.049.308,0,.007,0,.014,0,.02H24.937a.567.567,0,0,1-.432-.2.559.559,0,0,1-.135-.448,84.055,84.055,0,0,1,2.23-10.88,1.8,1.8,0,0,0-3.466-.959,87.76,87.76,0,0,0-2.327,11.354,4.166,4.166,0,0,0,4.13,4.725H128.653a4.166,4.166,0,0,0,4.13-4.726ZM102.734,49.787c.016-.086.033-.173.048-.26.021-.118.04-.237.059-.355.016-.1.033-.2.048-.3s.031-.218.046-.328.03-.217.044-.326.024-.21.036-.315.026-.225.037-.338.019-.212.028-.319.02-.223.029-.335c0-.06.008-.12.012-.18a1.8,1.8,0,0,0,.013-.21v0c.005-.088.011-.175.016-.263.007-.133.011-.266.015-.4,0-.087.007-.173.01-.26q.008-.331.008-.663v-.344q.57.2,1.127.4c.6.223,1.194.451,1.762.687v1.932a2.458,2.458,0,0,1-2.456,2.456h-.934C102.7,49.975,102.717,49.881,102.734,49.787Zm.882,3.878a6.059,6.059,0,0,0,6.052-6.052v-.23c3.727,2.04,5.456,4.046,5.469,5.4,0,0,0,0,0,0s0,.027,0,.041c-.05,2-4.986,10.177-13.9,20.018H89.166a2.578,2.578,0,0,1-1.428-2.3v-1.6A26.531,26.531,0,0,0,101.7,53.666h1.92Zm-4.03-10.184v1.244H96.572v-.164a3.592,3.592,0,0,0-.593-1.978C97.3,42.878,98.5,43.182,99.586,43.482Zm-6.611,1.08v1.664a1.671,1.671,0,0,0,0,.6v2.924a.019.019,0,0,1-.019.019H83.848A2.266,2.266,0,0,1,81.584,47.5v-2.94a.019.019,0,0,1,.019-.019H92.956A.019.019,0,0,1,92.975,44.562Zm-16.18-4.009c2.892,0,5.762.136,8.573.393H81.6A3.617,3.617,0,0,0,78,44.308H75.589a3.617,3.617,0,0,0-3.6-3.362H68.222C71.032,40.689,73.9,40.553,76.794,40.553ZM60.614,44.562a.019.019,0,0,1,.019-.019H71.986a.019.019,0,0,1,.019.019V47.5a2.266,2.266,0,0,1-2.263,2.264H60.632a.019.019,0,0,1-.019-.019V44.562Zm.019,8.8h9.109a5.867,5.867,0,0,0,5.845-5.457H78a5.867,5.867,0,0,0,5.845,5.457h9.109a3.619,3.619,0,0,0,3.615-3.615V48.322h2.762c-.031.21-.064.42-.1.629-.01.057-.022.114-.032.171q-.049.263-.1.523-.032.151-.066.3c-.029.127-.059.253-.09.38q-.075.308-.158.612c-.023.085-.045.169-.069.253A22.9,22.9,0,0,1,84.872,66.247c-.112.043-.225.085-.338.126q-.279.1-.562.2-.253.084-.507.162c-.14.043-.28.085-.422.126q-.327.093-.657.176-.194.049-.389.1-.352.083-.707.154l-.344.066c-.255.047-.512.091-.769.129l-.282.04c-.28.038-.56.072-.842.1l-.2.018c-.307.027-.616.05-.925.065l-.111,0c-.338.015-.677.024-1.017.024A22.833,22.833,0,0,1,54.876,51.193c-.024-.084-.046-.169-.069-.253q-.083-.3-.158-.612c-.031-.126-.061-.253-.09-.38q-.034-.151-.066-.3-.055-.261-.1-.524c-.011-.057-.022-.113-.032-.171-.037-.209-.07-.419-.1-.629h2.762v1.425A3.619,3.619,0,0,0,60.632,53.362ZM84.59,72.849H68.522a6.145,6.145,0,0,0,.4-2.194v-.524c.419.131.841.247,1.265.357l.064.016q.548.14,1.1.256l.177.037q.269.054.539.1c.1.017.192.033.287.049q.388.065.777.12c.145.02.291.04.437.058s.264.031.4.045q.338.036.678.064l.28.021q.36.025.723.04l.257.01c.294.01.589.016.885.016.279,0,.556-.006.833-.015l.259-.01q.3-.012.6-.031l.27-.017q.382-.028.761-.067c.113-.011.225-.026.338-.039.15-.017.3-.035.45-.055s.275-.037.412-.058c.12-.018.24-.038.359-.057q.422-.069.841-.151l.225-.044c.173-.035.345-.074.517-.113l.209-.049c.428-.1.855-.209,1.278-.332v.263A6.122,6.122,0,0,0,84.59,72.849ZM54,43.482c1.083-.3,2.288-.6,3.607-.9a3.592,3.592,0,0,0-.593,1.978v.164H54V43.482Zm-6.486,2.2c.569-.235,1.158-.464,1.763-.687q.557-.205,1.126-.4v.344q0,.332.008.663c0,.087.006.173.01.26,0,.133.009.267.015.4.005.1.013.209.019.313,0,.01,0,.02,0,.029,0,.04,0,.08.007.119,0,.065.008.129.013.194.008.112.019.223.029.335s.018.212.028.319.025.225.037.338.023.21.036.315.029.217.044.326.03.219.046.328.031.2.048.3c.019.119.038.237.059.355.015.087.032.173.048.26s.034.188.052.282h-.934a2.458,2.458,0,0,1-2.456-2.456V45.681h0ZM38.45,52.827c0-.013,0-.024,0-.036s0,0,0,0c.013-1.357,1.742-3.363,5.469-5.4v.23a6.059,6.059,0,0,0,6.052,6.052h1.919A26.533,26.533,0,0,0,65.33,68.7v1.954a2.569,2.569,0,0,1-1.239,2.194H52.244C43.719,63.383,38.494,54.884,38.45,52.827Zm4.69,23.618h67.308a2.249,2.249,0,0,1,2.246,2.246h0v33.547h-71.8V78.692h0a2.249,2.249,0,0,1,2.246-2.246m74.743,40.944a.959.959,0,0,1-.957.958H36.663a.959.959,0,0,1-.957-.958v-.6a.959.959,0,0,1,.957-.957h80.264a.959.959,0,0,1,.957.957Zm11.2.761a.567.567,0,0,1-.432.2h-7.273c0-.007,0-.014,0-.02.021-.1.035-.2.049-.308.007-.051.018-.1.024-.154a4.557,4.557,0,0,0,.025-.476v-.6a4.56,4.56,0,0,0-4.554-4.554h-.635V86.611c9.218,8.772,12.2,25.726,12.927,31.093A.56.56,0,0,1,129.084,118.151Z"/></g></g></svg>