<svg xmlns="http://www.w3.org/2000/svg" xmlns:xlink="http://www.w3.org/1999/xlink" width="146" height="130" viewBox="0 0 146 130"><defs><clipPath id="a"><rect width="146" height="130" transform="translate(-3551 -6996)" fill="#fff" stroke="#707070" stroke-width="1"/></clipPath></defs><g transform="translate(3551 6996)" clip-path="url(#a)"><g transform="translate(-3535.86 -6988.814)"><g transform="translate(1.751 1.693)"><g transform="translate(20.14 20.112)"><ellipse cx="35.957" cy="35.965" rx="35.957" ry="35.965" fill="#71d8fd"/></g><g transform="translate(51.69 20.112)"><path d="M240.9,96.576a36.292,36.292,0,0,0-4.406.269,35.968,35.968,0,0,1,0,71.392A35.965,35.965,0,1,0,240.9,96.576Z" transform="translate(-236.491 -96.576)" fill="#60c3f7"/></g><g transform="translate(0 0.366)"><ellipse cx="6.729" cy="6.73" rx="6.729" ry="6.73" fill="#ffcd74"/></g><g transform="translate(98.758 0.366)"><ellipse cx="6.729" cy="6.73" rx="6.729" ry="6.73" fill="#ffcd74"/></g><g transform="translate(0 98.638)"><ellipse cx="6.729" cy="6.73" rx="6.729" ry="6.73" fill="#ffcd74"/></g><g transform="translate(0 49.391)"><ellipse cx="6.729" cy="6.73" rx="6.729" ry="6.73" fill="#b4e173"/></g><g transform="translate(98.758 49.391)"><ellipse cx="6.729" cy="6.73" rx="6.729" ry="6.73" fill="#b4e173"/></g><g transform="translate(49.367)"><ellipse cx="6.729" cy="6.73" rx="6.729" ry="6.73" fill="#b4e173"/></g><g transform="translate(49.367 98.781)"><ellipse cx="6.729" cy="6.73" rx="6.729" ry="6.73" fill="#b4e173"/></g><g transform="translate(98.758 98.638)"><ellipse cx="6.729" cy="6.73" rx="6.729" ry="6.73" fill="#ffcd74"/></g><g transform="translate(4.567 0.367)"><path d="M36.675,15.854a6.729,6.729,0,0,1-8.892,6.373,6.728,6.728,0,0,0,0-12.745,6.728,6.728,0,0,1,8.892,6.372Z" transform="translate(-27.783 -9.124)" fill="#ff9650"/></g><g transform="translate(103.326 0.367)"><path d="M474.072,15.854a6.727,6.727,0,0,1-8.89,6.373,6.729,6.729,0,0,0,0-12.745,6.726,6.726,0,0,1,8.89,6.372Z" transform="translate(-465.182 -9.124)" fill="#ff9650"/></g><g transform="translate(4.567 98.639)"><path d="M36.675,451.1a6.729,6.729,0,0,1-8.892,6.373,6.728,6.728,0,0,0,0-12.745,6.729,6.729,0,0,1,8.892,6.372Z" transform="translate(-27.783 -444.368)" fill="#ff9650"/></g><g transform="translate(4.567 49.391)"><path d="M36.675,232.982a6.73,6.73,0,0,1-6.73,6.73,6.661,6.661,0,0,1-2.162-.357,6.728,6.728,0,0,0,0-12.745,6.729,6.729,0,0,1,8.892,6.372Z" transform="translate(-27.783 -226.252)" fill="#87b45f"/></g><g transform="translate(103.326 49.391)"><path d="M474.072,232.982a6.729,6.729,0,0,1-6.728,6.73,6.661,6.661,0,0,1-2.162-.357,6.729,6.729,0,0,0,0-12.745,6.727,6.727,0,0,1,8.89,6.372Z" transform="translate(-465.182 -226.252)" fill="#87b45f"/></g><g transform="translate(53.935 0)"><path d="M255.322,14.231a6.73,6.73,0,0,1-6.728,6.732,6.662,6.662,0,0,1-2.162-.357,6.731,6.731,0,0,0,0-12.747,6.727,6.727,0,0,1,8.89,6.372Z" transform="translate(-246.432 -7.501)" fill="#87b45f"/></g><g transform="translate(53.935 98.782)"><path d="M255.322,451.732a6.729,6.729,0,0,1-6.728,6.73,6.661,6.661,0,0,1-2.162-.357,6.729,6.729,0,0,0,0-12.745,6.727,6.727,0,0,1,8.89,6.372Z" transform="translate(-246.432 -445.002)" fill="#87b45f"/></g><g transform="translate(103.326 98.639)"><path d="M474.072,451.1a6.727,6.727,0,0,1-8.89,6.373,6.729,6.729,0,0,0,0-12.745,6.727,6.727,0,0,1,8.89,6.372Z" transform="translate(-465.182 -444.368)" fill="#ff9650"/></g></g><g transform="translate(0.058)"><path d="M248.85,285.352a1.82,1.82,0,1,0,1.819,1.82A1.822,1.822,0,0,0,248.85,285.352Z" transform="translate(-191.267 -220.923)"/><path d="M234.7,258.7a7.915,7.915,0,0,0-5.59,2.295,1.693,1.693,0,0,0,2.378,2.411,4.565,4.565,0,0,1,6.521.1,1.694,1.694,0,1,0,2.455-2.333A7.988,7.988,0,0,0,234.7,258.7Z" transform="translate(-177 -200.287)"/><path d="M229.982,235.742a14.089,14.089,0,0,0-20.005-.186,1.693,1.693,0,0,0,2.383,2.407,10.7,10.7,0,0,1,15.195.142,1.693,1.693,0,0,0,2.427-2.362Z" transform="translate(-162.191 -179.216)"/><path d="M216.706,211.753a1.693,1.693,0,0,0,2.417-2.373,20.459,20.459,0,0,0-28.984-.207,1.693,1.693,0,1,0,2.38,2.409,17.072,17.072,0,0,1,24.187.171Z" transform="translate(-146.831 -157.365)"/><path d="M8.48,235.6a8.424,8.424,0,1,0-8.422-8.424A8.433,8.433,0,0,0,8.48,235.6Zm0-13.461a5.037,5.037,0,1,1-5.035,5.037A5.042,5.042,0,0,1,8.48,222.137Z" transform="translate(-0.058 -169.359)"/><path d="M445.876,218.75a8.424,8.424,0,1,0,8.422,8.424A8.433,8.433,0,0,0,445.876,218.75Zm0,13.461a5.037,5.037,0,1,1,5.036-5.037A5.042,5.042,0,0,1,445.876,232.211Z" transform="translate(-338.696 -169.359)"/><path d="M227.126,16.848A8.424,8.424,0,1,0,218.7,8.424,8.433,8.433,0,0,0,227.126,16.848Zm0-13.461a5.037,5.037,0,1,1-5.036,5.037A5.042,5.042,0,0,1,227.126,3.387Z" transform="translate(-169.337)"/><path d="M227.126,437.5a8.424,8.424,0,1,0,8.422,8.424A8.433,8.433,0,0,0,227.126,437.5Zm0,13.461a5.037,5.037,0,1,1,5.035-5.037A5.042,5.042,0,0,1,227.126,450.96Z" transform="translate(-169.337 -338.717)"/><path d="M107.239,99.892a8.371,8.371,0,0,0-4.328,1.2L86.046,83.948a37.587,37.587,0,0,0,.041-49.8l16.688-16.965a8.438,8.438,0,1,0-2.451-2.337L83.737,31.708A37.634,37.634,0,0,0,42.116,24.8a1.693,1.693,0,1,0,1.417,3.076,34.206,34.206,0,0,1,3.943-1.527,28.78,28.78,0,0,0-4.512,6.453,45.21,45.21,0,0,0-3.379,8.564,45.327,45.327,0,0,0-7.935,3.112A28.566,28.566,0,0,0,25.068,49a34.151,34.151,0,0,1,2.245-5.539,34.59,34.59,0,0,1,9.969-11.85A1.693,1.693,0,1,0,35.247,28.9a37.611,37.611,0,0,0-3.292,2.786L15.391,14.85a8.43,8.43,0,1,0-2.453,2.336L29.606,34.131A37.814,37.814,0,0,0,24.3,41.92a37.644,37.644,0,0,0,5.359,42.035L12.8,101.089a8.446,8.446,0,1,0,2.5,2.292l16.712-16.99A37.509,37.509,0,0,0,57.824,96.683h.047a37.51,37.51,0,0,0,25.821-10.3l16.724,17a8.418,8.418,0,1,0,6.823-3.493ZM3.445,10.044A5.036,5.036,0,1,1,8.48,15.081,5.042,5.042,0,0,1,3.445,10.044ZM67.074,76.873a1.694,1.694,0,0,0,1.944,1.4q1.666-.271,3.252-.618a40.147,40.147,0,0,1-2.534,6.014c-2.846,5.408-6.416,8.7-10.194,9.458V79.133c.958-.022,1.914-.061,2.858-.121a1.693,1.693,0,0,0-.213-3.38c-1.429.09-2.888.136-4.337.136a63.559,63.559,0,0,1-15.5-1.841,64.741,64.741,0,0,1,0-29.805,63.56,63.56,0,0,1,15.5-1.841,63.557,63.557,0,0,1,15.5,1.841,64.741,64.741,0,0,1,0,29.8q-2.335.592-4.875,1.009A1.694,1.694,0,0,0,67.074,76.873ZM25.086,69.068a28.589,28.589,0,0,0,6.563,4.5,45.324,45.324,0,0,0,7.935,3.112,45.2,45.2,0,0,0,3.379,8.564,28.8,28.8,0,0,0,4.5,6.441A34.42,34.42,0,0,1,25.086,69.068Zm12.159-8.349a66.148,66.148,0,0,0,1.382,12.113A40.2,40.2,0,0,1,33.2,70.555c-5.371-2.754-8.649-6.2-9.428-9.837H37.245Zm6.182,16.939a67.389,67.389,0,0,0,12.726,1.478v13.99c-3.778-.76-7.347-4.051-10.193-9.458A40.182,40.182,0,0,1,43.427,77.657ZM69.735,34.382a40.167,40.167,0,0,1,2.533,6.01,67.38,67.38,0,0,0-12.727-1.478V24.924C63.319,25.684,66.888,28.975,69.735,34.382ZM78.45,57.331a66.148,66.148,0,0,0-1.382-12.113A40.218,40.218,0,0,1,82.5,47.494c5.371,2.754,8.649,6.2,9.428,9.837Zm0,3.387H91.926c-1.062,4.872-6.639,9.328-14.857,12.106A66.165,66.165,0,0,0,78.45,60.718ZM107.239,5.007a5.037,5.037,0,1,1-5.035,5.037A5.042,5.042,0,0,1,107.239,5.007ZM90.609,48.982a28.59,28.59,0,0,0-6.563-4.5,45.322,45.322,0,0,0-7.935-3.112A45.209,45.209,0,0,0,72.732,32.8a28.808,28.808,0,0,0-4.5-6.441A34.42,34.42,0,0,1,90.609,48.982Zm-44.648-14.6c2.846-5.407,6.415-8.7,10.193-9.458v13.99a67.391,67.391,0,0,0-12.726,1.478A40.125,40.125,0,0,1,45.961,34.383ZM33.2,47.494a40.227,40.227,0,0,1,5.432-2.276,66.148,66.148,0,0,0-1.382,12.113H23.767C24.547,53.691,27.825,50.248,33.2,47.494ZM8.48,113.353a5.037,5.037,0,1,1,5.036-5.037A5.042,5.042,0,0,1,8.48,113.353ZM68.231,91.686a28.791,28.791,0,0,0,4.5-6.441,45.211,45.211,0,0,0,3.38-8.566c6.145-1.8,11.133-4.457,14.51-7.652A34.419,34.419,0,0,1,68.231,91.686Zm39.008,21.667a5.037,5.037,0,1,1,5.035-5.037A5.042,5.042,0,0,1,107.239,113.353Z" transform="translate(-0.058 -1.254)"/></g></g></g></svg>