<svg xmlns="http://www.w3.org/2000/svg" xmlns:xlink="http://www.w3.org/1999/xlink" width="146" height="130" viewBox="0 0 146 130"><defs><clipPath id="a"><rect width="146" height="130" transform="translate(-3551 -6996)" fill="#fff" stroke="#707070" stroke-width="1"/></clipPath></defs><g transform="translate(3551 6996)" clip-path="url(#a)"><g transform="translate(-3531.177 -6984.177)"><path d="M129.235,127.4h0A33.235,33.235,0,0,1,96,94.162V69.235A33.235,33.235,0,0,1,129.235,36h0a33.235,33.235,0,0,1,33.235,33.235V94.162A33.235,33.235,0,0,1,129.235,127.4Z" transform="translate(-76.059 -28.522)" fill="#ffc478"/><path d="M126.01,268.085a2.075,2.075,0,1,0,2.075-2.075A2.07,2.07,0,0,0,126.01,268.085Z" transform="translate(-99.835 -210.754)"/><path d="M2.077,20.772a2.077,2.077,0,0,0,2.077-2.077V4.154h14.54a2.077,2.077,0,0,0,0-4.154H2.077A2.077,2.077,0,0,0,0,2.077V18.695A2.077,2.077,0,0,0,2.077,20.772Z"/><path d="M430.695,0H414.077a2.077,2.077,0,1,0,0,4.154h14.54v14.54a2.077,2.077,0,0,0,4.154,0V2.077A2.077,2.077,0,0,0,430.695,0Z" transform="translate(-326.419)"/><path d="M2.077,432.772H18.695a2.077,2.077,0,0,0,0-4.154H4.154v-14.54a2.077,2.077,0,1,0-4.154,0v16.618A2.077,2.077,0,0,0,2.077,432.772Z" transform="translate(0 -326.419)"/><path d="M430.695,412a2.077,2.077,0,0,0-2.077,2.077v14.54h-14.54a2.077,2.077,0,1,0,0,4.154h16.618a2.077,2.077,0,0,0,2.077-2.077V414.077A2.077,2.077,0,0,0,430.695,412Z" transform="translate(-326.419 -326.419)"/><path d="M231.927,30.32a31.639,31.639,0,0,1,6.374,0,2.123,2.123,0,0,0,.214.011,2.077,2.077,0,0,0,.209-4.144,35.835,35.835,0,0,0-7.22,0,2.077,2.077,0,1,0,.423,4.133Z" transform="translate(-181.938 -20.603)"/><path d="M130.524,390.925a35.109,35.109,0,0,0,13.746-2.775,2.077,2.077,0,1,0-1.618-3.826A31.2,31.2,0,0,1,101.63,367.3a2.077,2.077,0,0,0-3.851,1.559A35.314,35.314,0,0,0,130.524,390.925Z" transform="translate(-77.348 -289.973)"/><path d="M86,276.386a2.077,2.077,0,1,0,4.154,0v-8.309a2.077,2.077,0,1,0-4.154,0Z" transform="translate(-68.136 -210.746)"/><path d="M107.566,38.732A35.267,35.267,0,0,0,86,71.269v8.309a2.077,2.077,0,1,0,4.154,0V71.269a31.121,31.121,0,0,1,19.031-28.711,2.077,2.077,0,1,0-1.619-3.826Z" transform="translate(-68.136 -30.556)"/><path d="M351.168,323.441a35.212,35.212,0,0,0,12.851-27.248v-3.116a2.077,2.077,0,1,0-4.154,0v3.116a31.07,31.07,0,0,1-11.34,24.043,2.077,2.077,0,1,0,2.644,3.2Z" transform="translate(-275.53 -230.553)"/><path d="M332.732,72.827c0-15.125-7.087-27.971-21.566-34.1a2.077,2.077,0,0,0-1.618,3.826c17.118,7.241,19,23.286,19.02,29.848,0,.212,0,.377.011.524v9.261a2.077,2.077,0,0,0,4.154-.017V72.827Z" transform="translate(-244.243 -30.556)"/><path d="M349.277,130.355a2.077,2.077,0,0,0,4.069-.836,26.792,26.792,0,0,0-4.069-9.656,2.077,2.077,0,1,0-3.442,2.326A22.654,22.654,0,0,1,349.277,130.355Z" transform="translate(-273.716 -94.241)"/><path d="M126.028,94.687c-.067,3.758,0-1.932-.03,6.672a2.077,2.077,0,1,0,4.154,0V96.194c.166-6.357-.222-12.37,6.7-19.292a22.85,22.85,0,0,1,28.912-2.8,2.077,2.077,0,0,0,2.327-3.442,27.01,27.01,0,0,0-34.176,3.3C126.265,81.614,126.133,88.863,126.028,94.687Z" transform="translate(-99.825 -52.337)"/><path d="M168.652,327.578a2.077,2.077,0,0,0-2.884-.557,22.5,22.5,0,0,1-12.556,3.93,22.906,22.906,0,0,1-23.057-22.874,2.077,2.077,0,1,0-4.154,0,27.007,27.007,0,0,0,27.147,27.006,26.649,26.649,0,0,0,14.948-4.621A2.077,2.077,0,0,0,168.652,327.578Z" transform="translate(-99.827 -242.437)"/><path d="M346.394,240.537a2.077,2.077,0,0,0,2.884-.558,26.852,26.852,0,0,0,4.618-15.09V203.077a2.077,2.077,0,0,0-4.154,0v21.811a22.715,22.715,0,0,1-3.906,12.765A2.077,2.077,0,0,0,346.394,240.537Z" transform="translate(-273.716 -159.248)"/><path d="M171.3,157.776a2.077,2.077,0,0,0-3.825-1.622A18.523,18.523,0,0,0,166,163.427v24.926a18.7,18.7,0,0,0,18.695,18.695,2.077,2.077,0,1,0,0-4.154,14.552,14.552,0,0,1-14.54-14.54V163.427A14.392,14.392,0,0,1,171.3,157.776Z" transform="translate(-131.518 -122.714)"/><path d="M309.569,322.141a2.078,2.078,0,0,0-2.452,1.617,14.488,14.488,0,0,1-3.969,7.349,2.077,2.077,0,1,0,2.938,2.938,18.634,18.634,0,0,0,5.1-9.452A2.078,2.078,0,0,0,309.569,322.141Z" transform="translate(-239.696 -255.192)"/><path d="M242.121,143.39V124.695a18.694,18.694,0,0,0-25.967-17.222,2.077,2.077,0,1,0,1.62,3.825,14.41,14.41,0,0,1,5.652-1.144,14.557,14.557,0,0,1,14.54,14.54v18.716a2.077,2.077,0,0,0,4.154,0Z" transform="translate(-170.25 -83.982)"/><path d="M216.386,146A10.4,10.4,0,0,0,206,156.386v18.695a2.077,2.077,0,1,0,4.154,0V156.386a6.232,6.232,0,0,1,12.463,0,2.077,2.077,0,1,0,4.154,0A10.4,10.4,0,0,0,216.386,146Z" transform="translate(-163.21 -115.673)"/><path d="M228.447,264.584c.883-2.083.855-3.7.813-6.15-.015-.894-.022.425.006-10.356a2.067,2.067,0,1,0-4.134,0c-.027,10.38-.037,8.578,0,10.427.039,2.253.034,3.186-.506,4.459a6.232,6.232,0,0,1-11.483,0,2.077,2.077,0,0,0-3.825,1.621,10.386,10.386,0,0,0,19.134,0Z" transform="translate(-165.703 -194.901)"/><path d="M250.154,213V188.077a2.077,2.077,0,1,0-4.154,0V213a2.077,2.077,0,1,0,4.154,0Z" transform="translate(-194.901 -147.364)"/></g></g></svg>