<svg xmlns="http://www.w3.org/2000/svg" xmlns:xlink="http://www.w3.org/1999/xlink" width="146" height="130" viewBox="0 0 146 130"><defs><clipPath id="a"><rect width="146" height="130" transform="translate(-3551 -6996)" fill="#fff" stroke="#707070" stroke-width="1"/></clipPath></defs><g transform="translate(3551 6996)" clip-path="url(#a)"><g transform="translate(-3542.397 -7041.612)"><path d="M161.129,139.907H76.454a4.954,4.954,0,0,1-4.954-4.954v-56A4.954,4.954,0,0,1,76.454,74h84.675a4.954,4.954,0,0,1,4.954,4.954v56a4.955,4.955,0,0,1-4.955,4.954Z" transform="translate(-53.514 -5.613)" fill="#8c9eff"/><path d="M405.352,74H397.8a4.954,4.954,0,0,1,4.954,4.954v56a4.954,4.954,0,0,1-4.954,4.954h7.547a4.954,4.954,0,0,0,4.954-4.954v-56A4.954,4.954,0,0,0,405.352,74Z" transform="translate(-297.737 -5.613)" fill="#7488ed"/><path d="M0,0H50.813V79.49H0Z" transform="translate(105.023 75.933) rotate(90)" fill="#bdf9ff"/><path d="M45,241.907H10.752A3.252,3.252,0,0,1,7.5,238.655v-59.4A3.252,3.252,0,0,1,10.752,176H45a3.252,3.252,0,0,1,3.252,3.252v59.4A3.252,3.252,0,0,1,45,241.907Z" transform="translate(-5.613 -81.955)" fill="#ffca28"/><path d="M134.12,176h-7.547a3.252,3.252,0,0,1,3.252,3.252v59.4a3.252,3.252,0,0,1-3.252,3.252h7.547a3.252,3.252,0,0,0,3.252-3.252v-59.4A3.252,3.252,0,0,0,134.12,176Z" transform="translate(-94.733 -81.955)" fill="#ffb300"/><path d="M420.158,277.936H396.512a2.013,2.013,0,0,1-2.012-2.012V232.656a2.013,2.013,0,0,1,2.012-2.012h23.646a2.013,2.013,0,0,1,2.012,2.012v43.267A2.013,2.013,0,0,1,420.158,277.936Z" transform="translate(-295.263 -122.853)" fill="#ff3d7a"/><path d="M474.047,230.644H466.5a2.012,2.012,0,0,1,2.012,2.012v43.267a2.012,2.012,0,0,1-2.012,2.012h7.547a2.012,2.012,0,0,0,2.012-2.012V232.656A2.013,2.013,0,0,0,474.047,230.644Z" transform="translate(-349.151 -122.853)" fill="#eb3870"/><path d="M216,336h20.124v11.068H216Z" transform="translate(-161.665 -201.707)" fill="#7488ed"/><path d="M266,336h7.547v11.068H266Z" transform="translate(-199.087 -201.707)" fill="#6073d1"/><path d="M240.087,150.093H227.006A1.006,1.006,0,0,1,226,149.087V136.006A1.006,1.006,0,0,1,227.006,135h13.081a1.006,1.006,0,0,1,1.006,1.006v13.081A1.006,1.006,0,0,1,240.087,150.093Z" transform="translate(-169.149 -51.269)" fill="#ffca28"/><path d="M221.393,146.366h13.081a2.9,2.9,0,0,0,2.893-2.893V130.393a2.9,2.9,0,0,0-2.893-2.893H221.393a2.9,2.9,0,0,0-2.893,2.893v13.081A2.9,2.9,0,0,0,221.393,146.366Zm.88-15.093h11.32v11.32h-11.32Z" transform="translate(-163.536 -45.655)"/><path d="M220.573,220H190.387a1.887,1.887,0,0,0,0,3.773h30.186a1.887,1.887,0,1,0,0-3.773Z" transform="translate(-141.083 -114.887)"/><path d="M220.573,252H190.387a1.887,1.887,0,0,0,0,3.773h30.186a1.887,1.887,0,1,0,0-3.773Z" transform="translate(-141.083 -138.837)"/><path d="M64.19,245.446A1.887,1.887,0,0,0,62.3,243.56H57.177a1.887,1.887,0,0,0-1.761,1.211L54,248.464,52.42,235.589a1.887,1.887,0,0,0-3.626-.468l-3.506,8.813H41.161a1.887,1.887,0,0,0,0,3.773h5.408a1.887,1.887,0,0,0,1.753-1.189l1.252-3.146,1.6,13.068a1.887,1.887,0,0,0,3.634.446l3.665-9.553H62.3A1.886,1.886,0,0,0,64.19,245.446Z" transform="translate(-29.395 -125.314)"/><path d="M126.908,137.4a1.887,1.887,0,0,0,1.887-1.887V109.8a3.9,3.9,0,0,0-3.9-3.9H114.456V73.34a6.847,6.847,0,0,0-6.84-6.84h-3.027a1.887,1.887,0,0,0,0,3.773h3.027a3.07,3.07,0,0,1,3.066,3.066V105.9h-3.773V75.933a1.887,1.887,0,0,0-1.887-1.887H25.532a1.887,1.887,0,0,0-1.887,1.887V92.158H19.873V73.34a3.07,3.07,0,0,1,3.066-3.066h73.67a1.887,1.887,0,0,0,0-3.773H22.939a6.847,6.847,0,0,0-6.84,6.84V92.158H5.138A5.144,5.144,0,0,0,0,97.3v46.066a1.887,1.887,0,1,0,3.773,0V97.3a1.367,1.367,0,0,1,1.365-1.365H39.386A1.367,1.367,0,0,1,40.751,97.3v59.4a1.367,1.367,0,0,1-1.365,1.365H5.138A1.367,1.367,0,0,1,3.773,156.7v-5.264a1.887,1.887,0,0,0-3.773,0V156.7a5.144,5.144,0,0,0,5.138,5.138H39.386a5.144,5.144,0,0,0,5.138-5.138V136.18h7.924v7.295H47.795a1.887,1.887,0,1,0,0,3.773H81a1.887,1.887,0,1,0,0-3.773H76.346V136.18h21v16.89a3.9,3.9,0,0,0,3.9,3.9H124.9a3.9,3.9,0,0,0,3.9-3.9v-9.754a1.887,1.887,0,1,0-3.773,0v9.754a.126.126,0,0,1-.126.126H101.25a.126.126,0,0,1-.126-.126V109.8a.126.126,0,0,1,.126-.126H124.9a.126.126,0,0,1,.126.126v25.711A1.887,1.887,0,0,0,126.908,137.4Zm-54.335,6.074H56.222V136.18H72.573ZM44.525,132.407v-3.773H97.35v3.773ZM97.35,109.8V124.86H44.525V97.3a5.144,5.144,0,0,0-5.138-5.138H27.419V77.82h75.717V105.9H101.25A3.9,3.9,0,0,0,97.35,109.8Z"/><path d="M57.887,399.25a1.887,1.887,0,0,0,0,3.773H70.464a1.887,1.887,0,1,0,0-3.773Z" transform="translate(-41.913 -249.046)"/><path d="M433.387,246.5a1.887,1.887,0,0,0,0,3.773h5.031a1.887,1.887,0,1,0,0-3.773Z" transform="translate(-322.956 -134.721)"/></g></g></svg>