<svg xmlns="http://www.w3.org/2000/svg" xmlns:xlink="http://www.w3.org/1999/xlink" width="146" height="130" viewBox="0 0 146 130"><defs><clipPath id="a"><rect width="146" height="130" transform="translate(-3551 -6996)" fill="#fff" stroke="#707070" stroke-width="1"/></clipPath></defs><g transform="translate(3551 6996)" clip-path="url(#a)"><g transform="translate(-3541.717 -6990.665)"><path d="M150.819,222.2H46.558v-68.03a7.783,7.783,0,0,1,7.783-7.783h88.7a7.783,7.783,0,0,1,7.783,7.783Zm0,0" transform="translate(-34.971 -109.948)" fill="#25687c"/><path d="M78.7,245.264V179.636a2.541,2.541,0,0,1,2.542-2.542h83.179a2.541,2.541,0,0,1,2.542,2.542v65.628Zm0,0" transform="translate(-59.112 -133.015)" fill="#e9feff"/><path d="M380.521,177.094H366.414a2.541,2.541,0,0,1,2.542,2.542v65.628h14.107V179.636A2.541,2.541,0,0,0,380.521,177.094Zm0,0" transform="translate(-275.214 -133.014)" fill="#c4f2f2"/><path d="M121.188,432.286H17.517A10.018,10.018,0,0,1,7.5,422.269a3.116,3.116,0,0,1,3.116-3.116H128.089a3.116,3.116,0,0,1,3.116,3.116,10.018,10.018,0,0,1-10.017,10.017Zm0,0" transform="translate(-5.634 -314.824)" fill="#465058"/><path d="M428.3,419.152H417.208v3.116a10.018,10.018,0,0,1-10.017,10.017h14.2a10.018,10.018,0,0,0,10.017-10.017A3.116,3.116,0,0,0,428.3,419.152Zm0,0" transform="translate(-305.841 -314.823)" fill="#323e44"/><path d="M186,419.152v1.353a5.214,5.214,0,0,0,5.213,5.213h24.42a5.214,5.214,0,0,0,5.213-5.213v-1.353Zm0,0" transform="translate(-139.705 -314.823)" fill="#45748c"/><path d="M209.471,86.883v45.365a8.106,8.106,0,0,1-8.114,8.132,7.984,7.984,0,0,1-7.837-7.974V119.467a1.309,1.309,0,0,0-2.374-.761l-10.525,14.742a3.56,3.56,0,1,0,5.887,4.006l.515-.758a15.119,15.119,0,0,0,14.42,10.807,15.33,15.33,0,0,0,15.147-15.329V86.883Zm0,0" transform="translate(-135.202 -65.257)" fill="#ffeb7d"/><path d="M274.623,7.5a12.8,12.8,0,1,0,12.8,12.8A12.8,12.8,0,0,0,274.623,7.5Zm0,18.678A5.88,5.88,0,1,1,280.5,20.3,5.88,5.88,0,0,1,274.623,26.178Zm0,0" transform="translate(-196.656 -5.633)" fill="#ff8c51"/><path d="M122.454,206.776h-4.739V148.532a9.66,9.66,0,0,0-9.65-9.65H88.856a1.867,1.867,0,0,0,0,3.734h19.209a5.923,5.923,0,0,1,5.916,5.916v58.243h-4.266V150.935a4.413,4.413,0,0,0-4.408-4.408H88.856a1.867,1.867,0,0,0,0,3.734h16.451a.675.675,0,0,1,.675.675v55.841H21.454V150.935a.675.675,0,0,1,.674-.675H66.8a1.867,1.867,0,0,0,0-3.734H22.128a4.413,4.413,0,0,0-4.408,4.408v55.841H13.454V148.532a5.923,5.923,0,0,1,5.916-5.916H66.8a1.867,1.867,0,1,0,0-3.734H19.37a9.66,9.66,0,0,0-9.65,9.65v58.243H4.981A4.988,4.988,0,0,0,0,211.759a11.9,11.9,0,0,0,11.884,11.884h103.67a11.9,11.9,0,0,0,11.884-11.884,4.988,4.988,0,0,0-4.983-4.983Zm-43.219,3.734a3.353,3.353,0,0,1-3.308,2.833H51.508a3.353,3.353,0,0,1-3.308-2.833Zm36.318,9.4H11.883a8.16,8.16,0,0,1-8.151-8.151,1.251,1.251,0,0,1,1.249-1.249H44.446a7.09,7.09,0,0,0,7.062,6.567h24.42a7.09,7.09,0,0,0,7.062-6.567h39.465a1.251,1.251,0,0,1,1.249,1.249,8.16,8.16,0,0,1-8.151,8.151Zm0,0" transform="translate(0 -104.314)"/><path d="M201.968,28.234V66.99a6.375,6.375,0,0,1-1.9,4.514,5.942,5.942,0,0,1-4.311,1.752,6.136,6.136,0,0,1-6-6.108V54.21a3.176,3.176,0,0,0-5.761-1.845L173.466,67.105l-.024.035a5.427,5.427,0,0,0,7.3,7.692A17.1,17.1,0,0,0,195.8,84.111h.056a16.708,16.708,0,0,0,11.85-4.958,17.413,17.413,0,0,0,5.113-12.238V28.345a14.667,14.667,0,1,0-10.854-.111Zm7.12,38.681a13.653,13.653,0,0,1-4.016,9.593,13.042,13.042,0,0,1-9.258,3.869,13.318,13.318,0,0,1-12.637-9.472,1.868,1.868,0,0,0-3.333-.519l-.516.758a1.694,1.694,0,0,1-2.81-1.891l9.5-13.3v11.2a9.888,9.888,0,0,0,9.672,9.84,9.674,9.674,0,0,0,6.992-2.822,10.132,10.132,0,0,0,3.02-7.177V29.217a14.785,14.785,0,0,0,1.831.114,14.943,14.943,0,0,0,1.556-.082ZM207.532,3.734A10.932,10.932,0,1,1,196.6,14.666,10.945,10.945,0,0,1,207.532,3.734Zm0,0" transform="translate(-129.565)"/><path d="M289.871,43.29a7.747,7.747,0,1,0-7.746-7.746A7.755,7.755,0,0,0,289.871,43.29Zm0-11.76a4.013,4.013,0,1,1-4.013,4.014A4.017,4.017,0,0,1,289.871,31.53Zm0,0" transform="translate(-211.904 -20.878)"/></g></g></svg>