<svg xmlns="http://www.w3.org/2000/svg" width="298.622" height="327.603" viewBox="0 0 298.622 327.603"><g transform="translate(-625.097 -4082.023)"><path d="M709.648,4126.656c2.445-20.723,18.27-54.058,52.106-42.12,22.947,8.1,27.133,28.218,60.423,31.1,34.242,2.96,48.295,25.619,42.233,63.505-5.336,33.353,38.318,31.855,36.681,63.755-1.694,33.009-22.053,28.229-26.9,53.358-4.607,23.874,16.2,35.689,5.279,62.934-27.053,67.478-117.983,61.458-162.7,16.046-46.356-47.079-11.141-81.669-13.814-103.625s-50.309-38.04-42.3-71S706.018,4157.419,709.648,4126.656Z" transform="translate(-8.007 0.001)" fill="#e6e1fb"/><g transform="translate(822.455 4158.283)"><rect width="72.244" height="41.259" rx="20.63" transform="translate(0.52 0.521)" fill="#fffdf7"/><path d="M933.935,4223.5H902.859a21.151,21.151,0,0,1,0-42.3h31.076a21.151,21.151,0,0,1,0,42.3Zm-31.076-41.259a20.109,20.109,0,0,0,0,40.217h31.076a20.109,20.109,0,0,0,0-40.217Z" transform="translate(-881.755 -4181.197)" fill="#32293a"/></g><rect width="32.511" height="6.795" rx="3.397" transform="translate(842.842 4170.047)" fill="#e6e1fb"/><path d="M937.232,4203.656H911.5a3.919,3.919,0,0,1,0-7.838h25.732a3.919,3.919,0,0,1,0,7.838Zm-25.732-6.8a2.877,2.877,0,0,0,0,5.753h25.732a2.877,2.877,0,0,0,0-5.753Z" transform="translate(-65.269 -26.292)" fill="#32293a"/><g transform="translate(842.322 4181.503)"><path d="M3.4,0H29.114a3.4,3.4,0,0,1,3.4,3.4v0a3.4,3.4,0,0,1-3.4,3.4H3.4A3.4,3.4,0,0,1,0,3.4v0A3.4,3.4,0,0,1,3.4,0Z" transform="translate(0.52 0.521)" fill="#fffdf7"/><path d="M937.232,4219.23H911.5a3.918,3.918,0,0,1,0-7.836h25.732a3.918,3.918,0,0,1,0,7.836Zm-25.732-6.794a2.876,2.876,0,0,0,0,5.752h25.732a2.876,2.876,0,0,0,0-5.752Z" transform="translate(-907.591 -4211.394)" fill="#32293a"/></g><path d="M750.4,4459.647H728.932l6.063-22.453h21.471Z" transform="translate(-23.991 -82.061)" fill="#f4c7a8"/><path d="M753.758,4450.436h-.837a2.628,2.628,0,0,0-2.321,1.4l-1.683,3.175h-15.3l-1.684-3.175a2.627,2.627,0,0,0-2.321-1.4h-.837a3.709,3.709,0,0,0-3.706,3.716v24.09a4.306,4.306,0,0,0,4.3,4.311h23.8a4.306,4.306,0,0,0,4.3-4.311v-24.09A3.709,3.709,0,0,0,753.758,4450.436Z" transform="translate(-23.097 -85.121)" fill="#583ae2"/><path d="M737.043,4453.68v-2a7,7,0,0,1,6.99-7.005h0a7,7,0,0,1,6.99,7.005v2Z" transform="translate(-25.865 -83.79)" fill="#583ae2"/><path d="M751.023,4456.385l-2.2,15.538a3.3,3.3,0,0,1-3.269,2.845h-3.048a3.3,3.3,0,0,1-3.27-2.845l-2.2-15.538Z" transform="translate(-25.865 -86.495)" fill="#583ae2"/><path d="M745.4,4475.132h-3.048a3.841,3.841,0,0,1-3.783-3.293l-2.2-15.537a.519.519,0,1,1,1.028-.146l2.2,15.537a2.8,2.8,0,0,0,2.754,2.4H745.4a2.8,2.8,0,0,0,2.757-2.4l2.2-15.537a.519.519,0,1,1,1.028.146l-2.2,15.537A3.843,3.843,0,0,1,745.4,4475.132Z" transform="translate(-25.708 -86.338)" fill="#32293a"/><g transform="translate(711.501 4373.811)"><path d="M738.14,4462.161h0Z" transform="translate(-737.619 -4461.641)" fill="#ffcc38"/><path d="M750.491,4462.526H737.984a.521.521,0,0,1,0-1.042h12.508a.521.521,0,0,1,0,1.042Z" transform="translate(-737.463 -4461.484)" fill="#32293a"/></g><g transform="translate(712.641 4378.551)"><path d="M739.621,4468.327h0Z" transform="translate(-739.101 -4467.805)" fill="#ffcc38"/><path d="M749.695,4468.691h-10.23a.521.521,0,0,1,0-1.042h10.23a.521.521,0,0,1,0,1.042Z" transform="translate(-738.945 -4467.649)" fill="#32293a"/></g><g transform="translate(713.109 4383.358)"><path d="M740.23,4474.577h0Z" transform="translate(-739.71 -4474.057)" fill="#ffcc38"/><path d="M749.367,4474.942h-9.294a.521.521,0,0,1,0-1.042h9.294a.521.521,0,0,1,0,1.042Z" transform="translate(-739.554 -4473.9)" fill="#32293a"/></g><g transform="translate(701.557 4392.842)"><path d="M753.149,4497.79h-23.8a4.832,4.832,0,0,1-4.821-4.831v-6.2a.52.52,0,1,1,1.04,0v6.2a3.79,3.79,0,0,0,3.78,3.79h23.8a3.79,3.79,0,0,0,3.781-3.79v-6.2a.52.52,0,1,1,1.04,0v6.2A4.832,4.832,0,0,1,753.149,4497.79Z" transform="translate(-724.53 -4486.232)" fill="#32293a"/></g><g transform="translate(639.546 4223.137)"><rect width="97.739" height="77.49" rx="20.273" transform="translate(0.52 0.521)" fill="#fffdf7"/><path d="M726.573,4344.069h-66.6a16.127,16.127,0,0,1-16.091-16.126v-46.278a16.128,16.128,0,0,1,16.091-16.127h66.6a16.128,16.128,0,0,1,16.093,16.127v46.278A16.127,16.127,0,0,1,726.573,4344.069Zm-66.6-77.489a15.084,15.084,0,0,0-15.051,15.085v46.278a15.085,15.085,0,0,0,15.051,15.084h66.6a15.086,15.086,0,0,0,15.053-15.084v-46.278a15.086,15.086,0,0,0-15.053-15.085Z" transform="translate(-643.887 -4265.538)" fill="#32293a"/></g><path d="M868.768,4459.647h21.471l-6.062-22.453H862.705Z" transform="translate(-54.898 -82.061)" fill="#f4c7a8"/><path d="M863.95,4450.436h.837a2.628,2.628,0,0,1,2.322,1.4l1.683,3.175h15.3l1.684-3.175a2.627,2.627,0,0,1,2.321-1.4h.836a3.71,3.71,0,0,1,3.707,3.716v24.09a4.306,4.306,0,0,1-4.3,4.311h-23.8a4.306,4.306,0,0,1-4.3-4.311v-24.09A3.709,3.709,0,0,1,863.95,4450.436Z" transform="translate(-54.33 -85.121)" fill="#583ae2"/><path d="M886.2,4453.68v-2a7,7,0,0,0-6.99-7.005h0a7,7,0,0,0-6.99,7.005v2Z" transform="translate(-57.097 -83.79)" fill="#583ae2"/><path d="M872.221,4456.385l2.2,15.538a3.3,3.3,0,0,0,3.269,2.845h3.048a3.3,3.3,0,0,0,3.27-2.845l2.2-15.538Z" transform="translate(-57.097 -86.495)" fill="#583ae2"/><path d="M880.579,4475.132h-3.048a3.84,3.84,0,0,1-3.783-3.293l-2.2-15.537a.519.519,0,1,1,1.028-.146l2.2,15.537a2.8,2.8,0,0,0,2.755,2.4h3.048a2.8,2.8,0,0,0,2.756-2.4l2.2-15.537a.519.519,0,1,1,1.028.146l-2.2,15.537A3.842,3.842,0,0,1,880.579,4475.132Z" transform="translate(-56.941 -86.338)" fill="#32293a"/><g transform="translate(815.233 4373.811)"><path d="M885.546,4462.161h0Z" transform="translate(-872.518 -4461.641)" fill="#ffcc38"/><path d="M885.389,4462.526H872.882a.521.521,0,0,1,0-1.042h12.507a.521.521,0,0,1,0,1.042Z" transform="translate(-872.362 -4461.484)" fill="#32293a"/></g><g transform="translate(816.371 4378.551)"><path d="M884.749,4468.327h0Z" transform="translate(-873.998 -4467.805)" fill="#ffcc38"/><path d="M884.594,4468.691H874.362a.521.521,0,0,1,0-1.042h10.232a.521.521,0,0,1,0,1.042Z" transform="translate(-873.842 -4467.649)" fill="#32293a"/></g><g transform="translate(816.839 4383.358)"><path d="M884.422,4474.577h0Z" transform="translate(-874.607 -4474.057)" fill="#ffcc38"/><path d="M884.265,4474.942h-9.294a.521.521,0,0,1,0-1.042h9.294a.521.521,0,0,1,0,1.042Z" transform="translate(-874.451 -4473.9)" fill="#32293a"/></g><g transform="translate(805.285 4392.842)"><path d="M888.045,4497.79h-23.8a4.832,4.832,0,0,1-4.822-4.831v-6.2a.52.52,0,1,1,1.04,0v6.2a3.79,3.79,0,0,0,3.783,3.79h23.8a3.79,3.79,0,0,0,3.782-3.79v-6.2a.52.52,0,1,1,1.04,0v6.2A4.832,4.832,0,0,1,888.045,4497.79Z" transform="translate(-859.426 -4486.232)" fill="#32293a"/></g><path d="M761.07,4288.782l-34.977,117.531a1.365,1.365,0,0,0,1.306,1.755h31.649a1.364,1.364,0,0,0,1.3-.967l35.129-115.681Z" transform="translate(-23.321 -47.771)" fill="#32293a"/><path d="M846,4288.8l34.978,117.531a1.366,1.366,0,0,1-1.306,1.756H848.02a1.361,1.361,0,0,1-1.3-.968l-35.13-115.681Z" transform="translate(-43.088 -47.775)" fill="#32293a"/><path d="M732.077,4190.557l21.5-17.822a15.879,15.879,0,0,1,9.985-3.553l60.1-.084a15.077,15.077,0,0,1,8.712,2.89c6.222,4.686,24.363,18.576,24.363,18.576l-18.422,17.526-17.042-14.216v42.049H767.646v-41.66l-17.147,13.82Z" transform="translate(-24.717 -20.118)" fill="#462eb4"/><path d="M833.328,4286.628l-25.69,19.936a6.752,6.752,0,0,1-8.26.017l-25.931-19.953a6.784,6.784,0,0,1-2.645-5.376v-50.958a6.771,6.771,0,0,1,6.764-6.778h51.621a6.771,6.771,0,0,1,6.763,6.778v50.975A6.785,6.785,0,0,1,833.328,4286.628Z" transform="translate(-33.665 -32.692)" fill="#342287"/><path d="M803.341,4308.347a7.267,7.267,0,0,1-4.436-1.509l-25.931-19.953a7.35,7.35,0,0,1-2.847-5.79v-50.958a7.3,7.3,0,0,1,7.284-7.3h51.62a7.3,7.3,0,0,1,7.284,7.3v50.974a7.353,7.353,0,0,1-2.825,5.771h0L807.8,4306.82A7.263,7.263,0,0,1,803.341,4308.347Zm-25.93-84.467a6.258,6.258,0,0,0-6.244,6.257V4281.1a6.3,6.3,0,0,0,2.441,4.963l25.93,19.953a6.238,6.238,0,0,0,7.627-.016l25.689-19.936a6.306,6.306,0,0,0,2.421-4.948v-50.974a6.258,6.258,0,0,0-6.244-6.257Z" transform="translate(-33.509 -32.535)" fill="#32293a"/><path d="M794.568,4138.217c-2.15-3.131-5.3-14.312,2.422-17.115,5.906-2.144,12.289.942,12.289.942s7.362-2.033,10.43,3.506c3.124,5.64-2.225,15.18-2.757,14.217Z" transform="translate(-38.578 -8.854)" fill="#32293a"/><path d="M821.876,4160.618c0,2.492-2.479,17.32-14.286,17.32S794,4166.29,794,4160.588l4.962-1a3.913,3.913,0,0,0,2.7-3.632l.067-2.974s-4.171-3-4.172-7.53c-4,.6-6.545-4.517-1.551-6.084,1.814-.043,1.832-5.583,1.462-7.371,2.238,3.143,12.5,6.439,19.534,2.291.024.148-.082,2.43-.157,3.965a1.1,1.1,0,0,0,1.019,1.174c2.959.1,5.527,5.318-.5,6.376.243,5.179-3.167,7.133-3.163,7.416.036.032.076,1.259.109,2.55a3.913,3.913,0,0,0,2.964,3.7Z" transform="translate(-38.848 -11.547)" fill="#f4c7a8"/><g transform="translate(687.347 4170.438)"><path d="M726.064,4197l-13.931,12.654c-7.538,6.748-8.518,17.759-.394,23.786l37.628,27.914s10.407,3.361,17.714,4.384c3.088.433,4-4.326,1.136-5.355-1.768-.638-7.013-2.709-8.119-2.768.707-.025,12.1.224,12.829.231,3.3.037,3.406-4.712.923-5.118-2.8-.458-10.493-1.54-11.965-1.554,0,0,13.036-.274,14.656-.688a2.815,2.815,0,0,0-.853-5.514c-4.659-.429-12.486-1.074-12.486-1.074s12.434-.513,14.239-1,2.712-5.037-2.93-5.045c-3.886-.006-18.679-1-18.679-1l-.045-7-6.342,5.577-15.487-11.708,10.53-9.2Z" transform="translate(-706.051 -4197.004)" fill="#f4c7a8"/><g transform="translate(13.61 24.105)"><path d="M771.568,4273.532a3.282,3.282,0,0,1-.471-.033,111.056,111.056,0,0,1-14.182-3.3,20.832,20.832,0,0,1-6.6-3.279l-26.354-19.549a.521.521,0,0,1,.62-.838l26.353,19.55a19.777,19.777,0,0,0,6.272,3.115,110.105,110.105,0,0,0,14.036,3.273,1.951,1.951,0,0,0,2.192-1.607,2.232,2.232,0,0,0-1.3-2.744c-.386-.14-.94-.346-1.579-.587a52.279,52.279,0,0,0-6.392-2.15.521.521,0,0,1,.008-1.04c.478-.015,5.22.077,10.04.176,1.489.03,2.6.053,2.813.056h.03a2.023,2.023,0,0,0,2.081-1.976,1.821,1.821,0,0,0-1.278-2.108c-2.976-.488-10.512-1.534-11.886-1.549a.52.52,0,0,1-.005-1.04c3.609-.077,13.256-.345,14.538-.672a2.238,2.238,0,0,0,1.619-2.378,2.344,2.344,0,0,0-2.391-2.112c-4.657-.43-12.48-1.074-12.48-1.074a.521.521,0,0,1,.021-1.04c3.442-.142,12.689-.595,14.124-.982a1.8,1.8,0,0,0,.979-1.943c-.172-1.317-1.549-2.075-3.776-2.078-3.858-.006-18.107-.956-18.713-1a.519.519,0,0,1-.484-.516l-.038-5.858-5.486,4.826a.52.52,0,0,1-.656.023l-18.263-13.809a.52.52,0,0,1,.627-.831l17.925,13.553,6.024-5.3a.521.521,0,0,1,.862.389l.041,6.515c2.578.17,14.733.958,18.164.962,4.095.006,4.713,2.286,4.8,2.984a2.826,2.826,0,0,1-1.738,3.086,58.679,58.679,0,0,1-6.655.626c1.692.146,3.4.3,4.814.427a3.383,3.383,0,0,1,3.332,3.067,3.271,3.271,0,0,1-2.4,3.47,71.746,71.746,0,0,1-7.613.5c1.952.273,3.81.551,4.878.726a2.83,2.83,0,0,1,2.146,3.226,3.042,3.042,0,0,1-3.115,2.928h-.045c-.212,0-1.328-.025-2.823-.056-1.824-.037-4.281-.087-6.3-.124.919.329,1.949.714,3.033,1.123.634.237,1.182.443,1.565.582a3.277,3.277,0,0,1,1.962,3.974A2.988,2.988,0,0,1,771.568,4273.532Z" transform="translate(-723.751 -4228.352)" fill="#32293a"/></g></g><g transform="translate(778.744 4170.445)"><path d="M878.34,4197.013l13.931,12.654c7.538,6.748,8.518,17.759.394,23.785l-37.628,27.914s-10.407,3.362-17.714,4.384c-3.088.434-4-4.327-1.136-5.356,1.768-.637,7.013-2.708,8.119-2.767-.707-.025-12.1.224-12.829.231-3.3.036-3.406-4.711-.923-5.119,2.8-.457,10.493-1.539,11.965-1.554,0,0-13.036-.274-14.656-.687a2.815,2.815,0,0,1,.853-5.514c4.659-.429,12.486-1.074,12.486-1.074s-12.434-.514-14.239-1-2.711-5.038,2.931-5.046c3.885-.006,18.678-1,18.678-1l.045-7,6.342,5.577,15.487-11.709-10.53-9.2Z" transform="translate(-825.066 -4197.013)" fill="#f4c7a8"/><g transform="translate(0 24.106)"><path d="M836.771,4273.542a2.991,2.991,0,0,1-2.877-2.421,3.281,3.281,0,0,1,1.962-3.975c.387-.139.942-.348,1.584-.59,1.079-.405,2.1-.787,3.016-1.115-1.992.037-4.4.086-6.192.123-1.55.032-2.719.055-2.936.057h-.045a3.04,3.04,0,0,1-3.114-2.925,2.832,2.832,0,0,1,2.146-3.228c1.069-.175,2.927-.452,4.881-.724a72.115,72.115,0,0,1-7.616-.5,3.269,3.269,0,0,1-2.4-3.47,3.384,3.384,0,0,1,3.333-3.067c1.415-.13,3.122-.281,4.814-.427a58.461,58.461,0,0,1-6.654-.626,2.826,2.826,0,0,1-1.739-3.086c.091-.7.709-2.978,4.8-2.984,3.432,0,15.586-.792,18.164-.962l.04-6.515a.52.52,0,0,1,.863-.387l6.024,5.3,17.926-13.552a.521.521,0,0,1,.626.832L855.118,4243.1a.518.518,0,0,1-.655-.023l-5.487-4.825-.036,5.858a.52.52,0,0,1-.484.517c-.606.041-14.855.992-18.714,1-2.227,0-3.6.759-3.775,2.078a1.8,1.8,0,0,0,.98,1.943c1.433.387,10.682.841,14.123.982a.521.521,0,0,1,.022,1.041s-7.823.644-12.481,1.073a2.347,2.347,0,0,0-2.391,2.113,2.237,2.237,0,0,0,1.619,2.377c1.28.327,10.929.6,14.538.672a.521.521,0,0,1,0,1.041c-1.37.015-8.908,1.06-11.886,1.547a1.825,1.825,0,0,0-1.28,2.111,2.035,2.035,0,0,0,2.112,1.974c.217,0,1.381-.026,2.927-.059,4.76-.1,9.467-.189,9.927-.173a.521.521,0,0,1,.008,1.04,52.151,52.151,0,0,0-6.373,2.143c-.648.244-1.207.455-1.6.595a2.231,2.231,0,0,0-1.3,2.745,1.95,1.95,0,0,0,2.192,1.606,110.038,110.038,0,0,0,14.036-3.273,19.762,19.762,0,0,0,6.272-3.116l26.354-19.549a.52.52,0,0,1,.619.836l-26.353,19.55a20.842,20.842,0,0,1-6.6,3.278,110.951,110.951,0,0,1-14.182,3.3A3.271,3.271,0,0,1,836.771,4273.542Z" transform="translate(-824.91 -4228.362)" fill="#32293a"/></g></g><g transform="translate(795.723 4164.773)"><path d="M847.511,4212.208a.521.521,0,0,1-.52-.521v-21.529a.52.52,0,1,1,1.04,0v21.529A.521.521,0,0,1,847.511,4212.208Z" transform="translate(-846.991 -4189.637)" fill="#32293a"/></g><g transform="translate(742.196 4164.773)"><path d="M777.9,4212.208a.521.521,0,0,1-.52-.521v-21.529a.52.52,0,1,1,1.04,0v21.529A.521.521,0,0,1,777.9,4212.208Z" transform="translate(-777.381 -4189.637)" fill="#32293a"/></g><path d="M804.594,4263.613l-10.778,18.708a4.46,4.46,0,0,0,3.864,6.687h21.556a4.46,4.46,0,0,0,3.863-6.687l-10.778-18.708A4.46,4.46,0,0,0,804.594,4263.613Z" transform="translate(-38.843 -41.44)" fill="#c4baf5"/><path d="M819.081,4289.368H797.525a4.985,4.985,0,0,1-4.308-7.478L804,4263.181a4.969,4.969,0,0,1,8.615,0l10.776,18.708a4.984,4.984,0,0,1-4.306,7.478ZM804.9,4263.7l-10.778,18.708a3.944,3.944,0,0,0,3.408,5.915h21.556a3.943,3.943,0,0,0,3.406-5.915L811.712,4263.7a3.931,3.931,0,0,0-6.816,0Z" transform="translate(-38.688 -41.28)" fill="#32293a"/><path d="M810.854,4287.118a1.777,1.777,0,1,1,1.776,1.781A1.778,1.778,0,0,1,810.854,4287.118Z" transform="translate(-42.918 -46.975)" fill="#583ae2"/><path d="M812.475,4289.263a2.3,2.3,0,1,1,2.3-2.3A2.3,2.3,0,0,1,812.475,4289.263Zm0-3.56a1.259,1.259,0,1,0,1.257,1.259A1.26,1.26,0,0,0,812.475,4285.7Z" transform="translate(-42.762 -46.819)" fill="#32293a"/><rect width="2.87" height="8.378" rx="0.488" transform="translate(768.278 4228.027)" fill="#583ae2"/><path d="M813.637,4280.639h-2.121a.9.9,0,0,1-.893-.9v-7.628a.9.9,0,0,1,.893-.9h2.121a.9.9,0,0,1,.9.9v7.628A.9.9,0,0,1,813.637,4280.639Zm-1.975-1.042h1.83v-7.335h-1.83Zm1.975-7.335h0Z" transform="translate(-42.865 -43.713)" fill="#32293a"/><path d="M750.5,4208.083l-18.422-17.526,23.841-19.777a7.287,7.287,0,0,1,4.655-1.682h15.654Z" transform="translate(-24.717 -20.118)" fill="#462eb4"/><path d="M750.342,4208.447a.512.512,0,0,1-.357-.143l-18.422-17.527a.52.52,0,0,1,.026-.778l23.841-19.777a7.828,7.828,0,0,1,4.986-1.8h15.655a.521.521,0,0,1,0,1.042H760.417a6.789,6.789,0,0,0-4.322,1.561l-23.391,19.4,18,17.123a.521.521,0,0,1-.358.9Z" transform="translate(-24.561 -19.962)" fill="#32293a"/><g transform="translate(795.801 4169.924)"><path d="M864.886,4214.9a.519.519,0,0,1-.335-.123l-17.275-14.658a.521.521,0,0,1,.671-.8l16.92,14.357,18.084-17.206a.52.52,0,1,1,.715.755l-18.423,17.527A.515.515,0,0,1,864.886,4214.9Z" transform="translate(-847.092 -4196.336)" fill="#32293a"/></g><path d="M719.959,4326.894H684.315a3.258,3.258,0,0,1-3.254-3.262v-19.04a3.263,3.263,0,0,1,1.255-2.573l17.871-13.948a3.248,3.248,0,0,1,4.005,0l17.773,13.943a3.263,3.263,0,0,1,1.249,2.568v19.045A3.258,3.258,0,0,1,719.959,4326.894Z" transform="translate(-12.93 -47.448)" fill="#462eb4"/><path d="M719.8,4327.257H684.159a3.783,3.783,0,0,1-3.775-3.783v-19.04a3.765,3.765,0,0,1,1.454-2.984l17.874-13.948a3.765,3.765,0,0,1,4.646.006l17.771,13.943a3.757,3.757,0,0,1,1.449,2.979v19.044A3.783,3.783,0,0,1,719.8,4327.257Zm-17.772-39.512a2.73,2.73,0,0,0-1.681.58l-17.872,13.947a2.727,2.727,0,0,0-1.054,2.162v19.04a2.741,2.741,0,0,0,2.735,2.74H719.8a2.741,2.741,0,0,0,2.735-2.74V4304.43a2.726,2.726,0,0,0-1.049-2.159l-17.772-13.943A2.731,2.731,0,0,0,702.031,4287.746Z" transform="translate(-12.774 -47.291)" fill="#32293a"/><path d="M681.735,4307.467l19.323,14.482a2.386,2.386,0,0,0,2.877-.013l18.932-14.448Z" transform="translate(-13.086 -52.088)" fill="#c4baf5"/><path d="M702.332,4322.786a2.9,2.9,0,0,1-1.741-.578l-19.323-14.482a.521.521,0,0,1,.311-.937h0l41.133.02a.522.522,0,0,1,.315.937l-18.932,14.447A2.9,2.9,0,0,1,702.332,4322.786Zm-19.191-14.955,18.071,13.542a1.877,1.877,0,0,0,2.253-.01l17.707-13.514Z" transform="translate(-12.93 -51.932)" fill="#32293a"/><g transform="translate(668.852 4265.847)"><path d="M682.518,4334.395a.516.516,0,0,1-.375-.161.523.523,0,0,1,.015-.737l12.8-12.272a.521.521,0,0,1,.72.753l-12.8,12.271A.518.518,0,0,1,682.518,4334.395Z" transform="translate(-681.998 -4321.081)" fill="#32293a"/></g><g transform="translate(695.744 4265.847)"><path d="M730.339,4334.445a.522.522,0,0,1-.36-.146l-12.847-12.321a.52.52,0,1,1,.717-.753l12.848,12.321a.522.522,0,0,1,.016.737A.515.515,0,0,1,730.339,4334.445Z" transform="translate(-716.971 -4321.081)" fill="#32293a"/></g><g transform="translate(661.249 4099.195)"><ellipse cx="26.193" cy="26.25" rx="26.193" ry="26.25" transform="translate(0.52 0.522)" fill="#fffdf7"/><path d="M698.824,4157.9a26.771,26.771,0,1,1,26.714-26.771A26.772,26.772,0,0,1,698.824,4157.9Zm0-52.5a25.729,25.729,0,1,0,25.674,25.729A25.73,25.73,0,0,0,698.824,4105.4Z" transform="translate(-672.112 -4104.355)" fill="#32293a"/></g><path d="M714.588,4142.649v6.866a1.224,1.224,0,0,1-1.217,1.229H693.694a1.226,1.226,0,0,1-1.226-1.229v-6.866a11.049,11.049,0,0,1,3.829-8.376,10.667,10.667,0,0,1,2.992-1.858,10.878,10.878,0,0,1,4.238-.85,11.073,11.073,0,0,1,11.06,11.084Z" transform="translate(-15.566 -11.447)" fill="#462eb4"/><path d="M713.214,4151.11H693.538a1.751,1.751,0,0,1-1.746-1.75v-6.866a11.593,11.593,0,0,1,4.009-8.77,11.164,11.164,0,0,1,3.135-1.947,11.628,11.628,0,0,1,8.871-.01,11.477,11.477,0,0,1,3.136,1.949,11.636,11.636,0,0,1,4.008,8.778v6.866A1.746,1.746,0,0,1,713.214,4151.11Zm-9.843-19.181a10.358,10.358,0,0,0-4.036.809,10.143,10.143,0,0,0-2.851,1.771,10.548,10.548,0,0,0-3.653,7.984v6.866a.708.708,0,0,0,.707.708h19.676a.7.7,0,0,0,.7-.708v-6.866a10.593,10.593,0,0,0-3.652-7.993,10.387,10.387,0,0,0-2.851-1.772A10.517,10.517,0,0,0,703.371,4131.93Z" transform="translate(-15.41 -11.291)" fill="#32293a"/><g transform="translate(686.03 4127.271)"><path d="M707.842,4142.96a1.417,1.417,0,0,1-.538,1.114v2.416a.878.878,0,0,1-1.5.625.891.891,0,0,1-.258-.625v-2.419a1.417,1.417,0,1,1,2.3-1.111Z" transform="translate(-704.494 -4141.023)" fill="#32293a"/><path d="M706.272,4147.736a1.392,1.392,0,0,1-.991-.41,1.421,1.421,0,0,1-.409-.994v-2.192a1.933,1.933,0,1,1,2.8.005v2.187A1.4,1.4,0,0,1,706.272,4147.736Zm0-5.828a.9.9,0,0,0-.554,1.6l.194.157v2.668a.359.359,0,1,0,.717,0v-2.666l.2-.157a.9.9,0,0,0-.553-1.6Z" transform="translate(-704.338 -4140.866)" fill="#32293a"/></g><path d="M711.909,4122.128v8.915a10.958,10.958,0,0,0-2.992-1.858v-7.057a1.5,1.5,0,0,0-1.5-1.5h-5.485a1.5,1.5,0,0,0-1.5,1.5v7.066a10.656,10.656,0,0,0-2.992,1.859v-8.925a4.493,4.493,0,0,1,4.488-4.5h5.485A4.493,4.493,0,0,1,711.909,4122.128Z" transform="translate(-16.716 -8.227)" fill="#583ae2"/><path d="M696.772,4132.046v-10.074a5.02,5.02,0,0,1,5.008-5.019h5.485a5.019,5.019,0,0,1,5.007,5.019v10.063l-.862-.756a10.4,10.4,0,0,0-2.851-1.771l-.32-.134v-7.4a.976.976,0,0,0-.975-.978H701.78a.977.977,0,0,0-.976.978v7.415l-.323.132a10.14,10.14,0,0,0-2.847,1.77ZM701.78,4118a3.978,3.978,0,0,0-3.969,3.977v7.848a11.078,11.078,0,0,1,1.952-1.125v-6.722a2.021,2.021,0,0,1,2.016-2.021h5.485a2.021,2.021,0,0,1,2.015,2.021v6.715a11.511,11.511,0,0,1,1.952,1.125v-7.84a3.977,3.977,0,0,0-3.968-3.977Z" transform="translate(-16.56 -8.071)" fill="#32293a"/><g transform="translate(760.645 4138.164)"><path d="M809.715,4161.919c-2.178,0-5.206-.937-8.236-4.914a.521.521,0,0,1,.827-.633c2.4,3.158,5.156,4.707,7.933,4.484,2.856-.229,5.6-2.3,7.33-5.549a.52.52,0,1,1,.916.491c-1.9,3.561-4.954,5.839-8.163,6.1C810.128,4161.911,809.925,4161.919,809.715,4161.919Z" transform="translate(-801.373 -4155.032)" fill="#32293a"/></g><g transform="translate(768.477 4125.484)"><path d="M812.18,4147.937a.521.521,0,0,1-.3-.95l.932-.647a.815.815,0,0,0,.344-.594.732.732,0,0,0-.205-.594,3.9,3.9,0,0,1-.821-5.008,3.584,3.584,0,0,1,2.754-1.551,5.766,5.766,0,0,1,4.613,1.334.521.521,0,0,1-.734.739,4.746,4.746,0,0,0-3.747-1.039,2.627,2.627,0,0,0-1.992,1.045,2.87,2.87,0,0,0,.667,3.749,1.789,1.789,0,0,1,.5,1.422,1.851,1.851,0,0,1-.787,1.353l-.934.648A.508.508,0,0,1,812.18,4147.937Z" transform="translate(-811.558 -4138.542)" fill="#32293a"/></g><path d="M805.852,4146.418a1.047,1.047,0,1,1-1.076-1.234A1.173,1.173,0,0,1,805.852,4146.418Z" transform="translate(-41.291 -14.593)" fill="#32293a"/><path d="M819.923,4146.07a1.047,1.047,0,1,1-1.075-1.235A1.173,1.173,0,0,1,819.923,4146.07Z" transform="translate(-44.542 -14.512)" fill="#32293a"/><g transform="translate(760.334 4125.648)"><path d="M801.489,4141.238a.521.521,0,0,1-.409-.842,4.306,4.306,0,0,1,4.9-1.344.521.521,0,0,1-.387.967,3.265,3.265,0,0,0-3.7,1.019A.518.518,0,0,1,801.489,4141.238Z" transform="translate(-800.968 -4138.757)" fill="#32293a"/></g><g transform="translate(766.742 4136.671)"><path d="M811.866,4155.045c-.055,0-.11,0-.166,0a2.837,2.837,0,0,1-2.315-1.149.52.52,0,1,1,.874-.563,1.877,1.877,0,0,0,1.486.67,2.017,2.017,0,0,0,1.683-.637.52.52,0,1,1,.823.636A2.97,2.97,0,0,1,811.866,4155.045Z" transform="translate(-809.301 -4153.091)" fill="#32293a"/></g><g transform="translate(769.839 4140.875)"><path d="M813.849,4184.676a.521.521,0,0,1,0-1.042c9.738,0,12-12.406,12.143-16.474-1.638-.409-4.108-1.034-4.108-1.034a4.593,4.593,0,0,1-3.457-4.329l-.068-2.706a.52.52,0,1,1,1.04-.026l.068,2.706a3.55,3.55,0,0,0,2.671,3.346s2.912.736,4.506,1.132a.519.519,0,0,1,.394.5C827.038,4170.54,824.8,4184.676,813.849,4184.676Z" transform="translate(-813.329 -4158.557)" fill="#32293a"/></g><g transform="translate(757.984 4141.351)"><path d="M798.433,4166.942a.521.521,0,0,1-.207-1l2.6-1.133a2.411,2.411,0,0,0,1.449-2.213v-2.9a.52.52,0,1,1,1.04,0v2.9a3.452,3.452,0,0,1-2.075,3.169l-2.6,1.132A.509.509,0,0,1,798.433,4166.942Z" transform="translate(-797.913 -4159.177)" fill="#32293a"/></g><g transform="translate(791.575 4092.904)"><path d="M916.815,4147.212a.521.521,0,0,1-.52-.52,43.019,43.019,0,0,0-21.824-34.575c-9.125-5.292-20.325-7.113-30.207-8.721-8.733-1.421-16.983-2.763-22.429-6.264a.52.52,0,0,1,.561-.876c5.264,3.385,13.411,4.709,22.036,6.112,9.969,1.622,21.269,3.46,30.56,8.847a44.085,44.085,0,0,1,22.344,35.478.52.52,0,0,1-.52.52Z" transform="translate(-841.596 -4096.173)" fill="#32293a"/></g><g transform="translate(874.817 4245.738)"><path d="M958.86,4380.165a.494.494,0,0,1-.105-.011.521.521,0,0,1-.4-.615c2-9.7-1.186-17.875-4.27-25.783-2.173-5.576-4.227-10.843-4.232-16.207-.008-9.409,5.4-14.654,11.135-20.206,5.474-5.3,11.677-11.314,14.406-22.02a.52.52,0,1,1,1.007.258c-2.8,10.991-9.117,17.111-14.689,22.51-5.81,5.629-10.828,10.491-10.819,19.457,0,5.169,2.024,10.346,4.161,15.829,3.138,8.051,6.384,16.374,4.32,26.373A.52.52,0,0,1,958.86,4380.165Z" transform="translate(-949.849 -4294.929)" fill="#32293a"/></g><g transform="translate(635.254 4168.49)"><path d="M641.342,4200.562a3.043,3.043,0,1,1,1.07-.2h0A3.033,3.033,0,0,1,641.342,4200.562Zm.887-.684h0Zm-.884-4.365a1.974,1.974,0,0,0-.7.13,2.005,2.005,0,0,0-1.169,2.578,2,2,0,0,0,2.571,1.17h0a2,2,0,0,0-.7-3.878Z" transform="translate(-638.306 -4194.471)" fill="#32293a"/></g><g transform="translate(684.924 4324.884)"><path d="M705.937,4403.947a3.044,3.044,0,1,1,1.07-.2h0A3.026,3.026,0,0,1,705.937,4403.947Zm0-5.049a2,2,0,1,0,.7,3.877h0a2,2,0,0,0-.7-3.877Z" transform="translate(-702.9 -4397.856)" fill="#32293a"/></g><g transform="translate(907.043 4215.655)"><path d="M994.8,4261.893a3.029,3.029,0,1,1,1.066-.194h0A3.055,3.055,0,0,1,994.8,4261.893Zm-.006-5.045a1.972,1.972,0,0,0-.7.128,2,2,0,0,0,1.406,3.748h0a2,2,0,0,0-.706-3.876Z" transform="translate(-991.758 -4255.807)" fill="#32293a"/></g><g transform="translate(914.229 4188.593)"><path d="M1005.846,4230.124a4.751,4.751,0,1,1,1.671-.306h0A4.742,4.742,0,0,1,1005.846,4230.124Zm0-8.468a3.719,3.719,0,0,0-1.3.239,3.71,3.71,0,1,0,2.605,6.947h0a3.712,3.712,0,0,0-1.3-7.186Z" transform="translate(-1001.104 -4220.613)" fill="#32293a"/></g><g transform="translate(625.097 4149.767)"><path d="M630.764,4181.461a5.664,5.664,0,1,1,1.983-.363A5.668,5.668,0,0,1,630.764,4181.461Zm0-10.3a4.624,4.624,0,1,0,1.906.416A4.615,4.615,0,0,0,630.76,4171.162Z" transform="translate(-625.097 -4170.121)" fill="#32293a"/></g></g></svg>