<svg xmlns="http://www.w3.org/2000/svg" width="101" height="101" viewBox="0 0 101 101">
  <g id="Grupo_959224" data-name="Grupo 959224" transform="translate(-1169 -1293)">
    <circle id="Elipse_5740" data-name="Elipse 5740" cx="50.5" cy="50.5" r="50.5" transform="translate(1169 1293)" fill="#80cab6"/>
    <g id="agua" transform="translate(1191 1314.999)">
      <path id="Trazado_726076" data-name="Trazado 726076" d="M63.1,10.3H54.883A2.335,2.335,0,0,0,52.547,8H48.883a2.337,2.337,0,0,0-2.337,2.337v-.288C23.006,8.932,11.325,28.776,14.1,49.835a21.694,21.694,0,0,0-2.32,6.028.484.484,0,0,1-.357.362c-5.144,1.238-4.038,7.842.338,7.842H39.232A3.36,3.36,0,0,0,40.4,57.48a.483.483,0,0,1-.245-.765c1.191-1.534,1.459-3.35.714-4.506a3.663,3.663,0,0,0-2.24-1.429,25.44,25.44,0,0,1,7.915-19.357v-.384a2.337,2.337,0,0,0,2.337,2.337h3.664a2.335,2.335,0,0,0,2.336-2.3H63.1a.967.967,0,0,0,.967-.967V11.262A.967.967,0,0,0,63.1,10.3Z" transform="translate(-7.034 -7.032)" fill="#cbe3fa"/>
      <path id="Trazado_726077" data-name="Trazado 726077" d="M88,46a25.44,25.44,0,0,0-7.915,19.357,6.339,6.339,0,0,0-4.5.637.484.484,0,0,1-.7-.528c.487-2.442.262-4.6-.912-5.268-1.548-.883-5.07.624-8.148,4.447A.483.483,0,0,1,65,64.533c-.61-1.485-1.944-4.1-3.954-4.33-1.707-.2-3.8,1.33-5.494,4.213C52.774,43.358,64.455,23.513,88,24.631Z" transform="translate(-48.484 -21.614)" fill="#80aaff"/>
      <path id="Trazado_726078" data-name="Trazado 726078" d="M395.929,27h8.217a.967.967,0,0,1,.967.967v18.85a.967.967,0,0,1-.967.967c-8.85,0-8.217.02-8.217-.041C395.929,26.754,395.916,27,395.929,27Z" transform="translate(-348.079 -23.736)" fill="#585966"/>
      <path id="Trazado_726079" data-name="Trazado 726079" d="M165.791,322.709q-.468.353-.943.775c-2.964,2.646-6.884-2.239-3.675-4.56,2.048-1.481,3.932-1.94,4.955-1.357C167.444,318.318,167.795,321.2,165.791,322.709Z" transform="translate(-140.644 -278.979)" fill="#eef7ff"/>
      <path id="Trazado_726080" data-name="Trazado 726080" d="M22.693,321.818a1.152,1.152,0,0,1-.413,1.578,10.115,10.115,0,0,0-3.348,3.668,21.416,21.416,0,0,0-2.229,5.651,1.151,1.151,0,0,1-.778.828,4.067,4.067,0,0,0-3.027,3.173,1.157,1.157,0,0,1-1.138.955c-4.376,0-5.481-6.6-.338-7.842a.484.484,0,0,0,.357-.362,21.692,21.692,0,0,1,2.32-6.028c1.693-2.883,3.787-4.412,5.494-4.213C20.93,319.381,21.968,320.59,22.693,321.818Z" transform="translate(-7.033 -280.637)" fill="#eef7ff"/>
      <path id="Trazado_726081" data-name="Trazado 726081" d="M87.995,24.632v2.817a.969.969,0,0,1-.87.961c-16.8,1.779-26.243,15.321-27.084,31.226a.961.961,0,0,1-.59.833,9.184,9.184,0,0,0-3.9,3.948c-2.774-21.059,8.907-40.9,32.447-39.785Z" transform="translate(-48.483 -21.615)" fill="#9cbcff"/>
      <path id="Trazado_726082" data-name="Trazado 726082" d="M333.031,10.417a2.338,2.338,0,0,0-2.405,2.337V32.087a1.288,1.288,0,0,1-1.288,1.288A2.337,2.337,0,0,1,327,31.038v-20.7A2.337,2.337,0,0,1,329.338,8s3.75,0,3.793,0a1.209,1.209,0,0,1-.1,2.413Z" transform="translate(-287.489 -7.032)" fill="#eef7ff"/>
      <path id="Trazado_726083" data-name="Trazado 726083" d="M405.175,27.967v1.692a.967.967,0,0,1-.967.967h-7.25a.967.967,0,0,1-.967-.967c0-2.79,0-2.638,0-2.658h8.218A.967.967,0,0,1,405.175,27.967Z" transform="translate(-348.143 -23.737)" fill="#6e6f80"/>
      <g id="Grupo_959205" data-name="Grupo 959205" transform="translate(0 0.001)">
        <path id="Trazado_726084" data-name="Trazado 726084" d="M57.081,23.08H48.865V4.23h8.217a.967.967,0,0,0,0-1.933H47.9a.965.965,0,0,0-.966.987c0,.067,0-1.395,0,20.721a1.372,1.372,0,0,1-1.371,1.371H41.9a1.372,1.372,0,0,1-1.371-1.371V3.3A1.372,1.372,0,0,1,41.9,1.934h1.366a.967.967,0,0,0,0-1.933H41.9a3.309,3.309,0,0,0-3.046,2.023C15.827,1.353,3.38,20.666,6.116,42.6a23.029,23.029,0,0,0-2.2,5.725C-1.984,50.007-.664,58,4.774,58H32.246c5.1,0,6.222-6.471,2.066-8.262a4.78,4.78,0,0,0,.388-5.085,4.29,4.29,0,0,0-2.1-1.619A24.263,24.263,0,0,1,37.48,28.2a.967.967,0,1,0-1.549-1.157,26.2,26.2,0,0,0-5.25,16.755.967.967,0,0,0,.753.9,2.724,2.724,0,0,1,1.64,1.009c.537.836.261,2.529-1.13,3.916a.967.967,0,0,0,.583,1.646,2.355,2.355,0,0,1,2.4,2.461,2.494,2.494,0,0,1-2.675,2.344H4.774c-3.306,0-4.169-5.159.135-5.989a.966.966,0,0,0,.761-.74A20.065,20.065,0,0,1,7.989,43.21c1.534-2.576,3.317-3.8,4.506-3.661,1.449.169,2.735,2.427,3.456,4.483a.967.967,0,0,0,1.69.255c3.1-4.2,6.475-5.394,7.413-4.858.713.407.975,2.515.179,5.339a.967.967,0,1,0,1.861.524c.812-2.884.955-6.38-1.082-7.543-2.1-1.2-5.807.571-8.871,4.077-.87-1.866-2.3-3.95-4.421-4.2-1.6-.187-3.333.707-4.908,2.526-.83-10.724,2.155-20.572,8.358-27.316,5.559-6.044,13.3-9.107,22.425-8.889V24.005a3.308,3.308,0,0,0,3.3,3.3h3.663a3.309,3.309,0,0,0,3.146-2.3h8.374a.967.967,0,0,0,0-1.933Z" transform="translate(-0.048 -0.001)"/>
        <path id="Trazado_726085" data-name="Trazado 726085" d="M278.588,78.049l-.152.052a.967.967,0,1,0,.631,1.827l.141-.048a.967.967,0,1,0-.62-1.831Z" transform="translate(-244.219 -68.573)"/>
        <path id="Trazado_726086" data-name="Trazado 726086" d="M199.242,92.3a.967.967,0,0,0-1.3-.412,28.067,28.067,0,0,0-7.013,5.14.967.967,0,0,0,1.373,1.361A26.131,26.131,0,0,1,198.83,93.6.967.967,0,0,0,199.242,92.3Z" transform="translate(-167.608 -80.686)"/>
        <path id="Trazado_726087" data-name="Trazado 726087" d="M114.9,173.525a25.753,25.753,0,0,1,3.892-8.437.967.967,0,0,0-1.58-1.115,27.68,27.68,0,0,0-4.184,9.068.967.967,0,1,0,1.872.484Z" transform="translate(-99.342 -143.8)"/>
        <path id="Trazado_726088" data-name="Trazado 726088" d="M212,165.975a.967.967,0,0,0,1.347-.231,16.9,16.9,0,0,1,5.532-4.936.967.967,0,0,0-.944-1.687,18.846,18.846,0,0,0-6.167,5.507A.967.967,0,0,0,212,165.975Z" transform="translate(-186.021 -139.785)"/>
        <path id="Trazado_726089" data-name="Trazado 726089" d="M188.408,246.134c-.158.566-.29,1.148-.393,1.731a.967.967,0,1,0,1.9.337c.092-.521.211-1.042.352-1.549a.967.967,0,0,0-1.862-.519Z" transform="translate(-165.284 -215.771)"/>
        <path id="Trazado_726090" data-name="Trazado 726090" d="M106.26,267.776l-.242,1.208a.967.967,0,1,0,1.9.379l.242-1.208a.967.967,0,0,0-1.9-.379Z" transform="translate(-93.191 -234.737)"/>
        <path id="Trazado_726091" data-name="Trazado 726091" d="M313.829,347.927a.967.967,0,0,0-.236-1.919,5.318,5.318,0,0,0-4.573,4.262.967.967,0,1,0,1.891.4A3.384,3.384,0,0,1,313.829,347.927Z" transform="translate(-271.661 -304.192)"/>
        <path id="Trazado_726092" data-name="Trazado 726092" d="M1.208,329.725a.967.967,0,1,0,1.933-.026,7.589,7.589,0,0,0-1.385-4.29.967.967,0,1,0-1.581,1.113A5.656,5.656,0,0,1,1.208,329.725Z" transform="translate(0 -285.729)"/>
        <path id="Trazado_726093" data-name="Trazado 726093" d="M328.767,416.074a6.066,6.066,0,0,0-5.46,1.436.967.967,0,0,0,1.3,1.428,4.132,4.132,0,0,1,3.724-.98.967.967,0,0,0,.433-1.884Z" transform="translate(-283.963 -365.662)"/>
      </g>
    </g>
  </g>
</svg>
