<svg xmlns="http://www.w3.org/2000/svg" width="101" height="101" viewBox="0 0 101 101">
  <g id="Grupo_959222" data-name="Grupo 959222" transform="translate(-329 -1293)">
    <circle id="Elipse_5738" data-name="Elipse 5738" cx="50.5" cy="50.5" r="50.5" transform="translate(329 1293)" fill="#80cab6"/>
    <g id="volumen_1_" data-name="volumen (1)" transform="translate(268.664 1307)">
      <g id="Grupo_959207" data-name="Grupo 959207" transform="translate(91.574 1.084)">
        <path id="Trazado_726094" data-name="Trazado 726094" d="M126.939,9.682V77.15l-2.184,2.182-2.182-2.182V9.682L124.755,7.5Z" transform="translate(-122.573 -7.5)" fill="#eef0f5"/>
        <path id="Trazado_726095" data-name="Trazado 726095" d="M139.857,9.682V77.15l-2.184,2.182V7.5Z" transform="translate(-135.491 -7.5)" fill="#dae1ea"/>
        <g id="Grupo_959206" data-name="Grupo 959206" transform="translate(15.242 39.961)">
          <path id="Trazado_726096" data-name="Trazado 726096" d="M252.6,313.69a2.166,2.166,0,0,1-2.165,2.168H230.195a2.167,2.167,0,0,1,0-4.334V283.987h20.242v27.537A2.167,2.167,0,0,1,252.6,313.69Z" transform="translate(-228.031 -283.987)" fill="#eef0f5"/>
          <path id="Trazado_726097" data-name="Trazado 726097" d="M359.535,313.69a2.166,2.166,0,0,1-2.165,2.168h-4.339a2.168,2.168,0,0,0,1.091-4.038,2.144,2.144,0,0,1-1.091-1.838V283.987h4.339v27.537A2.167,2.167,0,0,1,359.535,313.69Z" transform="translate(-334.965 -283.987)" fill="#dae1ea"/>
          <path id="Trazado_726098" data-name="Trazado 726098" d="M273.026,354.511h11.563v17.343H273.026Z" transform="translate(-266.523 -344.318)" fill="#f9d11f"/>
          <path id="Trazado_726099" data-name="Trazado 726099" d="M0,0H3.247V17.343H0Z" transform="translate(18.066 27.536) rotate(180)" fill="#ffa402"/>
        </g>
      </g>
      <g id="Grupo_959208" data-name="Grupo 959208" transform="translate(86.336)">
        <path id="Trazado_726100" data-name="Trazado 726100" d="M265.531,365.438a1.084,1.084,0,0,0,1.084,1.084h11.563a1.084,1.084,0,0,0,1.084-1.084V348.1a1.084,1.084,0,0,0-1.084-1.084H266.615a1.084,1.084,0,0,0-1.084,1.084ZM267.7,349.18h9.395v15.174H267.7Z" transform="translate(-239.632 -296.858)"/>
        <path id="Trazado_726101" data-name="Trazado 726101" d="M266.615,309.955a1.084,1.084,0,0,0,1.084-1.084v-1.585a1.084,1.084,0,0,0-2.168,0v1.585A1.084,1.084,0,0,0,266.615,309.955Z" transform="translate(-239.632 -261.946)"/>
        <path id="Trazado_726102" data-name="Trazado 726102" d="M347.7,308.871v-1.585a1.084,1.084,0,0,0-2.168,0v1.585a1.084,1.084,0,1,0,2.168,0Z" transform="translate(-308.069 -261.946)"/>
        <path id="Trazado_726103" data-name="Trazado 726103" d="M307.7,308.871v-1.585a1.084,1.084,0,0,0-2.168,0v1.585a1.084,1.084,0,1,0,2.168,0Z" transform="translate(-273.851 -261.946)"/>
        <path id="Trazado_726104" data-name="Trazado 726104" d="M247.133,286.681h-2.028v-9.109a1.084,1.084,0,0,0-1.084-1.084H223.779a1.084,1.084,0,0,0-1.084,1.084v18.453a1.084,1.084,0,0,0,2.168,0V278.656h18.074v26.451a1.084,1.084,0,0,0,1.082,1.084,1.084,1.084,0,0,1,0,2.168h-20.24a1.084,1.084,0,0,1,0-2.168,1.084,1.084,0,0,0,1.082-1.084v-4.041a1.084,1.084,0,0,0-2.168,0v3.145a3.252,3.252,0,0,0,1.084,6.316h20.244a3.252,3.252,0,0,0,1.082-6.316v-2.644h2.028a3.049,3.049,0,0,0,3.046-3.046v-8.794A3.049,3.049,0,0,0,247.133,286.681Zm.878,11.84a.879.879,0,0,1-.878.878h-2.028v-10.55h2.028a.879.879,0,0,1,.878.878Z" transform="translate(-201.136 -236.527)"/>
        <path id="Trazado_726105" data-name="Trazado 726105" d="M212.587,137.062h4.336a1.084,1.084,0,0,0,1.084-1.084v-8.672a1.084,1.084,0,0,0-1.084-1.084h-4.336a1.084,1.084,0,0,0-1.084,1.084v8.672A1.084,1.084,0,0,0,212.587,137.062Zm1.084-8.672h2.168v6.5h-2.168Z" transform="translate(-193.412 -107.979)"/>
        <path id="Trazado_726106" data-name="Trazado 726106" d="M360.982,137.062h4.336a1.084,1.084,0,0,0,0-2.168h-3.252v-7.588a1.084,1.084,0,0,0-2.168,0v8.672A1.084,1.084,0,0,0,360.982,137.062Z" transform="translate(-320.36 -107.979)"/>
        <path id="Trazado_726107" data-name="Trazado 726107" d="M212.587,92.168h8.7a1.084,1.084,0,0,0,0-2.168h-8.7a1.084,1.084,0,0,0,0,2.168Z" transform="translate(-193.412 -76.992)"/>
        <path id="Trazado_726108" data-name="Trazado 726108" d="M212.587,62.168h4.362a1.084,1.084,0,0,0,0-2.168h-4.362a1.084,1.084,0,0,0,0,2.168Z" transform="translate(-193.412 -51.328)"/>
        <path id="Trazado_726109" data-name="Trazado 726109" d="M212.587,32.168h8.7a1.084,1.084,0,0,0,0-2.168h-8.7a1.084,1.084,0,0,0,0,2.168Z" transform="translate(-193.412 -25.664)"/>
        <path id="Trazado_726110" data-name="Trazado 726110" d="M212.587,2.168h4.362a1.084,1.084,0,0,0,0-2.168h-4.362a1.084,1.084,0,0,0,0,2.168Z" transform="translate(-193.412)"/>
        <path id="Trazado_726111" data-name="Trazado 726111" d="M222.368,247.519a1.084,1.084,0,0,0-1.084-1.084h-8.7a1.084,1.084,0,0,0,0,2.168h8.7A1.084,1.084,0,0,0,222.368,247.519Z" transform="translate(-193.412 -210.817)"/>
        <path id="Trazado_726112" data-name="Trazado 726112" d="M212.587,218.6h4.362a1.084,1.084,0,0,0,0-2.168h-4.362a1.084,1.084,0,0,0,0,2.168Z" transform="translate(-193.412 -185.153)"/>
        <path id="Trazado_726113" data-name="Trazado 726113" d="M272.2,173.357a1.084,1.084,0,0,0-1.084,1.084V176.3a1.084,1.084,0,0,0,2.168,0v-1.859A1.084,1.084,0,0,0,272.2,173.357Z" transform="translate(-244.411 -148.301)"/>
        <path id="Trazado_726114" data-name="Trazado 726114" d="M300.982,134.894a1.084,1.084,0,0,0,0,2.168h4.336a1.084,1.084,0,0,0,1.084-1.084v-4.336a1.084,1.084,0,0,0-1.084-1.084h-3.252V128.39h3.252a1.084,1.084,0,0,0,0-2.168h-4.336a1.084,1.084,0,0,0-1.084,1.084v4.336a1.084,1.084,0,0,0,1.084,1.084h3.252v2.168Z" transform="translate(-269.032 -107.979)"/>
        <path id="Trazado_726115" data-name="Trazado 726115" d="M99.326,173.173l-2.3,2.3V126.582a1.084,1.084,0,0,0-2.168,0v51.062l-1.1,1.1-1.1-1.1v-18.1a1.084,1.084,0,0,0-2.168,0v15.931l-2.3-2.3a1.084,1.084,0,1,0-1.533,1.533l6.336,6.336a1.084,1.084,0,0,0,1.533,0l6.336-6.336a1.084,1.084,0,0,0-1.533-1.533Z" transform="translate(-86.337 -107.36)"/>
        <path id="Trazado_726116" data-name="Trazado 726116" d="M94.523.317a1.084,1.084,0,0,0-1.533,0L86.654,6.653a1.084,1.084,0,0,0,1.533,1.533l2.3-2.3V47.156a1.084,1.084,0,0,0,2.168,0V3.716l1.1-1.1,1.1,1.1V14.092a1.084,1.084,0,0,0,2.168,0V5.884l2.3,2.3a1.084,1.084,0,0,0,1.533-1.533Z" transform="translate(-86.336 0)"/>
        <circle id="Elipse_5741" data-name="Elipse 5741" cx="1.084" cy="1.084" r="1.084" transform="translate(33.126 62.871)"/>
      </g>
    </g>
  </g>
</svg>
