<svg xmlns="http://www.w3.org/2000/svg" width="105" height="109" viewBox="0 0 105 109"><g transform="translate(-495 -2367)"><rect width="105" height="109" transform="translate(495 2367)" fill="#0540b7"/><path d="M26.77,0H3.013V-3.312L15.564-17.257A29.817,29.817,0,0,0,19.411-22.4a8.582,8.582,0,0,0,1.058-4.1,6.506,6.506,0,0,0-1.718-4.657,6.008,6.008,0,0,0-4.582-1.818,7.115,7.115,0,0,0-5.342,1.955,7.467,7.467,0,0,0-1.905,5.441H2.316a10.694,10.694,0,0,1,3.225-8.093,11.955,11.955,0,0,1,8.629-3.088A11.487,11.487,0,0,1,22.163-34.1a9.046,9.046,0,0,1,2.938,7.06q0,5.354-6.823,12.75L8.566-3.76h18.2Z" transform="translate(533 2439)" fill="#fff"/></g></svg>