<svg xmlns="http://www.w3.org/2000/svg" width="105" height="109" viewBox="0 0 105 109"><g transform="translate(-810 -2367)"><rect width="105" height="109" transform="translate(810 2367)" fill="#0540b7"/><path d="M9.712-20.37h3.461a7.608,7.608,0,0,0,5.13-1.718A5.741,5.741,0,0,0,20.171-26.6q0-6.375-6.35-6.375a6.605,6.605,0,0,0-4.769,1.706,5.97,5.97,0,0,0-1.781,4.52H2.665A9.249,9.249,0,0,1,5.815-33.9a11.476,11.476,0,0,1,8.006-2.851q5.13,0,8.043,2.714A9.806,9.806,0,0,1,24.778-26.5a7.959,7.959,0,0,1-1.531,4.582A9.247,9.247,0,0,1,19.075-18.6a8.91,8.91,0,0,1,4.619,3.138,8.714,8.714,0,0,1,1.631,5.354,9.891,9.891,0,0,1-3.187,7.745A11.936,11.936,0,0,1,13.846.5a12.252,12.252,0,0,1-8.3-2.764,9.169,9.169,0,0,1-3.2-7.3H6.973A5.926,5.926,0,0,0,8.84-4.98a7.1,7.1,0,0,0,5.005,1.718,6.971,6.971,0,0,0,5.1-1.743,6.718,6.718,0,0,0,1.768-5.005,6.1,6.1,0,0,0-1.942-4.856,8.463,8.463,0,0,0-5.6-1.743H9.712Z" transform="translate(843 2439)" fill="#fff"/></g></svg>