<svg xmlns="http://www.w3.org/2000/svg" width="105" height="109" viewBox="0 0 105 109"><g transform="translate(-390 -2509)"><rect width="105" height="109" transform="translate(390 2509)" fill="#0540b7"/><path d="M5.13-18.179,6.973-36.258H25.55V-32H10.882l-1.1,9.886a11.7,11.7,0,0,1,6.051-1.569,10,10,0,0,1,7.869,3.275q2.914,3.275,2.914,8.853,0,5.6-3.026,8.828T15.141.5A11.461,11.461,0,0,1,7.3-2.167,10.635,10.635,0,0,1,3.835-9.538H8.193a7.317,7.317,0,0,0,2.216,4.694,6.891,6.891,0,0,0,4.731,1.581,6.216,6.216,0,0,0,5.043-2.191,9.161,9.161,0,0,0,1.83-6.051,8.409,8.409,0,0,0-1.98-5.84,6.734,6.734,0,0,0-5.267-2.2,7.6,7.6,0,0,0-4.731,1.32l-1.22,1Z" transform="translate(428 2581)" fill="#fff"/></g></svg>