<svg xmlns="http://www.w3.org/2000/svg" width="105" height="109" viewBox="0 0 105 109"><g transform="translate(-705 -2509)"><rect width="105" height="109" transform="translate(705 2509)" fill="#0540b7"/><path d="M21.092-36.283v3.91h-.847a12.13,12.13,0,0,0-8.566,3.188Q8.492-26.1,7.994-20.495a9.833,9.833,0,0,1,7.819-3.287,9.4,9.4,0,0,1,7.558,3.337A12.871,12.871,0,0,1,26.2-11.829a12.83,12.83,0,0,1-3.051,8.965A10.5,10.5,0,0,1,14.966.5a10.35,10.35,0,0,1-8.442-4A15.841,15.841,0,0,1,3.287-13.8v-1.768q0-10.011,4.271-15.3t12.713-5.416ZM15.041-19.947a7.35,7.35,0,0,0-4.358,1.419,7.4,7.4,0,0,0-2.764,3.561v1.693A11.894,11.894,0,0,0,9.936-6.051a6.045,6.045,0,0,0,5.03,2.739A5.857,5.857,0,0,0,19.86-5.6a9.506,9.506,0,0,0,1.781-6,9.51,9.51,0,0,0-1.805-6.039A5.787,5.787,0,0,0,15.041-19.947Z" transform="translate(743 2581)" fill="#fff"/></g></svg>