<svg xmlns="http://www.w3.org/2000/svg" xmlns:xlink="http://www.w3.org/1999/xlink" width="91" height="81" viewBox="0 0 91 81"><defs><clipPath id="a"><rect width="91" height="81" transform="translate(-3551 -6996)" fill="#fff" stroke="#707070" stroke-width="1"/></clipPath></defs><g transform="translate(3551 6996)" clip-path="url(#a)"><g transform="translate(-3901.352 -10521.945)"><path d="M-4875.632-8130.2l-5.3-7.117h-20.375v53.169h62.24l11.443-34.33h-10.466V-8130.2Z" transform="translate(5260.522 11683.99)" fill="#f7e68f"/><g transform="translate(357.813 3531.5)"><path d="M91.53,410.7h22v4.413h-22Z" transform="translate(-77.939 -352.771)" fill="#2ff980"/><g transform="translate(0 0)"><path d="M170.2,65.812V34.8h25.7l9.175,9.179V65.812Z" transform="translate(-144.919 -32.728)" fill="#2ff980" fill-rule="evenodd"/><path d="M30.57,29.756a1.19,1.19,0,0,1,1.189-1.189H53.818a1.189,1.189,0,1,1,0,2.377H31.759a1.181,1.181,0,0,1-1.189-1.189Zm0,18.366a1.19,1.19,0,0,1,1.189-1.189H53.818a1.189,1.189,0,1,1,0,2.377H31.759a1.19,1.19,0,0,1-1.189-1.189Zm0-9.183a1.19,1.19,0,0,1,1.189-1.189H53.818a1.189,1.189,0,1,1,0,2.377H31.759a1.19,1.19,0,0,1-1.189-1.189ZM13.956,79.074H35.364v3.819H13.956Zm-2.377-1.189v6.2a1.18,1.18,0,0,0,1.188,1.189H36.552a1.181,1.181,0,0,0,1.189-1.189v-6.2A1.19,1.19,0,0,0,36.552,76.7H12.767a1.189,1.189,0,0,0-1.188,1.189ZM62.755,88.361,73.319,56.013H13.461L2.9,88.361Zm-60.31,0v-.1l.3.1Zm0-50.819V82.076l9.023-27.623a1.183,1.183,0,0,1,1.129-.817h10.67V39.92l-1.954-2.377ZM50.929,23.218H25.646V53.635H59.93V32.223ZM63.151,44.482v9.153h-.844V44.482Zm12.769,9.644a1.178,1.178,0,0,0-.962-.49H65.529V43.293A1.19,1.19,0,0,0,64.341,42.1H62.307V31.733a1.174,1.174,0,0,0-.347-.832l-9.7-9.7a1.187,1.187,0,0,0-.84-.348H24.457a1.189,1.189,0,0,0-1.189,1.189V36.176l-.475-.58a1.165,1.165,0,0,0-.918-.431H1.257A1.191,1.191,0,0,0,.068,36.354v53.2a1.191,1.191,0,0,0,1.189,1.189H63.617a1.2,1.2,0,0,0,1.131-.832l11.34-34.726A1.159,1.159,0,0,0,75.921,54.126Z" transform="translate(-0.068 -20.848)" fill="#0e0f0f" fill-rule="evenodd"/></g></g></g></g></svg>