<svg xmlns="http://www.w3.org/2000/svg" xmlns:xlink="http://www.w3.org/1999/xlink" width="91" height="81" viewBox="0 0 91 81"><defs><clipPath id="a"><rect width="91" height="81" transform="translate(-3551 -6996)" fill="#fff" stroke="#707070" stroke-width="1"/></clipPath></defs><g transform="translate(3551 6996)" clip-path="url(#a)"><g transform="translate(-3542.794 -6993)"><g transform="translate(3.88 1.086)"><g transform="translate(0)"><path d="M25.785,7.5H62.649a4.289,4.289,0,0,1,4.289,4.289V75.216a4.289,4.289,0,0,1-4.289,4.289H14.582a4.289,4.289,0,0,1-4.289-4.289V22.991a4.289,4.289,0,0,1,1.256-3.033l11.2-11.2A4.289,4.289,0,0,1,25.785,7.5Z" transform="translate(-10.293 -7.499)" fill="#f4fbff"/><path d="M317.3,7.5h-9.211a4.289,4.289,0,0,1,4.289,4.289V75.216a4.289,4.289,0,0,1-4.289,4.289H317.3a4.289,4.289,0,0,0,4.289-4.289V11.789A4.289,4.289,0,0,0,317.3,7.5Z" transform="translate(-264.943 -7.499)" fill="#e4f6ff"/><path d="M13.824,22.233l11.2-11.2a4.289,4.289,0,0,1,1.256-.871V20.83a2.659,2.659,0,0,1-2.659,2.659H12.953a4.286,4.286,0,0,1,.871-1.256Z" transform="translate(-12.568 -9.774)" fill="#e28086"/><path d="M188.759,65.431H166.452a1.349,1.349,0,0,1-1.349-1.349V60.556a1.349,1.349,0,0,1,1.349-1.349h22.307a1.349,1.349,0,0,1,1.349,1.349v3.526A1.349,1.349,0,0,1,188.759,65.431Z" transform="translate(-142.674 -51.715)" fill="#cbe2ff"/></g><path d="M367.629,348.612l-3.985-2.453a1.22,1.22,0,0,0-1.279,0l-3.985,2.453a1.219,1.219,0,0,1-1.859-1.038V331.792h12.966v15.781A1.22,1.22,0,0,1,367.629,348.612Z" transform="translate(-306.36 -284.808)" fill="#e8ae4d"/><g transform="translate(42.095 23.834)"><path d="M317.965,173.271a3.258,3.258,0,0,0,3.489,1.134,3.258,3.258,0,0,1,4.169,3.029,3.258,3.258,0,0,0,2.156,2.968,3.258,3.258,0,0,1,1.592,4.9,3.258,3.258,0,0,0,0,3.669,3.258,3.258,0,0,1-1.592,4.9,3.258,3.258,0,0,0-2.156,2.968,3.258,3.258,0,0,1-4.169,3.029A3.258,3.258,0,0,0,317.965,201a3.258,3.258,0,0,1-5.153,0,3.258,3.258,0,0,0-3.489-1.134,3.258,3.258,0,0,1-4.169-3.029A3.258,3.258,0,0,0,303,193.872a3.258,3.258,0,0,1-1.592-4.9,3.258,3.258,0,0,0,0-3.669A3.258,3.258,0,0,1,303,180.4a3.258,3.258,0,0,0,2.156-2.968,3.258,3.258,0,0,1,4.169-3.029,3.258,3.258,0,0,0,3.489-1.134A3.258,3.258,0,0,1,317.965,173.271Z" transform="translate(-300.838 -172.007)" fill="#ffe07d"/><path d="M396.334,188.972a3.258,3.258,0,0,1,0-3.669,3.258,3.258,0,0,0-1.592-4.9,3.258,3.258,0,0,1-2.156-2.968,3.258,3.258,0,0,0-4.169-3.029,3.258,3.258,0,0,1-3.489-1.134,3.258,3.258,0,0,0-5.153,0,3.255,3.255,0,0,1-.629.618,14.556,14.556,0,0,1,0,26.5,3.252,3.252,0,0,1,.629.618,3.258,3.258,0,0,0,5.153,0,3.258,3.258,0,0,1,3.489-1.134,3.258,3.258,0,0,0,4.169-3.029,3.258,3.258,0,0,1,2.156-2.968A3.258,3.258,0,0,0,396.334,188.972Z" transform="translate(-367.8 -172.007)" fill="#ffd064"/><circle cx="8.02" cy="8.02" r="8.02" transform="translate(6.531 7.11)" fill="#e8ae4d"/><path d="M429.184,233.476a8.021,8.021,0,0,0-4.649-7.279,14.568,14.568,0,0,1,0,14.558A8.021,8.021,0,0,0,429.184,233.476Z" transform="translate(-406.613 -218.346)" fill="#e5a32e"/></g></g><path d="M13.824,22.233l11.2-11.2a4.289,4.289,0,0,1,1.256-.871V20.83a2.659,2.659,0,0,1-2.659,2.659H12.953a4.286,4.286,0,0,1,.871-1.256Z" transform="translate(-8.687 -8.687)" fill="#e28086"/><g transform="translate(2.794 0)"><path d="M88.191,181.506H60.376a1.086,1.086,0,1,0,0,2.173H88.192a1.086,1.086,0,1,0,0-2.173Z" transform="translate(-51.105 -155.209)"/><path d="M88.191,234.2H60.376a1.086,1.086,0,0,0,0,2.173H88.192a1.086,1.086,0,1,0,0-2.173Z" transform="translate(-51.105 -200.27)"/><path d="M88.191,286.9H60.376a1.086,1.086,0,1,0,0,2.173H88.192a1.086,1.086,0,1,0,0-2.173Z" transform="translate(-51.105 -245.331)"/><path d="M89.278,340.68a1.086,1.086,0,0,0-1.086-1.086H60.376a1.086,1.086,0,1,0,0,2.173H88.192A1.086,1.086,0,0,0,89.278,340.68Z" transform="translate(-51.105 -290.393)"/><path d="M60.376,416.821a1.086,1.086,0,1,0,0,2.173H74.32a1.086,1.086,0,1,0,0-2.173Z" transform="translate(-51.105 -356.431)"/><path d="M184.782,57.668V54.143a2.438,2.438,0,0,0-2.436-2.436H160.04a2.438,2.438,0,0,0-2.436,2.436v3.526A2.438,2.438,0,0,0,160.04,60.1h1.884a1.086,1.086,0,0,0,0-2.173H160.04a.263.263,0,0,1-.263-.263V54.143a.263.263,0,0,1,.263-.263h22.307a.263.263,0,0,1,.263.263v3.526a.263.263,0,0,1-.263.263H167a1.086,1.086,0,1,0,0,2.173h15.344A2.438,2.438,0,0,0,184.782,57.668Z" transform="translate(-135.175 -44.216)"/><path d="M60.526,66.254a1.086,1.086,0,0,0-1.086,1.086V68.8a3.207,3.207,0,0,1-3.2,3.2H8.17a3.207,3.207,0,0,1-3.2-3.2V16.579a3.225,3.225,0,0,1,.077-.69h9.893a3.75,3.75,0,0,0,3.746-3.746V2.25a3.223,3.223,0,0,1,.69-.077H56.236a3.207,3.207,0,0,1,3.2,3.2V19.841a1.086,1.086,0,1,0,2.173,0V5.376A5.382,5.382,0,0,0,56.236,0H19.373a5.341,5.341,0,0,0-3.8,1.575l-11.2,11.2a5.341,5.341,0,0,0-1.574,3.8V68.8A5.382,5.382,0,0,0,8.17,74.18H56.236A5.382,5.382,0,0,0,61.612,68.8V67.34a1.087,1.087,0,0,0-1.086-1.087ZM16.509,3.71v8.433a1.575,1.575,0,0,1-1.573,1.573H6.5Z" transform="translate(-2.794 0)"/><path d="M323.85,179.5a4.344,4.344,0,0,0-2.124-6.535,2.159,2.159,0,0,1-1.437-1.978,4.345,4.345,0,0,0-5.559-4.039,2.159,2.159,0,0,1-2.326-.756,4.344,4.344,0,0,0-6.872,0,2.159,2.159,0,0,1-2.325.756,4.344,4.344,0,0,0-5.559,4.039,2.159,2.159,0,0,1-1.437,1.978,4.344,4.344,0,0,0-2.123,6.535,2.159,2.159,0,0,1,0,2.445,4.345,4.345,0,0,0,2.123,6.535,2.159,2.159,0,0,1,1.437,1.978,4.344,4.344,0,0,0,3.751,4.173v9.892a2.306,2.306,0,0,0,3.515,1.964l3.985-2.453a.114.114,0,0,1,.139,0l3.985,2.453a2.306,2.306,0,0,0,3.515-1.964v-9.892a4.344,4.344,0,0,0,3.751-4.172,2.159,2.159,0,0,1,1.437-1.978,4.345,4.345,0,0,0,2.124-6.535A2.158,2.158,0,0,1,323.85,179.5Zm-9.688,25.137-3.985-2.453a2.306,2.306,0,0,0-2.418,0l-3.985,2.453a.132.132,0,0,1-.2-.113v-10.1a2.156,2.156,0,0,1,1.96.828,4.345,4.345,0,0,0,6.872,0,2.156,2.156,0,0,1,1.961-.828v10.1A.132.132,0,0,1,314.162,204.638Zm7.892-21.468a2.171,2.171,0,0,1-1.061,3.266,4.32,4.32,0,0,0-2.875,3.958,2.142,2.142,0,0,1-.782,1.6,2.163,2.163,0,0,1-2,.415,4.321,4.321,0,0,0-4.653,1.512,2.172,2.172,0,0,1-3.435,0,4.317,4.317,0,0,0-3.423-1.689,4.386,4.386,0,0,0-1.23.177,2.162,2.162,0,0,1-2-.415,2.141,2.141,0,0,1-.782-1.6,4.32,4.32,0,0,0-2.876-3.958,2.171,2.171,0,0,1-1.061-3.266,4.32,4.32,0,0,0,0-4.892,2.171,2.171,0,0,1,1.061-3.267,4.32,4.32,0,0,0,2.876-3.958,2.171,2.171,0,0,1,2.779-2.019,4.32,4.32,0,0,0,4.653-1.512,2.172,2.172,0,0,1,3.435,0,4.32,4.32,0,0,0,4.653,1.512,2.171,2.171,0,0,1,2.779,2.019,4.32,4.32,0,0,0,2.876,3.958,2.171,2.171,0,0,1,1.061,3.266A4.32,4.32,0,0,0,322.054,183.17Z" transform="translate(-251.237 -140.673)"/><path d="M347.52,213.583a9.106,9.106,0,1,0,9.106,9.106A9.117,9.117,0,0,0,347.52,213.583Zm0,16.04a6.933,6.933,0,1,1,6.933-6.933A6.941,6.941,0,0,1,347.52,229.623Z" transform="translate(-289.789 -182.639)"/></g></g></g></svg>