<svg xmlns="http://www.w3.org/2000/svg" width="67.486" height="78.316" viewBox="0 0 67.486 78.316">
  <g id="proteccion" transform="translate(-0.501 -0.002)">
    <path id="Trazado_636042" data-name="Trazado 636042" d="M112.911,10.008l-19.751,4.4V28.917a30,30,0,0,0,19.751,28.2,30,30,0,0,0,19.751-28.2V14.411Zm0,0" transform="translate(-78.486 -8.475)" fill="#fcdd6d"/>
    <path id="Trazado_636043" data-name="Trazado 636043" d="M130.168,51.067l14.09-3.141,14.09,3.141v9.968a24.349,24.349,0,0,1-14.09,22.08,24.348,24.348,0,0,1-14.09-22.08Zm0,0" transform="translate(-109.833 -40.593)" fill="#e1f4fd"/>
    <path id="Trazado_636044" data-name="Trazado 636044" d="M36.985,250.285V239.679a10.761,10.761,0,0,0-2.2-6.515l-6.175-8.115a3.38,3.38,0,1,0-5.37,4.1l2.583,3.365-5.8-7.554a4.517,4.517,0,0,1-.935-2.752v-13.8a3.583,3.583,0,0,0-7.15-.338L10.3,225.34a4.519,4.519,0,0,0,.9,3.155l13.318,17.341v4.449Zm0,0" transform="translate(-8.286 -173.496)" fill="#e8c499"/>
    <path id="Trazado_636045" data-name="Trazado 636045" d="M269.378,250.286v-4.449L282.7,228.5a4.52,4.52,0,0,0,.9-3.155l-1.638-17.266a3.583,3.583,0,0,0-7.15.338v13.8a4.52,4.52,0,0,1-.935,2.752l-5.8,7.554,2.584-3.365a3.38,3.38,0,1,0-5.37-4.1l-6.175,8.115a10.76,10.76,0,0,0-2.2,6.515v10.607Zm0,0" transform="translate(-217.189 -173.496)" fill="#e8c499"/>
    <path id="Trazado_636046" data-name="Trazado 636046" d="M120.234,38.532a31.382,31.382,0,0,0,5.706-18.091V5.934a1.53,1.53,0,0,0-1.2-1.493L104.992.038a1.544,1.544,0,0,0-.666,0l-19.751,4.4a1.53,1.53,0,0,0-1.2,1.493V20.441a31.535,31.535,0,0,0,20.758,29.636,1.53,1.53,0,0,0,1.045,0,31.382,31.382,0,0,0,15.052-11.544Zm-15.575,8.473A28.476,28.476,0,0,1,86.438,20.441V7.16L104.659,3.1,122.881,7.16v13.28a28.476,28.476,0,0,1-18.222,26.565Zm0,0" transform="translate(-70.201)"/>
    <path id="Trazado_636047" data-name="Trazado 636047" d="M151.625,42.589a1.529,1.529,0,0,0-1.2-1.493l-14.089-3.141a1.547,1.547,0,0,0-.666,0L121.583,41.1a1.53,1.53,0,0,0,.666,2.986l13.757-3.066,12.56,2.8v8.742a22.821,22.821,0,0,1-12.56,20.382,22.827,22.827,0,0,1-12.489-18.566c-.027-.337-.046-.678-.057-1.013a1.53,1.53,0,1,0-3.057.105c.013.381.035.767.065,1.148a25.883,25.883,0,0,0,14.9,21.412,1.529,1.529,0,0,0,1.285,0,25.879,25.879,0,0,0,14.977-23.468V42.589Zm0,0" transform="translate(-101.548 -32.117)"/>
    <path id="Trazado_636048" data-name="Trazado 636048" d="M170.68,116.033a1.527,1.527,0,0,0,1.066.538q.051,0,.1,0a1.53,1.53,0,0,0,1.026-.395l11.09-10.033a1.53,1.53,0,0,0-2.052-2.269l-9.917,8.972-2.83-3.348a1.53,1.53,0,0,0-2.336,1.975Zm0,0" transform="translate(-140.58 -87.653)"/>
    <path id="Trazado_636049" data-name="Trazado 636049" d="M21.578,215.643a4.9,4.9,0,0,0-8.142.5l-.449-.586a3,3,0,0,1-.618-1.821v-13.8a5.113,5.113,0,0,0-10.2-.483L.528,216.717a6.039,6.039,0,0,0,1.206,4.232l13,16.93v3.929a1.53,1.53,0,0,0,3.059,0v-4.449a1.531,1.531,0,0,0-.317-.932L4.166,219.093a2.981,2.981,0,0,1-.593-2.088L5.211,199.74a2.053,2.053,0,0,1,4.1.194v13.8a6.077,6.077,0,0,0,1.252,3.684l3.2,4.17.014.02,2.584,3.365a1.53,1.53,0,1,0,2.426-1.864L16.2,219.732a1.859,1.859,0,0,1,.324-2.563,1.849,1.849,0,0,1,2.624.327l6.175,8.115A9.282,9.282,0,0,1,27.2,231.2v10.607a1.53,1.53,0,0,0,3.059,0V231.2a12.359,12.359,0,0,0-2.509-7.441Zm0,0" transform="translate(0 -165.019)"/>
    <path id="Trazado_636050" data-name="Trazado 636050" d="M276.86,216.717l-1.638-17.266a5.113,5.113,0,0,0-10.2.483v13.8a3.006,3.006,0,0,1-.618,1.821l-.45.586a4.905,4.905,0,0,0-8.141-.5l-6.175,8.115a12.36,12.36,0,0,0-2.51,7.442v10.606a1.53,1.53,0,0,0,3.059,0V231.2a9.282,9.282,0,0,1,1.885-5.589l6.175-8.115a1.85,1.85,0,0,1,2.948,2.236l-2.591,3.375a1.53,1.53,0,0,0,2.426,1.864l2.583-3.365.014-.018,3.2-4.171a6.083,6.083,0,0,0,1.251-3.684v-13.8a2.054,2.054,0,0,1,4.1-.194l1.638,17.266a2.978,2.978,0,0,1-.587,2.08L259.91,236.427a1.532,1.532,0,0,0-.316.932v4.448a1.53,1.53,0,0,0,3.059,0v-3.929l13.007-16.937a6.036,6.036,0,0,0,1.2-4.224Zm0,0" transform="translate(-208.901 -165.019)"/>
    <path id="Trazado_636051" data-name="Trazado 636051" d="M121.089,96.585a1.53,1.53,0,1,0-.572-1.834,1.543,1.543,0,0,0,.572,1.834Zm0,0" transform="translate(-101.57 -79.436)"/>
  </g>
</svg>
