<svg xmlns="http://www.w3.org/2000/svg" xmlns:xlink="http://www.w3.org/1999/xlink" width="91" height="81" viewBox="0 0 91 81"><defs><clipPath id="a"><rect width="91" height="81" transform="translate(-3551 -6996)" fill="#fff" stroke="#707070" stroke-width="1"/></clipPath></defs><g transform="translate(3551 6996)" clip-path="url(#a)"><g transform="translate(-3541.427 -6991.437)"><g transform="translate(1.123 1.12)"><path d="M195.462,257.908v-2.623h-2.08a9.756,9.756,0,0,0-.642-2.427l1.794-1.035-1.31-2.272-1.8,1.039a9.864,9.864,0,0,0-1.774-1.772l1.041-1.8-2.271-1.31-1.036,1.795a9.816,9.816,0,0,0-2.425-.643V244.78h-2.624v2.08a9.783,9.783,0,0,0-2.426.642l-1.035-1.795-2.272,1.311,1.04,1.8a9.822,9.822,0,0,0-1.773,1.773l-1.8-1.041-1.312,2.272,1.8,1.035a9.794,9.794,0,0,0-.642,2.427h-2.08v2.623h2.08a9.785,9.785,0,0,0,.642,2.426l-1.8,1.036,1.312,2.271,1.8-1.041a9.815,9.815,0,0,0,1.772,1.775l-1.04,1.8,2.271,1.309,1.036-1.794a9.741,9.741,0,0,0,2.425.642v2.08h2.623v-2.08a9.737,9.737,0,0,0,2.425-.642l1.037,1.793,2.272-1.309-1.04-1.8a9.792,9.792,0,0,0,1.772-1.773l1.8,1.041,1.312-2.271-1.8-1.038a9.712,9.712,0,0,0,.642-2.424Zm-11.817,3.424a4.736,4.736,0,1,1,4.736-4.736,4.736,4.736,0,0,1-4.736,4.736Z" transform="translate(-148.828 -211.538)" fill="#bdd7f4"/><path d="M203.456,130.8l-4.772-1.38h-5.412L188.5,130.8a3.219,3.219,0,0,0-2.325,3.093v4.846h19.606V133.9a3.22,3.22,0,0,0-2.325-3.093Z" transform="translate(-161.161 -112.376)" fill="#f9b534"/><path d="M239.193,97.242a3.861,3.861,0,0,1-2.1-1.04,4.7,4.7,0,0,1-.6-.63v4.759a2.923,2.923,0,0,0,2.834,2.269,2.556,2.556,0,0,0,2.591-2.269V95.555A4.382,4.382,0,0,1,239.193,97.242Z" transform="translate(-204.412 -83.263)" fill="#fcd3c4"/><path d="M239.2,99.321c1.536-.557,2.475-1.2,2.712-1.721v-2.05a4.382,4.382,0,0,1-2.721,1.687,3.861,3.861,0,0,1-2.1-1.04,4.7,4.7,0,0,1-.6-.63v4.759a3.318,3.318,0,0,0,.835,1.482A2.442,2.442,0,0,1,239.2,99.321Z" transform="translate(-204.412 -83.259)" fill="#ffc7b5"/><path d="M230.837,40.969a3.021,3.021,0,0,1-2,.8,5.456,5.456,0,0,1-.738-.057,5.68,5.68,0,0,1-2.151-.737l-1.19-.8-.492,1.349a5.827,5.827,0,0,1-.606,1.06v3.674c0,2.487,2.92,4.5,4.5,4.5s4.522-2.016,4.522-4.5V41.1a1.414,1.414,0,0,0-1-.411A1.466,1.466,0,0,0,230.837,40.969Z" transform="translate(-193.385 -35.654)" fill="#fcd3c4"/><path d="M220.18,8.181a2.364,2.364,0,0,1-1.961.849C216.881,8.763,215.878,8,213.24,8c-1.957,0-4.869.462-5.514,3.461a5.1,5.1,0,0,0,2.143,5.1,2.675,2.675,0,0,0,.649-.616,7.162,7.162,0,0,0,1.013-1.69,6.754,6.754,0,0,0,2.625.918,4.123,4.123,0,0,0,3.538-.936c.788-.559,1.2,2.324,1.2,2.324a9.237,9.237,0,0,0,1.927-2.257,5.57,5.57,0,0,0-.643-6.118Z" transform="translate(-179.591 -8)" fill="#56585e"/><path d="M25.28,439l-4.771-1.38H15.1L10.325,439A3.22,3.22,0,0,0,8,442.091v4.847H27.606v-4.847A3.219,3.219,0,0,0,25.281,439Z" transform="translate(-8 -377.303)" fill="#5f913f"/><path d="M61.017,405.438a3.862,3.862,0,0,1-2.1-1.04,4.706,4.706,0,0,1-.6-.63v4.76a2.923,2.923,0,0,0,2.834,2.269,2.556,2.556,0,0,0,2.59-2.269v-4.777A4.383,4.383,0,0,1,61.017,405.438Z" transform="translate(-51.25 -348.19)" fill="#fcd3c4"/><path d="M61.026,407.514c1.536-.557,2.475-1.2,2.712-1.721v-2.05a4.383,4.383,0,0,1-2.721,1.687,3.862,3.862,0,0,1-2.1-1.04,4.709,4.709,0,0,1-.6-.63v4.76A3.318,3.318,0,0,0,59.149,410,2.443,2.443,0,0,1,61.026,407.514Z" transform="translate(-51.25 -348.184)" fill="#ffc7b5"/><path d="M52.658,349.169a3.021,3.021,0,0,1-2,.8,5.462,5.462,0,0,1-.738-.056,5.683,5.683,0,0,1-2.151-.737l-1.19-.8-.493,1.348a5.806,5.806,0,0,1-.606,1.06v3.673c0,2.487,2.92,4.5,4.5,4.5s4.522-2.016,4.522-4.5V349.3a1.414,1.414,0,0,0-1-.411A1.466,1.466,0,0,0,52.658,349.169Z" transform="translate(-40.221 -300.584)" fill="#fcd3c4"/><path d="M42,316.377a2.364,2.364,0,0,1-1.961.849c-1.337-.267-2.341-1.03-4.979-1.03-1.957,0-4.868.462-5.514,3.461a5.1,5.1,0,0,0,2.143,5.1,2.674,2.674,0,0,0,.649-.616,7.159,7.159,0,0,0,1.012-1.69,6.753,6.753,0,0,0,2.625.918,4.124,4.124,0,0,0,3.538-.936c.788-.559,1.2,2.324,1.2,2.324a9.241,9.241,0,0,0,1.927-2.257A5.57,5.57,0,0,0,42,316.377Z" transform="translate(-26.429 -272.927)" fill="#56585e"/><path d="M381.44,439l-4.772-1.38h-5.411L366.485,439a3.22,3.22,0,0,0-2.325,3.093v4.847h19.606v-4.847A3.219,3.219,0,0,0,381.441,439Z" transform="translate(-314.158 -377.303)" fill="#f7685f"/><path d="M417.177,405.438a3.862,3.862,0,0,1-2.1-1.04,4.7,4.7,0,0,1-.6-.63v4.76a2.923,2.923,0,0,0,2.834,2.269,2.556,2.556,0,0,0,2.591-2.269v-4.777A4.381,4.381,0,0,1,417.177,405.438Z" transform="translate(-357.408 -348.19)" fill="#fcd3c4"/><path d="M417.186,407.514c1.536-.557,2.475-1.2,2.712-1.721v-2.05a4.383,4.383,0,0,1-2.721,1.687,3.862,3.862,0,0,1-2.1-1.04,4.7,4.7,0,0,1-.6-.63v4.76a3.318,3.318,0,0,0,.835,1.482A2.443,2.443,0,0,1,417.186,407.514Z" transform="translate(-357.408 -348.184)" fill="#ffc7b5"/><path d="M408.821,349.169a3.021,3.021,0,0,1-2,.8,5.461,5.461,0,0,1-.738-.056,5.681,5.681,0,0,1-2.151-.737l-1.191-.8-.492,1.349a5.825,5.825,0,0,1-.606,1.06v3.674c0,2.487,2.92,4.5,4.5,4.5s4.522-2.016,4.522-4.5V349.3a1.415,1.415,0,0,0-1-.411A1.467,1.467,0,0,0,408.821,349.169Z" transform="translate(-346.382 -300.584)" fill="#fcd3c4"/><path d="M398.164,316.377a2.364,2.364,0,0,1-1.961.849c-1.337-.267-2.341-1.03-4.979-1.03-1.957,0-4.868.462-5.514,3.461a5.1,5.1,0,0,0,2.143,5.1,2.673,2.673,0,0,0,.649-.616,7.16,7.16,0,0,0,1.012-1.69,6.753,6.753,0,0,0,2.624.918,4.124,4.124,0,0,0,3.538-.936c.788-.559,1.2,2.324,1.2,2.324a9.238,9.238,0,0,0,1.927-2.257A5.57,5.57,0,0,0,398.164,316.377Z" transform="translate(-332.587 -272.927)" fill="#56585e"/></g><g transform="translate(0 -0.004)"><path d="M116.14,223.892a1.121,1.121,0,1,1,.56.152A1.122,1.122,0,0,1,116.14,223.892Zm2.527-4.376a1.124,1.124,0,1,1,.56.15A1.123,1.123,0,0,1,118.667,219.516Zm2.527-4.377a1.124,1.124,0,1,1,.56.15,1.112,1.112,0,0,1-.56-.15Z" transform="translate(-99.352 -183.132)"/><path d="M354.151,225.515a1.124,1.124,0,1,1,.973.562A1.123,1.123,0,0,1,354.151,225.515Zm-2.527-4.377a1.124,1.124,0,1,1,.973.562A1.123,1.123,0,0,1,351.624,221.137Zm-2.527-4.376a1.119,1.119,0,1,1,.973.562,1.123,1.123,0,0,1-.973-.562Z" transform="translate(-299.957 -184.88)"/><path d="M195.147,450.623a1.123,1.123,0,1,1,1.123,1.123A1.123,1.123,0,0,1,195.147,450.623Zm-5.054,0a1.123,1.123,0,1,1,1.123,1.123A1.123,1.123,0,0,1,190.092,450.623Zm-5.054,0a1.123,1.123,0,1,1,1.123,1.123A1.123,1.123,0,0,1,185.038,450.623Zm-5.054,0a1.123,1.123,0,1,1,1.123,1.123A1.123,1.123,0,0,1,179.984,450.623Zm-5.054,0a1.123,1.123,0,1,1,1.123,1.123A1.123,1.123,0,0,1,174.93,450.623Z" transform="translate(-150.371 -386.393)"/><path d="M178.075,262.66h-2.623a1.123,1.123,0,0,1-1.123-1.123V260.4q-.4-.091-.8-.211l-.568.984a1.123,1.123,0,0,1-1.534.411l-2.271-1.309a1.123,1.123,0,0,1-.412-1.535l.572-.99q-.3-.281-.582-.583l-.99.572a1.123,1.123,0,0,1-1.534-.411l-1.312-2.27a1.123,1.123,0,0,1,.411-1.534l.985-.568q-.12-.392-.211-.8h-1.14a1.123,1.123,0,0,1-1.123-1.123v-2.623a1.123,1.123,0,0,1,1.123-1.123h1.14q.091-.4.211-.8l-.985-.568a1.123,1.123,0,0,1-.412-1.535l1.312-2.272a1.123,1.123,0,0,1,1.535-.411l.989.572q.28-.3.582-.582l-.572-.991a1.123,1.123,0,0,1,.411-1.534l2.272-1.311a1.123,1.123,0,0,1,1.534.411l.568.984q.391-.119.8-.21V237.9a1.123,1.123,0,0,1,1.123-1.123h2.623A1.123,1.123,0,0,1,179.2,237.9v1.14q.405.091.8.211l.569-.985a1.123,1.123,0,0,1,1.534-.411l2.272,1.311a1.123,1.123,0,0,1,.411,1.535l-.572.99q.3.279.581.581l.991-.572a1.123,1.123,0,0,1,1.534.411l1.31,2.272a1.123,1.123,0,0,1-.412,1.534l-.983.567q.12.393.211.8h1.14a1.123,1.123,0,0,1,1.123,1.123v2.623a1.123,1.123,0,0,1-1.123,1.123h-1.14q-.091.4-.211.8l.986.57a1.123,1.123,0,0,1,.411,1.534l-1.312,2.271a1.123,1.123,0,0,1-1.535.411l-.989-.572q-.28.3-.582.582l.572.992a1.123,1.123,0,0,1-.412,1.534l-2.272,1.309a1.123,1.123,0,0,1-1.533-.411l-.569-.984q-.392.12-.8.211v1.141a1.123,1.123,0,0,1-1.123,1.122Zm-1.5-2.246h.377v-.957a1.123,1.123,0,0,1,.974-1.113,8.631,8.631,0,0,0,2.146-.567,1.123,1.123,0,0,1,1.4.477l.475.822.326-.188-.479-.83a1.123,1.123,0,0,1,.287-1.452,8.674,8.674,0,0,0,1.569-1.57,1.123,1.123,0,0,1,1.452-.287l.828.479.188-.326-.823-.476a1.123,1.123,0,0,1-.476-1.4,8.593,8.593,0,0,0,.567-2.143,1.123,1.123,0,0,1,1.113-.975h.957v-.377H186.5a1.123,1.123,0,0,1-1.113-.975,8.629,8.629,0,0,0-.568-2.148,1.123,1.123,0,0,1,.477-1.4l.821-.474-.188-.326-.828.477a1.123,1.123,0,0,1-1.449-.284,8.738,8.738,0,0,0-1.572-1.57,1.123,1.123,0,0,1-.287-1.452l.479-.829-.326-.188-.475.822a1.123,1.123,0,0,1-1.4.477,8.708,8.708,0,0,0-2.148-.568,1.123,1.123,0,0,1-.972-1.113v-.955h-.377v.956a1.123,1.123,0,0,1-.973,1.113,8.664,8.664,0,0,0-2.148.567,1.123,1.123,0,0,1-1.4-.477l-.474-.822-.326.188.479.829a1.123,1.123,0,0,1-.287,1.451,8.7,8.7,0,0,0-1.571,1.57,1.123,1.123,0,0,1-1.451.285l-.828-.478-.188.325.821.474a1.123,1.123,0,0,1,.478,1.4,8.688,8.688,0,0,0-.568,2.149,1.123,1.123,0,0,1-1.113.974h-.957v.377h.957a1.123,1.123,0,0,1,1.113.974,8.674,8.674,0,0,0,.568,2.148,1.123,1.123,0,0,1-.477,1.4l-.822.474.188.325.83-.479a1.123,1.123,0,0,1,1.452.288,8.7,8.7,0,0,0,1.57,1.572,1.123,1.123,0,0,1,.285,1.45l-.477.827.325.187.475-.822a1.123,1.123,0,0,1,1.4-.477,8.633,8.633,0,0,0,2.146.567,1.123,1.123,0,0,1,.974,1.113Zm.189-4.835a5.859,5.859,0,1,1,5.859-5.859A5.86,5.86,0,0,1,176.763,255.578Zm0-9.473a3.613,3.613,0,1,0,3.613,3.613,3.613,3.613,0,0,0-3.613-3.613Z" transform="translate(-140.822 -203.537)"/><path d="M196.891,18.468l-3.961-1.145V15.5a5.393,5.393,0,0,0,1.78-3.785V10.173a8.678,8.678,0,0,0,1.826-2.288,6.663,6.663,0,0,0-.851-7.359,1.116,1.116,0,0,0-1.664.042c-.172.2-.61.536-.89.48a8.433,8.433,0,0,1-1.084-.321A11.325,11.325,0,0,0,187.933,0c-2.12,0-5.8.565-6.613,4.347a6.013,6.013,0,0,0,2.118,5.878v1.5a5.422,5.422,0,0,0,1.821,3.829v1.779l-3.948,1.142a4.363,4.363,0,0,0-3.136,4.172v4.846a1.123,1.123,0,0,0,2.246,0V22.639a2.106,2.106,0,0,1,1.514-2.014l3.791-1.1a3.882,3.882,0,0,0,3.49,2.036,3.513,3.513,0,0,0,3.33-2.016l3.72,1.076a2.106,2.106,0,0,1,1.514,2.014v4.847a1.123,1.123,0,0,0,2.246,0V22.639A4.363,4.363,0,0,0,196.891,18.468Zm-9.93-4.408a3.306,3.306,0,0,1-1.276-2.341v-1.51a4.094,4.094,0,0,0,.417-.465,10.556,10.556,0,0,0,.6-.874,8.353,8.353,0,0,0,1.987.531,4.986,4.986,0,0,0,3.56-.615,8.817,8.817,0,0,1,.211.981v1.951c0,1.746-2.337,3.38-3.4,3.38a3.857,3.857,0,0,1-2.1-1.039Zm-3.444-9.242c.137-.637.554-2.574,4.416-2.574a9.125,9.125,0,0,1,3.385.608,10.43,10.43,0,0,0,1.375.4,2.819,2.819,0,0,0,1.9-.321,4.672,4.672,0,0,1-.1,4.021,2.785,2.785,0,0,1-.325.505,2.038,2.038,0,0,0-1.027-1.185,1.418,1.418,0,0,0-1.406.163,3.062,3.062,0,0,1-2.734.74,5.763,5.763,0,0,1-2.151-.737,1.118,1.118,0,0,0-1.68.538,5.925,5.925,0,0,1-.671,1.157A3.67,3.67,0,0,1,183.516,4.817Zm5.7,14.5a1.73,1.73,0,0,1-1.706-1.275c0-.013,0-.026,0-.038v-.995a4.318,4.318,0,0,0,1.558.334,4.389,4.389,0,0,0,1.619-.356V18.1a1.391,1.391,0,0,1-1.467,1.217Z" transform="translate(-153.16 0.004)"/><path d="M18.716,326.667l-3.96-1.146V323.7a5.393,5.393,0,0,0,1.78-3.785v-1.545a8.678,8.678,0,0,0,1.826-2.288,6.663,6.663,0,0,0-.851-7.359,1.116,1.116,0,0,0-1.664.042c-.172.2-.61.536-.891.48a8.456,8.456,0,0,1-1.083-.323,11.326,11.326,0,0,0-4.116-.728c-2.12,0-5.8.565-6.613,4.347a6.013,6.013,0,0,0,2.118,5.878v1.5a5.421,5.421,0,0,0,1.821,3.829v1.779l-3.948,1.142A4.363,4.363,0,0,0,0,330.838v4.847a1.123,1.123,0,1,0,2.246,0v-4.847a2.106,2.106,0,0,1,1.514-2.014l3.791-1.1a3.882,3.882,0,0,0,3.49,2.036,3.513,3.513,0,0,0,3.33-2.016l3.72,1.076a2.106,2.106,0,0,1,1.514,2.014v4.847a1.123,1.123,0,1,0,2.246,0v-4.847A4.363,4.363,0,0,0,18.716,326.667Zm-9.93-4.408a3.3,3.3,0,0,1-1.276-2.34v-1.51a4.082,4.082,0,0,0,.417-.465,10.533,10.533,0,0,0,.6-.874,8.353,8.353,0,0,0,1.987.531,4.986,4.986,0,0,0,3.56-.615,8.824,8.824,0,0,1,.211.981v1.951c0,1.746-2.337,3.38-3.4,3.38a3.856,3.856,0,0,1-2.1-1.039Zm-3.444-9.242c.137-.636.554-2.574,4.416-2.574a9.128,9.128,0,0,1,3.384.607,10.423,10.423,0,0,0,1.375.4,2.818,2.818,0,0,0,1.9-.32,4.672,4.672,0,0,1-.1,4.021,2.782,2.782,0,0,1-.325.505,2.039,2.039,0,0,0-1.027-1.185,1.418,1.418,0,0,0-1.406.163,3.062,3.062,0,0,1-2.734.74,5.762,5.762,0,0,1-2.151-.737,1.118,1.118,0,0,0-1.68.538,5.918,5.918,0,0,1-.672,1.157,3.675,3.675,0,0,1-.982-3.317Zm5.7,14.5a1.73,1.73,0,0,1-1.705-1.275c0-.013,0-.026-.005-.038v-.995a4.32,4.32,0,0,0,1.559.334,4.391,4.391,0,0,0,1.619-.356V326.3a1.394,1.394,0,0,1-1.468,1.218Z" transform="translate(0 -264.926)"/><path d="M374.877,326.654l-3.961-1.146V323.69a5.393,5.393,0,0,0,1.78-3.785v-1.545a8.681,8.681,0,0,0,1.826-2.288,6.663,6.663,0,0,0-.851-7.359,1.116,1.116,0,0,0-1.664.042c-.171.2-.61.536-.89.48a8.459,8.459,0,0,1-1.084-.323,11.324,11.324,0,0,0-4.115-.73c-2.12,0-5.8.565-6.612,4.347a6.013,6.013,0,0,0,2.118,5.878v1.5a5.422,5.422,0,0,0,1.821,3.829v1.779l-3.948,1.143a4.363,4.363,0,0,0-3.136,4.172v4.847a1.123,1.123,0,0,0,2.246,0v-4.847a2.106,2.106,0,0,1,1.514-2.014l3.791-1.1a3.882,3.882,0,0,0,3.49,2.036,3.513,3.513,0,0,0,3.33-2.016l3.72,1.076a2.106,2.106,0,0,1,1.514,2.014v4.847a1.123,1.123,0,1,0,2.246,0v-4.847A4.363,4.363,0,0,0,374.877,326.654Zm-9.93-4.408a3.3,3.3,0,0,1-1.276-2.341v-1.51a4.076,4.076,0,0,0,.417-.465,10.526,10.526,0,0,0,.6-.874,8.351,8.351,0,0,0,1.986.531,4.986,4.986,0,0,0,3.56-.615,8.817,8.817,0,0,1,.211.981V319.9c0,1.746-2.337,3.38-3.4,3.38a3.856,3.856,0,0,1-2.1-1.039ZM361.5,313c.137-.637.554-2.574,4.416-2.574a9.128,9.128,0,0,1,3.384.607,10.4,10.4,0,0,0,1.375.4,2.818,2.818,0,0,0,1.9-.32,4.671,4.671,0,0,1-.1,4.021,2.764,2.764,0,0,1-.325.505,2.038,2.038,0,0,0-1.027-1.185,1.418,1.418,0,0,0-1.406.163,3.062,3.062,0,0,1-2.734.74,5.761,5.761,0,0,1-2.151-.737,1.118,1.118,0,0,0-1.68.538,5.939,5.939,0,0,1-.671,1.157A3.673,3.673,0,0,1,361.5,313Zm5.7,14.5a1.73,1.73,0,0,1-1.706-1.275c0-.013,0-.026-.005-.038V325.2a4.318,4.318,0,0,0,1.559.334,4.39,4.39,0,0,0,1.619-.356v1.112a1.393,1.393,0,0,1-1.467,1.217Z" transform="translate(-306.158 -264.914)"/></g></g></g></svg>