<svg xmlns="http://www.w3.org/2000/svg" width="295" height="38" viewBox="0 0 295 38"><g transform="translate(-180 -15649)"><g transform="translate(0 14128)"><path d="M0,0H276a19,19,0,0,1,19,19v0a19,19,0,0,1-19,19H0a0,0,0,0,1,0,0V0A0,0,0,0,1,0,0Z" transform="translate(180 1521)" fill="#40327b"/><path d="M0,29.662H17.684A18.976,18.976,0,0,1,38,17.3V.084Q36.771,0,35.521,0A36.1,36.1,0,0,0,0,29.662Z" transform="translate(209.662 1521) rotate(90)" fill="#583ae2"/><g transform="translate(196 1530)" fill="none" stroke="#2ff980" stroke-width="5"><ellipse cx="12" cy="12.5" rx="12" ry="12.5" stroke="none"/><ellipse cx="12" cy="12.5" rx="9.5" ry="10" fill="none"/></g><circle cx="2.25" cy="2.25" r="2.25" transform="translate(193.331 1526)" fill="#2ff980"/></g></g></svg>