<svg xmlns="http://www.w3.org/2000/svg" xmlns:xlink="http://www.w3.org/1999/xlink" width="91" height="81" viewBox="0 0 91 81"><defs><clipPath id="a"><rect width="91" height="81" transform="translate(-3551 -6996)" fill="#fff" stroke="#707070" stroke-width="1"/></clipPath></defs><g transform="translate(3551 6996)" clip-path="url(#a)"><g transform="translate(-3545.285 -7018.115)"><g transform="translate(1.166 28.292)"><g transform="translate(36.226)"><path d="M318.078,46.9a12.278,12.278,0,1,0-24.556,0s0,18,0,20.815h24.565c0-2.812,0-20.815,0-20.815Z" transform="translate(-285.294 -34.626)" fill="#756e78"/><g transform="translate(18.371)"><path d="M373.224,46.9a12.269,12.269,0,0,0-14.413-12.089,5.728,5.728,0,0,1,4.264,5.537V67.718h10.153C373.228,64.906,373.224,46.9,373.224,46.9Z" transform="translate(-358.811 -34.625)" fill="#665e66"/></g><g transform="translate(27.866 12.027)"><path d="M419.9,112.013v6.956h4.106a1.749,1.749,0,0,0,1.749-1.749v-3.459a1.749,1.749,0,0,0-1.749-1.749H419.9Z" transform="translate(-419.903 -112.013)" fill="#9bc4f9"/></g><g transform="translate(7.293 12.027)"><path d="M293.379,112.013v6.956h-4.106a1.749,1.749,0,0,1-1.749-1.749v-3.459a1.749,1.749,0,0,1,1.749-1.749h4.106Z" transform="translate(-287.524 -112.013)" fill="#9bc4f9"/></g><g transform="translate(0 20.985)"><path d="M329.526,185.322l-2.881-6.334c-.03-.006-.058-.014-.087-.021a2.5,2.5,0,0,1-1.944-2.438v-6.876h-9.58v6.876a2.5,2.5,0,0,1-1.944,2.438c-.029.007-.057.015-.087.021l-2.881,6.334Z" transform="translate(-299.318 -169.653)" fill="#ffddce"/><path d="M271.353,235.229l-.065.058a12.977,12.977,0,0,1-20.363,0l-.073-.057A13.323,13.323,0,0,0,240.6,248.194v8.088h41.013v-8.088a13.322,13.322,0,0,0-10.259-12.965Z" transform="translate(-240.599 -225.038)" fill="#dbe8f9"/><path d="M403.906,221.569l-.379-2.113a2.506,2.506,0,0,0,1.789,1.574c.029.007.057.015.087.021l2.881.739a13.322,13.322,0,0,1,10.8,13.082v8.088H403.372A53.239,53.239,0,0,0,403.906,221.569Z" transform="translate(-378.075 -211.716)" fill="#7fb2f9"/><path d="M409.125,221.79l-2.881-.739c-.03-.006-.058-.014-.087-.021a2.506,2.506,0,0,1-1.789-1.574l.379,2.113c.2,1.089.352,2.183.479,3.279a13.312,13.312,0,0,1,4.55,10.025v8.088H419.93v-8.088A13.322,13.322,0,0,0,409.125,221.79Z" transform="translate(-378.917 -211.716)" fill="#60a0f7"/><path d="M255.783,221.569l.379-2.113a2.506,2.506,0,0,1-1.789,1.574c-.029.007-.057.015-.087.021l-2.881.739a13.322,13.322,0,0,0-10.8,13.082v8.088h15.716A53.238,53.238,0,0,1,255.783,221.569Z" transform="translate(-240.6 -211.716)" fill="#7fb2f9"/><path d="M436.176,292.42h3.73a1.243,1.243,0,0,0,1.243-1.243v-1.821a1.243,1.243,0,0,0-1.243-1.243h-3.73a1.243,1.243,0,0,0-1.243,1.243v1.821A1.243,1.243,0,0,0,436.176,292.42Z" transform="translate(-404.732 -269.703)" fill="#ffd064"/></g><g transform="translate(11.749 6.818)"><g transform="translate(0 0)"><path d="M333.713,83.706a8.217,8.217,0,0,1-4.129-4.887.464.464,0,0,0-.849-.081c-1.9,3.424-5.69,4.968-10.053,4.968H316.2v5.546a8.759,8.759,0,0,0,17.515,0Z" transform="translate(-316.198 -78.497)" fill="#ffddce"/></g><path d="M359.167,78.819a.464.464,0,0,0-.849-.081,8.653,8.653,0,0,1-1.651,2.118v8.4a8.763,8.763,0,0,1-5.443,7.976A8.76,8.76,0,0,0,363.3,89.252V83.706A8.216,8.216,0,0,1,359.167,78.819Z" transform="translate(-345.781 -78.497)" fill="#ffcbbe"/><g transform="translate(10.252 14.582)"><path d="M386.658,176H384a1.836,1.836,0,1,1,0-3.671h2.657a1.836,1.836,0,1,1,0,3.671Z" transform="translate(-382.165 -172.328)" fill="#db636e"/></g></g></g><path d="M116.933,381.868h57.082a3.149,3.149,0,0,0,3.149-3.149V364.294H116.933Z" transform="translate(-99.926 -313.06)" fill="#eaf2ff"/><path d="M422.051,364.294v14.424a3.149,3.149,0,0,1-3.149,3.149h10.153a3.149,3.149,0,0,0,3.149-3.149V364.294Z" transform="translate(-354.966 -313.06)" fill="#dbe8f9"/><g transform="translate(0 13.085)"><g transform="translate(0 23.054)"><path d="M118.661,274.351v-7.19H108.653v7.19a2.617,2.617,0,0,1-2.032,2.549s.266,5.911,7.036,5.911,7.464-5.825,7.464-5.825l-.337-.065a2.617,2.617,0,0,1-2.123-2.57Z" transform="translate(-91.217 -267.161)" fill="#ffddce"/><path d="M48.592,352.756a3.789,3.789,0,0,0,3.789-3.789v-3.4a15.46,15.46,0,0,0-12.539-15.182l-2.437-.469a10.382,10.382,0,0,1-14.417-.006l-.084-.081c-.03.007-.06.016-.091.022l-2.775.534A15.46,15.46,0,0,0,7.5,345.564v3.4a3.789,3.789,0,0,0,3.789,3.789Z" transform="translate(-7.5 -320.087)" fill="#e07f84"/><g transform="translate(26.715 9.825)"><path d="M185.027,330.852l-2.437-.469a10.352,10.352,0,0,1-3.19,2.1,15.462,15.462,0,0,1,8.019,13.552v3.4a3.789,3.789,0,0,1-3.789,3.789h10.147a3.789,3.789,0,0,0,3.789-3.789v-3.4A15.46,15.46,0,0,0,185.027,330.852Z" transform="translate(-179.4 -330.383)" fill="#db636e"/></g></g><path d="M94.765,132.066a5.64,5.64,0,0,0,.462-3.243l-.011-.073a2.309,2.309,0,0,0-.68-1.626.865.865,0,0,1-.257-.611,3.087,3.087,0,0,0-2.061-2.865,1.048,1.048,0,0,1-.646-.7,2.535,2.535,0,0,0-2.291-1.787.867.867,0,0,1-.642-.36,2.631,2.631,0,0,0-2.143-1.066,2.727,2.727,0,0,0-.7.091,1.06,1.06,0,0,1-1.016-.256,2.867,2.867,0,0,0-2.248-.752h0a2.83,2.83,0,0,0-2.248.752,1.06,1.06,0,0,1-1.016.256,2.727,2.727,0,0,0-.7-.091A2.631,2.631,0,0,0,76.42,120.8a.865.865,0,0,1-.642.36,2.535,2.535,0,0,0-2.291,1.787,1.048,1.048,0,0,1-.646.7,3.087,3.087,0,0,0-2.061,2.865.865.865,0,0,1-.257.611,2.309,2.309,0,0,0-.68,1.626l-.011.073a5.643,5.643,0,0,0,.474,3.27,28.184,28.184,0,0,1,.757,3.744,6.345,6.345,0,0,0,.669,1.988,6.434,6.434,0,0,1,.727,2.227,9.516,9.516,0,0,0,3.159,6.048,10.313,10.313,0,0,0,13.907-.059,9.519,9.519,0,0,0,3.109-6.074,6.155,6.155,0,0,1,.718-2.211l.006-.012a6.361,6.361,0,0,0,.69-2.049,27.35,27.35,0,0,1,.718-3.629Z" transform="translate(-60.089 -118.821)" fill="#ffddce"/><path d="M138.189,128.822l-.011-.073a2.309,2.309,0,0,0-.68-1.626.865.865,0,0,1-.257-.611,3.087,3.087,0,0,0-2.061-2.865,1.048,1.048,0,0,1-.646-.7,2.536,2.536,0,0,0-2.291-1.787.867.867,0,0,1-.642-.36,2.631,2.631,0,0,0-2.143-1.066,2.727,2.727,0,0,0-.7.091,1.06,1.06,0,0,1-1.016-.256,2.866,2.866,0,0,0-2.248-.752h0a2.83,2.83,0,0,0-2.248.752,1.06,1.06,0,0,1-1.016.256,2.743,2.743,0,0,0-1.585.055,2.643,2.643,0,0,1,.77.446c.5.409.53.794,1.093.834a2.7,2.7,0,0,1,1.3.445c1.218.819.72,1.693,1.634,2.039a3.087,3.087,0,0,1,2.061,2.865c0,.762,1.011.647,1.014,3.167,0,2.018-.421.715-1.245,6.015-.3,1.948-1.194,2.375-1.414,4.271a9.518,9.518,0,0,1-3.109,6.075,11.413,11.413,0,0,1-2.116,1.48,10.382,10.382,0,0,0,4.911,1.247,10.581,10.581,0,0,0,6.942-2.727,9.519,9.519,0,0,0,3.109-6.075,6.155,6.155,0,0,1,.718-2.211l.007-.012a6.361,6.361,0,0,0,.69-2.049,27.248,27.248,0,0,1,.718-3.629A5.639,5.639,0,0,0,138.189,128.822Z" transform="translate(-103.05 -118.82)" fill="#ffcbbe"/><path d="M95.216,128.75a2.309,2.309,0,0,0-.68-1.626.865.865,0,0,1-.257-.611,3.087,3.087,0,0,0-2.061-2.865,1.048,1.048,0,0,1-.646-.7,2.536,2.536,0,0,0-2.291-1.787.866.866,0,0,1-.643-.36,2.631,2.631,0,0,0-2.143-1.066,2.727,2.727,0,0,0-.7.091,1.06,1.06,0,0,1-1.016-.256,2.866,2.866,0,0,0-2.248-.752h0a2.83,2.83,0,0,0-2.248.752,1.06,1.06,0,0,1-1.016.256,2.727,2.727,0,0,0-.7-.091A2.631,2.631,0,0,0,76.42,120.8a.867.867,0,0,1-.643.36,2.535,2.535,0,0,0-2.291,1.787,1.048,1.048,0,0,1-.646.7,3.087,3.087,0,0,0-2.061,2.865.865.865,0,0,1-.257.611,2.309,2.309,0,0,0-.68,1.626l-.011.073a5.643,5.643,0,0,0,.474,3.27,28.184,28.184,0,0,1,.757,3.744,6.349,6.349,0,0,0,.669,1.988,6.908,6.908,0,0,1,.425.963,5.7,5.7,0,0,0,1.945,2.69l.085.063a14.146,14.146,0,0,0,16.788-.061l.019-.014a5.59,5.59,0,0,0,1.914-2.7,6.577,6.577,0,0,1,.445-1.014l.007-.012a6.36,6.36,0,0,0,.69-2.049,27.252,27.252,0,0,1,.718-3.629,5.64,5.64,0,0,0,.462-3.243Z" transform="translate(-60.089 -118.82)" fill="#756e78"/><path d="M138.236,128.821l-.011-.073a2.309,2.309,0,0,0-.68-1.626.865.865,0,0,1-.257-.611,3.087,3.087,0,0,0-2.061-2.865,1.048,1.048,0,0,1-.646-.7,2.536,2.536,0,0,0-2.291-1.787.866.866,0,0,1-.643-.36,2.631,2.631,0,0,0-2.143-1.066,2.727,2.727,0,0,0-.7.091,1.06,1.06,0,0,1-1.016-.256,2.866,2.866,0,0,0-2.248-.752h0a2.83,2.83,0,0,0-2.248.752,1.06,1.06,0,0,1-1.016.256,2.743,2.743,0,0,0-1.585.055,2.643,2.643,0,0,1,.77.446c.5.409.53.794,1.093.834a2.7,2.7,0,0,1,1.3.445c1.218.819.72,1.693,1.634,2.039a3.087,3.087,0,0,1,2.061,2.865c0,.762,1.011.646,1.014,3.167,0,2.018-.421.716-1.245,6.015-.3,1.948-1.194,2.375-1.414,4.271a9.8,9.8,0,0,1-1.528,4.247c.4.034.8.054,1.225.057a14.083,14.083,0,0,0,8.38-2.79l.019-.014a5.59,5.59,0,0,0,1.915-2.7,6.576,6.576,0,0,1,.445-1.014l.007-.012a6.361,6.361,0,0,0,.69-2.049,27.254,27.254,0,0,1,.718-3.629,5.637,5.637,0,0,0,.462-3.242Z" transform="translate(-103.097 -118.819)" fill="#665e66"/></g></g><g transform="translate(0 27.127)"><g transform="translate(0 0)"><path d="M71.346,59.372c0-.017,0-1.156,0-11.715a2.9,2.9,0,0,0,.932-2.13V42.068a2.9,2.9,0,0,0-.954-2.15,13.441,13.441,0,0,0-26.85,0,2.9,2.9,0,0,0-.955,2.15v3.459a2.9,2.9,0,0,0,.934,2.132v3.669a1.165,1.165,0,0,0,1.165,1.166h0a1.166,1.166,0,0,0,1.166-1.165V48.441h1.565a9.9,9.9,0,0,0,3.593,5.23c-.026,2.474.063,2.556-.088,2.953-.386,1.016-1.121.752-5.073,1.866V56.777a1.166,1.166,0,0,0-1.165-1.166h0a1.165,1.165,0,0,0-1.166,1.165v2.6a14.514,14.514,0,0,0-8.224,13.061v1.837a16.594,16.594,0,0,0-2.5-.69l-2.775-.534a1.454,1.454,0,0,1-1.178-1.426v-.949a12.942,12.942,0,0,0,1.6-1.2,10.66,10.66,0,0,0,3.5-6.815,5.083,5.083,0,0,1,.592-1.8c1.11-2.051.915-4.309,1.445-5.753.858-1.852.962-4.708-.384-6.159a4.23,4.23,0,0,0-2.767-3.811,3.7,3.7,0,0,0-3.175-2.561,3.847,3.847,0,0,0-3.96-1.323,3.94,3.94,0,0,0-3.013-1.035,3.934,3.934,0,0,0-3.012,1.035,3.845,3.845,0,0,0-3.96,1.323,3.7,3.7,0,0,0-3.175,2.561,4.23,4.23,0,0,0-2.767,3.811c-1.369,1.475-1.239,4.341-.37,6.193.157.415.513,2.5.6,3.055.453,2.769,1.237,2.839,1.452,4.563a10.658,10.658,0,0,0,3.554,6.785,13,13,0,0,0,1.5,1.121v.961a1.444,1.444,0,0,1-1.127,1.413h0l-2.825.547a16.54,16.54,0,0,0-5.921,2.386A1.166,1.166,0,0,0,8.834,77.92a14.212,14.212,0,0,1,5.091-2.051l2.288-.44a11.486,11.486,0,0,0,7.648,2.9h0a11.487,11.487,0,0,0,7.559-2.818l1.863.359A14.314,14.314,0,0,1,44.881,89.907v3.4a2.627,2.627,0,0,1-2.624,2.624h-3.5V91.8a1.166,1.166,0,0,0-2.331,0v4.13H10.758V91.8a1.166,1.166,0,0,0-2.331,0v4.13H4.955A2.627,2.627,0,0,1,2.331,93.31v-3.4A14.19,14.19,0,0,1,5.161,81.37a1.166,1.166,0,0,0-1.869-1.393A16.5,16.5,0,0,0,0,89.907v3.4a4.961,4.961,0,0,0,4.955,4.955h70.3a4.32,4.32,0,0,0,4.315-4.315V72.433a14.514,14.514,0,0,0-8.224-13.061ZM14.329,47.294a2.227,2.227,0,0,0,1.357-1.472,1.369,1.369,0,0,1,1.252-.939,2.06,2.06,0,0,0,1.5-.841,1.512,1.512,0,0,1,1.6-.53,2.233,2.233,0,0,0,2.133-.552,1.711,1.711,0,0,1,1.431-.417,1.751,1.751,0,0,1,1.431.417,2.232,2.232,0,0,0,2.133.552l.014,0A1.705,1.705,0,0,1,29,44.3a2.021,2.021,0,0,0,1.067.552c.188.033,1.2.042,1.461.965a2.227,2.227,0,0,0,1.356,1.472,1.918,1.918,0,0,1,1.308,1.77,2.022,2.022,0,0,0,.593,1.435,4.048,4.048,0,0,1,0,3.631c-.626,1.343-.5,4-1.382,5.627-.723,1.336-.665,2.309-2.026,3.328l-.023.017a12.981,12.981,0,0,1-15.4.058l-.079-.058c-1.336-1-1.406-2.083-2.039-3.268-.829-1.553-.785-4.378-1.4-5.681-.679-1.439-.455-3.2-.008-3.653a2.021,2.021,0,0,0,.593-1.435,1.918,1.918,0,0,1,1.308-1.77Zm1.541,18.6a15.282,15.282,0,0,0,7.793,2.1h.022a15.268,15.268,0,0,0,7.676-2.1,7.907,7.907,0,0,1-1.529,1.83,9.161,9.161,0,0,1-12.376.053A7.914,7.914,0,0,1,15.87,65.889ZM18.6,74.35a3.757,3.757,0,0,0,1.156-2.543,11.23,11.23,0,0,0,7.693.007,3.782,3.782,0,0,0,1.383,2.734A9.173,9.173,0,0,1,18.6,74.35Zm58.635-1.917v5.927H73.064V76.016a1.166,1.166,0,0,0-2.331,0v2.345H64.322a54.256,54.256,0,0,0,.191-18.6c2.766.709,2.811.723,2.867.733A12.174,12.174,0,0,1,77.239,72.433ZM53.848,78.361a51.8,51.8,0,0,1-.806-13.594,14.19,14.19,0,0,0,9.714,0,51.8,51.8,0,0,1-.806,13.594ZM69.363,41.485a.584.584,0,0,1,.583.583v3.459a.584.584,0,0,1-.583.583H67.814c.016-.43,0,.123.007-4.625ZM66.7,50.5c-.014-.037-.026-.074-.04-.11a9.9,9.9,0,0,0,.784-1.95h1.567v.671A1.417,1.417,0,0,1,67.6,50.5Zm-2.146,1.027a.671.671,0,0,1-.67.67H61.228a.67.67,0,1,1,0-1.34h2.657A.671.671,0,0,1,64.555,51.529Zm.38,5.938.016,0a1.364,1.364,0,0,1-1.1-1.316V54.53h.032a3,3,0,0,0,2.7-1.7H67.6a3.726,3.726,0,0,0,1.416-.278v5.937c-.016,0-4.063-1.022-4.079-1.024ZM57.9,29.458a11.137,11.137,0,0,1,11.018,9.7H66.952a7.031,7.031,0,0,1-3.315-4.078,1.631,1.631,0,0,0-2.977-.291c-2.767,4.979-8.826,4.369-13.779,4.369A11.136,11.136,0,0,1,57.9,29.458ZM46.433,46.11a.584.584,0,0,1-.583-.583V42.068a.584.584,0,0,1,.583-.583h1.542c.007,5.229-.01,4.112.009,4.625Zm3.873-.253V41.485c.556-.091,7.727.776,11.633-4.4A9.328,9.328,0,0,0,65.49,41v4.853a7.588,7.588,0,0,1-.6,2.846,2.981,2.981,0,0,0-1-.175H61.228a3,3,0,0,0-2.438,4.745,7.573,7.573,0,0,1-8.484-7.415Zm11.217,9.114c.046,1.393.8,5.717,1,7.381a11.816,11.816,0,0,1-9.248,0c.2-1.659.954-5.99,1-7.376A9.927,9.927,0,0,0,61.522,54.971ZM38.557,75.319V72.433A12.173,12.173,0,0,1,48.417,60.5c.056-.011.1-.024,2.867-.733a54.257,54.257,0,0,0,.191,18.6H45.063V76.016a1.166,1.166,0,0,0-2.331,0v2.345h-.194a16.644,16.644,0,0,0-3.98-3.042ZM77.239,93.951a1.984,1.984,0,0,1-1.984,1.984h-28.8a4.924,4.924,0,0,0,.755-2.624v-3.4a16.561,16.561,0,0,0-2.427-8.632l-.254-.4a.121.121,0,0,1,.1-.187H77.239Z" transform="translate(0 -27.127)"/><path d="M427.433,283.021v1.821a2.412,2.412,0,0,0,2.409,2.409h3.731a2.412,2.412,0,0,0,2.409-2.409v-1.821a2.412,2.412,0,0,0-2.409-2.409h-3.731A2.412,2.412,0,0,0,427.433,283.021Zm2.331,0a.078.078,0,0,1,.078-.078h3.731a.078.078,0,0,1,.078.078v1.821a.078.078,0,0,1-.078.078h-3.731a.078.078,0,0,1-.078-.078Z" transform="translate(-361.006 -241.218)"/></g></g></g></g></svg>