<svg xmlns="http://www.w3.org/2000/svg" xmlns:xlink="http://www.w3.org/1999/xlink" width="91" height="81" viewBox="0 0 91 81"><defs><clipPath id="a"><rect width="91" height="81" transform="translate(-3551 -6996)" fill="#fff" stroke="#707070" stroke-width="1"/></clipPath></defs><g transform="translate(3551 6996)" clip-path="url(#a)"><g transform="translate(-3542.504 -6992.08)"><g transform="translate(1.567 1.072)"><path d="M7.995,138.619H19.37v26.86H8Z" transform="translate(-7.995 -119.883)" fill="#99e6fc" fill-rule="evenodd"/><path d="M121.426,101.618H132.8v32.147H121.426Z" transform="translate(-105.218 -88.169)" fill="#ffd15b" fill-rule="evenodd"/><path d="M234.886,7.5h11.379V53.1H234.886Z" transform="translate(-202.465 -7.5)" fill="#9be69d" fill-rule="evenodd"/><path d="M351.848,82.6h11.379v34.865H351.848Z" transform="translate(-302.715 -71.867)" fill="#fd4755" fill-rule="evenodd"/><path d="M67.17,138.619h2.919v26.86H67.17Z" transform="translate(-58.714 -119.883)" fill="#62dbfb" fill-rule="evenodd"/><path d="M180.6,101.618h2.923v32.147H180.6Z" transform="translate(-155.937 -88.169)" fill="#ffc344" fill-rule="evenodd"/><path d="M294.061,7.5V40.864a11.8,11.8,0,0,1,2.923-4.47V7.5Z" transform="translate(-253.185 -7.5)" fill="#6fd7a3" fill-rule="evenodd"/><path d="M411.023,82.6V98.777a11.868,11.868,0,0,1,2.923,2.136V82.6Z" transform="translate(-353.434 -71.867)" fill="#e94444" fill-rule="evenodd"/><path d="M38,373.74v5.188a.619.619,0,0,0,.62.619h5.206a.621.621,0,0,0,.62-.619V373.74a.621.621,0,0,0-.62-.619H38.622a.619.619,0,0,0-.62.619Z" transform="translate(-33.714 -320.877)" fill="#6fd7a3" fill-rule="evenodd"/><path d="M38,460.153v5.188a.618.618,0,0,0,.62.619h5.206a.621.621,0,0,0,.62-.619v-5.188a.621.621,0,0,0-.62-.619H38.622a.618.618,0,0,0-.62.619Z" transform="translate(-33.714 -394.943)" fill="#99e6fc" fill-rule="evenodd"/><path d="M221.46,373.74v5.188a.621.621,0,0,0,.62.619h5.206a.621.621,0,0,0,.62-.619V373.74a.621.621,0,0,0-.62-.619H222.08A.621.621,0,0,0,221.46,373.74Z" transform="translate(-190.958 -320.877)" fill="#fd4755" fill-rule="evenodd"/><path d="M221.46,460.153v5.188a.621.621,0,0,0,.62.619h5.206a.621.621,0,0,0,.62-.619v-5.188a.621.621,0,0,0-.62-.619H222.08A.621.621,0,0,0,221.46,460.153Z" transform="translate(-190.958 -394.943)" fill="#ffd15b" fill-rule="evenodd"/><path d="M293.781,188.743a11.912,11.912,0,1,1-2.506,16.645,11.953,11.953,0,0,1,2.506-16.645Z" transform="translate(-248.795 -160.848)" fill="#3c87d0" fill-rule="evenodd"/><path d="M431.955,356.974a3.551,3.551,0,0,0-.748,4.961l3.395,4.582a3.554,3.554,0,0,0,5.723-4.215l-3.395-4.582A3.572,3.572,0,0,0,431.955,356.974Z" transform="translate(-370.14 -306.445)" fill="#d77f4a" fill-rule="evenodd"/><path d="M438.493,359.155l3.395,4.582a3.561,3.561,0,0,1,.116,4.05,3.622,3.622,0,0,0,1.03-.524,3.555,3.555,0,0,0,.748-4.961l-3.395-4.582a3.572,3.572,0,0,0-4.974-.746,3.609,3.609,0,0,0-.864.911A3.577,3.577,0,0,1,438.493,359.155Z" transform="translate(-373.598 -306.446)" fill="#c86d36" fill-rule="evenodd"/><path d="M324.567,220.428a7.252,7.252,0,1,1-1.526,10.133A7.28,7.28,0,0,1,324.567,220.428Z" transform="translate(-276.807 -188.788)" fill="#99e6fc" fill-rule="evenodd"/><path d="M355.569,225.362a7.221,7.221,0,0,1-2.948,5.84c-.037.029-.079.058-.116.087a7.23,7.23,0,0,1-4.189,1.332,7.278,7.278,0,0,0,7.765-.549c.2-.148.385-.3.566-.466A7.243,7.243,0,0,0,351.757,219a7.245,7.245,0,0,1,3.812,6.363Z" transform="translate(-299.688 -188.778)" fill="#62dbfb" fill-rule="evenodd"/><path d="M357.948,190.736a11.885,11.885,0,0,1-1.426,15.746,12.8,12.8,0,0,1-1.083.9,11.888,11.888,0,0,1-7.149,2.33,12.023,12.023,0,0,0,3.242.5,11.893,11.893,0,0,0,7.273-2.305.183.183,0,0,0,.029-.021,11.9,11.9,0,0,0-7.033-21.474,11.864,11.864,0,0,1,6.148,4.322Z" transform="translate(-299.664 -160.849)" fill="#4f66d0" fill-rule="evenodd"/></g><g transform="translate(0.495)"><path d="M113.953,489.352H108.6a1.072,1.072,0,0,0,0,2.143h5.35a1.072,1.072,0,0,0,0-2.143Z" transform="translate(-92.237 -419.428)"/><path d="M317.5,213.168h0a8.33,8.33,0,1,0,11.656,1.746A8.366,8.366,0,0,0,317.5,213.168Zm11.074,7.606a6.132,6.132,0,0,1-2.441,4.049,6.219,6.219,0,0,1-8.662-1.3,6.165,6.165,0,0,1,1.3-8.633,6.218,6.218,0,0,1,8.662,1.3A6.127,6.127,0,0,1,328.57,220.774Z" transform="translate(-269.299 -181.32)"/><path d="M267.082,56.29l-3.394-4.581a4.641,4.641,0,0,0-5.614-1.471l-1.422-1.917a12.946,12.946,0,0,0,1.921-17.493,13.033,13.033,0,0,0-.951-1.138V11.8a1.072,1.072,0,0,0-1.072-1.072H245.171A1.072,1.072,0,0,0,244.1,11.8V26.2a12.935,12.935,0,0,0-3.19,1.538V1.072A1.072,1.072,0,0,0,239.837,0H228.459a1.072,1.072,0,0,0-1.072,1.072v20.1a1.072,1.072,0,1,0,2.143,0V2.143h9.235V29.522a12.945,12.945,0,0,0-1.56,16.074H229.53V26.208a1.072,1.072,0,1,0-2.143,0v20.46a1.072,1.072,0,0,0,1.072,1.072h10.487a13.052,13.052,0,0,0,15.979,1.851l1.447,1.951a4.629,4.629,0,0,0-.129,5.658l3.395,4.582a4.625,4.625,0,0,0,8.295-2.065,4.575,4.575,0,0,0-.85-3.426ZM246.243,12.874h9.235V27.849a13.1,13.1,0,0,0-9.235-2.144Zm8.328,34.374a10.9,10.9,0,0,1-15.191-2.274A10.829,10.829,0,0,1,248.1,27.713a10.86,10.86,0,0,1,8.748,4.391,10.81,10.81,0,0,1-2.28,15.144ZM265.813,59.4a2.46,2.46,0,0,1-.975,1.628,2.5,2.5,0,0,1-3.478-.521l-3.395-4.582a2.479,2.479,0,0,1,.523-3.46,2.494,2.494,0,0,1,3.478.521l3.395,4.582a2.445,2.445,0,0,1,.452,1.832Z" transform="translate(-194.966)"/><path d="M12.941,131.119H1.567A1.072,1.072,0,0,0,.5,132.191v11.4a1.072,1.072,0,1,0,2.143,0V133.262H11.87v24.717H2.638v-9.35a1.072,1.072,0,0,0-2.143,0v10.422a1.072,1.072,0,0,0,1.072,1.072H12.941a1.072,1.072,0,0,0,1.072-1.072v-26.86A1.072,1.072,0,0,0,12.941,131.119Z" transform="translate(-0.495 -112.383)"/><path d="M126.376,94.118H115a1.072,1.072,0,0,0-1.072,1.072v32.147A1.072,1.072,0,0,0,115,128.409h11.379a1.072,1.072,0,0,0,1.072-1.072V95.19A1.072,1.072,0,0,0,126.376,94.118ZM125.3,126.265h-9.235v-30H125.3Z" transform="translate(-97.718 -80.669)"/><path d="M113.953,373.991H108.6a1.072,1.072,0,0,0,0,2.143h5.35a1.072,1.072,0,0,0,0-2.143Z" transform="translate(-92.237 -320.551)"/><path d="M113.953,402.939H108.6a1.072,1.072,0,0,0,0,2.143h5.35a1.072,1.072,0,0,0,0-2.143Z" transform="translate(-92.237 -345.363)"/><path d="M37.4,365.621H32.193a1.693,1.693,0,0,0-1.692,1.69V372.5a1.693,1.693,0,0,0,1.692,1.69H37.4a1.693,1.693,0,0,0,1.692-1.69v-5.188a1.693,1.693,0,0,0-1.692-1.69Zm-.452,6.425h-4.3v-4.282h4.3Z" transform="translate(-26.213 -313.377)"/><path d="M113.953,460.4H108.6a1.072,1.072,0,0,0,0,2.143h5.35a1.072,1.072,0,0,0,0-2.143Z" transform="translate(-92.237 -394.616)"/><path d="M297.411,373.991h-5.35a1.072,1.072,0,1,0,0,2.143h5.35a1.072,1.072,0,1,0,0-2.143Z" transform="translate(-249.48 -320.551)"/><path d="M297.411,402.939h-5.35a1.072,1.072,0,1,0,0,2.143h5.35a1.072,1.072,0,1,0,0-2.143Z" transform="translate(-249.48 -345.363)"/><path d="M297.411,460.4h-5.35a1.072,1.072,0,1,0,0,2.143h5.35a1.072,1.072,0,1,0,0-2.143Z" transform="translate(-249.48 -394.616)"/><path d="M297.411,489.352h-5.35a1.072,1.072,0,1,0,0,2.143h5.35a1.072,1.072,0,1,0,0-2.143Z" transform="translate(-249.48 -419.428)"/><path d="M37.4,452.033H32.193a1.693,1.693,0,0,0-1.692,1.69v5.188a1.693,1.693,0,0,0,1.692,1.69H37.4a1.693,1.693,0,0,0,1.692-1.69v-5.188a1.693,1.693,0,0,0-1.692-1.69Zm-.452,6.425h-4.3v-4.282h4.3Z" transform="translate(-26.213 -387.442)"/><path d="M220.857,365.621h-5.206a1.693,1.693,0,0,0-1.692,1.69V372.5a1.693,1.693,0,0,0,1.692,1.69h5.206a1.693,1.693,0,0,0,1.692-1.69v-5.188A1.693,1.693,0,0,0,220.857,365.621Zm-.451,6.425h-4.3v-4.282h4.3Z" transform="translate(-183.458 -313.377)"/><path d="M220.857,452.033h-5.206a1.693,1.693,0,0,0-1.692,1.69v5.188a1.693,1.693,0,0,0,1.692,1.69h5.206a1.693,1.693,0,0,0,1.692-1.69v-5.188A1.693,1.693,0,0,0,220.857,452.033Zm-.451,6.425h-4.3v-4.282h4.3Z" transform="translate(-183.458 -387.442)"/></g></g></g></svg>