<svg xmlns="http://www.w3.org/2000/svg" xmlns:xlink="http://www.w3.org/1999/xlink" width="91" height="81" viewBox="0 0 91 81"><defs><clipPath id="a"><rect width="91" height="81" transform="translate(-3551 -6996)" fill="#fff" stroke="#707070" stroke-width="1"/></clipPath></defs><g transform="translate(3551 6996)" clip-path="url(#a)"><g transform="translate(-3599.164 -6992)"><g transform="translate(67.739 1.069)"><path d="M74.171,7.5h51.85V78.361H74.171Z" transform="translate(-74.171 -7.5)" fill="#ecf4ff"/></g><g transform="translate(67.896 42.246)"><path d="M108.35,312.422c-10.98,7.269-22.536,11.816-33.081,13.566h51.693V296.3A92.942,92.942,0,0,1,108.35,312.422Z" transform="translate(-75.269 -296.303)" fill="#cbe2ff"/></g><g transform="translate(72.348 15.04)"><g transform="translate(0 0)"><path d="M113.7,112.687v-7.2a7.2,7.2,0,1,0,7.2,7.2Z" transform="translate(-106.496 -105.486)" fill="#e49542"/></g><g transform="translate(7.201)"><path d="M157,105.486v7.2h7.2a7.2,7.2,0,0,0-7.2-7.2Z" transform="translate(-157.004 -105.486)" fill="#c8ea73"/></g></g><g transform="translate(82.142 5.678)"><path d="M175.187,39.825h23.044v4.609H175.187Z" transform="translate(-175.187 -39.825)" fill="#4073c8"/></g><g transform="translate(72.924 41.397)"><g transform="translate(0 21.316)"><path d="M110.537,439.85h6.913v4.609h-6.913Z" transform="translate(-110.537 -439.85)" fill="#4073c8"/></g><g transform="translate(11.522 14.403)"><path d="M191.35,391.362h6.913v11.522H191.35Z" transform="translate(-191.35 -391.362)" fill="#e49542"/></g><g transform="translate(11.522 22.58)"><path d="M198.262,448.718q-3.456,1.759-6.913,3.168v.176h6.913Z" transform="translate(-191.349 -448.718)" fill="#e28424"/></g><g transform="translate(23.044 5.761)"><path d="M272.163,330.752h6.913v20.164h-6.913Z" transform="translate(-272.163 -330.752)" fill="#dd5790"/></g><g transform="translate(23.044 15.671)"><path d="M279.076,400.26c-.628.437-1.261.87-1.9,1.3q-2.487,1.646-5.008,3.105v5.851h6.913V400.26Z" transform="translate(-272.163 -400.26)" fill="#da387d"/></g><g transform="translate(34.567)"><path d="M352.976,290.346h6.913v25.925h-6.913Z" transform="translate(-352.976 -290.346)" fill="#c8ea73"/></g><g transform="translate(34.566 6.267)"><path d="M359.888,334.3c-2.152,2.064-4.46,4.071-6.913,6v13.658h6.913Z" transform="translate(-352.975 -334.299)" fill="#b7e445"/></g></g><g transform="translate(66.67)"><path d="M119.589,0H67.739A1.069,1.069,0,0,0,66.67,1.069V51.864a1.069,1.069,0,1,0,2.139,0V2.139H118.52V8.861a1.069,1.069,0,0,0,2.139,0V1.069A1.069,1.069,0,0,0,119.589,0Z" transform="translate(-66.67)"/><path d="M119.589,89.65a1.069,1.069,0,0,0-1.069,1.069v57.01H68.809V133.722a1.069,1.069,0,0,0-2.139,0V148.8a1.069,1.069,0,0,0,1.069,1.069h51.85a1.069,1.069,0,0,0,1.069-1.069V90.719A1.069,1.069,0,0,0,119.589,89.65Z" transform="translate(-66.67 -76.868)"/><path d="M99,106.257a8.271,8.271,0,1,0,8.271-8.271A8.28,8.28,0,0,0,99,106.257Zm8.271,6.132A6.131,6.131,0,0,1,106.2,100.22v6.037a1.069,1.069,0,0,0,1.069,1.069H113.3A6.141,6.141,0,0,1,107.267,112.389Zm6.037-7.2h-4.967V100.22A6.146,6.146,0,0,1,113.3,105.187Z" transform="translate(-94.387 -84.015)"/><path d="M104.105,432.35a1.069,1.069,0,0,0-1.069,1.069v4.609a1.069,1.069,0,0,0,1.069,1.069h6.913a1.069,1.069,0,0,0,1.069-1.069v-4.609a1.069,1.069,0,0,0-1.069-1.069Zm5.844,4.609h-4.775v-2.47h4.775Z" transform="translate(-97.851 -370.706)"/><path d="M184.919,397.523h6.913a1.069,1.069,0,0,0,1.069-1.069V384.931a1.069,1.069,0,0,0-1.069-1.069h-6.913a1.069,1.069,0,0,0-1.069,1.069v11.522A1.069,1.069,0,0,0,184.919,397.523ZM185.989,386h4.775v9.383h-4.775Z" transform="translate(-167.143 -329.132)"/><path d="M265.732,323.252a1.069,1.069,0,0,0-1.069,1.069v20.164a1.069,1.069,0,0,0,1.069,1.069h6.913a1.069,1.069,0,0,0,1.069-1.069V324.321a1.069,1.069,0,0,0-1.069-1.069Zm5.844,20.164H266.8V325.391h4.775Z" transform="translate(-236.434 -277.163)"/><path d="M353.462,288.76a1.069,1.069,0,0,0,1.069-1.069v-3.771a1.069,1.069,0,0,0-1.069-1.069h-6.912a1.069,1.069,0,0,0-1.069,1.069v25.924a1.069,1.069,0,0,0,1.069,1.069h6.912a1.069,1.069,0,0,0,1.069-1.069V292.681a1.069,1.069,0,0,0-2.139,0v16.093h-4.773V284.989h4.773v2.7A1.069,1.069,0,0,0,353.462,288.76Z" transform="translate(-305.728 -242.522)"/><path d="M191.8,32.325H168.756a1.069,1.069,0,0,0-1.069,1.069V38a1.069,1.069,0,0,0,1.069,1.069H191.8A1.069,1.069,0,0,0,192.87,38V33.394a1.069,1.069,0,0,0-1.069-1.069Zm-1.069,4.609H169.826v-2.47h20.906v2.47Z" transform="translate(-153.284 -27.716)"/><path d="M270.885,97.986H249.569a1.069,1.069,0,0,0,0,2.139h21.316a1.069,1.069,0,0,0,0-2.139Z" transform="translate(-222.575 -84.015)"/><path d="M270.885,131.658H249.569a1.069,1.069,0,0,0,0,2.139h21.316a1.069,1.069,0,0,0,0-2.139Z" transform="translate(-222.575 -112.886)"/><path d="M271.955,166.4a1.069,1.069,0,0,0-1.069-1.069H249.569a1.069,1.069,0,0,0,0,2.139h21.316A1.069,1.069,0,0,0,271.955,166.4Z" transform="translate(-222.575 -141.758)"/><path d="M263.313,200.071A1.069,1.069,0,0,0,262.244,199H249.569a1.069,1.069,0,0,0,0,2.139h12.674A1.069,1.069,0,0,0,263.313,200.071Z" transform="translate(-222.575 -170.629)"/><path d="M132.641,248.5H113.2a1.069,1.069,0,0,0,0,2.139h19.444a1.069,1.069,0,0,0,0-2.139Z" transform="translate(-105.647 -213.069)"/><path d="M133.71,283.241a1.069,1.069,0,0,0-1.069-1.069H113.2a1.069,1.069,0,0,0,0,2.139h19.444A1.069,1.069,0,0,0,133.71,283.241Z" transform="translate(-105.647 -241.94)"/><path d="M125.069,316.913A1.069,1.069,0,0,0,124,315.844H113.2a1.069,1.069,0,0,0,0,2.139H124A1.069,1.069,0,0,0,125.069,316.913Z" transform="translate(-105.647 -270.812)"/></g></g></g></svg>