<svg xmlns="http://www.w3.org/2000/svg" xmlns:xlink="http://www.w3.org/1999/xlink" width="91" height="81" viewBox="0 0 91 81"><defs><clipPath id="a"><rect width="91" height="81" transform="translate(-3551 -6996)" fill="#fff" stroke="#707070" stroke-width="1"/></clipPath></defs><g transform="translate(3551 6996)" clip-path="url(#a)"><g transform="translate(-3562.234 -7012.234)"><path d="M345.074,157.745l-2.921.623-.921,2.842,2,2.218,2.921-.623.921-2.842Z" transform="translate(-271.231 -116.304)" fill="#f2444e"/><path d="M24,24H66.338V87.507H24Z" transform="translate(-3.377 -3.377)" fill="#c4baf5"/><path d="M40,216h7.471v7.471H40Z" transform="translate(-16.887 -165.492)" fill="#3a69ff"/><path d="M215.192,176.778v13.595a4.3,4.3,0,0,1-8.415,1.283l-2.058-6.593,4.027-2.322,2.087,6.958V176.778a.778.778,0,0,1,.778-.778h2.8A.778.778,0,0,1,215.192,176.778Z" transform="translate(-155.968 -131.718)" fill="#ff99c0"/><path d="M101.78,188.438l.318,1.057-4.027,2.322-.786-2.515L96,198.943H83.551l.087-9.962-1.325,2.467-3.9-2.428.968-1.774A6.228,6.228,0,0,1,84.845,184H95.817a6.226,6.226,0,0,1,5.963,4.437Z" transform="translate(-49.318 -138.473)" fill="#06b790"/><g transform="translate(23.113 28.094)"><path d="M40,72h7.471v7.471H40Z" transform="translate(-40 -72)" fill="#3a69ff"/><path d="M40,144h7.471v7.471H40Z" transform="translate(-40 -132.793)" fill="#3a69ff"/><path d="M40,288h7.471v7.471H40Z" transform="translate(-40 -254.379)" fill="#3a69ff"/><path d="M40,360h7.471v7.471H40Z" transform="translate(-40 -315.172)" fill="#3a69ff"/></g><path d="M146,166.245v-4.379l3.113,2.335v2.044a1.557,1.557,0,1,1-3.113,0Z" transform="translate(-106.388 -119.784)" fill="#ff99c0"/><path d="M98.823,312.376h9.962l-3.736-2.49V293.922a6.226,6.226,0,0,0-.657-2.785L98.823,280H86.371l2.49,13.7L81.75,309.885l10.176,2.49-3.111-3.238,5.4-13.3a6.225,6.225,0,0,0,.133-4.327l-1.755-5.22,2.588-.018,3.638,7.427Z" transform="translate(-52.138 -219.53)" fill="#0e3e86"/><path d="M379.924,331.773v-3.622h-2.016a8.1,8.1,0,0,0-1.047-2.527l1.426-1.426-2.561-2.561-1.426,1.426a8.1,8.1,0,0,0-2.527-1.047V320h-3.622v2.016a8.1,8.1,0,0,0-2.527,1.047l-1.426-1.426-2.561,2.561,1.426,1.426a8.1,8.1,0,0,0-1.047,2.527H360v3.622h2.016a8.1,8.1,0,0,0,1.047,2.527l-1.426,1.426,2.561,2.561,1.426-1.426a8.1,8.1,0,0,0,2.527,1.047v2.016h3.622v-2.016a8.1,8.1,0,0,0,2.527-1.047l1.426,1.426,2.561-2.561-1.426-1.426a8.1,8.1,0,0,0,1.047-2.527Zm-9.962,1.924a3.736,3.736,0,1,1,3.736-3.736A3.736,3.736,0,0,1,369.962,333.7Z" transform="translate(-287.078 -253.304)" fill="#583ae2"/><path d="M271.847,71.546V64.3h-4.031a16.2,16.2,0,0,0-2.094-5.053l2.851-2.851-5.123-5.123L260.6,54.125a16.2,16.2,0,0,0-5.053-2.094V48H248.3v4.031a16.2,16.2,0,0,0-5.053,2.094L240.4,51.274,235.274,56.4l2.851,2.851a16.2,16.2,0,0,0-2.094,5.053H232v7.245h4.031a16.2,16.2,0,0,0,2.094,5.053l-2.851,2.851,5.123,5.123,2.851-2.851a16.2,16.2,0,0,0,5.053,2.094v4.031h7.245V83.816a16.2,16.2,0,0,0,5.053-2.094l2.851,2.851,5.123-5.123L265.722,76.6a16.2,16.2,0,0,0,2.094-5.053Zm-19.924,7.245a10.867,10.867,0,1,1,10.867-10.867,10.867,10.867,0,0,1-10.867,10.867Z" transform="translate(-179.001 -23.642)" fill="#462eb4"/><path d="M61.4,161.815a3.736,3.736,0,0,0,5.125,1.282L95.39,145.65l8.329-.64L101.8,134.546l7.688-1.708-.05-.084a8.6,8.6,0,0,0-15.158.727l-2.73,5.762L62.678,156.69a3.736,3.736,0,0,0-1.282,5.125Z" transform="translate(-34.503 -91.666)" fill="#fcc419"/><path d="M330.785,194.838a8.03,8.03,0,0,0,4.808-2.063l.605-.549a5.689,5.689,0,0,0,1.848-4.648l-8.258,1.834Z" transform="translate(-261.569 -141.494)" fill="#f5a000"/><path d="M292.288,192.061l.721,3.924,2.99-.16-.667-4.138Z" transform="translate(-229.905 -144.963)" fill="#f5a000"/><circle cx="1.245" cy="1.245" r="1.245" transform="translate(28.852 66.982)" fill="#f5a000"/><path d="M63.585,232.075a.623.623,0,0,1,.223.893l-1.795,2.691a.622.622,0,0,1-.816.2l-10.9-5.948a4.405,4.405,0,0,1-1.757-5.972l4.2-7.692,3.9,2.428-4.025,7.495,7.244,3.9,1.351-.613a.311.311,0,0,1,.437.235l.227,1.463Z" transform="translate(-23.641 -165.703)" fill="#ff99c0"/><path d="M244,189.7V176.778a.778.778,0,0,1,.778-.778h2.8a.778.778,0,0,1,.778.778v13.595a4.3,4.3,0,0,1-4.306,4.305Z" transform="translate(-189.134 -131.718)" fill="#ff99c0"/><path d="M144,136h4.981v4.67a1.557,1.557,0,0,1-1.557,1.557A3.424,3.424,0,0,1,144,138.8Z" transform="translate(-104.699 -97.944)" fill="#ff99c0"/><path d="M143.723,120.623h1.437v.446c0,1.473-.571,2.667-2.044,2.667a2.669,2.669,0,0,1-.868-.145l-1.446-.5a1.889,1.889,0,0,1-1.889,1.889H138V122.7a2.7,2.7,0,0,1,3.429-2.6l1.448.406A3.134,3.134,0,0,0,143.723,120.623Z" transform="translate(-99.633 -84.435)" fill="#0e3e86"/><circle cx="0.946" cy="0.946" r="0.946" transform="translate(38.367 39.799)" fill="#ff99c0"/><path d="M77.251,173.386l-3.458-2.306V155.45a6.9,6.9,0,0,0-.723-3.063l-3.7-7.4a.623.623,0,1,0-1.114.557l3.7,7.4a5.652,5.652,0,0,1,.591,2.507v15.341H69.522a.623.623,0,1,0,0,1.245h3.46l1.868,1.245H67.566V155.225a.62.62,0,0,0-.064-.274l-3.638-7.428a.623.623,0,0,0-.559-.349h0l-1.04.007,8.558-5.172a4.928,4.928,0,0,0,9.287-2.3V136.4l1.235-.746,8.179-.628A8.693,8.693,0,0,0,94.7,132.8l.6-.549a6.27,6.27,0,0,0,2.051-5.157.623.623,0,0,0-.756-.56l-.666.148.561-1.732a.623.623,0,0,0-.13-.609l-1.3-1.437.306-.068a.623.623,0,0,0,.4-.926l-.052-.087a9.224,9.224,0,0,0-16.256.781.623.623,0,1,0,1.126.532,7.984,7.984,0,0,1,13.629-1.321l-6.806,1.512a.623.623,0,0,0-.477.72l1.8,9.784-7.64.587a.623.623,0,0,0-.274.088l-.718.434v-8.824a1.4,1.4,0,0,0-1.115-1.371,1.339,1.339,0,0,0-.286-.03H75.9a1.4,1.4,0,0,0-1.4,1.4v1.426l-.509.286a.934.934,0,0,0-.105,1.562l.426.32-1.147.693a6.9,6.9,0,0,0-6.41-4.443H63.918v-.836a2.179,2.179,0,0,0,1.245-1.966v-2.49c0-.005,0-.01,0-.016a3.29,3.29,0,0,0,1.869-2.962v-.447a.623.623,0,0,0-.623-.623H64.349a2.5,2.5,0,0,1-.678-.093l-1.45-.407a3.324,3.324,0,0,0-4.217,3.2v2.324a1.574,1.574,0,0,0,.934,1.432v2.883H55.785a6.846,6.846,0,0,0-6.013,3.57L44.607,139a5.026,5.026,0,0,0,2.006,6.818l.679.37a4.357,4.357,0,0,0,5.307,6.835l3.018-1.825.718,3.953L49.3,171.163a.623.623,0,0,0,.422.855l10.176,2.49a.623.623,0,0,0,.6-1.036l-2.831-2.945L62.916,157.6a6.853,6.853,0,0,0,.147-4.76l-1.481-4.407,1.337-.009,3.4,6.947v9.195h-4.67a.623.623,0,1,0,0,1.245h4.67V173.9a.623.623,0,0,0,.623.623h9.962a.623.623,0,0,0,.345-1.141ZM96.12,127.917a5.029,5.029,0,0,1-1.651,3.412l-.6.549a7.447,7.447,0,0,1-3.882,1.84l-.783-4.265ZM91.8,123.806l2.02-.431,1.383,1.534-.637,1.965-2.02.431-1.383-1.534Zm-3.523.609,2.173-.483-.582,1.8a.623.623,0,0,0,.13.609l1.25,1.386-2.271.5Zm-12.828,14.8a.62.62,0,0,0,.3-.533h0v-9.138a.623.623,0,0,0-.249-.5l-.481-.361.413-.233a.623.623,0,0,0,.317-.542v-1.79a.156.156,0,0,1,.156-.156h2.8a.129.129,0,0,1,.033,0,.154.154,0,0,1,.123.152v13.595a3.681,3.681,0,0,1-6.972,1.651Zm-16.2-19.89a2.08,2.08,0,0,1,2.078-2.078,2.113,2.113,0,0,1,.56.076l1.446.406a3.735,3.735,0,0,0,1.016.14h1.429a2.046,2.046,0,0,1-2.7,1.757l-1.446-.5a.623.623,0,0,0-.825.589,1.262,1.262,0,0,1-.228.726,1.577,1.577,0,0,0-1.33-.329Zm0,2.307a.323.323,0,0,1,.629-.084.623.623,0,0,0,.9.352,2.567,2.567,0,0,0,.537-.409,2.513,2.513,0,0,0,.6-.949l.761.262a3.308,3.308,0,0,0,1.069.178c.059,0,.117-.006.176-.009v2.188a.935.935,0,0,1-.934.934,2.781,2.781,0,0,1-1.175-.257.623.623,0,1,0-.523,1.13,4,4,0,0,0,1.387.36v1.881a1.245,1.245,0,0,1-2.49,0v-4.615a.623.623,0,0,0-.615-.623.325.325,0,0,1-.319-.323.129.129,0,0,1,0-.015Zm-8.384,8.5a5.6,5.6,0,0,1,4.92-2.921h3.152a2.49,2.49,0,1,0,4.981,0h2.839a5.639,5.639,0,0,1,5.322,3.856l-2.911,1.759-.35-1.121a.623.623,0,1,0-1.189.371l.441,1.413L52.776,142.73l-2.7-1.455,3.857-7.182-.06,5.561a.623.623,0,0,0,.617.629h.007a.623.623,0,0,0,.623-.616l.087-8.094a.623.623,0,0,0-1.171-.3l-1.012,1.883-2.841-1.767Zm1.091,21.827a3.113,3.113,0,0,1-3.5-5.134l1.284.7a1.893,1.893,0,0,0-.345.162,1.868,1.868,0,1,0,2.777,1.165l2.588,1.412Zm-2.2-2.821a.623.623,0,1,1,.07.471.623.623,0,0,1-.07-.471Zm-2.542-4.411A3.782,3.782,0,0,1,45.7,139.6l3.88-7.113,2.848,1.771-3.748,6.98a.623.623,0,0,0,.254.843l7.244,3.9a.622.622,0,0,0,.552.019l.979-.444.164,1.058a.623.623,0,0,0,.32.453l1.711.92,0,0-1.794,2.692Zm14.673,8.512a5.6,5.6,0,0,1-.12,3.894l-5.206,12.816-2.708-.6a.623.623,0,0,0-.269,1.216l3.038.67,1.494,1.555-7.374-1.8,6.813-15.509a.623.623,0,0,0,.042-.362l-.667-3.671.59.322a1.238,1.238,0,0,0,1.631-.4l1.4-2.1Zm-1.463-6.4-1.363-.733-.18-1.16a.934.934,0,0,0-1.31-.7l-1.07.486-2.446-1.315L74.5,131.054v7.276Z" transform="translate(-20.259 -81.058)"/><path d="M252.094,292a.623.623,0,0,0-.623.623v20.546h-6.849a.623.623,0,0,0,0,1.245h7.471a.623.623,0,0,0,.623-.623V292.623A.623.623,0,0,0,252.094,292Z" transform="translate(-189.134 -229.662)"/><path d="M29.962,84.129a.623.623,0,0,0-.623-.623H21.245V21.245H62.338V25.6a.623.623,0,1,0,1.245,0V20.623A.623.623,0,0,0,62.96,20H20.623a.623.623,0,0,0-.623.623V84.129a.623.623,0,0,0,.623.623h8.717A.623.623,0,0,0,29.962,84.129Z"/><path d="M376.546,324.151h-1.533a8.691,8.691,0,0,0-.747-1.8l1.084-1.084a.623.623,0,0,0,0-.881l-2.562-2.562a.623.623,0,0,0-.88,0l-1.084,1.084a8.693,8.693,0,0,0-1.8-.747v-1.534A.623.623,0,0,0,368.4,316h-3.623a.623.623,0,0,0-.623.623v1.533a8.694,8.694,0,0,0-1.8.747l-1.084-1.084a.623.623,0,0,0-.88,0l-2.562,2.562a.623.623,0,0,0,0,.881l1.084,1.084a8.688,8.688,0,0,0-.747,1.8h-1.534a.623.623,0,0,0-.623.623V328.4a.623.623,0,0,0,.623.623h1.533a8.686,8.686,0,0,0,.747,1.8l-1.084,1.084a.623.623,0,0,0,0,.88l2.562,2.562a.623.623,0,0,0,.88,0l1.084-1.084a8.693,8.693,0,0,0,1.8.747v1.534a.623.623,0,0,0,.623.623H368.4a.623.623,0,0,0,.623-.623v-1.533a8.694,8.694,0,0,0,1.8-.747l1.084,1.084a.623.623,0,0,0,.88,0l2.562-2.562a.623.623,0,0,0,0-.881l-1.084-1.084a8.691,8.691,0,0,0,.747-1.8h1.535a.623.623,0,0,0,.623-.623v-3.623a.623.623,0,0,0-.623-.623Zm-.623,3.622h-1.393a.623.623,0,0,0-.607.485,7.461,7.461,0,0,1-.966,2.332.623.623,0,0,0,.087.772l.985.985-1.681,1.681-.985-.985a.623.623,0,0,0-.772-.087,7.468,7.468,0,0,1-2.332.966.623.623,0,0,0-.485.607v1.393H365.4v-1.393a.623.623,0,0,0-.485-.607,7.467,7.467,0,0,1-2.333-.966.623.623,0,0,0-.772.087l-.985.985-1.681-1.681.985-.985a.623.623,0,0,0,.087-.772,7.461,7.461,0,0,1-.966-2.332.623.623,0,0,0-.607-.485h-1.393V325.4h1.393a.623.623,0,0,0,.607-.485,7.461,7.461,0,0,1,.966-2.332.623.623,0,0,0-.087-.772l-.985-.985,1.681-1.681.985.985a.623.623,0,0,0,.772.087,7.467,7.467,0,0,1,2.332-.966.623.623,0,0,0,.485-.607v-1.393h2.377v1.393a.623.623,0,0,0,.485.607,7.467,7.467,0,0,1,2.333.966.623.623,0,0,0,.772-.087l.985-.985,1.681,1.681-.985.985a.623.623,0,0,0-.087.772,7.462,7.462,0,0,1,.966,2.332.623.623,0,0,0,.607.485h1.393Z" transform="translate(-283.7 -249.927)"/><path d="M400.358,356a4.358,4.358,0,1,0,4.358,4.358A4.358,4.358,0,0,0,400.358,356Zm0,7.471a3.113,3.113,0,1,1,3.113-3.113A3.113,3.113,0,0,1,400.358,363.471Z" transform="translate(-317.474 -283.7)"/><path d="M268.47,60.3h-3.542a16.774,16.774,0,0,0-1.8-4.336l2.5-2.5a.623.623,0,0,0,0-.881l-5.123-5.123a.623.623,0,0,0-.88,0l-2.505,2.505a16.779,16.779,0,0,0-4.336-1.8V44.623a.623.623,0,0,0-.623-.623h-7.245a.623.623,0,0,0-.623.623v3.542a16.779,16.779,0,0,0-4.337,1.8l-2.505-2.505a.623.623,0,0,0-.88,0l-5.123,5.123a.623.623,0,0,0,0,.881l2.505,2.5a16.774,16.774,0,0,0-1.8,4.336h-3.542a.623.623,0,0,0-.623.623v4.245a.623.623,0,1,0,1.245,0V61.546h3.409a.623.623,0,0,0,.607-.485,15.555,15.555,0,0,1,2.013-4.859.623.623,0,0,0-.086-.772l-2.411-2.411,4.242-4.242,2.411,2.41a.623.623,0,0,0,.772.087,15.546,15.546,0,0,1,4.859-2.014.623.623,0,0,0,.485-.607V45.245h6v3.409a.623.623,0,0,0,.485.607,15.546,15.546,0,0,1,4.859,2.014.623.623,0,0,0,.772-.087l2.411-2.411,4.242,4.242-2.41,2.411a.623.623,0,0,0-.086.772,15.554,15.554,0,0,1,2.013,4.859.623.623,0,0,0,.607.485h3.409v6h-3.409a.623.623,0,0,0-.607.485,15.553,15.553,0,0,1-2.014,4.859.623.623,0,0,0,.087.772l2.411,2.411-4.242,4.242-2.411-2.41a.623.623,0,0,0-.772-.087,15.547,15.547,0,0,1-4.859,2.014.623.623,0,0,0-.485.607v3.409h-6V80.439a.623.623,0,0,0-.485-.607,15.547,15.547,0,0,1-4.859-2.014.623.623,0,0,0-.772.087l-2.411,2.411a.623.623,0,1,0-.88.881l.441.441a.623.623,0,0,0,.88,0l2.5-2.506a16.779,16.779,0,0,0,4.337,1.8V84.47a.623.623,0,0,0,.623.623h7.245a.623.623,0,0,0,.623-.623V80.928a16.78,16.78,0,0,0,4.337-1.8l2.505,2.5a.623.623,0,0,0,.88,0l5.123-5.123a.623.623,0,0,0,0-.881l-2.505-2.5a16.776,16.776,0,0,0,1.8-4.336h3.542a.623.623,0,0,0,.623-.623V60.924a.623.623,0,0,0-.623-.623Z" transform="translate(-175.624 -20.264)"/><path d="M329.632,123.915a10.372,10.372,0,0,1-1.18-.067.623.623,0,1,0-.141,1.237,11.647,11.647,0,0,0,1.322.075,11.49,11.49,0,1,0-5.261-21.708.623.623,0,1,0,.571,1.107,10.133,10.133,0,0,1,4.69-1.134,10.245,10.245,0,0,1,0,20.49Z" transform="translate(-256.709 -69.387)"/><path d="M289.631,193.237h.034l2.99-.16a.623.623,0,0,0,.581-.721l-.667-4.138a.623.623,0,0,0-.69-.519l-3.043.374a.623.623,0,0,0-.537.73l.72,3.924A.623.623,0,0,0,289.631,193.237Zm1.8-4.229.461,2.862-1.751.093-.5-2.736Z" transform="translate(-226.528 -141.593)"/><path d="M44.094,61.245H36.623a.623.623,0,0,0-.623.623v7.471a.623.623,0,0,0,.623.623h7.471a.623.623,0,0,0,.623-.623V65.065L49.474,61.1a.623.623,0,0,0-.8-.957l-3.96,3.3V61.868A.623.623,0,0,0,44.094,61.245Zm-.623,3.237-1.83,1.525-2.088-2.088a.623.623,0,0,0-.88.881l2.49,2.49a.623.623,0,0,0,.839.038L43.471,66.1v2.614H37.245V62.49h6.226Z" transform="translate(-13.51 -33.774)"/><path d="M44.094,140.094a.623.623,0,0,0,.623-.623v-2.406l4.757-3.964a.623.623,0,0,0-.8-.957l-3.96,3.3v-1.576a.623.623,0,0,0-.623-.623H36.623a.623.623,0,0,0-.623.623v7.471a.623.623,0,0,0,.623.623h5.6a.623.623,0,1,0,0-1.245H37.245V134.49h6.226v1.991l-1.83,1.525-2.088-2.088a.623.623,0,0,0-.88.881l2.49,2.49a.623.623,0,0,0,.839.038l1.469-1.224v1.369A.623.623,0,0,0,44.094,140.094Z" transform="translate(-13.51 -94.566)"/><path d="M37.245,213.245h2.49a.623.623,0,1,0,0-1.245H36.623a.623.623,0,0,0-.623.623v6.849a.623.623,0,0,0,1.245,0Z" transform="translate(-13.51 -162.115)"/><path d="M36.623,292a.623.623,0,0,0-.623.623v6.226a.623.623,0,0,0,.623.623h1.245a.623.623,0,0,0,0-1.245h-.623v-5.6A.623.623,0,0,0,36.623,292Z" transform="translate(-13.51 -229.662)"/><path d="M40.358,357.245a.623.623,0,0,0,0-1.245H36.623a.623.623,0,0,0-.623.623v7.471a.623.623,0,0,0,.623.623h7.471a.623.623,0,0,0,.623-.623v-6.226a.623.623,0,1,0-1.245,0v5.6H37.245v-6.226Z" transform="translate(-13.51 -283.7)"/><path d="M140.811,76H124.623a.623.623,0,1,0,0,1.245h16.188a.623.623,0,1,0,0-1.245Z" transform="translate(-87.812 -47.283)"/><path d="M121.169,100.623a.623.623,0,0,0-.623-.623H100.623a.623.623,0,1,0,0,1.245h19.924A.623.623,0,0,0,121.169,100.623Z" transform="translate(-67.548 -67.548)"/><path d="M140.094,37.245a.623.623,0,0,0,0-1.245h-7.471a.623.623,0,1,0,0,1.245Z" transform="translate(-94.567 -13.51)"/></g></g></svg>