<svg xmlns="http://www.w3.org/2000/svg" xmlns:xlink="http://www.w3.org/1999/xlink" width="91" height="81" viewBox="0 0 91 81"><defs><clipPath id="a"><rect width="91" height="81" transform="translate(-3551 -6996)" fill="#fff" stroke="#707070" stroke-width="1"/></clipPath></defs><g transform="translate(3551 6996)" clip-path="url(#a)"><g transform="translate(-3559.166 -6994.617)"><path d="M85.237,112.113v33.533a1.188,1.188,0,0,1-1.188,1.191H26.828a1.188,1.188,0,0,1-1.188-1.191V105.3a1.19,1.19,0,0,1,1.188-1.194H39.843a1.983,1.983,0,0,1,1.773,1.1l2.306,4.614a1.98,1.98,0,0,0,1.773,1.1h11.8l0,0a12.663,12.663,0,0,0,1.182,1.316,13.167,13.167,0,0,0,2.332,1.811L63.054,112a9.964,9.964,0,0,0,1.744.725v2.894a13.3,13.3,0,0,0,6.212,0V112.73A9.843,9.843,0,0,0,72.751,112l2.049,2.049a13.15,13.15,0,0,0,3.511-3.127l0,0h5.735a1.185,1.185,0,0,1,1.188,1.188Z" transform="translate(-1.772 -71.948)" fill="#f0c020"/><path d="M151.811,127.52a17.317,17.317,0,0,1-6.7,6.076L144,132.483v1.566c-4.416,1.077-5.63,1.272-10.87,0v-1.569l-1.112,1.112a17.253,17.253,0,0,1-6.7-6.076h2.833l0,0a12.668,12.668,0,0,0,1.182,1.316,13.167,13.167,0,0,0,2.332,1.811l2.047-2.049a9.964,9.964,0,0,0,1.744.725v2.894a13.3,13.3,0,0,0,6.212,0v-2.894a9.844,9.844,0,0,0,1.741-.725l2.049,2.049a13.15,13.15,0,0,0,3.511-3.127l0,0Z" transform="translate(-72.434 -88.543)" fill="#f0ab20"/><rect width="35.571" height="10.782" transform="translate(35.881 50.695)" fill="#f2e1d6"/><path d="M151.467,70.384a13.333,13.333,0,0,0,0-6.212h-2.9a10.053,10.053,0,0,0-.722-1.741l2.047-2.049a13.3,13.3,0,0,0-4.393-4.4l-2.049,2.049a10.3,10.3,0,0,0-1.741-.725V54.417a13.333,13.333,0,0,0-6.212,0V57.31a10.431,10.431,0,0,0-1.744.725l-2.047-2.049a13.3,13.3,0,0,0-4.4,4.4l2.047,2.049a10.055,10.055,0,0,0-.722,1.741h-2.894a13.3,13.3,0,0,0,0,6.212h2.894a10.181,10.181,0,0,0,.722,1.744l-2.047,2.047a13.581,13.581,0,0,0,.879,1.263l0,0a12.665,12.665,0,0,0,1.182,1.316,13.167,13.167,0,0,0,2.332,1.811l2.047-2.047a9.964,9.964,0,0,0,1.744.725v2.891a13.3,13.3,0,0,0,6.212,0V77.243a9.844,9.844,0,0,0,1.741-.725l2.049,2.049a13.149,13.149,0,0,0,3.511-3.127l0,0a13.046,13.046,0,0,0,.879-1.263l-2.047-2.047a10.182,10.182,0,0,0,.722-1.744Z" transform="translate(-72.474 -36.461)" fill="#72c1e8"/><path d="M158.3,92.112a5.144,5.144,0,1,1,3.64-1.506A5.145,5.145,0,0,1,158.3,92.112Z" transform="translate(-92.167 -56.149)" fill="#fff"/><path d="M60.917,20.511a12.553,12.553,0,0,0,0-5.854H58.19a9.569,9.569,0,0,0-.682-1.642l1.93-1.93A12.526,12.526,0,0,0,55.3,6.945l-1.93,1.93a9.569,9.569,0,0,0-1.642-.682V5.466a12.55,12.55,0,0,0-5.854,0V8.193a9.559,9.559,0,0,0-1.642.682L42.3,6.945a12.525,12.525,0,0,0-4.142,4.141l1.93,1.93a9.546,9.546,0,0,0-.682,1.642H36.68a12.55,12.55,0,0,0,0,5.854h2.727a9.537,9.537,0,0,0,.682,1.642l-1.931,1.93A12.523,12.523,0,0,0,42.3,28.224l1.93-1.93a9.56,9.56,0,0,0,1.643.683V29.7a12.55,12.55,0,0,0,5.854,0V26.977a9.569,9.569,0,0,0,1.642-.682l1.93,1.93a12.525,12.525,0,0,0,4.14-4.142l-1.93-1.93a9.559,9.559,0,0,0,.682-1.642Z" transform="translate(-9.353 -1.775)" fill="#fc5d3d"/><path d="M67.349,40.985A4.848,4.848,0,1,1,72.2,36.137,4.847,4.847,0,0,1,67.349,40.985Z" transform="translate(-27.904 -20.327)" fill="#fff"/><path d="M37.481,150.362a.728.728,0,0,1-.728-.728v-1.456a.728.728,0,1,1,1.456,0v1.456A.728.728,0,0,1,37.481,150.362Zm0-4.367a.728.728,0,0,1-.728-.728v-29.3a.728.728,0,0,1,.728-.728h8.05a.728.728,0,0,1,0,1.456H38.209v28.568A.728.728,0,0,1,37.481,146Z" transform="translate(-9.65 -79.841)" fill="#f9e5af"/><path d="M195.018,168.739h-3.164a.728.728,0,0,1,0-1.456h2.437V140.318a.728.728,0,1,1,1.456,0v27.694A.728.728,0,0,1,195.018,168.739Zm-6.076,0h-1.614a.728.728,0,0,1,0-1.456h1.615a.728.728,0,0,1,0,1.456Z" transform="translate(-115.875 -97.099)" fill="#f9e5af"/><path d="M155.184,92.633a8.823,8.823,0,0,1-1.831-.192.728.728,0,1,1,.3-1.424,7.324,7.324,0,0,0,6.706-12.343.728.728,0,1,1,1.029-1.029,8.778,8.778,0,0,1-6.206,14.987Zm-4.751-1.394a8.848,8.848,0,0,1-1.458-1.178A.728.728,0,1,1,150,89.032a7.381,7.381,0,0,0,1.218.984.728.728,0,0,1-.789,1.223Z" transform="translate(-89.051 -53.036)" fill="#c5e5ff"/><path d="M64.54,41.511a8.216,8.216,0,0,1-1.782-.2.728.728,0,1,1,.316-1.422A6.729,6.729,0,0,0,69.3,28.567a.728.728,0,1,1,1.029-1.029,8.184,8.184,0,0,1-5.786,13.974Zm-4.689-1.474a8.221,8.221,0,0,1-1.1-.924.728.728,0,1,1,1.029-1.029,6.8,6.8,0,0,0,.906.762.728.728,0,0,1-.835,1.194Z" transform="translate(-25.093 -17.516)" fill="#ffcbc2"/><path d="M77.413,177.512H100.7a.732.732,0,0,0,.728-.728V166a.73.73,0,0,0-.728-.728H65.128A.731.731,0,0,0,64.4,166v10.783a.734.734,0,0,0,.728.728H71.59a.728.728,0,1,0,0-1.456H65.856V166.73H99.974v9.327H77.413a.728.728,0,1,0,0,1.456Z" transform="translate(-29.249 -115.306)"/><circle cx="0.728" cy="0.728" r="0.728" transform="translate(44.525 60.751)"/><path d="M111.366,184.52a.728.728,0,0,0-.728-.728H88.911a.728.728,0,1,0,0,1.456h21.727a.728.728,0,0,0,.728-.728Z" transform="translate(-46.108 -128.433)"/><path d="M173.283,81.312a.737.737,0,0,0,.888-.524.728.728,0,1,0-.888.524Z" transform="translate(-106.048 -54.771)"/><path d="M156.522,91.672a5.872,5.872,0,0,0,4.285-9.887.746.746,0,0,0-1.028-.035.728.728,0,0,0-.032,1.031A4.416,4.416,0,1,1,155.16,81.6a.725.725,0,0,0,.469-.914.737.737,0,0,0-.917-.472,5.874,5.874,0,0,0,1.811,11.461Z" transform="translate(-90.391 -54.981)"/><path d="M34.908,19.464h2.206c.095.258.2.514.32.768l-1.561,1.561a.728.728,0,0,0-.106.895,13.293,13.293,0,0,0,4.381,4.382.728.728,0,0,0,.894-.106L42.6,25.4q.382.176.768.32v2.205a.728.728,0,0,0,.557.707,13.241,13.241,0,0,0,6.2,0,.728.728,0,0,0,.557-.707V25.723q.386-.143.768-.32l1.561,1.561a.728.728,0,0,0,.894.106,13.293,13.293,0,0,0,4.382-4.382.728.728,0,0,0-.107-.894l-1.562-1.56c.118-.254.225-.511.32-.768h2.205a.728.728,0,0,0,.707-.557,13.245,13.245,0,0,0,0-6.2.728.728,0,0,0-.707-.557H56.939q-.143-.386-.32-.768l1.561-1.561a.728.728,0,0,0,.107-.894A13.292,13.292,0,0,0,53.9,4.549a.728.728,0,0,0-.894.106L51.449,6.216c-.254-.116-.511-.224-.768-.32v-2.2a.728.728,0,0,0-.557-.707,13.237,13.237,0,0,0-6.2,0,.728.728,0,0,0-.555.707V5.9q-.387.143-.768.32L41.044,4.655a.728.728,0,0,0-.894-.106,13.294,13.294,0,0,0-4.384,4.382.728.728,0,0,0,.106.894l1.562,1.561q-.176.381-.32.768H34.908a.728.728,0,0,0-.707.557,13.283,13.283,0,0,0,0,6.2.728.728,0,0,0,.707.556ZM35.5,13.61h2.139a.728.728,0,0,0,.7-.514,8.868,8.868,0,0,1,.63-1.517.728.728,0,0,0-.129-.854L37.318,9.212A11.85,11.85,0,0,1,40.43,6.1l1.514,1.514a.728.728,0,0,0,.853.13,8.927,8.927,0,0,1,1.517-.631.728.728,0,0,0,.515-.7V4.278a11.8,11.8,0,0,1,4.4,0v2.14a.728.728,0,0,0,.513.7,8.9,8.9,0,0,1,1.517.63.728.728,0,0,0,.854-.129L53.625,6.1a11.841,11.841,0,0,1,3.11,3.111l-1.514,1.514a.728.728,0,0,0-.13.853,8.913,8.913,0,0,1,.63,1.517.728.728,0,0,0,.7.514h2.14a11.8,11.8,0,0,1,0,4.4h-2.14a.728.728,0,0,0-.7.514,8.881,8.881,0,0,1-.63,1.517.728.728,0,0,0,.13.855l1.514,1.514a11.853,11.853,0,0,1-3.112,3.112l-1.514-1.514a.728.728,0,0,0-.854-.13,8.889,8.889,0,0,1-1.517.63.728.728,0,0,0-.514.7v2.14a11.8,11.8,0,0,1-4.4,0V25.2a.728.728,0,0,0-.513-.7,8.908,8.908,0,0,1-1.517-.63.728.728,0,0,0-.853.13l-1.514,1.514a11.845,11.845,0,0,1-3.112-3.112l1.514-1.514a.728.728,0,0,0,.129-.854,8.837,8.837,0,0,1-.63-1.516.728.728,0,0,0-.7-.514H35.5a11.861,11.861,0,0,1,0-4.4Z" transform="translate(-7.581)"/><path d="M65.574,39.937a5.629,5.629,0,0,0,1.544-.216.731.731,0,0,0,.5-.9.741.741,0,0,0-.9-.5,4.078,4.078,0,0,1-1.141.16A4.119,4.119,0,1,1,69.7,34.36c0,.124-.006.249-.017.372a.728.728,0,1,0,1.45.131c.015-.166.023-.335.023-.5a5.576,5.576,0,1,0-5.577,5.578Z" transform="translate(-26.129 -18.55)"/><path d="M89.652,56.328a.728.728,0,1,0,1.121.929h0a0,0,0,0,0,0,0,.728.728,0,0,0-.1-1.025.749.749,0,0,0-1.025.1Z" transform="translate(-47.031 -37.894)"/><path d="M129.531,10.81h1.149a4.85,4.85,0,0,0,.9,2.164l-.814.813a.728.728,0,0,0,1.029,1.029l.814-.815a4.847,4.847,0,0,0,2.164.9v1.15a.728.728,0,0,0,1.456,0V14.9a4.847,4.847,0,0,0,2.164-.9l.815.815a.728.728,0,0,0,1.029-1.029l-.815-.814a4.844,4.844,0,0,0,.9-2.164h1.149a.728.728,0,1,0,0-1.456h-1.149a4.847,4.847,0,0,0-.9-2.164l.814-.814A.728.728,0,1,0,139.2,5.349l-.815.815a4.847,4.847,0,0,0-2.164-.9V4.114a.728.728,0,1,0-1.456,0V5.263a4.847,4.847,0,0,0-2.164.9l-.814-.813a.728.728,0,0,0-1.029,1.029l.814.813a4.847,4.847,0,0,0-.9,2.164H129.53a.728.728,0,1,0,0,1.456ZM135.5,6.658a3.423,3.423,0,1,1-3.423,3.423A3.423,3.423,0,0,1,135.5,6.658Z" transform="translate(-74.902 -0.546)"/><path d="M150.034,25.189a.728.728,0,0,0,.728-.728v-.214a.728.728,0,1,0-1.456,0v.214A.728.728,0,0,0,150.034,25.189Z" transform="translate(-89.437 -14.818)"/><path d="M82.277,72.935H77.939c.034-.054.071-.105.1-.159a.728.728,0,0,0-.107-.893l-1.677-1.678c.134-.288.255-.579.361-.87h2.373a.728.728,0,0,0,.707-.557,14.02,14.02,0,0,0,0-6.554.728.728,0,0,0-.707-.557H76.619c-.106-.291-.227-.582-.361-.868l1.677-1.68a.728.728,0,0,0,.106-.894,14.051,14.051,0,0,0-4.634-4.637.728.728,0,0,0-.895.106l-1.68,1.68q-.429-.2-.868-.362V52.64a.728.728,0,0,0-.557-.707,14.018,14.018,0,0,0-6.554,0,.728.728,0,0,0-.557.708v2.372q-.437.161-.87.362l-1.677-1.68a.728.728,0,0,0-.894-.107,14.066,14.066,0,0,0-4.637,4.637.728.728,0,0,0,.106.894L56,60.8q-.2.431-.361.868H53.27a.728.728,0,0,0-.707.557,13.984,13.984,0,0,0,0,6.555.728.728,0,0,0,.707.557h2.371q.16.437.362.87l-1.678,1.678a.728.728,0,0,0-.107.893c.032.053.07.106.1.159h-10.4a1.242,1.242,0,0,1-1.121-.7L40.5,67.625a2.693,2.693,0,0,0-2.425-1.5H25.056a1.923,1.923,0,0,0-1.916,1.918v6.748a.728.728,0,0,0,1.456,0V68.041a.464.464,0,0,1,.46-.466H38.071a1.259,1.259,0,0,1,1.121.7L41.5,72.888a2.686,2.686,0,0,0,2.425,1.5H55.372a14.151,14.151,0,0,0,3.482,3.025.736.736,0,0,0,.884-.1l.013-.01,1.676-1.679c.2.094.58.256.871.363v2.37a.729.729,0,0,0,.557.708,13.979,13.979,0,0,0,6.555,0,.728.728,0,0,0,.556-.707V75.991c.281-.1.636-.253.87-.361l1.677,1.677.009.008a.728.728,0,0,0,.887.1,14.173,14.173,0,0,0,3.479-3.023h5.389a.459.459,0,0,1,.46.46v33.533a.462.462,0,0,1-.46.466H25.056a.461.461,0,0,1-.46-.466V80.611a.728.728,0,0,0-1.456,0v27.772a1.923,1.923,0,0,0,1.916,1.918H82.277a1.923,1.923,0,0,0,1.915-1.918V74.849a1.925,1.925,0,0,0-1.915-1.914ZM57.4,70.865a.728.728,0,0,0,.13-.852,9.521,9.521,0,0,1-.671-1.619.728.728,0,0,0-.7-.515H53.857a12.536,12.536,0,0,1,0-4.757h2.308a.728.728,0,0,0,.7-.515,9.415,9.415,0,0,1,.67-1.615.728.728,0,0,0-.129-.853l-1.632-1.634a12.62,12.62,0,0,1,3.366-3.367l1.63,1.634a.728.728,0,0,0,.852.131,9.758,9.758,0,0,1,1.622-.675.728.728,0,0,0,.512-.695V53.226a12.564,12.564,0,0,1,4.757,0v2.307a.728.728,0,0,0,.512.695,9.6,9.6,0,0,1,1.618.674.728.728,0,0,0,.854-.13l1.634-1.634a12.607,12.607,0,0,1,3.364,3.366L74.859,60.14a.728.728,0,0,0-.129.853,9.4,9.4,0,0,1,.67,1.615.728.728,0,0,0,.7.515h2.31a12.571,12.571,0,0,1,0,4.757H76.1a.728.728,0,0,0-.7.515,9.508,9.508,0,0,1-.67,1.619.728.728,0,0,0,.13.852L76.493,72.5a12.514,12.514,0,0,1-3.365,3.366l-1.634-1.634a.728.728,0,0,0-.856-.128,9.309,9.309,0,0,1-1.612.67.741.741,0,0,0-.515.7v2.307a12.714,12.714,0,0,1-4.757,0V75.467a.728.728,0,0,0-.516-.7,9.488,9.488,0,0,1-1.615-.672.731.731,0,0,0-.856.13l-1.63,1.634A12.549,12.549,0,0,1,55.771,72.5Z" transform="translate(0 -34.684)"/><circle cx="0.728" cy="0.728" r="0.728" transform="translate(23.14 42.288)"/></g></g></svg>