<svg xmlns="http://www.w3.org/2000/svg" xmlns:xlink="http://www.w3.org/1999/xlink" width="91" height="81" viewBox="0 0 91 81"><defs><clipPath id="a"><rect width="91" height="81" transform="translate(-3551 -6996)" fill="#fff" stroke="#707070" stroke-width="1"/></clipPath></defs><g transform="translate(3551 6996)" clip-path="url(#a)"><g transform="translate(-3543.923 -6993.998)"><g transform="translate(2.207 2.207)"><g transform="translate(3.622 45.802)"><path d="M21.623,47.533l1.485-1.485,6.036,6.036L16.662,64.567A6.833,6.833,0,0,1,5,59.738V48.463A12.039,12.039,0,0,1,8.525,39.94l7.34,6.109,1.992-4A12.9,12.9,0,0,1,20.2,44.7a13.574,13.574,0,0,1,1.425,2.837Z" transform="translate(-5 -39.94)" fill="#4fc1e9"/></g><g transform="translate(7.147 44.667)"><path d="M9.224,39l1.678.278a12.936,12.936,0,0,1,5.565,2.354,9.787,9.787,0,0,1,.785.616l-1.992,4L7.92,40.135A10.715,10.715,0,0,1,9.224,39Z" transform="translate(-7.92 -39)" fill="#3bafda"/></g><g transform="translate(21.73 48.289)"><path d="M29.658,46.274A4.269,4.269,0,0,1,28.4,49.292l-2.366,2.366L20,45.622l2.366-2.366a4.274,4.274,0,0,1,7.292,3.018Z" transform="translate(-20 -42)" fill="#f0d0b4"/></g><g transform="translate(0 16.901)"><path d="M13.807,25.127l-.012.012-2.137,5.348a2.368,2.368,0,0,0-1.714.712,2.4,2.4,0,0,0-.7,1.7,2.905,2.905,0,0,0,.857,2.064l1.557,1.557-.845,5.094L5.187,36.837A9.091,9.091,0,0,1,2,29.907v-.483a13.487,13.487,0,0,1,.833-4.66,13.278,13.278,0,0,1,2.4-4.08,13.14,13.14,0,0,1,4.406-3.368A13.243,13.243,0,0,1,15.4,16h8.33a1.211,1.211,0,0,1,1.207,1.207v2.414A6.052,6.052,0,0,1,18.9,25.658H15.412A2.619,2.619,0,0,1,13.807,25.127Z" transform="translate(-2 -16)" fill="#b27946"/></g><g transform="translate(7.243 24.917)"><path d="M21.98,37.561a6.041,6.041,0,0,1-5.529,3.622v3.839a12.936,12.936,0,0,0-5.565-2.354L9.207,42.39l.362-2.149.845-5.094L8.857,33.589A2.905,2.905,0,0,1,8,31.525a2.4,2.4,0,0,1,.7-1.7,2.368,2.368,0,0,1,1.714-.712l2.137-5.348.012-.012a2.619,2.619,0,0,0,1.606.531h3.489a5.959,5.959,0,0,0,4.129-1.642A22.186,22.186,0,0,1,24.9,33.94H22.487v1.207a5.964,5.964,0,0,1-.507,2.414Z" transform="translate(-8 -22.64)" fill="#f0d0b4"/></g><g transform="translate(7.243)"><path d="M40.595,2H10.414A2.422,2.422,0,0,0,8,4.414V18.9a2.4,2.4,0,0,0,.386,1.3l.012.012A13.243,13.243,0,0,1,14.157,18.9h8.33a1.211,1.211,0,0,1,1.207,1.207v1.207h3.622l4.334,4.334a1.707,1.707,0,0,0,2.909-1.207V21.315h6.036A2.422,2.422,0,0,0,43.009,18.9V4.414A2.422,2.422,0,0,0,40.595,2Z" transform="translate(-8 -2)" fill="#e6e9ed"/></g><g transform="translate(33.802 12.072)"><path d="M61.388,14.414v3.863a13.177,13.177,0,0,0-6.036-1.449H52.937A10.866,10.866,0,0,0,42.072,27.694v3.622l-1.919,1.919a1.707,1.707,0,0,1-2.909-1.207V28.9H32.414A2.422,2.422,0,0,1,30,26.487V19.243h6.036a2.422,2.422,0,0,0,2.414-2.414V12H58.973A2.422,2.422,0,0,1,61.388,14.414Z" transform="translate(-30 -12)" fill="#ffeaa7"/></g><g transform="translate(28.973 28.973)"><path d="M43.179,35.658a14.364,14.364,0,0,0,1.9,4.829H40.487v3.127a1.707,1.707,0,0,1-2.909,1.207l-4.334-4.334H28.414A2.422,2.422,0,0,1,26,38.072V28.414A2.422,2.422,0,0,1,28.414,26h9.658v3.127a1.707,1.707,0,0,0,2.909,1.207L42.9,28.414v4.443A14.309,14.309,0,0,0,43.179,35.658Z" transform="translate(-26 -26)" fill="#e6e9ed"/></g><g transform="translate(45.874 16.901)"><path d="M66.559,38.478a33.775,33.775,0,0,1-2.414,12.531,12.064,12.064,0,0,0-4.829-9.658l-1.207-7.243,1.557-1.557a2.905,2.905,0,0,0,.857-2.064,2.422,2.422,0,0,0-2.414-2.414l-.41-.821a7.246,7.246,0,0,0-6.483-4.008H48.451a3.617,3.617,0,0,0-3.622,3.622v7.243a6.034,6.034,0,0,0,6.036,6.036h1.207V44a12.8,12.8,0,0,0-3.151,3.3,7.943,7.943,0,0,0-.483.809A14.54,14.54,0,0,1,40,34.929V26.865A10.866,10.866,0,0,1,50.865,16h2.414A13.273,13.273,0,0,1,66.559,29.279Z" transform="translate(-40 -16)" fill="#656d78"/></g><g transform="translate(55.532 66.361)"><path d="M61.279,63.042H48l1.207-4.829h7.28a6.024,6.024,0,0,0,3.658-1.243A53.219,53.219,0,0,0,61.279,63.042Z" transform="translate(-48 -56.97)" fill="#fcd770"/></g><g transform="translate(53.118 42.253)"><path d="M55.658,52.694v2.414H48.414L47.678,54A9.935,9.935,0,0,1,47.2,43.748a7.94,7.94,0,0,1,.483-.809,12.8,12.8,0,0,1,3.151-3.3v-.012a13.19,13.19,0,0,1,5.614-2.354L58.072,37A12.064,12.064,0,0,1,62.9,46.658v6.036Z" transform="translate(-46 -37)" fill="#fcd770"/></g><g transform="translate(43.46 57.946)"><path d="M64.559,50v3.658a6,6,0,0,1-6,6H41.61a3.622,3.622,0,0,1,.012-7.243H57.315V50Z" transform="translate(-38 -50)" fill="#f0d0b4"/></g><g transform="translate(50.703 24.144)"><path d="M57.279,26.829a2.422,2.422,0,0,1,2.414,2.414,2.905,2.905,0,0,1-.857,2.064l-1.557,1.557,1.207,7.243-1.63.278a13.19,13.19,0,0,0-5.614,2.354V38.9H50.036a6.04,6.04,0,0,1-5.01-2.668l.29-.072a4.645,4.645,0,0,0,3.513-4.5H44V25.622A3.617,3.617,0,0,1,47.622,22h2.765a7.246,7.246,0,0,1,6.483,4.008Z" transform="translate(-44 -22)" fill="#f0d0b4"/></g><g transform="translate(50.703 33.802)"><path d="M44,30h4.829a4.645,4.645,0,0,1-3.513,4.5l-.29.072A6,6,0,0,1,44,31.207Z" transform="translate(-44 -30)" fill="#ff826e"/></g></g><g transform="translate(0.999 1)"><path d="M75.848,32.388A14.484,14.484,0,0,0,68.6,19.86V16.694a3.626,3.626,0,0,0-3.622-3.622H45.667V4.622A3.626,3.626,0,0,0,42.046,1H11.865A3.626,3.626,0,0,0,8.244,4.622V19.108a3.591,3.591,0,0,0,.087.747A14.574,14.574,0,0,0,1,32.526v.49a10.325,10.325,0,0,0,3.614,7.852l5.1,4.336-.173,1.038A13.327,13.327,0,0,0,4.622,56.531v11.28a8.036,8.036,0,0,0,13.719,5.682L33.2,58.635a5.475,5.475,0,0,0-7.743-7.743L22.851,53.5a14.156,14.156,0,0,0-3.744-4.585V46.774a7.256,7.256,0,0,0,6.036-7.143h2.414V38.424a23.669,23.669,0,0,0-2.832-11.131,7.21,7.21,0,0,0,1.625-4.563h1.916l3.975,3.975a2.934,2.934,0,0,0,2.061.854,2.839,2.839,0,0,0,.5-.051v1.258a3.581,3.581,0,0,0,.222,1.207H33.6a3.626,3.626,0,0,0-3.622,3.622v9.658A3.626,3.626,0,0,0,33.6,46.874h4.329L41.9,50.85a2.914,2.914,0,0,0,4.975-2.061V46.874h2.74a15.683,15.683,0,0,0,5.337,4.889,11.02,11.02,0,0,0,.575,9.6H49.29a4.829,4.829,0,0,0-.008,9.658H57.4l-1.208,4.829H72.564l-.375-1.5c-.007-.031-.73-2.941-1.037-5.29a7.186,7.186,0,0,0,2.28-5.25V54.334a34.8,34.8,0,0,0,2.414-12.751v-9.2ZM6.18,39.032a7.912,7.912,0,0,1-2.767-6.014v-.49a12.205,12.205,0,0,1,12.2-12.212h8.325V22.73a4.834,4.834,0,0,1-4.829,4.829H15.616a1.3,1.3,0,0,1-1.274-.8,1.227,1.227,0,0,1,.173-1.125,1.2,1.2,0,0,1,.971-.49h1.207V22.73H15.486a3.629,3.629,0,0,0-3.451,4.738,3.335,3.335,0,0,0,.558,1.059l-1.586,3.965a3.626,3.626,0,0,0-2.763,3.518A4.1,4.1,0,0,0,9.45,38.924l1.122,1.122-.4,2.384ZM17.162,50.479l-.868,1.735-4.766-3.972.614.1A11.835,11.835,0,0,1,17.162,50.479ZM29.328,51.7a3.061,3.061,0,0,1,2.165,5.225l-1.519,1.519-4.329-4.329L27.163,52.6a3.042,3.042,0,0,1,2.165-.9Zm-8.29,3.606-6.759,6.759V56.532H11.864v7.952L9.8,66.543l1.707,1.707L23.937,55.825l4.329,4.329L16.634,71.786a5.622,5.622,0,0,1-9.6-3.975V56.531a10.908,10.908,0,0,1,2.449-6.847l7.607,6.337,1.928-3.855a11.669,11.669,0,0,1,1,1.275A11.921,11.921,0,0,1,21.038,55.309Zm1.691-18.093v2.414a4.755,4.755,0,0,1-.171,1.207h-.751a3.145,3.145,0,0,1-2.827-1.747l-2.16,1.08a5.54,5.54,0,0,0,4.3,3.034A4.787,4.787,0,0,1,17.9,44.46H16.693v2.885a14.17,14.17,0,0,0-4.154-1.381l-.493-.082,1.112-6.665-2-2a1.7,1.7,0,0,1-.5-1.208A1.208,1.208,0,0,1,11.864,34.8h.817l1.983-4.956a3.936,3.936,0,0,0,.95.127h3.492a7.189,7.189,0,0,0,3.742-1.054,21.2,21.2,0,0,1,2.257,8.3ZM33.949,25l-4.683-4.683H26.351A2.417,2.417,0,0,0,23.936,17.9H15.611a14.587,14.587,0,0,0-4.954.879V4.622a1.208,1.208,0,0,1,1.207-1.207h30.18a1.208,1.208,0,0,1,1.207,1.207V19.108a1.208,1.208,0,0,1-1.207,1.207H34.8v4.329A.519.519,0,0,1,33.949,25Zm3.268,3.768V22.73h4.829a3.626,3.626,0,0,0,3.622-3.622V15.487H64.983a1.208,1.208,0,0,1,1.207,1.207v2.052a14.392,14.392,0,0,0-4.829-.845H58.947A12.086,12.086,0,0,0,46.874,29.973V33.1l-1.561,1.561a.519.519,0,0,1-.854-.354V29.973H38.424A1.208,1.208,0,0,1,37.217,28.766ZM44.46,44.46v4.329a.519.519,0,0,1-.854.354L38.924,44.46H33.6a1.208,1.208,0,0,1-1.207-1.207V33.595A1.208,1.208,0,0,1,33.6,32.388h8.451V34.3a2.839,2.839,0,0,0,.051.5H34.8v2.414H44.96a2.925,2.925,0,0,0,1.915-.734v1.56a15.761,15.761,0,0,0,.091,1.589H34.8v2.414h12.6a15.562,15.562,0,0,0,.851,2.414Zm10.049-5.343a4.793,4.793,0,0,1-.392-1.9h2.2A3.415,3.415,0,0,1,54.509,39.117Zm4.437-3.107V34.8H54.117V29.973a2.417,2.417,0,0,1,2.414-2.414H59.3a6,6,0,0,1,5.4,3.336l.748,1.493h.745A1.208,1.208,0,0,1,67.4,33.595a1.7,1.7,0,0,1-.5,1.207l-2,2,1.112,6.665-.442.074a14.316,14.316,0,0,0-4.206,1.4v-2.9H58.945a4.775,4.775,0,0,1-2.909-1,5.823,5.823,0,0,0,2.909-5.035Zm7.018,9.914,1.108-.183a10.915,10.915,0,0,1,3.948,8.376v4.831H65.483l-.429-.429a4.359,4.359,0,0,1-.817-5.035l.619-1.239-2.16-1.08L62.077,52.4a6.812,6.812,0,0,0-.716,3.031,6.732,6.732,0,0,0,1.986,4.793l.429.429v.707h-5.39L58,60.787a8.758,8.758,0,0,1,0-9.718,11.964,11.964,0,0,1,7.959-5.146ZM46.874,66.191a2.419,2.419,0,0,1,2.416-2.416h16.9V61.361h4.829v2.446a4.8,4.8,0,0,1-4.788,4.8H49.282A2.414,2.414,0,0,1,46.874,66.191ZM69.5,73.433H59.286l.6-2.414h6.343a7.142,7.142,0,0,0,2.7-.53c.176,1.065.39,2.126.57,2.944Zm3.934-31.851a32.416,32.416,0,0,1-.927,7.717,13.3,13.3,0,0,0-3.99-5.47l-1.032-6.2,1.12-1.122a4.094,4.094,0,0,0,1.207-2.914,3.63,3.63,0,0,0-2.833-3.536l-.123-.245a8.4,8.4,0,0,0-7.556-4.67H56.531A4.834,4.834,0,0,0,51.7,29.973v7.243a7.251,7.251,0,0,0,7.243,7.243v2.05a14.326,14.326,0,0,0-2.872,3.112,13.313,13.313,0,0,1-6.786-11.58V29.973a9.669,9.669,0,0,1,9.658-9.658h2.414A12.086,12.086,0,0,1,73.433,32.388Z" transform="translate(-0.999 -1)"/><path d="M11,5h9.658V7.414H11Z" transform="translate(1.073 -0.171)"/><path d="M21,5H36.694V7.414H21Z" transform="translate(3.146 -0.171)"/><path d="M11,9H38.766v2.414H11Z" transform="translate(1.073 0.658)"/><path d="M24,13H36.072v2.414H24Z" transform="translate(3.767 1.487)"/><path d="M31,45h2.414v2.414H31Z" transform="translate(5.218 8.118)"/><path d="M35,45h2.414v2.414H35Z" transform="translate(6.047 8.118)"/><path d="M39,45h2.414v2.414H39Z" transform="translate(6.875 8.118)"/></g></g></g></svg>