<svg xmlns="http://www.w3.org/2000/svg" xmlns:xlink="http://www.w3.org/1999/xlink" width="91" height="81" viewBox="0 0 91 81"><defs><clipPath id="a"><rect width="91" height="81" transform="translate(-3551 -6996)" fill="#fff" stroke="#707070" stroke-width="1"/></clipPath></defs><g transform="translate(3551 6996)" clip-path="url(#a)"><g transform="translate(-3552.968 -7005.516)"><g transform="translate(5.449 31.18)"><path d="M17.8,209.325H33.734v21.734h8.694V206.427H65.61v24.632H74.3V209.325H90.242a5.8,5.8,0,0,0,5.8-5.8V181.8a5.8,5.8,0,0,0-5.8-5.8H83a5.8,5.8,0,0,0-5.8,5.8v11.591H61.263v7.245H46.774v-7.245H30.836V181.8a5.8,5.8,0,0,0-5.8-5.8H17.8a5.8,5.8,0,0,0-5.8,5.8V203.53A5.8,5.8,0,0,0,17.8,209.325Z" transform="translate(-12 -176)" fill="#66cedb"/><path d="M228.694,176H220l4.347,11.591Z" transform="translate(-182.328 -176)" fill="#66cedb"/></g><path d="M171.245,200.632h14.489v-7.245h7.245v-8.694A8.693,8.693,0,0,0,184.285,176h-1.449l-4.347,11.591L174.143,176h-1.449A8.693,8.693,0,0,0,164,184.694v8.694h7.245Z" transform="translate(-131.021 -144.82)" fill="#f6bf58"/><circle cx="8.451" cy="8.451" r="8.451" transform="translate(8.38 13.916)" fill="#66cedb"/><circle cx="8.451" cy="8.451" r="8.451" transform="translate(39.016 13.916)" fill="#f6bf58"/><g transform="translate(69.653 13.916)"><circle cx="8.451" cy="8.451" r="8.451" fill="#66cedb"/></g><g transform="translate(4 12.344)"><path d="M9.8,125.464v21.88h2.9V125.61h13.04V145.9a1.449,1.449,0,0,0,1.449,1.449h8.694a1.449,1.449,0,0,0,1.449-1.449V122.712h8.694v21.734h-5.8v2.9H54.712v-2.9h-5.8V122.712H57.61V145.9a1.449,1.449,0,0,0,1.449,1.449h8.694A1.449,1.449,0,0,0,69.2,145.9V125.61h13.04v21.734h2.9v-21.88a7.257,7.257,0,0,0,5.8-7.1V96.632A7.238,7.238,0,0,0,84.852,89.5a10.138,10.138,0,1,0-12.472,1.137,7.242,7.242,0,0,0-3.177,5.99v10.142h-5.8V99.53a10.152,10.152,0,0,0-8.94-10.064,10.142,10.142,0,1,0-14,0A10.152,10.152,0,0,0,31.53,99.53v7.245h-5.8V96.632a7.242,7.242,0,0,0-3.177-5.99A10.148,10.148,0,1,0,10.084,89.5,7.238,7.238,0,0,0,4,96.632v21.734A7.258,7.258,0,0,0,9.8,125.464Zm47.977-5.649H37.163a7.235,7.235,0,0,0-1.29-2.9H59.062A7.235,7.235,0,0,0,57.773,119.815ZM70.651,82.142A7.245,7.245,0,1,1,77.9,89.387,7.253,7.253,0,0,1,70.651,82.142Zm0,27.53a1.449,1.449,0,0,0,1.449-1.449V96.632a4.352,4.352,0,0,1,4.347-4.347h7.245a4.352,4.352,0,0,1,4.347,4.347v21.734a4.352,4.352,0,0,1-4.347,4.347H67.753a1.449,1.449,0,0,0-1.449,1.449v20.285h-5.8V121.263a4.352,4.352,0,0,1,4.347-4.347H77.9a1.449,1.449,0,0,0,1.449-1.449V100.979h-2.9v13.04H56.161v-4.347ZM49.724,92.285,47.468,98.3l-2.256-6.016Zm-9.5-10.142a7.245,7.245,0,1,1,7.245,7.245A7.253,7.253,0,0,1,40.223,82.142Zm-5.8,17.387a7.253,7.253,0,0,1,7.245-7.245h.445l3.995,10.651a1.449,1.449,0,0,0,2.714,0l3.993-10.651h.445a7.253,7.253,0,0,1,7.245,7.245v7.245h-5.8a1.449,1.449,0,0,0-1.449,1.449v5.8H41.672v-5.8a1.449,1.449,0,0,0-1.449-1.449h-5.8ZM9.8,82.142a7.245,7.245,0,1,1,7.245,7.245A7.253,7.253,0,0,1,9.8,82.142ZM6.9,96.632a4.352,4.352,0,0,1,4.347-4.347h7.245a4.352,4.352,0,0,1,4.347,4.347v11.591a1.449,1.449,0,0,0,1.449,1.449H38.774v4.347H18.489v-13.04h-2.9v14.489a1.449,1.449,0,0,0,1.449,1.449h13.04a4.352,4.352,0,0,1,4.347,4.347v23.183h-5.8V124.161a1.449,1.449,0,0,0-1.449-1.449H11.245A4.352,4.352,0,0,1,6.9,118.366Z" transform="translate(-4 -72)" fill="#070707"/><rect width="2.113" height="3.169" transform="translate(42.411 34.321)" fill="#010133"/></g></g></g></svg>