<svg xmlns="http://www.w3.org/2000/svg" width="58.43" height="66" viewBox="0 0 58.43 66">
  <g id="archivo-pdf" transform="translate(-4.785 -1)">
    <g id="Grupo_950359" data-name="Grupo 950359">
      <path id="Trazado_636097" data-name="Trazado 636097" d="M62.211,5V63a3,3,0,0,1-3,3h-45a3,3,0,0,1-3-3V15.8L25,2h34.21a3,3,0,0,1,3,3Z" fill="#fff"/>
    </g>
    <g id="Grupo_950360" data-name="Grupo 950360">
      <path id="Trazado_636098" data-name="Trazado 636098" d="M62.209,5V63a3,3,0,0,1-3,3h-45a3,3,0,0,1-3-3V59.9l.16.09C66.439,61.607,49.789,2,49.789,2h9.42a3,3,0,0,1,3,3Z" fill="#dee1e6"/>
    </g>
    <path id="Trazado_636099" data-name="Trazado 636099" d="M25,2V13.8a2,2,0,0,1-2,2H11.211Z" fill="#dee1e6"/>
    <g id="Grupo_950361" data-name="Grupo 950361">
      <path id="Trazado_636100" data-name="Trazado 636100" d="M44.807,34.267v17a2,2,0,0,1-2,2H8.787a3,3,0,0,1-3-3V29.757l.05.02a2.946,2.946,0,0,0,.83,1.61,2.993,2.993,0,0,0,2.12.88h34.02A1.993,1.993,0,0,1,44.807,34.267Z" fill="#ff7e7e"/>
    </g>
    <g id="Grupo_950362" data-name="Grupo 950362">
      <path id="Trazado_636101" data-name="Trazado 636101" d="M44.809,34.267v17a2,2,0,0,1-2,2H8.779a3,3,0,0,1-3-3v-1.65c33.45,2.4,34.87-16.35,34.87-16.35h2.16A1.993,1.993,0,0,1,44.809,34.267Z" fill="#ef3d3d"/>
    </g>
    <g id="Grupo_950363" data-name="Grupo 950363">
      <path id="Trazado_636102" data-name="Trazado 636102" d="M11.207,26.247v6.02H8.787a2.993,2.993,0,0,1-2.12-.88,3.012,3.012,0,0,1,2.12-5.14Z" fill="#ef3d3d"/>
      <path id="Trazado_636103" data-name="Trazado 636103" d="M59.215,1H25.005a.929.929,0,0,0-.71.29l-13.79,13.8a1.007,1.007,0,0,0-.29.71v9.45H8.785a4.014,4.014,0,0,0-4,4.01v21a4,4,0,0,0,4,4h1.43V63a4.005,4.005,0,0,0,4,4h45a4.012,4.012,0,0,0,4-4V5a4.005,4.005,0,0,0-4-4ZM24.005,4.41V13.8a1,1,0,0,1-1,1h-9.38ZM8.785,27.25h1.42v4.02H8.785a2.01,2.01,0,0,1,0-4.02Zm0,25.01a1.993,1.993,0,0,1-2-2V32.72a3.882,3.882,0,0,0,2,.55l34.03-.01a1,1,0,0,1,1,1v17a1,1,0,0,1-1,1H8.785ZM61.215,63a2.006,2.006,0,0,1-2,2h-45a2,2,0,0,1-2-2V54.26h30.6a3,3,0,0,0,3-3v-17a3.009,3.009,0,0,0-3-3h-30.6V16.8h10.79a3.009,3.009,0,0,0,3-3V3h33.21a2,2,0,0,1,2,2Z" fill="#1a5ee0"/>
    </g>
    <g id="Grupo_950367" data-name="Grupo 950367">
      <g id="Grupo_950364" data-name="Grupo 950364">
        <path id="Trazado_636104" data-name="Trazado 636104" d="M19.9,41.442c0,2.223-1.423,2.94-3.636,2.94H14.775v2.46H13.359V38.454h2.88c2.243,0,3.66.727,3.66,2.988Zm-1.452-.114c0-1.3-.918-1.59-2.232-1.59h-1.44V43.1h1.644C17.771,43.1,18.447,42.681,18.447,41.328Z" fill="#fff"/>
      </g>
      <g id="Grupo_950365" data-name="Grupo 950365">
        <path id="Trazado_636105" data-name="Trazado 636105" d="M29.127,42.606c0,2.612-1.549,4.236-4.776,4.236H21.567V38.454h2.88c2.852,0,4.68,1.405,4.68,4.152Zm-1.428.036q0-2.88-3.3-2.88H22.983V45.51h1.572c1.978,0,3.144-.929,3.144-2.868Z" fill="#fff"/>
      </g>
      <g id="Grupo_950366" data-name="Grupo 950366">
        <path id="Trazado_636106" data-name="Trazado 636106" d="M32.367,39.774v2.3h3.72v1.308h-3.72v3.456H30.951V38.454h5.592l-.012,1.32Z" fill="#fff"/>
      </g>
    </g>
  </g>
</svg>
