<svg xmlns="http://www.w3.org/2000/svg" xmlns:xlink="http://www.w3.org/1999/xlink" width="91" height="81" viewBox="0 0 91 81"><defs><clipPath id="a"><rect width="91" height="81" transform="translate(-3551 -6996)" fill="#fff" stroke="#707070" stroke-width="1"/></clipPath></defs><g transform="translate(3551 6996)" clip-path="url(#a)"><g transform="translate(-3543.995 -6992.722)"><g transform="translate(1.092 1.092)"><path d="M16.771,75.143H13.894A6.394,6.394,0,0,1,7.5,68.749V13.894A6.394,6.394,0,0,1,13.894,7.5h2.877Z" transform="translate(-7.5 -7.5)" fill="#964f09"/><path d="M109.2,75.143H71.178V7.5H109.2a2.874,2.874,0,0,1,2.874,2.874v61.9A2.874,2.874,0,0,1,109.2,75.143Z" transform="translate(-61.907 -7.5)" fill="#e68d35"/><path d="M298.147,7.5h-5.824a2.874,2.874,0,0,1,2.874,2.874v61.9a2.874,2.874,0,0,1-2.874,2.874h5.824a2.874,2.874,0,0,0,2.874-2.874v-61.9A2.874,2.874,0,0,0,298.147,7.5Z" transform="translate(-250.854 -7.5)" fill="#d47619"/><path d="M80.274,393.034H36.84a2.884,2.884,0,0,1-2.884-2.884v-3.071A2.884,2.884,0,0,1,36.84,384.2H80.274Z" transform="translate(-30.104 -329.35)" fill="#fff"/><path d="M77.036,423.52l-5.858,4.688v-13h5.858Z" transform="translate(-61.907 -355.847)" fill="#73a4ff"/><path d="M133.115,73.465h22.86v15.16h-22.86Z" transform="translate(-114.826 -63.861)" fill="#fff"/><g transform="translate(27.926 29.492)"><path d="M273.25,476.816H246.623a2.358,2.358,0,0,1-2.358-2.358h0a2.358,2.358,0,0,1,2.358-2.358H273.25a2.358,2.358,0,0,1,2.358,2.358h0A2.358,2.358,0,0,1,273.25,476.816Z" transform="translate(-237.719 -433.947)" fill="#73a4ff"/><path d="M409.167,472.1h-5.824a2.358,2.358,0,0,1,2.358,2.358h0a2.358,2.358,0,0,1-2.358,2.358h5.824a2.358,2.358,0,0,0,2.358-2.358h0A2.358,2.358,0,0,0,409.167,472.1Z" transform="translate(-373.636 -433.946)" fill="#5c95ff"/><path d="M304.711,443.109H285.324a4.947,4.947,0,0,1,4.947-4.947h9.494a4.947,4.947,0,0,1,4.947,4.947h0Z" transform="translate(-272.8 -404.951)" fill="#ffd52b"/><path d="M350.329,438.16h-5.824a4.947,4.947,0,0,1,4.947,4.947h5.824A4.946,4.946,0,0,0,350.329,438.16Z" transform="translate(-323.365 -404.95)" fill="#fcca00"/><g transform="translate(19.839)"><path d="M340.323,243.2h-4.758V212.441a2.379,2.379,0,1,1,4.758,0Z" transform="translate(-335.565 -210.062)" fill="#73a4ff"/></g><path d="M313.075,251.936H297.123v0a7.838,7.838,0,0,1,7.838-7.838h.276a7.838,7.838,0,0,1,7.838,7.838Z" transform="translate(-282.881 -239.141)" fill="#ffd52b"/><path d="M334.952,244.1h-.276a7.816,7.816,0,0,0-2.774.507,7.839,7.839,0,0,1,5.064,7.331v0h5.824v0A7.838,7.838,0,0,0,334.952,244.1Z" transform="translate(-312.596 -239.14)" fill="#fcca00"/><g transform="translate(0 23.526)"><path d="M211.059,376.409h-9.375a2.38,2.38,0,0,1,0-4.76h9.375a2.38,2.38,0,0,1,0,4.76Z" transform="translate(-199.305 -371.649)" fill="#ffd52b"/><path d="M245.858,371.649h-5.824a2.38,2.38,0,0,1,0,4.76h5.824a2.38,2.38,0,0,0,0-4.76Z" transform="translate(-234.104 -371.649)" fill="#fcca00"/><g transform="translate(30.303)"><path d="M419.187,376.409h-9.375a2.38,2.38,0,0,1,0-4.76h9.375a2.38,2.38,0,0,1,0,4.76Z" transform="translate(-407.433 -371.649)" fill="#ffd52b"/></g><path d="M453.986,371.649h-5.824a2.38,2.38,0,0,1,0,4.76h5.824a2.38,2.38,0,0,0,0-4.76Z" transform="translate(-411.929 -371.649)" fill="#fcca00"/></g></g><path d="M251.829,291.4h-38.48a1.092,1.092,0,0,0,0,2.184h38.48a1.092,1.092,0,1,0,0-2.184Z" transform="translate(-182.445 -250.067)" fill="#ffd52b"/></g><g transform="translate(0 0)"><path d="M149.567,83.309a1.092,1.092,0,0,0,1.092-1.092V67.057a1.092,1.092,0,0,0-1.092-1.092h-22.86a1.092,1.092,0,0,0-1.092,1.092v15.16a1.092,1.092,0,0,0,1.092,1.092ZM127.8,68.149h20.676V81.125H127.8Z" transform="translate(-107.326 -56.361)" fill="#060606"/><path d="M71.343,53.03,68,44.611h2.479a1.092,1.092,0,0,0,0-2.184H60.252a8.95,8.95,0,0,0-5.546-7.332V32.963a3.476,3.476,0,0,0-2.355-3.286V3.966A3.97,3.97,0,0,0,48.385,0H7.486A7.5,7.5,0,0,0,0,7.486v5.326a1.092,1.092,0,1,0,2.184,0V7.486a5.308,5.308,0,0,1,5.3-5.3H9.271V54.845H7.828a3.98,3.98,0,0,0-3.976,3.976v3.071a3.98,3.98,0,0,0,3.976,3.976H9.271v1.775H7.486a5.308,5.308,0,0,1-5.3-5.3v-44a1.092,1.092,0,1,0-2.184,0v44a7.5,7.5,0,0,0,7.486,7.486H9.271v3.626a1.1,1.1,0,0,0,1.774.852l5.6-4.478H34.714a3.485,3.485,0,0,0,3.208,4.718H56.345a1.092,1.092,0,1,0,0-2.184H37.922a1.268,1.268,0,0,1,0-2.534H64.549a1.268,1.268,0,0,1,0,2.534H62.163a1.092,1.092,0,1,0,0,2.184h2.386c4.439,0,4.447-6.9,0-6.9h-2.63A6.048,6.048,0,0,0,55.982,62.7H54.706V44.611H64.778L61.431,53.03a3.471,3.471,0,0,0,.269,6.932h9.375a3.471,3.471,0,0,0,.269-6.932ZM47.765,54.845H43.827A3.475,3.475,0,0,0,41.04,53.03l-3.347-8.419H47.765ZM31.4,55.2h9.375a1.288,1.288,0,0,1,0,2.576H31.4a1.288,1.288,0,0,1,0-2.576Zm2.086-2.184,2.6-6.544,2.6,6.544ZM58.031,42.287H44.44A6.757,6.757,0,0,1,51.1,36.631,6.851,6.851,0,0,1,58.031,42.287Zm-5.509-7.763a10.548,10.548,0,0,0-2.574,0V32.963a1.287,1.287,0,0,1,2.574,0ZM11.455,2.184h36.93a1.784,1.784,0,0,1,1.782,1.782v25.7a3.476,3.476,0,0,0-2.4,3.3V35.1a8.951,8.951,0,0,0-5.546,7.332H32a1.092,1.092,0,0,0,0,2.184h2.479L31.128,53.03a3.476,3.476,0,0,0-2.787,1.815H11.455Zm0,59.361h3.674v6.7l-3.674,2.94Zm5.858,6.1V65.868H41.179a6,6,0,0,0-.627,1.775H17.313Zm42.365,0H42.793a3.862,3.862,0,0,1,3.7-2.757h9.494A3.861,3.861,0,0,1,59.678,67.644ZM46.489,62.7a6,6,0,0,0-3.294.982H17.313V60.452a1.092,1.092,0,0,0-1.092-1.092H10.363a1.092,1.092,0,0,0-1.092,1.092v3.232H7.828a1.794,1.794,0,0,1-1.792-1.792V58.821a1.794,1.794,0,0,1,1.792-1.792h20.14A3.476,3.476,0,0,0,31.4,59.962h9.375A3.476,3.476,0,0,0,44.2,57.029h3.564V62.7H46.489Zm6.034-.071H49.949V44.611h2.574Zm16.466-9.613h-5.2l2.6-6.544Zm2.086,4.76H61.7a1.288,1.288,0,0,1,0-2.576h9.375a1.288,1.288,0,0,1,0,2.576Z" transform="translate(0 0)" fill="#060606"/></g></g></g></svg>