<svg xmlns="http://www.w3.org/2000/svg" xmlns:xlink="http://www.w3.org/1999/xlink" width="91" height="81" viewBox="0 0 91 81"><defs><clipPath id="a"><rect width="91" height="81" transform="translate(-3551 -6996)" fill="#fff" stroke="#707070" stroke-width="1"/></clipPath></defs><g transform="translate(3551 6996)" clip-path="url(#a)"><g transform="translate(-3544.477 -7029.295)"><g transform="translate(7.004 36.295)"><g transform="translate(17.289 43.276)"><path d="M63.324,192.5a.956.956,0,0,1,.956-.956h2.026a1.354,1.354,0,0,1-1.354-1.354v-22.77a1.343,1.343,0,0,1,.334-.882l-2.114.534a4.361,4.361,0,0,0-3.29,3.986l-.84,23.094a1.212,1.212,0,0,0,1.21,1.28h6A2.931,2.931,0,0,1,63.324,192.5Z" transform="translate(-59.039 -166.541)" fill="#3a70bf"/></g><g transform="translate(55.849 43.275)"><path d="M181.516,171.06a4.361,4.361,0,0,0-3.29-3.986l-2.114-.534a1.343,1.343,0,0,1,.334.882v22.77a1.354,1.354,0,0,1-1.354,1.354h2.026a.956.956,0,0,1,.956.956,2.931,2.931,0,0,1-2.931,2.931h6a1.212,1.212,0,0,0,1.21-1.28Z" transform="translate(-175.092 -166.54)" fill="#3a70bf"/></g><g transform="translate(23.201 42.803)"><g transform="translate(0 0)"><path d="M109.48,165.118H78.186a1.354,1.354,0,0,0-1.354,1.354v22.77a1.354,1.354,0,0,0,1.354,1.354H109.48a1.354,1.354,0,0,0,1.354-1.354v-22.77a1.354,1.354,0,0,0-1.354-1.354Z" transform="translate(-76.832 -165.118)" fill="#edf4fc"/></g></g><g transform="translate(21.573 68.282)"><path d="M108.235,241.8H72.889a.956.956,0,0,0-.956.956,2.931,2.931,0,0,0,2.931,2.931h31.4a2.931,2.931,0,0,0,2.931-2.931A.955.955,0,0,0,108.235,241.8Z" transform="translate(-71.933 -241.802)" fill="#c7d7e5"/></g><g transform="translate(6.096 19.408)"><circle cx="6.699" cy="6.699" r="6.699" fill="#70d6f9"/></g><g transform="translate(0.83 32.147)"><g transform="translate(0 0)"><path d="M15,133.968l-.5-.5a1.446,1.446,0,0,0-2.046,0L9.925,136a1.446,1.446,0,0,0,0,2.046l.5.5a1.446,1.446,0,0,0,2.046,0L15,136.014A1.447,1.447,0,0,0,15,133.968Z" transform="translate(-9.501 -133.046)" fill="#fc657e"/></g></g><g transform="translate(50.811 16.588)"><path d="M160.636,86.219a4.443,4.443,0,0,0-.682.054v8.051c0,.24-.011.477-.027.713a4.438,4.438,0,1,0,.709-8.819Z" transform="translate(-159.927 -86.219)" fill="#f9d0b4"/></g><g transform="translate(29.567 12.87)"><path d="M116.608,77.451a8.812,8.812,0,0,1-3.88-2.233.706.706,0,0,0-1.013.057c-1.62,1.891-7.363,7.626-15.722,5.245v6.334a10.635,10.635,0,0,0,21.27,0V78.261A.834.834,0,0,0,116.608,77.451Z" transform="translate(-95.992 -75.03)" fill="#f9d0b4"/></g><g transform="translate(24.445 17.428)"><path d="M85.7,96.013V89.679a17.3,17.3,0,0,1-2.249-.817,1.353,1.353,0,0,0-1.471.253,4.427,4.427,0,0,0,3.747,7.611C85.708,96.49,85.7,96.253,85.7,96.013Z" transform="translate(-80.575 -88.748)" fill="#f9d0b4"/></g><g transform="translate(25.741 0.831)"><path d="M98.937,38.795A14.5,14.5,0,0,0,84.475,53.257V55.87c.036-.036.069-.075.107-.11a1.353,1.353,0,0,1,1.471-.253,17.3,17.3,0,0,0,2.249.817c8.359,2.381,14.1-3.355,15.722-5.245a.706.706,0,0,1,1.013-.057,8.808,8.808,0,0,0,3.881,2.233.834.834,0,0,1,.654.81v.541a4.421,4.421,0,0,1,3.827,1.251v-2.6A14.5,14.5,0,0,0,98.937,38.795Z" transform="translate(-84.475 -38.795)" fill="#5b5d60"/></g><g transform="translate(25.407 34.04)"><path d="M109.443,146.593a9.308,9.308,0,0,1-1.84-.676l-2.63-1.3a2.957,2.957,0,0,1-1.649-2.652v-3.225a10.574,10.574,0,0,1-10.117,0v3.225a2.956,2.956,0,0,1-1.649,2.652l-2.63,1.3a9.3,9.3,0,0,1-1.84.676l-3.618.913h29.59Z" transform="translate(-83.471 -138.743)" fill="#f9d0b4"/></g><g transform="translate(45.261 23.391)"><path d="M153.062,114.732a7.861,7.861,0,0,0,.176-8.039,4.387,4.387,0,0,1-4.464,2.016,10.672,10.672,0,0,1-5.55,8.633v3.225a2.951,2.951,0,0,0,1.41,2.512c.348.214-.094-.037,2.869,1.436a10.2,10.2,0,0,0,1.331.532c.08.025.162.047.243.07a7.366,7.366,0,0,0,3.84-2.9A6.086,6.086,0,0,0,153,115.98a1.233,1.233,0,0,1,.066-1.248Z" transform="translate(-143.224 -106.693)" fill="#5b5d60"/></g><g transform="translate(24.101 23.391)"><path d="M85.033,108.709a4.387,4.387,0,0,1-4.464-2.016,7.863,7.863,0,0,0,.176,8.039,1.233,1.233,0,0,1,.066,1.248,6.086,6.086,0,0,0,.079,6.239,7.364,7.364,0,0,0,3.84,2.9c.081-.023.163-.045.243-.07a10.263,10.263,0,0,0,1.331-.532c3.155-1.569,2.547-1.238,2.869-1.436a2.952,2.952,0,0,0,1.41-2.512v-3.225a10.674,10.674,0,0,1-5.549-8.633Z" transform="translate(-79.54 -106.693)" fill="#5b5d60"/></g><g transform="translate(17.289 56.685)"><path d="M63.324,219.453a.956.956,0,0,1,.956-.956h2.026a1.354,1.354,0,0,1-1.354-1.354v-8.923L59.558,206.9l-.517,14.2a1.212,1.212,0,0,0,1.21,1.28h6A2.931,2.931,0,0,1,63.324,219.453Z" transform="translate(-59.039 -206.9)" fill="#f9d0b4"/></g><g transform="translate(55.849 56.685)"><path d="M181.839,206.9l-5.393,1.319v8.923a1.354,1.354,0,0,1-1.354,1.354h2.026a.956.956,0,0,1,.956.956,2.931,2.931,0,0,1-2.931,2.931h6a1.212,1.212,0,0,0,1.21-1.28Z" transform="translate(-175.092 -206.9)" fill="#f9d0b4"/></g><g transform="translate(36.284 27.684)"><path d="M123.747,119.81a.831.831,0,0,0-1.17.1,3.44,3.44,0,0,1-4.9,0,.831.831,0,1,0-1.273,1.067,5.09,5.09,0,0,0,7.448,0,.831.831,0,0,0-.1-1.17Z" transform="translate(-116.208 -119.616)"/></g><g transform="translate(43.452 20.879)"><path d="M139.157,99.135a1.378,1.378,0,1,0,1.378,1.378A1.378,1.378,0,0,0,139.157,99.135Z" transform="translate(-137.779 -99.135)"/></g><g transform="translate(34.197 20.879)"><path d="M111.3,99.135a1.378,1.378,0,1,0,1.378,1.378A1.378,1.378,0,0,0,111.3,99.135Z" transform="translate(-109.927 -99.135)"/></g><g transform="translate(5.506 30.462)"><path d="M26.264,128.22a.83.83,0,0,0-1.175,0l-1.272,1.272a.831.831,0,0,0,1.175,1.175l1.272-1.272A.831.831,0,0,0,26.264,128.22Z" transform="translate(-23.574 -127.976)"/></g><g transform="translate(9.964 24.484)"><g transform="translate(0)"><path d="M42.384,110.228a.83.83,0,0,0-1.175,0l-1.858,1.858-.941-.941a.831.831,0,0,0-1.175,1.175l1.528,1.528a.831.831,0,0,0,1.175,0l2.445-2.445A.831.831,0,0,0,42.384,110.228Z" transform="translate(-36.992 -109.984)"/></g></g><g transform="translate(16.459 42.452)"><path d="M64.586,192.949h-6a.378.378,0,0,1-.277-.119.393.393,0,0,1-.1-.3l.84-23.078a3.515,3.515,0,0,1,2.664-3.227l2.085-.526a.831.831,0,1,0-.407-1.611l-2.084.526a5.174,5.174,0,0,0-3.917,4.762l-.84,23.078a2.043,2.043,0,0,0,2.04,2.156h6a.831.831,0,1,0,0-1.661Z" transform="translate(-56.541 -164.063)"/></g><g transform="translate(55.07 42.456)"><g transform="translate(0 0)"><path d="M181.62,192.476l-.841-23.11a5.168,5.168,0,0,0-3.915-4.745l-2.071-.523a.831.831,0,0,0-.407,1.611l2.072.523a3.51,3.51,0,0,1,2.662,3.211l.841,23.109a.382.382,0,0,1-.381.4h-6a.831.831,0,1,0,0,1.661h6a2.042,2.042,0,0,0,2.04-2.14Z" transform="translate(-172.746 -164.073)"/></g></g><g transform="translate(20.743 41.972)"><g transform="translate(16.452 13.749)"><path d="M124.052,204h-4.274a.831.831,0,0,0,0,1.661h4.274a.831.831,0,0,0,0-1.661Z" transform="translate(-118.948 -203.999)"/></g><g transform="translate(1.627 0)"><path d="M107.811,162.618H76.517a2.187,2.187,0,0,0-2.185,2.185v22.77a2.187,2.187,0,0,0,2.185,2.185h31.294A2.187,2.187,0,0,0,110,187.573V164.8A2.187,2.187,0,0,0,107.811,162.618Zm.524,24.955a.524.524,0,0,1-.524.524H76.517a.524.524,0,0,1-.524-.524V164.8a.524.524,0,0,1,.524-.524h31.294a.524.524,0,0,1,.524.524Z" transform="translate(-74.332 -162.618)"/></g><g transform="translate(0 25.479)"><path d="M106.566,239.3H71.221a1.789,1.789,0,0,0-1.787,1.787A3.766,3.766,0,0,0,73.2,244.85h31.4a3.766,3.766,0,0,0,3.762-3.762A1.789,1.789,0,0,0,106.566,239.3Zm-1.975,3.887H73.2a2.1,2.1,0,0,1-2.1-2.1.125.125,0,0,1,.125-.125h35.346a.125.125,0,0,1,.125.125A2.1,2.1,0,0,1,104.591,243.189Z" transform="translate(-69.434 -239.302)"/></g></g><g transform="translate(5.269 18.581)"><path d="M35.712,94.42a7.526,7.526,0,1,0,0,10.648A7.538,7.538,0,0,0,35.712,94.42Zm-1.175,9.473a5.866,5.866,0,1,1,0-8.3A5.875,5.875,0,0,1,34.537,103.894Z" transform="translate(-22.862 -92.218)"/></g><g transform="translate(0 31.316)"><path d="M13.922,131.712l-.5-.5a2.277,2.277,0,0,0-3.221,0l-2.534,2.533a2.281,2.281,0,0,0,0,3.221l.5.5a2.281,2.281,0,0,0,3.221,0l2.533-2.533a2.277,2.277,0,0,0,0-3.221Zm-1.175,2.046-2.533,2.533a.617.617,0,0,1-.872,0l-.5-.5a.617.617,0,0,1,0-.872l2.533-2.533a.617.617,0,0,1,.872,0l.5.5a.616.616,0,0,1,0,.872Z" transform="translate(-7.004 -130.546)"/></g><g transform="translate(50.006 15.756)"><path d="M158.21,83.781a.831.831,0,1,0,.255,1.642,3.609,3.609,0,1,1,.555,7.175,3.316,3.316,0,0,1-.437-.031.831.831,0,0,0-.216,1.647,4.975,4.975,0,0,0,.653.045,5.27,5.27,0,1,0-.81-10.478Z" transform="translate(-157.507 -83.716)"/></g><g transform="translate(28.737 12.039)"><path d="M115.126,74.97a8.133,8.133,0,0,1-3.509-2.039,1.551,1.551,0,0,0-1.136-.4,1.518,1.518,0,0,0-1.067.531h0c-1.49,1.739-6.964,7.237-14.863,4.987a.831.831,0,0,0-1.058.8v6.334a11.466,11.466,0,1,0,22.931,0V76.59a1.66,1.66,0,0,0-1.3-1.619Zm-.364,10.211a9.8,9.8,0,0,1-19.609,0V79.911c8.133,1.741,13.741-3.723,15.436-5.669a9.637,9.637,0,0,0,4.173,2.347Z" transform="translate(-93.492 -72.527)"/></g><g transform="translate(23.614 16.597)"><path d="M81.442,87.952a18.206,18.206,0,0,0,2.357.856.831.831,0,0,0,.455-1.6,16.506,16.506,0,0,1-2.141-.778,2.18,2.18,0,0,0-2.374.407,5.267,5.267,0,0,0,3.606,9.11,4.89,4.89,0,0,0,.547-.032.831.831,0,1,0-.187-1.651,3.145,3.145,0,0,1-.36.022,3.614,3.614,0,0,1-3.61-3.61,3.567,3.567,0,0,1,1.14-2.627A.521.521,0,0,1,81.442,87.952Z" transform="translate(-78.073 -86.246)"/></g><g transform="translate(24.91)"><path d="M97.267,36.295A15.31,15.31,0,0,0,81.975,51.587v2.579a.831.831,0,1,0,1.661,0V51.587a13.631,13.631,0,0,1,27.262,0v2.521a.831.831,0,0,0,1.661,0V51.587A15.31,15.31,0,0,0,97.267,36.295Z" transform="translate(-81.975 -36.295)"/></g><g transform="translate(24.636 33.426)"><path d="M91.657,136.9a.831.831,0,0,0-.831.831v3.008a2.113,2.113,0,0,1-1.186,1.907l-2.63,1.3a8.461,8.461,0,0,1-1.676.616l-3.559.9a.831.831,0,1,0,.407,1.611l3.558-.9a10.136,10.136,0,0,0,2-.737l2.63-1.3a3.764,3.764,0,0,0,2.113-3.4v-3.008A.831.831,0,0,0,91.657,136.9Z" transform="translate(-81.149 -136.896)"/></g><g transform="translate(44.43 33.388)"><g transform="translate(0 0)"><path d="M151.429,145.375l-3.553-.9a8.492,8.492,0,0,1-1.675-.616l-2.629-1.3a2.113,2.113,0,0,1-1.186-1.907v-3.047a.831.831,0,1,0-1.661,0v3.047a3.764,3.764,0,0,0,2.113,3.4l2.629,1.3a10.135,10.135,0,0,0,2,.737l3.552.9a.831.831,0,0,0,.407-1.611Z" transform="translate(-140.725 -136.782)"/></g></g><g transform="translate(50.443 22.78)"><path d="M164.177,113.951a8.685,8.685,0,0,0,.333-8.626.831.831,0,1,0-1.5.721,6.962,6.962,0,0,1-.237,7.012,2.069,2.069,0,0,0-.1,2.088,5.245,5.245,0,0,1-.05,5.4,6.467,6.467,0,0,1-3.275,2.506.831.831,0,1,0,.6,1.551,8.08,8.08,0,0,0,4.084-3.17,6.957,6.957,0,0,0,.109-7.075A.4.4,0,0,1,164.177,113.951Z" transform="translate(-158.821 -104.854)"/></g><g transform="translate(23.275 22.659)"><path d="M83.228,122.82a6.475,6.475,0,0,1-3.295-2.514,5.243,5.243,0,0,1-.05-5.4,2.071,2.071,0,0,0-.1-2.088,6.981,6.981,0,0,1-.183-7.122.831.831,0,1,0-1.487-.741,8.7,8.7,0,0,0,.269,8.756.4.4,0,0,1,.034.41,6.957,6.957,0,0,0,.109,7.075,8.092,8.092,0,0,0,4.107,3.179.831.831,0,1,0,.592-1.552Z" transform="translate(-77.055 -104.492)"/></g><g transform="translate(17.12 55.89)"><path d="M64.539,205.747l-4.98-1.218a.831.831,0,1,0-.395,1.613l4.98,1.218a.831.831,0,0,0,.395-1.613Z" transform="translate(-58.531 -204.505)"/></g><g transform="translate(56.647 55.911)"><path d="M184.021,205.2a.831.831,0,0,0-1-.609l-4.892,1.2a.831.831,0,1,0,.395,1.613l4.892-1.2A.831.831,0,0,0,184.021,205.2Z" transform="translate(-177.492 -204.568)"/></g></g></g></g></svg>