<svg xmlns="http://www.w3.org/2000/svg" xmlns:xlink="http://www.w3.org/1999/xlink" width="91" height="81" viewBox="0 0 91 81"><defs><clipPath id="a"><rect width="91" height="81" transform="translate(-3551 -6996)" fill="#fff" stroke="#707070" stroke-width="1"/></clipPath></defs><g transform="translate(3551 6996)" clip-path="url(#a)"><g transform="translate(-3546.196 -7059.273)"><g transform="translate(0.795 75.795)"><path d="M5,80H41.722v55.957H5Z" transform="translate(-5 -80)" fill="#747e6c"/><path d="M5,80H40.18v54.431H5Z" transform="translate(-5 -80)" fill="#ebeadf"/><path d="M14.3,87.7H48v53.207H14.3Z" transform="translate(-12.822 -86.476)" fill="#c4c1ab"/><path d="M25,100H55.363v49.6H25Z" transform="translate(-21.821 -96.821)" fill="#993e29"/><path d="M43.711,143.51H25V100H53.5v33.7A9.8,9.8,0,0,1,43.711,143.51Z" transform="translate(-21.821 -96.821)" fill="#b1614a"/><g transform="translate(40.044 20.38)"><g transform="translate(3.418)"><path d="M279.529,223.223l-1.129-1.129a9.048,9.048,0,0,0,0-12.765l1.129-1.129A10.621,10.621,0,0,1,279.529,223.223Z" transform="translate(-278.4 -208.2)" fill="#f3e630"/></g><g transform="translate(0 3.418)"><path d="M258.029,237.887l-1.129-1.129a4.193,4.193,0,0,0,0-5.93l1.129-1.129A5.8,5.8,0,0,1,258.029,237.887Z" transform="translate(-256.9 -229.7)" fill="#f3e630"/></g></g><path d="M158,205h7.36v18.011H158Z" transform="translate(-133.678 -185.129)" fill="#993e29"/><path d="M158,205h5.4v16.215H158Z" transform="translate(-133.678 -185.129)" fill="#bebf31"/><g transform="translate(26.23 27.978)"><path d="M170,256h1.59v5.4H170Z" transform="translate(-170 -256)" fill="#485143"/></g><g transform="translate(26.23 22.574)"><path d="M170,222h1.59v3.02H170Z" transform="translate(-170 -222)" fill="#485143"/></g><g transform="translate(51.029 21.397)"><path d="M487.3,267.528a3.128,3.128,0,0,0,3.132-3.132V254H487.3Z" transform="translate(-461.658 -247.737)" fill="#f7c8a9"/><g transform="translate(0 2.782)"><path d="M332.788,240.35h-5.2a1.59,1.59,0,1,1,0-3.179h5.627l5.1-5.071,2.241,2.257-4.8,4.769A4.253,4.253,0,0,1,332.788,240.35Z" transform="translate(-326 -232.1)" fill="#f7c8a9"/></g><path d="M418.3,292.7h10.969v18.138H418.3Z" transform="translate(-403.627 -280.285)" fill="#485143"/><path d="M418.3,292.7h10.969v2.226H418.3Z" transform="translate(-403.627 -280.285)" fill="#323d2c"/><g transform="translate(19.394 16.914)"><path d="M448,321h1.59v13.671H448Z" transform="translate(-448 -321)" fill="#323d2c"/></g><path d="M384.7,220.339l2.21,2.289,3.132-2.7v7.09H401.01v-6.152h3.132a6.255,6.255,0,0,0-6.263-6.263h-5.1a6.292,6.292,0,0,0-4.594,2Z" transform="translate(-375.369 -214.6)" fill="#b23998"/><g transform="translate(11.541 0.064)"><path d="M398.6,410.722h8.616V406.7h-4.308l-2.48,1.16A3.171,3.171,0,0,0,398.6,410.722Z" transform="translate(-398.6 -376.226)" fill="#751764"/><path d="M461.416,410.722H452.8V406.7h4.308l2.48,1.16A3.171,3.171,0,0,1,461.416,410.722Z" transform="translate(-444.184 -376.226)" fill="#751764"/><path d="M446.405,218.815A6.218,6.218,0,0,0,440.6,215h-5.1l2.114,1.987a6.7,6.7,0,0,0,4.61,1.828Z" transform="translate(-429.634 -215)" fill="#751764"/></g><path d="M487.3,254h3.132v1.653H487.3Z" transform="translate(-461.658 -247.737)" fill="#ef937e"/><path d="M379.486,250.7l-.986,1,2.114,2.353,1.081-1.065Z" transform="translate(-370.154 -244.961)" fill="#ef937e"/><path d="M404.01,413h-3.2l-.3.159a3.105,3.105,0,0,0-1.812,2.861h7.042v-1.288A1.737,1.737,0,0,0,404.01,413Z" transform="translate(-387.143 -381.461)" fill="#b23998"/><path d="M464.349,413h3.2l.3.159a3.105,3.105,0,0,1,1.812,2.861H462.6v-1.288A1.74,1.74,0,0,1,464.349,413Z" transform="translate(-440.885 -381.461)" fill="#b23998"/></g><g transform="translate(64.589 6.836)"><path d="M452.8,157.5H458a1.4,1.4,0,0,0,0-2.8h-5.2Z" transform="translate(-446.203 -149.661)" fill="#ef937e"/><path d="M417.9,154.7h-5.2a1.4,1.4,0,1,0,0,2.8h5.2Z" transform="translate(-411.3 -149.661)" fill="#ef937e"/><path d="M434.127,144.8H425.4v4.356a4.356,4.356,0,1,0,8.711,0V144.8Z" transform="translate(-423.159 -141.335)" fill="#f7c8a9"/><path d="M423.1,123H425.3v3.466l-1.145.684a6.1,6.1,0,0,1-3.148.874H420.1v-2.035A3.009,3.009,0,0,1,423.1,123Z" transform="translate(-418.701 -123)" fill="#485143"/><path d="M454.994,123H452.8v3.466l1.145.684a6.1,6.1,0,0,0,3.148.874H458v-2.035a3,3,0,0,0-3-2.989Z" transform="translate(-446.203 -123)" fill="#485143"/><g transform="translate(4.403 5.723)"><path d="M439,159h1.59v1.59H439Z" transform="translate(-439 -159)" fill="#485143"/></g><g transform="translate(7.106 5.723)"><path d="M456,159h1.59v1.59H456Z" transform="translate(-456 -159)" fill="#485143"/></g><path d="M436.233,130.44H432.72a.62.62,0,0,1,0-1.24h3.513a.621.621,0,0,1,.62.62A.631.631,0,0,1,436.233,130.44Z" transform="translate(-428.793 -128.214)" fill="#747e6c"/></g></g><g transform="translate(0 75)"><path d="M37.517,132.547H.795A.787.787,0,0,1,0,131.752V75.795A.787.787,0,0,1,.795,75H37.517a.787.787,0,0,1,.795.795v55.957A.787.787,0,0,1,37.517,132.547ZM1.59,130.957H36.722V76.59H1.59Z" transform="translate(0 -75)" fill="#060d1a"/><g transform="translate(3.179 3.179)"><path d="M51.158,146.188H20.795a.787.787,0,0,1-.795-.795v-49.6A.787.787,0,0,1,20.795,95H51.158v1.59H21.59V144.6H50.363V98.974h1.59v46.419A.787.787,0,0,1,51.158,146.188Z" transform="translate(-20 -95)" fill="#060d1a"/></g><g transform="translate(40.839 21.175)"><g transform="translate(3.418)"><path d="M279.529,223.223l-1.129-1.129a9.048,9.048,0,0,0,0-12.765l1.129-1.129A10.621,10.621,0,0,1,279.529,223.223Z" transform="translate(-278.4 -208.2)" fill="#060d1a"/></g><g transform="translate(0 3.418)"><path d="M258.029,237.887l-1.129-1.129a4.193,4.193,0,0,0,0-5.93l1.129-1.129A5.8,5.8,0,0,1,258.029,237.887Z" transform="translate(-256.9 -229.7)" fill="#060d1a"/></g></g><g transform="translate(24.322 19.871)"><path d="M159.2,217.8h-5.4a.787.787,0,0,1-.795-.795V200.795a.787.787,0,0,1,.795-.795h5.4a.787.787,0,0,1,.795.795V217.01A.787.787,0,0,1,159.2,217.8Zm-4.61-1.59H158.4V201.59H154.59Z" transform="translate(-153 -200)" fill="#060d1a"/></g><g transform="translate(27.025 28.773)"><path d="M170,256h1.59v5.4H170Z" transform="translate(-170 -256)" fill="#060d1a"/></g><g transform="translate(27.025 23.368)"><path d="M170,222h1.59v3.02H170Z" transform="translate(-170 -222)" fill="#060d1a"/></g><g transform="translate(51.029 21.381)"><g transform="translate(14.673 12.431)"><path d="M423.887,307.428h-9.792a.787.787,0,0,1-.795-.795V288.495a.787.787,0,0,1,.795-.795h10.969a.787.787,0,0,1,.795.795v14.959h-1.59V289.29H414.89v16.549h9Z" transform="translate(-413.3 -287.7)" fill="#060d1a"/></g><g transform="translate(20.189 17.725)"><path d="M448,321h1.59v13.671H448Z" transform="translate(-448 -321)" fill="#060d1a"/></g><g transform="translate(9.331)"><path d="M396.8,223.521H385.835a.787.787,0,0,1-.795-.795v-5.357l-1.812,1.574a.809.809,0,0,1-1.1-.048l-2.21-2.289a.808.808,0,0,1-.016-1.1l3.481-3.752a7.088,7.088,0,0,1,5.167-2.257h5.1a7.063,7.063,0,0,1,7.058,7.058.787.787,0,0,1-.795.795h-2.337v5.357A.778.778,0,0,1,396.8,223.521Zm-10.174-1.59h9.379v-5.357a.787.787,0,0,1,.795-.795h2.273a5.477,5.477,0,0,0-5.4-4.674h-5.1a5.488,5.488,0,0,0-4.006,1.749l-2.973,3.2,1.16,1.208,2.559-2.21a.784.784,0,0,1,1.3.588v6.3Z" transform="translate(-379.699 -209.5)" fill="#060d1a"/></g><g transform="translate(25.642 6.279)"><path d="M483.095,264.118a.787.787,0,0,1-.795-.795V249.795a.787.787,0,0,1,.795-.795h3.132a.787.787,0,0,1,.795.795v10.4A3.935,3.935,0,0,1,483.095,264.118Zm.795-13.528V262.4a2.341,2.341,0,0,0,1.542-2.194V250.59Z" transform="translate(-482.3 -249)" fill="#060d1a"/></g><g transform="translate(11.541 30.554)"><path d="M403.011,407.312h-8.616a.787.787,0,0,1-.795-.795,3.966,3.966,0,0,1,2.273-3.577l2.48-1.16a.855.855,0,0,1,.334-.079H403a.787.787,0,0,1,.795.795v4.022A.764.764,0,0,1,403.011,407.312Zm-7.678-1.59h6.883V403.29h-3.338l-2.321,1.081A2.479,2.479,0,0,0,395.333,405.722Z" transform="translate(-393.6 -401.7)" fill="#060d1a"/></g><g transform="translate(20.157 30.554)"><path d="M457.211,407.312h-8.616a.787.787,0,0,1-.795-.795v-4.022a.787.787,0,0,1,.795-.795H452.9a.793.793,0,0,1,.334.079l2.48,1.16a3.966,3.966,0,0,1,2.273,3.577A.764.764,0,0,1,457.211,407.312Zm-7.821-1.59h6.883a2.349,2.349,0,0,0-1.224-1.335l-2.321-1.081H449.39Z" transform="translate(-447.8 -401.7)" fill="#060d1a"/></g><g transform="translate(0 5.993)"><path d="M328.583,253.845h-5.2a2.385,2.385,0,0,1,0-4.769h5.294l1.892-1.876,1.129,1.129-2.114,2.114a.809.809,0,0,1-.556.238h-5.643a.795.795,0,1,0,0,1.59h5.2a3.378,3.378,0,0,0,2.4-.986l1.8-1.78,1.129,1.129-1.8,1.78A5.073,5.073,0,0,1,328.583,253.845Z" transform="translate(-321 -247.2)" fill="#060d1a"/></g></g><g transform="translate(64.589 6.836)"><g transform="translate(10.953 5.039)"><path d="M476.837,154.088h-.843a.787.787,0,0,1-.795-.795v-2.8a.787.787,0,0,1,.795-.795h.843a2.194,2.194,0,0,1,0,4.388Zm-.032-1.59h.048a.6.6,0,0,0,0-1.208h-.048Z" transform="translate(-475.2 -149.7)" fill="#060d1a"/></g><g transform="translate(0 5.039)"><path d="M409.336,154.088h-.843a2.194,2.194,0,0,1,0-4.388h.843a.787.787,0,0,1,.795.795v2.8A.808.808,0,0,1,409.336,154.088Zm-.843-2.8a.6.6,0,0,0,0,1.208h.048V151.29Z" transform="translate(-406.3 -149.7)" fill="#060d1a"/></g><g transform="translate(5.198 6.518)"><path d="M439,159h1.59v1.59H439Z" transform="translate(-439 -159)" fill="#060d1a"/></g><g transform="translate(7.901 6.518)"><path d="M456,159h1.59v1.59H456Z" transform="translate(-456 -159)" fill="#060d1a"/></g><g transform="translate(2.241 5.834)"><path d="M425.551,162.648A5.16,5.16,0,0,1,420.4,157.5v-2.8h1.59v2.8a3.561,3.561,0,0,0,7.122,0v-2.8h1.59v2.8A5.139,5.139,0,0,1,425.551,162.648Z" transform="translate(-420.4 -154.7)" fill="#060d1a"/></g><g transform="translate(1.399)"><path d="M416.8,124.629h-.906a.787.787,0,0,1-.795-.795V121.8a3.8,3.8,0,0,1,3.8-3.8h2.194a.787.787,0,0,1,.795.795v3.466a.787.787,0,0,1-.382.684l-1.145.684A6.886,6.886,0,0,1,416.8,124.629Zm-.111-1.59h.111a5.431,5.431,0,0,0,2.75-.763l.763-.461V119.59H418.9a2.2,2.2,0,0,0-2.21,2.21Z" transform="translate(-415.1 -118)" fill="#060d1a"/></g><g transform="translate(6.597)"><path d="M453.793,124.629h-.906a7.024,7.024,0,0,1-3.561-.986l-1.145-.684a.787.787,0,0,1-.382-.684v-3.481a.787.787,0,0,1,.795-.795h2.194a3.8,3.8,0,0,1,3.8,3.8v2.035A.8.8,0,0,1,453.793,124.629Zm-4.4-2.814.763.461a5.388,5.388,0,0,0,2.75.763h.111V121.8a2.2,2.2,0,0,0-2.21-2.21h-1.4v2.226Z" transform="translate(-447.8 -118)" fill="#060d1a"/></g></g></g></g></g></svg>