<svg xmlns="http://www.w3.org/2000/svg" width="73.722" height="78.317" viewBox="0 0 73.722 78.317">
  <g id="Layer_23" transform="translate(-27.754 -14.583)">
    <g id="Grupo_950348" data-name="Grupo 950348" transform="translate(27.754 14.583)">
      <g id="Grupo_950302" data-name="Grupo 950302" transform="translate(1.131 67.035)">
        <path id="Trazado_636053" data-name="Trazado 636053" d="M81.346,179.62l-4.721-1.188a20.939,20.939,0,0,1-4.444-1.7,3.012,3.012,0,0,1-1.68-2.7v-1.419a8.649,8.649,0,0,1-8.034,0v1.419a3.013,3.013,0,0,1-1.68,2.7,20.487,20.487,0,0,1-4.444,1.7l-4.721,1.188a3.441,3.441,0,0,0-2.6,3.146H83.942a3.44,3.44,0,0,0-2.6-3.146Z" transform="translate(-49.026 -172.615)" fill="#fca265"/>
      </g>
      <g id="Grupo_950303" data-name="Grupo 950303" transform="translate(9.87 48.383)">
        <path id="Trazado_636054" data-name="Trazado 636054" d="M84.534,131.88a1.6,1.6,0,0,0-2.147-.143,8.757,8.757,0,0,1-10.654-.005,1.6,1.6,0,0,0-2.144.146l0,0a4.509,4.509,0,0,0-1.246,3.111v7.318a8.72,8.72,0,0,0,17.439,0v-7.318a4.512,4.512,0,0,0-1.246-3.112Z" transform="translate(-68.341 -131.387)" fill="#f9d0b4"/>
      </g>
      <g id="Grupo_950304" data-name="Grupo 950304" transform="translate(27.286 52.66)">
        <path id="Trazado_636055" data-name="Trazado 636055" d="M107.419,140.84a3.626,3.626,0,0,0-.56.044v6.6c0,.2-.009.391-.022.585a3.638,3.638,0,1,0,.582-7.23Z" transform="translate(-106.837 -140.84)" fill="#f9d0b4"/>
      </g>
      <g id="Grupo_950305" data-name="Grupo 950305" transform="translate(5.67 52.66)">
        <path id="Trazado_636056" data-name="Trazado 636056" d="M63.258,147.486v-6.6a3.64,3.64,0,1,0-.56,7.237,3.67,3.67,0,0,0,.581-.051C63.267,147.877,63.258,147.683,63.258,147.486Z" transform="translate(-59.058 -140.841)" fill="#f9d0b4"/>
      </g>
      <g id="Grupo_950306" data-name="Grupo 950306" transform="translate(7.478 39.55)">
        <path id="Trazado_636057" data-name="Trazado 636057" d="M82.852,117.536a.54.54,0,0,1-.549-.517c-.067-4.859-5.615-5.772-11.141-4.817a9.769,9.769,0,0,0-8.108,9.625v3.645a3.6,3.6,0,0,1,2.392-.454V124.3a4.51,4.51,0,0,1,1.246-3.111l0,0a1.6,1.6,0,0,1,2.144-.146,8.757,8.757,0,0,0,10.654.005,1.6,1.6,0,0,1,2.147.143,4.509,4.509,0,0,1,1.246,3.111v.717a3.6,3.6,0,0,1,2.411.466V122.49C85.3,118.14,83.725,117.536,82.852,117.536Z" transform="translate(-63.054 -111.864)" fill="#754e34"/>
      </g>
      <g id="Grupo_950307" data-name="Grupo 950307" transform="translate(37.675 67.035)">
        <path id="Trazado_636058" data-name="Trazado 636058" d="M162.12,179.62l-4.721-1.188a20.938,20.938,0,0,1-4.444-1.7,3.012,3.012,0,0,1-1.68-2.7v-1.419a8.649,8.649,0,0,1-8.034,0v1.419a3.013,3.013,0,0,1-1.68,2.7,20.487,20.487,0,0,1-4.444,1.7L132.4,179.62a3.441,3.441,0,0,0-2.6,3.146h34.916A3.441,3.441,0,0,0,162.12,179.62Z" transform="translate(-129.8 -172.615)" fill="#fc657e"/>
      </g>
      <g id="Grupo_950308" data-name="Grupo 950308" transform="translate(46.414 48.383)">
        <path id="Trazado_636059" data-name="Trazado 636059" d="M165.307,131.88a1.6,1.6,0,0,0-2.147-.143,8.757,8.757,0,0,1-10.654-.005,1.6,1.6,0,0,0-2.144.146l0,0a4.509,4.509,0,0,0-1.246,3.111v7.318a8.72,8.72,0,0,0,17.439,0v-7.318a4.512,4.512,0,0,0-1.246-3.112Z" transform="translate(-149.114 -131.387)" fill="#f9d0b4"/>
      </g>
      <g id="Grupo_950309" data-name="Grupo 950309" transform="translate(63.83 52.66)">
        <path id="Trazado_636060" data-name="Trazado 636060" d="M188.192,140.84a3.625,3.625,0,0,0-.56.044v6.6c0,.2-.009.391-.022.585a3.638,3.638,0,1,0,.582-7.23Z" transform="translate(-187.61 -140.84)" fill="#f9d0b4"/>
      </g>
      <g id="Grupo_950310" data-name="Grupo 950310" transform="translate(42.214 52.66)">
        <path id="Trazado_636061" data-name="Trazado 636061" d="M144.031,147.486v-6.6a3.64,3.64,0,1,0-.56,7.237,3.67,3.67,0,0,0,.581-.051C144.04,147.877,144.031,147.683,144.031,147.486Z" transform="translate(-139.831 -140.841)" fill="#f9d0b4"/>
      </g>
      <g id="Grupo_950311" data-name="Grupo 950311" transform="translate(44.022 39.55)">
        <path id="Trazado_636062" data-name="Trazado 636062" d="M163.625,117.536a.54.54,0,0,1-.549-.517c-.067-4.859-5.615-5.772-11.141-4.817a9.769,9.769,0,0,0-8.108,9.625v3.645a3.6,3.6,0,0,1,2.392-.454V124.3a4.509,4.509,0,0,1,1.246-3.111l0,0a1.6,1.6,0,0,1,2.144-.146,8.757,8.757,0,0,0,10.654.005,1.6,1.6,0,0,1,2.147.143,4.509,4.509,0,0,1,1.246,3.111v.717a3.6,3.6,0,0,1,2.411.466V122.49c0-4.35-1.571-4.954-2.444-4.954Z" transform="translate(-143.827 -111.864)" fill="#fcdd86"/>
      </g>
      <g id="Grupo_950312" data-name="Grupo 950312" transform="translate(19.403 28.617)">
        <path id="Trazado_636063" data-name="Trazado 636063" d="M121.733,94.7l-4.721-1.188a20.938,20.938,0,0,1-4.444-1.7,3.012,3.012,0,0,1-1.68-2.7V87.7a8.649,8.649,0,0,1-8.034,0v1.419a3.012,3.012,0,0,1-1.68,2.7,20.485,20.485,0,0,1-4.444,1.7L92.009,94.7a3.441,3.441,0,0,0-2.6,3.145h34.916A3.441,3.441,0,0,0,121.733,94.7Z" transform="translate(-89.413 -87.699)" fill="#5290db"/>
      </g>
      <g id="Grupo_950313" data-name="Grupo 950313" transform="translate(28.141 9.965)">
        <path id="Trazado_636064" data-name="Trazado 636064" d="M124.92,46.965a1.6,1.6,0,0,0-2.147-.143,8.757,8.757,0,0,1-10.654-.005,1.6,1.6,0,0,0-2.144.146l0,0a4.509,4.509,0,0,0-1.246,3.111v7.318a8.72,8.72,0,1,0,17.439,0V50.076a4.507,4.507,0,0,0-1.246-3.111Z" transform="translate(-108.727 -46.472)" fill="#f9d0b4"/>
      </g>
      <g id="Grupo_950314" data-name="Grupo 950314" transform="translate(45.558 14.242)">
        <path id="Trazado_636065" data-name="Trazado 636065" d="M147.8,55.925a3.625,3.625,0,0,0-.56.044v6.6c0,.2-.009.391-.022.585a3.638,3.638,0,1,0,.582-7.23Z" transform="translate(-147.223 -55.925)" fill="#f9d0b4"/>
      </g>
      <g id="Grupo_950315" data-name="Grupo 950315" transform="translate(23.942 14.242)">
        <path id="Trazado_636066" data-name="Trazado 636066" d="M103.644,62.57v-6.6a3.64,3.64,0,1,0-.56,7.237,3.668,3.668,0,0,0,.581-.051C103.653,62.961,103.644,62.767,103.644,62.57Z" transform="translate(-99.444 -55.925)" fill="#f9d0b4"/>
      </g>
      <g id="Grupo_950316" data-name="Grupo 950316" transform="translate(25.75 1.132)">
        <path id="Trazado_636067" data-name="Trazado 636067" d="M123.239,32.621a.54.54,0,0,1-.549-.517c-.067-4.859-5.615-5.772-11.141-4.817a9.769,9.769,0,0,0-8.108,9.625v3.645a3.6,3.6,0,0,1,2.392-.454v-.717a4.51,4.51,0,0,1,1.246-3.111l0,0a1.6,1.6,0,0,1,2.144-.146,8.757,8.757,0,0,0,10.654.005,1.6,1.6,0,0,1,2.147.143,4.509,4.509,0,0,1,1.246,3.111V40.1a3.6,3.6,0,0,1,2.411.466V37.575c0-4.35-1.571-4.954-2.444-4.954Z" transform="translate(-103.441 -26.949)" fill="#5b5d60"/>
      </g>
      <g id="Grupo_950317" data-name="Grupo 950317" transform="translate(12.415 67.035)">
        <path id="Trazado_636068" data-name="Trazado 636068" d="M74.443,176.734q-.242.119-.477.233a6.558,6.558,0,0,0,12.346.008c-.309-.15-.482-.245-.475-.241a3.012,3.012,0,0,1-1.68-2.7v-1.419a8.649,8.649,0,0,1-8.034,0v1.419a3.012,3.012,0,0,1-1.68,2.7Z" transform="translate(-73.966 -172.613)" fill="#f9d0b4"/>
      </g>
      <g id="Grupo_950318" data-name="Grupo 950318" transform="translate(48.959 67.035)">
        <path id="Trazado_636069" data-name="Trazado 636069" d="M155.216,176.734q-.242.119-.477.233a6.558,6.558,0,0,0,12.346.008c-.309-.15-.482-.245-.475-.241a3.012,3.012,0,0,1-1.68-2.7v-1.419a8.649,8.649,0,0,1-8.034,0v1.419a3.011,3.011,0,0,1-1.68,2.7Z" transform="translate(-154.739 -172.613)" fill="#f9d0b4"/>
      </g>
      <g id="Grupo_950319" data-name="Grupo 950319" transform="translate(30.687 28.617)">
        <path id="Trazado_636070" data-name="Trazado 636070" d="M114.83,91.819q-.242.119-.477.233a6.558,6.558,0,0,0,12.346.008c-.309-.15-.482-.245-.475-.241a3.012,3.012,0,0,1-1.68-2.7V87.7a8.649,8.649,0,0,1-8.034,0v1.419A3.013,3.013,0,0,1,114.83,91.819Z" transform="translate(-114.353 -87.698)" fill="#f9d0b4"/>
      </g>
      <g id="Grupo_950325" data-name="Grupo 950325" transform="translate(0 66.23)">
        <path id="Trazado_636074" data-name="Trazado 636074" d="M47.658,182.921l-.064,0a1.131,1.131,0,0,1-1.066-1.192,4.552,4.552,0,0,1,3.449-4.18l4.721-1.188a19.535,19.535,0,0,0,4.22-1.614,1.869,1.869,0,0,0,1.049-1.687v-1.094a1.131,1.131,0,0,1,2.262,0v1.094a4.117,4.117,0,0,1-2.311,3.716,21.524,21.524,0,0,1-4.668,1.779l-4.721,1.188a2.3,2.3,0,0,0-1.743,2.111,1.13,1.13,0,0,1-1.128,1.068Z" transform="translate(-46.526 -170.834)"/>
      </g>
      <g id="Grupo_950326" data-name="Grupo 950326" transform="translate(21.475 66.229)">
        <path id="Trazado_636075" data-name="Trazado 636075" d="M108.563,182.921a1.131,1.131,0,0,1-1.128-1.068,2.3,2.3,0,0,0-1.742-2.111l-4.721-1.188a22.389,22.389,0,0,1-3.327-1.141,11.375,11.375,0,0,1-1.4-.667,4.117,4.117,0,0,1-2.254-3.687v-1.094a1.131,1.131,0,1,1,2.262,0v1.094a1.87,1.87,0,0,0,1.049,1.687l.055.028a20.145,20.145,0,0,0,4.166,1.585l4.721,1.188a4.552,4.552,0,0,1,3.449,4.18,1.131,1.131,0,0,1-1.066,1.192l-.065,0Z" transform="translate(-93.992 -170.833)"/>
      </g>
      <g id="Grupo_950327" data-name="Grupo 950327" transform="translate(8.739 47.249)">
        <path id="Trazado_636076" data-name="Trazado 636076" d="M75.691,150.788a9.862,9.862,0,0,1-9.85-9.851v-7.318a5.617,5.617,0,0,1,1.558-3.892,2.722,2.722,0,0,1,3.662-.259,7.627,7.627,0,0,0,9.259.007,2.721,2.721,0,0,1,3.664.252,5.617,5.617,0,0,1,1.558,3.892v7.318A9.861,9.861,0,0,1,75.691,150.788Zm-6.323-19.642a.451.451,0,0,0-.329.14,3.366,3.366,0,0,0-.936,2.334v7.318a7.588,7.588,0,1,0,15.176,0v-7.318a3.363,3.363,0,0,0-.933-2.33.468.468,0,0,0-.63-.034,9.888,9.888,0,0,1-12.049,0,.48.48,0,0,0-.3-.1Z" transform="translate(-65.841 -128.881)"/>
      </g>
      <g id="Grupo_950328" data-name="Grupo 950328" transform="translate(26.737 51.529)">
        <path id="Trazado_636077" data-name="Trazado 636077" d="M106.754,147.884a1.131,1.131,0,1,1,0-2.262,2.509,2.509,0,1,0,0-5.018,1.131,1.131,0,1,1,0-2.262,4.771,4.771,0,1,1,0,9.543Z" transform="translate(-105.623 -138.341)"/>
      </g>
      <g id="Grupo_950329" data-name="Grupo 950329" transform="translate(4.539 51.529)">
        <path id="Trazado_636078" data-name="Trazado 636078" d="M61.329,147.884a4.771,4.771,0,1,1,0-9.543,1.131,1.131,0,1,1,0,2.262,2.509,2.509,0,1,0,0,5.018,1.131,1.131,0,1,1,0,2.262Z" transform="translate(-56.558 -138.341)"/>
      </g>
      <g id="Grupo_950330" data-name="Grupo 950330" transform="translate(6.346 38.418)">
        <path id="Trazado_636079" data-name="Trazado 636079" d="M83.927,124.962a1.131,1.131,0,0,1-1.131-1.131V121.12c0-2.323-.515-3.824-1.313-3.824a1.675,1.675,0,0,1-1.68-1.633,3.345,3.345,0,0,0-1.192-2.693c-1.569-1.3-4.793-1.686-8.626-1.026a8.62,8.62,0,0,0-7.17,8.511v3.295a1.131,1.131,0,0,1-2.262,0v-3.295a10.878,10.878,0,0,1,9.047-10.74c2.668-.461,7.576-.877,10.456,1.514a5.532,5.532,0,0,1,1.98,3.856c1.2.228,3.022,1.347,3.022,6.034v2.711A1.13,1.13,0,0,1,83.927,124.962Z" transform="translate(-60.553 -109.361)"/>
      </g>
      <g id="Grupo_950331" data-name="Grupo 950331" transform="translate(36.544 66.089)">
        <path id="Trazado_636080" data-name="Trazado 636080" d="M128.432,182.75l-.064,0a1.131,1.131,0,0,1-1.066-1.192,4.552,4.552,0,0,1,3.449-4.18l4.721-1.188a19.544,19.544,0,0,0,4.22-1.614,1.869,1.869,0,0,0,1.049-1.687v-1.235a1.131,1.131,0,1,1,2.262,0v1.235a4.117,4.117,0,0,1-2.311,3.716,21.51,21.51,0,0,1-4.668,1.779l-4.721,1.188a2.3,2.3,0,0,0-1.743,2.111A1.131,1.131,0,0,1,128.432,182.75Z" transform="translate(-127.3 -170.522)"/>
      </g>
      <g id="Grupo_950332" data-name="Grupo 950332" transform="translate(58.019 66.23)">
        <path id="Trazado_636081" data-name="Trazado 636081" d="M189.336,182.921a1.131,1.131,0,0,1-1.128-1.068,2.3,2.3,0,0,0-1.743-2.111l-4.721-1.188a22.379,22.379,0,0,1-3.327-1.141,11.421,11.421,0,0,1-1.4-.667,4.116,4.116,0,0,1-2.253-3.687v-1.094a1.131,1.131,0,0,1,2.262,0v1.094a1.87,1.87,0,0,0,1.049,1.687l.055.029a20.124,20.124,0,0,0,4.165,1.585l4.721,1.188a4.551,4.551,0,0,1,3.449,4.18,1.132,1.132,0,0,1-1.066,1.192Z" transform="translate(-174.765 -170.834)"/>
      </g>
      <g id="Grupo_950333" data-name="Grupo 950333" transform="translate(45.283 47.249)">
        <path id="Trazado_636082" data-name="Trazado 636082" d="M156.465,150.788a9.861,9.861,0,0,1-9.85-9.851V133.62a5.616,5.616,0,0,1,1.558-3.892,2.722,2.722,0,0,1,3.662-.259,7.627,7.627,0,0,0,9.258.007,2.723,2.723,0,0,1,3.664.252h0a5.616,5.616,0,0,1,1.558,3.892v7.318A9.862,9.862,0,0,1,156.465,150.788Zm-6.324-19.642a.45.45,0,0,0-.329.14,3.363,3.363,0,0,0-.936,2.334v7.318a7.588,7.588,0,1,0,15.176,0v-7.318a3.363,3.363,0,0,0-.933-2.33.468.468,0,0,0-.631-.033,9.888,9.888,0,0,1-12.05,0A.476.476,0,0,0,150.142,131.146Z" transform="translate(-146.615 -128.881)"/>
      </g>
      <g id="Grupo_950334" data-name="Grupo 950334" transform="translate(63.281 51.529)">
        <path id="Trazado_636083" data-name="Trazado 636083" d="M187.527,147.884a1.131,1.131,0,1,1,0-2.262,2.509,2.509,0,0,0,0-5.018,1.131,1.131,0,1,1,0-2.262,4.771,4.771,0,1,1,0,9.543Z" transform="translate(-186.396 -138.341)"/>
      </g>
      <g id="Grupo_950335" data-name="Grupo 950335" transform="translate(41.083 51.529)">
        <path id="Trazado_636084" data-name="Trazado 636084" d="M142.1,147.884a4.771,4.771,0,1,1,0-9.543,1.131,1.131,0,1,1,0,2.262,2.509,2.509,0,0,0,0,5.018,1.131,1.131,0,1,1,0,2.262Z" transform="translate(-137.331 -138.341)"/>
      </g>
      <g id="Grupo_950336" data-name="Grupo 950336" transform="translate(42.891 38.418)">
        <path id="Trazado_636085" data-name="Trazado 636085" d="M142.458,125.014a1.131,1.131,0,0,1-1.131-1.131v-3.426a10.877,10.877,0,0,1,9.047-10.74c2.669-.461,7.576-.877,10.456,1.514a5.533,5.533,0,0,1,1.98,3.856c1.2.228,3.022,1.348,3.022,6.034v2.668a1.131,1.131,0,1,1-2.262,0v-2.668c0-2.323-.516-3.824-1.313-3.824a1.674,1.674,0,0,1-1.68-1.633,3.344,3.344,0,0,0-1.192-2.693c-1.57-1.3-4.8-1.686-8.625-1.026a8.62,8.62,0,0,0-7.17,8.511v3.426a1.131,1.131,0,0,1-1.131,1.132Z" transform="translate(-141.327 -109.362)"/>
      </g>
      <g id="Grupo_950337" data-name="Grupo 950337" transform="translate(18.272 27.868)">
        <path id="Trazado_636086" data-name="Trazado 636086" d="M88.045,98.075l-.064,0a1.131,1.131,0,0,1-1.066-1.192A4.552,4.552,0,0,1,90.364,92.7l4.721-1.188A19.564,19.564,0,0,0,99.3,89.9a1.87,1.87,0,0,0,1.049-1.687V87.175a1.131,1.131,0,1,1,2.262,0v1.037a4.116,4.116,0,0,1-2.311,3.716,21.529,21.529,0,0,1-4.668,1.779L90.916,94.9a2.3,2.3,0,0,0-1.743,2.111A1.131,1.131,0,0,1,88.045,98.075Z" transform="translate(-86.913 -86.044)"/>
      </g>
      <g id="Grupo_950338" data-name="Grupo 950338" transform="translate(39.747 27.868)">
        <path id="Trazado_636087" data-name="Trazado 636087" d="M148.949,98.075a1.131,1.131,0,0,1-1.128-1.068,2.3,2.3,0,0,0-1.743-2.111l-4.721-1.188a22.378,22.378,0,0,1-3.327-1.141,11.424,11.424,0,0,1-1.4-.667,4.116,4.116,0,0,1-2.253-3.687V87.175a1.131,1.131,0,1,1,2.262,0v1.037a1.87,1.87,0,0,0,1.049,1.687l.056.029a20.1,20.1,0,0,0,4.165,1.585L146.63,92.7a4.551,4.551,0,0,1,3.449,4.18,1.132,1.132,0,0,1-1.066,1.192Z" transform="translate(-134.378 -86.044)"/>
      </g>
      <g id="Grupo_950339" data-name="Grupo 950339" transform="translate(27.011 8.831)">
        <path id="Trazado_636088" data-name="Trazado 636088" d="M116.078,65.872a9.862,9.862,0,0,1-9.85-9.851V48.7a5.617,5.617,0,0,1,1.558-3.892,2.722,2.722,0,0,1,3.662-.259,7.627,7.627,0,0,0,9.258.007,2.723,2.723,0,0,1,3.664.252h0a5.614,5.614,0,0,1,1.558,3.892v7.318A9.862,9.862,0,0,1,116.078,65.872ZM109.755,46.23a.451.451,0,0,0-.329.14,3.366,3.366,0,0,0-.936,2.334v7.318a7.588,7.588,0,1,0,15.176,0V48.7a3.361,3.361,0,0,0-.933-2.33.468.468,0,0,0-.631-.033,9.888,9.888,0,0,1-12.049,0A.479.479,0,0,0,109.755,46.23Z" transform="translate(-106.228 -43.965)"/>
      </g>
      <g id="Grupo_950340" data-name="Grupo 950340" transform="translate(45.009 13.111)">
        <path id="Trazado_636089" data-name="Trazado 636089" d="M147.141,62.969a1.131,1.131,0,0,1,0-2.262,2.509,2.509,0,1,0,0-5.018,1.131,1.131,0,0,1,0-2.262,4.771,4.771,0,1,1,0,9.543Z" transform="translate(-146.01 -53.426)"/>
      </g>
      <g id="Grupo_950341" data-name="Grupo 950341" transform="translate(22.811 13.111)">
        <path id="Trazado_636090" data-name="Trazado 636090" d="M101.716,62.969a4.771,4.771,0,0,1,0-9.543,1.131,1.131,0,0,1,0,2.262,2.509,2.509,0,0,0,0,5.018,1.131,1.131,0,0,1,0,2.262Z" transform="translate(-96.945 -53.426)"/>
      </g>
      <g id="Grupo_950342" data-name="Grupo 950342" transform="translate(24.619)">
        <path id="Trazado_636091" data-name="Trazado 636091" d="M124.314,40.127A1.131,1.131,0,0,1,123.183,39v-2.79c0-2.323-.516-3.824-1.313-3.824a1.674,1.674,0,0,1-1.68-1.633A3.345,3.345,0,0,0,119,28.056c-1.57-1.3-4.8-1.687-8.625-1.026a8.62,8.62,0,0,0-7.17,8.511v3.323a1.131,1.131,0,0,1-2.262,0V35.541a10.878,10.878,0,0,1,9.047-10.74c2.669-.461,7.576-.877,10.455,1.514a5.532,5.532,0,0,1,1.98,3.856c1.2.228,3.022,1.348,3.022,6.034V39a1.131,1.131,0,0,1-1.131,1.131Z" transform="translate(-100.941 -24.447)"/>
      </g>
      <g id="Grupo_950345" data-name="Grupo 950345" transform="translate(11.441 70.619)">
        <path id="Trazado_636093" data-name="Trazado 636093" d="M78.961,186.784a7.7,7.7,0,0,1-7.053-4.631,1.131,1.131,0,0,1,2.073-.906,5.425,5.425,0,0,0,9.973-.028,1.131,1.131,0,0,1,2.078.894,7.7,7.7,0,0,1-7.071,4.671Z" transform="translate(-71.813 -180.535)"/>
      </g>
      <g id="Grupo_950346" data-name="Grupo 950346" transform="translate(48.012 70.649)">
        <path id="Trazado_636094" data-name="Trazado 636094" d="M159.768,186.821a7.716,7.716,0,0,1-7.023-4.562,1.131,1.131,0,0,1,2.064-.926,5.425,5.425,0,0,0,9.941-.052,1.131,1.131,0,1,1,2.073.9A7.706,7.706,0,0,1,159.768,186.821Z" transform="translate(-152.646 -180.601)"/>
      </g>
      <g id="Grupo_950347" data-name="Grupo 950347" transform="translate(29.699 32.202)">
        <path id="Trazado_636095" data-name="Trazado 636095" d="M119.331,101.871a7.7,7.7,0,0,1-7.07-4.669,1.131,1.131,0,1,1,2.078-.894,5.425,5.425,0,0,0,9.976.021,1.131,1.131,0,1,1,2.074.9,7.7,7.7,0,0,1-7.057,4.639Z" transform="translate(-112.169 -95.623)"/>
      </g>
    </g>
  </g>
</svg>
