<svg xmlns="http://www.w3.org/2000/svg" xmlns:xlink="http://www.w3.org/1999/xlink" width="91" height="81" viewBox="0 0 91 81"><defs><clipPath id="a"><rect width="91" height="81" transform="translate(-3551 -6996)" fill="#fff" stroke="#707070" stroke-width="1"/></clipPath></defs><g transform="translate(3551 6996)" clip-path="url(#a)"><g transform="translate(-3540.963 -6990.963)"><path d="M59.44,1V5.5H1V1Z" transform="translate(0.124 0.124)" fill="#a37862"/><path d="M59.44,3V5.248H1V3Z" transform="translate(0.124 0.372)" fill="#966857"/><path d="M28.239,9V20.239H17A11.239,11.239,0,0,1,28.239,9Z" transform="translate(2.106 1.115)" fill="#ff7d81"/><path d="M36.106,26.867l.079.079A11.239,11.239,0,0,1,17,19H28.239Z" transform="translate(2.106 2.353)" fill="#ffac5a"/><path d="M27,9a11.239,11.239,0,0,1,7.946,19.184l-.079-.079L27,20.239Z" transform="translate(3.344 1.115)" fill="#80dbff"/><path d="M56.945,5V25.229l-.011.067a9.1,9.1,0,0,0-1.113-.067A8.991,8.991,0,0,0,46.83,34.22v3.372H45.707V39.84a2.254,2.254,0,0,0,2.248,2.248h1.124v1.124a6.68,6.68,0,0,0,1.978,4.765,6.464,6.464,0,0,0,1.394,1.068V52.2H41.211l-5.619-5.619-5.619-5.619-2.248,2.248,2.248,2.248v2.248l2.248,2.248L34.468,52.2H3V5ZM41.211,20.734a11.239,11.239,0,1,0-3.293,7.946,11.239,11.239,0,0,0,3.293-7.946Z" transform="translate(0.372 0.619)" fill="#f0f0f0"/><path d="M32.867,42.619,29.5,45.991l-2.248-2.248V41.5L25,39.248,27.248,37Z" transform="translate(3.096 4.583)" fill="#ffcdbe"/><path d="M58.991,64.982H50V50.372L53.372,47,64.61,50.372v14.61Z" transform="translate(6.193 5.821)" fill="#80dbff"/><path d="M53.372,47,50,50.372v2.248a7.979,7.979,0,0,1,7.939-2l6.671,2V50.372Z" transform="translate(6.193 5.821)" fill="#19cffc"/><path d="M59.372,34v2.248A2.254,2.254,0,0,1,57.124,38.5H56V34Z" transform="translate(6.936 4.211)" fill="#e09380"/><path d="M54.115,45.824a6.7,6.7,0,0,1-6.743,0,6.464,6.464,0,0,1-1.394-1.068A6.68,6.68,0,0,1,44,39.991V34.372A3.3,3.3,0,0,0,47.372,31s0,3.372,10.115,3.372v5.619a6.726,6.726,0,0,1-3.372,5.833Z" transform="translate(5.45 3.84)" fill="#ffcdbe"/><path d="M47.372,31A3.3,3.3,0,0,1,44,34.372v3.372a3.3,3.3,0,0,0,3.372-3.372s0,3.372,10.115,3.372V34.372C47.372,34.372,47.372,31,47.372,31Z" transform="translate(5.45 3.84)" fill="#faa68e"/><path d="M53.743,44.19v3.158L50.372,50.72,47,47.348V44.19A6.7,6.7,0,0,0,53.743,44.19Z" transform="translate(5.821 5.473)" fill="#e09380"/><path d="M52.6,50.991V65.6H43.61V53.239H36.867l-5.619-5.619L29,45.372,32.372,42l5.619,5.619H49.229Z" transform="translate(3.592 5.202)" fill="#b5efff"/><path d="M49.229,47.619H37.991L32.372,42,29,45.372,30.124,46.5a3.178,3.178,0,0,1,4.5,0l3.372,3.372h6.47A11.511,11.511,0,0,1,52.6,53.239V50.991Z" transform="translate(3.592 5.202)" fill="#80dbff"/><path d="M44.372,34v4.5H43.248A2.254,2.254,0,0,1,41,36.248V34Z" transform="translate(5.078 4.211)" fill="#e09380"/><g transform="translate(7.867 35.963)"><path d="M26,47h2.248V57.115H26Z" transform="translate(-4.647 -30.142)" fill="#848484"/><path d="M7,32H9.248v2.248H7Z" transform="translate(-7 -32)" fill="#848484"/><path d="M11,32H42.468v2.248H11Z" transform="translate(-6.505 -32)" fill="#848484"/><path d="M7,36H23.858v2.248H7Z" transform="translate(-7 -31.505)" fill="#848484"/><path d="M31,36h8.991v2.248H31Z" transform="translate(-4.027 -31.505)" fill="#848484"/><path d="M7,40H23.858v2.248H7Z" transform="translate(-7 -31.009)" fill="#848484"/><path d="M35,40h6.743v2.248H35Z" transform="translate(-3.532 -31.009)" fill="#848484"/></g><path d="M3,5H7.5V52.2H3Z" transform="translate(0.372 0.619)" fill="#d9d9d9"/><path d="M47,5h4.5V30.849H47Z" transform="translate(5.821 0.619)" fill="#d9d9d9"/><path d="M59.982,31.991v3.372H57.734c-10.115,0-10.115-3.372-10.115-3.372a3.3,3.3,0,0,1-3.372,3.372H42V31.991a8.991,8.991,0,1,1,17.982,0Z" transform="translate(5.202 2.849)" fill="#966857"/><path d="M47.619,29a3.3,3.3,0,0,1-3.372,3.372H42v2.248h2.248a3.3,3.3,0,0,0,3.372-3.372s0,3.372,10.115,3.372h2.248V32.372H57.734C47.619,32.372,47.619,29,47.619,29Z" transform="translate(5.202 3.592)" fill="#8d5c4d"/><path d="M28.239,12.372V9A11.239,11.239,0,0,0,17,20.239h3.372a7.867,7.867,0,0,1,7.867-7.867Z" transform="translate(2.106 1.115)" fill="#ff636e"/><path d="M33.8,24.563A7.867,7.867,0,0,1,20.372,19H17a11.239,11.239,0,0,0,19.184,7.946l-.079-.079Z" transform="translate(2.106 2.353)" fill="#fc9942"/><path d="M27,9v3.372A7.867,7.867,0,0,1,32.563,25.8l2.3,2.3.079.079A11.239,11.239,0,0,0,27,9Z" transform="translate(3.344 1.115)" fill="#19cffc"/><ellipse cx="2.5" cy="2" rx="2.5" ry="2" transform="translate(27.963 61.963)" fill="#ff636e"/><path d="M26.124,57.248A2.248,2.248,0,0,1,27.81,55.08a2.21,2.21,0,0,0-.562-.08,2.248,2.248,0,1,0,0,4.5,2.21,2.21,0,0,0,.562-.08A2.248,2.248,0,0,1,26.124,57.248Z" transform="translate(3.096 6.812)" fill="#ff475a"/><path d="M71.125,55.116,60.688,51.985V50.277A7.857,7.857,0,0,0,64.06,43.83a3.372,3.372,0,0,0,3.372-3.372V38.211a1.124,1.124,0,0,0-1.124-1.124V34.84a10.115,10.115,0,1,0-20.229,0v2.248a1.124,1.124,0,0,0-1.124,1.124v2.248a3.372,3.372,0,0,0,3.372,3.372A7.858,7.858,0,0,0,51.7,50.277V51.7H42.048l-5.29-5.29-5.619-5.619a1.124,1.124,0,0,0-1.589,0L27.3,43.036a1.124,1.124,0,0,0,0,1.589l1.918,1.918v1.782a1.124,1.124,0,0,0,.329.794L31.8,51.368l.329.329H4.5V6.743h51.7V23.6H58.44V6.743h1.124a1.124,1.124,0,0,0,1.124-1.124v-4.5A1.124,1.124,0,0,0,59.564,0H1.124A1.124,1.124,0,0,0,0,1.124v4.5A1.124,1.124,0,0,0,1.124,6.743H2.248V52.821a1.124,1.124,0,0,0,1.124,1.124H29.22v6.95a3.372,3.372,0,1,0,2.248,0v-6.95h2.906l5.29,5.29a1.124,1.124,0,0,0,.795.329h5.619V70.8A1.124,1.124,0,0,0,47.2,71.927H70.8A1.124,1.124,0,0,0,71.927,70.8V56.193a1.124,1.124,0,0,0-.8-1.077ZM2.248,2.248H58.44V4.5H2.248Zm28.1,62.936a1.124,1.124,0,1,1,1.124-1.124A1.124,1.124,0,0,1,30.344,65.184Zm34.84-24.725a1.124,1.124,0,0,1-1.124,1.124V39.335h1.124Zm-17.982,0V39.335h1.124v2.248A1.124,1.124,0,0,1,47.2,40.459Zm1.124-3.372V34.84a7.867,7.867,0,0,1,15.734,0v2.248H62.936c-8.2,0-8.971-2.248-8.991-2.248a1.124,1.124,0,0,0-2.248,0,2.115,2.115,0,0,1-2.248,2.248Zm2.248,6.743V39.193a4.428,4.428,0,0,0,2.7-1.851c1.356.965,3.877,1.855,8.541,1.978v4.51a5.619,5.619,0,0,1-11.239,0ZM56.193,51.7a7.818,7.818,0,0,0,2.248-.337v.99L56.193,54.6,53.945,52.35v-.99A7.817,7.817,0,0,0,56.193,51.7ZM29.686,43.83l.659-.659,4.03,4.03-1.782,1.782-1.124-1.124V46.078a1.124,1.124,0,0,0-.329-.794ZM47.2,57.317H40.924l-6.743-6.743,1.782-1.782,4.825,4.825a1.124,1.124,0,0,0,.795.329H52.356l2.713,2.713V69.679H48.326V58.44A1.124,1.124,0,0,0,47.2,57.317ZM69.679,69.679H66.307V61.812H64.06v7.867H57.317V56.658l2.568-2.567,9.794,2.938Z"/><path d="M40.725,20.362A12.362,12.362,0,1,0,28.362,32.725,12.362,12.362,0,0,0,40.725,20.362Zm-2.248,0a10.056,10.056,0,0,1-2.22,6.306L29.486,19.9V10.314a10.126,10.126,0,0,1,8.991,10.048ZM27.239,10.314v8.925H18.314a10.128,10.128,0,0,1,8.925-8.925ZM18.314,21.486H27.9l6.771,6.771a10.1,10.1,0,0,1-16.354-6.771Z" transform="translate(1.982 0.991)"/><path d="M7,32H9.248v2.248H7Z" transform="translate(0.867 3.963)"/><path d="M11,32H42.468v2.248H11Z" transform="translate(1.362 3.963)"/><path d="M7,36H23.858v2.248H7Z" transform="translate(0.867 4.459)"/><path d="M31,36h8.991v2.248H31Z" transform="translate(3.84 4.459)"/><path d="M7,40H23.858v2.248H7Z" transform="translate(0.867 4.954)"/><path d="M35,40h6.743v2.248H35Z" transform="translate(4.335 4.954)"/></g></g></svg>