<svg xmlns="http://www.w3.org/2000/svg" xmlns:xlink="http://www.w3.org/1999/xlink" width="91" height="81" viewBox="0 0 91 81"><defs><clipPath id="a"><rect width="91" height="81" transform="translate(-3551 -6996)" fill="#fff" stroke="#707070" stroke-width="1"/></clipPath></defs><g transform="translate(3551 6996)" clip-path="url(#a)"><g transform="translate(-3542.334 -6991.833)"><g transform="translate(2.153 2.156)"><g transform="translate(25.433 27.511)"><path d="M60.735,28.366l-2.647-1.572a13.766,13.766,0,0,1-2.127.89l-.751,2.971H48.274l-.751-2.971a13.766,13.766,0,0,1-2.127-.89l-2.647,1.572-2.335-2.335H24V67.645H63.3V25.8Z" transform="translate(-24 -25.8)" fill="#f0d0b4"/></g><g transform="translate(53.176 57.796)"><circle cx="2.5" cy="2.5" r="2.5" transform="translate(-0.495 -0.119)" fill="#b4dd7f"/></g><g transform="translate(43.928 57.796)"><circle cx="2.5" cy="2.5" r="2.5" transform="translate(-0.247 -0.119)" fill="#b4dd7f"/></g><g transform="translate(0.003 55.485)"><path d="M11.247,50v9.247H6.624a4.624,4.624,0,1,1,0-9.247Z" transform="translate(-2 -50)" fill="#aab2bd"/></g><g transform="translate(30.057 55.485)"><path d="M36.161,53.063a1.664,1.664,0,0,1,0,3.121L28,59.247V50Z" transform="translate(-28 -50)" fill="#aab2bd"/></g><g transform="translate(9.25 55.485)"><path d="M14.624,54.624v4.624H10V50h4.624Z" transform="translate(-10 -50)" fill="#ffeaa7"/></g><g transform="translate(13.874 60.108)"><path d="M30.183,54v4.624H14V54Z" transform="translate(-14 -54)" fill="#69d6f4"/></g><g transform="translate(13.874 55.485)"><path d="M30.183,50v4.624H14V50H30.183Z" transform="translate(-14 -50)" fill="#b4dd7f"/></g><g transform="translate(0 0)"><path d="M41.244,8.993l.116.116-.081.081,1.572,2.647a13.767,13.767,0,0,0-.89,2.127l-2.971.751v6.936l2.971.751a13.767,13.767,0,0,0,.89,2.127l-1.572,2.647,2.566,2.566H8.936A6.941,6.941,0,0,1,7.445,16.021a6.388,6.388,0,0,1,1.734-.139,11,11,0,0,1-.243-2.323A11.56,11.56,0,0,1,30.737,8.2a8.083,8.083,0,0,1,10.507.8Z" transform="translate(-1.997 -2)" fill="#e6e9ed"/></g><g transform="translate(36.993)"><path d="M66.366,14.715v6.936L63.4,22.4a13.766,13.766,0,0,1-.89,2.127l1.572,2.647-2.335,2.335-2.566,2.566-2.647-1.572a13.766,13.766,0,0,1-2.127.89l-.751,2.971H46.715L45.964,31.4a13.766,13.766,0,0,1-2.127-.89L41.19,32.077l-2.335-2.335-2.566-2.566,1.572-2.647a13.766,13.766,0,0,1-.89-2.127L34,21.651V14.715l2.971-.751a13.766,13.766,0,0,1,.89-2.127L36.289,9.19l.081-.081,4.82-4.82,2.647,1.572a13.766,13.766,0,0,1,2.127-.89L46.715,2h6.936L54.4,4.971a13.766,13.766,0,0,1,2.127.89l2.647-1.572,4.9,4.9-1.572,2.647a13.766,13.766,0,0,1,.89,2.127ZM59.43,18.183a9.247,9.247,0,1,0-9.247,9.247A9.245,9.245,0,0,0,59.43,18.183Z" transform="translate(-34 -2)" fill="#ffc729"/></g><g transform="translate(43.928 6.936)"><path d="M49.247,8A9.247,9.247,0,1,1,40,17.247,9.245,9.245,0,0,1,49.247,8Zm4.624,9.247a4.624,4.624,0,1,0-4.624,4.624A4.622,4.622,0,0,0,53.871,17.247Z" transform="translate(-40 -8)" fill="#fcd770"/></g></g><g transform="translate(1 1)"><path d="M72.667,22.7V13.972l-3.239-.824c-.138-.369-.292-.739-.462-1.106l1.71-2.877L64.5,2.989,61.624,4.7c-.366-.17-.737-.325-1.105-.462L59.695,1H50.961l-.823,3.239c-.368.138-.739.291-1.105.462L46.156,2.991,41.477,7.67a9.239,9.239,0,0,0-10.216-.921A12.7,12.7,0,0,0,7.936,13.715c0,.414.029.826.069,1.238-.214.028-.428.053-.642.1a8.095,8.095,0,0,0,1.728,16h9.247a1.157,1.157,0,0,1,1.156,1.156v2.312a1.157,1.157,0,0,1-1.156,1.156H10.247a3.468,3.468,0,1,0,0,6.936h10.4a1.157,1.157,0,0,1,1.156,1.156V56.485H6.78a5.78,5.78,0,1,0,0,11.559H26.43v4.624H68.044V30.144l2.632-2.633-1.71-2.877c.17-.366.325-.736.462-1.105ZM20.651,40.3h-10.4a1.156,1.156,0,0,1,0-2.312h8.091a3.472,3.472,0,0,0,3.468-3.468V32.21a3.472,3.472,0,0,0-3.468-3.468H9.091A5.76,5.76,0,0,1,4.6,26.6a5.839,5.839,0,0,1-1.162-4.9,5.743,5.743,0,0,1,4.393-4.391,5.828,5.828,0,0,1,4.9,1.161,5.76,5.76,0,0,1,2.137,4.487h2.312a8.061,8.061,0,0,0-6.855-7.985A10.386,10.386,0,0,1,29.39,8.11a9.214,9.214,0,0,0-2.959,6.761h2.312a6.926,6.926,0,0,1,11.569-5.15l1.38,2.322q-.255.551-.462,1.106l-3.239.823v8.733l3.239.824c.138.369.292.739.462,1.105l-1.71,2.877,1.23,1.23H24.119v2.312H26.43v25.43H24.119V43.769A3.472,3.472,0,0,0,20.651,40.3Zm-5.78,25.43H12.559V58.8h2.312Zm2.312-2.312H31.054v2.312H17.183Zm16.183-4.112,6.6,2.476a.512.512,0,0,1,0,.959l-6.6,2.476Zm-2.312,1.8H17.183V58.8H31.054ZM3.312,62.264A3.472,3.472,0,0,1,6.78,58.8h3.468v6.936H6.78A3.472,3.472,0,0,1,3.312,62.264Zm62.42,8.091H28.742V68.044H32.42l8.36-3.135a2.825,2.825,0,0,0,0-5.29L32.42,56.485H28.742V31.054H43.523l2.633,2.633,2.877-1.711c.366.17.737.325,1.105.462l.824,3.239H59.7l.824-3.239c.368-.138.739-.291,1.105-.462L64.5,33.687l1.23-1.231Zm1.9-48.756-.194.61a12.722,12.722,0,0,1-.814,1.945l-.3.57,1.44,2.423-3.633,3.633-2.422-1.44-.569.294a12.69,12.69,0,0,1-1.949.814l-.61.2-.69,2.722H52.76l-.691-2.721-.61-.2a12.69,12.69,0,0,1-1.949-.814l-.569-.294-2.422,1.44-3.633-3.633,1.44-2.423-.3-.57a12.722,12.722,0,0,1-.814-1.945l-.194-.61L40.3,20.909V15.77l2.721-.692.194-.61a12.662,12.662,0,0,1,.815-1.945l.295-.57-1.44-2.422L46.519,5.9l2.422,1.44.569-.294a12.69,12.69,0,0,1,1.949-.814l.61-.2.69-2.723H57.9l.691,2.721.61.2a12.69,12.69,0,0,1,1.949.814l.569.294L64.138,5.9l3.633,3.633-1.44,2.422.295.57a12.711,12.711,0,0,1,.815,1.945l.194.61,2.721.694v5.138Z" transform="translate(-1 -1)"/><path d="M49.4,7a10.4,10.4,0,1,0,10.4,10.4A10.415,10.415,0,0,0,49.4,7Zm0,18.495A8.091,8.091,0,1,1,57.495,17.4,8.1,8.1,0,0,1,49.4,25.495Z" transform="translate(4.925 -0.064)"/><path d="M48.78,11a5.78,5.78,0,1,0,5.78,5.78A5.786,5.786,0,0,0,48.78,11Zm0,9.247a3.468,3.468,0,1,1,3.468-3.468A3.472,3.472,0,0,1,48.78,20.247Z" transform="translate(5.549 0.559)"/><path d="M29.422,45.255l-1.495-1.495L26.293,45.4l3.129,3.129,6.6-6.6-1.634-1.634Z" transform="translate(2.944 5.127)"/><path d="M29.422,37.255l-1.495-1.495L26.293,37.4l3.129,3.129,6.6-6.6-1.634-1.634Z" transform="translate(2.944 3.879)"/><path d="M37,33H57.807v2.312H37Z" transform="translate(4.613 3.99)"/><path d="M41,37H57.183v2.312H41Z" transform="translate(5.237 4.613)"/><path d="M37,37h2.312v2.312H37Z" transform="translate(4.613 4.613)"/><path d="M37,41H57.807v2.312H37Z" transform="translate(4.613 5.237)"/><path d="M53,45h2.312v2.312H53Z" transform="translate(7.108 5.861)"/><path d="M37,45H53.183v2.312H37Z" transform="translate(4.613 5.861)"/><path d="M42.468,51a3.468,3.468,0,1,0,3.468,3.468A3.472,3.472,0,0,0,42.468,51Zm0,4.624a1.156,1.156,0,1,1,1.156-1.156A1.157,1.157,0,0,1,42.468,55.624Z" transform="translate(4.925 6.796)"/><path d="M50.468,51a3.468,3.468,0,1,0,3.468,3.468A3.472,3.472,0,0,0,50.468,51Zm0,4.624a1.156,1.156,0,1,1,1.156-1.156A1.157,1.157,0,0,1,50.468,55.624Z" transform="translate(6.173 6.796)"/></g></g></g></svg>