<svg xmlns="http://www.w3.org/2000/svg" xmlns:xlink="http://www.w3.org/1999/xlink" width="91" height="81" viewBox="0 0 91 81"><defs><clipPath id="a"><rect width="91" height="81" transform="translate(-3551 -6996)" fill="#fff" stroke="#707070" stroke-width="1"/></clipPath></defs><g transform="translate(3551 6996)" clip-path="url(#a)"><g transform="translate(-3543.059 -6994.117)"><g transform="translate(2.179 2.179)"><g transform="translate(23.586 30.662)"><path d="M30.09,28.566,26.717,38.614,22,32.717,26.717,28Z" transform="translate(-22 -28)" fill="#ffc729"/></g><g transform="translate(15.496 30.662)"><path d="M23.23,32.717l-4.717,5.9L15.14,28.566,18.513,28Z" transform="translate(-15.14 -28)" fill="#ffc729"/></g><g transform="translate(4.717 31.228)"><path d="M13.076,44.424H6v-4.54a11.316,11.316,0,0,1,9.482-11.192l1.3-.212,3.373,10.048,4.717-5.9,4.717,5.9L32.959,28.48l1.3.212a11.351,11.351,0,0,1,9.482,11.192v4.54H36.662v9.434H13.076Z" transform="translate(-6 -28.48)" fill="#fcd770"/></g><g transform="translate(10.614 0)"><path d="M32.192,6.694l.932.472a6.9,6.9,0,0,1,3.09,9.269l-.354.708a3.519,3.519,0,0,0-2.453-.991H32.228V13.793H28.065a22.258,22.258,0,0,1-9.989-2.359,4.261,4.261,0,0,0-2.359,3.821v.9H14.538a3.535,3.535,0,0,0-2.724,1.274l-.5-1.51A6.044,6.044,0,0,1,11,13.982a6.151,6.151,0,0,1,1.793-4.34l.566-.566A7.087,7.087,0,0,1,20.434,2h7.677a4.112,4.112,0,0,1,4.116,4.116,4.609,4.609,0,0,1-.035.578Z" transform="translate(-11 -2)" fill="#656d78"/></g><g transform="translate(51.89 54.248)"><path d="M46,48H64.869V64.51H46Z" transform="translate(-46 -48)" fill="#ff826e"/></g><g transform="translate(51.89 33.021)"><path d="M46,30H64.869V46.51H46Z" transform="translate(-46 -30)" fill="#ff826e"/></g><g transform="translate(0 56.607)"><path d="M11.434,50V64.152H9.076A7.078,7.078,0,0,1,6.717,50.4,7.126,7.126,0,0,1,9.076,50Z" transform="translate(-2 -50)" fill="#aab2bd"/></g><g transform="translate(37.738 56.607)"><path d="M42.432,55.272a2.125,2.125,0,0,1,0,3.609L34,64.152V50l4.717,2.948Z" transform="translate(-34 -50)" fill="#aab2bd"/></g><g transform="translate(14.152 63.683)"><path d="M14,56H37.586v7.076H14Z" transform="translate(-14 -56)" fill="#ff826e"/></g><g transform="translate(14.152 56.607)"><path d="M35.228,50h2.359v7.076H14V50Z" transform="translate(-14 -50)" fill="#b4dd7f"/></g><g transform="translate(9.434 56.607)"><path d="M14.717,50V64.152H10V50h4.717Z" transform="translate(-10 -50)" fill="#ffeaa7"/></g><g transform="translate(4.717 47.172)"><path d="M13.076,42v9.434H8.359a7.126,7.126,0,0,0-2.359.4V42Z" transform="translate(-6 -42)" fill="#f0d0b4"/></g><g transform="translate(35.379 47.172)"><path d="M39.076,42V54.383l-4.717-2.948H32V42Z" transform="translate(-32 -42)" fill="#f0d0b4"/></g><g transform="translate(31.499 14.152)"><path d="M32.684,14.991a3.538,3.538,0,0,1-2.453,6.085H28.71a8.147,8.147,0,0,0,.342-2.359V14h1.179a3.519,3.519,0,0,1,2.453.991Z" transform="translate(-28.71 -14)" fill="#f0d0b4"/></g><g transform="translate(18.869 26.322)"><path d="M26.267,24.32l1.168,4.34-4.717,4.717L18,28.66l1.168-4.34a8.257,8.257,0,0,0,7.1,0Z" transform="translate(-18 -24.32)" fill="#f0d0b4"/></g><g transform="translate(15.331 9.434)"><path d="M31.51,14.717v4.717a8.256,8.256,0,0,1-11.8,7.453,8.267,8.267,0,0,1-4.363-5.095A8.147,8.147,0,0,1,15,19.434V13.821A4.261,4.261,0,0,1,17.359,10a22.258,22.258,0,0,0,9.989,2.359H31.51Z" transform="translate(-15 -10)" fill="#f0d0b4"/></g><g transform="translate(10.614 14.152)"><path d="M16.059,21.076H14.538a3.538,3.538,0,1,1,0-7.076h1.179v4.717A8.147,8.147,0,0,0,16.059,21.076Z" transform="translate(-11 -14)" fill="#f0d0b4"/></g></g><g transform="translate(1 1)"><path d="M48.978,63.058,45.814,61.08V44.807A12.522,12.522,0,0,0,35.35,32.457L31.423,31.8l-.734-2.723A9.48,9.48,0,0,0,34.5,24.586h.7a4.705,4.705,0,0,0,3.852-7.425l.013-.025a8.131,8.131,0,0,0,.853-3.615,8.041,8.041,0,0,0-4.468-7.23l-.262-.131A5.29,5.29,0,0,0,29.908,1H22.228a8.265,8.265,0,0,0-8.24,7.752l-.23.23a7.319,7.319,0,0,0-1.769,7.489l.322.965a4.674,4.674,0,0,0-.7,2.434,4.722,4.722,0,0,0,4.717,4.717h.695a9.474,9.474,0,0,0,3.815,4.493L20.107,31.8l-3.927.655A12.52,12.52,0,0,0,5.717,44.807V58.415a8.248,8.248,0,0,0,3.538,15.7h31l8.722-5.451a3.308,3.308,0,0,0,0-5.609Zm-8.722-5.451H38.738V50.531h4.717v9.075ZM17.51,59.965H38.738v4.717H17.51Zm-2.359,0V71.759H12.793V59.965Zm2.359,7.076H38.738v4.717H17.51ZM32.3,34.34l-2.248,6.691-2.708-3.385,3.541-3.541Zm2.9-12.113h-.081a9.49,9.49,0,0,0,.081-1.179V17.51a2.359,2.359,0,0,1,0,4.717Zm-18.869,0a2.359,2.359,0,1,1,0-4.717v3.538a9.489,9.489,0,0,0,.081,1.179Zm.019-7.076h-.019a4.656,4.656,0,0,0-2.116.525,4.937,4.937,0,0,1,1.209-5.026l.907-.907V9.255a5.9,5.9,0,0,1,5.9-5.9h7.681a2.933,2.933,0,0,1,.929,5.715l-.726.242.744,2.237.728-.242a5.277,5.277,0,0,0,3.095-2.743,5.682,5.682,0,0,1,2.486,7.025,4.681,4.681,0,0,0-1.964-.441V12.793H29.86A21.254,21.254,0,0,1,20.4,10.558l-.528-.263-.527.264a5.405,5.405,0,0,0-2.992,4.592Zm2.34,5.9V15.43a3.068,3.068,0,0,1,1.243-2.477,23.645,23.645,0,0,0,9.927,2.2h2.981v5.9a7.076,7.076,0,1,1-14.152,0Zm7.076,9.434a9.37,9.37,0,0,0,2.749-.412l.652,2.418-3.4,3.4-3.4-3.4.652-2.418a9.409,9.409,0,0,0,2.749.41ZM20.644,34.1l3.541,3.541L21.478,41.03,19.23,34.339ZM12.6,36.352a10.1,10.1,0,0,1,3.966-1.568l.307-.051L20.619,45.88l5.147-6.433,5.147,6.433,3.745-11.147.307.051a10.162,10.162,0,0,1,8.491,10.023v3.366H38.738V43.455H36.379V57.607H15.152V43.455H12.793v4.717H8.076V44.807A10.145,10.145,0,0,1,12.6,36.352ZM8.076,50.531h4.717v7.076H9.255a8.286,8.286,0,0,0-1.179.094ZM3.359,65.862a5.9,5.9,0,0,1,5.9-5.9h1.179V71.759H9.255A5.9,5.9,0,0,1,3.359,65.862Zm44.368.805L41.1,70.81v-9.9l6.63,4.143a.95.95,0,0,1,0,1.61Z" transform="translate(-1 -1)"/><path d="M45,65.869H66.228V47H45Zm2.359-16.51h16.51V63.51H47.359Z" transform="translate(6.89 7.248)"/><path d="M52.665,57.714l-2.7-2.7-1.668,1.668,4.372,4.372,9.089-9.089-1.668-1.668Z" transform="translate(7.48 7.839)"/><path d="M45,29V47.869H66.228V29ZM63.869,45.51H47.359V31.359h16.51Z" transform="translate(6.89 4.021)"/><path d="M61.754,33.961l-1.668-1.668-7.421,7.421-2.7-2.7-1.668,1.668,4.372,4.372Z" transform="translate(7.48 4.611)"/><path d="M27.434,18H25.076a2.359,2.359,0,0,1-4.717,0H18a4.717,4.717,0,0,0,9.434,0Z" transform="translate(2.048 2.048)"/><ellipse cx="1" cy="1.5" rx="1" ry="1.5" transform="translate(20.117 15.117)"/><ellipse cx="1" cy="1.5" rx="1" ry="1.5" transform="translate(27.117 15.117)"/><path d="M47,11H63.51v2.359H47Z" transform="translate(7.248 0.793)"/><path d="M47,15H63.51v2.359H47Z" transform="translate(7.248 1.51)"/><path d="M47,19H63.51v2.359H47Z" transform="translate(7.248 2.228)"/><path d="M47,23h2.359v2.359H47Z" transform="translate(7.248 2.945)"/><path d="M59,23h2.359v2.359H59Z" transform="translate(9.4 2.945)"/><path d="M51,23h2.359v2.359H51Z" transform="translate(7.965 2.945)"/><path d="M55,23h2.359v2.359H55Z" transform="translate(8.683 2.945)"/></g></g></g></svg>