<svg xmlns="http://www.w3.org/2000/svg" xmlns:xlink="http://www.w3.org/1999/xlink" width="91" height="81" viewBox="0 0 91 81"><defs><clipPath id="a"><rect width="91" height="81" transform="translate(-3551 -6996)" fill="#fff" stroke="#707070" stroke-width="1"/></clipPath></defs><g transform="translate(3551 6996)" clip-path="url(#a)"><g transform="translate(-3546.751 -7030.374)"><path d="M303.831,124.023v2.77a1.292,1.292,0,0,1-.714,1.155l-.578.289h15.5l-1.156-.578a2.584,2.584,0,0,1-1.428-2.31l0-21.654H296.081v10.334A10.328,10.328,0,0,0,303.831,124.023Z" transform="translate(-248.371 -53.363)" fill="#f5b97d"/><circle cx="7.75" cy="7.75" r="7.75" transform="translate(3.792 41.289)" fill="#ffc269"/><path d="M66.646,85.838c0-7.847-5.026-14.209-12.874-14.209A14.209,14.209,0,0,0,39.564,85.838c0,6.459,6.361,10.334,14.209,10.334S66.646,92.3,66.646,85.838Z" transform="translate(-33.189 -26.464)" fill="#ffa95f"/><path d="M48.606,101.48a11.8,11.8,0,0,1-4.7-5.045,14.157,14.157,0,0,0-4.343,10.212c0,6.424,6.295,10.288,14.084,10.33Z" transform="translate(-33.189 -47.273)" fill="#ff8b5a"/><path d="M44.2,272.032H33.866a10.334,10.334,0,0,0-10.334,10.334v15.5H50.658V278.491a6.459,6.459,0,0,0-6.459-6.459Z" transform="translate(-19.74 -194.575)" fill="#95d6a4"/><path d="M33.866,275.908h2.583v-3.875H33.866a10.334,10.334,0,0,0-10.334,10.334v15.5h3.875v-15.5A6.466,6.466,0,0,1,33.866,275.908Z" transform="translate(-19.74 -194.576)" fill="#78c2a4"/><path d="M92.828,243.577a5.167,5.167,0,0,1-5.167-5.167v-6.459H97.995v6.459A5.167,5.167,0,0,1,92.828,243.577Z" transform="translate(-73.535 -160.953)" fill="#f7d291"/><path d="M87.661,244.706a12.83,12.83,0,0,0,10.334,1.11v-5.847H87.661Z" transform="translate(-73.535 -167.678)" fill="#ecbd83"/><path d="M102.9,320.129H79.645v18.084H102.9a2.583,2.583,0,0,0,2.583-2.583V322.712A2.583,2.583,0,0,0,102.9,320.129Z" transform="translate(-66.811 -234.922)" fill="#eceaec"/><path d="M66.2,320.129a2.583,2.583,0,0,0-2.583,2.583v12.917a2.583,2.583,0,0,0,2.583,2.583H89.447a2.583,2.583,0,0,0,2.583-2.583h0v-1.292H71.363a3.875,3.875,0,0,1-3.875-3.875V320.129Z" transform="translate(-53.363 -234.922)" fill="#dad8db"/><path d="M68.511,127.742c4.106,2.912,9.973,3.856,13.183,4.161a2.571,2.571,0,0,1,2.317,2.569v3.6a10.334,10.334,0,1,1-20.667,0v0a12,12,0,0,1,3.105-8.055Z" transform="translate(-53.137 -73.535)" fill="#ffe1a0"/><circle cx="2.583" cy="2.583" r="2.583" transform="translate(21.876 91.666)" fill="#fff"/><path d="M302.761,258.446,297.869,256h-15.5l-7.477,3.739a5.167,5.167,0,0,0-2.856,4.621v25.224h33.584V263.067A5.167,5.167,0,0,0,302.761,258.446Z" transform="translate(-228.198 -181.126)" fill="#c3ddff"/><path d="M281.073,298.01a6.458,6.458,0,0,0-2.424-5.043l-5.557-4.446a5.155,5.155,0,0,0-1.061,3.12v25.224h9.042V298.01Z" transform="translate(-228.196 -208.407)" fill="#a4ccff"/><path d="M351.4,352.194H333.312a5.167,5.167,0,0,0-5.167,5.167l3.875,12.917h24.542V357.361A5.167,5.167,0,0,0,351.4,352.194Z" transform="translate(-275.268 -261.82)" fill="#9b959d"/><path d="M303.83,124.023V103.694h-7.75v10.334A10.329,10.329,0,0,0,303.83,124.023Z" transform="translate(-248.37 -53.363)" fill="#e3aa75"/><path d="M296.84,55.6H286.507a6.459,6.459,0,0,0-6.459,6.459,2.583,2.583,0,0,0,2.583,2.583h1.292a3.875,3.875,0,0,1,3.875,3.875v3.875a6.459,6.459,0,0,0,6.459,6.459h6.458a5.167,5.167,0,0,0,5.167-5.167V64.639A9.042,9.042,0,0,0,296.84,55.6Z" transform="translate(-234.922 -13.016)" fill="#9f6e50"/><path d="M337.187,352.194h-3.875a5.167,5.167,0,0,0-5.167,5.167v12.917h3.875V357.361A5.167,5.167,0,0,1,337.187,352.194Z" transform="translate(-275.268 -261.82)" fill="#857e87"/><path d="M286.507,55.6a6.459,6.459,0,0,0-6.459,6.459,2.583,2.583,0,0,0,2.583,2.583h1.292a3.875,3.875,0,0,1,3.875,3.875V55.6Z" transform="translate(-234.922 -13.016)" fill="#785353"/><path d="M67.263,145.251V136.3l-.813.9a12,12,0,0,0-3.105,8.055v0a10.316,10.316,0,0,0,12.293,10.143A10.333,10.333,0,0,1,67.263,145.251Z" transform="translate(-53.138 -80.711)" fill="#f7d291"/><path d="M112.062,209.131a1.208,1.208,0,0,0,.607,1.6,7.825,7.825,0,0,0,6.158,0,1.209,1.209,0,0,0-.991-2.2,5.418,5.418,0,0,1-4.176,0A1.208,1.208,0,0,0,112.062,209.131Z" transform="translate(-93.915 -141.211)"/><path d="M105.15,172.048a1.209,1.209,0,0,0,1.209-1.209v-1.292a1.209,1.209,0,0,0-2.417,0v1.292A1.209,1.209,0,0,0,105.15,172.048Z" transform="translate(-87.192 -107.591)"/><path d="M153.247,172.048a1.209,1.209,0,0,0,1.209-1.209v-1.292a1.209,1.209,0,0,0-2.417,0v1.292A1.209,1.209,0,0,0,153.247,172.048Z" transform="translate(-127.539 -107.591)"/><path d="M132.051,352.709a3.792,3.792,0,1,0,3.792,3.792A3.8,3.8,0,0,0,132.051,352.709Zm0,5.167a1.375,1.375,0,1,1,1.375-1.375A1.376,1.376,0,0,1,132.051,357.876Z" transform="translate(-107.592 -262.252)"/><path d="M78.628,89.677V81.941a6.34,6.34,0,0,0-3.524-5.7l-6.048-3.024a1.367,1.367,0,0,1-.76-1.229l0-5.457a6.385,6.385,0,0,0,3.875-5.864V51.623a10.262,10.262,0,0,0-10.25-10.25H51.585a7.676,7.676,0,0,0-7.667,7.667A3.8,3.8,0,0,0,46.5,52.633v8.032a11.53,11.53,0,0,0,7.75,10.891v1.924l-8.1,4.051a6.341,6.341,0,0,0-3.524,5.7v18.849H39.577a3.9,3.9,0,0,0,.3-1.5V87.917A3.923,3.923,0,0,0,35.958,84H32.126v-.083a7.679,7.679,0,0,0-6.459-7.571V74.877a11.573,11.573,0,0,0,6.285-8.607,9.961,9.961,0,0,0,2.713-6.9,16.384,16.384,0,0,0-3.814-10.843,13.467,13.467,0,0,0-10.311-4.575,15.552,15.552,0,0,0-1.608.084,8.959,8.959,0,1,0-13.376,11.7,15.4,15.4,0,0,0-.433,3.629,10,10,0,0,0,4.3,8.27A11.56,11.56,0,0,0,12.917,73.2v3.117A11.558,11.558,0,0,0,2.583,87.791v14.292H1.209a1.209,1.209,0,1,0,0,2.417H42.626v3.958a1.209,1.209,0,0,0,2.417,0V83.234a3.972,3.972,0,0,1,.277-1.458l4.458,3.715a5.236,5.236,0,0,1,1.889,4.033v18.934a1.209,1.209,0,0,0,2.417,0V95.541a3.963,3.963,0,0,1,3.958-3.958H76.127a3.963,3.963,0,0,1,3.958,3.958v12.917a1.209,1.209,0,0,0,2.417,0V95.541A6.384,6.384,0,0,0,78.628,89.677ZM4.957,49.04a6.538,6.538,0,0,1,11.3-4.479,15.49,15.49,0,0,0-9.834,8.612,6.5,6.5,0,0,1-1.47-4.133ZM9.013,63.92a7.51,7.51,0,0,1-1.473-4.546,13.015,13.015,0,0,1,13-13,10.939,10.939,0,0,1,8.491,3.749,13.974,13.974,0,0,1,3.217,9.252,8.062,8.062,0,0,1-.166,1.637v-.074a3.764,3.764,0,0,0-3.411-3.772c-3.035-.289-8.708-1.185-12.6-3.944a1.209,1.209,0,0,0-1.595.175l-2.061,2.276a13.182,13.182,0,0,0-3.4,8.249Zm2.4.618a10.771,10.771,0,0,1,2.793-7.244l1.366-1.508c4.262,2.619,9.814,3.494,12.869,3.785a1.357,1.357,0,0,1,1.223,1.366v3.6a9.125,9.125,0,1,1-18.25,0Zm11.835,11.22v.408a3.958,3.958,0,0,1-7.917,0V74.836a11.493,11.493,0,0,0,7.917.922Zm14.209,24.824a1.5,1.5,0,0,1-1.5,1.5h-23a1.5,1.5,0,0,1-1.5-1.5V94.249a1.209,1.209,0,0,0-2.417,0v6.332a3.9,3.9,0,0,0,.3,1.5H5V87.791a9.135,9.135,0,0,1,8.441-9.1,6.373,6.373,0,0,0,11.695.017,5.257,5.257,0,0,1,4.573,5.2V84H12.96a3.923,3.923,0,0,0-3.918,3.918v1.166a1.209,1.209,0,0,0,2.417,0V87.917a1.5,1.5,0,0,1,1.5-1.5h23a1.5,1.5,0,0,1,1.5,1.5ZM48.918,60.665V52.832H49A2.67,2.67,0,0,1,51.668,55.5v3.875a7.676,7.676,0,0,0,7.667,7.667h1.292a1.209,1.209,0,0,0,0-2.417H59.335a5.256,5.256,0,0,1-5.25-5.25V55.5A5.089,5.089,0,0,0,49,50.415H47.71a1.376,1.376,0,0,1-1.375-1.375,5.256,5.256,0,0,1,5.25-5.25H61.919a7.842,7.842,0,0,1,7.833,7.833v9.042a3.963,3.963,0,0,1-3.958,3.958,1.209,1.209,0,0,0,0,2.417l.083,0v4.948a3.794,3.794,0,0,0,.391,1.679h-9.6V70.66a1.208,1.208,0,0,0-.907-1.17,9.115,9.115,0,0,1-6.844-8.825Zm27.292,28.5-.083,0H58.043a6.342,6.342,0,0,0-3.958,1.383V89.524a7.647,7.647,0,0,0-2.759-5.89l-4.47-3.725a4.016,4.016,0,0,1,.375-.216l7.222-3.611H69.386L74.022,78.4a3.936,3.936,0,0,1,2.188,3.54Z"/></g></g></svg>