<svg xmlns="http://www.w3.org/2000/svg" xmlns:xlink="http://www.w3.org/1999/xlink" width="91" height="81" viewBox="0 0 91 81">
  <defs>
    <clipPath id="clip-path">
      <rect id="Rectángulo_42212" data-name="Rectángulo 42212" width="91" height="81" transform="translate(-3551 -6996)" fill="#fff" stroke="#707070" stroke-width="1"/>
    </clipPath>
  </defs>
  <g id="Grupo_950285" data-name="Grupo 950285" transform="translate(3551 6996)" clip-path="url(#clip-path)">
    <g id="lista-de-verificacion_4_" data-name="lista-de-verificacion(4)" transform="translate(-3539.831 -6993.416)">
      <path id="Trazado_636017" data-name="Trazado 636017" d="M13.555,10H63.32a3.555,3.555,0,0,1,3.555,3.555V79.317a3.555,3.555,0,0,1-3.555,3.555H13.555A3.555,3.555,0,0,1,10,79.317V13.555A3.555,3.555,0,0,1,13.555,10Zm0,0" transform="translate(-8.519 -8.519)" fill="#79b2ff"/>
      <path id="Trazado_636018" data-name="Trazado 636018" d="M84.115,50H95.026v61.022H50V50H60.911" transform="translate(-42.595 -42.595)" fill="#fff"/>
      <path id="Trazado_636019" data-name="Trazado 636019" d="M129.979,20.664h15.971a3.147,3.147,0,0,0,3.147-3.147V10H126.832v7.517A3.148,3.148,0,0,0,129.979,20.664Zm0,0" transform="translate(-108.047 -8.519)" fill="#ff6977"/>
      <path id="Trazado_636020" data-name="Trazado 636020" d="M129.979,20.664h15.971a3.147,3.147,0,0,0,3.147-3.147V10H126.832v7.517A3.148,3.148,0,0,0,129.979,20.664Zm0,0" transform="translate(-108.047 -8.519)" fill="#bdd9ff"/>
      <path id="Trazado_636021" data-name="Trazado 636021" d="M314.111,154.146l17.354-17.354a3.917,3.917,0,1,1,5.54,5.54L319.65,159.686l-9.986,4.446Zm0,0" transform="translate(-263.8 -115.555)" fill="#ffc15a"/>
      <path id="Trazado_636022" data-name="Trazado 636022" d="M319.65,266.1l-5.54-5.54-4.446,9.985Zm0,0" transform="translate(-263.799 -221.967)" fill="#98a1b3"/>
      <path id="Trazado_636023" data-name="Trazado 636023" d="M449.532,144.236l1.9-1.9a3.917,3.917,0,0,0-5.54-5.54l-1.9,1.9Zm0,0" transform="translate(-378.232 -115.554)" fill="#ff6977"/>
      <path id="Trazado_636024" data-name="Trazado 636024" d="M98,130h9.479v9.479H98Zm0,0" transform="translate(-83.485 -110.746)" fill="#cbe558"/>
      <path id="Trazado_636025" data-name="Trazado 636025" d="M98,240h9.479v9.479H98Zm0,0" transform="translate(-83.485 -204.454)" fill="#cbe558"/>
      <path id="Trazado_636026" data-name="Trazado 636026" d="M98,350h9.479v9.479H98Zm0,0" transform="translate(-83.485 -298.161)" fill="#ff6977"/>
      <path id="Trazado_636027" data-name="Trazado 636027" d="M193.481,452a1.482,1.482,0,1,0,1.047.434A1.493,1.493,0,0,0,193.481,452Zm0,0" transform="translate(-163.563 -385.054)"/>
      <path id="Trazado_636028" data-name="Trazado 636028" d="M74.252,20.19a5.4,5.4,0,0,0-7.634,0l-6.781,6.781V5.035A5.042,5.042,0,0,0,54.8,0H5.036A5.042,5.042,0,0,0,0,5.035V70.8a5.042,5.042,0,0,0,5.036,5.036H54.8A5.042,5.042,0,0,0,59.837,70.8V42.24L74.252,27.824a5.4,5.4,0,0,0,0-7.634ZM56.875,5.035v24.9L53.913,32.9V7.405a1.481,1.481,0,0,0-1.481-1.481h-9.9V2.962H54.8a2.076,2.076,0,0,1,2.074,2.074ZM48.788,45.654l2-4.492,2.492,2.492ZM39.571,2.962V9A1.668,1.668,0,0,1,37.9,10.663H21.932A1.668,1.668,0,0,1,20.266,9V2.962ZM54.8,72.871H5.036A2.076,2.076,0,0,1,2.962,70.8V5.035A2.076,2.076,0,0,1,5.036,2.962H17.3V5.924h-9.9A1.481,1.481,0,0,0,5.924,7.405V68.427a1.481,1.481,0,0,0,1.481,1.481H23.994a1.481,1.481,0,0,0,0-2.962H8.886V8.886H17.3V9a4.634,4.634,0,0,0,4.629,4.629H37.9A4.634,4.634,0,0,0,42.533,9V8.886H50.95V35.858l-1.687,1.687a1.5,1.5,0,0,0-.305.445l-4.446,9.985a1.481,1.481,0,0,0,1.956,1.956l4.483-2V66.946H35.843a1.481,1.481,0,0,0,0,2.962H52.431a1.481,1.481,0,0,0,1.481-1.481V46.615l2.54-1.131a1.477,1.477,0,0,0,.422-.285V70.8A2.076,2.076,0,0,1,54.8,72.871ZM66.637,31.25,55.851,42.037l-3.445-3.445L65.76,25.236l3.445,3.445Zm5.521-5.52-.857.857-3.445-3.445.857-.857a2.436,2.436,0,0,1,3.445,3.445Zm0,0"/>
      <path id="Trazado_636029" data-name="Trazado 636029" d="M98.96,120H89.481A1.481,1.481,0,0,0,88,121.481v9.479a1.481,1.481,0,0,0,1.481,1.481H98.96a1.481,1.481,0,0,0,1.481-1.481v-9.479A1.481,1.481,0,0,0,98.96,120Zm-1.481,9.479H90.962v-6.517h6.517Zm0,0" transform="translate(-74.966 -102.227)"/>
      <path id="Trazado_636030" data-name="Trazado 636030" d="M98.96,230H89.481A1.481,1.481,0,0,0,88,231.481v9.479a1.481,1.481,0,0,0,1.481,1.481H98.96a1.481,1.481,0,0,0,1.481-1.481v-9.479A1.481,1.481,0,0,0,98.96,230Zm-1.481,9.479H90.962v-6.517h6.517Zm0,0" transform="translate(-74.966 -195.935)"/>
      <path id="Trazado_636031" data-name="Trazado 636031" d="M98.96,340H89.481A1.481,1.481,0,0,0,88,341.481v9.479a1.481,1.481,0,0,0,1.481,1.481H98.96a1.481,1.481,0,0,0,1.481-1.481v-9.479A1.481,1.481,0,0,0,98.96,340Zm-1.481,9.479H90.962v-6.517h6.517Zm0,0" transform="translate(-74.966 -289.642)"/>
      <path id="Trazado_636032" data-name="Trazado 636032" d="M212.13,138.642a1.481,1.481,0,0,0,2.094,0l6.687-6.687a1.481,1.481,0,1,0-2.095-2.094l-5.639,5.639-2.248-2.248a1.481,1.481,0,0,0-2.095,2.094Zm0,0" transform="translate(-177.535 -110.257)"/>
      <path id="Trazado_636033" data-name="Trazado 636033" d="M212.13,248.644a1.481,1.481,0,0,0,2.094,0l6.687-6.686a1.481,1.481,0,0,0-2.095-2.095l-5.639,5.64-2.248-2.248a1.481,1.481,0,0,0-2.095,2.094Zm0,0" transform="translate(-177.535 -203.967)"/>
      <path id="Trazado_636034" data-name="Trazado 636034" d="M224.351,356.346l2.3,2.3a1.481,1.481,0,1,0,2.094-2.094l-2.3-2.3,2.3-2.3a1.481,1.481,0,1,0-2.094-2.094l-2.3,2.3-2.3-2.3a1.481,1.481,0,0,0-2.095,2.094l2.3,2.3-2.3,2.3a1.481,1.481,0,0,0,2.095,2.094Zm0,0" transform="translate(-187.012 -297.673)"/>
    </g>
  </g>
</svg>
