<svg xmlns="http://www.w3.org/2000/svg" xmlns:xlink="http://www.w3.org/1999/xlink" width="91" height="81" viewBox="0 0 91 81"><defs><clipPath id="a"><rect width="91" height="81" transform="translate(-3551 -6996)" fill="#fff" stroke="#707070" stroke-width="1"/></clipPath></defs><g transform="translate(3551 6996)" clip-path="url(#a)"><g transform="translate(-3540.968 -6990.969)"><path d="M397.162,269.694a2.079,2.079,0,0,1-2.939,0l-13.618-13.618,2.939-2.939,13.618,13.618A2.079,2.079,0,0,1,397.162,269.694Zm0,0" transform="translate(-327.873 -218.064)" fill="#484b63"/><path d="M7.5,62.5H51.143v61.239H7.5Zm0,0" transform="translate(-6.462 -53.84)" fill="#d8d5ed"/><path d="M40,307.727h8.313v22.445H40Zm0,0" transform="translate(-34.459 -265.091)" fill="#ff2c5c"/><path d="M134,247.727h8.313v30.758H134Zm0,0" transform="translate(-115.435 -213.404)" fill="#ffd659"/><path d="M230,269.727h8.313v27.71H230Zm0,0" transform="translate(-198.134 -232.356)" fill="#4fc6f5"/><path d="M70,307.727h4.156v22.445H70Zm0,0" transform="translate(-60.302 -265.091)" fill="#e62753"/><path d="M164,247.727h4.156v30.758H164Zm0,0" transform="translate(-141.279 -213.404)" fill="#ffbd54"/><path d="M260,269.727h4.156v27.71H260Zm0,0" transform="translate(-223.978 -232.356)" fill="#3bb3e3"/><path d="M174.52,13.956a22.029,22.029,0,1,0,0,31.154A22.029,22.029,0,0,0,174.52,13.956Zm0,0" transform="translate(-117.945 -6.463)" fill="#50536e"/><path d="M197.475,68.064a17.873,17.873,0,1,1,0-25.276A17.893,17.893,0,0,1,197.475,68.064Zm0,0" transform="translate(-143.839 -32.356)" fill="#b5fcff"/><path d="M295.63,42.791a17.847,17.847,0,0,0-14.716-5.106,17.864,17.864,0,0,1,0,35.488A17.866,17.866,0,0,0,295.63,42.791Zm0,0" transform="translate(-241.994 -32.36)" fill="#71f6fc"/><path d="M70.026,47.683,59.365,37.021A23.076,23.076,0,0,0,60.29,10.4a1.039,1.039,0,1,0-1.736,1.142,21.01,21.01,0,1,1-2.714-3.328l.057.057a1.039,1.039,0,0,0,1.475-1.465l-.06-.06a23.094,23.094,0,0,0-32.625,0q-.424.424-.82.864H1.038A1.039,1.039,0,0,0,0,8.65v4.6a1.039,1.039,0,1,0,2.078,0V9.69H22.2a22.89,22.89,0,0,0-2.049,3.5H7.2a1.039,1.039,0,0,0,0,2.078H19.29a23.021,23.021,0,0,0-.746,2.54H7.2a1.039,1.039,0,1,0,0,2.078H18.16a23.22,23.22,0,0,0-.209,2.54H7.2a1.039,1.039,0,0,0,0,2.079H17.987a23.092,23.092,0,0,0,2.326,8.777H18.565a1.039,1.039,0,0,0-1.039,1.04V65.081a1.039,1.039,0,0,0,1.039,1.04h8.313a1.039,1.039,0,0,0,1.039-1.04V42.068a22.9,22.9,0,0,0,2.91,1.7V65.081a1.04,1.04,0,0,0,1.039,1.04h8.313a1.039,1.039,0,0,0,1.039-1.04V46.121a23.445,23.445,0,0,0,2.425-.149V62.023a1.039,1.039,0,1,0,2.078,0V45.637a22.913,22.913,0,0,0,9.235-4.206l10.659,10.66a3.118,3.118,0,0,0,4.41-4.409ZM25.839,64.041H19.6V35.357h1.872a23.082,23.082,0,0,0,3.21,4.019q.562.562,1.153,1.075Zm7.067,0V44.666a23.131,23.131,0,0,0,6.235,1.382V64.041Zm35.651-13.42a1.039,1.039,0,0,1-1.47,0L56.559,40.094c.255-.233.506-.471.752-.718s.485-.5.718-.752L68.556,49.152a1.04,1.04,0,0,1,0,1.469Zm0,0"/><path d="M44.683,169.363a1.039,1.039,0,0,0-1.039,1.039v2.356H2.078v-51.11a1.039,1.039,0,0,0-2.078,0V173.8a1.039,1.039,0,0,0,1.039,1.039H44.683a1.039,1.039,0,0,0,1.039-1.039v-3.4A1.039,1.039,0,0,0,44.683,169.363Zm0,0" transform="translate(-0.001 -103.898)"/><path d="M32.5,301.234v22.449a1.039,1.039,0,0,0,1.039,1.039h8.314a1.039,1.039,0,0,0,1.039-1.039V301.234a1.039,1.039,0,0,0-1.039-1.039H33.539A1.039,1.039,0,0,0,32.5,301.234Zm2.078,1.04h6.235v20.37H34.578Zm0,0" transform="translate(-27.998 -258.602)"/><path d="M53.309,197.259a1.039,1.039,0,0,0,0-2.079h-7.77a1.039,1.039,0,0,0,0,2.079Zm0,0" transform="translate(-38.335 -168.137)"/><path d="M178.381,29.988a18.885,18.885,0,1,0,13.373,5.532,18.784,18.784,0,0,0-13.373-5.532Zm11.9,30.812a16.858,16.858,0,1,1,4.922-11.9A16.718,16.718,0,0,1,190.285,60.8Zm0,0" transform="translate(-137.382 -25.833)"/></g></g></svg>