<svg xmlns="http://www.w3.org/2000/svg" xmlns:xlink="http://www.w3.org/1999/xlink" width="91" height="81" viewBox="0 0 91 81"><defs><clipPath id="a"><rect width="91" height="81" transform="translate(-3551 -6996)" fill="#fff" stroke="#707070" stroke-width="1"/></clipPath></defs><g transform="translate(3551 6996)" clip-path="url(#a)"><g transform="translate(-3539.001 -6991.578)"><path d="M289.765,44.789H263.251a3.994,3.994,0,0,0-3.993,3.993v15a3.994,3.994,0,0,0,3.993,3.993h9.432l-1.524,6.153a.873.873,0,0,0,1.379.9l9.184-7.055h8.045a3.993,3.993,0,0,0,3.993-3.993v-15a3.994,3.994,0,0,0-3.994-3.993Zm0,0" transform="translate(-222.719 -38.477)" fill="#88dbfd"/><path d="M344.714,209.276l-1.179,4.759a.873.873,0,0,0,1.379.9l9.184-7.055h-7.57Zm0,0" transform="translate(-295.096 -178.585)" fill="#5abfe9"/><path d="M429.589,44.789h-7.57a3.993,3.993,0,0,1,3.993,3.993v15a3.993,3.993,0,0,1-3.993,3.993h7.57a3.993,3.993,0,0,0,3.993-3.993v-15A3.993,3.993,0,0,0,429.589,44.789Zm0,0" transform="translate(-362.542 -38.477)" fill="#5abfe9"/><path d="M63.194,255.467a9.074,9.074,0,0,0-5.552-7.65c-3.919-1.835-14.592-4.611-14.592-4.611a2.177,2.177,0,0,1-1.78-2.14v-6.1h-11.6v6.1a2.177,2.177,0,0,1-1.779,2.14s-10.673,2.776-14.592,4.611a9.074,9.074,0,0,0-5.552,7.65L7.5,270.012a2.9,2.9,0,0,0,2.9,2.939H60.531a2.9,2.9,0,0,0,2.9-2.939Zm0,0" transform="translate(-6.444 -201.85)" fill="#fcc18b"/><path d="M222.884,255.467a9.074,9.074,0,0,0-5.552-7.65c-3.919-1.835-14.592-4.611-14.592-4.611a2.177,2.177,0,0,1-1.78-2.14v-6.1h-7.57v9.76a2.176,2.176,0,0,0,1.779,2.14s10.673,2.777,14.592,4.612a9.073,9.073,0,0,1,5.552,7.649l.229,13.825h4.678a2.9,2.9,0,0,0,2.9-2.939Zm0,0" transform="translate(-166.135 -201.85)" fill="#eaab65"/><path d="M96.917,125.367H95.394a2.353,2.353,0,0,0-2.319,2.834l.6,3.294c.464,2.441,3.247,1.326,3.247,1.326Zm0,0" transform="translate(-79.921 -107.699)" fill="#eaab65"/><path d="M291.269,125.367h1.523a2.353,2.353,0,0,1,2.319,2.834l-.6,3.294c-.464,2.441-3.247,1.326-3.247,1.326Zm0,0" transform="translate(-250.216 -107.699)" fill="#fcc18b"/><path d="M139.176,15.369a12,12,0,0,0-16.886,0,12.772,12.772,0,0,0-3.895,9.385l0,12.483c0,5.9,7.67,12.013,12.335,12.013s12.335-6.111,12.335-12.013l0-12.483a12.775,12.775,0,0,0-3.9-9.385Zm0,0" transform="translate(-101.708 -10.218)" fill="#fcc18b"/><path d="M191.31,15.369a12.46,12.46,0,0,0-8.443-3.474,12.118,12.118,0,0,0-3.785.643,13.115,13.115,0,0,1,4.658,2.831,12.772,12.772,0,0,1,3.895,9.385l0,12.483c0,4.465-4.391,9.05-8.549,11.017a9.176,9.176,0,0,0,3.785,1c4.664,0,12.335-6.111,12.335-12.013l0-12.483a12.772,12.772,0,0,0-3.895-9.385Zm0,0" transform="translate(-153.843 -10.218)" fill="#eaab65"/><path d="M123.7,7.5H108.433a7.111,7.111,0,0,0-7.112,7.112v9.813a4.909,4.909,0,0,1,3.217,1.2.416.416,0,0,0,.707-.3V17.636a3.143,3.143,0,0,1,3.143-3.143h2.857a3.244,3.244,0,0,1,2.055.733l.28.229a3.926,3.926,0,0,0,4.969,0l.28-.229a3.244,3.244,0,0,1,2.055-.733h2.856a3.144,3.144,0,0,1,3.144,3.143v7.691a.417.417,0,0,0,.707.3,4.907,4.907,0,0,1,3.217-1.2V14.612A7.112,7.112,0,0,0,123.7,7.5Zm0,0" transform="translate(-87.041 -6.443)" fill="#426175"/><path d="M244,7.5h-2.64a10.727,10.727,0,0,1,2.183,6.993h.5a3.143,3.143,0,0,1,3.143,3.143v7.691a.417.417,0,0,0,.707.3,4.908,4.908,0,0,1,3.217-1.2V14.612A7.112,7.112,0,0,0,244,7.5Zm0,0" transform="translate(-207.347 -6.443)" fill="#2c4456"/><path d="M57.642,305.271a86.294,86.294,0,0,0-10.269-3.427l-.74.281a31.523,31.523,0,0,1-22.329,0l-.74-.281A86.3,86.3,0,0,0,13.3,305.271a9.074,9.074,0,0,0-5.552,7.65L7.5,327.466a2.9,2.9,0,0,0,2.9,2.939H60.531a2.9,2.9,0,0,0,2.9-2.939l-.241-14.545a9.074,9.074,0,0,0-5.552-7.65Zm0,0" transform="translate(-6.444 -259.304)" fill="#33bca5"/><path d="M90.259,326.76H54.138a2.094,2.094,0,0,1-2.089-1.945l-1.477-20.727a2.094,2.094,0,0,1,2.089-2.243H91.737a2.094,2.094,0,0,1,2.089,2.243l-1.478,20.727a2.094,2.094,0,0,1-2.089,1.945Zm0,0" transform="translate(-43.439 -259.305)" fill="#f2f2f2"/><path d="M296.211,301.844h-7.626a2.094,2.094,0,0,1,2.089,2.243l-1.616,22.672h5.675a2.093,2.093,0,0,0,2.089-1.945l1.478-20.727a2.094,2.094,0,0,0-2.089-2.243Zm0,0" transform="translate(-247.914 -259.305)" fill="#cdd6df"/><path d="M90.95,482.282H50.177a1.822,1.822,0,0,1,0-3.645H90.95a1.822,1.822,0,0,1,0,3.645Zm0,0" transform="translate(-41.539 -411.182)" fill="#cdd6df"/><path d="M191.076,378.393a2.917,2.917,0,1,1-2.917-2.917A2.917,2.917,0,0,1,191.076,378.393Zm0,0" transform="translate(-159.135 -322.56)" fill="#fff"/><path d="M341.235,111.234a.987.987,0,0,0-.888-.953.392.392,0,0,0-.248.066l-3.316,2.154a.863.863,0,0,0,0,1.462l3.316,2.154a.392.392,0,0,0,.248.066.987.987,0,0,0,.888-.953.6.6,0,0,0-.235-.509l-2.3-1.488,2.3-1.488a.6.6,0,0,0,.235-.509Zm0,0" transform="translate(-288.972 -94.739)"/><path d="M385.755,85.367a.574.574,0,0,0-.548.326L380.624,95.1a.586.586,0,0,0-.065.248.722.722,0,0,0,.732.691.655.655,0,0,0,.587-.326l4.595-9.412a.566.566,0,0,0,.052-.248.748.748,0,0,0-.77-.691Zm0,0" transform="translate(-326.925 -73.336)"/><path d="M437.068,112.5l-3.315-2.154a.4.4,0,0,0-.248-.066.987.987,0,0,0-.887.953.6.6,0,0,0,.235.509l2.3,1.488-2.3,1.488a.6.6,0,0,0-.235.509.987.987,0,0,0,.887.953.4.4,0,0,0,.248-.065l3.315-2.154a.863.863,0,0,0,0-1.462Zm0,0" transform="translate(-371.647 -94.739)"/><path d="M67.047,5.255H44.289A8.183,8.183,0,0,0,36.656,0H21.392a8.178,8.178,0,0,0-8.168,8.168v9.276a3.447,3.447,0,0,0-1.11,3.247l.6,3.3A2.875,2.875,0,0,0,14,26a3.107,3.107,0,0,0,1.634.433v.587c0,2.977,1.737,6.258,4.765,9a19.455,19.455,0,0,0,1.768,1.423v1.77a1.12,1.12,0,0,1-.916,1.1l-.073.016c-.018,0-1.833.478-4.2,1.151H9.222a3.151,3.151,0,0,0-3.143,3.375l.021.3a10.119,10.119,0,0,0-5.856,8.4l0,.045L0,68.148a3.96,3.96,0,0,0,3.96,4.009H54.087a3.961,3.961,0,0,0,3.96-4.013L57.806,53.6c0-.015,0-.03,0-.045a10.171,10.171,0,0,0-6.159-8.545l-.209-.1,0-.056A3.151,3.151,0,0,0,48.3,41.482H41.076c-2.372-.673-4.187-1.146-4.2-1.15s-.048-.012-.073-.017a1.12,1.12,0,0,1-.915-1.1v-1.77a19.559,19.559,0,0,0,1.768-1.424,15.441,15.441,0,0,0,4.095-5.667h6.868l-1.2,4.842a1.908,1.908,0,0,0,.816,2.079,1.907,1.907,0,0,0,2.232-.084l8.9-6.836h7.685A5.056,5.056,0,0,0,72.1,25.3v-15a5.056,5.056,0,0,0-5.05-5.05ZM42.418,19.27a4.56,4.56,0,0,1,1.036-.217,1.363,1.363,0,0,1,.4,1.26l-.6,3.285c-.087.459-.263.568-.321.6a1.031,1.031,0,0,1-.521.117ZM15.337,8.169a6.062,6.062,0,0,1,6.055-6.055H36.657a6.062,6.062,0,0,1,6.055,6.055v8.856a6.152,6.152,0,0,0-1.81.609v-6.44a4.205,4.205,0,0,0-4.2-4.2H33.844a4.318,4.318,0,0,0-2.724.972l-.28.229a2.869,2.869,0,0,1-3.632,0l-.28-.23A4.317,4.317,0,0,0,24.2,6.993H21.348a4.2,4.2,0,0,0-4.2,4.2v6.44a6.149,6.149,0,0,0-1.81-.608ZM15.111,24.2c-.058-.036-.234-.145-.319-.595l-.6-3.294a1.366,1.366,0,0,1,.4-1.26,4.562,4.562,0,0,1,1.037.216v5.049a1.034,1.034,0,0,1-.521-.117ZM5.759,69.277a2.879,2.879,0,0,0,.1.766h-1.9a1.847,1.847,0,0,1-1.847-1.865l.241-14.522a7.759,7.759,0,0,1,3.91-6.177l1.29,18.106a3.125,3.125,0,0,0,.219.946,2.884,2.884,0,0,0-2.015,2.747Zm44.2-3.692,1.311-18.4a7.87,7.87,0,0,1,4.419,6.469l.241,14.518a1.847,1.847,0,0,1-1.847,1.869h-1.9a2.88,2.88,0,0,0-2.4-3.62,3.111,3.111,0,0,0,.177-.838Zm.213,3.692a.767.767,0,0,1-.765.766H8.638a.765.765,0,0,1,0-1.531H49.411A.766.766,0,0,1,50.176,69.277ZM49.057,43.927a1.026,1.026,0,0,1,.275.781L47.854,65.435a1.04,1.04,0,0,1-1.034.963H10.7a1.041,1.041,0,0,1-1.034-.963L8.187,44.707A1.037,1.037,0,0,1,9.221,43.6H48.3a1.028,1.028,0,0,1,.759.33ZM34.7,41.482H23.351a3.23,3.23,0,0,0,.929-2.268v-.473a10.714,10.714,0,0,0,4.744,1.347,10.718,10.718,0,0,0,4.745-1.347v.473a3.23,3.23,0,0,0,.929,2.268Zm1.533-7.028c-2.36,2.138-5.189,3.52-7.207,3.52s-4.846-1.382-7.206-3.52c-2.587-2.344-4.071-5.054-4.071-7.436l0-6.659h.041a1.478,1.478,0,0,0,1.475-1.476V11.193a2.089,2.089,0,0,1,2.086-2.086H24.2A2.195,2.195,0,0,1,25.59,9.6l.281.23a4.983,4.983,0,0,0,6.307,0l.28-.229a2.2,2.2,0,0,1,1.386-.494H36.7a2.089,2.089,0,0,1,2.087,2.086v7.691A1.477,1.477,0,0,0,40.3,20.359l0,6.66c0,2.382-1.484,5.092-4.071,7.436ZM69.983,25.3a2.94,2.94,0,0,1-2.936,2.936H59a1.055,1.055,0,0,0-.644.219l-8.767,6.734,1.4-5.642a1.057,1.057,0,0,0-1.026-1.311H42.322a8.168,8.168,0,0,0,.094-1.222v-.587A3.107,3.107,0,0,0,44.05,26a2.879,2.879,0,0,0,1.287-2.014l.6-3.294a3.446,3.446,0,0,0-1.11-3.247V8.169c0-.269-.013-.536-.039-.8H67.047a2.94,2.94,0,0,1,2.936,2.936Zm0,0"/><path d="M181.716,375.924a3.974,3.974,0,1,0-3.974-3.974A3.978,3.978,0,0,0,181.716,375.924Zm0-5.833a1.86,1.86,0,1,1-1.86,1.86A1.862,1.862,0,0,1,181.716,370.09Zm0,0" transform="translate(-152.692 -316.117)"/></g></g></svg>