<svg xmlns="http://www.w3.org/2000/svg" width="400" height="447" viewBox="0 0 400 447"><g transform="translate(-1020 -6723)"><rect width="400" height="447" transform="translate(1020 6723)" fill="none"/><g transform="translate(-9.999)"><g transform="translate(-1350.548 6627.375)"><path d="M2629.824,142.524c29.451,13.527,29.328,33.141,44.027,53.327,15.3,21.01,51.6,24.737,56.162,46.94,4.557,22.158-24.679,22.4-24.679,53.02s46.032,91.993,32.74,137.135c-13.176,44.748-61.917,70.924-149.348,65.216-87.178-5.69-160.817-54.031-160.817-112.983,0-48.183,45.706-42.847,59.1-64.927,17.952-29.592-21-65.726,15.774-116.326C2543.041,148.53,2592.2,125.243,2629.824,142.524Z" transform="translate(-1.722 -2.233)" fill="#bee7ed"/><g transform="translate(2425.583 470.076)"><rect width="155.453" height="49.71" rx="8.692" transform="translate(0.603 0.604)" fill="#fffdf7"/><path d="M2575.538,563.582H2435.586a8.372,8.372,0,0,1-8.353-8.372V521.035a8.372,8.372,0,0,1,8.353-8.372h139.952a8.373,8.373,0,0,1,8.354,8.372V555.21A8.373,8.373,0,0,1,2575.538,563.582Zm-139.952-49.709a7.163,7.163,0,0,0-7.146,7.162V555.21a7.163,7.163,0,0,0,7.146,7.162h139.952a7.163,7.163,0,0,0,7.148-7.162V521.035a7.163,7.163,0,0,0-7.148-7.162Z" transform="translate(-2427.233 -512.663)" fill="#32293a"/></g><g transform="translate(2674.525 308.22)"><path d="M18.217,0H55.27A18.216,18.216,0,0,1,73.487,18.216V55.43A18.216,18.216,0,0,1,55.27,73.647H18.217A18.217,18.217,0,0,1,0,55.43V18.217A18.217,18.217,0,0,1,18.217,0Z" transform="translate(0.604 0.605)" fill="#fffdf7"/><path d="M2763.975,406.188h-41a16.883,16.883,0,0,1-16.847-16.882V348.216a16.884,16.884,0,0,1,16.847-16.883h41a16.883,16.883,0,0,1,16.846,16.883v41.091A16.883,16.883,0,0,1,2763.975,406.188Zm-41-73.646a15.674,15.674,0,0,0-15.64,15.673v41.091a15.674,15.674,0,0,0,15.64,15.672h41a15.674,15.674,0,0,0,15.639-15.672V348.216a15.675,15.675,0,0,0-15.639-15.673Z" transform="translate(-2706.127 -331.333)" fill="#32293a"/></g><g transform="translate(2451.946 138.639)"><path d="M2586.257,200.17v74.282a10.446,10.446,0,0,1-10.43,10.462H2467.873a10.446,10.446,0,0,1-10.431-10.462V200.17Z" transform="translate(-2456.84 -147.665)" fill="#fffdf7"/><path d="M2586.257,190.935v7.119H2457.442v-7.119a10.447,10.447,0,0,1,10.431-10.462h107.955A10.447,10.447,0,0,1,2586.257,190.935Z" transform="translate(-2456.84 -145.55)" fill="#583ae2"/><g transform="translate(0 51.9)"><path d="M2575.754,285.445H2467.8a11.061,11.061,0,0,1-11.032-11.066V199.492h36.263a.6.6,0,0,1,0,1.209h-35.056v73.677a9.852,9.852,0,0,0,9.826,9.857h107.954a9.852,9.852,0,0,0,9.827-9.857V200.7h-32.154a.6.6,0,0,1,0-1.209h33.361v74.887A11.063,11.063,0,0,1,2575.754,285.445Z" transform="translate(-2456.767 -199.492)" fill="#32293a"/></g><g transform="translate(0 34.319)"><path d="M2493.03,198.586h-36.263v-7.724A11.062,11.062,0,0,1,2467.8,179.8h19.195a.6.6,0,0,1,0,1.209H2467.8a9.853,9.853,0,0,0-9.826,9.857v6.514h35.056a.6.6,0,0,1,0,1.209Z" transform="translate(-2456.767 -179.796)" fill="#32293a"/></g><g transform="translate(96.057 34.319)"><path d="M2598.345,198.586h-33.361a.6.6,0,0,1,0-1.209h32.154v-6.514a9.853,9.853,0,0,0-9.827-9.857h-16.625a.6.6,0,0,1,0-1.209h16.625a11.063,11.063,0,0,1,11.034,11.066Z" transform="translate(-2564.381 -179.796)" fill="#32293a"/></g><rect width="110.227" height="27.812" rx="7.57" transform="translate(10.089 62.486)" fill="#e0feec"/><rect width="110.227" height="27.812" rx="7.57" transform="translate(10.089 99.792)" fill="#e0feec"/><g transform="translate(34.862 0)"><ellipse cx="30.861" cy="30.928" rx="30.861" ry="30.928" transform="translate(0.604 0.605)" fill="#fffdf7"/><path d="M2527.289,204.414a31.533,31.533,0,1,1,31.464-31.533A31.536,31.536,0,0,1,2527.289,204.414Zm0-61.857a30.324,30.324,0,1,0,30.256,30.324A30.325,30.325,0,0,0,2527.289,142.557Z" transform="translate(-2495.824 -141.348)" fill="#32293a"/></g><g transform="translate(46.744 32.599)"><path d="M2547.042,185.9a3.223,3.223,0,0,1,.373,4.174,22.757,22.757,0,0,1-36.976.356,3.224,3.224,0,0,1,.3-4.177,25.634,25.634,0,0,1,36.3-.353Z" transform="translate(-2509.208 -177.942)" fill="#583ae2"/><path d="M2528.716,200.277a23.491,23.491,0,0,1-18.836-9.557,3.827,3.827,0,0,1,.36-4.959,26.234,26.234,0,0,1,37.152-.361h0a3.826,3.826,0,0,1,.443,4.954A23.474,23.474,0,0,1,2528.716,200.277Zm.282-21.2a24.834,24.834,0,0,0-17.9,7.528,2.619,2.619,0,0,0-.251,3.4,22.156,22.156,0,0,0,36-.347,2.618,2.618,0,0,0-.305-3.392h0A24.867,24.867,0,0,0,2529,179.078Z" transform="translate(-2509.135 -177.869)" fill="#32293a"/></g><g transform="translate(58.197 12.964)"><path d="M2522.642,164.093a7.527,7.527,0,1,1,7.527,7.543A7.535,7.535,0,0,1,2522.642,164.093Z" transform="translate(-2522.039 -155.945)" fill="#583ae2"/><path d="M2530.1,172.168a8.148,8.148,0,1,1,8.13-8.149A8.148,8.148,0,0,1,2530.1,172.168Zm0-15.087a6.939,6.939,0,1,0,6.923,6.938A6.938,6.938,0,0,0,2530.1,157.081Z" transform="translate(-2521.966 -155.872)" fill="#32293a"/></g></g><path d="M2665.428,189.341c3.177,5.242-2.743,9.53-5.966,12.939-8.6,9.1-16.815-7.93-16.815-7.93l-8.57-9.8c-4.932-8.412,1.834-13.328,14.506-12.148,5.864.545,10.215,3.719,11.436,9.362C2660.87,185.7,2663.956,186.913,2665.428,189.341Z" transform="translate(-23.69 -6.025)" fill="#32293a"/><g transform="translate(2608.82 457.003)"><rect width="24.924" height="26.063" transform="translate(7.264)" fill="#f4c7a8"/><path d="M2666.357,511.259h-.97a3.05,3.05,0,0,0-2.695,1.624l-1.955,3.686h-17.765l-1.955-3.686a3.049,3.049,0,0,0-2.694-1.624h-.971a4.306,4.306,0,0,0-4.3,4.312v27.965a5,5,0,0,0,4.992,5h27.625a5,5,0,0,0,4.993-5V515.571A4.306,4.306,0,0,0,2666.357,511.259Z" transform="translate(-2632.574 -499.439)" fill="#583ae2"/><path d="M2645.028,515.951v-2.32a8.123,8.123,0,0,1,8.114-8.132h0a8.123,8.123,0,0,1,8.113,8.132v2.32Z" transform="translate(-2633.859 -498.821)" fill="#583ae2"/><g transform="translate(10.566 16.526)"><path d="M2661.255,517.208l-2.549,18.036a3.837,3.837,0,0,1-3.8,3.3h-3.539a3.837,3.837,0,0,1-3.8-3.3l-2.549-18.036Z" transform="translate(-2644.425 -516.604)" fill="#583ae2"/><path d="M2654.838,539.079H2651.3a4.458,4.458,0,0,1-4.391-3.824l-2.549-18.035a.6.6,0,1,1,1.193-.17l2.55,18.036a3.246,3.246,0,0,0,3.2,2.782h3.539a3.247,3.247,0,0,0,3.2-2.782l2.55-18.036a.608.608,0,0,1,.68-.513.6.6,0,0,1,.513.683l-2.55,18.036A4.458,4.458,0,0,1,2654.838,539.079Z" transform="translate(-2644.353 -516.531)" fill="#32293a"/></g><g transform="translate(11.544 21.68)"><path d="M2646.125,522.984h0Z" transform="translate(-2645.522 -522.379)" fill="#ffcc38"/><path d="M2660.573,523.516h-14.519a.6.6,0,0,1,0-1.209h14.519a.6.6,0,0,1,0,1.209Z" transform="translate(-2645.449 -522.306)" fill="#32293a"/></g><g transform="translate(12.865 27.185)"><path d="M2647.606,529.15h0Z" transform="translate(-2647.002 -528.546)" fill="#ffcc38"/><path d="M2659.409,529.682h-11.877a.6.6,0,0,1,0-1.209h11.877a.6.6,0,0,1,0,1.209Z" transform="translate(-2646.929 -528.473)" fill="#32293a"/></g><g transform="translate(13.41 32.763)"><path d="M2648.215,535.4h0Z" transform="translate(-2647.612 -534.795)" fill="#ffcc38"/><path d="M2658.93,535.932h-10.788a.6.6,0,0,1,0-1.209h10.788a.6.6,0,0,1,0,1.209Z" transform="translate(-2647.539 -534.722)" fill="#32293a"/></g><g transform="translate(0 43.771)"><path d="M2665.737,560.472h-27.625a5.61,5.61,0,0,1-5.6-5.609v-7.2a.6.6,0,1,1,1.207,0v7.2a4.4,4.4,0,0,0,4.389,4.4h27.625a4.4,4.4,0,0,0,4.389-4.4v-7.2a.6.6,0,1,1,1.207,0v7.2A5.61,5.61,0,0,1,2665.737,560.472Z" transform="translate(-2632.516 -547.055)" fill="#32293a"/></g></g><path d="M2587.932,246.753l-6.96,8.352,20.223,18.14,7.445-9.157Z" transform="translate(-18.161 -14.029)" fill="#f4c7a8"/><g transform="translate(2484.684 420.021)"><rect width="24.924" height="21.384" transform="translate(69.097 21.384) rotate(180)" fill="#f4c7a8"/><path d="M2567.24,473.831v-1.775a3.506,3.506,0,0,0-3.5-3.51h-1.165a3.5,3.5,0,0,0-3.123,1.923l-1.652,3.265a3.5,3.5,0,0,1-3.123,1.923H2544.6a3.5,3.5,0,0,1-2.847-1.465l-5.575-7.794a3.5,3.5,0,0,0-2.846-1.465h0a4.3,4.3,0,0,0-2.574,1.13c-9.667,7.46-20.092,14.841-30.214,21.441-1.636,1.067-3.289,2.1-3.914,3.953l-2.508,7.436h72.9Z" transform="translate(-2493.517 -457.482)" fill="#583ae2"/><g transform="translate(0 40.807)"><path d="M2564.691,512.76H2496.3a2.862,2.862,0,0,1-2.855-2.863v-6.99a.6.6,0,1,1,1.207,0v6.99a1.653,1.653,0,0,0,1.649,1.653h68.392a1.652,1.652,0,0,0,1.649-1.653v-6.99a.6.6,0,1,1,1.208,0v6.99A2.863,2.863,0,0,1,2564.691,512.76Z" transform="translate(-2493.444 -502.302)" fill="#32293a"/></g><g transform="translate(58.343 26.396)"><path d="M2559.818,501.5l-1.011-.661,7.458-11.469a7.045,7.045,0,0,1,5.922-3.217h2v1.209h-2a5.838,5.838,0,0,0-4.911,2.668Z" transform="translate(-2558.807 -486.157)" fill="#32293a"/></g><g transform="translate(13.451 11.781)"><path d="M2515.206,491.07a3.637,3.637,0,0,1-.742-.078,3.526,3.526,0,0,1-2.245-1.548l-3.7-5.73,1.012-.658,3.7,5.73a2.344,2.344,0,0,0,3.253.69l14.4-9.437a2.354,2.354,0,0,0,.607-3.357l-4.523-6.185.974-.715,4.524,6.184a3.566,3.566,0,0,1-.923,5.085l-14.4,9.436A3.519,3.519,0,0,1,2515.206,491.07Z" transform="translate(-2508.514 -469.783)" fill="#32293a"/></g><g transform="translate(27.287 15.092)"><path d="M2524.69,474.169l5.639,8.049Z" transform="translate(-2524.087 -473.565)" fill="#ffcc38"/><path d="M2530.257,482.75a.6.6,0,0,1-.494-.258l-5.639-8.049a.6.6,0,1,1,.987-.694l5.64,8.049a.6.6,0,0,1-.494.952Z" transform="translate(-2524.014 -473.493)" fill="#32293a"/></g><g transform="translate(22.771 18.28)"><path d="M2519.63,477.74l5.639,8.049Z" transform="translate(-2519.027 -477.137)" fill="#ffcc38"/><path d="M2525.2,486.321a.6.6,0,0,1-.494-.258l-5.64-8.049a.6.6,0,0,1,.988-.694l5.64,8.049a.605.605,0,0,1-.494.952Z" transform="translate(-2518.954 -477.064)" fill="#32293a"/></g><g transform="translate(18.168 21.273)"><path d="M2514.474,481.094l5.639,8.049Z" transform="translate(-2513.87 -480.49)" fill="#ffcc38"/><path d="M2520.042,489.674a.6.6,0,0,1-.494-.257l-5.64-8.049a.6.6,0,1,1,.987-.694l5.64,8.049a.6.6,0,0,1-.494.951Z" transform="translate(-2513.797 -480.418)" fill="#32293a"/></g></g><path d="M2632.624,222.474l-11.131-4.242a14.192,14.192,0,0,0-15.867,4.075l-16.857,21.283,20.707,17.335,7.779-8.077V286.5h50.651V265.349l3.91,6.938,24.957-10.646-17.535-30.73a11.146,11.146,0,0,0-11.487-5.481l-15.066,2.476Z" transform="translate(-18.998 -10.866)" fill="#583ae2"/><path d="M2611.462,294.824v16.438l-62.435,33.645a27.048,27.048,0,0,0-14.2,23.815v71.027a3.328,3.328,0,0,0,3.365,3.331l33.7-.414a3.328,3.328,0,0,0,3.284-3.331V379.841l46.811-27.183,1.146,125.844a3.329,3.329,0,0,0,3.325,3.3h32.329a3.328,3.328,0,0,0,3.324-3.332V294.824Z" transform="translate(-13.204 -19.192)" fill="#32293a"/><path d="M2659.147,224.522c-.46,7.4-8.421,14.616-16.31,12.782s-8.443-13.681-5.181-18.1a21.772,21.772,0,0,0,2.411-.94,4.493,4.493,0,0,0,2.732-3.827l.191-2.734c-6.025,1.224-13.509-7.1-8.89-25.668,2.415,3.823,11.988,5.966,15.7,4.025.2,4.466,3.815,4.782,3.815,4.782l-.258,5.7c6.309-2.515,9.488,5.461,3.5,7.56.034.065-.546,5.432-.813,7.879a4.5,4.5,0,0,0,.356,2.294Z" transform="translate(-23.712 -7.508)" fill="#f4c7a8"/><g transform="translate(2506.42 211.563)"><path d="M2664.414,350.891l-5.7,6.382a12.908,12.908,0,0,1-18.254,1.013L2522.77,252.715a12.975,12.975,0,0,1-1.011-18.294l5.7-6.382a12.908,12.908,0,0,1,18.255-1.013L2663.4,332.6A12.976,12.976,0,0,1,2664.414,350.891Z" transform="translate(-2517.867 -223.118)" fill="#fffdf7"/><path d="M2649,362.113a13.465,13.465,0,0,1-9.018-3.449L2522.295,253.093a13.6,13.6,0,0,1-1.056-19.147l5.7-6.383a13.51,13.51,0,0,1,19.105-1.06l117.69,105.57a13.579,13.579,0,0,1,1.058,19.147l-5.7,6.382A13.486,13.486,0,0,1,2649,362.113ZM2537.036,224.255c-.232,0-.464.006-.7.019a12.232,12.232,0,0,0-8.5,4.094l-5.7,6.383a12.385,12.385,0,0,0,.965,17.441l117.691,105.57a12.32,12.32,0,0,0,17.4-.966l5.7-6.382a12.369,12.369,0,0,0-.966-17.44L2545.238,227.4A12.217,12.217,0,0,0,2537.036,224.255Zm127.307,126.562h0Z" transform="translate(-2517.796 -223.046)" fill="#32293a"/></g><g transform="translate(2519.046 225.318)"><path d="M2532.617,242.874a3.732,3.732,0,1,1,3.733,3.741A3.736,3.736,0,0,1,2532.617,242.874Z" transform="translate(-2532.014 -238.529)" fill="#fffdf7"/><path d="M2536.277,239.665a3.136,3.136,0,1,0,3.128,3.137A3.136,3.136,0,0,0,2536.277,239.665Zm0,7.482a4.346,4.346,0,1,1,4.336-4.345A4.345,4.345,0,0,1,2536.277,247.147Z" transform="translate(-2531.941 -238.456)" fill="#32293a"/><g transform="translate(14.566 13.047)"><path d="M2548.936,257.491a3.732,3.732,0,1,1,3.733,3.741A3.736,3.736,0,0,1,2548.936,257.491Z" transform="translate(-2548.333 -253.146)" fill="#fffdf7"/><path d="M2552.6,254.282a3.136,3.136,0,1,0,3.128,3.137A3.137,3.137,0,0,0,2552.6,254.282Zm0,7.482a4.346,4.346,0,1,1,4.335-4.345A4.346,4.346,0,0,1,2552.6,261.764Z" transform="translate(-2548.26 -253.073)" fill="#32293a"/></g><g transform="translate(29.133 26.094)"><path d="M2565.256,272.109a3.732,3.732,0,1,1,3.733,3.74A3.737,3.737,0,0,1,2565.256,272.109Z" transform="translate(-2564.652 -267.763)" fill="#fffdf7"/><path d="M2568.915,268.9a3.136,3.136,0,1,0,3.129,3.136A3.136,3.136,0,0,0,2568.915,268.9Zm0,7.481a4.346,4.346,0,1,1,4.336-4.345A4.346,4.346,0,0,1,2568.915,276.381Z" transform="translate(-2564.579 -267.69)" fill="#32293a"/></g><g transform="translate(43.7 39.142)"><path d="M2581.575,286.726a3.732,3.732,0,1,1,3.732,3.74A3.736,3.736,0,0,1,2581.575,286.726Z" transform="translate(-2580.972 -282.38)" fill="#fffdf7"/><path d="M2585.235,283.517a3.136,3.136,0,1,0,3.128,3.136A3.136,3.136,0,0,0,2585.235,283.517Zm0,7.481a4.346,4.346,0,1,1,4.335-4.345A4.346,4.346,0,0,1,2585.235,291Z" transform="translate(-2580.899 -282.307)" fill="#32293a"/></g><g transform="translate(58.267 52.19)"><path d="M2597.9,301.343a3.732,3.732,0,1,1,3.732,3.741A3.737,3.737,0,0,1,2597.9,301.343Z" transform="translate(-2597.291 -296.998)" fill="#fffdf7"/><path d="M2601.554,298.134a3.136,3.136,0,1,0,3.13,3.136A3.136,3.136,0,0,0,2601.554,298.134Zm0,7.481a4.345,4.345,0,1,1,4.336-4.345A4.346,4.346,0,0,1,2601.554,305.615Z" transform="translate(-2597.218 -296.925)" fill="#32293a"/></g><g transform="translate(72.833 65.237)"><path d="M2614.214,315.96a3.732,3.732,0,1,1,3.733,3.741A3.737,3.737,0,0,1,2614.214,315.96Z" transform="translate(-2613.61 -311.615)" fill="#fffdf7"/><path d="M2617.875,312.751a3.136,3.136,0,1,0,3.128,3.136A3.136,3.136,0,0,0,2617.875,312.751Zm0,7.481a4.345,4.345,0,1,1,4.335-4.345A4.346,4.346,0,0,1,2617.875,320.232Z" transform="translate(-2613.537 -311.542)" fill="#32293a"/></g><g transform="translate(87.4 78.284)"><path d="M2630.533,330.577a3.733,3.733,0,1,1,3.733,3.741A3.737,3.737,0,0,1,2630.533,330.577Z" transform="translate(-2629.93 -326.232)" fill="#fffdf7"/><path d="M2634.193,327.368a3.136,3.136,0,1,0,3.129,3.137A3.137,3.137,0,0,0,2634.193,327.368Zm0,7.482a4.346,4.346,0,1,1,4.336-4.345A4.347,4.347,0,0,1,2634.193,334.85Z" transform="translate(-2629.857 -326.159)" fill="#32293a"/></g><g transform="translate(101.967 91.331)"><path d="M2646.853,345.194a3.732,3.732,0,1,1,3.732,3.741A3.736,3.736,0,0,1,2646.853,345.194Z" transform="translate(-2646.249 -340.849)" fill="#fffdf7"/><path d="M2650.513,341.985a3.136,3.136,0,1,0,3.129,3.137A3.137,3.137,0,0,0,2650.513,341.985Zm0,7.482a4.346,4.346,0,1,1,4.336-4.345A4.347,4.347,0,0,1,2650.513,349.467Z" transform="translate(-2646.176 -340.776)" fill="#32293a"/></g><g transform="translate(116.533 104.378)"><path d="M2663.172,359.812a3.733,3.733,0,1,1,3.733,3.741A3.736,3.736,0,0,1,2663.172,359.812Z" transform="translate(-2662.568 -355.466)" fill="#fffdf7"/><path d="M2666.832,356.6a3.136,3.136,0,1,0,3.13,3.137A3.137,3.137,0,0,0,2666.832,356.6Zm0,7.482a4.346,4.346,0,1,1,4.336-4.345A4.347,4.347,0,0,1,2666.832,364.084Z" transform="translate(-2662.495 -355.393)" fill="#32293a"/></g></g><path d="M2674.367,277.622l5.013,10.369-42.242,24.859s-14.052-3.885-16.4-4.579-3.53,2.826-1.151,4.579c1.761,1.3,6.936,5.8,6.936,5.8s-10.59,9.859-13.052,12.112c-3.024,2.767,1.811,8.34,5.052,5.663-3.125,2.822,2.755,7.173,5.5,4.627-2.572,2.45,2.932,7.177,5.572,4.114-1.845,2.816,3.341,5.234,5.566,3.016S2654.331,330,2654.331,330l47.618-27.295a13.994,13.994,0,0,0,5.685-18.105l-8.311-17.626Z" transform="translate(-21.548 -16.201)" fill="#f4c7a8"/><path d="M2572.9,300.208l-4.9,5.079a13.509,13.509,0,0,1-20.376-1.068l-16.214-20.754a10.2,10.2,0,0,1-1.53-2.747l-6.055-16.427a6.836,6.836,0,0,1,1.445-7.068c4.015-4.242,10.836-11.526,11.847-12.68,2.269-2.589,5.762,1.149,4.151,3.675-.007.1,2.243-2.288,2.243-2.288,1.487-1.779,5.979.547,3.794,4.077l-1.749,3.143c2.639-3.018,6.785-.228,4.908,3.414a30.129,30.129,0,0,1-2.437,3.85c2.1-2.676,6.088.61,4.383,3.4s-3.83,6.887-3.83,6.887c4.89,1.267,4.555,6.68,3.759,11.012Z" transform="translate(-11.977 -13.698)" fill="#f4c7a8"/><g transform="translate(2590.357 291.377)"><path d="M2632.805,354.545a5.034,5.034,0,0,1-3.113-1.084,2.918,2.918,0,0,1-1.149-2,3.635,3.635,0,0,1-2.061.095,5.166,5.166,0,0,1-3.687-3.321,2.923,2.923,0,0,1-.1-1,4.48,4.48,0,0,1-2.244-.155,5.018,5.018,0,0,1-3.423-3.335,2.794,2.794,0,0,1-.012-1.157,4.6,4.6,0,0,1-3.918-1.7c-1.344-1.553-1.948-3.994-.1-5.684,2.143-1.96,10.442-9.681,12.558-11.649-1.346-1.165-4.992-4.3-6.389-5.332a3.526,3.526,0,0,1-1.224-4.369,2.37,2.37,0,0,1,2.9-1.277c2.144.636,14.256,3.986,16.142,4.508l5.026-2.956a.6.6,0,1,1,.609,1.043l-5.244,3.087a.608.608,0,0,1-.465.062c-.142-.039-14.085-3.894-16.41-4.583a1.178,1.178,0,0,0-1.478.655,2.317,2.317,0,0,0,.856,2.857c1.76,1.3,6.762,5.65,6.975,5.835a.6.6,0,0,1,.015.9s-10.594,9.862-13.058,12.116c-1.251,1.144-.773,2.874.2,4,1,1.152,2.694,1.88,4.064.751a.6.6,0,0,1,.787.916,1.745,1.745,0,0,0-.653,1.727,3.832,3.832,0,0,0,2.606,2.439,2.753,2.753,0,0,0,2.738-.431.6.6,0,0,1,.824.882,1.456,1.456,0,0,0-.412,1.535,3.941,3.941,0,0,0,2.79,2.464,2.261,2.261,0,0,0,2.322-.718.6.6,0,0,1,.961.727,1.491,1.491,0,0,0,.423,2.138c1.122.918,3.164,1.165,4.213.118,2.206-2.2,19.007-18.036,19.177-18.2a.65.65,0,0,1,.115-.084l27.078-15.521a.6.6,0,0,1,.6,1.049l-27.018,15.487c-1.037.979-16.966,16-19.1,18.123A3.78,3.78,0,0,1,2632.805,354.545Z" transform="translate(-2611.831 -312.463)" fill="#32293a"/></g><g transform="translate(2510.81 229.365)"><path d="M2547.546,304.751a.6.6,0,0,1-.475-.232l-16.214-20.753a10.8,10.8,0,0,1-1.62-2.911l-6.056-16.428a7.4,7.4,0,0,1,1.572-7.692c4.1-4.332,10.83-11.52,11.833-12.663a2.832,2.832,0,0,1,4.042-.425,4.022,4.022,0,0,1,1.553,2.655c.267-.279.547-.573.815-.859.96-1.151,2.789-.955,3.985-.087a3.448,3.448,0,0,1,.759,4.9l-.587,1.058a3.48,3.48,0,0,1,2.808.475,3.706,3.706,0,0,1,.962,4.984c-.361.7-.765,1.382-1.143,1.974a3.364,3.364,0,0,1,1.966.628,3.483,3.483,0,0,1,1.1,4.683c-1.276,2.084-2.806,4.947-3.472,6.209,5.245,1.893,4.353,8.121,3.9,10.66l3.947,3.54a.6.6,0,0,1-.805.9l-4.2-3.766a.6.6,0,0,1-.19-.561c1.062-5.78-.105-8.9-3.672-9.827a.6.6,0,0,1-.4-.339.61.61,0,0,1,.015-.524c.022-.042,2.156-4.153,3.852-6.927a2.259,2.259,0,0,0-.762-3.057,1.817,1.817,0,0,0-2.632.351.6.6,0,0,1-.954-.739,29.887,29.887,0,0,0,2.381-3.761,2.392,2.392,0,1,0-3.919-2.738.6.6,0,0,1-.98-.693l1.748-3.143c1.189-1.922-.025-3.015-.425-3.305-.737-.532-1.853-.718-2.379-.089-2.5,2.655-2.5,2.652-2.948,2.456a.609.609,0,0,1-.361-.6.593.593,0,0,1,.094-.286,2.5,2.5,0,0,0-.778-3.207,1.65,1.65,0,0,0-2.412.256c-1.01,1.153-7.753,8.36-11.862,12.7a6.2,6.2,0,0,0-1.318,6.442l6.056,16.427a9.577,9.577,0,0,0,1.439,2.584l16.213,20.753a.6.6,0,0,1-.474.977Z" transform="translate(-2522.714 -242.99)" fill="#32293a"/></g><g transform="translate(2596.375 313.961)"><path d="M2619.176,344.635a.6.6,0,0,1-.434-.186.608.608,0,0,1,.016-.855l5.866-5.661a.6.6,0,0,1,.838.87l-5.866,5.662A.6.6,0,0,1,2619.176,344.635Z" transform="translate(-2618.573 -337.765)" fill="#32293a"/></g><g transform="translate(2601.7 318.597)"><path d="M2625.142,349.83a.6.6,0,0,1-.434-.186.606.606,0,0,1,.015-.855l5.865-5.663a.6.6,0,0,1,.838.871l-5.865,5.663A.6.6,0,0,1,2625.142,349.83Z" transform="translate(-2624.54 -342.958)" fill="#32293a"/></g><g transform="translate(2607.152 322.615)"><path d="M2631.25,354.712a.6.6,0,0,1-.435-1.024l5.784-6.043a.6.6,0,1,1,.87.837l-5.784,6.043A.6.6,0,0,1,2631.25,354.712Z" transform="translate(-2630.647 -347.46)" fill="#32293a"/></g><g transform="translate(2519.083 233.916)"><path d="M2532.585,259.992a.605.605,0,0,1-.449-1.01l9.6-10.693a.6.6,0,0,1,.9.809l-9.6,10.693A.6.6,0,0,1,2532.585,259.992Z" transform="translate(-2531.982 -248.089)" fill="#32293a"/></g><g transform="translate(2524.523 238.849)"><path d="M2538.679,266.137a.6.6,0,0,1-.483-.967l8.45-11.314a.6.6,0,1,1,.966.724l-8.449,11.315A.6.6,0,0,1,2538.679,266.137Z" transform="translate(-2538.077 -253.615)" fill="#32293a"/></g><g transform="translate(2528.855 246.113)"><path d="M2543.532,271.945a.6.6,0,0,1-.485-.963l6.588-8.982a.6.6,0,1,1,.971.716l-6.589,8.982A.6.6,0,0,1,2543.532,271.945Z" transform="translate(-2542.93 -261.753)" fill="#32293a"/></g><g transform="translate(2641.104 221.487)"><path d="M2680.4,274.7a.6.6,0,0,1-.518-.3l-11.113-18.759a.6.6,0,1,1,1.036-.618l10.844,18.3,23.846-10.173-16.01-28.092a.6.6,0,1,1,1.047-.6l16.346,28.682a.6.6,0,0,1-.287.856l-24.956,10.646A.6.6,0,0,1,2680.4,274.7Z" transform="translate(-2668.684 -234.165)" fill="#32293a"/></g><g transform="translate(2598.054 226.772)"><path d="M2621.059,273.884a.6.6,0,0,1-.6-.605v-32.59a.6.6,0,1,1,1.207,0v32.59A.6.6,0,0,1,2621.059,273.884Z" transform="translate(-2620.455 -240.085)" fill="#32293a"/></g><g transform="translate(2569.168 205.97)"><path d="M2609.4,261.474a.6.6,0,0,1-.386-.141L2588.31,244a.606.606,0,0,1-.077-.851l17.885-21.517a14.512,14.512,0,0,1,16.006-3.89l10.645,4.113a.6.6,0,0,1-.434,1.128l-10.646-4.113a13.3,13.3,0,0,0-14.658,3.551l-17.486,21.038,19.814,16.587,7.39-7.673a.6.6,0,1,1,.867.84l-7.779,8.077A.6.6,0,0,1,2609.4,261.474Z" transform="translate(-2588.094 -216.78)" fill="#32293a"/></g><g transform="translate(2608.863 182.098)"><path d="M2634.421,200.654a.6.6,0,0,1-.438-.189l-.99-1.045a1.578,1.578,0,0,1-.406-1.35,1.529,1.529,0,0,1,.828-1.111,3.54,3.54,0,0,0,1.869-1.819c.687-2.116-1.551-3.575-2.251-3.972a.6.6,0,0,1,.591-1.053c2.414,1.363,3.462,3.381,2.806,5.4a4.571,4.571,0,0,1-2.479,2.527.324.324,0,0,0-.175.239.354.354,0,0,0,.092.307l.991,1.046a.605.605,0,0,1-.437,1.021Z" transform="translate(-2632.564 -190.036)" fill="#32293a"/></g><path d="M2635.847,196.071a1.216,1.216,0,1,1-.825-1.714A1.361,1.361,0,0,1,2635.847,196.071Z" transform="translate(-23.8 -8.399)" fill="#32293a"/><path d="M2645.621,199.69a1.216,1.216,0,1,1-.826-1.713A1.36,1.36,0,0,1,2645.621,199.69Z" transform="translate(-24.851 -8.788)" fill="#32293a"/><g transform="translate(2619.165 185.242)"><path d="M2648.513,197.478a.6.6,0,0,1-.6-.532,2.332,2.332,0,0,0-1-1.648,2.776,2.776,0,0,0-2.073-.488.6.6,0,0,1-.266-1.179,4,4,0,0,1,3.033.679,3.491,3.491,0,0,1,1.5,2.489.6.6,0,0,1-.525.674A.68.68,0,0,1,2648.513,197.478Z" transform="translate(-2644.106 -193.558)" fill="#32293a"/></g><g transform="translate(2612.887 201.827)"><path d="M2643.524,215.369a9.451,9.451,0,0,1-6.236-2.163.6.6,0,0,1,.776-.927c1.532,1.287,4.29,2.58,8.718,1.438a.6.6,0,0,1,.3,1.172A14.27,14.27,0,0,1,2643.524,215.369Z" transform="translate(-2637.073 -212.139)" fill="#32293a"/></g><g transform="translate(2610.979 195.701)"><path d="M2637.181,207.726a2.337,2.337,0,0,1-.852-.166,2.069,2.069,0,0,1-1.394-1.655.6.6,0,0,1,.577-.63.579.579,0,0,1,.627.578,1.023,1.023,0,0,0,.634.582.962.962,0,0,0,1.089-.212.6.6,0,1,1,.846.861A2.158,2.158,0,0,1,2637.181,207.726Z" transform="translate(-2634.934 -205.275)" fill="#32293a"/></g><g transform="translate(2619.166 199.988)"><path d="M2646.958,240.885a10.134,10.134,0,0,1-2.389-.282.6.6,0,0,1-.445-.73.6.6,0,0,1,.726-.445,10.734,10.734,0,0,0,8.7-2.023,14.9,14.9,0,0,0,6.208-10.191l-2.618-5.257a5.324,5.324,0,0,1-.531-2.938l.875-8.4a.613.613,0,0,1,.662-.538.6.6,0,0,1,.538.663l-.876,8.4a4.12,4.12,0,0,0,.411,2.273l2.7,5.417a.6.6,0,0,1,.06.335,16.1,16.1,0,0,1-6.732,11.224A12.7,12.7,0,0,1,2646.958,240.885Z" transform="translate(-2644.107 -210.078)" fill="#32293a"/></g><g transform="translate(2652.217 260.817)"><path d="M2687.985,292.324a.6.6,0,0,1-.543-.34l-6.247-12.888a.6.6,0,0,1,1.085-.529l6.247,12.888a.606.606,0,0,1-.279.809A.6.6,0,0,1,2687.985,292.324Z" transform="translate(-2681.134 -278.227)" fill="#32293a"/></g><g transform="translate(2582.582 249.455)"><path d="M2603.724,275.677a.605.605,0,0,1-.468-.987l7.295-8.971a.6.6,0,1,1,.935.763l-7.293,8.972A.606.606,0,0,1,2603.724,275.677Z" transform="translate(-2603.121 -265.497)" fill="#32293a"/></g><g transform="translate(2551.276 348.709)"><path d="M2568.651,394.81a.605.605,0,0,1-.3-1.128l29.2-16.907a.6.6,0,0,1,.605,1.046l-29.2,16.908A.612.612,0,0,1,2568.651,394.81Z" transform="translate(-2568.048 -376.694)" fill="#faf5ff"/></g><g transform="translate(2617.811 203.843)"><path d="M2643.193,220.363a.557.557,0,0,1-.087-.006.6.6,0,0,1-.511-.685l.677-4.756a.613.613,0,0,1,.683-.513.6.6,0,0,1,.511.685l-.678,4.756A.6.6,0,0,1,2643.193,220.363Z" transform="translate(-2642.589 -214.398)" fill="#32293a"/></g><g transform="translate(2697.577 337.75)"><path d="M2758.863,387.386l-10.592,6.462a3.314,3.314,0,0,1-3.456,0l-10.593-6.462a3.331,3.331,0,0,1-1.595-2.845V368.424a3.327,3.327,0,0,1,3.323-3.33h21.185a3.327,3.327,0,0,1,3.323,3.33v16.117A3.332,3.332,0,0,1,2758.863,387.386Z" transform="translate(-2732.025 -364.489)" fill="#583ae2"/><path d="M2746.47,394.868a3.921,3.921,0,0,1-2.042-.577l-10.592-6.462a3.962,3.962,0,0,1-1.885-3.362V368.352a3.935,3.935,0,0,1,3.927-3.936h21.185a3.936,3.936,0,0,1,3.927,3.936v16.117a3.961,3.961,0,0,1-1.885,3.362h0l-10.593,6.462A3.914,3.914,0,0,1,2746.47,394.868Zm-10.592-29.243a2.725,2.725,0,0,0-2.719,2.726v16.117a2.746,2.746,0,0,0,1.3,2.329l10.593,6.462a2.706,2.706,0,0,0,2.829,0l10.593-6.462a2.745,2.745,0,0,0,1.3-2.329V368.352a2.725,2.725,0,0,0-2.719-2.726Z" transform="translate(-2731.952 -364.416)" fill="#32293a"/></g><g transform="translate(2708.957 346.217)"><path d="M2750.237,377.014a2.437,2.437,0,0,1-.923,1.915v4.151a1.509,1.509,0,0,1-2.578,1.074,1.533,1.533,0,0,1-.442-1.074v-4.157a2.434,2.434,0,1,1,3.943-1.908Z" transform="translate(-2744.774 -373.974)" fill="#ff9b38"/><path d="M2747.735,385.128a2.1,2.1,0,0,1-1.5-.621,2.139,2.139,0,0,1-.618-1.5V379.12a3.032,3.032,0,1,1,4.228.008v3.878A2.119,2.119,0,0,1,2747.735,385.128Zm0-10.018a1.834,1.834,0,0,0-1.136,3.269.6.6,0,0,1,.226.47v4.157a.919.919,0,0,0,.266.646.906.906,0,0,0,1.547-.646v-4.151a.607.607,0,0,1,.228-.473,1.835,1.835,0,0,0-1.131-3.272Z" transform="translate(-2744.701 -373.901)" fill="#32293a"/></g><g transform="translate(2702.517 324.51)"><path d="M2755.83,363.893a.6.6,0,0,1-.6-.605V354.2a3.409,3.409,0,0,0-3.4-3.41H2742.1a3.41,3.41,0,0,0-3.4,3.41v9.086a.6.6,0,1,1-1.207,0V354.2a4.62,4.62,0,0,1,4.609-4.619h9.729a4.619,4.619,0,0,1,4.609,4.619v9.086A.6.6,0,0,1,2755.83,363.893Z" transform="translate(-2737.486 -349.583)" fill="#32293a"/></g><g transform="translate(2411.875 316.792)"><path d="M2423.569,440.283a.6.6,0,0,1-.525-.308c-7.627-13.551-14.691-30.424-9.241-52.832,5.8-23.866,34.174-37.33,49.417-44.563,1.179-.56,2.289-1.087,3.319-1.583a.6.6,0,0,1,.524,1.089c-1.031.5-2.144,1.026-3.325,1.586-16.119,7.649-43.1,20.451-48.761,43.758-5.349,22,1.608,38.607,9.119,51.952a.606.606,0,0,1-.227.824A.615.615,0,0,1,2423.569,440.283Z" transform="translate(-2411.875 -340.936)" fill="#32293a"/></g><g transform="translate(2698.098 201.234)"><path d="M2755.3,285.155a.6.6,0,0,1-.343-1.1c14.518-10.062,19.5-22.971,14.805-38.369-4.678-15.341-18.589-22.969-30.863-29.7-2.07-1.135-4.105-2.251-6.06-3.38a.6.6,0,0,1,.6-1.049c1.948,1.126,3.975,2.239,6.037,3.369,12.476,6.842,26.617,14.6,31.437,30.409,4.866,15.957-.272,29.32-15.272,39.716A.6.6,0,0,1,2755.3,285.155Z" transform="translate(-2732.536 -211.474)" fill="#32293a"/></g><g transform="translate(2583.889 125.661)"><path d="M2611.659,141a7.089,7.089,0,1,1,2.272-.377A7.024,7.024,0,0,1,2611.659,141Zm0-12.978a5.884,5.884,0,1,0,5.565,4A5.827,5.827,0,0,0,2611.661,128.02Z" transform="translate(-2604.585 -126.808)" fill="#32293a"/></g><g transform="translate(2730.576 467.038)"><path d="M2776.009,523.447a7.094,7.094,0,0,1-2.272-13.81,7.09,7.09,0,1,1,2.272,13.81Zm0-12.978a5.879,5.879,0,1,0,2.6.613A5.882,5.882,0,0,0,2776.007,510.469Z" transform="translate(-2768.922 -509.259)" fill="#32293a"/></g><g transform="translate(2721.787 448.264)"><path d="M2763.3,496.691a4.232,4.232,0,0,1-1.356-8.24,4.22,4.22,0,0,1,5.351,2.653h0a4.228,4.228,0,0,1-4,5.586Zm0-7.255a3.036,3.036,0,0,0-.97.161,3.021,3.021,0,0,0,1.933,5.725,3.028,3.028,0,0,0,1.892-3.83h0a3.02,3.02,0,0,0-2.854-2.056Z" transform="translate(-2759.075 -488.226)" fill="#32293a"/></g><g transform="translate(2610.561 116.125)"><path d="M2638,123.215a3.545,3.545,0,1,1,3.352-4.679h0a3.544,3.544,0,0,1-3.352,4.679Zm.007-5.88a2.335,2.335,0,1,0,2.2,1.588h0a2.332,2.332,0,0,0-2.2-1.588Z" transform="translate(-2634.466 -116.125)" fill="#32293a"/></g></g></g></g></svg>