<svg xmlns="http://www.w3.org/2000/svg" xmlns:xlink="http://www.w3.org/1999/xlink" width="400" height="388" viewBox="0 0 400 388"><defs><clipPath id="a"><rect width="400" height="388" transform="translate(1020 9267)" fill="#fff" stroke="#707070" stroke-width="1"/></clipPath></defs><g transform="translate(-1020 -9267)" clip-path="url(#a)"><g transform="translate(986.388 4717.417)"><path d="M405.028,4821.81c-4.459-31.319-54.174-37.613-45.045-94.277,6.87-42.642-47.378-120-84.9-112.164-28.507,5.952-14.454,39.814-34.924,50.038-12.744,6.366-18.552-11.627-35.354-4.94-19.775,7.87-11.586,52.835-46.084,73.629-31.728,19.125-55.7,12.158-64.14,37-9.537,28.085,18.967,34.847,14.209,54.04-5.9,23.815-27.149,21.589-22.679,48.694,8.866,53.749,102.475,72.706,160.64,72.706S413.333,4880.131,405.028,4821.81Z" transform="translate(-13.886 -45.872)" fill="#e6e1fb"/><g transform="translate(250.418 4599.084)"><path d="M15.156,0H57.5A15.157,15.157,0,0,1,72.66,15.157v42.5A15.157,15.157,0,0,1,57.5,72.818H15.156A15.156,15.156,0,0,1,0,57.662V15.156A15.156,15.156,0,0,1,15.156,0Z" transform="translate(0.891 0.895)" fill="#fffdf7"/><path d="M423.412,4703H390.735a20.93,20.93,0,0,1-20.883-20.93V4649.32a20.93,20.93,0,0,1,20.883-20.93h32.677a20.932,20.932,0,0,1,20.885,20.93v32.748A20.932,20.932,0,0,1,423.412,4703Zm-32.677-72.819a19.14,19.14,0,0,0-19.1,19.141v32.748a19.14,19.14,0,0,0,19.1,19.141h32.677a19.142,19.142,0,0,0,19.1-19.141V4649.32a19.141,19.141,0,0,0-19.1-19.141Z" transform="translate(-369.852 -4628.39)" fill="#32293a"/></g><path d="M330.38,4701.034c-3.334-4.28-.04-10.891,6.205-11.82s12.236,4.369,13.761,10.112c4.344-1.1,8.217,5.471,6.569,9.205,3.463,7.157-7.3,12.8-7.3,12.8s-10.341-1.366-10.406-1.631S330.38,4701.034,330.38,4701.034Z" transform="translate(-53.768 -25.163)" fill="#32293a"/><g transform="translate(82.541 4618.348)"><g transform="translate(14.758 0)"><path d="M193.792,4637.183l-3.713,37.783a75.89,75.89,0,0,1-31.976,52.983l-6.434,4.473a4.5,4.5,0,0,1-5.144-.008l-6.373-4.459a75.888,75.888,0,0,1-31.788-52.852l-3.729-37.92a4.51,4.51,0,0,1,4.468-5.069c4.554,0,74.334.243,80.219,0A4.458,4.458,0,0,1,193.792,4637.183Z" transform="translate(-104.065 -4631.576)" fill="#25c766"/><path d="M148.961,4733.616a5.033,5.033,0,0,1-2.885-.9l-6.372-4.46a76.541,76.541,0,0,1-32.012-53.223l-3.731-37.934a5.044,5.044,0,0,1,5-5.657c.813,0,3.7.008,7.93.019,20.182.054,67.443.181,72.268-.019a4.783,4.783,0,0,1,3.7,1.562,5.124,5.124,0,0,1,1.316,4.1l-3.71,37.775a76.52,76.52,0,0,1-32.2,53.372l-6.435,4.472A5.022,5.022,0,0,1,148.961,4733.616Zm-40-101.107a3.973,3.973,0,0,0-3.939,4.467l3.732,37.933a75.462,75.462,0,0,0,31.562,52.467l6.372,4.458a3.979,3.979,0,0,0,4.535.006l6.434-4.473a75.445,75.445,0,0,0,31.751-52.609l3.712-37.783a4.058,4.058,0,0,0-1.042-3.25,3.658,3.658,0,0,0-2.875-1.218c-4.848.2-52.127.073-72.314.019C112.66,4632.515,109.774,4632.508,108.962,4632.508Z" transform="translate(-103.923 -4631.435)" fill="#32293a"/></g><g transform="translate(0 31.781)"><rect width="118.743" height="26.095" rx="13.048" transform="translate(0.535 0.536)" fill="#1c954d"/><path d="M191.515,4698.8H98.81a13.584,13.584,0,0,1,0-27.168h92.7a13.584,13.584,0,0,1,0,27.168Zm-92.7-26.1a12.512,12.512,0,0,0,0,25.024h92.7a12.512,12.512,0,0,0,0-25.024Z" transform="translate(-85.256 -4671.633)" fill="#32293a"/></g><g transform="translate(8.829 42.016)"><g transform="translate(0.466 0.466)"><path d="M97.013,4688.216a3.041,3.041,0,1,1,3.041,3.048A3.044,3.044,0,0,1,97.013,4688.216Z" transform="translate(-97.013 -4685.169)" fill="#fffdf7"/><path d="M114.181,4688.216a3.041,3.041,0,1,1,3.041,3.048A3.044,3.044,0,0,1,114.181,4688.216Z" transform="translate(-100.608 -4685.169)" fill="#fffdf7"/><path d="M131.349,4688.216a3.041,3.041,0,1,1,3.041,3.048A3.044,3.044,0,0,1,131.349,4688.216Z" transform="translate(-104.203 -4685.169)" fill="#fffdf7"/><path d="M148.517,4688.216a3.041,3.041,0,1,1,3.041,3.048A3.044,3.044,0,0,1,148.517,4688.216Z" transform="translate(-107.798 -4685.169)" fill="#fffdf7"/><path d="M165.685,4688.216a3.041,3.041,0,1,1,3.041,3.048A3.045,3.045,0,0,1,165.685,4688.216Z" transform="translate(-111.393 -4685.169)" fill="#fffdf7"/><path d="M182.854,4688.216a3.041,3.041,0,1,1,3.041,3.048A3.043,3.043,0,0,1,182.854,4688.216Z" transform="translate(-114.988 -4685.169)" fill="#fffdf7"/><path d="M200.021,4688.216a3.041,3.041,0,1,1,3.041,3.048A3.045,3.045,0,0,1,200.021,4688.216Z" transform="translate(-118.583 -4685.169)" fill="#fffdf7"/><ellipse cx="3.041" cy="3.048" rx="3.041" ry="3.048" transform="translate(95.011 0)" fill="#fffdf7"/></g><path d="M97.013,4688.216a3.041,3.041,0,1,1,3.041,3.048A3.044,3.044,0,0,1,97.013,4688.216Z" transform="translate(-96.547 -4684.702)" fill="#fffdf7"/><path d="M99.93,4691.607a3.515,3.515,0,1,1,3.506-3.514A3.514,3.514,0,0,1,99.93,4691.607Zm0-6.1a2.582,2.582,0,1,0,2.576,2.583A2.582,2.582,0,0,0,99.93,4685.511Z" transform="translate(-96.424 -4684.578)" fill="#32293a"/><g transform="translate(13.575)"><path d="M114.181,4688.216a3.041,3.041,0,1,1,3.041,3.048A3.044,3.044,0,0,1,114.181,4688.216Z" transform="translate(-113.717 -4684.702)" fill="#fffdf7"/><path d="M117.1,4691.607a3.515,3.515,0,1,1,3.506-3.514A3.513,3.513,0,0,1,117.1,4691.607Zm0-6.1a2.582,2.582,0,1,0,2.577,2.583A2.582,2.582,0,0,0,117.1,4685.511Z" transform="translate(-113.594 -4684.578)" fill="#32293a"/></g><g transform="translate(27.147)"><path d="M131.349,4688.216a3.041,3.041,0,1,1,3.041,3.048A3.044,3.044,0,0,1,131.349,4688.216Z" transform="translate(-130.884 -4684.702)" fill="#fffdf7"/><path d="M134.267,4691.607a3.515,3.515,0,1,1,3.506-3.514A3.514,3.514,0,0,1,134.267,4691.607Zm0-6.1a2.582,2.582,0,1,0,2.577,2.583A2.582,2.582,0,0,0,134.267,4685.511Z" transform="translate(-130.761 -4684.578)" fill="#32293a"/></g><g transform="translate(40.72)"><path d="M148.517,4688.216a3.041,3.041,0,1,1,3.041,3.048A3.044,3.044,0,0,1,148.517,4688.216Z" transform="translate(-148.052 -4684.702)" fill="#fffdf7"/><path d="M151.435,4691.607a3.515,3.515,0,1,1,3.506-3.514A3.514,3.514,0,0,1,151.435,4691.607Zm0-6.1a2.582,2.582,0,1,0,2.576,2.583A2.582,2.582,0,0,0,151.435,4685.511Z" transform="translate(-147.929 -4684.578)" fill="#32293a"/></g><g transform="translate(54.293)"><path d="M165.685,4688.216a3.041,3.041,0,1,1,3.041,3.048A3.045,3.045,0,0,1,165.685,4688.216Z" transform="translate(-165.22 -4684.702)" fill="#fffdf7"/><path d="M168.6,4691.607a3.515,3.515,0,1,1,3.506-3.514A3.513,3.513,0,0,1,168.6,4691.607Zm0-6.1a2.582,2.582,0,1,0,2.577,2.583A2.582,2.582,0,0,0,168.6,4685.511Z" transform="translate(-165.097 -4684.578)" fill="#32293a"/></g><g transform="translate(67.866)"><path d="M182.854,4688.216a3.041,3.041,0,1,1,3.041,3.048A3.043,3.043,0,0,1,182.854,4688.216Z" transform="translate(-182.389 -4684.702)" fill="#fffdf7"/><path d="M185.771,4691.607a3.515,3.515,0,1,1,3.507-3.514A3.514,3.514,0,0,1,185.771,4691.607Zm0-6.1a2.582,2.582,0,1,0,2.577,2.583A2.582,2.582,0,0,0,185.771,4685.511Z" transform="translate(-182.266 -4684.578)" fill="#32293a"/></g><g transform="translate(81.439)"><path d="M200.021,4688.216a3.041,3.041,0,1,1,3.041,3.048A3.045,3.045,0,0,1,200.021,4688.216Z" transform="translate(-199.557 -4684.702)" fill="#fffdf7"/><path d="M202.939,4691.607a3.515,3.515,0,1,1,3.507-3.514A3.514,3.514,0,0,1,202.939,4691.607Zm0-6.1a2.582,2.582,0,1,0,2.577,2.583A2.581,2.581,0,0,0,202.939,4685.511Z" transform="translate(-199.434 -4684.578)" fill="#32293a"/></g><g transform="translate(95.011)"><ellipse cx="3.041" cy="3.048" rx="3.041" ry="3.048" transform="translate(0.466 0.467)" fill="#fffdf7"/><path d="M220.108,4691.607a3.515,3.515,0,1,1,3.5-3.514A3.514,3.514,0,0,1,220.108,4691.607Zm0-6.1a2.582,2.582,0,1,0,2.575,2.583A2.582,2.582,0,0,0,220.108,4685.511Z" transform="translate(-216.601 -4684.578)" fill="#32293a"/></g><path d="M97.013,4688.216a3.041,3.041,0,1,1,3.041,3.048A3.044,3.044,0,0,1,97.013,4688.216Z" transform="translate(-96.547 -4684.702)" fill="#fffdf7"/><path d="M99.93,4691.607a3.515,3.515,0,1,1,3.506-3.514A3.514,3.514,0,0,1,99.93,4691.607Zm0-6.1a2.582,2.582,0,1,0,2.576,2.583A2.582,2.582,0,0,0,99.93,4685.511Z" transform="translate(-96.424 -4684.578)" fill="#32293a"/><g transform="translate(13.575)"><path d="M114.181,4688.216a3.041,3.041,0,1,1,3.041,3.048A3.044,3.044,0,0,1,114.181,4688.216Z" transform="translate(-113.717 -4684.702)" fill="#fffdf7"/><path d="M117.1,4691.607a3.515,3.515,0,1,1,3.506-3.514A3.513,3.513,0,0,1,117.1,4691.607Zm0-6.1a2.582,2.582,0,1,0,2.577,2.583A2.582,2.582,0,0,0,117.1,4685.511Z" transform="translate(-113.594 -4684.578)" fill="#32293a"/></g><g transform="translate(27.147)"><path d="M131.349,4688.216a3.041,3.041,0,1,1,3.041,3.048A3.044,3.044,0,0,1,131.349,4688.216Z" transform="translate(-130.884 -4684.702)" fill="#fffdf7"/><path d="M134.267,4691.607a3.515,3.515,0,1,1,3.506-3.514A3.514,3.514,0,0,1,134.267,4691.607Zm0-6.1a2.582,2.582,0,1,0,2.577,2.583A2.582,2.582,0,0,0,134.267,4685.511Z" transform="translate(-130.761 -4684.578)" fill="#32293a"/></g><g transform="translate(40.72)"><path d="M148.517,4688.216a3.041,3.041,0,1,1,3.041,3.048A3.044,3.044,0,0,1,148.517,4688.216Z" transform="translate(-148.052 -4684.702)" fill="#fffdf7"/><path d="M151.435,4691.607a3.515,3.515,0,1,1,3.506-3.514A3.514,3.514,0,0,1,151.435,4691.607Zm0-6.1a2.582,2.582,0,1,0,2.576,2.583A2.582,2.582,0,0,0,151.435,4685.511Z" transform="translate(-147.929 -4684.578)" fill="#32293a"/></g><g transform="translate(54.293)"><path d="M165.685,4688.216a3.041,3.041,0,1,1,3.041,3.048A3.045,3.045,0,0,1,165.685,4688.216Z" transform="translate(-165.22 -4684.702)" fill="#fffdf7"/><path d="M168.6,4691.607a3.515,3.515,0,1,1,3.506-3.514A3.513,3.513,0,0,1,168.6,4691.607Zm0-6.1a2.582,2.582,0,1,0,2.577,2.583A2.582,2.582,0,0,0,168.6,4685.511Z" transform="translate(-165.097 -4684.578)" fill="#32293a"/></g><g transform="translate(67.866)"><path d="M182.854,4688.216a3.041,3.041,0,1,1,3.041,3.048A3.043,3.043,0,0,1,182.854,4688.216Z" transform="translate(-182.389 -4684.702)" fill="#fffdf7"/><path d="M185.771,4691.607a3.515,3.515,0,1,1,3.507-3.514A3.514,3.514,0,0,1,185.771,4691.607Zm0-6.1a2.582,2.582,0,1,0,2.577,2.583A2.582,2.582,0,0,0,185.771,4685.511Z" transform="translate(-182.266 -4684.578)" fill="#32293a"/></g><g transform="translate(81.439)"><path d="M200.021,4688.216a3.041,3.041,0,1,1,3.041,3.048A3.045,3.045,0,0,1,200.021,4688.216Z" transform="translate(-199.557 -4684.702)" fill="#fffdf7"/><path d="M202.939,4691.607a3.515,3.515,0,1,1,3.507-3.514A3.514,3.514,0,0,1,202.939,4691.607Zm0-6.1a2.582,2.582,0,1,0,2.577,2.583A2.581,2.581,0,0,0,202.939,4685.511Z" transform="translate(-199.434 -4684.578)" fill="#32293a"/></g><g transform="translate(95.011)"><ellipse cx="3.041" cy="3.048" rx="3.041" ry="3.048" transform="translate(0.466 0.467)" fill="#fffdf7"/><path d="M220.108,4691.607a3.515,3.515,0,1,1,3.5-3.514A3.514,3.514,0,0,1,220.108,4691.607Zm0-6.1a2.582,2.582,0,1,0,2.575,2.583A2.582,2.582,0,0,0,220.108,4685.511Z" transform="translate(-216.601 -4684.578)" fill="#32293a"/></g></g></g><g transform="translate(216.384 4830.223)"><path d="M14.268,0H147.325a14.269,14.269,0,0,1,14.269,14.269V72.6a14.269,14.269,0,0,1-14.269,14.269H14.269A14.269,14.269,0,0,1,0,72.6V14.268A14.268,14.268,0,0,1,14.268,0Z" transform="translate(0.535 0.535)" fill="#e2e0eb"/><path d="M405.411,4987.372H266.354a11.829,11.829,0,0,1-11.8-11.829v-64.286a11.83,11.83,0,0,1,11.8-11.828H405.411a11.829,11.829,0,0,1,11.8,11.828v64.286A11.829,11.829,0,0,1,405.411,4987.372ZM266.354,4900.5a10.758,10.758,0,0,0-10.734,10.757v64.286a10.758,10.758,0,0,0,10.734,10.758H405.411a10.758,10.758,0,0,0,10.734-10.758v-64.286a10.758,10.758,0,0,0-10.734-10.757Z" transform="translate(-254.55 -4899.428)" fill="#32293a"/></g><g transform="translate(72.119 4811.178)"><path d="M129.747,4893.334l16.184,15.045,12.853-13.886L142.6,4879.448Z" transform="translate(-84.15 -4876.199)" fill="#f4c7a8"/><path d="M141.279,4907.042l1.067-1.152a3.112,3.112,0,0,0-.164-4.393l-.756-.7a3.1,3.1,0,0,0-3.185-.638l-3.034,1.124a3.1,3.1,0,0,1-3.184-.637l-6.544-6.084a3.111,3.111,0,0,1-.968-2.669l1.065-8.427a3.112,3.112,0,0,0-.968-2.669h0a3.812,3.812,0,0,0-2.351-.82c-10.761-.992-21.967-2.492-32.506-4.317-1.7-.294-3.4-.622-4.918.205l-6.1,3.313,47.336,44.006Z" transform="translate(-73.468 -4875.338)" fill="#25c766"/><g transform="translate(0 3.303)"><path d="M119.01,4929.771a2.518,2.518,0,0,1-1.72-.675l-44.409-41.287a2.542,2.542,0,0,1-.134-3.582l4.2-4.54a.535.535,0,0,1,.783.729l-4.2,4.539a1.468,1.468,0,0,0,.078,2.07l44.408,41.286a1.462,1.462,0,0,0,2.067-.077l4.2-4.539a.535.535,0,0,1,.783.729l-4.2,4.539A2.523,2.523,0,0,1,119.01,4929.771Z" transform="translate(-72.073 -4879.516)" fill="#32293a"/></g><g transform="translate(42.958 35.345)"><path d="M126.669,4924.22l-.259-1.038,11.736-2.947a6.233,6.233,0,0,1,5.779,1.487l1.3,1.206-.726.785-1.3-1.206a5.174,5.174,0,0,0-4.794-1.233Z" transform="translate(-126.41 -4920.046)" fill="#32293a"/></g><g transform="translate(21.96 1.399)"><path d="M118.026,4889.325a3.2,3.2,0,0,1-.538-.046l-15.021-2.564a3.152,3.152,0,0,1-2.57-3.651l1.037-5.957,1.052.184-1.037,5.957a2.079,2.079,0,0,0,1.7,2.411l15.021,2.564a2.077,2.077,0,0,0,2.412-1.813l.78-6.746,1.062.124-.78,6.746a3.15,3.15,0,0,1-3.117,2.792Z" transform="translate(-99.849 -4877.107)" fill="#32293a"/></g><g transform="translate(36.732 3.076)"><path d="M120.387,4879.905l-1.176,8.631Z" transform="translate(-118.676 -4879.37)" fill="#ffcc38"/><path d="M119.07,4888.932a.607.607,0,0,1-.073,0,.537.537,0,0,1-.458-.6l1.176-8.63a.535.535,0,1,1,1.059.145l-1.176,8.631A.536.536,0,0,1,119.07,4888.932Z" transform="translate(-118.535 -4879.229)" fill="#32293a"/></g><g transform="translate(31.884 2.418)"><path d="M114.254,4879.075l-1.176,8.631Z" transform="translate(-112.543 -4878.539)" fill="#ffcc38"/><path d="M112.938,4888.1a.541.541,0,0,1-.074-.005.534.534,0,0,1-.458-.6l1.175-8.631a.535.535,0,1,1,1.059.145l-1.175,8.631A.535.535,0,0,1,112.938,4888.1Z" transform="translate(-112.402 -4878.396)" fill="#32293a"/></g><g transform="translate(27.096 1.584)"><path d="M108.2,4878.02l-1.176,8.631Z" transform="translate(-106.487 -4877.484)" fill="#ffcc38"/><path d="M106.881,4887.045a.607.607,0,0,1-.073-.005.536.536,0,0,1-.458-.6l1.176-8.63a.535.535,0,1,1,1.059.145l-1.176,8.63A.537.537,0,0,1,106.881,4887.045Z" transform="translate(-106.346 -4877.342)" fill="#32293a"/></g></g><g transform="translate(121.071 4872.769)"><path d="M180.7,4972.182h22.075l3.883-18.939H184.585Z" transform="translate(-143.772 -4953.242)" fill="#f4c7a8"/><path d="M199.431,4969.47V4967.9a3.106,3.106,0,0,0-3.1-3.109H195.3a3.1,3.1,0,0,0-2.766,1.7l-1.463,2.891a3.1,3.1,0,0,1-2.767,1.7h-8.925a3.1,3.1,0,0,1-2.521-1.3l-4.937-6.9a3.1,3.1,0,0,0-2.521-1.3h0a3.815,3.815,0,0,0-2.28,1c-8.562,6.607-17.8,13.146-26.761,18.99-1.449.946-2.913,1.861-3.467,3.5l-2.222,6.586h64.566Z" transform="translate(-134.133 -4954.99)" fill="#25c766"/><g transform="translate(0 36.144)"><path d="M197.1,5008.221H136.521a2.535,2.535,0,0,1-2.53-2.534V4999.5a.535.535,0,1,1,1.07,0v6.191a1.463,1.463,0,0,0,1.46,1.463H197.1a1.464,1.464,0,0,0,1.461-1.463V4999.5a.534.534,0,1,1,1.069,0v6.191A2.535,2.535,0,0,1,197.1,5008.221Z" transform="translate(-133.991 -4998.959)" fill="#32293a"/></g><g transform="translate(51.677 23.379)"><path d="M200.251,4996.407l-.9-.585,6.6-10.159a6.238,6.238,0,0,1,5.246-2.849h1.771v1.071h-1.771a5.173,5.173,0,0,0-4.351,2.364Z" transform="translate(-199.355 -4982.814)" fill="#32293a"/></g><g transform="translate(11.914 10.433)"><path d="M154.989,4985.293a3.218,3.218,0,0,1-.659-.069,3.128,3.128,0,0,1-1.988-1.371l-3.28-5.074.9-.583,3.281,5.075a2.076,2.076,0,0,0,2.883.61l12.751-8.357a2.087,2.087,0,0,0,.538-2.974l-4.006-5.478.863-.634,4.007,5.479a3.158,3.158,0,0,1-.817,4.5l-12.751,8.359A3.125,3.125,0,0,1,154.989,4985.293Z" transform="translate(-149.061 -4966.439)" fill="#32293a"/></g><g transform="translate(24.168 13.366)"><path d="M165.237,4970.826l4.995,7.129Z" transform="translate(-164.702 -4970.291)" fill="#ffcc38"/><path d="M170.091,4978.349a.536.536,0,0,1-.438-.229l-5-7.129a.535.535,0,0,1,.875-.616l5,7.13a.535.535,0,0,1-.437.843Z" transform="translate(-164.56 -4970.149)" fill="#32293a"/></g><g transform="translate(20.168 16.189)"><path d="M160.177,4974.4l4.995,7.128Z" transform="translate(-159.643 -4973.862)" fill="#ffcc38"/><path d="M165.03,4981.92a.533.533,0,0,1-.436-.229l-5-7.13a.535.535,0,1,1,.874-.616l4.995,7.13a.536.536,0,0,1-.438.844Z" transform="translate(-159.501 -4973.72)" fill="#32293a"/></g><g transform="translate(16.092 18.841)"><path d="M155.021,4977.75l4.995,7.128Z" transform="translate(-154.487 -4977.215)" fill="#ffcc38"/><path d="M159.874,4985.272a.533.533,0,0,1-.437-.228l-4.995-7.129a.535.535,0,0,1,.874-.615l4.995,7.129a.535.535,0,0,1-.437.843Z" transform="translate(-154.345 -4977.074)" fill="#32293a"/></g></g><path d="M255.138,4812.672l-4.745,14.473-37.019-18.919a24.646,24.646,0,0,0-29.886,4.612l-46.4,49.038a1.738,1.738,0,0,0,.111,2.494l23.855,21.1a1.727,1.727,0,0,0,2.481-.2l16.036-19.521L167.54,4925a1.734,1.734,0,0,0,1.669,2.082l32.588.5a1.732,1.732,0,0,0,1.72-1.373l9.889-46.431,63.23.011a20.427,20.427,0,0,0,18.983-12.914l10.5-34.353Z" transform="translate(-13.469 -49.456)" fill="#32293a"/><path d="M362.8,4818.661l26.958,51.273-11.8,10.841h17.213s2.49,16.7,3.326,21.826,6.853,5.41,6.857.777c0,2.526,2.1,4.638,3.949,4.069,1.444-.445,2.732-2.536,2.729-7.36-.154,3.415,6.7,2.732,6.006-3.276.454,2.606,5.238,2.594,5.345-2.562.062-2.941-.051-7.392-.145-10.3a9.376,9.376,0,0,0-1.8-5.227l-8.082-11.091L388.376,4807.8Z" transform="translate(-60.833 -50.018)" fill="#f4c7a8"/><g transform="translate(310.71 4778.06)"><path d="M411.27,4912.853a4.239,4.239,0,0,1-2.869-1.093,3.837,3.837,0,0,1-.7-.858,3.243,3.243,0,0,1-2.6,1.653c-2.01.16-4.3-1.33-4.819-4.495-.749-4.6-2.852-18.659-3.259-21.377H380.269a.535.535,0,0,1-.362-.93l11.5-10.563-17.485-33.256a.534.534,0,1,1,.944-.5l17.677,33.62a.536.536,0,0,1-.11.646l-10.792,9.912h15.839a.536.536,0,0,1,.529.456c.025.167,2.5,16.756,3.324,21.819.413,2.524,2.131,3.735,3.68,3.6,1.021-.083,2.115-.845,2.116-2.738a.535.535,0,0,1,.534-.535h0a.535.535,0,0,1,.534.535,2.927,2.927,0,0,0,.923,2.223,3.24,3.24,0,0,0,2.443.8,1.988,1.988,0,0,0,1.429-.727c.789-.951,1.071-2.863.816-5.533a.536.536,0,0,1,.478-.583.553.553,0,0,1,.585.475,2,2,0,0,0,1.09,1.732,2.376,2.376,0,0,0,2.324-.4,4.7,4.7,0,0,0,1.53-4.486.534.534,0,0,1,1.057-.154,1.585,1.585,0,0,0,1.785,1.263c1.119-.086,2.445-1.117,2.5-3.744.064-3.048-.063-7.741-.145-10.267a8.807,8.807,0,0,0-1.693-4.928l-8.083-11.09a.487.487,0,0,1-.061-.11l-16.289-39.022a.534.534,0,1,1,.984-.412l16.265,38.963,8.046,11.04a9.875,9.875,0,0,1,1.9,5.526c.081,2.536.209,7.251.146,10.324-.066,3.13-1.8,4.66-3.489,4.788a2.821,2.821,0,0,1-1.853-.479,5.15,5.15,0,0,1-1.965,3.651,3.436,3.436,0,0,1-3.386.521,2.8,2.8,0,0,1-.573-.339,6.475,6.475,0,0,1-1.146,3.952,3.05,3.05,0,0,1-2.158,1.109C411.528,4912.847,411.4,4912.853,411.27,4912.853Z" transform="translate(-373.86 -4833.449)" fill="#32293a"/></g><path d="M250.1,4724.021l-49.762-18.4s-10.805-7.425-12.5-7.965-4.661.2-4.731,1.823c-3.143-2.029-6.313-.55-6.593,1.262-3.089-1.483-6.129.8-6.1,2.864,0,0-11.939-7.027-14.076-8.348s-6.861,1.586-4.307,4.223c3.682,3.8,19.649,15.947,19.649,15.947l-4.594,5.027s-2.26-2.927-4.931-2.759a6.84,6.84,0,0,0-2.894.8,1.116,1.116,0,0,0-.352,1.674c1.609,2.012,4.936,5.493,7.07,7.684a4.224,4.224,0,0,0,4.54,1l10.936-4.183,59.6,25.435Z" transform="translate(-16.542 -26.382)" fill="#f4c7a8"/><g transform="translate(134.208 4668.005)"><path d="M192.2,4729.712a.515.515,0,0,1-.209-.044l-10.7-4.563-10.733,4.106a4.758,4.758,0,0,1-5.114-1.124c-2.369-2.433-5.525-5.749-7.105-7.724a1.632,1.632,0,0,1-.326-1.338,1.673,1.673,0,0,1,.837-1.14,7.388,7.388,0,0,1,3.117-.867c2.256-.141,4.164,1.611,4.975,2.489l3.794-4.151c-2.706-2.066-15.885-12.179-19.242-15.645a2.642,2.642,0,0,1-.226-3.728c1.146-1.43,3.611-2.3,5.2-1.323,1.814,1.121,10.831,6.436,13.39,7.943a4.173,4.173,0,0,1,1.786-2.224,5.028,5.028,0,0,1,4.387-.5,3.452,3.452,0,0,1,1.76-1.634,5.591,5.591,0,0,1,4.844.283,2.482,2.482,0,0,1,.806-.883,5.589,5.589,0,0,1,4.411-.646c1.7.542,11.242,7.074,12.587,8l20.261,7.49a.536.536,0,0,1-.369,1.005l-20.325-7.514a.527.527,0,0,1-.117-.06c-4.317-2.967-11.172-7.519-12.361-7.9a4.534,4.534,0,0,0-3.475.5,1.116,1.116,0,0,0-.56.833.533.533,0,0,1-.822.428,4.7,4.7,0,0,0-4.442-.562,2.144,2.144,0,0,0-1.335,1.456.535.535,0,0,1-.759.4,3.958,3.958,0,0,0-3.917.2,2.787,2.787,0,0,0-1.42,2.175.535.535,0,0,1-.8.469c-.12-.071-11.969-7.045-14.087-8.354-.976-.6-2.891-.055-3.8,1.083a1.574,1.574,0,0,0,.159,2.311c3.612,3.729,19.429,15.771,19.589,15.894a.534.534,0,0,1,.209.378.543.543,0,0,1-.138.41l-4.594,5.027a.535.535,0,0,1-.817-.034c-.021-.028-2.112-2.717-4.475-2.554a6.311,6.311,0,0,0-2.67.737.607.607,0,0,0-.3.411.555.555,0,0,0,.112.46c1.635,2.042,5.11,5.666,7.036,7.645a3.694,3.694,0,0,0,3.967.871l10.935-4.182a.535.535,0,0,1,.4.007l10.894,4.649a.536.536,0,0,1-.209,1.028Z" transform="translate(-150.608 -4694.244)" fill="#32293a"/></g><path d="M339.442,4797.521l-6.473,19.636L281.987,4797.3l8.338-29.444-25.5-10.048,9.044-26.084,66.99,20.941a21.306,21.306,0,0,1,12.672,10.759l14.326,28.444-25.579,10.858Z" transform="translate(-40.318 -34.088)" fill="#25c766"/><path d="M344.6,4744.664c-1.953,5-10.724,12.278-18.434,9.012s-8.978-9.638-6.564-17.011l3.824-1a7.548,7.548,0,0,0,5.355-5.255l.712-2.522s-4.8-.211-4.543-7.14,3.219-16.554,3.219-16.554a21.916,21.916,0,0,0,11.442,3.764c-1.566,3.854,1.127,5.427,2.452,5.943-.784,2.97-.826,5.33,2.678,6.606,4.461-1.259,5.844,1.615,5.451,3.984-.315,1.9-2.315,4.454-6.118,2.506l-2.15,8.126a7.575,7.575,0,0,0,.558,5.341Z" transform="translate(-51.556 -28.323)" fill="#f4c7a8"/><g transform="translate(244.553 4722.24)"><path d="M290.714,4792.281a.543.543,0,0,1-.141-.02.536.536,0,0,1-.375-.658l7.745-28.366a.535.535,0,1,1,1.031.283l-7.745,28.366A.535.535,0,0,1,290.714,4792.281Z" transform="translate(-290.18 -4762.843)" fill="#32293a"/></g><g transform="translate(289.099 4734.342)"><path d="M359.389,4812.987a.536.536,0,0,1-.465-.271L346.594,4791a.535.535,0,1,1,.93-.53l12.1,21.3,24.6-10.446-11.805-22.391a.534.534,0,1,1,.944-.5l12.078,22.907a.534.534,0,0,1-.264.743l-25.579,10.86A.556.556,0,0,1,359.389,4812.987Z" transform="translate(-346.524 -4778.15)" fill="#32293a"/></g><g transform="translate(223.838 4696.979)"><path d="M290.147,4768.219a.54.54,0,0,1-.2-.037l-25.973-10.236,9.379-27.053,16.743,4.994a.536.536,0,0,1-.305,1.028l-15.763-4.7-8.708,25.115,25.019,9.86a.536.536,0,0,1-.2,1.034Z" transform="translate(-263.978 -4730.893)" fill="#32293a"/></g><g transform="translate(165.682 4672.36)"><path d="M198.617,4705.881a.538.538,0,0,1-.294-.088l-7.664-5.059a.535.535,0,0,1,.589-.894l7.663,5.058a.536.536,0,0,1-.294.983Z" transform="translate(-190.419 -4699.752)" fill="#32293a"/></g><g transform="translate(159.432 4673.827)"><path d="M191.544,4708.5a.533.533,0,0,1-.3-.094l-8.5-5.819a.535.535,0,0,1,.6-.884l8.5,5.82a.536.536,0,0,1-.3.977Z" transform="translate(-182.514 -4701.608)" fill="#32293a"/></g><g transform="translate(152.139 4675.99)"><path d="M182.314,4711.445a.539.539,0,0,1-.309-.1l-8.492-6.032a.535.535,0,0,1,.617-.875l8.492,6.032a.536.536,0,0,1-.308.973Z" transform="translate(-173.288 -4704.342)" fill="#32293a"/></g><g transform="translate(165.565 4795.521)"><path d="M290.8,4890.306h-3.186a18.675,18.675,0,0,1-8.841-2.236l-17-8.233-37.65-20.34a24.134,24.134,0,0,0-11.364-2.892h-.065a21.013,21.013,0,0,0-20.5,16.2l-.87,3.635a.535.535,0,1,1-1.04-.25l.87-3.634a22.082,22.082,0,0,1,21.538-17.019h.067a25.216,25.216,0,0,1,11.868,3.02l37.629,20.329,17,8.233a17.613,17.613,0,0,0,8.355,2.119H290.8a15.67,15.67,0,0,0,14.821-10.614l3.037-8.891a.535.535,0,1,1,1.011.347l-3.037,8.891A16.736,16.736,0,0,1,290.8,4890.306Z" transform="translate(-190.271 -4855.535)" fill="#faf5ff"/></g><g transform="translate(268.862 4783.291)"><path d="M328,4856.347a.515.515,0,0,1-.226-.052c-5.121-2.4-8.749-9.528-5.766-15.922a.535.535,0,1,1,.968.454c-2.967,6.361,1.22,12.611,5.25,14.5a.536.536,0,0,1-.226,1.021Z" transform="translate(-320.928 -4840.064)" fill="#faf5ff"/></g><g transform="translate(355.633 4833.145)"><path d="M432.247,4917.307a.534.534,0,0,1-.532-.494l-1.032-13.111a.535.535,0,0,1,.49-.576.515.515,0,0,1,.574.492l1.032,13.111a.534.534,0,0,1-.49.576Z" transform="translate(-430.682 -4903.124)" fill="#32293a"/></g><g transform="translate(349.269 4833.344)"><path d="M424.555,4920.636a.534.534,0,0,1-.531-.491l-1.39-16.189a.534.534,0,1,1,1.064-.091l1.39,16.19a.535.535,0,0,1-.486.579Z" transform="translate(-422.631 -4903.375)" fill="#32293a"/></g><g transform="translate(342.437 4833.145)"><path d="M416.069,4923.874a.533.533,0,0,1-.532-.493l-1.544-19.679a.535.535,0,0,1,.49-.576.524.524,0,0,1,.574.492L416.6,4923.3a.534.534,0,0,1-.49.576Z" transform="translate(-413.991 -4903.124)" fill="#32293a"/></g><g transform="translate(273.125 4694.572)"><path d="M334.36,4734c-4.5,0-7.2-1.846-8.027-5.5a.537.537,0,0,1,.4-.641.529.529,0,0,1,.639.4c.772,3.41,3.4,4.921,8.069,4.627a.535.535,0,0,1,.067,1.069C335.116,4733.986,334.731,4734,334.36,4734Z" transform="translate(-326.32 -4727.846)" fill="#32293a"/></g><g transform="translate(266.251 4699.399)"><path d="M321.887,4758.055a.535.535,0,0,1-.351-.133c-6.83-5.973-2.646-15.163-2.6-15.254a.532.532,0,0,1,.357-.292l3.8-.929a6.336,6.336,0,0,0,4.48-4.048l1.1-3.09a.534.534,0,1,1,1.006.359l-1.1,3.09a7.4,7.4,0,0,1-5.235,4.729l-3.546.866c-.594,1.418-3.281,8.762,2.437,13.763a.536.536,0,0,1-.351.939Z" transform="translate(-317.626 -4733.953)" fill="#32293a"/></g><g transform="translate(274.13 4680.461)"><path d="M329.16,4718.812a.534.534,0,0,1-.438-.229l-.906-1.3a1.25,1.25,0,0,1-.155-1.125,1.212,1.212,0,0,1,.807-.774c.676-.2,1.851-.654,2.121-1.436a1.9,1.9,0,0,0-.142-1.495,2.92,2.92,0,0,0-1.683-1.408.536.536,0,0,1,.305-1.028,4,4,0,0,1,2.328,1.946,2.927,2.927,0,0,1,.2,2.333c-.4,1.175-1.761,1.8-2.828,2.113a.15.15,0,0,0-.1.1.178.178,0,0,0,.022.157l.907,1.3a.537.537,0,0,1-.132.745A.529.529,0,0,1,329.16,4718.812Z" transform="translate(-327.592 -4709.999)" fill="#32293a"/></g><g transform="translate(281.749 4684.265)"><path d="M341.441,4718.417a.536.536,0,0,1-.518-.4,2.716,2.716,0,0,0-3.048-2.083.535.535,0,1,1-.225-1.046,3.772,3.772,0,0,1,4.309,2.864.535.535,0,0,1-.518.668Z" transform="translate(-337.228 -4714.81)" fill="#32293a"/></g><path d="M330.139,4715.657a1.077,1.077,0,1,1-.6-1.575A1.205,1.205,0,0,1,330.139,4715.657Z" transform="translate(-53.559 -30.384)" fill="#32293a"/><path d="M339.025,4719.647a1.077,1.077,0,1,1-.6-1.574A1.2,1.2,0,0,1,339.025,4719.647Z" transform="translate(-55.42 -31.22)" fill="#32293a"/><g transform="translate(268.538 4618.188)"><path d="M401.427,4675.97a5.148,5.148,0,0,1-3.833-1.717L385.563,4660.8a5.152,5.152,0,1,1,7.666-6.886l7.9,8.837,13.251-17.208a5.151,5.151,0,1,1,8.15,6.3l-17.03,22.116a5.158,5.158,0,0,1-3.886,2C401.552,4675.968,401.489,4675.97,401.427,4675.97Z" transform="translate(-383.359 -4642.64)" fill="#25c766"/><path d="M401.643,4677.08a6.038,6.038,0,0,1-4.5-2.013l-12.032-13.454a6.069,6.069,0,0,1,.467-8.545,5.908,5.908,0,0,1,4.364-1.537,5.991,5.991,0,0,1,4.165,2l7.184,8.035,12.6-16.356a6.044,6.044,0,0,1,9.561,7.4l-17.031,22.113a6.014,6.014,0,0,1-4.559,2.351Zm-12.034-23.771a4.215,4.215,0,0,0-2.835,1.089,4.275,4.275,0,0,0-.331,6.021l12.032,13.454a4.254,4.254,0,0,0,3.169,1.419v.895l.146-.9a4.248,4.248,0,0,0,3.221-1.656l17.031-22.115a4.259,4.259,0,1,0-6.737-5.212l-13.251,17.208a.9.9,0,0,1-.675.348.921.921,0,0,1-.7-.3l-7.9-8.837a4.231,4.231,0,0,0-2.935-1.412C389.767,4653.312,389.686,4653.31,389.608,4653.31Z" transform="translate(-383.575 -4642.857)" fill="#32293a"/></g><g transform="translate(274.616 4691.58)"><path d="M330.765,4726.74a2.58,2.58,0,0,1-1.593-.549,2.317,2.317,0,0,1-.966-1.6.536.536,0,0,1,.534-.526h.01a.533.533,0,0,1,.525.534,1.585,1.585,0,0,0,.639.811,1.539,1.539,0,0,0,1.335.19.535.535,0,0,1,.291,1.03A2.835,2.835,0,0,1,330.765,4726.74Z" transform="translate(-328.206 -4724.063)" fill="#32293a"/></g><g transform="translate(347.401 4712.516)"><path d="M459.242,4836.839a.528.528,0,0,1-.377-.157c-7.479-7.494-8.221-13.583-2.479-20.358,11.581-13.669,14.064-27.117,7.591-41.113-7.076-15.3-28.4-20.18-39.85-22.8-1.3-.3-2.467-.564-3.453-.81a.536.536,0,0,1-.387-.65.53.53,0,0,1,.647-.39c.979.246,2.135.51,3.43.807,11.633,2.662,33.286,7.619,40.583,23.394,6.573,14.214,3.967,28.431-7.747,42.258-5.363,6.331-4.663,11.809,2.42,18.907a.538.538,0,0,1,0,.758A.532.532,0,0,1,459.242,4836.839Z" transform="translate(-420.27 -4750.543)" fill="#32293a"/></g><g transform="translate(204.847 4596.448)"><path d="M280.2,4647.435a.528.528,0,0,1-.209-.043c-5.869-2.495-8.255-9.887-11.018-18.448-.578-1.786-1.175-3.635-1.825-5.518-4.922-14.213-13.116-19.883-26.6-18.383a.535.535,0,0,1-.118-1.064c14.048-1.563,22.609,4.323,27.722,19.1.655,1.889,1.254,3.745,1.833,5.539,2.683,8.31,5,15.487,10.419,17.791a.536.536,0,0,1-.209,1.029Z" transform="translate(-239.957 -4603.733)" fill="#32293a"/></g><g transform="translate(104.647 4753.644)"><path d="M117.066,4810.277a3.856,3.856,0,1,1,3.848-3.856A3.856,3.856,0,0,1,117.066,4810.277Zm0-6.641a2.785,2.785,0,1,0,2.778,2.785A2.785,2.785,0,0,0,117.066,4803.636Z" transform="translate(-113.217 -4802.564)" fill="#32293a"/></g><g transform="translate(370.839 4684.978)"><path d="M453.039,4721.971a3.129,3.129,0,1,1,3.122-3.13A3.13,3.13,0,0,1,453.039,4721.971Zm0-5.187a2.058,2.058,0,1,0,2.052,2.058A2.058,2.058,0,0,0,453.039,4716.784Z" transform="translate(-449.915 -4715.712)" fill="#32293a"/></g><g transform="translate(184.363 4583.99)"><path d="M217.171,4594.234a3.129,3.129,0,1,1,3.122-3.129A3.13,3.13,0,0,1,217.171,4594.234Zm0-5.187a2.058,2.058,0,1,0,2.052,2.058A2.059,2.059,0,0,0,217.171,4589.047Z" transform="translate(-214.047 -4587.976)" fill="#32293a"/></g><g transform="translate(198.299 4568.943)"><path d="M237.491,4580.6a5.829,5.829,0,1,1,5.816-5.829A5.83,5.83,0,0,1,237.491,4580.6Zm0-10.586a4.757,4.757,0,1,0,4.747,4.757A4.758,4.758,0,0,0,237.491,4570.014Z" transform="translate(-231.675 -4568.943)" fill="#32293a"/></g><g transform="translate(88.448 4735.322)"><path d="M99.158,4792.277a6.444,6.444,0,1,1,6.428-6.444A6.445,6.445,0,0,1,99.158,4792.277Zm0-11.817a5.373,5.373,0,1,0,5.359,5.373A5.373,5.373,0,0,0,99.158,4780.46Z" transform="translate(-92.728 -4779.39)" fill="#32293a"/></g><g transform="translate(227.271 4772.492)"><path d="M293.045,4839.421a.536.536,0,0,1-.236-.056l-24.191-11.943a.536.536,0,0,1,.474-.961l24.191,11.943a.536.536,0,0,1-.237,1.016Z" transform="translate(-268.32 -4826.407)" fill="#faf5ff"/></g></g></g></svg>