<svg xmlns="http://www.w3.org/2000/svg" width="190" height="178.837" viewBox="0 0 190 178.837"><g transform="translate(-330.23 -109.242)"><g transform="translate(370.07 109.242)"><path d="M459.726,288.661,377.677,241.29c-3.24-1.87-2.833-5.138.908-7.3l46.565-26.884c3.741-2.159,9.4-2.394,12.641-.524l82.048,47.371c3.24,1.87,2.833,5.138-.907,7.3l-46.564,26.884C468.625,290.3,462.966,290.532,459.726,288.661Z" transform="translate(-375.49 -120.749)" fill="#92b4d1" opacity="0.2"/><path d="M459.726,283.407l-82.049-47.371a3.779,3.779,0,0,1-2.186-3.112c0-.037,0-4.027,0-4.064.026-1.419,1.074,1.044,3.094-.122l46.565-26.884c3.741-2.16,9.4-2.394,12.641-.524L519.839,248.7c1.082.624,1.866-2.026,2.147-1.184.093.281.033,4,.04,4.29.032,1.453-1.018,2.993-3.094,4.192l-46.564,26.883C468.625,285.043,462.966,285.278,459.726,283.407Z" transform="translate(-375.49 -120.12)" fill="#2672ab"/><path d="M459.726,278.875,377.677,231.5c-3.24-1.87-2.833-5.138.908-7.3l46.565-26.884c3.741-2.16,9.4-2.394,12.641-.524l82.048,47.371c3.24,1.871,2.833,5.138-.907,7.3L472.367,278.35C468.625,280.511,462.966,280.746,459.726,278.875Z" transform="translate(-375.49 -119.577)" fill="#d1ebff"/><path d="M471.187,294.132c3.24,1.871,8.9,1.635,12.641-.525v-3.989c-3.742,2.16-9.4,2.4-12.641.525Z" transform="translate(-386.951 -130.844)" fill="#3f92d1" opacity="0.5"/><path d="M459.726,283.3l-82.049-47.371a3.657,3.657,0,0,1-2.17-3.411,1.66,1.66,0,0,0-.017.224c0,.038,0,4.028,0,4.065a3.778,3.778,0,0,0,2.186,3.112l82.049,47.371Z" transform="translate(-375.49 -124.007)" fill="#3f92d1"/><path d="M518.931,255.2l-46.564,26.884c-3.742,2.16-9.4,2.394-12.641.524l-82.049-47.371a3.872,3.872,0,0,1-2.162-2.871c-.169,1.324.539,2.612,2.162,3.549l82.049,47.371c3.24,1.871,8.9,1.635,12.641-.525l46.564-26.883c2.189-1.264,3.227-2.907,3.07-4.427C521.833,252.769,520.8,254.123,518.931,255.2Z" transform="translate(-375.49 -123.988)" fill="#fff"/><path d="M445.942,268.036l-29.2-16.859c-.584-.338-.511-.927.164-1.317l10.963-6.33a2.534,2.534,0,0,1,2.282-.094l29.2,16.858c.585.338.511.928-.164,1.318l-10.963,6.329A2.536,2.536,0,0,1,445.942,268.036Z" transform="translate(-380.383 -125.286)" fill="#fff" opacity="0.3"/><path d="M416.906,250.552l10.963-6.33a2.54,2.54,0,0,1,2.282-.094l29.2,16.859a.88.88,0,0,1,.27.237.611.611,0,0,0-.27-.93l-29.2-16.858a2.534,2.534,0,0,0-2.282.094l-10.963,6.33c-.537.31-.686.745-.433,1.08A1.27,1.27,0,0,1,416.906,250.552Z" transform="translate(-380.384 -125.286)" fill="#a8cff0"/><path d="M436.37,203.667l5.032,2.9a2.552,2.552,0,0,0,2.31,0,.7.7,0,0,0-.007-1.334l-5.032-2.906a2.554,2.554,0,0,0-2.311,0A.7.7,0,0,0,436.37,203.667Zm8.616,4.974,2.384,1.377a2.554,2.554,0,0,0,2.311,0,.7.7,0,0,0-.007-1.334l-2.384-1.376a2.554,2.554,0,0,0-2.311,0A.7.7,0,0,0,444.986,208.641Zm5.968,3.445,2.384,1.377a2.554,2.554,0,0,0,2.311,0,.7.7,0,0,0-.008-1.334l-2.384-1.376a2.552,2.552,0,0,0-2.31,0A.7.7,0,0,0,450.954,212.087Zm5.967,3.446,2.385,1.376a2.552,2.552,0,0,0,2.31,0,.7.7,0,0,0-.007-1.334l-2.384-1.376a2.554,2.554,0,0,0-2.311,0A.7.7,0,0,0,456.921,215.533Zm5.968,3.445,2.384,1.376a2.554,2.554,0,0,0,2.311,0,.7.7,0,0,0-.007-1.334l-2.385-1.377a2.552,2.552,0,0,0-2.31,0A.7.7,0,0,0,462.889,218.978Zm5.968,3.445,2.384,1.377a2.554,2.554,0,0,0,2.31,0,.7.7,0,0,0-.007-1.334l-2.384-1.377a2.556,2.556,0,0,0-2.311,0A.7.7,0,0,0,468.857,222.423Zm5.967,3.445,2.384,1.377a2.556,2.556,0,0,0,2.311,0,.7.7,0,0,0-.007-1.334l-2.384-1.376a2.554,2.554,0,0,0-2.311,0A.7.7,0,0,0,474.824,225.869Zm5.968,3.445,2.384,1.377a2.554,2.554,0,0,0,2.311,0,.7.7,0,0,0-.008-1.334l-2.384-1.376a2.552,2.552,0,0,0-2.31,0A.7.7,0,0,0,480.792,229.314Zm5.968,3.446,2.384,1.376a2.552,2.552,0,0,0,2.31,0,.7.7,0,0,0-.007-1.334l-2.384-1.377a2.554,2.554,0,0,0-2.311,0A.7.7,0,0,0,486.76,232.76Zm5.967,3.445,2.384,1.376a2.554,2.554,0,0,0,2.311,0,.7.7,0,0,0-.007-1.334l-2.384-1.377a2.554,2.554,0,0,0-2.311,0A.7.7,0,0,0,492.727,236.205Zm5.968,3.445,2.384,1.377a2.554,2.554,0,0,0,2.311,0,.7.7,0,0,0-.008-1.334L501,238.321a2.552,2.552,0,0,0-2.31,0A.7.7,0,0,0,498.7,239.65Zm5.967,3.445,2.385,1.377a2.552,2.552,0,0,0,2.31,0,.7.7,0,0,0-.007-1.334l-2.384-1.376a2.554,2.554,0,0,0-2.311,0A.7.7,0,0,0,504.663,243.1Zm6.092,3.517,2.384,1.377a2.557,2.557,0,0,0,2.311,0,.7.7,0,0,0-.007-1.334l-2.385-1.377a2.555,2.555,0,0,0-2.31,0A.7.7,0,0,0,510.755,246.613ZM431,206.95l2.063,1.192a2.907,2.907,0,0,0,2.629,0l2.051-1.184a.8.8,0,0,0-.008-1.518l-2.063-1.191a2.909,2.909,0,0,0-2.63-.005l-2.05,1.185A.8.8,0,0,0,431,206.95Zm10.661,4.642,2.051-1.184a.8.8,0,0,0-.008-1.518l-2.064-1.192a2.9,2.9,0,0,0-2.629,0l-2.051,1.184a.8.8,0,0,0,.008,1.518l2.064,1.192A2.9,2.9,0,0,0,441.663,211.592Zm1.275,2.25L445,215.033a2.9,2.9,0,0,0,2.629,0l2.051-1.184a.8.8,0,0,0-.009-1.518l-2.063-1.192a2.9,2.9,0,0,0-2.629,0l-2.051,1.184A.8.8,0,0,0,442.938,213.842Zm5.968,3.445,2.063,1.191a2.907,2.907,0,0,0,2.629.005l2.051-1.184a.8.8,0,0,0-.008-1.518l-2.064-1.192a2.907,2.907,0,0,0-2.629,0l-2.051,1.184A.8.8,0,0,0,448.906,217.287Zm12.7,1.939-2.063-1.191a2.9,2.9,0,0,0-2.629-.005l-2.051,1.184a.8.8,0,0,0,.008,1.518l2.064,1.191a2.9,2.9,0,0,0,2.629.005l2.051-1.184A.8.8,0,0,0,461.608,219.226Zm5.968,3.445-2.063-1.191a2.907,2.907,0,0,0-2.629-.005l-2.051,1.185a.8.8,0,0,0,.008,1.518l2.064,1.192a2.907,2.907,0,0,0,2.629,0l2.05-1.184A.8.8,0,0,0,467.576,222.671Zm5.968,3.446-2.064-1.192a2.9,2.9,0,0,0-2.629,0l-2.051,1.184a.8.8,0,0,0,.009,1.518l2.063,1.192a2.9,2.9,0,0,0,2.629,0l2.051-1.184A.8.8,0,0,0,473.544,226.118Zm5.967,3.445-2.063-1.192a2.907,2.907,0,0,0-2.629,0l-2.051,1.184a.8.8,0,0,0,.008,1.518l2.064,1.191a2.907,2.907,0,0,0,2.629.005l2.051-1.185A.8.8,0,0,0,479.511,229.563Zm5.968,3.445-2.063-1.192a2.909,2.909,0,0,0-2.63,0L478.736,233a.8.8,0,0,0,.008,1.518l2.063,1.191a2.9,2.9,0,0,0,2.629.005l2.051-1.184A.8.8,0,0,0,485.479,233.008Zm5.968,3.445-2.064-1.191a2.907,2.907,0,0,0-2.629-.005l-2.051,1.184a.8.8,0,0,0,.008,1.518l2.064,1.192a2.907,2.907,0,0,0,2.629,0l2.051-1.184A.8.8,0,0,0,491.448,236.453Zm-.768,4.951,2.064,1.192a2.9,2.9,0,0,0,2.629,0l2.051-1.184a.8.8,0,0,0-.009-1.518l-2.063-1.191a2.907,2.907,0,0,0-2.629-.005l-2.051,1.185A.8.8,0,0,0,490.679,241.4Zm12.7,1.94-2.064-1.192a2.9,2.9,0,0,0-2.629,0l-2.051,1.184a.8.8,0,0,0,.009,1.518l2.063,1.192a2.907,2.907,0,0,0,2.629.005l2.051-1.185A.8.8,0,0,0,503.383,243.345Zm8.74,5.046-4.712-2.721a2.907,2.907,0,0,0-2.629-.005l-2.051,1.185a.8.8,0,0,0,.008,1.518l4.713,2.721a2.9,2.9,0,0,0,2.629,0l2.051-1.184A.8.8,0,0,0,512.123,248.391Zm-86.647-38.249,4.712,2.72a2.907,2.907,0,0,0,2.629.005l2.051-1.184a.8.8,0,0,0-.008-1.518l-4.713-2.721a2.9,2.9,0,0,0-2.629,0l-2.051,1.184A.8.8,0,0,0,425.475,210.142Zm8.616,4.974,2.064,1.192a2.907,2.907,0,0,0,2.629,0l2.051-1.184a.8.8,0,0,0-.009-1.518l-2.063-1.191a2.9,2.9,0,0,0-2.629-.005l-2.051,1.184A.8.8,0,0,0,434.091,215.116Zm8.031,4.637a2.9,2.9,0,0,0,2.629,0l2.051-1.184a.8.8,0,0,0-.008-1.518l-2.064-1.191a2.907,2.907,0,0,0-2.629-.005l-2.051,1.185a.8.8,0,0,0,.009,1.518Zm5.968,3.445a2.9,2.9,0,0,0,2.629,0l2.051-1.184a.8.8,0,0,0-.009-1.518L450.7,219.31a2.9,2.9,0,0,0-2.629,0l-2.051,1.184a.8.8,0,0,0,.008,1.518Zm5.947-.448-2.051,1.184a.8.8,0,0,0,.008,1.518l2.063,1.191a2.909,2.909,0,0,0,2.63.005l2.05-1.185a.8.8,0,0,0-.008-1.518l-2.063-1.192A2.907,2.907,0,0,0,454.037,222.751Zm6.093,3.372-2.3,1.33a.725.725,0,0,0,.007,1.372l2.318,1.338a2.626,2.626,0,0,0,2.377,0l2.3-1.329a.724.724,0,0,0-.007-1.372l-2.318-1.338A2.626,2.626,0,0,0,460.13,226.123Zm5.968,3.446-2.3,1.329a.724.724,0,0,0,.007,1.372l2.318,1.338a2.626,2.626,0,0,0,2.377,0l2.3-1.33a.724.724,0,0,0-.008-1.371l-2.317-1.339A2.627,2.627,0,0,0,466.1,229.569Zm5.968,3.445-2.3,1.329a.724.724,0,0,0,.008,1.372l2.318,1.338a2.625,2.625,0,0,0,2.376,0l2.3-1.33a.724.724,0,0,0-.008-1.371l-2.318-1.338A2.625,2.625,0,0,0,472.066,233.014Zm5.967,3.445-2.3,1.33a.724.724,0,0,0,.007,1.371l2.318,1.338a2.627,2.627,0,0,0,2.377,0l2.3-1.329a.724.724,0,0,0-.007-1.372l-2.318-1.338A2.626,2.626,0,0,0,478.034,236.46ZM484,239.9l-2.3,1.33a.724.724,0,0,0,.008,1.371l2.318,1.339a2.625,2.625,0,0,0,2.376,0l2.3-1.329a.724.724,0,0,0-.008-1.372l-2.317-1.338A2.626,2.626,0,0,0,484,239.9Zm8.366,7.49,2.3-1.33a.724.724,0,0,0-.007-1.372l-2.318-1.338a2.627,2.627,0,0,0-2.376,0l-2.3,1.33a.725.725,0,0,0,.007,1.372l2.318,1.338A2.626,2.626,0,0,0,492.367,247.395Zm5.968,3.445,2.3-1.33a.724.724,0,0,0-.007-1.371l-2.318-1.338a2.626,2.626,0,0,0-2.377,0l-2.3,1.329a.724.724,0,0,0,.007,1.372l2.318,1.338A2.627,2.627,0,0,0,498.335,250.84Zm8.387.815-2.318-1.338a2.625,2.625,0,0,0-2.376,0l-2.3,1.33a.724.724,0,0,0,.008,1.371l2.318,1.339a2.627,2.627,0,0,0,2.376,0l2.3-1.329A.724.724,0,0,0,506.722,251.655Zm-86.9-38.4,7.482,4.319a2.626,2.626,0,0,0,2.377,0l2.3-1.329a.724.724,0,0,0-.007-1.372l-7.483-4.32a2.627,2.627,0,0,0-2.376,0l-2.3,1.33A.724.724,0,0,0,419.821,213.26Zm11.132,6.427,2.318,1.339a2.629,2.629,0,0,0,2.377,0l2.3-1.33a.724.724,0,0,0-.008-1.372l-2.317-1.338a2.627,2.627,0,0,0-2.377,0l-2.3,1.33A.724.724,0,0,0,430.953,219.687Zm5.968,3.446,2.318,1.338a2.625,2.625,0,0,0,2.376,0l2.3-1.33a.724.724,0,0,0-.008-1.371l-2.318-1.339a2.625,2.625,0,0,0-2.376,0l-2.3,1.329A.724.724,0,0,0,436.921,223.133Zm5.967,3.445,2.318,1.338a2.626,2.626,0,0,0,2.377,0l2.3-1.33a.724.724,0,0,0-.007-1.371l-2.318-1.338a2.626,2.626,0,0,0-2.377,0l-2.3,1.329A.724.724,0,0,0,442.888,226.578Zm10.661,4.788,2.3-1.329a.724.724,0,0,0-.008-1.372l-2.318-1.338a2.625,2.625,0,0,0-2.376,0l-2.3,1.33a.724.724,0,0,0,.008,1.371l2.318,1.338A2.625,2.625,0,0,0,453.55,231.366Zm5.968,3.445,2.3-1.329a.724.724,0,0,0-.007-1.372l-2.318-1.338a2.627,2.627,0,0,0-2.377,0l-2.3,1.33a.724.724,0,0,0,.008,1.371l2.317,1.338A2.626,2.626,0,0,0,459.518,234.811Zm5.968,3.446,2.3-1.33a.725.725,0,0,0-.007-1.372l-2.318-1.338a2.629,2.629,0,0,0-2.377,0l-2.3,1.33a.724.724,0,0,0,.007,1.372l2.318,1.338A2.629,2.629,0,0,0,465.486,238.257Zm5.967,3.445,2.3-1.33a.724.724,0,0,0-.008-1.371l-2.318-1.339a2.627,2.627,0,0,0-2.376,0l-2.3,1.329a.724.724,0,0,0,.008,1.372l2.318,1.338A2.625,2.625,0,0,0,471.453,241.7Zm5.968,3.445,2.3-1.33a.724.724,0,0,0-.007-1.371l-2.318-1.338a2.626,2.626,0,0,0-2.377,0l-2.3,1.329a.725.725,0,0,0,.007,1.372l2.318,1.338A2.626,2.626,0,0,0,477.421,245.147Zm5.968,3.445,2.3-1.329a.724.724,0,0,0-.008-1.372l-2.317-1.338a2.626,2.626,0,0,0-2.377,0l-2.3,1.33a.724.724,0,0,0,.007,1.371l2.318,1.338A2.626,2.626,0,0,0,483.389,248.593Zm1.274,2.1,2.318,1.338a2.625,2.625,0,0,0,2.376,0l2.3-1.329a.724.724,0,0,0-.008-1.372L489.334,248a2.625,2.625,0,0,0-2.376,0l-2.3,1.33A.724.724,0,0,0,484.663,250.7Zm16.533,4.15-5.893-3.4a2.629,2.629,0,0,0-2.377,0l-2.3,1.33a.724.724,0,0,0,.007,1.372l5.893,3.4a2.626,2.626,0,0,0,2.377,0l2.3-1.33A.724.724,0,0,0,501.2,254.847Zm-86.879-38.23,10.617,6.129a2.967,2.967,0,0,0,2.684.005l2-1.152a.818.818,0,0,0-.009-1.55l-10.617-6.13a2.969,2.969,0,0,0-2.685,0l-2,1.152A.818.818,0,0,0,414.316,216.616Zm14.576,8.415,2.009,1.159a2.966,2.966,0,0,0,2.685.005l2-1.152a.818.818,0,0,0-.008-1.55l-2.009-1.159a2.968,2.968,0,0,0-2.685-.005l-2,1.152A.818.818,0,0,0,428.892,225.031Zm5.968,3.445,2.009,1.16a2.967,2.967,0,0,0,2.684,0l2-1.152a.818.818,0,0,0-.009-1.55l-2.008-1.159a2.969,2.969,0,0,0-2.685-.005l-2,1.153A.818.818,0,0,0,434.86,228.477Zm5.968,3.445,2.008,1.16a2.966,2.966,0,0,0,2.685,0l2-1.152a.817.817,0,0,0-.008-1.549l-2.009-1.16a2.966,2.966,0,0,0-2.685,0l-2,1.152A.817.817,0,0,0,440.828,231.922Zm5.967,3.446,2.009,1.159a2.969,2.969,0,0,0,2.685.005l2-1.153a.818.818,0,0,0-.008-1.549l-2.009-1.16a2.969,2.969,0,0,0-2.685,0l-2,1.152A.818.818,0,0,0,446.795,235.368Zm5.968,3.445,2.009,1.159a2.967,2.967,0,0,0,2.684.005l2-1.152a.818.818,0,0,0-.009-1.55l-2.009-1.16a2.967,2.967,0,0,0-2.684,0l-2,1.152A.818.818,0,0,0,452.763,238.813Zm5.967,3.445,2.009,1.16a2.969,2.969,0,0,0,2.685,0l2-1.152a.818.818,0,0,0-.008-1.55l-2.009-1.159a2.969,2.969,0,0,0-2.685-.005l-2,1.152A.818.818,0,0,0,458.73,242.259ZM464.7,245.7l2.009,1.16a2.967,2.967,0,0,0,2.684,0l2-1.152a.818.818,0,0,0-.009-1.55l-2.008-1.159a2.966,2.966,0,0,0-2.685,0l-2,1.152A.818.818,0,0,0,464.7,245.7Zm5.968,3.446,2.008,1.159a2.969,2.969,0,0,0,2.685.005l2-1.153a.818.818,0,0,0-.009-1.549l-2.009-1.16a2.964,2.964,0,0,0-2.684,0l-2,1.152A.818.818,0,0,0,470.666,249.15Zm5.967,3.445,2.009,1.159a2.969,2.969,0,0,0,2.685.005l2-1.153a.818.818,0,0,0-.008-1.549l-2.009-1.16a2.969,2.969,0,0,0-2.685,0l-2,1.152A.818.818,0,0,0,476.633,252.6Zm5.968,3.445,2.009,1.159a2.964,2.964,0,0,0,2.684.005l2-1.152a.818.818,0,0,0-.009-1.55l-2.009-1.159a2.964,2.964,0,0,0-2.684-.005l-2,1.152A.818.818,0,0,0,482.6,256.04Zm12.78,1.984-2.008-1.159a2.969,2.969,0,0,0-2.685-.005l-2,1.152a.818.818,0,0,0,.009,1.55l2.009,1.159a2.964,2.964,0,0,0,2.684.005l2-1.152A.818.818,0,0,0,495.381,258.025ZM418.118,219.8l-4.656-2.689a2.969,2.969,0,0,0-2.685-.005l-2,1.153a.818.818,0,0,0,.009,1.549l4.657,2.689a2.964,2.964,0,0,0,2.684,0l2-1.152A.818.818,0,0,0,418.118,219.8Zm5.968,3.445-2.009-1.16a2.967,2.967,0,0,0-2.684,0l-2,1.152a.818.818,0,0,0,.009,1.55l2.008,1.159a2.969,2.969,0,0,0,2.685.005l2-1.153A.818.818,0,0,0,424.086,223.245Zm5.968,3.445-2.009-1.159a2.966,2.966,0,0,0-2.685-.005l-2,1.152a.818.818,0,0,0,.008,1.55l2.009,1.159a2.966,2.966,0,0,0,2.685.005l2-1.152A.818.818,0,0,0,430.054,226.69Zm41.773,24.118-37.815-21.832a2.967,2.967,0,0,0-2.684-.005l-2,1.152a.818.818,0,0,0,.009,1.55l37.814,21.833a2.966,2.966,0,0,0,2.685,0l2-1.152A.818.818,0,0,0,471.827,250.807Zm5.968,3.446-2.009-1.16a2.968,2.968,0,0,0-2.685,0l-2,1.152a.818.818,0,0,0,.008,1.55l2.009,1.159a2.969,2.969,0,0,0,2.685.005l2-1.153A.818.818,0,0,0,477.8,254.254Zm5.967,3.445-2.009-1.16a2.966,2.966,0,0,0-2.684,0l-2,1.152a.818.818,0,0,0,.009,1.55l2.009,1.159a2.967,2.967,0,0,0,2.684.005l2-1.152A.818.818,0,0,0,483.762,257.7Zm6.092,3.517-2.009-1.16a2.964,2.964,0,0,0-2.684,0l-2,1.152a.818.818,0,0,0,.009,1.55l2.008,1.159a2.966,2.966,0,0,0,2.685,0l2-1.152A.818.818,0,0,0,489.854,261.216Z" transform="translate(-379.411 -120.358)" fill="#72b5e8"/><path d="M436.37,203.035l5.032,2.906a2.552,2.552,0,0,0,2.31,0,.7.7,0,0,0-.007-1.334l-5.032-2.9a2.554,2.554,0,0,0-2.311,0A.7.7,0,0,0,436.37,203.035Zm8.616,4.975,2.384,1.376a2.554,2.554,0,0,0,2.311,0,.7.7,0,0,0-.007-1.334l-2.384-1.377a2.554,2.554,0,0,0-2.311,0A.7.7,0,0,0,444.986,208.01Zm5.968,3.445,2.384,1.376a2.554,2.554,0,0,0,2.311,0,.7.7,0,0,0-.008-1.334l-2.384-1.377a2.552,2.552,0,0,0-2.31,0A.7.7,0,0,0,450.954,211.456Zm5.967,3.445,2.385,1.377a2.555,2.555,0,0,0,2.31,0,.7.7,0,0,0-.007-1.334l-2.384-1.377a2.556,2.556,0,0,0-2.311,0A.7.7,0,0,0,456.921,214.9Zm5.968,3.445,2.384,1.377a2.554,2.554,0,0,0,2.311,0,.7.7,0,0,0-.007-1.334l-2.385-1.376a2.552,2.552,0,0,0-2.31,0A.7.7,0,0,0,462.889,218.346Zm5.968,3.446,2.384,1.376a2.552,2.552,0,0,0,2.31,0,.7.7,0,0,0-.007-1.334l-2.384-1.376a2.554,2.554,0,0,0-2.311,0A.7.7,0,0,0,468.857,221.792Zm5.967,3.445,2.384,1.376a2.554,2.554,0,0,0,2.311,0,.7.7,0,0,0-.007-1.334l-2.384-1.377a2.554,2.554,0,0,0-2.311,0A.7.7,0,0,0,474.824,225.238Zm5.968,3.445,2.384,1.377a2.556,2.556,0,0,0,2.311,0,.7.7,0,0,0-.008-1.334l-2.384-1.377a2.555,2.555,0,0,0-2.31,0A.7.7,0,0,0,480.792,228.683Zm5.968,3.445,2.384,1.377a2.552,2.552,0,0,0,2.31,0,.7.7,0,0,0-.007-1.334l-2.384-1.376a2.554,2.554,0,0,0-2.311,0A.7.7,0,0,0,486.76,232.128Zm5.967,3.445,2.384,1.377a2.554,2.554,0,0,0,2.311,0,.7.7,0,0,0-.007-1.334l-2.384-1.376a2.554,2.554,0,0,0-2.311,0A.7.7,0,0,0,492.727,235.573Zm5.968,3.446,2.384,1.376a2.554,2.554,0,0,0,2.311,0,.7.7,0,0,0-.008-1.334L501,237.689a2.552,2.552,0,0,0-2.31,0A.7.7,0,0,0,498.7,239.019Zm5.967,3.445,2.385,1.376a2.552,2.552,0,0,0,2.31,0,.7.7,0,0,0-.007-1.334l-2.384-1.377a2.554,2.554,0,0,0-2.311,0A.7.7,0,0,0,504.663,242.465Zm6.092,3.517,2.384,1.377a2.554,2.554,0,0,0,2.311,0,.7.7,0,0,0-.007-1.334l-2.385-1.376a2.552,2.552,0,0,0-2.31,0A.7.7,0,0,0,510.755,245.981ZM431,206.319l2.063,1.191a2.907,2.907,0,0,0,2.629.005l2.051-1.185a.8.8,0,0,0-.008-1.518l-2.063-1.192a2.909,2.909,0,0,0-2.63,0l-2.05,1.184A.8.8,0,0,0,431,206.319Zm10.661,4.641,2.051-1.184a.8.8,0,0,0-.008-1.518l-2.064-1.192a2.907,2.907,0,0,0-2.629,0l-2.051,1.184a.8.8,0,0,0,.008,1.518l2.064,1.191A2.9,2.9,0,0,0,441.663,210.961Zm1.275,2.249L445,214.4a2.907,2.907,0,0,0,2.629,0l2.051-1.184a.8.8,0,0,0-.009-1.518l-2.063-1.191a2.907,2.907,0,0,0-2.629-.005l-2.051,1.184A.8.8,0,0,0,442.938,213.21Zm5.968,3.445,2.063,1.192a2.9,2.9,0,0,0,2.629,0l2.051-1.184a.8.8,0,0,0-.008-1.518l-2.064-1.192a2.907,2.907,0,0,0-2.629-.005l-2.051,1.185A.8.8,0,0,0,448.906,216.655Zm12.7,1.94-2.063-1.192a2.9,2.9,0,0,0-2.629,0l-2.051,1.184a.8.8,0,0,0,.008,1.518l2.064,1.192a2.9,2.9,0,0,0,2.629,0l2.051-1.184A.8.8,0,0,0,461.608,218.6Zm5.968,3.445-2.063-1.192a2.907,2.907,0,0,0-2.629,0l-2.051,1.184a.8.8,0,0,0,.008,1.518l2.064,1.191a2.907,2.907,0,0,0,2.629.005l2.05-1.184A.8.8,0,0,0,467.576,222.04Zm5.968,3.445-2.064-1.191a2.9,2.9,0,0,0-2.629-.005l-2.051,1.184a.8.8,0,0,0,.009,1.518l2.063,1.191a2.9,2.9,0,0,0,2.629.005L473.552,227A.8.8,0,0,0,473.544,225.486Zm5.967,3.445-2.063-1.191a2.907,2.907,0,0,0-2.629-.005l-2.051,1.185a.8.8,0,0,0,.008,1.518l2.064,1.192a2.907,2.907,0,0,0,2.629,0l2.051-1.184A.8.8,0,0,0,479.511,228.931Zm5.968,3.446-2.063-1.192a2.906,2.906,0,0,0-2.63,0l-2.05,1.184a.8.8,0,0,0,.008,1.518l2.063,1.192a2.9,2.9,0,0,0,2.629,0l2.051-1.184A.8.8,0,0,0,485.479,232.377Zm5.968,3.445-2.064-1.192a2.9,2.9,0,0,0-2.629,0L484.7,235.81a.8.8,0,0,0,.008,1.518l2.064,1.191a2.9,2.9,0,0,0,2.629,0l2.051-1.184A.8.8,0,0,0,491.448,235.822Zm-.768,4.951,2.064,1.191a2.907,2.907,0,0,0,2.629.005l2.051-1.184a.8.8,0,0,0-.009-1.518l-2.063-1.192a2.907,2.907,0,0,0-2.629,0l-2.051,1.184A.8.8,0,0,0,490.679,240.774Zm12.7,1.939-2.064-1.191a2.9,2.9,0,0,0-2.629-.005l-2.051,1.184a.8.8,0,0,0,.009,1.518l2.063,1.192a2.907,2.907,0,0,0,2.629,0l2.051-1.184A.8.8,0,0,0,503.383,242.713Zm8.74,5.046-4.712-2.721a2.907,2.907,0,0,0-2.629,0l-2.051,1.184a.8.8,0,0,0,.008,1.518l4.713,2.72a2.9,2.9,0,0,0,2.629.005l2.051-1.184A.8.8,0,0,0,512.123,247.759ZM425.475,209.51l4.712,2.721a2.9,2.9,0,0,0,2.629,0l2.051-1.184a.8.8,0,0,0-.008-1.518l-4.713-2.721a2.907,2.907,0,0,0-2.629-.005l-2.051,1.184A.8.8,0,0,0,425.475,209.51Zm8.616,4.975,2.064,1.191a2.9,2.9,0,0,0,2.629,0l2.051-1.184a.8.8,0,0,0-.009-1.518l-2.063-1.192a2.9,2.9,0,0,0-2.629,0l-2.051,1.184A.8.8,0,0,0,434.091,214.485Zm8.031,4.636a2.907,2.907,0,0,0,2.629.005l2.051-1.184a.8.8,0,0,0-.008-1.518l-2.064-1.192a2.907,2.907,0,0,0-2.629,0l-2.051,1.184a.8.8,0,0,0,.009,1.518Zm5.968,3.445a2.9,2.9,0,0,0,2.629.005l2.051-1.184a.8.8,0,0,0-.009-1.518l-2.063-1.191a2.9,2.9,0,0,0-2.629-.005l-2.051,1.184a.8.8,0,0,0,.008,1.518Zm5.947-.448-2.051,1.185a.8.8,0,0,0,.008,1.518l2.063,1.192a2.909,2.909,0,0,0,2.63,0l2.05-1.184a.8.8,0,0,0-.008-1.518l-2.063-1.191A2.907,2.907,0,0,0,454.037,222.119Zm6.093,3.373-2.3,1.329a.725.725,0,0,0,.007,1.372l2.318,1.338a2.626,2.626,0,0,0,2.377,0l2.3-1.33a.724.724,0,0,0-.007-1.371l-2.318-1.338A2.627,2.627,0,0,0,460.13,225.492Zm5.968,3.445-2.3,1.33a.724.724,0,0,0,.007,1.371l2.318,1.338a2.626,2.626,0,0,0,2.377,0l2.3-1.329a.724.724,0,0,0-.008-1.372l-2.317-1.338A2.627,2.627,0,0,0,466.1,228.937Zm5.968,3.445-2.3,1.33a.724.724,0,0,0,.008,1.372l2.318,1.338a2.625,2.625,0,0,0,2.376,0l2.3-1.329a.724.724,0,0,0-.008-1.372l-2.318-1.338A2.625,2.625,0,0,0,472.066,232.382Zm5.967,3.445-2.3,1.33a.724.724,0,0,0,.007,1.372l2.318,1.338a2.627,2.627,0,0,0,2.377,0l2.3-1.33a.724.724,0,0,0-.007-1.371l-2.318-1.339A2.629,2.629,0,0,0,478.034,235.828ZM484,239.274l-2.3,1.329a.724.724,0,0,0,.008,1.372l2.318,1.338a2.625,2.625,0,0,0,2.376,0l2.3-1.33a.724.724,0,0,0-.008-1.371l-2.317-1.338A2.626,2.626,0,0,0,484,239.274Zm8.366,7.489,2.3-1.329a.724.724,0,0,0-.007-1.372l-2.318-1.338a2.625,2.625,0,0,0-2.376,0l-2.3,1.33a.724.724,0,0,0,.007,1.371l2.318,1.338A2.626,2.626,0,0,0,492.367,246.763Zm5.968,3.445,2.3-1.329a.725.725,0,0,0-.007-1.372l-2.318-1.338a2.627,2.627,0,0,0-2.377,0l-2.3,1.33a.724.724,0,0,0,.007,1.371l2.318,1.338A2.627,2.627,0,0,0,498.335,250.208Zm8.387.816-2.318-1.338a2.624,2.624,0,0,0-2.376,0l-2.3,1.329a.724.724,0,0,0,.008,1.372l2.318,1.338a2.625,2.625,0,0,0,2.376,0l2.3-1.33A.724.724,0,0,0,506.722,251.024Zm-86.9-38.4,7.482,4.32a2.626,2.626,0,0,0,2.377,0l2.3-1.33a.724.724,0,0,0-.007-1.371l-7.483-4.32a2.625,2.625,0,0,0-2.376,0l-2.3,1.33A.724.724,0,0,0,419.821,212.628Zm11.132,6.427,2.318,1.338a2.626,2.626,0,0,0,2.377,0l2.3-1.33a.724.724,0,0,0-.008-1.371l-2.317-1.338a2.626,2.626,0,0,0-2.377,0l-2.3,1.329A.724.724,0,0,0,430.953,219.056Zm5.968,3.445,2.318,1.338a2.625,2.625,0,0,0,2.376,0l2.3-1.329a.724.724,0,0,0-.008-1.372l-2.318-1.338a2.625,2.625,0,0,0-2.376,0l-2.3,1.33A.724.724,0,0,0,436.921,222.5Zm5.967,3.445,2.318,1.339a2.626,2.626,0,0,0,2.377,0l2.3-1.329a.724.724,0,0,0-.007-1.372l-2.318-1.338a2.626,2.626,0,0,0-2.377,0l-2.3,1.33A.724.724,0,0,0,442.888,225.946Zm10.661,4.788,2.3-1.33a.724.724,0,0,0-.008-1.372l-2.318-1.338a2.625,2.625,0,0,0-2.376,0l-2.3,1.329a.724.724,0,0,0,.008,1.372l2.318,1.338A2.625,2.625,0,0,0,453.55,230.735Zm5.968,3.445,2.3-1.33a.724.724,0,0,0-.007-1.371L459.5,230.14a2.627,2.627,0,0,0-2.377,0l-2.3,1.329a.724.724,0,0,0,.008,1.372l2.317,1.338A2.626,2.626,0,0,0,459.518,234.18Zm5.968,3.445,2.3-1.33a.724.724,0,0,0-.007-1.371l-2.318-1.338a2.626,2.626,0,0,0-2.377,0l-2.3,1.329a.724.724,0,0,0,.007,1.372l2.318,1.338A2.626,2.626,0,0,0,465.486,237.625Zm5.967,3.445,2.3-1.329a.724.724,0,0,0-.008-1.372l-2.318-1.338a2.625,2.625,0,0,0-2.376,0l-2.3,1.33a.724.724,0,0,0,.008,1.371l2.318,1.338A2.625,2.625,0,0,0,471.453,241.07Zm5.968,3.446,2.3-1.33a.724.724,0,0,0-.007-1.372l-2.318-1.338a2.629,2.629,0,0,0-2.377,0l-2.3,1.33a.725.725,0,0,0,.007,1.372l2.318,1.338A2.629,2.629,0,0,0,477.421,244.516Zm5.968,3.445,2.3-1.33a.724.724,0,0,0-.008-1.371l-2.317-1.339a2.629,2.629,0,0,0-2.377,0l-2.3,1.329a.724.724,0,0,0,.007,1.372l2.318,1.338A2.626,2.626,0,0,0,483.389,247.962Zm1.274,2.1,2.318,1.338a2.625,2.625,0,0,0,2.376,0l2.3-1.33a.724.724,0,0,0-.008-1.371l-2.318-1.338a2.625,2.625,0,0,0-2.376,0l-2.3,1.329A.724.724,0,0,0,484.663,250.065Zm16.533,4.15-5.893-3.4a2.626,2.626,0,0,0-2.377,0l-2.3,1.33a.724.724,0,0,0,.007,1.371l5.893,3.4a2.627,2.627,0,0,0,2.377,0l2.3-1.329A.724.724,0,0,0,501.2,254.215Zm-86.879-38.23,10.617,6.13a2.967,2.967,0,0,0,2.684,0l2-1.152a.818.818,0,0,0-.009-1.55l-10.617-6.129a2.969,2.969,0,0,0-2.685-.005l-2,1.153A.818.818,0,0,0,414.316,215.984Zm14.576,8.416,2.009,1.159a2.966,2.966,0,0,0,2.685,0l2-1.152a.818.818,0,0,0-.008-1.549l-2.009-1.16a2.966,2.966,0,0,0-2.685,0l-2,1.152A.818.818,0,0,0,428.892,224.4Zm5.968,3.445L436.868,229a2.967,2.967,0,0,0,2.684.005l2-1.153a.818.818,0,0,0-.009-1.549l-2.008-1.16a2.969,2.969,0,0,0-2.685,0l-2,1.152A.818.818,0,0,0,434.86,227.846Zm5.968,3.445,2.008,1.159a2.966,2.966,0,0,0,2.685.005l2-1.152a.818.818,0,0,0-.008-1.55l-2.009-1.159a2.966,2.966,0,0,0-2.685-.005l-2,1.152A.818.818,0,0,0,440.828,231.291Zm5.967,3.445,2.009,1.16a2.968,2.968,0,0,0,2.685,0l2-1.152a.818.818,0,0,0-.008-1.55l-2.009-1.159a2.969,2.969,0,0,0-2.685-.005l-2,1.153A.817.817,0,0,0,446.795,234.736Zm5.968,3.445,2.009,1.16a2.964,2.964,0,0,0,2.684,0l2-1.152a.818.818,0,0,0-.009-1.55l-2.009-1.159a2.964,2.964,0,0,0-2.684,0l-2,1.152A.818.818,0,0,0,452.763,238.181Zm5.967,3.446,2.009,1.159a2.966,2.966,0,0,0,2.685,0l2-1.152a.818.818,0,0,0-.008-1.549l-2.009-1.16a2.969,2.969,0,0,0-2.685,0l-2,1.152A.818.818,0,0,0,458.73,241.628Zm5.968,3.445,2.009,1.159a2.967,2.967,0,0,0,2.684.005l2-1.152a.818.818,0,0,0-.009-1.55l-2.008-1.16a2.969,2.969,0,0,0-2.685,0l-2,1.152A.818.818,0,0,0,464.7,245.073Zm5.968,3.445,2.008,1.16a2.969,2.969,0,0,0,2.685,0l2-1.152a.818.818,0,0,0-.009-1.55l-2.009-1.159a2.967,2.967,0,0,0-2.684-.005l-2,1.152A.818.818,0,0,0,470.666,248.518Zm5.967,3.445,2.009,1.16a2.969,2.969,0,0,0,2.685,0l2-1.152a.818.818,0,0,0-.008-1.55l-2.009-1.159a2.969,2.969,0,0,0-2.685-.005l-2,1.153A.818.818,0,0,0,476.633,251.963Zm5.968,3.445,2.009,1.16a2.964,2.964,0,0,0,2.684,0l2-1.152a.818.818,0,0,0-.009-1.549l-2.009-1.16a2.964,2.964,0,0,0-2.684,0l-2,1.152A.818.818,0,0,0,482.6,255.409Zm12.78,1.985-2.008-1.16a2.966,2.966,0,0,0-2.685,0l-2,1.152a.818.818,0,0,0,.009,1.55l2.009,1.159a2.964,2.964,0,0,0,2.684,0l2-1.152A.818.818,0,0,0,495.381,257.393Zm-77.264-38.226-4.656-2.689a2.969,2.969,0,0,0-2.685,0l-2,1.152a.818.818,0,0,0,.009,1.55l4.657,2.688a2.964,2.964,0,0,0,2.684.005l2-1.152A.818.818,0,0,0,418.118,219.167Zm5.968,3.445-2.009-1.159a2.967,2.967,0,0,0-2.684-.005l-2,1.152a.818.818,0,0,0,.009,1.55l2.008,1.16a2.968,2.968,0,0,0,2.685,0l2-1.152A.818.818,0,0,0,424.086,222.613Zm5.968,3.446-2.009-1.16a2.966,2.966,0,0,0-2.685,0l-2,1.152a.818.818,0,0,0,.008,1.549l2.009,1.16a2.966,2.966,0,0,0,2.685,0l2-1.152A.818.818,0,0,0,430.054,226.059Zm41.773,24.118-37.815-21.833a2.967,2.967,0,0,0-2.684,0l-2,1.152a.818.818,0,0,0,.009,1.55l37.814,21.832a2.966,2.966,0,0,0,2.685.005l2-1.152A.818.818,0,0,0,471.827,250.176Zm5.968,3.445-2.009-1.159a2.969,2.969,0,0,0-2.685-.005l-2,1.153a.818.818,0,0,0,.008,1.549l2.009,1.16a2.968,2.968,0,0,0,2.685,0l2-1.152A.818.818,0,0,0,477.8,253.622Zm5.967,3.445-2.009-1.159a2.967,2.967,0,0,0-2.684-.005l-2,1.153a.818.818,0,0,0,.009,1.549l2.009,1.16a2.964,2.964,0,0,0,2.684,0l2-1.152A.818.818,0,0,0,483.762,257.067Zm6.092,3.517-2.009-1.159a2.964,2.964,0,0,0-2.684-.005l-2,1.152a.818.818,0,0,0,.009,1.55l2.008,1.159a2.966,2.966,0,0,0,2.685.005l2-1.152A.818.818,0,0,0,489.854,260.584Z" transform="translate(-379.411 -120.283)" fill="#a8cff0"/><g transform="translate(58.453)"><path d="M526.491,233.319l-79.054-45.669c-3.061-1.767-5.541-6.508-5.541-10.588V115.045c0-4.081,2.481-5.957,5.541-4.189l79.054,45.669c3.061,1.768,5.542,6.508,5.542,10.588v62.016C532.033,233.209,529.552,235.085,526.491,233.319Z" transform="translate(-441.896 -109.356)" fill="#a8cff0"/><path d="M527.628,230.617l-78.211-45.176a9.425,9.425,0,0,1-3.987-7.894V115.229a.983.983,0,0,1,1.48-.846l.174.1,78.272,45.22c2.932,1.691,3.987,4.693,3.987,7.894V229.77a1.061,1.061,0,0,1-1.586.921Z" transform="translate(-442.319 -109.842)" fill="#03336e"/><path d="M525.357,159.7l-78.272-45.22-.174-.1a.983.983,0,0,0-1.48.846v62.317a9.425,9.425,0,0,0,3.987,7.894l78.211,45.176.129.074a1.061,1.061,0,0,0,1.586-.921V167.6C529.344,164.4,528.29,161.4,525.357,159.7Zm3.364,70.066a.44.44,0,0,1-.44.438.436.436,0,0,1-.216-.058L449.729,184.9a8.779,8.779,0,0,1-3.675-7.354V115.229a.358.358,0,0,1,.542-.309l78.449,45.323c3.039,1.751,3.676,4.965,3.676,7.354Z" transform="translate(-442.319 -109.842)" fill="#022652"/><path d="M528.347,155.576l-79.055-45.669a3.745,3.745,0,0,0-3.242-.476c-.116.045-1.662.866-1.77.926l-.005,0a3.623,3.623,0,0,1,3.447.381l79.054,45.669c3.061,1.767,5.542,6.508,5.542,10.588v62.016c0,2.547-.966,4.234-2.437,4.714a.916.916,0,0,0,.486-.165c.07-.04,1.747-.987,1.814-1.033,1.052-.738,1.708-2.253,1.708-4.35V166.164C533.889,162.084,531.407,157.344,528.347,155.576Z" transform="translate(-442.181 -109.242)" fill="#3f92d1"/><path d="M528.347,155.576l-79.055-45.669a3.745,3.745,0,0,0-3.242-.476c-.116.045-1.662.866-1.77.926l-.005,0a3.623,3.623,0,0,1,3.447.381l79.054,45.669Z" transform="translate(-442.181 -109.242)" fill="#4f9fdb"/><path d="M527.093,156.374l-79.054-45.669a3.675,3.675,0,0,0-3.338-.427,4.093,4.093,0,0,1,2.673.626l79.054,45.669c3.061,1.767,5.542,6.508,5.542,10.588v62.016c0,2.407-.868,4.039-2.2,4.616,1.709-.271,2.869-2.028,2.869-4.816V166.962C532.635,162.881,530.154,158.141,527.093,156.374Z" transform="translate(-442.232 -109.339)" fill="#fff" style="mix-blend-mode:screen;isolation:isolate"/></g><g transform="translate(83.799 33.678)"><path d="M470.69,169.1l13.706,31.7,27.71-29.087L501.3,162.57l-14.889,25.1L479.376,170.8Z" transform="translate(-470.69 -149.307)" fill="#0fbab8"/><path d="M493.051,208.312l-1.027-1.209,1.02-.446c1.262-.681,2.464-1.286,3.6-1.86,7.741-3.9,11.977-5.81,12.961-19.687l1.934-1.692.02,1.588c-1.06,14.973-6.226,17.577-14.045,21.517-1.122.567-2.308,1.165-3.553,1.834Z" transform="translate(-473.245 -151.804)" fill="#eb4680"/><path d="M497.742,162.166a65.567,65.567,0,0,1-7.1-8.776c-4.856,1.444-10.394.588-16.135-2.483l.309,10.267-1.958-.384-.384-13.288,1.743,1.024c5.961,3.511,11.658,4.487,16.47,2.819l.416-.143.578.332.195.229a64.067,64.067,0,0,0,7.249,9.057Z" transform="translate(-470.904 -147.502)" fill="#eb4680"/></g></g><g transform="translate(477.758 233.672)"><path d="M530.743,294.239C527.2,297.084,515,298.711,515,298.711s-1.075-8.152,2.47-11,6.7-1.109,10.366.693S534.288,291.393,530.743,294.239Z" transform="translate(-498.108 -244.302)" fill="#92b4d1" opacity="0.2"/><path d="M529.308,260.829c-5.932-3.356-11.732-9.081-16.593-16.376l-.066-.038c-4.861,1.681-10.661.709-16.592-2.784l-.227-.133.32,11.083c1.126,17.181,6.986,24.66,16.417,40.633l.23.133c9.432-5.083,15.292-5.795,16.417-21.676l.32-10.714Z" transform="translate(-495.83 -238.948)" fill="#a8cff0"/><path d="M532.663,257.932c-5.932-3.355-11.732-9.081-16.592-16.375l-.066-.038c-4.861,1.681-10.661.709-16.593-2.784l-.226-.134-3.282,2.587.163.1c5.932,3.494,11.732,4.465,16.592,2.784l.066.038c4.861,7.295,10.661,13.02,16.592,16.376l.227.128-.32,10.714c-.735,10.366-3.488,14.268-7.933,17.142,5.553-3.28,10.453-8.04,11.278-19.691l.32-10.714Z" transform="translate(-495.839 -238.601)" fill="#d1ebff"/><path d="M535.169,258.457l-.227-.129c-5.932-3.355-11.732-9.081-16.592-16.375l-.066-.038-3.346,2.549.066.038c4.861,7.295,10.661,13.02,16.592,16.376l.227.128Z" transform="translate(-498.118 -238.998)" fill="#d1ebff"/><path d="M533,263.257l-.32,10.714c-.735,10.366-3.487,14.268-7.933,17.142,5.553-3.28,10.453-8.04,11.278-19.691l.32-10.714Z" transform="translate(-499.293 -241.249)" fill="#72b5e8"/><path d="M512.223,286.1c-6.767-11.226-10.171-16.872-10.992-29.193l-.187-6.468a20.189,20.189,0,0,0,12.264,1.844A54.625,54.625,0,0,0,525.57,264.6l-.188,6.251c-.82,11.374-4.225,13.091-10.993,16.5-.354.179-.715.36-1.082.547Z" transform="translate(-496.454 -240.019)" fill="#084c94"/><path d="M514.944,286.864l-1.083.548-1.084-1.8c-6.767-11.226-10.172-16.873-10.992-29.194l-.165-5.729c-.192-.082-.384-.163-.576-.25l.187,6.468c.821,12.321,4.225,17.967,10.992,29.193l1.084,1.8c.367-.187.728-.369,1.082-.547a27.707,27.707,0,0,0,6.657-4.1A32.029,32.029,0,0,1,514.944,286.864Z" transform="translate(-496.454 -240.019)" fill="#001a46"/><path d="M529.55,260.606c-5.932-3.356-11.732-9.081-16.593-16.375l-.065-.038c-4.861,1.681-10.66.709-16.593-2.784l-.216.229c5.921,3.479,11.709,4.445,16.562,2.767l.066.038c4.861,7.295,10.661,13.02,16.592,16.376l.226.128-.32,10.714c-.609,8.6-2.608,12.753-5.811,15.559,3.347-2.81,5.434-6.95,6.059-15.77l.32-10.714Z" transform="translate(-495.86 -238.937)" fill="#fff"/></g><g transform="translate(353.279 233.672)"><path d="M420.275,274.965a12.344,12.344,0,0,0-5.6-9.662,5.306,5.306,0,0,0-2.27-.755c0-.048.006-.092.006-.142,0-6.873-4.855-15.248-10.845-18.706-3.363-1.942-6.291-1.682-8.353-.305l-3.459,1.975c-1.955-1.014-3.7-1.007-4.934-.157L380.165,250a5.279,5.279,0,0,1,4.73.677,10.849,10.849,0,0,1,1.132.766c1.415-4.169,5.493-5.42,10.309-2.64,5.99,3.458,10.845,11.834,10.845,18.707,0,.049-.006.093-.006.142a5.3,5.3,0,0,1,2.27.755,12.344,12.344,0,0,1,5.6,9.662,4.228,4.228,0,0,1-1.2,3.282l4.613-2.686-.005-.011C419.572,278.127,420.275,276.843,420.275,274.965Z" transform="translate(-377.744 -244.303)" fill="#72b5e8"/><g transform="translate(2.621 2.833)"><path d="M411.1,268.612a5.3,5.3,0,0,0-2.27-.756c0-.048.006-.092.006-.141,0-6.874-4.856-15.248-10.845-18.707-2.87-1.657-5.479-1.882-7.417-.91,1.889-.751,4.334-.452,7.008,1.091,5.99,3.458,10.845,11.834,10.845,18.707,0,.049-.006.093-.006.142a5.3,5.3,0,0,1,2.27.755,12.344,12.344,0,0,1,5.6,9.662c0,1.8-.643,3.047-1.677,3.616,1.272-.444,2.086-1.776,2.086-3.8A12.341,12.341,0,0,0,411.1,268.612Z" transform="translate(-381.613 -247.521)" fill="#fff"/><path d="M384.923,251.388a10.846,10.846,0,0,1,1.132.766c.044-.128.09-.254.139-.377a9.847,9.847,0,0,0-.862-.571c-1.916-1.106-3.656-1.244-4.939-.577A5.43,5.43,0,0,1,384.923,251.388Z" transform="translate(-380.393 -247.845)" fill="#fff"/></g><path d="M409.117,268.818a5.306,5.306,0,0,0-2.27-.755c0-.048.006-.092.006-.142,0-6.873-4.855-15.248-10.845-18.707-4.817-2.781-8.895-1.529-10.309,2.64a10.842,10.842,0,0,0-1.132-.766c-3.95-2.281-7.151-.455-7.151,4.076a15.757,15.757,0,0,0,7.151,12.335l24.551,14.174c3.094,1.786,5.6.356,5.6-3.194A12.344,12.344,0,0,0,409.117,268.818Z" transform="translate(-377.415 -244.713)" fill="#d1ebff"/><path d="M411.877,280.883a3.3,3.3,0,0,1-1.612-.527L385.713,266.18a13.994,13.994,0,0,1-6.246-10.77c0-.978.208-3.253,2.135-3.253a4.8,4.8,0,0,1,2.306.739,9.156,9.156,0,0,1,.943.641l2,1.517.806-2.375a3.825,3.825,0,0,1,3.737-2.9,8.187,8.187,0,0,1,3.958,1.246c5.39,3.112,9.943,10.962,9.943,17.143,0,0-.006.063-.007.12l-.02,1.709,1.706.114a3.6,3.6,0,0,1,1.489.518,10.521,10.521,0,0,1,4.7,8.1,2.942,2.942,0,0,1-.46,1.793.951.951,0,0,1-.821.364Z" transform="translate(-377.661 -244.959)" fill="#3f92d1"/><g transform="translate(1.806 5.325)"><path d="M388.488,254.672l.806-2.374a4.757,4.757,0,0,1,1.182-1.946,4.33,4.33,0,0,0-1.784,2.4l-.561,1.653Z" transform="translate(-380.505 -250.352)" fill="#2672ab"/><path d="M412.479,280.778a3.3,3.3,0,0,1-1.612-.527l-24.553-14.175a13.992,13.992,0,0,1-6.246-10.77,4.3,4.3,0,0,1,.738-2.636c-1.189.535-1.34,2.267-1.34,3.088a13.994,13.994,0,0,0,6.246,10.77L410.266,280.7a3.3,3.3,0,0,0,1.612.527.951.951,0,0,0,.821-.364c.027-.033.047-.081.072-.119A1.357,1.357,0,0,1,412.479,280.778Z" transform="translate(-379.467 -250.63)" fill="#2672ab"/></g></g><g transform="translate(330.23 158.01)"><path d="M344.161,225.165l-11.719-6.4c-1.955-1.128-1.71-3.1.548-4.4h0c2.259-1.3,9.728-1.311,11.683-.181l9.588,5.2c3,1.771.03,4.2-2.47,5.472h0C349.532,226.152,346.116,226.294,344.161,225.165Z" transform="translate(-322.415 -178.172)" fill="#92b4d1" opacity="0.2"/><path d="M342.6,209.291c-5.457-3.15-9.88-10.78-9.88-17.041a7.9,7.9,0,0,1,1.66-5.31c-2.995.217-5.02,2.723-5.02,6.955,0,6.261,4.423,13.89,9.88,17.041,3.428,1.98,6.439,1.708,8.207-.315A8.573,8.573,0,0,1,342.6,209.291Z" transform="translate(-322.204 -175.008)" fill="#72b5e8"/><path d="M342.149,209.562c-5.457-3.15-9.881-10.78-9.881-17.041s4.424-8.784,9.881-5.634,9.88,10.78,9.88,17.041S347.605,212.713,342.149,209.562Z" transform="translate(-322.552 -174.84)" fill="#084c94"/><path d="M351.23,205.9a19.393,19.393,0,0,0-.169-2.4l3.994-.505a36.2,36.2,0,0,0-1.81-6.046l-4.551-1.376a31.934,31.934,0,0,0-2.833-4.885l1.091-4.592a36.391,36.391,0,0,0-4.358-4.593l-2.45,3.168a19.887,19.887,0,0,0-2-1.349,15.47,15.47,0,0,0-2-.962l-2.45-6a12.144,12.144,0,0,0-4.358-.44l1.09,5.852a6.248,6.248,0,0,0-2.832,1.615l-4.551-3.879a11.874,11.874,0,0,0-1.81,3.957l3.994,5.116a15.071,15.071,0,0,0-.169,2.2,19.379,19.379,0,0,0,.169,2.394l-3.994.506a36.051,36.051,0,0,0,1.81,6.045l4.551,1.377a31.96,31.96,0,0,0,2.832,4.884l-1.09,4.593a36.507,36.507,0,0,0,4.358,4.593l2.45-3.169a19.711,19.711,0,0,0,2,1.35,15.468,15.468,0,0,0,2,.962l2.45,6a12.124,12.124,0,0,0,4.358.44l-1.091-5.852a6.249,6.249,0,0,0,2.833-1.614l4.551,3.878a11.91,11.91,0,0,0,1.81-3.957l-3.994-5.116A15.058,15.058,0,0,0,351.23,205.9Zm-12.962,3.709c-5.457-3.15-9.88-10.779-9.88-17.041s4.423-8.783,9.88-5.633,9.881,10.78,9.881,17.041S343.724,212.761,338.268,209.61Z" transform="translate(-321.23 -173.684)" fill="#a8cff0"/><path d="M341.663,179.932l-2.449-6-3.827,2.2,2.449,6Z" transform="translate(-322.925 -173.451)" fill="#72b5e8"/><path d="M338.169,182.947a15.476,15.476,0,0,1,2,.962,19.892,19.892,0,0,1,2,1.349l2.45-3.168h0s-.415-.261-.623-.381a15.458,15.458,0,0,0-2-.962Z" transform="translate(-323.259 -174.267)" fill="#d1ebff"/><path d="M338.62,173.869a12.142,12.142,0,0,0-4.358-.439l-3.827,2.2a12.144,12.144,0,0,1,4.358.44Z" transform="translate(-322.332 -173.385)" fill="#d1ebff"/><path d="M353.686,184.368a36.507,36.507,0,0,0-4.358-4.593l-3.827,2.2a36.5,36.5,0,0,1,4.358,4.592Z" transform="translate(-324.137 -174.15)" fill="#d1ebff"/><path d="M350.3,187.191l-1.09,4.592,3.827-2.2,1.09-4.592Z" transform="translate(-324.581 -174.775)" fill="#72b5e8"/><path d="M349.213,192.409a31.937,31.937,0,0,1,2.833,4.885l3.827-2.2a31.973,31.973,0,0,0-2.833-4.885Z" transform="translate(-324.581 -175.4)" fill="#72b5e8"/><path d="M352.431,197.959l4.551,1.376,3.827-2.2-4.551-1.376Z" transform="translate(-324.967 -176.065)" fill="#d1ebff"/><path d="M357.6,199.522a36.222,36.222,0,0,1,1.81,6.045l3.827-2.2a36.2,36.2,0,0,0-1.81-6.045Z" transform="translate(-325.586 -176.252)" fill="#72b5e8"/><path d="M330.669,181.974l-.317-1.7-3.238-2.76-3.827,2.2,4.551,3.879A6.248,6.248,0,0,1,330.669,181.974Z" transform="translate(-321.476 -173.879)" fill="#72b5e8"/><path d="M359.411,218a11.911,11.911,0,0,1-1.81,3.957l3.827-2.2a11.906,11.906,0,0,0,1.81-3.956Z" transform="translate(-325.586 -178.465)" fill="#72b5e8"/><path d="M358.947,209.592a15.048,15.048,0,0,0,.169-2.2c0-.231-.015-.465-.027-.7l-3.969.5a19.393,19.393,0,0,1,.169,2.4,15.058,15.058,0,0,1-.169,2.2Z" transform="translate(-325.289 -177.374)" fill="#72b5e8"/><path d="M355.12,212.184l3.994,5.117,3.827-2.2-3.994-5.117Z" transform="translate(-325.289 -177.769)" fill="#d1ebff"/><path d="M352.046,218.385A6.249,6.249,0,0,1,349.213,220l1.091,5.852,3.827-2.2-.773-4.149Z" transform="translate(-324.581 -178.775)" fill="#72b5e8"/><path d="M325.079,193.544l-3.849,2.26,3.994-.506C325.15,194.707,325.1,194.122,325.079,193.544Z" transform="translate(-321.23 -175.8)" fill="#d1ebff"/><path d="M337.836,216.928l-2.45,3.169,3.855-2.194C338.767,217.6,338.3,217.277,337.836,216.928Z" transform="translate(-322.925 -178.6)" fill="#72b5e8"/><g transform="translate(0.193 2.18)" style="mix-blend-mode:color-dodge;isolation:isolate"><path d="M331.07,182.873l-.011-.059c-.182.07-.357.153-.53.239C330.708,182.989,330.885,182.922,331.07,182.873Z" transform="translate(-322.537 -176.695)" fill="#fff"/><path d="M324.764,195.614l-3.315.419c.012.064.03.129.044.194l3.291-.416C324.775,195.744,324.772,195.679,324.764,195.614Z" transform="translate(-321.449 -178.228)" fill="#fff"/><path d="M349.651,187.113,348.56,191.7a32.02,32.02,0,0,1,2.833,4.885l4.55,1.377a36.272,36.272,0,0,1,1.767,5.853l.451-.075a36.2,36.2,0,0,0-1.81-6.045l-4.551-1.377a32.022,32.022,0,0,0-2.833-4.885l1.091-4.592a36.5,36.5,0,0,0-4.358-4.593l-.15.5A36.712,36.712,0,0,1,349.651,187.113Z" transform="translate(-324.335 -176.628)" fill="#fff"/><path d="M339.229,210.989c-5.457-3.151-9.88-10.78-9.88-17.041,0-2.766.868-4.793,2.3-5.929-1.658,1.068-2.679,3.2-2.679,6.2,0,6.261,4.423,13.891,9.88,17.041,2.755,1.591,5.244,1.731,7.036.679-.132.04-.271.067-.408.1C343.778,212.651,341.6,212.358,339.229,210.989Z" transform="translate(-322.35 -177.318)" fill="#fff"/><path d="M350.048,219.837a6.205,6.205,0,0,0,1.8-1.009l-.168-.143A6.241,6.241,0,0,1,350.048,219.837Z" transform="translate(-324.874 -180.991)" fill="#fff"/><path d="M327.7,183.989c-.165.007,0-.129.168-.265l-4.382-3.735c-.124.173-.236.36-.03.383Z" transform="translate(-321.676 -176.356)" fill="#fff"/><path d="M349.085,220.489l1.044,5.6c-.121-.006.117-.009.348-.031l-1.079-5.792C349.179,220.35,348.958,220.428,349.085,220.489Z" transform="translate(-324.754 -181.18)" fill="#fff" style="mix-blend-mode:color-dodge;isolation:isolate"/><path d="M355.457,209.665a18.8,18.8,0,0,0-.15-2.2l-.4.03a19.573,19.573,0,0,1,.169,2.4,15.177,15.177,0,0,1-.169,2.2l3.994,5.117a12.193,12.193,0,0,1-1.459,3.413l.026.317a11.9,11.9,0,0,0,1.81-3.956l-3.994-5.117A15.153,15.153,0,0,0,355.457,209.665Z" transform="translate(-325.456 -179.647)" fill="#fff"/><path d="M334.653,176.524l2.449,6a15.468,15.468,0,0,1,2,.961,19.811,19.811,0,0,1,2,1.35l.077-.38a18.759,18.759,0,0,0-1.719-1.147,15.4,15.4,0,0,0-2-.962l-2.45-6a12.127,12.127,0,0,0-4.359-.44l.048.252A14.254,14.254,0,0,1,334.653,176.524Z" transform="translate(-322.551 -175.862)" fill="#fff"/><path d="M337.361,217.228l-2.048,2.65c.086.077.17.161.257.237l2.074-2.683C337.551,217.363,337.455,217.3,337.361,217.228Z" transform="translate(-323.109 -180.816)" fill="#fff"/></g><g transform="translate(14.676 18.125)"><path d="M343.235,194.558a3.023,3.023,0,0,0-2.958-.327c-.021.012-2.34,1.375-2.374,1.428a2.854,2.854,0,0,1,3.21.164,9.333,9.333,0,0,1,4.236,7.307,2.909,2.909,0,0,1-1.289,2.746.962.962,0,0,0,.207-.091l2.015-1.231a2.975,2.975,0,0,0,1.188-2.69A9.335,9.335,0,0,0,343.235,194.558Z" transform="translate(-337.903 -193.976)" fill="#4f9fdb"/></g><path d="M340.974,195.994c-2.34-1.351-4.237-.269-4.237,2.415a9.332,9.332,0,0,0,4.237,7.306c2.34,1.351,4.236.269,4.236-2.415A9.333,9.333,0,0,0,340.974,195.994Z" transform="translate(-323.087 -176.023)" fill="#a8cff0"/><path d="M341.136,195.994a2.958,2.958,0,0,0-3.043-.274,3.172,3.172,0,0,1,2.742.424,9.333,9.333,0,0,1,4.236,7.307,2.967,2.967,0,0,1-1.194,2.688,2.793,2.793,0,0,0,1.495-2.839A9.333,9.333,0,0,0,341.136,195.994Z" transform="translate(-323.25 -176.023)" fill="#fff"/></g><g transform="translate(380.772 126.742)"><path d="M415.214,188.548,388.63,173.619c-1.455-.841-1.272-2.307.408-3.277h0c1.679-.97,7.236-.975,8.691-.136l25,14.035c2.233,1.318.023,3.127-1.837,4.071h0A6.308,6.308,0,0,1,415.214,188.548Z" transform="translate(-387.648 -133.97)" fill="#92b4d1" opacity="0.2"/><g transform="translate(0.095 0)"><path d="M414.759,183.638l-23.979-13.976a7.243,7.243,0,0,1-3.024-5.779V132.6c0-2.227,1.354-3.251,3.024-2.286l23.979,13.976a7.242,7.242,0,0,1,3.024,5.778v31.286C417.783,183.579,416.429,184.6,414.759,183.638Z" transform="translate(-387.756 -129.222)" fill="#a8cff0"/><path d="M415.379,182.289l-23.518-13.708a5.143,5.143,0,0,1-2.175-4.308V133.8a.536.536,0,0,1,.807-.462l.1.055,23.552,13.732a4.651,4.651,0,0,1,2.176,4.308v30.4a.579.579,0,0,1-.865.5Z" transform="translate(-387.987 -129.619)" fill="#084c94"/><path d="M415.934,181.934l-.07-.04-23.518-13.708a5.142,5.142,0,0,1-2.176-4.308V133.4a.567.567,0,0,1,.018-.136.533.533,0,0,0-.5.532v30.476a5.143,5.143,0,0,0,2.175,4.308l23.518,13.708.071.04a.578.578,0,0,0,.836-.327A.56.56,0,0,1,415.934,181.934Z" transform="translate(-387.987 -129.619)" fill="#001a46"/><path d="M416.339,143.462,392.36,129.486a2.046,2.046,0,0,0-1.769-.26c-.063.025-1.474.744-1.533.776l0,0a1.977,1.977,0,0,1,1.881.209l23.979,13.976a7.242,7.242,0,0,1,3.024,5.778v31.286c0,1.39-.527,2.311-1.329,2.572a.509.509,0,0,0,.265-.09c.038-.022,1.52-.81,1.557-.835a2.794,2.794,0,0,0,.932-2.374V149.241A7.245,7.245,0,0,0,416.339,143.462Z" transform="translate(-387.912 -129.123)" fill="#3f92d1"/><path d="M416.339,143.462,392.36,129.486a2.046,2.046,0,0,0-1.769-.26c-.063.025-1.474.744-1.533.776l0,0a1.977,1.977,0,0,1,1.881.209l23.979,13.976Z" transform="translate(-387.912 -129.123)" fill="#4f9fdb"/><path d="M415.088,144.206l-23.979-13.976a2.008,2.008,0,0,0-1.822-.232,2.236,2.236,0,0,1,1.459.341l23.978,13.976a7.243,7.243,0,0,1,3.024,5.779v31.285a2.541,2.541,0,0,1-1.2,2.519c.933-.148,1.565-1.106,1.565-2.628V149.984A7.245,7.245,0,0,0,415.088,144.206Z" transform="translate(-387.939 -129.212)" fill="#fff" style="mix-blend-mode:screen;isolation:isolate"/></g><g transform="translate(14.833 25.493)"><path d="M405.028,168.376a.529.529,0,0,1-.516-.644,40.575,40.575,0,0,0,.93-8.909v-.21a.528.528,0,1,1,1.055,0v.21a41.663,41.663,0,0,1-.956,9.141A.527.527,0,0,1,405.028,168.376Z" transform="translate(-404.499 -158.084)" fill="#a8cff0"/></g><g transform="translate(11.067 21.901)"><path d="M400.75,171.456a.5.5,0,0,1-.125-.015.528.528,0,0,1-.389-.637,70.4,70.4,0,0,0,1.57-14.483,2.743,2.743,0,0,1,.883-2.2.528.528,0,0,1,.664.822,1.733,1.733,0,0,0-.491,1.378,71.592,71.592,0,0,1-1.6,14.732A.527.527,0,0,1,400.75,171.456Z" transform="translate(-400.221 -154.004)" fill="#a8cff0"/></g><g transform="translate(15.64 21.985)"><path d="M408.933,160.31a.529.529,0,0,1-.528-.528,6.1,6.1,0,0,0-2.724-4.7.528.528,0,0,1,.528-.915,7.07,7.07,0,0,1,3.252,5.612A.528.528,0,0,1,408.933,160.31Z" transform="translate(-405.416 -154.099)" fill="#a8cff0"/></g><g transform="translate(16.472 31.423)"><path d="M406.891,176.671a.517.517,0,0,1-.121-.013.528.528,0,0,1-.394-.634,105.206,105.206,0,0,0,1.859-10.735.528.528,0,1,1,1.048.121,105.772,105.772,0,0,1-1.879,10.852A.528.528,0,0,1,406.891,176.671Z" transform="translate(-406.362 -164.821)" fill="#a8cff0"/></g><g transform="translate(5.816 14.242)"><path d="M411.775,175.332a.551.551,0,0,1-.136-.018.528.528,0,0,1-.375-.646,48.573,48.573,0,0,0,1.508-12.437v-.21c0-5.331-3.781-11.852-8.428-14.535-2.162-1.248-4.164-1.466-5.637-.615s-2.262,2.658-2.262,5.114a51.22,51.22,0,0,1-1.144,11.078.528.528,0,0,1-1.032-.229,50.117,50.117,0,0,0,1.12-10.849c0-2.849.99-4.99,2.79-6.029s4.189-.829,6.692.615c4.938,2.852,8.956,9.782,8.956,15.45v.21a49.638,49.638,0,0,1-1.542,12.707A.528.528,0,0,1,411.775,175.332Z" transform="translate(-394.256 -145.303)" fill="#a8cff0"/></g><g transform="translate(8.265 30.011)"><path d="M397.566,169.336a.569.569,0,0,1-.131-.017.529.529,0,0,1-.38-.643,45.919,45.919,0,0,0,.986-5.006.538.538,0,0,1,.6-.449.528.528,0,0,1,.449.6,46.723,46.723,0,0,1-1.009,5.121A.528.528,0,0,1,397.566,169.336Z" transform="translate(-397.038 -163.217)" fill="#a8cff0"/></g><g transform="translate(9.455 19.148)"><path d="M398.919,161.265a.431.431,0,0,1-.059,0,.529.529,0,0,1-.467-.584,57.888,57.888,0,0,0,.342-6.378,5.5,5.5,0,0,1,.878-3.2.528.528,0,0,1,.861.612,4.465,4.465,0,0,0-.684,2.589,59.371,59.371,0,0,1-.347,6.5A.529.529,0,0,1,398.919,161.265Z" transform="translate(-398.389 -150.876)" fill="#a8cff0"/></g><g transform="translate(12.208 17.913)"><path d="M410.509,157.538a.528.528,0,0,1-.49-.334,12.276,12.276,0,0,0-4.805-5.945,4.127,4.127,0,0,0-3.035-.646.528.528,0,1,1-.265-1.022,5.145,5.145,0,0,1,3.828.753,13.18,13.18,0,0,1,5.259,6.47.529.529,0,0,1-.491.724Z" transform="translate(-401.518 -149.473)" fill="#a8cff0"/></g><g transform="translate(19.323 28.786)"><path d="M410.128,177.29a.528.528,0,0,1-.5-.7l.116-.351a43.508,43.508,0,0,0,2.013-13.68v-.209a.528.528,0,1,1,1.056,0v.209a44.582,44.582,0,0,1-2.067,14.013l-.117.352A.529.529,0,0,1,410.128,177.29Z" transform="translate(-409.6 -161.825)" fill="#a8cff0"/></g></g></g></svg>