<svg xmlns="http://www.w3.org/2000/svg" width="113.333" height="113.333" viewBox="0 0 113.333 113.333">
  <g id="alcantarilla" transform="translate(-1 -1)">
    <rect id="Rectángulo_340118" data-name="Rectángulo 340118" width="14" height="110" transform="translate(3 3)" fill="#94a4ad"/>
    <path id="Trazado_722999" data-name="Trazado 722999" d="M62.731,101.742V39.591A25.591,25.591,0,0,0,37.14,14H28V39.591h5.484a5.484,5.484,0,0,1,5.484,5.484v56.667Z" transform="translate(22.355 10.763)" fill="#bce4f8"/>
    <path id="Trazado_723000" data-name="Trazado 723000" d="M2,77.731H111.677V43l-1.607,1.607a13.238,13.238,0,0,1-9.361,3.877h0a13.238,13.238,0,0,1-9.361-3.877L89.742,43l-1.607,1.607a13.238,13.238,0,0,1-9.361,3.877h0a13.238,13.238,0,0,1-9.361-3.877L67.806,43,66.2,44.607a13.238,13.238,0,0,1-9.361,3.877h0a13.238,13.238,0,0,1-9.361-3.877L45.871,43l-1.607,1.607A13.238,13.238,0,0,1,34.9,48.484h0a13.238,13.238,0,0,1-9.361-3.877L23.935,43l-1.607,1.607a13.238,13.238,0,0,1-9.361,3.877h0a13.238,13.238,0,0,1-9.361-3.877L2,43Z" transform="translate(0.828 34.774)" fill="#4596ec"/>
    <rect id="Rectángulo_340119" data-name="Rectángulo 340119" width="19" height="29" transform="translate(17 23)" fill="#b3bec4"/>
    <rect id="Rectángulo_340120" data-name="Rectángulo 340120" width="14" height="37" transform="translate(36 19)" fill="#94a4ad"/>
    <path id="Trazado_723001" data-name="Trazado 723001" d="M34.14,43.14l-1.57-6.283A3.769,3.769,0,0,0,30.6,34.4h0a3.773,3.773,0,0,0-4.354.706l-.139.139A3.773,3.773,0,0,0,25.4,39.6h0a3.769,3.769,0,0,0,2.459,1.972Z" transform="translate(19.871 27.322)" fill="#bce4f8"/>
    <path id="Trazado_723002" data-name="Trazado 723002" d="M51,37.14l1.57-6.283A3.769,3.769,0,0,1,54.543,28.4h0A3.773,3.773,0,0,1,58.9,29.1l.139.139a3.773,3.773,0,0,1,.706,4.354h0a3.769,3.769,0,0,1-2.459,1.972Z" transform="translate(41.398 22.355)" fill="#bce4f8"/>
    <path id="Trazado_723003" data-name="Trazado 723003" d="M111.677,59.968l-1.607,1.607a13.238,13.238,0,0,1-9.361,3.877h0a13.238,13.238,0,0,1-9.361-3.877l-1.606-1.606-1.607,1.607a13.238,13.238,0,0,1-9.361,3.877h0a13.238,13.238,0,0,1-9.361-3.877l-1.606-1.606L66.2,61.574a13.238,13.238,0,0,1-9.361,3.877h0a13.238,13.238,0,0,1-9.361-3.877l-1.606-1.606-1.607,1.607A13.238,13.238,0,0,1,34.9,65.452h0a13.238,13.238,0,0,1-9.361-3.877l-1.606-1.606-1.607,1.607a13.238,13.238,0,0,1-9.361,3.877h0a13.238,13.238,0,0,1-9.361-3.877L2,59.968V49l1.607,1.607a13.238,13.238,0,0,0,9.361,3.877h0a13.238,13.238,0,0,0,9.361-3.877L23.935,49l1.607,1.607A13.238,13.238,0,0,0,34.9,54.484h0a13.238,13.238,0,0,0,9.361-3.877L45.871,49l1.607,1.607a13.238,13.238,0,0,0,9.361,3.877h0A13.238,13.238,0,0,0,66.2,50.606L67.806,49l1.607,1.607a13.238,13.238,0,0,0,9.361,3.877h0a13.238,13.238,0,0,0,9.361-3.877L89.742,49l1.607,1.607a13.238,13.238,0,0,0,9.361,3.877h0a13.238,13.238,0,0,0,9.361-3.877L111.677,49Z" transform="translate(0.828 39.742)" fill="#3477cc"/>
    <path id="Trazado_723004" data-name="Trazado 723004" d="M2,2V73.29H5.656a5.484,5.484,0,0,0,5.484-5.484V2Z" transform="translate(0.828 0.828)" fill="#b3bec4"/>
    <rect id="Rectángulo_340121" data-name="Rectángulo 340121" width="4" height="8" transform="translate(76 59)"/>
    <path id="Trazado_723005" data-name="Trazado 723005" d="M113.205,76.085a1.828,1.828,0,0,0-1.992.4l-1.607,1.607a11.412,11.412,0,0,1-16.137,0l-1.607-1.607a1.828,1.828,0,0,0-2.585,0L87.67,78.088c-.243.243-.5.468-.757.685V50.355A27.45,27.45,0,0,0,59.494,22.935H52.183V19.28a1.828,1.828,0,0,0-1.828-1.828H35.731A1.828,1.828,0,0,0,33.9,19.28v1.828H19.28V2.828A1.828,1.828,0,0,0,17.452,1H2.828A1.828,1.828,0,0,0,1,2.828V112.505a1.828,1.828,0,0,0,1.828,1.828H112.505a1.828,1.828,0,0,0,1.828-1.828V77.774a1.828,1.828,0,0,0-1.128-1.689ZM4.656,92.946a15.037,15.037,0,0,0,19.793-1.307l.314-.313.314.314a15.066,15.066,0,0,0,21.307,0l.314-.314.314.314a15.066,15.066,0,0,0,21.307,0l.314-.314.314.314a15.066,15.066,0,0,0,21.307,0l.314-.314.314.314a15.037,15.037,0,0,0,19.793,1.305v6l-1.071,1.071a11.412,11.412,0,0,1-16.137,0l-1.607-1.607a1.828,1.828,0,0,0-2.585,0l-1.607,1.607a11.412,11.412,0,0,1-16.137,0l-1.607-1.607a1.828,1.828,0,0,0-2.585,0l-1.607,1.607a11.412,11.412,0,0,1-16.137,0l-1.607-1.607a1.828,1.828,0,0,0-2.585,0L43.8,100.022a11.412,11.412,0,0,1-16.137,0l-1.607-1.607a1.828,1.828,0,0,0-2.585,0l-1.607,1.607a11.412,11.412,0,0,1-16.137,0L4.656,98.953ZM59.494,26.591A23.791,23.791,0,0,1,83.258,50.355V80.823a11.384,11.384,0,0,1-11.724-2.742l-1.071-1.064V68.634H66.806v8.383l-1.071,1.071a11.477,11.477,0,0,1-2.585,1.938V55.839a7.312,7.312,0,0,0-7.312-7.312H52.183V43.043h5.484a9.151,9.151,0,0,1,9.14,9.14v12.8h3.656v-12.8a12.81,12.81,0,0,0-12.8-12.8H52.183V35.731h9.14A14.64,14.64,0,0,1,75.946,50.355v5.484H79.6V50.355a18.3,18.3,0,0,0-18.28-18.28h-9.14V26.591ZM37.559,21.107H48.527v32.9H37.559Zm12.8,36.559a1.828,1.828,0,0,0,1.828-1.828V52.183h3.656a3.656,3.656,0,0,1,3.656,3.656V81.273a11.652,11.652,0,0,1-1.828.157A11.333,11.333,0,0,1,49.6,78.088l-1.607-1.607a1.828,1.828,0,0,0-2.585,0L43.8,78.088a11.412,11.412,0,0,1-16.137,0l-1.607-1.607a1.828,1.828,0,0,0-2.585,0l-1.607,1.607a11.408,11.408,0,0,1-2.585,1.943V54.011H33.9v1.828a1.828,1.828,0,0,0,1.828,1.828ZM33.9,24.763V50.355H19.28V24.763ZM4.656,4.656H15.624v76.63a11.453,11.453,0,0,1-1.828.144,11.333,11.333,0,0,1-8.069-3.341L4.656,77.017Zm9.14,80.43a14.962,14.962,0,0,0,10.653-4.413l.314-.314.314.314a15.066,15.066,0,0,0,21.307,0l.314-.314.314.314a15.066,15.066,0,0,0,21.307,0l.314-.314.314.314a15.066,15.066,0,0,0,21.307,0l.314-.314.314.314A15.071,15.071,0,0,0,110.677,82v5.985l-1.071,1.071a11.412,11.412,0,0,1-16.137,0l-1.607-1.607a1.828,1.828,0,0,0-2.585,0l-1.607,1.607a11.412,11.412,0,0,1-16.137,0l-1.607-1.607a1.828,1.828,0,0,0-2.585,0l-1.607,1.607a11.412,11.412,0,0,1-16.137,0l-1.607-1.607a1.828,1.828,0,0,0-2.585,0L43.8,89.056a11.412,11.412,0,0,1-16.137,0l-1.607-1.607a1.828,1.828,0,0,0-2.585,0l-1.607,1.607a11.412,11.412,0,0,1-16.137,0L4.656,87.985V82a14.953,14.953,0,0,0,9.14,3.086Zm-9.14,25.591v-6.763a15.037,15.037,0,0,0,19.793-1.307l.314-.313.314.314a15.066,15.066,0,0,0,21.307,0l.314-.314.314.314a15.066,15.066,0,0,0,21.307,0l.314-.314.314.314a15.066,15.066,0,0,0,21.307,0l.314-.314.314.314a15.037,15.037,0,0,0,19.793,1.305v6.763Z"/>
    <path id="Trazado_723006" data-name="Trazado 723006" d="M28.239,44.166l6.283,1.572a1.828,1.828,0,0,0,2.217-2.215l-1.57-6.285a5.6,5.6,0,0,0-9.387-2.6l-.144.141a5.6,5.6,0,0,0,2.6,9.383Zm-.02-6.8.143-.141a1.943,1.943,0,0,1,3.259.9l.832,3.329-3.327-.834a1.943,1.943,0,0,1-.914-3.256Z" transform="translate(19.045 26.497)"/>
    <path id="Trazado_723007" data-name="Trazado 723007" d="M51.828,39.8a1.846,1.846,0,0,0,.444-.055l6.281-1.57a5.6,5.6,0,0,0,2.6-9.4l-.133-.135a5.6,5.6,0,0,0-9.392,2.6l-1.57,6.284a1.828,1.828,0,0,0,1.773,2.27Zm3.345-7.668a1.943,1.943,0,0,1,3.263-.9l.133.135a1.943,1.943,0,0,1-.9,3.261l-3.325.832Z" transform="translate(40.57 21.526)"/>
  </g>
</svg>
