<svg xmlns="http://www.w3.org/2000/svg" xmlns:xlink="http://www.w3.org/1999/xlink" width="523" height="286" viewBox="0 0 523 286"><defs><filter id="a" x="0" y="0" width="523" height="286" filterUnits="userSpaceOnUse"><feOffset dy="3" input="SourceAlpha"/><feGaussianBlur stdDeviation="3" result="b"/><feFlood flood-opacity="0.161"/><feComposite operator="in" in2="b"/><feComposite in="SourceGraphic"/></filter><filter id="c" x="60.5" y="39.5" width="96" height="50" filterUnits="userSpaceOnUse"><feOffset dx="3" dy="3" input="SourceAlpha"/><feGaussianBlur stdDeviation="1.5" result="d"/><feFlood flood-opacity="0.161"/><feComposite operator="in" in2="d"/><feComposite in="SourceGraphic"/></filter><filter id="e" x="63" y="101" width="86" height="64" filterUnits="userSpaceOnUse"><feOffset dy="3" input="SourceAlpha"/><feGaussianBlur stdDeviation="3" result="f"/><feFlood flood-opacity="0.161"/><feComposite operator="in" in2="f"/><feComposite in="SourceGraphic"/></filter><filter id="g" x="65.312" y="176.5" width="89.376" height="56" filterUnits="userSpaceOnUse"><feOffset dx="3" dy="3" input="SourceAlpha"/><feGaussianBlur stdDeviation="3" result="h"/><feFlood flood-opacity="0.161"/><feComposite operator="in" in2="h"/><feComposite in="SourceGraphic"/></filter><filter id="i" x="221.744" y="165.42" width="135.999" height="86.155" filterUnits="userSpaceOnUse"><feOffset dy="3" input="SourceAlpha"/><feGaussianBlur stdDeviation="3" result="j"/><feFlood flood-opacity="0.161"/><feComposite operator="in" in2="j"/><feComposite in="SourceGraphic"/></filter><filter id="k" x="397" y="177" width="73" height="60" filterUnits="userSpaceOnUse"><feOffset dy="3" input="SourceAlpha"/><feGaussianBlur stdDeviation="3" result="l"/><feFlood flood-opacity="0.161"/><feComposite operator="in" in2="l"/><feComposite in="SourceGraphic"/></filter></defs><g transform="translate(-801 -3799)"><g transform="matrix(1, 0, 0, 1, 801, 3799)" filter="url(#a)"><rect width="505" height="268" transform="translate(9 6)" fill="#fff"/></g><g transform="matrix(1, 0, 0, 1, 801, 3799)" filter="url(#c)"><g transform="translate(62 41)" fill="#fff" stroke="#707070" stroke-width="1"><rect width="87" height="41" rx="10" stroke="none"/><rect x="0.5" y="0.5" width="86" height="40" rx="9.5" fill="none"/></g></g><g transform="matrix(1, 0, 0, 1, 801, 3799)" filter="url(#e)"><g transform="translate(72 107)" fill="#fff" stroke="#707070" stroke-width="1"><rect width="68" height="46" stroke="none"/><rect x="0.5" y="0.5" width="67" height="45" fill="none"/></g></g><g transform="matrix(1, 0, 0, 1, 801, 3799)" filter="url(#g)"><path d="M5266-7638h70l-12,37h-46Z" transform="translate(-5194 7821)" fill="#fff" stroke="#707070" stroke-width="1"/></g><path d="M7.292,14.869V2.732a.482.482,0,0,0-.482-.482H4.558a.482.482,0,0,0-.482.482V14.869H2.225a.965.965,0,0,0-.682,1.647L5,19.975a.965.965,0,0,0,1.364,0l3.459-3.459a.965.965,0,0,0-.682-1.647H7.292Z" transform="translate(903.868 3878.75)"/><path d="M7.292,14.869V2.732a.482.482,0,0,0-.482-.482H4.558a.482.482,0,0,0-.482.482V14.869H2.225a.965.965,0,0,0-.682,1.647L5,19.975a.965.965,0,0,0,1.364,0l3.459-3.459a.965.965,0,0,0-.682-1.647H7.292Z" transform="translate(903.868 3949.75)"/><path d="M15.319,13.679H.586A.586.586,0,0,0,0,14.265V17a.586.586,0,0,0,.586.586H15.319V19.83a1.171,1.171,0,0,0,2,.828l4.2-4.2a1.171,1.171,0,0,0,0-1.656l-4.2-4.2a1.171,1.171,0,0,0-2,.828Z" transform="translate(994.698 3988.869)"/><path d="M1083.7,4075.5H1025" transform="translate(-89 -71)" fill="none" stroke="#282828" stroke-width="4"/><g transform="matrix(1, 0, 0, 1, 801, 3799)" filter="url(#i)"><path d="M5444-7649l-58,34,58,33,58-33Z" transform="translate(-5154.26 7821)" fill="#fff" stroke="#707070" stroke-width="1"/></g><g transform="matrix(1, 0, 0, 1, 801, 3799)" filter="url(#k)"><g transform="translate(406 183)" fill="#fff" stroke="#707070" stroke-width="1"><rect width="55" height="42" stroke="none"/><rect x="0.5" y="0.5" width="54" height="41" fill="none"/></g></g><path d="M15.319,13.679H.586A.586.586,0,0,0,0,14.265V17a.586.586,0,0,0,.586.586H15.319V19.83a1.171,1.171,0,0,0,2,.828l4.2-4.2a1.171,1.171,0,0,0,0-1.656l-4.2-4.2a1.171,1.171,0,0,0-2,.828Z" transform="translate(1172.016 3988.869)"/><path d="M7.148,18.262h16.1a.64.64,0,0,0,.64-.64V14.636a.64.64,0,0,0-.64-.64H7.148V11.54a1.28,1.28,0,0,0-2.185-.9L.375,15.224a1.28,1.28,0,0,0,0,1.81l4.589,4.589a1.28,1.28,0,0,0,2.185-.9Z" transform="translate(961.338 3907)"/><path d="M5361.966-7696.871h117.461v48.371" transform="translate(-4388.684 11620)" fill="none" stroke="#282828" stroke-width="4"/><path d="M1055.757,4075.5H1025" transform="translate(123.743 -71)" fill="none" stroke="#282828" stroke-width="4"/></g></svg>