<svg xmlns="http://www.w3.org/2000/svg" xmlns:xlink="http://www.w3.org/1999/xlink" width="222" height="235.884" viewBox="0 0 222 235.884">
  <defs>
    <linearGradient id="linear-gradient" x1="0.5" y1="1" x2="0.5" gradientUnits="objectBoundingBox">
      <stop offset="0" stop-color="#131833"/>
      <stop offset="0.299" stop-color="#151b39"/>
      <stop offset="0.715" stop-color="#1b234b"/>
      <stop offset="1" stop-color="#222b5c"/>
    </linearGradient>
    <linearGradient id="linear-gradient-3" x1="0.5" y1="1" x2="0.5" gradientUnits="objectBoundingBox">
      <stop offset="0" stop-color="#00a8c4"/>
      <stop offset="0.336" stop-color="#1eb0c9"/>
      <stop offset="0.766" stop-color="#41bace"/>
      <stop offset="1" stop-color="#4ebed1"/>
    </linearGradient>
    <linearGradient id="linear-gradient-4" x1="0.5" y1="1" x2="0.5" gradientUnits="objectBoundingBox">
      <stop offset="0" stop-color="#283082"/>
      <stop offset="1" stop-color="#39439e"/>
    </linearGradient>
  </defs>
  <g id="Grupo_959214" data-name="Grupo 959214" transform="translate(-307 -3232)">
    <g id="Grupo_958617" data-name="Grupo 958617" transform="translate(268.433 3199.665)">
      <path id="Trazado_722954" data-name="Trazado 722954" d="M284.6,54.62a26.233,26.233,0,0,0,1.891-2.508,12.174,12.174,0,0,0,1.427-2.87,7.306,7.306,0,0,0,.378-2.993,5.3,5.3,0,0,0-1.3-2.928,4.83,4.83,0,0,0-4.174-1.959,8.686,8.686,0,0,0-4.937,2.217q-1.03.85-1.779,1.592a12.807,12.807,0,0,0-1.294,1.481q-.546.74-1.076,1.548t-1.072,1.751a20.323,20.323,0,0,1-3.316-1.719,15.322,15.322,0,0,1-2.889-2.4q.91-1.494,1.728-2.7t1.686-2.257a23.273,23.273,0,0,1,1.839-1.971q.97-.924,2.148-1.9,5.891-4.86,11.093-4.656T294,37.212a10.878,10.878,0,0,1,2.4,4.705,13.5,13.5,0,0,1,.193,4.585,16.324,16.324,0,0,1-1.038,3.991q-.737,1.806-1.289,2.839l3.686,4.467a25.231,25.231,0,0,1-3.046,3.008,20.447,20.447,0,0,1-3.336,2.257Zm15.63,19.944a29.031,29.031,0,0,1-3.251-3.341,30.174,30.174,0,0,1-2.7-3.875,29.04,29.04,0,0,1,3.341-3.252,30.22,30.22,0,0,1,3.875-2.7,29.686,29.686,0,0,1,3.251,3.341,29.274,29.274,0,0,1,2.7,3.875,29.69,29.69,0,0,1-3.34,3.252A29.315,29.315,0,0,1,300.231,74.564Z" transform="translate(-104.407 0)" fill="#ffb41f"/>
      <path id="Trazado_722955" data-name="Trazado 722955" d="M140.215,158.848a13.5,13.5,0,0,0,1.219-1.061,6.278,6.278,0,0,0,1.025-1.292,3.759,3.759,0,0,0,.509-1.466,2.723,2.723,0,0,0-.343-1.613,2.485,2.485,0,0,0-1.892-1.432,4.47,4.47,0,0,0-2.722.589q-.61.319-1.066.612a6.549,6.549,0,0,0-.81.607q-.354.315-.707.664t-.727.767A10.494,10.494,0,0,1,133.216,154a7.88,7.88,0,0,1-1.2-1.518q.618-.655,1.158-1.177t1.09-.956a11.939,11.939,0,0,1,1.136-.8q.587-.362,1.284-.726,3.484-1.818,6.082-1.16a6.234,6.234,0,0,1,4.037,3.417,5.6,5.6,0,0,1,.7,2.625,6.955,6.955,0,0,1-.392,2.329,8.424,8.424,0,0,1-.949,1.9q-.564.831-.952,1.291l1.379,2.643a12.978,12.978,0,0,1-1.855,1.189,10.485,10.485,0,0,1-1.92.781Zm5.74,11.709a14.928,14.928,0,0,1-1.28-2.029,15.516,15.516,0,0,1-.947-2.239,14.891,14.891,0,0,1,2.029-1.28,15.579,15.579,0,0,1,2.239-.947,15.268,15.268,0,0,1,1.28,2.029,15.017,15.017,0,0,1,.947,2.239,15.321,15.321,0,0,1-2.029,1.28A15.1,15.1,0,0,1,145.955,170.557Z" transform="translate(-42.815 -52.761)" fill="#ffb41f"/>
      <path id="Trazado_722956" data-name="Trazado 722956" d="M377.46,131.588a19.272,19.272,0,0,0,2.307.056,8.95,8.95,0,0,0,2.324-.374,5.37,5.37,0,0,0,1.948-1.054,3.892,3.892,0,0,0,1.192-2.029,3.549,3.549,0,0,0-.615-3.331,6.38,6.38,0,0,0-3.434-2q-.949-.251-1.712-.382a9.4,9.4,0,0,0-1.437-.14q-.675-.01-1.384.019t-1.5.108a14.905,14.905,0,0,1-.391-2.715,11.246,11.246,0,0,1,.2-2.753q1.282-.094,2.354-.124t2.069.042a17.063,17.063,0,0,1,1.964.255q.966.185,2.051.472,5.421,1.439,7.523,4.634a8.9,8.9,0,0,1,.962,7.486,7.986,7.986,0,0,1-1.785,3.443,9.908,9.908,0,0,1-2.655,2.076,12,12,0,0,1-2.828,1.087q-1.394.332-2.246.444l-1.092,4.111a18.544,18.544,0,0,1-3.1-.533,14.974,14.974,0,0,1-2.774-1.027Zm-5.228,17.861a21.283,21.283,0,0,1,.606-3.37A22.157,22.157,0,0,1,374,142.808a21.366,21.366,0,0,1,3.37.6,22.278,22.278,0,0,1,3.271,1.159,21.892,21.892,0,0,1-.605,3.37,21.436,21.436,0,0,1-1.159,3.271,21.894,21.894,0,0,1-3.37-.6A21.638,21.638,0,0,1,372.232,149.449Z" transform="translate(-152.868 -38.725)" fill="#dd8d00"/>
      <path id="Trazado_722957" data-name="Trazado 722957" d="M411.663,59.623a15.777,15.777,0,0,0,1.485,1.164,7.313,7.313,0,0,0,1.707.891,4.389,4.389,0,0,0,1.793.262,3.184,3.184,0,0,0,1.774-.748,2.9,2.9,0,0,0,1.226-2.485,5.221,5.221,0,0,0-1.274-2.991q-.5-.629-.936-1.088a7.684,7.684,0,0,0-.875-.794q-.438-.336-.917-.664t-1.039-.664a12.168,12.168,0,0,1,1.071-1.972,9.2,9.2,0,0,1,1.476-1.707q.888.564,1.6,1.07t1.336,1.039a14.043,14.043,0,0,1,1.163,1.128q.544.593,1.114,1.312,2.851,3.595,2.668,6.717a7.278,7.278,0,0,1-3.029,5.379,6.537,6.537,0,0,1-2.854,1.385,8.1,8.1,0,0,1-2.756.063,9.83,9.83,0,0,1-2.385-.67q-1.077-.464-1.69-.807L409.6,67.6a15.189,15.189,0,0,1-1.771-1.865,12.289,12.289,0,0,1-1.317-2.03ZM399.5,68.781a17.508,17.508,0,0,1,2.044-1.914,18.172,18.172,0,0,1,2.359-1.578,17.412,17.412,0,0,1,1.914,2.044,18.088,18.088,0,0,1,1.578,2.36,17.885,17.885,0,0,1-2.044,1.914,17.514,17.514,0,0,1-2.359,1.578,17.838,17.838,0,0,1-1.914-2.044A17.65,17.65,0,0,1,399.5,68.781Z" transform="translate(-165.362 -7.555)" fill="#ffb41f"/>
      <path id="Trazado_722958" data-name="Trazado 722958" d="M86.022,57.548a13.484,13.484,0,0,0,.781-1.415,6.3,6.3,0,0,0,.52-1.565,3.76,3.76,0,0,0-.025-1.552,2.723,2.723,0,0,0-.876-1.4,2.485,2.485,0,0,0-2.269-.7A4.471,4.471,0,0,0,81.8,52.409q-.463.508-.792.941a6.634,6.634,0,0,0-.552.848q-.224.417-.436.866t-.419.97a10.467,10.467,0,0,1-1.814-.636,7.878,7.878,0,0,1-1.646-1.014q.356-.827.684-1.5t.7-1.272a11.96,11.96,0,0,1,.794-1.137q.428-.541.957-1.122,2.649-2.9,5.314-3.176A6.235,6.235,0,0,1,89.55,48a5.6,5.6,0,0,1,1.562,2.224,6.948,6.948,0,0,1,.431,2.322,8.431,8.431,0,0,1-.24,2.109q-.245.974-.451,1.539l2.2,2.009a12.892,12.892,0,0,1-1.334,1.753,10.484,10.484,0,0,1-1.536,1.392Zm9.409,9.029a14.923,14.923,0,0,1-1.9-1.467,15.556,15.556,0,0,1-1.658-1.779,15.007,15.007,0,0,1,1.466-1.9,15.549,15.549,0,0,1,1.779-1.658,15.324,15.324,0,0,1,1.9,1.466,15.056,15.056,0,0,1,1.658,1.779,15.324,15.324,0,0,1-1.466,1.9A15.1,15.1,0,0,1,95.431,66.577Z" transform="translate(-17.214 -6.325)" fill="#ffb41f"/>
      <path id="Trazado_722959" data-name="Trazado 722959" d="M172.958,70.378a20.313,20.313,0,0,0,2.257.895,9.444,9.444,0,0,0,2.431.475,5.642,5.642,0,0,0,2.307-.333,4.091,4.091,0,0,0,1.915-1.571,3.733,3.733,0,0,0,.6-3.512,6.717,6.717,0,0,0-2.664-3.224q-.845-.593-1.551-1a9.875,9.875,0,0,0-1.369-.661q-.663-.255-1.373-.484t-1.525-.44a15.677,15.677,0,0,1,.6-2.823,11.815,11.815,0,0,1,1.2-2.645q1.3.372,2.37.733t2.027.793a17.9,17.9,0,0,1,1.846.966q.888.533,1.854,1.212,4.829,3.392,5.744,7.31a9.363,9.363,0,0,1-1.772,7.742,8.4,8.4,0,0,1-3.014,2.75,10.434,10.434,0,0,1-3.376,1.085,12.625,12.625,0,0,1-3.187.045q-1.5-.179-2.379-.378l-2.573,3.662a19.4,19.4,0,0,1-2.865-1.653A15.72,15.72,0,0,1,168.1,77.3ZM161.3,86.114a22.41,22.41,0,0,1,1.823-3.108,23.323,23.323,0,0,1,2.333-2.809,22.465,22.465,0,0,1,3.108,1.822,23.387,23.387,0,0,1,2.808,2.334,22.958,22.958,0,0,1-1.823,3.108,22.562,22.562,0,0,1-2.333,2.808,22.955,22.955,0,0,1-3.108-1.822A22.708,22.708,0,0,1,161.3,86.114Z" transform="translate(-56.231 -10.41)" fill="#dd8d00"/>
      <g id="Grupo_958608" data-name="Grupo 958608" transform="translate(38.567 71.366)">
        <path id="Trazado_722960" data-name="Trazado 722960" d="M137.85,455.489c0-2.5-13.071-4.524-29.194-4.524s-29.194,2.025-29.194,4.524,13.071,4.524,29.194,4.524S137.85,457.988,137.85,455.489Z" transform="translate(-57.303 -263.161)" fill="#e0d7ff"/>
        <path id="Trazado_722961" data-name="Trazado 722961" d="M143.455,253.164s-.323,2.7-.4,4.571c-.574,6.568-8.794.477-9.716-.814.138-1.585.553-6.242.574-9.29l9.949.869Z" transform="translate(-81.987 -170.004)" fill="#d3977f"/>
        <g id="Grupo_958604" data-name="Grupo 958604" transform="translate(30.319 128.544)">
          <path id="Trazado_722962" data-name="Trazado 722962" d="M120.7,344.8c-2.019,3.057-7.578,3.7-10.762,3.461a17.67,17.67,0,0,1-11.494-5.55,8.689,8.689,0,0,1-3.4-1.113c-.693,4.108-1.707,15.6,4.411,31.783.525,4.722,1.574,15.084-1.574,24.79h5.247s9.051-10.362,11.411-34.628c3.279,8.919,10.314,28.1,11.1,35.708a9.544,9.544,0,0,0,5.127-2.04s.208-35.42-6.408-53.505A7.423,7.423,0,0,1,120.7,344.8Z" transform="translate(-94.521 -341.599)" fill="url(#linear-gradient)"/>
          <path id="Trazado_722963" data-name="Trazado 722963" d="M98.991,446.007a31.218,31.218,0,0,1-2.055,5.072c1.924,1.749,6.645,3.673,11.542,3.5,0-1.4-5.771-5.771-5.771-5.771l1.53-2.8Z" transform="translate(-95.627 -389.434)" fill="#4ebed1"/>
          <path id="Trazado_722964" data-name="Trazado 722964" d="M151.856,446.277a15.709,15.709,0,0,1-.121,5.589c2.285,1.241,6.662,1.811,11.376.475-.333-1.359-6.127-3.668-6.127-3.668s-.1-1.7,0-4.436C155.652,444.827,151.856,446.277,151.856,446.277Z" transform="translate(-120.734 -388.623)" fill="#4ebed1"/>
        </g>
        <g id="Grupo_958606" data-name="Grupo 958606" transform="translate(34.678 63.35)">
          <path id="Trazado_722965" data-name="Trazado 722965" d="M132.436,233.9c-.351,1.146-.127,3.225,1.108,3.485-1.1,5.315,2.894,9.195,4.271,10.342a6.966,6.966,0,0,0,2.008,1.132,3.279,3.279,0,0,0,4.32-2.137,45.35,45.35,0,0,1,4.969-8.486.255.255,0,0,0,.05-.192,7.537,7.537,0,1,0-13.539-6.5,1.618,1.618,0,0,0-1.228-.132C133.3,231.682,132.756,232.858,132.436,233.9Z" transform="translate(-116.182 -223.76)" fill="#ffae8a"/>
          <g id="Grupo_958605" data-name="Grupo 958605">
            <path id="Trazado_722966" data-name="Trazado 722966" d="M143.684,271.348l-.068-.02Z" transform="translate(-121.373 -244.21)" fill="#3a44a0"/>
            <path id="Trazado_722967" data-name="Trazado 722967" d="M144.308,271.518l-.018,0Z" transform="translate(-121.682 -244.296)" fill="#3a44a0"/>
            <path id="Trazado_722968" data-name="Trazado 722968" d="M143.032,271.136l-.1-.035Z" transform="translate(-121.06 -244.106)" fill="#3a44a0"/>
            <path id="Trazado_722969" data-name="Trazado 722969" d="M142.74,244.007c-.846-1.935-1.706-3.17-1.248-5.481.289-1.458.89-2.828,1.115-4.309.56-3.7-1.153-8.327-5.135-8.316a1.491,1.491,0,0,0-.17-.059.529.529,0,0,0-.066-.124,10.559,10.559,0,0,0-9.821-4.359,10.7,10.7,0,0,0-5.469,2.379c-1.095.913-1.814,2.171-2.914,3.063a10.331,10.331,0,0,1-4.291,1.745c-3.7.936-8.412,2.124-10.8,5.377a7.22,7.22,0,0,0-1.378,3.5c3.987,4.825,10.217,8.915,16.676,7.416v.014a3.439,3.439,0,0,0,.4.435,7.436,7.436,0,0,0,1.912-2.009c1.147-1.791,1.359-4.5,1.036-6.816a4.882,4.882,0,0,1,.834-3.659c1.714-1.984,3.353-1.876,5.5-1.633a9.86,9.86,0,0,0,6.3-1.013,4.057,4.057,0,0,0,.556,2.022,3.785,3.785,0,0,0,.7.826,7.474,7.474,0,0,1-.925,2.567.255.255,0,0,1-.05.192,45.351,45.351,0,0,0-4.969,8.486,3.64,3.64,0,0,1-1.645,1.99,3.23,3.23,0,0,1-.8,1.748c3.649.625,6.483,3.477,7.905,6.965a23.7,23.7,0,0,1,1.508,7.225c3.935-1.7,6.076-5.758,6.616-10.024A15.514,15.514,0,0,0,142.74,244.007Z" transform="translate(-102.566 -221.282)" fill="url(#linear-gradient)"/>
          </g>
        </g>
        <g id="Grupo_958607" data-name="Grupo 958607" transform="translate(0 0)">
          <path id="Trazado_722970" data-name="Trazado 722970" d="M55.008,132.875a35.293,35.293,0,0,0,3.778-1.866,16.338,16.338,0,0,0,3.442-2.578,9.8,9.8,0,0,0,2.256-3.359,7.1,7.1,0,0,0,.206-4.293,6.482,6.482,0,0,0-3.821-4.866,11.661,11.661,0,0,0-7.253-.321q-1.747.4-3.093.835a17.19,17.19,0,0,0-2.444.994q-1.1.558-2.222,1.206t-2.34,1.452a27.271,27.271,0,0,1-2.937-4.06,20.545,20.545,0,0,1-2.014-4.62q1.993-1.242,3.7-2.2t3.381-1.688a31.174,31.174,0,0,1,3.393-1.253q1.72-.523,3.718-.977,9.99-2.272,16.1,1.111t7.909,11.291a14.6,14.6,0,0,1,.035,7.084,18.137,18.137,0,0,1-2.533,5.611,21.963,21.963,0,0,1-3.652,4.157q-1.973,1.719-3.257,2.623l1.723,7.576a33.94,33.94,0,0,1-5.464,1.768,27.4,27.4,0,0,1-5.358.693Zm6.7,33.324a38.914,38.914,0,0,1-1.881-5.964,40.529,40.529,0,0,1-.9-6.274,38.854,38.854,0,0,1,5.964-1.881,40.472,40.472,0,0,1,6.274-.9,39.975,39.975,0,0,1,1.881,5.964,39.405,39.405,0,0,1,.9,6.274,39.992,39.992,0,0,1-5.964,1.882A39.41,39.41,0,0,1,61.711,166.2Z" transform="translate(-38.567 -104.368)" fill="#ffb41f"/>
          <path id="Trazado_722971" data-name="Trazado 722971" d="M127.573,272.32c-1.047-5.845,0-12.147-2.291-17.753-1.422-3.489-4.257-6.341-7.907-6.965-2.269,2.319-8.073-2.063-8.839-3.136v-.014c-6.607,1.533-12.975-2.781-16.947-7.747a40.21,40.21,0,0,1-7.506-16.176,16.929,16.929,0,0,0-4.627.242.5.5,0,0,0-.032.106c-.65,6.9.049,15.336,2.782,21.709a28.4,28.4,0,0,0,10.5,12.23,57.892,57.892,0,0,1-3.415,9.457c-1.572,3.375-4.477,6.68-5.336,10.307-1.4,5.922,1.418,11.919,7.47,12.625a17.671,17.671,0,0,0,11.494,5.55c3.183.241,8.742-.4,10.762-3.461a8.181,8.181,0,0,0,5.728-2.762,13.806,13.806,0,0,0,1.356-1.674,6.051,6.051,0,0,0,5.237.139c1.613-.775,1.914-2.488,2.122-4.114A27.556,27.556,0,0,0,127.573,272.32Z" transform="translate(-57.183 -157.549)" fill="url(#linear-gradient-3)"/>
          <path id="Trazado_722972" data-name="Trazado 722972" d="M83.425,209.649a11.84,11.84,0,0,1-.49,3.39,6.7,6.7,0,0,1-4.586.282c-1.029-1.63-2.475-4.527-1.08-6.013a2.494,2.494,0,0,1,1.075-2.168,1.3,1.3,0,0,1,.7-.941,1,1,0,0,1,1.207.25,4.062,4.062,0,0,1,1.889,1.752,6.6,6.6,0,0,1,1.263,3.008C83.413,209.356,83.422,209.5,83.425,209.649Z" transform="translate(-56.034 -150.058)" fill="#ffae8a"/>
          <path id="Trazado_722973" data-name="Trazado 722973" d="M153.606,271.035a11.852,11.852,0,0,1,.606,3.371,6.706,6.706,0,0,1-4.263,1.715c-1.491-1.222-3.778-3.513-2.924-5.364a2.5,2.5,0,0,1,.335-2.4,1.3,1.3,0,0,1,.368-1.114,1,1,0,0,1,1.225-.144,4.064,4.064,0,0,1,2.346,1.066,6.6,6.6,0,0,1,2.148,2.455C153.5,270.761,153.557,270.9,153.606,271.035Z" transform="translate(-88.172 -178.859)" fill="#ffae8a"/>
        </g>
      </g>
      <g id="Grupo_958612" data-name="Grupo 958612" transform="translate(119.35 75.994)">
        <path id="Trazado_722974" data-name="Trazado 722974" d="M248.289,374.021c0-2.5-13.071-4.524-29.194-4.524s-29.194,2.025-29.194,4.524,13.071,4.524,29.194,4.524S248.289,376.52,248.289,374.021Z" transform="translate(-188.683 -230.464)" fill="#e0d7ff"/>
        <g id="Grupo_958609" data-name="Grupo 958609" transform="translate(9.947 80.886)">
          <path id="Trazado_722975" data-name="Trazado 722975" d="M239.22,262.356c1.452,9.447,3.213,20.527,3.247,33.22.019,7.189-.992,20.462-2.583,23.61H234.97s-1.8-29.122-8.693-43.518h-1.458s-6.929,30.208-12.746,43.518h-4.914s1.325-37.087,3.686-57C215.13,264.173,236.093,264.6,239.22,262.356Z" transform="translate(-206.538 -262.185)" fill="url(#linear-gradient-4)"/>
          <path id="Trazado_722976" data-name="Trazado 722976" d="M262.835,367.383s3.7,4.576,7.154,6.151c-2.319,1.225-8.324.5-12.382-1.6-.909-1.924.315-4.547.315-4.547Z" transform="translate(-229.496 -310.381)" fill="#131833"/>
          <path id="Trazado_722977" data-name="Trazado 722977" d="M211.577,367.383s3.7,4.576,7.154,6.151c-2.319,1.225-8.324.5-12.382-1.6-.91-1.924.314-4.547.314-4.547Z" transform="translate(-206.012 -310.381)" fill="#131833"/>
        </g>
        <g id="Grupo_958610" data-name="Grupo 958610" transform="translate(17.783 0)">
          <path id="Trazado_722978" data-name="Trazado 722978" d="M238.065,160.435s-.087,2.715,0,4.588c0,6.593-8.719,1.24-9.75.035,0-1.592.008-6.267-.237-9.306h9.987Z" transform="translate(-223.958 -132.537)" fill="#d3977f"/>
          <path id="Trazado_722979" data-name="Trazado 722979" d="M220.6,140.29c.215,1.179,1.368,2.923,2.584,2.587,1.462,5.227,6.793,6.839,8.543,7.227a6.972,6.972,0,0,0,2.3.083,3.278,3.278,0,0,0,2.857-3.882,45.38,45.38,0,0,1,.517-9.82.253.253,0,0,0-.044-.194,7.537,7.537,0,1,0-15.013.442,1.621,1.621,0,0,0-1.151.446C220.345,137.918,220.4,139.214,220.6,140.29Z" transform="translate(-220.474 -119.98)" fill="#ffae8a"/>
          <path id="Trazado_722980" data-name="Trazado 722980" d="M243.971,114.865c-1.88-2.286-3.837-2.383-5.421-1.245-2.1,1.509-2.82,5.05-4.591,3.738a12.371,12.371,0,0,0-7.29-1.862,5.465,5.465,0,0,0-3.95,1.993c-1.813,2.263-1.559,5.081-.443,7.525a.811.811,0,0,1-.42.346c-1.014.459-.6,2.963.864,4.3a1.715,1.715,0,0,1,1.86.945c.459.656.679-1.115.634-2.886.415-.59,1.4-1.115,3.366,0a11.869,11.869,0,0,0,11.936.59,13.505,13.505,0,0,0,3.454-2.649,5.989,5.989,0,0,0,4.508-4.144A5.083,5.083,0,0,0,243.971,114.865Z" transform="translate(-220.852 -112.909)" fill="url(#linear-gradient-4)"/>
        </g>
        <g id="Grupo_958611" data-name="Grupo 958611" transform="translate(0 14.393)">
          <path id="Trazado_722981" data-name="Trazado 722981" d="M244.424,179.557a.486.486,0,0,0-.115-.089,4.907,4.907,0,0,0-3.625-.714.471.471,0,0,0-.52.362,48.063,48.063,0,0,1-3.972,10.069c-2.854-8.043-7.539-16.123-16.648-16.7.661,2.534-.435,11.842-1.479,14.78-.625-3.406-8.033-14.192-8.264-14.528a.017.017,0,0,1,0-.01c-5.074,1-8.731,4.984-12.094,8.719-3.825,4.25-9.3,9.544-9.985,15.525-.6,5.284,3.148,10.451,6.695,13.987a30.024,30.024,0,0,0,6.91,5.126,50.721,50.721,0,0,1-3.447,11.3.558.558,0,0,0,.221.7.427.427,0,0,0,.137.141c7.356,5.4,15.693.987,22.052-3.919a16.612,16.612,0,0,0,12.891,5.609.49.49,0,0,0,.383-.184.421.421,0,0,0,.2-.419q-.724-9.83-1.879-19.623c.058.01.115.021.168.026a8.649,8.649,0,0,0,7.781-3.526c2.413-3.263,3.961-10.729,4.848-26.191A.441.441,0,0,0,244.424,179.557ZM201.1,204.683c-1.616-2.346-2.76-4.963-1.28-7.676a15.367,15.367,0,0,1,.976-1.543,50.938,50.938,0,0,1,1.338,10.577C201.769,205.606,201.423,205.155,201.1,204.683Z" transform="translate(-187.654 -154.596)" fill="url(#linear-gradient)"/>
          <path id="Trazado_722982" data-name="Trazado 722982" d="M236.792,187.264c-.625-3.406-8.033-14.192-8.264-14.528,1.081,1.222,9.743,6.527,9.743-.047,0-.068,0-.137-.01-.2h.01C238.932,175.018,237.836,184.326,236.792,187.264Z" transform="translate(-206.381 -154.596)" fill="#4ebed1"/>
          <path id="Trazado_722983" data-name="Trazado 722983" d="M289.852,175.17a11.867,11.867,0,0,1-1.326,3.158,6.707,6.707,0,0,1-4.51-.881c-.586-1.837-1.257-5,.466-6.091a2.493,2.493,0,0,1,1.585-1.828,1.3,1.3,0,0,1,.916-.734,1,1,0,0,1,1.105.546,4.061,4.061,0,0,1,1.388,2.171,6.6,6.6,0,0,1,.465,3.228C289.913,174.883,289.885,175.028,289.852,175.17Z" transform="translate(-231.511 -152.897)" fill="#ffae8a"/>
          <path id="Trazado_722984" data-name="Trazado 722984" d="M234.423,187.468c-2.8-3.326-10.987-10.105-11.065-11.973a12.766,12.766,0,0,1,2.8-2.565.017.017,0,0,0,0,.01C226.39,173.276,233.8,184.063,234.423,187.468Z" transform="translate(-204.012 -154.801)" fill="#1e274f"/>
          <path id="Trazado_722985" data-name="Trazado 722985" d="M243.779,187.264c1.044-2.938,2.14-12.246,1.479-14.78a14.94,14.94,0,0,1,3.2,2.807C248.375,177.159,246.576,183.938,243.779,187.264Z" transform="translate(-213.368 -154.596)" fill="#1e274f"/>
          <path id="Trazado_722986" data-name="Trazado 722986" d="M229.5,180.779a54.694,54.694,0,0,0,6.1,2.307,25.321,25.321,0,0,0,6.555,1.174,15.187,15.187,0,0,0,6.187-.993,11,11,0,0,0,5.079-4.3A10.038,10.038,0,0,0,254.9,169.5q-1.72-4.764-7.3-8.552-2.3-1.559-4.213-2.62a26.57,26.57,0,0,0-3.708-1.718q-1.795-.658-3.712-1.242t-4.116-1.117a42.235,42.235,0,0,1,1.495-7.615,31.8,31.8,0,0,1,3.1-7.161q3.511.945,6.4,1.869t5.483,2.044a48.239,48.239,0,0,1,5,2.518q2.409,1.4,5.034,3.178,13.126,8.912,15.751,19.4t-4.431,20.884a22.6,22.6,0,0,1-7.984,7.524,28.082,28.082,0,0,1-9.029,3.059,34.023,34.023,0,0,1-8.566.257q-4.031-.418-6.41-.916l-6.758,9.954a52.362,52.362,0,0,1-7.774-4.32,42.327,42.327,0,0,1-6.446-5.335Zm-30.655,42.793a60.291,60.291,0,0,1,4.766-8.431,62.753,62.753,0,0,1,6.152-7.649,60.215,60.215,0,0,1,8.431,4.766,62.648,62.648,0,0,1,7.648,6.152,61.839,61.839,0,0,1-4.765,8.431,60.957,60.957,0,0,1-6.153,7.649,61.979,61.979,0,0,1-8.431-4.765A61.051,61.051,0,0,1,198.843,223.572Z" transform="translate(-192.78 -139.472)" fill="#ffb41f"/>
          <path id="Trazado_722987" data-name="Trazado 722987" d="M229.206,256.419a11.842,11.842,0,0,1-3.143-1.362,6.7,6.7,0,0,1,.931-4.5c1.843-.565,5.018-1.2,6.086.535a2.493,2.493,0,0,1,1.81,1.606,1.3,1.3,0,0,1,.724.923,1,1,0,0,1-.558,1.1,4.059,4.059,0,0,1-2.187,1.363,6.594,6.594,0,0,1-3.233.429C229.492,256.484,229.348,256.455,229.206,256.419Z" transform="translate(-205.22 -190.093)" fill="#ffae8a"/>
        </g>
      </g>
      <g id="Grupo_958616" data-name="Grupo 958616" transform="translate(197.289 122.458)">
        <path id="Trazado_722988" data-name="Trazado 722988" d="M398.9,436.323c0-2.5-13.07-4.524-29.194-4.524s-29.194,2.026-29.194,4.524,13.071,4.524,29.194,4.524S398.9,438.822,398.9,436.323Z" transform="translate(-335.627 -305.472)" fill="#e0d7ff"/>
        <g id="Grupo_958613" data-name="Grupo 958613" transform="translate(10.875 75.597)">
          <path id="Trazado_722989" data-name="Trazado 722989" d="M372.389,338.49c-.747,4.321-4.891,37.573-7.669,47.932h5.006s12.417-28.789,15.04-39.457c1.924,13.292,8.657,33.443,9.182,39.457a19.957,19.957,0,0,0,5.684,0s1.221-31.008-.759-47.6C387.97,336.344,384.488,342.049,372.389,338.49Z" transform="translate(-357.59 -338.176)" fill="url(#linear-gradient-3)"/>
          <path id="Trazado_722990" data-name="Trazado 722990" d="M420.369,427.388a23.263,23.263,0,0,1-2.754-.174,7.618,7.618,0,0,0-.875,6.3c1.137,3.41,2.1,4.372,2.1,4.372a14.7,14.7,0,0,0,4.11-3.935c1.749-2.536,1.24-4.372.358-6.733A23.269,23.269,0,0,1,420.369,427.388Z" transform="translate(-381.264 -378.969)" fill="#39439e"/>
          <path id="Trazado_722991" data-name="Trazado 722991" d="M358.716,427.214s-3.7,4.576-7.154,6.151c2.319,1.225,8.324.5,12.382-1.6.91-1.924-.314-4.547-.314-4.547Z" transform="translate(-351.562 -378.969)" fill="#39439e"/>
        </g>
        <g id="Grupo_958614" data-name="Grupo 958614" transform="translate(18.663)">
          <path id="Trazado_722992" data-name="Trazado 722992" d="M394.395,240s.087,2.716,0,4.588c0,6.593,8.719,1.24,9.75.035,0-1.592-.008-6.267.237-9.305h-9.987Z" transform="translate(-378.974 -215.456)" fill="#d3977f"/>
          <path id="Trazado_722993" data-name="Trazado 722993" d="M405.352,225.22a1.62,1.62,0,0,0-.742-.988,7.536,7.536,0,1,0-12.512-8.308.255.255,0,0,0-.14.142,45.4,45.4,0,0,1-4.75,8.611,3.278,3.278,0,0,0,.374,4.805,6.972,6.972,0,0,0,2,1.146c1.691.6,7.067,2.044,11.071-1.621.856.927,2.756.056,3.561-.831C404.949,227.367,405.68,226.295,405.352,225.22Z" transform="translate(-375.281 -204.778)" fill="#ffae8a"/>
          <path id="Trazado_722994" data-name="Trazado 722994" d="M409.2,228.715c-.841-3.525-3.437-5.845-6.2-7.967-1.363-1.047-2.255-1.585-2.433-3.655-.094-1.1.341-2.212.315-3.316a6.628,6.628,0,0,0-1.136-3.588,5.46,5.46,0,0,0-4.431-2.561,8.271,8.271,0,0,0-8.7-8.964,5.958,5.958,0,0,0-5.67,3.472,12.407,12.407,0,0,0-.827,3.439c-.23,1.684-.387,2.414-2.244,2.693-.735.111-1.545-.009-2.3.079-2.849.332-6.179,1.56-8.076,3.82-1.5,1.789-1.774,4.994-1.425,7.23a7.946,7.946,0,0,0,4.893,5.612c1.407.547.786-.151.744.949a5.56,5.56,0,0,0,.246,2.921,6.033,6.033,0,0,0,3.686,3.467,12.212,12.212,0,0,1,5.76-3.823,6.022,6.022,0,0,1-.046-.728c.043-.917.043-2.035.034-2.938-.473-.121-.867-.246-1.153-.347a6.972,6.972,0,0,1-2-1.146,3.278,3.278,0,0,1-.374-4.805,45.357,45.357,0,0,0,4.641-8.369c.575,3.007,4.63,4.641,8.21,4.877a6.167,6.167,0,0,0-1.786,5.5,4.865,4.865,0,0,0,1.7,3.122,2.789,2.789,0,0,0-.409,3.252c-3.227,2.58-3.155,8.862-.037,11.647,4.744,4.237,12.917,4.161,17-.9A10.47,10.47,0,0,0,409.2,228.715Z" transform="translate(-365.936 -198.66)" fill="url(#linear-gradient-3)"/>
        </g>
        <g id="Grupo_958615" data-name="Grupo 958615" transform="translate(0 23.236)">
          <path id="Trazado_722995" data-name="Trazado 722995" d="M378.229,263.833c-2.272-2.03-2.918-5.911-1.858-8.869-2.735,1.423-6.491,2.448-6.922-1.192a7.613,7.613,0,0,0-.784.236c-.072.025-.142.06-.213.088-.186.073-.372.145-.554.231-.073.034-.144.076-.216.112-.18.09-.36.182-.536.284-.062.036-.122.077-.184.115-.184.113-.369.226-.549.351-.049.033-.1.07-.144.1-.192.137-.384.276-.571.424-.034.027-.067.056-.1.083-.2.161-.4.327-.593.5l-.06.054c-.207.186-.412.378-.612.575l-.021.022q-.318.314-.623.643h0a33.773,33.773,0,0,0-3.87,5.239c-1.794,2.926-3.57,6.079-7.141,7.037-3.611.969-7.094-2.114-9.362-5a.417.417,0,0,0-.372-.179.438.438,0,0,0-.475.139,10.585,10.585,0,0,0-1.632,2.4l0,.009c-.106.144-1.073.49-.984.709,4.623,11.352,14.392,13.182,21.556,8.6,1.266,7.716-3.692,13.322-4.216,21.949,15.761,6.263,18.487-1.516,31.395,1.924.415-4.591-.437-10.427-1.189-15.546a19.961,19.961,0,0,0,2.772-8.763,30.7,30.7,0,0,0-1-9.531A12.616,12.616,0,0,1,378.229,263.833Z" transform="translate(-335.319 -247.145)" fill="url(#linear-gradient-4)"/>
          <path id="Trazado_722996" data-name="Trazado 722996" d="M333.251,270.294a11.843,11.843,0,0,0,2.773,2.011,6.7,6.7,0,0,0,3.4-3.094c-.452-1.874-1.523-4.929-3.561-4.964a2.493,2.493,0,0,0-2.3-.739,1.3,1.3,0,0,0-1.164-.152,1,1,0,0,0-.662,1.04,4.058,4.058,0,0,0-.059,2.576,6.6,6.6,0,0,0,1.278,3C333.049,270.081,333.148,270.189,333.251,270.294Z" transform="translate(-331.492 -251.501)" fill="#ffae8a"/>
          <path id="Trazado_722997" data-name="Trazado 722997" d="M345.3,270.529a36.824,36.824,0,0,0,4.211-1.31,17.075,17.075,0,0,0,3.979-2.1,10.256,10.256,0,0,0,2.883-3.1,7.426,7.426,0,0,0,.916-4.4,6.783,6.783,0,0,0-3.152-5.655,12.2,12.2,0,0,0-7.444-1.52q-1.871.124-3.333.357a18,18,0,0,0-2.69.626q-1.229.4-2.494.883t-2.657,1.117a28.464,28.464,0,0,1-2.371-4.678,21.487,21.487,0,0,1-1.325-5.105q2.264-.957,4.187-1.667t3.771-1.191a32.523,32.523,0,0,1,3.712-.74q1.863-.258,4-.4,10.7-.711,16.459,3.785t6.325,12.966a15.262,15.262,0,0,1-1.124,7.328,18.974,18.974,0,0,1-3.537,5.384,22.964,22.964,0,0,1-4.455,3.7q-2.32,1.454-3.8,2.178l.54,8.113a35.463,35.463,0,0,1-5.937.933,28.651,28.651,0,0,1-5.652-.161Zm1.469,35.541a40.766,40.766,0,0,1-.967-6.472,42.4,42.4,0,0,1,.1-6.633,40.711,40.711,0,0,1,6.473-.968,42.337,42.337,0,0,1,6.632.1,41.8,41.8,0,0,1,.968,6.472,41.122,41.122,0,0,1-.1,6.633,41.913,41.913,0,0,1-6.472.968A41.254,41.254,0,0,1,346.767,306.07Z" transform="translate(-331.643 -241.542)" fill="#ffb41f"/>
          <path id="Trazado_722998" data-name="Trazado 722998" d="M378.684,310.568a11.859,11.859,0,0,0,3.4-.415,6.709,6.709,0,0,0,.383-4.579c-1.607-1.065-4.471-2.574-5.988-1.213a2.493,2.493,0,0,0-2.191,1.027,1.3,1.3,0,0,0-.956.681,1,1,0,0,0,.223,1.213,4.059,4.059,0,0,0,1.71,1.927,6.6,6.6,0,0,0,2.979,1.328C378.391,310.549,378.538,310.561,378.684,310.568Z" transform="translate(-350.61 -270.074)" fill="#ffae8a"/>
        </g>
      </g>
    </g>
  </g>
</svg>
