<svg xmlns="http://www.w3.org/2000/svg" width="74.633" height="53.431" viewBox="0 0 74.633 53.431">
  <g id="XMLID_1615_" transform="translate(0 -72.727)">
    <g id="XMLID_1616_" transform="translate(1.093 73.82)">
      <g id="XMLID_1617_">
        <rect id="XMLID_1618_" width="56.015" height="16.873" transform="translate(0 17.659)" fill="#fab03c"/>
        <path id="XMLID_1619_" d="M21.279,209.954a.248.248,0,0,0-.028.086.189.189,0,0,0,.029.013c7.01,2.8,15.983,4.337,25.267,4.337a77.7,77.7,0,0,0,16.967-1.8v5.657H7.5V201.37H63.515v3.583q-2.329,2.162-7.729,3.689a77.948,77.948,0,0,1-20.279,2.38,90.618,90.618,0,0,1-14.183-1.063A.42.42,0,0,0,21.279,209.954Z" transform="translate(-7.5 -183.711)" fill="#fd8f3e"/>
        <path id="XMLID_1620_" d="M79.946,168.734v9.122A4.34,4.34,0,0,1,77.8,181.6c-7.31,4.29-18.59,7.042-31.248,7.042-18.682,0-34.363-5.991-38.707-14.08a2.894,2.894,0,0,1-.341-1.37V155.053c0-1.9,2.379-3.646,6.344-5.01,5.137-1.767,12.934-2.893,21.664-2.893s16.53,1.127,21.665,2.895c3.965,1.363,6.342,3.108,6.342,5.009,0,4.366-12.539,7.9-28.008,7.9a88.3,88.3,0,0,1-13.9-1.041,1.8,1.8,0,0,0-.971,3.446c6.972,2.781,16.023,4.46,25.914,4.46,10.572,0,20.183-1.918,27.323-5.051A4.331,4.331,0,0,1,79.946,168.734Z" transform="translate(-7.5 -137.395)" fill="#f6cb43"/>
        <path id="XMLID_1621_" d="M94.349,150.045v3.14c0,2.313-2.4,4.106-7.146,5.331a60.716,60.716,0,0,1-14.52,1.563,60.716,60.716,0,0,1-14.52-1.563c-4.74-1.224-7.144-3.017-7.144-5.331v-3.141c5.137-1.767,12.934-2.893,21.664-2.893S89.214,148.277,94.349,150.045Z" transform="translate(-44.676 -137.395)" fill="#fab03c"/>
        <path id="XMLID_1622_" d="M434.145,269.8v9.122a4.346,4.346,0,0,1-2.157,3.746,44.849,44.849,0,0,1-9.848,4.137V267.994a50.827,50.827,0,0,0,5.943-2.157A4.328,4.328,0,0,1,434.145,269.8Z" transform="translate(-361.699 -238.466)" fill="#82807f"/>
        <ellipse id="XMLID_2255_" cx="1.949" cy="3.593" rx="1.949" ry="3.593" transform="translate(64.495 33.193)" fill="#565656"/>
        <g id="XMLID_1623_" transform="translate(8.093)">
          <path id="XMLID_1624_" d="M63.017,115.516v10.646c0,2.841,8.916,5.144,19.915,5.144s19.915-2.3,19.915-5.144V115.516Z" transform="translate(-63.017 -110.372)" fill="#f6cb43"/>
          <g id="XMLID_1625_">
            <ellipse id="XMLID_2253_" cx="19.915" cy="5.144" rx="19.915" ry="5.144" fill="#f8e98e"/>
          </g>
          <g id="XMLID_1626_" transform="translate(6.849 3.474)">
            <ellipse id="XMLID_2251_" cx="13.067" cy="1.927" rx="13.067" ry="1.927" fill="#fab03c"/>
          </g>
        </g>
      </g>
    </g>
    <g id="XMLID_1627_" transform="translate(0 72.727)">
      <path id="XMLID_1628_" d="M72.178,100.622a5.415,5.415,0,0,0-5.153-.425,53.067,53.067,0,0,1-8.822,2.916V91.479c0-2.538-2.8-4.736-8.093-6.373,0,0,0-6.218-.006-6.255-.124-2.756-4.74-4.257-8.624-5.032a1.1,1.1,0,1,0-.214,2.188c5.426,1.113,6.657,2.54,6.657,2.957,0,.357-.9,1.517-5.013,2.579A57.837,57.837,0,0,1,29.1,83.015a57.837,57.837,0,0,1-13.809-1.472c-4.113-1.062-5.013-2.222-5.013-2.579s.9-1.517,5.013-2.579A57.837,57.837,0,0,1,29.1,74.913c2.374,0,4.7.109,6.9.323a1.093,1.093,0,0,0,.211-2.176c-2.275-.221-4.668-.333-7.113-.333a60.037,60.037,0,0,0-14.356,1.541c-4.415,1.14-6.653,2.72-6.653,4.7v6.142C2.8,86.743,0,88.94,0,91.479v18.137A4,4,0,0,0,.471,111.5a20.011,20.011,0,0,0,7.658,7.34,1.093,1.093,0,1,0,1.121-1.877q-1-.6-1.894-1.238V106.39a1.093,1.093,0,0,0-2.187,0v7.556A13.792,13.792,0,0,1,2.4,110.468a1.81,1.81,0,0,1-.211-.853V91.479c0-1.059,1.581-2.643,5.906-4.077V89.61c0,1.976,2.238,3.556,6.653,4.7A60.045,60.045,0,0,0,29.1,95.847a60.037,60.037,0,0,0,14.356-1.541c4.415-1.14,6.653-2.72,6.653-4.7V87.4c4.328,1.435,5.906,3.021,5.906,4.077,0,1.848-4.133,3.638-7.672,4.61a1.093,1.093,0,1,0,.579,2.109A21.3,21.3,0,0,0,56.016,95.1v8.5q-1.805.371-3.685.657v-1.973a1.093,1.093,0,1,0-2.187,0v2.273c-1.834.224-3.709.386-5.612.484v-1.336a1.093,1.093,0,1,0-2.187,0v1.42q-1.1.028-2.2.03-1.639,0-3.262-.064v-.511a1.093,1.093,0,0,0-2.187,0v.4a66.918,66.918,0,0,1-20.06-4.206.649.649,0,0,1-.413-.834.668.668,0,0,1,.8-.517A90,90,0,0,0,29.1,100.476a88.193,88.193,0,0,0,15.038-1.218,1.093,1.093,0,1,0-.381-2.153A86,86,0,0,1,29.1,98.29a87.785,87.785,0,0,1-13.729-1.027,2.831,2.831,0,0,0-3.261,2.093c-.014.049-.023.1-.034.147a15.063,15.063,0,0,1-4.909-4.215A1.093,1.093,0,1,0,5.357,96.51c2.677,3.967,8.168,6.176,8.464,6.293h0c7.336,2.927,16.683,4.538,26.319,4.538a78.571,78.571,0,0,0,20.3-2.547V121.35a67.992,67.992,0,0,1-9.529,1.928v-8.733a1.093,1.093,0,1,0-2.187,0v8.99a83.8,83.8,0,0,1-8.584.437h-.118v-8.988a1.093,1.093,0,1,0-2.187,0v8.956a81.344,81.344,0,0,1-8.7-.7V113.97a1.093,1.093,0,0,0-2.187,0v8.942a64.406,64.406,0,0,1-8.7-2.046v-9.374a1.093,1.093,0,0,0-2.187,0v8.636q-1.216-.441-2.364-.928a1.093,1.093,0,0,0-.856,2.012c7.495,3.189,17.191,4.945,27.3,4.945,12.423,0,24.015-2.621,31.8-7.191a5.457,5.457,0,0,0,2.69-4.685V105.16A5.4,5.4,0,0,0,72.178,100.622ZM45.042,91.535V89.216a1.093,1.093,0,0,0-2.187,0V92.2a42.575,42.575,0,0,1-5.237.959V90.012a1.093,1.093,0,0,0-2.187,0v3.379c-1.673.147-3.431.235-5.237.261V89.877a1.093,1.093,0,1,0-2.187,0v3.776c-1.806-.025-3.564-.114-5.237-.261V89.275a1.093,1.093,0,0,0-2.187,0v3.886a42.577,42.577,0,0,1-5.237-.959V87.741a1.093,1.093,0,1,0-2.187,0v3.794c-2.308-.848-2.881-1.641-2.881-1.925V81.957a17.455,17.455,0,0,0,4.466,1.7A60.045,60.045,0,0,0,29.1,85.2,60.045,60.045,0,0,0,43.457,83.66a17.457,17.457,0,0,0,4.466-1.7V89.61C47.923,89.894,47.35,90.687,45.042,91.535Zm27.4,22.746a3.262,3.262,0,0,1-1.61,2.8,42.079,42.079,0,0,1-8.209,3.606V104.159A50.949,50.949,0,0,0,67.9,102.2a3.237,3.237,0,0,1,4.543,2.961v9.121Z" transform="translate(0 -72.727)"/>
      <path id="XMLID_1632_" d="M445.492,300.439c-1.734,0-3.042,2.015-3.042,4.687s1.308,4.686,3.042,4.686,3.042-2.015,3.042-4.686S447.227,300.439,445.492,300.439Zm0,7.187c-.2-.033-.858-.877-.858-2.5s.658-2.467.854-2.5c.2.033.858.877.858,2.5S445.69,307.593,445.494,307.626Z" transform="translate(-377.955 -267.246)"/>
      <path id="XMLID_1635_" d="M107.261,97.133c-2.858.421-4.761,1-4.761,2.444s1.9,2.023,4.761,2.444a76.966,76.966,0,0,0,18.8,0c2.858-.421,4.761-1,4.761-2.444s-1.9-2.023-4.761-2.444a76.966,76.966,0,0,0-18.8,0Zm20.048,2.444a54.316,54.316,0,0,1-10.649.833,54.316,54.316,0,0,1-10.649-.833,54.3,54.3,0,0,1,10.649-.833A54.315,54.315,0,0,1,127.309,99.577Z" transform="translate(-87.559 -93.083)"/>
    </g>
  </g>
</svg>
