<svg xmlns="http://www.w3.org/2000/svg" width="41.777" height="69" viewBox="0 0 41.777 69">
  <g id="Grupo_958667" data-name="Grupo 958667" transform="translate(-294.688 -3083)">
    <g id="barra" transform="translate(294.688 3083)">
      <path id="Trazado_723050" data-name="Trazado 723050" d="M97.521,354.02A2.021,2.021,0,0,1,95.5,352V330.582h4.043V352A2.021,2.021,0,0,1,97.521,354.02Zm0,0" transform="translate(-82.63 -286.031)" fill="#588aa3"/>
      <path id="Trazado_723051" data-name="Trazado 723051" d="M97.521,7.5a2.021,2.021,0,0,1,2.021,2.021V51.04H95.5V9.521A2.021,2.021,0,0,1,97.521,7.5Zm0,0" transform="translate(-82.63 -6.489)" fill="#d4e157"/>
      <path id="Trazado_723052" data-name="Trazado 723052" d="M186.521,354.02A2.021,2.021,0,0,1,184.5,352V330.582h4.043V352A2.021,2.021,0,0,1,186.521,354.02Zm0,0" transform="translate(-159.636 -286.031)" fill="#588aa3"/>
      <path id="Trazado_723053" data-name="Trazado 723053" d="M186.521,7.5a2.021,2.021,0,0,1,2.021,2.021V51.04H184.5V9.521A2.021,2.021,0,0,1,186.521,7.5Zm0,0" transform="translate(-159.636 -6.489)" fill="#ffd740"/>
      <path id="Trazado_723054" data-name="Trazado 723054" d="M9.521,354.02A2.021,2.021,0,0,1,7.5,352V330.582h4.043V352A2.021,2.021,0,0,1,9.521,354.02Zm0,0" transform="translate(-6.489 -286.031)" fill="#588aa3"/>
      <path id="Trazado_723055" data-name="Trazado 723055" d="M9.521,7.5a2.021,2.021,0,0,1,2.021,2.021V51.04H7.5V9.521A2.021,2.021,0,0,1,9.521,7.5Zm0,0" transform="translate(-6.489 -6.489)" fill="#26c6da"/>
      <path id="Trazado_723056" data-name="Trazado 723056" d="M274.521,354.02A2.021,2.021,0,0,1,272.5,352V330.582h4.043V352A2.021,2.021,0,0,1,274.521,354.02Zm0,0" transform="translate(-235.776 -286.031)" fill="#588aa3"/>
      <path id="Trazado_723057" data-name="Trazado 723057" d="M274.521,7.5a2.021,2.021,0,0,1,2.021,2.021V51.04H272.5V9.521A2.021,2.021,0,0,1,274.521,7.5Zm0,0" transform="translate(-235.776 -6.489)" fill="#f5f5f5"/>
      <path id="Trazado_723058" data-name="Trazado 723058" d="M91.032,0A3.036,3.036,0,0,0,88,3.032V65.968a3.032,3.032,0,0,0,6.064,0V51.707a1.011,1.011,0,0,0-2.021,0V65.968a1.011,1.011,0,0,1-2.021,0V45.562h2.021V47.47a1.011,1.011,0,0,0,2.021,0V3.032A3.036,3.036,0,0,0,91.032,0ZM90.021,43.54V3.032a1.011,1.011,0,0,1,2.021,0V43.54Zm0,0" transform="translate(-76.141)"/>
      <path id="Trazado_723059" data-name="Trazado 723059" d="M180.032,0A3.036,3.036,0,0,0,177,3.032V65.968a3.032,3.032,0,0,0,6.064,0V3.032A3.036,3.036,0,0,0,180.032,0Zm-1.011,3.032a1.011,1.011,0,0,1,2.021,0V43.54h-2.021Zm2.021,62.936a1.011,1.011,0,0,1-2.021,0V45.562h2.021Zm0,0" transform="translate(-153.146)"/>
      <path id="Trazado_723060" data-name="Trazado 723060" d="M3.032,0A3.036,3.036,0,0,0,0,3.032v14.15a1.011,1.011,0,0,0,2.021,0V3.032a1.011,1.011,0,0,1,2.021,0V43.54H2.021V21.519a1.011,1.011,0,0,0-2.021,0V65.968a3.032,3.032,0,0,0,6.064,0V3.032A3.036,3.036,0,0,0,3.032,0ZM4.043,65.968a1.011,1.011,0,0,1-2.021,0V45.562H4.043Zm0,0"/>
      <path id="Trazado_723061" data-name="Trazado 723061" d="M270.054,39.768a1.011,1.011,0,0,0,1.011-1.011V3.032a3.032,3.032,0,0,0-6.064,0V65.968a3.032,3.032,0,0,0,6.064,0V43.12a1.011,1.011,0,0,0-2.021,0v.421h-2.021V3.032a1.011,1.011,0,0,1,2.021,0V38.757a1.011,1.011,0,0,0,1.011,1.011Zm-1.011,5.794V65.968a1.011,1.011,0,0,1-2.021,0V45.562Zm0,0" transform="translate(-229.287)"/>
    </g>
  </g>
</svg>
