<svg xmlns="http://www.w3.org/2000/svg" width="190" height="161.512" viewBox="0 0 190 161.512"><g transform="translate(-494.317 -312.725)"><g transform="translate(506.058 327.099)"><path d="M659.685,465.808a119.724,119.724,0,0,0,7.774-42.8c0-55.88-37.095-101.18-82.852-101.18s-82.851,45.3-82.851,101.18a119.724,119.724,0,0,0,7.774,42.8Z" transform="translate(-501.756 -321.833)" fill="#462eb4"/></g><g transform="translate(542.953 362.561)"><path d="M532.765,452.425h77.464l7.571-89.847A16.859,16.859,0,0,0,601,344.3H542a16.861,16.861,0,0,0-16.8,18.276Z" transform="translate(-525.133 -344.302)" fill="#232122"/></g><g transform="translate(513.954 369.117)"><path d="M538.929,348.964c-8.417,10.52-34.716,73.785-31.97,80.652.983,2.459,1.6,2.964,6.313,4.91,12.1,5,37.755,12.765,37.755,12.765l-.7-81.145S542.149,344.94,538.929,348.964Z" transform="translate(-506.759 -348.456)" fill="#232122"/></g><g transform="translate(620.233 369.117)"><path d="M586.2,348.964c8.415,10.52,34.716,73.785,31.969,80.652-.983,2.459-1.6,2.964-6.311,4.91-12.1,5-37.756,12.765-37.756,12.765l.7-81.145S582.977,344.94,586.2,348.964Z" transform="translate(-574.1 -348.456)" fill="#232122"/></g><g transform="translate(557.609 338.716)"><path d="M534.42,348.963l31.939,42.3,31.478-42.3s-2.53-13.316-22.371-18.536-37.074,7.833-37.074,7.833Z" transform="translate(-534.42 -329.194)" fill="#161415"/></g><g transform="translate(540.925 405.042)"><rect width="96.784" height="63.12" fill="#707070"/></g><g transform="translate(567.341 314.563)"><path d="M571.814,367.6c-9.6,9.654-17.209,1.495-25.566-9.6s-7.347-27.914,2.257-37.568,24.164-8.486,32.521,2.607S581.418,357.945,571.814,367.6Z" transform="translate(-540.586 -313.889)" fill="#ff8860"/></g><g transform="translate(494.317 467.131)"><rect width="190" height="7.106" fill="#a8a8a8"/></g><g transform="translate(584.036 428.966)"><path d="M551.165,391.891a5.512,5.512,0,1,0,5.511-5.513A5.512,5.512,0,0,0,551.165,391.891Z" transform="translate(-551.165 -386.378)" fill="#bababa"/></g><g transform="translate(557.609 351.698)"><path d="M566.359,386.5a104.131,104.131,0,0,0-14.147-31.033c-5.295-7.781-12.776-18.052-12.776-18.052l-5.016,6.788Z" transform="translate(-534.42 -337.419)" fill="#3a3739"/></g><g transform="translate(589.317 351.698)"><path d="M554.511,386.5a104.132,104.132,0,0,1,14.147-31.033c5.3-7.781,12.777-18.052,12.777-18.052l5.014,6.788Z" transform="translate(-554.511 -337.419)" fill="#3a3739"/></g><g transform="translate(557.583 312.725)"><path d="M585.906,321.934c-6.562-6.021-12.26-9.209-19.537-9.209-8.128,0-13.439,3.188-20,9.209-13.088,12.01-11.939,36.552-11.939,36.552s8.126-5.524,12.234-6.788a70.365,70.365,0,0,1,38.948,0c4.108,1.264,12.465,6.788,12.465,6.788S598.995,333.944,585.906,321.934Z" transform="translate(-534.404 -312.725)" fill="#2b2b2b"/></g></g></svg>