<svg xmlns="http://www.w3.org/2000/svg" width="289.592" height="157.605" viewBox="0 0 289.592 157.605">
  <g id="Grupo_958492" data-name="Grupo 958492" transform="translate(-197.552 -540.138)">
    <g id="Grupo_958396" data-name="Grupo 958396" transform="translate(257.144 540.138)">
      <g id="Grupo_958391" data-name="Grupo 958391" transform="translate(0 0)">
        <g id="Grupo_958382" data-name="Grupo 958382" transform="translate(29.244 24.2)">
          <rect id="Rectángulo_340036" data-name="Rectángulo 340036" width="29.776" height="17.061" fill="#aeced3"/>
        </g>
        <g id="Grupo_958383" data-name="Grupo 958383" transform="translate(29.244 10.647)">
          <rect id="Rectángulo_340037" data-name="Rectángulo 340037" width="29.776" height="17.061" fill="#95b2b5"/>
        </g>
        <g id="Grupo_958384" data-name="Grupo 958384" transform="translate(23.821)">
          <path id="Trazado_722764" data-name="Trazado 722764" d="M3425.971,349.5h-34.136a3.243,3.243,0,0,0-3.243,3.243V373.7h40.623V352.743A3.243,3.243,0,0,0,3425.971,349.5Z" transform="translate(-3388.592 -349.5)" fill="#c6dfe5"/>
        </g>
        <g id="Grupo_958385" data-name="Grupo 958385" transform="translate(0 122.192)">
          <path id="Rectángulo_340038" data-name="Rectángulo 340038" d="M11.91,0H76.354a11.91,11.91,0,0,1,11.91,11.91v0a0,0,0,0,1,0,0H0a0,0,0,0,1,0,0v0A11.91,11.91,0,0,1,11.91,0Z" fill="#c6dfe5"/>
        </g>
        <g id="Grupo_958386" data-name="Grupo 958386" transform="translate(23.821 38.583)">
          <rect id="Rectángulo_340039" data-name="Rectángulo 340039" width="40.623" height="87.389" fill="#c6dfe5"/>
        </g>
        <g id="Grupo_958387" data-name="Grupo 958387" transform="translate(55.021 57.23)">
          <path id="Trazado_722765" data-name="Trazado 722765" d="M3711.113,923.8l-9.422,2.17s5.212,7.439,9.422,13.565Z" transform="translate(-3701.691 -923.803)" fill="#95b2b5"/>
        </g>
        <g id="Grupo_958388" data-name="Grupo 958388" transform="translate(52.533 44.132)">
          <path id="Trazado_722766" data-name="Trazado 722766" d="M3739.749,819.076a1.921,1.921,0,0,0,1.028-1.768l-.023-13.5a11.445,11.445,0,0,0-8.759-11.167,10.179,10.179,0,0,0-2.3-.274h-43.929a9.039,9.039,0,0,0-9.039,9.039h0a9.039,9.039,0,0,0,9.039,9.039h36.4v6.4a2.773,2.773,0,0,0,1.779,2.512,22,22,0,0,0,7.688,1.085C3736.157,820.436,3738.56,819.674,3739.749,819.076Z" transform="translate(-3676.723 -792.367)" fill="#c6dfe5"/>
        </g>
        <g id="Grupo_958389" data-name="Grupo 958389" transform="translate(32.717 110.989)">
          <ellipse id="Elipse_5628" data-name="Elipse 5628" cx="3.935" cy="3.935" rx="3.935" ry="3.935" transform="translate(0 7.27) rotate(-67.5)" fill="#95b2b5"/>
        </g>
        <g id="Grupo_958390" data-name="Grupo 958390" transform="translate(27.13 42.359)">
          <path id="Trazado_722767" data-name="Trazado 722767" d="M3422.677,811.907a.878.878,0,0,1-.878-.878v-35.57a.878.878,0,1,1,1.757,0v35.57A.878.878,0,0,1,3422.677,811.907Z" transform="translate(-3421.799 -774.58)" fill="#fff"/>
        </g>
      </g>
      <g id="Grupo_958395" data-name="Grupo 958395" transform="translate(91.062 8.054)">
        <g id="Grupo_958392" data-name="Grupo 958392" transform="translate(0 0.187)">
          <path id="Trazado_722768" data-name="Trazado 722768" d="M3870.621,620.47h2.865v5.549h5.135V620.47h2.867v14.053h-2.867v-6.135h-5.135v6.135h-2.865Z" transform="translate(-3870.621 -620.47)" fill="#5cbec6"/>
        </g>
        <g id="Grupo_958393" data-name="Grupo 958393" transform="translate(13.429 5.003)">
          <path id="Trazado_722769" data-name="Trazado 722769" d="M4005.379,678.038v-.069c0-1.232.4-2.67,2.751-4.47,1.106-.852,1.5-1.255,1.5-2.044a1.086,1.086,0,0,0-1.159-1.215c-.855,0-1.223.568-1.3,1.489h-1.779a2.864,2.864,0,0,1,3.145-2.928c1.969,0,2.989,1.178,2.989,2.649,0,1.177-.456,1.894-2.117,3.1a4.963,4.963,0,0,0-1.789,1.957h4.147l-.231,1.535Z" transform="translate(-4005.379 -668.801)" fill="#5cbec6"/>
        </g>
        <g id="Grupo_958394" data-name="Grupo 958394" transform="translate(21.37)">
          <path id="Trazado_722770" data-name="Trazado 722770" d="M4097.637,625.74c0,4.045-1.954,7.3-6.382,7.3-4.334,0-6.187-3.335-6.187-7.329,0-3.461,1.894-7.116,6.385-7.116C4095.7,618.593,4097.637,621.959,4097.637,625.74Zm-9.606-.021c0,2.8,1.118,5.039,3.343,5.039,2.444,0,3.325-2.077,3.325-5.016,0-2.588-.87-4.87-3.374-4.87C4089,620.873,4088.031,623.017,4088.031,625.72Z" transform="translate(-4085.068 -618.593)" fill="#5cbec6"/>
        </g>
      </g>
    </g>
    <g id="Grupo_958398" data-name="Grupo 958398" transform="translate(197.552 669.718)">
      <g id="Grupo_958397" data-name="Grupo 958397" transform="translate(0 0)">
        <path id="Trazado_722771" data-name="Trazado 722771" d="M1722.267,1649.211c51.889,2.126,39.735,7.258,14.959,9.621s-47.214,2.6-47.214,2.6,16.575,2.123,3.954,5.9-130.439,3.462-139.313-1.414c-4.411-2.424,7.741-8.092,7.741-8.092s-62.642-2.943-56.092-7.29S1670.378,1647.085,1722.267,1649.211Z" transform="translate(-1505.822 -1647.444)" fill="#98e0e5"/>
      </g>
    </g>
    <g id="Grupo_958409" data-name="Grupo 958409" transform="translate(225.608 554.861)">
      <g id="Grupo_958400" data-name="Grupo 958400" transform="translate(14.107 75.515)">
        <path id="Trazado_722773" data-name="Trazado 722773" d="M1210.974,1515.055l-8.681-.047,17.057-61.755,8.078,2.231Z" transform="translate(-1202.293 -1453.253)" fill="#d17a69"/>
      </g>
      <g id="Grupo_958408" data-name="Grupo 958408">
        <g id="Grupo_958401" data-name="Grupo 958401">
          <path id="Trazado_722774" data-name="Trazado 722774" d="M1122.08,957.853l-27.625-48.71a6.919,6.919,0,0,1,2.6-9.431l48.71-27.625a6.919,6.919,0,0,1,9.431,2.605l27.625,48.71a6.919,6.919,0,0,1-2.6,9.431l-48.71,27.625A6.919,6.919,0,0,1,1122.08,957.853Z" transform="translate(-1093.553 -871.185)" fill="#ffe164"/>
        </g>
        <g id="Grupo_958407" data-name="Grupo 958407" transform="translate(20.814 20.139)">
          <g id="Grupo_958402" data-name="Grupo 958402" transform="translate(18.249 18.248)">
            <circle id="Elipse_5629" data-name="Elipse 5629" cx="5.434" cy="5.434" r="5.434" transform="translate(0 1.59) rotate(-8.414)" fill="#434a59"/>
          </g>
          <g id="Grupo_958406" data-name="Grupo 958406">
            <g id="Grupo_958403" data-name="Grupo 958403" transform="translate(19.706)">
              <path id="Trazado_722775" data-name="Trazado 722775" d="M1408.88,1042.1a8.868,8.868,0,0,1,7.671,2.119l5.09-5.65,5.3-5.882a24.448,24.448,0,0,0-21.056-5.816l1.528,7.768Z" transform="translate(-1405.884 -1026.414)" fill="#434a59"/>
            </g>
            <g id="Grupo_958404" data-name="Grupo 958404" transform="translate(27.649 26.832)">
              <path id="Trazado_722776" data-name="Trazado 722776" d="M1487.405,1237.34l-7.631-2.092-7.332-2.01a8.891,8.891,0,0,1-5.336,5.876l2.809,7.121,2.885,7.315A24.376,24.376,0,0,0,1487.405,1237.34Z" transform="translate(-1467.106 -1233.237)" fill="#434a59"/>
            </g>
            <g id="Grupo_958405" data-name="Grupo 958405" transform="translate(0 17.935)">
              <path id="Trazado_722777" data-name="Trazado 722777" d="M1271.382,1176.6a8.891,8.891,0,0,1-1.563-7.782l-7.324-2.038-7.623-2.121a24.377,24.377,0,0,0,4.214,21.408l6.231-4.8Z" transform="translate(-1253.988 -1164.656)" fill="#434a59"/>
            </g>
          </g>
        </g>
      </g>
    </g>
    <g id="Grupo_958468" data-name="Grupo 958468" transform="translate(200.667 549.296)">
      <g id="Grupo_958410" data-name="Grupo 958410" transform="translate(214.604 2.441)">
        <path id="Trazado_722778" data-name="Trazado 722778" d="M1946.213,871.093l1.363.142a3.712,3.712,0,0,1,.665,1.756c.142,1.112.022,2.323-.7,2.6s-3.817-1.243-3.5-2.088S1944.1,871.595,1946.213,871.093Z" transform="translate(-1944.025 -871.093)" fill="#434a59"/>
      </g>
      <g id="Grupo_958412" data-name="Grupo 958412" transform="translate(204.133 143.892)">
        <g id="Grupo_958411" data-name="Grupo 958411">
          <path id="Trazado_722779" data-name="Trazado 722779" d="M1937.363,1961.4h-68.511c-1.264,0-6.554.35-5.367,1.119,1.1.714,8.676,1.119,9.94,1.119H1939.4c3.844,0,7.253-.5,5.995-1.119h0C1944.135,1961.9,1941.546,1961.4,1937.363,1961.4Z" transform="translate(-1863.313 -1961.396)" fill="#9dc0c9"/>
        </g>
      </g>
      <g id="Grupo_958413" data-name="Grupo 958413" transform="translate(183.844 17.937)">
        <path id="Trazado_722780" data-name="Trazado 722780" d="M1736.945,990.956s-10.98,23.216-12.514,26.521c-1.448,3.12-19.8,24.6-17.263,27.557s18.3-13.138,22.8-19.095,13.192-22.269,12.56-25.251S1738,988.448,1736.945,990.956Z" transform="translate(-1706.928 -990.53)" fill="#f27872"/>
      </g>
      <g id="Grupo_958438" data-name="Grupo 958438" transform="translate(0 66.362)">
        <g id="Grupo_958414" data-name="Grupo 958414" transform="translate(0 72.668)">
          <path id="Trazado_722781" data-name="Trazado 722781" d="M449.516,1923.919s22.887.748,23.969,5.034-142.111,6.012-179.945,2.5c-10.264-.953-2.072-6.476,62.985-6.476C386.46,1924.979,449.516,1923.919,449.516,1923.919Z" transform="translate(-289.852 -1923.919)" fill="#48ccb9"/>
        </g>
        <g id="Grupo_958436" data-name="Grupo 958436" transform="translate(153.713)">
          <g id="Grupo_958426" data-name="Grupo 958426">
            <g id="Grupo_958415" data-name="Grupo 958415" transform="translate(3.081 1.31)">
              <path id="Trazado_722782" data-name="Trazado 722782" d="M1498.426,1373.893H1606.7c1.7,0,3.081,16.7,3.081,37.3s-1.379,37.3-3.081,37.3H1498.426Z" transform="translate(-1498.426 -1373.893)" fill="#38404f"/>
            </g>
            <g id="Grupo_958417" data-name="Grupo 958417" transform="translate(110.042 0)">
              <g id="Grupo_958416" data-name="Grupo 958416">
                <path id="Trazado_722783" data-name="Trazado 722783" d="M2327.681,1428.882a79.235,79.235,0,0,1-1,8.136c-.394,2.019-.911,3.99-2.484,3.99a1.31,1.31,0,0,1-.634-2.456c.245-.527.987-2.77,1.624-11.375.5-6.812.781-15.61.781-24.774s-.277-17.962-.781-24.774c-.637-8.6-1.378-10.847-1.624-11.374a1.31,1.31,0,0,1,.634-2.456c1.574,0,2.09,1.971,2.484,3.99a79.226,79.226,0,0,1,1,8.136c.584,7.079.906,16.483.906,26.479S2328.265,1421.8,2327.681,1428.882Zm-3.484-62.464h0Z" transform="translate(-2322.887 -1363.798)" fill="#54678c"/>
              </g>
            </g>
            <g id="Grupo_958418" data-name="Grupo 958418" transform="translate(10.386 5.787)">
              <path id="Trazado_722784" data-name="Trazado 722784" d="M1580.57,1408.517c-10.979-.177-3.661.031-14.641-.006q-4.7-.016-9.39-.106a1.831,1.831,0,0,0-.076,3.658c10.995.225,20.917.062,24.031.112C1582.847,1412.214,1582.928,1408.555,1580.57,1408.517Z" transform="translate(-1554.733 -1408.404)" fill="#7194a5"/>
            </g>
            <g id="Grupo_958420" data-name="Grupo 958420" transform="translate(79.359 0)">
              <g id="Grupo_958419" data-name="Grupo 958419">
                <path id="Trazado_722785" data-name="Trazado 722785" d="M2091.177,1428.882a79.191,79.191,0,0,1-1,8.136c-.394,2.019-.911,3.99-2.484,3.99a1.31,1.31,0,0,1-.634-2.456c.245-.527.987-2.771,1.623-11.375.5-6.812.781-15.61.781-24.774s-.278-17.962-.781-24.774c-.636-8.6-1.378-10.847-1.623-11.374a1.31,1.31,0,0,1,.634-2.456c1.574,0,2.09,1.971,2.484,3.99a79.182,79.182,0,0,1,1,8.136c.585,7.079.907,16.483.907,26.479S2091.762,1421.8,2091.177,1428.882Zm-3.483-62.464h0Z" transform="translate(-2086.384 -1363.798)" fill="#54678c"/>
              </g>
            </g>
            <g id="Grupo_958422" data-name="Grupo 958422" transform="translate(48.676)">
              <g id="Grupo_958421" data-name="Grupo 958421">
                <path id="Trazado_722786" data-name="Trazado 722786" d="M1854.672,1375.921q-.165-1.99-.349-3.653c-.157-1.4-.325-2.63-.5-3.667-.049-.287-.1-.558-.148-.816-.4-2.019-.912-3.99-2.485-3.99a1.31,1.31,0,0,0-.633,2.456,10.594,10.594,0,0,1,.605,2.324c.162.88.34,2.068.523,3.664.165,1.438.332,3.21.494,5.387.5,6.813.782,15.61.782,24.774s-.277,17.962-.782,24.774c-.636,8.6-1.378,10.847-1.622,11.375a1.31,1.31,0,0,0,.633,2.456c1.573,0,2.09-1.971,2.485-3.99a79.432,79.432,0,0,0,1-8.135c.584-7.079.907-16.484.907-26.48S1855.256,1383,1854.672,1375.921Z" transform="translate(-1849.878 -1363.795)" fill="#54678c"/>
              </g>
            </g>
            <g id="Grupo_958424" data-name="Grupo 958424" transform="translate(17.994)">
              <g id="Grupo_958423" data-name="Grupo 958423">
                <path id="Trazado_722787" data-name="Trazado 722787" d="M1618.17,1375.921q-.165-1.983-.349-3.641c-.156-1.4-.322-2.623-.5-3.658-.052-.294-.1-.573-.154-.837-.394-2.019-.91-3.99-2.484-3.99a1.31,1.31,0,0,0-.634,2.456,10.573,10.573,0,0,1,.613,2.359c.16.883.338,2.069.521,3.661.163,1.432.329,3.193.489,5.355.5,6.813.782,15.61.782,24.774s-.277,17.962-.782,24.774c-.636,8.6-1.378,10.847-1.624,11.375a1.31,1.31,0,0,0,.634,2.456c1.573,0,2.09-1.971,2.484-3.99a79.081,79.081,0,0,0,1-8.135c.584-7.079.906-16.484.906-26.48S1618.754,1383,1618.17,1375.921Z" transform="translate(-1613.376 -1363.795)" fill="#54678c"/>
              </g>
            </g>
            <g id="Grupo_958425" data-name="Grupo 958425" transform="translate(0 1.31)">
              <ellipse id="Elipse_5630" data-name="Elipse 5630" cx="3.081" cy="37.295" rx="3.081" ry="37.295" fill="#54678c"/>
            </g>
          </g>
          <g id="Grupo_958435" data-name="Grupo 958435" transform="translate(29.439 3.248)">
            <g id="Grupo_958427" data-name="Grupo 958427" transform="translate(0 0)">
              <circle id="Elipse_5631" data-name="Elipse 5631" cx="19.485" cy="19.485" r="19.485" transform="translate(0 27.557) rotate(-45)" fill="#ff915a"/>
            </g>
            <g id="Grupo_958434" data-name="Grupo 958434" transform="translate(13.996 13.203)">
              <g id="Grupo_958433" data-name="Grupo 958433">
                <g id="Grupo_958428" data-name="Grupo 958428" transform="translate(10.263 10.263)">
                  <circle id="Elipse_5632" data-name="Elipse 5632" cx="3.195" cy="3.195" r="3.195" transform="translate(0 6.009) rotate(-70.11)" fill="#434a59"/>
                </g>
                <g id="Grupo_958432" data-name="Grupo 958432">
                  <g id="Grupo_958429" data-name="Grupo 958429" transform="translate(0 8.103)">
                    <path id="Trazado_722788" data-name="Trazado 722788" d="M1819.186,1561.708a5.216,5.216,0,0,1-.062-4.679l-4.025-1.947-4.191-2.027a14.375,14.375,0,0,0,.17,12.843l4.135-2.137Z" transform="translate(-1809.478 -1553.055)" fill="#434a59"/>
                  </g>
                  <g id="Grupo_958430" data-name="Grupo 958430" transform="translate(14.174)">
                    <path id="Trazado_722789" data-name="Trazado 722789" d="M1918.735,1490.6l.07,4.652.068,4.47a5.228,5.228,0,0,1,4.193,2.049l3.56-2.754,3.657-2.829A14.332,14.332,0,0,0,1918.735,1490.6Z" transform="translate(-1918.735 -1490.595)" fill="#434a59"/>
                  </g>
                  <g id="Grupo_958431" data-name="Grupo 958431" transform="translate(14.451 17.427)">
                    <path id="Trazado_722790" data-name="Trazado 722790" d="M1925,1624.92a5.229,5.229,0,0,1-4.137,2.159l.051,4.47.053,4.652a14.332,14.332,0,0,0,11.4-5.891l-3.731-2.731Z" transform="translate(-1920.867 -1624.92)" fill="#434a59"/>
                  </g>
                </g>
              </g>
            </g>
          </g>
        </g>
        <g id="Grupo_958437" data-name="Grupo 958437" transform="translate(144.818 66.29)">
          <path id="Trazado_722791" data-name="Trazado 722791" d="M1418.949,1874.759l-.856,7.533-.8,2.617h-11.172Z" transform="translate(-1406.117 -1874.759)" fill="#48ccb9"/>
        </g>
      </g>
      <g id="Grupo_958439" data-name="Grupo 958439" transform="translate(205.124 17.077)">
        <path id="Trazado_722792" data-name="Trazado 722792" d="M1870.95,1002.812l9.291,5.5s5.278-8.113,5.5-10.338-4.1-13.915-4.495-14.046-1.073.4-1.073.4a27.838,27.838,0,0,0-1.619,2.7C1877.115,989.761,1870.95,1002.812,1870.95,1002.812Z" transform="translate(-1870.95 -983.904)" fill="#5cbec6"/>
      </g>
      <g id="Grupo_958440" data-name="Grupo 958440" transform="translate(273.771 133.113)">
        <path id="Trazado_722793" data-name="Trazado 722793" d="M2403.306,1888.18c.332-1.217.953-1.969,1.037-3.084.006-.075-1.028-3.793-1.071-3.9-.183-.46.651-2.767,1.66-2.069,1.99,1.377,2.121-1.481,2.375-.668.754,2.421,4.021,7.978,3.257,8.593a37.867,37.867,0,0,1-6.231,3.224c-1.935.851-4.019.215-4.247-.141C2401.192,1888.475,2401.757,1889.789,2403.306,1888.18Z" transform="translate(-2400.086 -1878.31)" fill="#404859"/>
      </g>
      <g id="Grupo_958441" data-name="Grupo 958441" transform="translate(221.169 136.042)">
        <path id="Trazado_722794" data-name="Trazado 722794" d="M2000.021,1907.108c1.359-.6,1.532-1.806,2.111-2.954.039-.078.263-1.727.264-1.858.007-.569,1.651-2.08,2.417-.9,1.51,2.335,3.165-1.314,3.077-.339-.261,2.9,1.071,7.579-.01,7.9-2.3.676-13.047,1.462-13.251.333C1994.508,1908.615,1997.67,1908.138,2000.021,1907.108Z" transform="translate(-1994.626 -1900.893)" fill="#404859"/>
      </g>
      <g id="Grupo_958442" data-name="Grupo 958442" transform="translate(221.016 38.428)">
        <path id="Trazado_722795" data-name="Trazado 722795" d="M2040.223,1158.422a38.459,38.459,0,0,0-6.09-9.945c-12.6,4.332-25.258,12.446-28.4,16.439a9.476,9.476,0,0,1,.316,1.983c0,4.147-11.415,19.824-12.449,30.365-1.073,10.934,3.854,51.513,3.854,51.513h10.557l1.562-47.2,11.516-25.937s7.045,24.449,9.992,33.783c3.208,10.16,16.09,38.974,16.09,38.974l10.258-3.611s-9.113-30.883-11.226-43.21C2044.072,1189.14,2042.321,1163.856,2040.223,1158.422Z" transform="translate(-1993.448 -1148.477)" fill="#54678c"/>
      </g>
      <g id="Grupo_958443" data-name="Grupo 958443" transform="translate(213.564 8.231)">
        <path id="Trazado_722796" data-name="Trazado 722796" d="M1953.385,915.762c-1.72-.242-6.672.456-10.513,2.726-4.676,2.763-8.061,7.607-6.459,12.772,2.594,8.363,16.333,24.785,19.335,31.093,5.493-1.652,17.65-7.523,28.4-16.439C1977.6,934.451,1965.757,917.505,1953.385,915.762Z" transform="translate(-1936.009 -915.716)" fill="#5cbec6"/>
      </g>
      <g id="Grupo_958444" data-name="Grupo 958444" transform="translate(217.156 5.718)">
        <path id="Trazado_722797" data-name="Trazado 722797" d="M1964.628,896.348l4.961,4.352c.462.563,1.072,4.076-1.967,5.005-.412.126-1.693-1.436-1.921-2.224l-2-4.566Z" transform="translate(-1963.698 -896.348)" fill="#ff867a"/>
      </g>
      <g id="Grupo_958445" data-name="Grupo 958445" transform="translate(212.998 3.977)">
        <path id="Trazado_722798" data-name="Trazado 722798" d="M1934.747,883.389l2.668,2.025a2.043,2.043,0,0,1,.2,2.842,5.645,5.645,0,0,1-2,1.5c-.811.427-1.691-.026-2.37-1.006a11.134,11.134,0,0,1-1.526-3.468C1931.275,883.519,1932.912,882.2,1934.747,883.389Z" transform="translate(-1931.65 -882.932)" fill="#ff867a"/>
      </g>
      <g id="Grupo_958446" data-name="Grupo 958446" transform="translate(214.415 7.311)">
        <path id="Trazado_722799" data-name="Trazado 722799" d="M1942.566,910.155a7.356,7.356,0,0,0,1.826-1.524,2.079,2.079,0,0,1,.11,1.295C1944.3,910.515,1943.542,910.711,1942.566,910.155Z" transform="translate(-1942.566 -908.631)" fill="#fff"/>
      </g>
      <g id="Grupo_958447" data-name="Grupo 958447" transform="translate(217.057 3.83)">
        <path id="Trazado_722800" data-name="Trazado 722800" d="M1963,882.568c-.1-.338-.167-.863.406-.763.834.146,1.325,1.785.53,2.167C1963.344,884.255,1963.05,882.746,1963,882.568Z" transform="translate(-1962.932 -881.793)" fill="#ff867a"/>
      </g>
      <g id="Grupo_958449" data-name="Grupo 958449" transform="translate(214.177 7.536)">
        <g id="Grupo_958448" data-name="Grupo 958448" transform="translate(0)">
          <path id="Trazado_722801" data-name="Trazado 722801" d="M1941.491,910.373a1.306,1.306,0,0,1-.629.065c-.164-.022-.169.235-.006.258a1.47,1.47,0,0,0,.7-.072C1941.706,910.569,1941.647,910.318,1941.491,910.373Z" transform="translate(-1940.736 -910.365)" fill="#c66c67"/>
        </g>
      </g>
      <g id="Grupo_958450" data-name="Grupo 958450" transform="translate(214.686 8.33)">
        <path id="Trazado_722802" data-name="Trazado 722802" d="M1985.492,954.259s-14.8-16.234-17.37-19.967c-3.474-5.056-9.517-17.807-9.517-17.807a9.58,9.58,0,0,0-3.381.674s4.1,10.755,5.782,14.3l-8.375,4.42-5.786-13.942a6.864,6.864,0,0,0-2.187,2.994s6,14.786,7.973,18.043,10.643,20.045,10.643,20.045-.756.66,4.536.311S1985.492,954.259,1985.492,954.259Z" transform="translate(-1944.659 -916.484)" fill="#54678c"/>
      </g>
      <g id="Grupo_958451" data-name="Grupo 958451" transform="translate(215.552 9.488)">
        <path id="Trazado_722803" data-name="Trazado 722803" d="M1968.325,926.32s-.419,26.661-1.25,30.209c-.785,3.349-18.466,24.165-15.383,26.55s20.647-15.005,23.845-21.752,1.806-28.324.582-31.115S1968.849,923.65,1968.325,926.32Z" transform="translate(-1951.331 -925.408)" fill="#ff867a"/>
      </g>
      <g id="Grupo_958452" data-name="Grupo 958452" transform="translate(212.708 64.859)">
        <path id="Trazado_722804" data-name="Trazado 722804" d="M1935.208,1353.231a6.919,6.919,0,0,1,.185,2.516c-.118,2.134-2.021,6.582-3.717,6.036-1.1-.355-.031-4.637-.283-4.818-.314-.224-.156.97-1.409,1.5-.922.388-.553-.7-.151-1.148.2-.227.93-3.272,2.532-4.5C1933.544,1351.911,1934.787,1351.993,1935.208,1353.231Z" transform="translate(-1929.408 -1352.209)" fill="#ff867a"/>
      </g>
      <g id="Grupo_958453" data-name="Grupo 958453" transform="translate(216.74 2.989)">
        <path id="Trazado_722805" data-name="Trazado 722805" d="M1960.493,876l3,1.061.182-.939-2.678-.805Z" transform="translate(-1960.493 -875.317)" fill="#e7f2f2"/>
      </g>
      <g id="Grupo_958454" data-name="Grupo 958454" transform="translate(210.813)">
        <path id="Trazado_722806" data-name="Trazado 722806" d="M1915.512,858.748s-1.96-3.6.643-5.561c2.1-1.583,3.71-.743,4.868-.17a3.215,3.215,0,0,1,1.635,1.473l-1.729,1.617a33.943,33.943,0,0,1-3.917,2.865A2.145,2.145,0,0,1,1915.512,858.748Z" transform="translate(-1914.804 -852.275)" fill="#ffe164"/>
      </g>
      <g id="Grupo_958455" data-name="Grupo 958455" transform="translate(211.255 3.281)">
        <path id="Trazado_722807" data-name="Trazado 722807" d="M1918.476,880.76s-.856,1.947.5,1.969c1.219.02,4.547-3.964,4.717-4.156.347-.392.914-.955.784-1-.264-.1-3.969,2.546-4.3,2.727C1918.91,881,1918.476,880.76,1918.476,880.76Z" transform="translate(-1918.209 -877.568)" fill="#f2a25c"/>
      </g>
      <g id="Grupo_958456" data-name="Grupo 958456" transform="translate(212.11 0.161)">
        <path id="Trazado_722808" data-name="Trazado 722808" d="M1925.009,857.483a3.744,3.744,0,0,1,.9-2.673,4.225,4.225,0,0,1,2.453-1.292,4.088,4.088,0,0,0-1.778.325,3.641,3.641,0,0,0-1.692,1.877A2.893,2.893,0,0,0,1925.009,857.483Z" transform="translate(-1924.801 -853.515)" fill="#f2a25c"/>
      </g>
      <g id="Grupo_958457" data-name="Grupo 958457" transform="translate(231.47 9.148)">
        <path id="Trazado_722809" data-name="Trazado 722809" d="M2074.029,944.436l10.251.946s.436-12.723-.437-15.3-2.3-4.983-4.34-6.043-3.424-1.674-4.253-.912S2074.029,944.436,2074.029,944.436Z" transform="translate(-2074.029 -922.791)" fill="#5cbec6"/>
      </g>
      <g id="Grupo_958459" data-name="Grupo 958459" transform="translate(242.579 58.464)">
        <g id="Grupo_958458" data-name="Grupo 958458" transform="translate(0)">
          <path id="Trazado_722810" data-name="Trazado 722810" d="M2165.732,1310.475a.435.435,0,0,1-.383-.227,22.167,22.167,0,0,0-5.518-6.547.436.436,0,1,1,.518-.7,22.69,22.69,0,0,1,5.765,6.83.436.436,0,0,1-.382.646Z" transform="translate(-2159.654 -1302.914)" fill="#434a59"/>
        </g>
      </g>
      <g id="Grupo_958461" data-name="Grupo 958461" transform="translate(240.979 61.459)">
        <g id="Grupo_958460" data-name="Grupo 958460" transform="translate(0)">
          <path id="Trazado_722811" data-name="Trazado 722811" d="M2152.545,1326.992h-.011l-4.783-.118a.436.436,0,0,1,.021-.872l4.783.118a.436.436,0,0,1-.01.872Z" transform="translate(-2147.326 -1326.001)" fill="#434a59"/>
        </g>
      </g>
      <g id="Grupo_958463" data-name="Grupo 958463" transform="translate(241.023 16.181)">
        <g id="Grupo_958462" data-name="Grupo 958462">
          <path id="Trazado_722812" data-name="Trazado 722812" d="M2148.644,993.462h-.009a.262.262,0,0,1-.253-.27c.083-2.482-.711-15.778-.719-15.912a.262.262,0,1,1,.522-.031c.033.548.8,13.454.72,15.961A.262.262,0,0,1,2148.644,993.462Z" transform="translate(-2147.662 -977.002)" fill="#54678c"/>
        </g>
      </g>
      <g id="Grupo_958465" data-name="Grupo 958465" transform="translate(241.362 17.675)">
        <g id="Grupo_958464" data-name="Grupo 958464">
          <path id="Trazado_722813" data-name="Trazado 722813" d="M2150.537,993.562a.262.262,0,0,1-.253-.328l1.188-4.527a.262.262,0,0,1,.506.133l-1.188,4.527A.262.262,0,0,1,2150.537,993.562Z" transform="translate(-2150.275 -988.512)" fill="#54678c"/>
        </g>
      </g>
      <g id="Grupo_958467" data-name="Grupo 958467" transform="translate(217.893 7.625)">
        <g id="Grupo_958466" data-name="Grupo 958466" transform="translate(0)">
          <path id="Trazado_722814" data-name="Trazado 722814" d="M1969.548,913.749a.175.175,0,0,1-.1-.319,2.9,2.9,0,0,0,.938-1.17,2.291,2.291,0,0,0,.141-1.025.175.175,0,0,1,.348-.023,2.634,2.634,0,0,1-.167,1.181,3.207,3.207,0,0,1-1.065,1.327A.174.174,0,0,1,1969.548,913.749Z" transform="translate(-1969.373 -911.048)" fill="#c66c67"/>
        </g>
      </g>
    </g>
    <g id="Grupo_958491" data-name="Grupo 958491" transform="translate(294.011 626.9)">
      <g id="Grupo_958489" data-name="Grupo 958489">
        <g id="Grupo_958479" data-name="Grupo 958479">
          <g id="Grupo_958469" data-name="Grupo 958469" transform="translate(0.739 1.738)">
            <path id="Trazado_722815" data-name="Trazado 722815" d="M2679.941,1389.053v61.063c0,.959-9.417,1.737-21.034,1.737s-21.034-.778-21.034-1.737v-61.063Z" transform="translate(-2637.873 -1389.053)" fill="#434a59"/>
          </g>
          <g id="Grupo_958471" data-name="Grupo 958471" transform="translate(0 62.062)">
            <g id="Grupo_958470" data-name="Grupo 958470">
              <path id="Trazado_722816" data-name="Trazado 722816" d="M2639.019,1856.74a44.747,44.747,0,0,1-4.588-.564c-1.139-.222-2.25-.514-2.25-1.4a.739.739,0,0,1,1.385-.357c.3.138,1.562.556,6.415.916,3.842.284,8.8.441,13.972.441s10.13-.156,13.972-.441c4.853-.359,6.118-.777,6.415-.916a.739.739,0,0,1,1.385.357c0,.888-1.112,1.179-2.25,1.4a44.756,44.756,0,0,1-4.588.564c-3.993.33-9.3.511-14.934.511S2643.011,1857.069,2639.019,1856.74Zm35.229-1.965h0Z" transform="translate(-2632.18 -1854.036)" fill="#54678c"/>
            </g>
          </g>
          <g id="Grupo_958473" data-name="Grupo 958473" transform="translate(0 44.758)">
            <g id="Grupo_958472" data-name="Grupo 958472">
              <path id="Trazado_722817" data-name="Trazado 722817" d="M2639.019,1723.355a44.724,44.724,0,0,1-4.588-.563c-1.139-.222-2.25-.514-2.25-1.4a.739.739,0,0,1,1.385-.357c.3.138,1.563.557,6.415.916,3.842.284,8.8.441,13.972.441s10.13-.156,13.972-.441c4.852-.359,6.118-.777,6.415-.916a.739.739,0,0,1,1.385.357c0,.888-1.112,1.179-2.25,1.4a44.733,44.733,0,0,1-4.588.563c-3.993.33-9.3.511-14.934.511S2643.011,1723.685,2639.019,1723.355Zm35.229-1.965h0Z" transform="translate(-2632.18 -1720.652)" fill="#54678c"/>
            </g>
          </g>
          <g id="Grupo_958475" data-name="Grupo 958475" transform="translate(0 27.453)">
            <g id="Grupo_958474" data-name="Grupo 958474">
              <path id="Trazado_722818" data-name="Trazado 722818" d="M2639.019,1589.971a44.718,44.718,0,0,1-4.588-.563c-1.139-.222-2.25-.514-2.25-1.4a.739.739,0,0,1,1.385-.357c.3.138,1.563.557,6.415.916,3.842.284,8.8.441,13.972.441s10.13-.156,13.972-.441c4.852-.359,6.118-.777,6.415-.916a.739.739,0,0,1,1.385.357c0,.888-1.112,1.179-2.25,1.4a44.727,44.727,0,0,1-4.588.563c-3.993.33-9.3.511-14.934.511S2643.011,1590.3,2639.019,1589.971Zm35.229-1.965h0Z" transform="translate(-2632.18 -1587.268)" fill="#54678c"/>
            </g>
          </g>
          <g id="Grupo_958477" data-name="Grupo 958477" transform="translate(0 10.148)">
            <g id="Grupo_958476" data-name="Grupo 958476">
              <path id="Trazado_722819" data-name="Trazado 722819" d="M2639.019,1456.586a44.69,44.69,0,0,1-4.588-.563c-1.139-.222-2.25-.514-2.25-1.4a.739.739,0,0,1,1.385-.357c.3.138,1.563.557,6.415.916,3.842.284,8.8.441,13.972.441s10.13-.156,13.972-.441c4.852-.359,6.118-.777,6.415-.916a.739.739,0,0,1,1.385.357c0,.888-1.112,1.179-2.25,1.4a44.7,44.7,0,0,1-4.588.563c-3.993.33-9.3.512-14.934.512S2643.011,1456.916,2639.019,1456.586Zm35.229-1.965h0Z" transform="translate(-2632.18 -1453.883)" fill="#54678c"/>
            </g>
          </g>
          <g id="Grupo_958478" data-name="Grupo 958478" transform="translate(0.739)">
            <ellipse id="Elipse_5633" data-name="Elipse 5633" cx="21.034" cy="1.737" rx="21.034" ry="1.737" fill="#54678c"/>
          </g>
        </g>
        <g id="Grupo_958488" data-name="Grupo 958488" transform="translate(15.183 21.155)">
          <g id="Grupo_958480" data-name="Grupo 958480">
            <circle id="Elipse_5634" data-name="Elipse 5634" cx="10.99" cy="10.99" r="10.99" fill="#ff915a"/>
          </g>
          <g id="Grupo_958487" data-name="Grupo 958487" transform="translate(2.894 3.341)">
            <g id="Grupo_958486" data-name="Grupo 958486">
              <g id="Grupo_958481" data-name="Grupo 958481" transform="translate(6.293 6.294)">
                <path id="Trazado_722820" data-name="Trazado 722820" d="M2823.625,1614.773a1.8,1.8,0,1,1-1.825-1.778A1.8,1.8,0,0,1,2823.625,1614.773Z" transform="translate(-2820.022 -1612.995)" fill="#434a59"/>
              </g>
              <g id="Grupo_958485" data-name="Grupo 958485">
                <g id="Grupo_958482" data-name="Grupo 958482" transform="translate(4.378)">
                  <path id="Trazado_722821" data-name="Trazado 722821" d="M2807.621,1569.957a2.942,2.942,0,0,1,2.639-.035l1.1-2.27,1.143-2.363a8.108,8.108,0,0,0-7.243.1l1.205,2.332Z" transform="translate(-2805.258 -1564.481)" fill="#434a59"/>
                </g>
                <g id="Grupo_958483" data-name="Grupo 958483" transform="translate(9.89 7.994)">
                  <path id="Trazado_722822" data-name="Trazado 722822" d="M2854.049,1626.1l-2.624.04-2.521.038a2.949,2.949,0,0,1-1.156,2.365l1.553,2.008,1.6,2.063A8.084,8.084,0,0,0,2854.049,1626.1Z" transform="translate(-2847.749 -1626.1)" fill="#434a59"/>
                </g>
                <g id="Grupo_958484" data-name="Grupo 958484" transform="translate(0 8.15)">
                  <path id="Trazado_722823" data-name="Trazado 722823" d="M2777.877,1629.636a2.948,2.948,0,0,1-1.218-2.333l-2.521.029-2.624.03a8.083,8.083,0,0,0,3.322,6.427l1.541-2.1Z" transform="translate(-2771.515 -1627.303)" fill="#434a59"/>
                </g>
              </g>
            </g>
          </g>
        </g>
      </g>
      <g id="Grupo_958490" data-name="Grupo 958490" transform="translate(29.601 2.537)">
        <path id="Trazado_722824" data-name="Trazado 722824" d="M2860.348,1396.165v14.089a1.7,1.7,0,0,0,1.695,1.7,1.57,1.57,0,0,0,1.682-1.689V1403.8a1.659,1.659,0,0,1,1.809-1.809h0a2.268,2.268,0,0,0,2.268-2.268V1395.9a.686.686,0,0,0-.73-.685c-1.026.066-3.115.194-6.156.351A.6.6,0,0,0,2860.348,1396.165Z" transform="translate(-2860.348 -1395.215)" fill="#48ccb9"/>
      </g>
    </g>
  </g>
</svg>
