<svg xmlns="http://www.w3.org/2000/svg" xmlns:xlink="http://www.w3.org/1999/xlink" width="353.24" height="329.779" viewBox="0 0 353.24 329.779"><defs><linearGradient id="a" x1="0.087" y1="0.521" x2="1.244" y2="0.349" gradientUnits="objectBoundingBox"><stop offset="0.056" stop-color="#92a3b0"/><stop offset="1" stop-color="#fff"/></linearGradient><linearGradient id="b" x1="0.086" y1="0.52" x2="1.229" y2="0.351" xlink:href="#a"/><linearGradient id="c" x1="0.085" y1="0.518" x2="1.215" y2="0.353" xlink:href="#a"/><linearGradient id="d" x1="0.085" y1="0.517" x2="1.2" y2="0.355" xlink:href="#a"/><linearGradient id="e" x1="0.084" y1="0.516" x2="1.185" y2="0.357" xlink:href="#a"/><linearGradient id="f" x1="0.083" y1="0.515" x2="1.17" y2="0.359" xlink:href="#a"/><linearGradient id="g" x1="0.082" y1="0.514" x2="1.156" y2="0.361" xlink:href="#a"/><linearGradient id="h" x1="0.081" y1="0.513" x2="1.141" y2="0.363" xlink:href="#a"/><linearGradient id="i" x1="0.081" y1="0.512" x2="1.126" y2="0.365" xlink:href="#a"/><linearGradient id="j" x1="0.08" y1="0.51" x2="1.112" y2="0.367" xlink:href="#a"/><linearGradient id="k" x1="0.079" y1="0.509" x2="1.097" y2="0.369" xlink:href="#a"/><linearGradient id="l" x1="0.078" y1="0.508" x2="1.082" y2="0.371" xlink:href="#a"/><linearGradient id="m" x1="0.077" y1="0.507" x2="1.068" y2="0.373" xlink:href="#a"/><linearGradient id="n" x1="0.076" y1="0.505" x2="1.053" y2="0.374" xlink:href="#a"/><linearGradient id="o" x1="0.075" y1="0.504" x2="1.038" y2="0.376" xlink:href="#a"/><linearGradient id="p" x1="0.074" y1="0.503" x2="1.024" y2="0.378" xlink:href="#a"/><linearGradient id="q" x1="0.073" y1="0.502" x2="1.009" y2="0.38" xlink:href="#a"/><linearGradient id="r" x1="0.072" y1="0.501" x2="0.995" y2="0.382" xlink:href="#a"/><linearGradient id="s" x1="0.071" y1="0.5" x2="0.981" y2="0.385" xlink:href="#a"/><linearGradient id="t" x1="0.07" y1="0.499" x2="0.967" y2="0.387" xlink:href="#a"/><linearGradient id="u" x1="0.069" y1="0.499" x2="0.953" y2="0.39" xlink:href="#a"/><linearGradient id="v" x1="0.069" y1="0.499" x2="0.939" y2="0.393" xlink:href="#a"/><radialGradient id="w" cx="0.5" cy="0.5" r="0.31" gradientTransform="matrix(-1.221, -0.709, -1.221, 0.701, 407.572, 127.868)" xlink:href="#a"/></defs><g transform="translate(-236.761 -450.102)"><ellipse cx="176.62" cy="101.972" rx="176.62" ry="101.972" transform="translate(236.761 575.938)" fill="#bee7ed"/><g transform="translate(-87.34 351.508)"><g transform="translate(371.796 98.594)"><path d="M504.057,348.313,369.681,270.732c-5.306-3.064-4.641-8.415,1.487-11.953l76.261-44.028c6.127-3.538,15.4-3.922,20.7-.858l134.375,77.582c5.306,3.064,4.642,8.414-1.486,11.952L524.76,347.455C518.631,350.993,509.363,351.377,504.057,348.313Z" transform="translate(-366.099 -75.733)" fill="#92b4d1" opacity="0.2"/><path d="M504.057,344.023,369.681,266.442c-2.364-1.365-3.543-3.184-3.58-5.095,0-.061,0-6.6,0-6.657.042-2.322,1.758,1.71,5.067-.2l76.261-44.029c6.127-3.538,15.4-3.922,20.7-.858l134.375,77.582c1.772,1.023,3.056-3.318,3.516-1.939.154.46.055,6.55.066,7.027.05,2.379-1.667,4.9-5.067,6.863L524.76,343.165C518.631,346.7,509.363,347.087,504.057,344.023Z" transform="translate(-366.098 -76.599)" fill="#2672ab"/><path d="M504.057,338.587l-134.376-77.58c-5.306-3.065-4.641-8.416,1.487-11.953l76.261-44.029c6.127-3.537,15.4-3.922,20.7-.858l134.375,77.582c5.306,3.064,4.642,8.414-1.486,11.953L524.76,337.729C518.631,341.267,509.363,341.652,504.057,338.587Z" transform="translate(-366.099 -77.697)" fill="#d1ebff"/><path d="M480.882,322.337c5.306,3.065,14.576,2.68,20.7-.858v-6.534c-6.127,3.538-15.4,3.923-20.7.859Z" transform="translate(-342.924 -54.913)" fill="#3f92d1" opacity="0.5"/><path d="M504.057,329.631,369.682,252.049c-2.566-1.482-3.722-3.5-3.554-5.586a2.672,2.672,0,0,0-.028.367c0,.061,0,6.6,0,6.657.037,1.911,1.216,3.729,3.582,5.095l134.375,77.582Z" transform="translate(-366.098 -68.739)" fill="#3f92d1"/><path d="M601.02,283.671,524.758,327.7c-6.126,3.538-15.4,3.922-20.7.858L369.681,250.977c-2.2-1.27-3.359-2.936-3.541-4.7-.276,2.167.882,4.276,3.541,5.812l134.376,77.58c5.306,3.065,14.575,2.68,20.7-.858l76.262-44.028c3.585-2.071,5.285-4.76,5.028-7.25C605.774,279.69,604.076,281.907,601.02,283.671Z" transform="translate(-366.098 -68.777)" fill="#fff"/><path d="M463.574,299.941l-47.824-27.61c-.958-.554-.838-1.519.268-2.157l17.955-10.366a4.152,4.152,0,0,1,3.736-.155l47.824,27.611c.958.553.838,1.518-.268,2.156L467.31,299.786A4.148,4.148,0,0,1,463.574,299.941Z" transform="translate(-356.204 -66.152)" fill="#fff" opacity="0.3"/><path d="M416.017,271.307l17.955-10.366a4.152,4.152,0,0,1,3.736-.155L485.532,288.4a1.448,1.448,0,0,1,.442.388,1,1,0,0,0-.442-1.522l-47.824-27.611a4.152,4.152,0,0,0-3.736.155l-17.955,10.366c-.88.507-1.124,1.22-.71,1.769A2.093,2.093,0,0,1,416.017,271.307Z" transform="translate(-356.203 -66.152)" fill="#a8cff0"/><path d="M451.455,212.556l8.241,4.758a4.181,4.181,0,0,0,3.784.007,1.153,1.153,0,0,0-.012-2.185l-8.241-4.758a4.185,4.185,0,0,0-3.784-.007A1.153,1.153,0,0,0,451.455,212.556Zm14.111,8.148,3.9,2.254a4.184,4.184,0,0,0,3.784.007,1.153,1.153,0,0,0-.012-2.185l-3.9-2.254a4.181,4.181,0,0,0-3.784-.007A1.153,1.153,0,0,0,465.567,220.7Zm9.774,5.642,3.9,2.255a4.18,4.18,0,0,0,3.784.006,1.153,1.153,0,0,0-.012-2.184l-3.9-2.254a4.181,4.181,0,0,0-3.784-.007A1.152,1.152,0,0,0,475.341,226.346Zm9.773,5.643,3.9,2.255a4.181,4.181,0,0,0,3.784.006,1.153,1.153,0,0,0-.012-2.184l-3.9-2.255a4.187,4.187,0,0,0-3.785-.006A1.153,1.153,0,0,0,485.113,231.989Zm9.774,5.643,3.9,2.255a4.181,4.181,0,0,0,3.784.006,1.153,1.153,0,0,0-.011-2.184l-3.905-2.255a4.181,4.181,0,0,0-3.784-.006A1.153,1.153,0,0,0,494.887,237.632Zm9.774,5.643,3.9,2.255a4.181,4.181,0,0,0,3.784.006,1.153,1.153,0,0,0-.012-2.184l-3.9-2.255a4.181,4.181,0,0,0-3.784-.006A1.153,1.153,0,0,0,504.661,243.275Zm9.774,5.643,3.9,2.254a4.181,4.181,0,0,0,3.784.007,1.153,1.153,0,0,0-.012-2.184l-3.9-2.255a4.184,4.184,0,0,0-3.784-.007A1.153,1.153,0,0,0,514.435,248.918Zm9.773,5.643,3.905,2.254a4.181,4.181,0,0,0,3.784.007,1.154,1.154,0,0,0-.012-2.185l-3.9-2.254a4.184,4.184,0,0,0-3.784-.007A1.153,1.153,0,0,0,524.207,254.56Zm9.774,5.643,3.9,2.254a4.183,4.183,0,0,0,3.785.007,1.154,1.154,0,0,0-.012-2.185l-3.905-2.254a4.184,4.184,0,0,0-3.784-.007A1.154,1.154,0,0,0,533.981,260.2Zm9.774,5.643,3.9,2.254a4.181,4.181,0,0,0,3.784.007,1.153,1.153,0,0,0-.012-2.185l-3.9-2.254a4.181,4.181,0,0,0-3.784-.007A1.154,1.154,0,0,0,543.755,265.846Zm9.774,5.643,3.9,2.254a4.184,4.184,0,0,0,3.784.007,1.153,1.153,0,0,0-.012-2.185l-3.9-2.254a4.181,4.181,0,0,0-3.784-.007A1.153,1.153,0,0,0,553.529,271.489Zm9.774,5.643,3.9,2.254a4.181,4.181,0,0,0,3.784.006,1.153,1.153,0,0,0-.012-2.184l-3.9-2.254a4.181,4.181,0,0,0-3.784-.007A1.153,1.153,0,0,0,563.3,277.132Zm9.977,5.76,3.9,2.254a4.181,4.181,0,0,0,3.784.007,1.153,1.153,0,0,0-.012-2.184l-3.9-2.255a4.181,4.181,0,0,0-3.784-.006A1.152,1.152,0,0,0,573.28,282.892ZM442.664,217.934l3.38,1.952a4.757,4.757,0,0,0,4.306.007l3.359-1.939a1.313,1.313,0,0,0-.015-2.487l-3.38-1.951a4.761,4.761,0,0,0-4.306-.008l-3.358,1.94A1.312,1.312,0,0,0,442.664,217.934Zm17.46,7.6,3.358-1.939a1.312,1.312,0,0,0-.013-2.487l-3.38-1.951a4.761,4.761,0,0,0-4.306-.008l-3.358,1.94a1.312,1.312,0,0,0,.013,2.486l3.38,1.952A4.757,4.757,0,0,0,460.124,225.536Zm2.088,3.684,3.38,1.952a4.758,4.758,0,0,0,4.306.007l3.358-1.939a1.313,1.313,0,0,0-.013-2.487l-3.38-1.951a4.761,4.761,0,0,0-4.306-.008l-3.359,1.94A1.312,1.312,0,0,0,462.212,229.22Zm9.773,5.643,3.381,1.952a4.758,4.758,0,0,0,4.305.007l3.359-1.939a1.313,1.313,0,0,0-.013-2.487l-3.38-1.952a4.761,4.761,0,0,0-4.306-.007l-3.359,1.939A1.313,1.313,0,0,0,471.985,234.862Zm20.8,3.177-3.38-1.952a4.759,4.759,0,0,0-4.305-.007l-3.359,1.939a1.313,1.313,0,0,0,.013,2.487l3.38,1.952a4.761,4.761,0,0,0,4.306.007l3.359-1.939A1.313,1.313,0,0,0,492.79,238.039Zm9.774,5.643-3.38-1.952a4.757,4.757,0,0,0-4.306-.007l-3.358,1.939a1.313,1.313,0,0,0,.013,2.487l3.38,1.951a4.761,4.761,0,0,0,4.306.008l3.359-1.94A1.312,1.312,0,0,0,502.564,243.682Zm9.774,5.643-3.38-1.952a4.758,4.758,0,0,0-4.306-.007l-3.358,1.939a1.312,1.312,0,0,0,.013,2.487l3.38,1.951a4.761,4.761,0,0,0,4.306.008l3.358-1.94A1.312,1.312,0,0,0,512.337,249.325Zm9.774,5.643-3.38-1.952a4.757,4.757,0,0,0-4.306-.007l-3.359,1.939a1.313,1.313,0,0,0,.014,2.487l3.38,1.951a4.761,4.761,0,0,0,4.306.008l3.358-1.94A1.312,1.312,0,0,0,522.111,254.968Zm9.774,5.642-3.38-1.951a4.757,4.757,0,0,0-4.306-.007l-3.359,1.939a1.312,1.312,0,0,0,.013,2.486l3.38,1.952a4.761,4.761,0,0,0,4.306.008l3.359-1.94A1.313,1.313,0,0,0,531.885,260.61Zm9.773,5.643-3.38-1.951a4.761,4.761,0,0,0-4.306-.008l-3.358,1.94a1.312,1.312,0,0,0,.013,2.486l3.38,1.952a4.757,4.757,0,0,0,4.306.007l3.359-1.939A1.313,1.313,0,0,0,541.658,266.253Zm-1.257,8.109,3.38,1.952a4.758,4.758,0,0,0,4.306.007l3.358-1.939a1.312,1.312,0,0,0-.013-2.487l-3.38-1.951a4.761,4.761,0,0,0-4.306-.008l-3.358,1.94A1.312,1.312,0,0,0,540.4,274.362Zm20.8,3.177-3.38-1.951a4.761,4.761,0,0,0-4.306-.008l-3.359,1.94a1.312,1.312,0,0,0,.014,2.486l3.38,1.952a4.757,4.757,0,0,0,4.306.007l3.358-1.939A1.313,1.313,0,0,0,561.206,277.538ZM575.52,285.8l-7.717-4.457a4.758,4.758,0,0,0-4.306-.007l-3.359,1.939a1.313,1.313,0,0,0,.014,2.487l7.717,4.455a4.758,4.758,0,0,0,4.306.007l3.358-1.939A1.312,1.312,0,0,0,575.52,285.8ZM433.612,223.161l7.717,4.455a4.761,4.761,0,0,0,4.306.008l3.359-1.94a1.312,1.312,0,0,0-.013-2.486l-7.719-4.457a4.755,4.755,0,0,0-4.305-.007l-3.359,1.939A1.313,1.313,0,0,0,433.612,223.161Zm14.112,8.148,3.38,1.951a4.758,4.758,0,0,0,4.306.007l3.359-1.939a1.312,1.312,0,0,0-.015-2.486l-3.38-1.952a4.761,4.761,0,0,0-4.306-.008l-3.358,1.94A1.313,1.313,0,0,0,447.723,231.308Zm13.154,7.594a4.757,4.757,0,0,0,4.306.007l3.358-1.939a1.312,1.312,0,0,0-.013-2.486l-3.38-1.952a4.761,4.761,0,0,0-4.306-.008l-3.358,1.94a1.312,1.312,0,0,0,.013,2.486Zm9.774,5.643a4.757,4.757,0,0,0,4.306.007l3.358-1.939a1.313,1.313,0,0,0-.013-2.487l-3.38-1.951a4.761,4.761,0,0,0-4.306-.008l-3.359,1.94a1.312,1.312,0,0,0,.014,2.486Zm9.739-.734-3.359,1.94a1.312,1.312,0,0,0,.013,2.486l3.381,1.952a4.755,4.755,0,0,0,4.305.007l3.359-1.939a1.313,1.313,0,0,0-.013-2.487l-3.38-1.951A4.761,4.761,0,0,0,480.39,243.811Zm9.979,5.524-3.772,2.178a1.186,1.186,0,0,0,.012,2.246l3.8,2.192a4.3,4.3,0,0,0,3.892.006l3.773-2.178a1.186,1.186,0,0,0-.013-2.246l-3.794-2.191A4.3,4.3,0,0,0,490.369,249.335Zm9.774,5.643-3.771,2.178a1.186,1.186,0,0,0,.012,2.246l3.8,2.191a4.3,4.3,0,0,0,3.892.007l3.772-2.178a1.185,1.185,0,0,0-.012-2.246l-3.8-2.191A4.3,4.3,0,0,0,500.143,254.978Zm9.774,5.643-3.772,2.177a1.186,1.186,0,0,0,.012,2.248l3.8,2.191a4.3,4.3,0,0,0,3.892.007l3.772-2.178a1.185,1.185,0,0,0-.012-2.246l-3.8-2.191A4.3,4.3,0,0,0,509.917,260.62Zm9.774,5.643-3.772,2.177a1.186,1.186,0,0,0,.012,2.248l3.8,2.191a4.3,4.3,0,0,0,3.892.007l3.772-2.178a1.186,1.186,0,0,0-.012-2.246l-3.8-2.192A4.3,4.3,0,0,0,519.691,266.263Zm9.774,5.642-3.773,2.178a1.187,1.187,0,0,0,.012,2.248l3.8,2.191a4.3,4.3,0,0,0,3.893.007l3.772-2.178a1.186,1.186,0,0,0-.012-2.246l-3.8-2.192A4.3,4.3,0,0,0,529.465,271.905Zm13.7,12.267,3.773-2.178a1.187,1.187,0,0,0-.013-2.248l-3.8-2.191a4.3,4.3,0,0,0-3.892-.007l-3.772,2.178a1.187,1.187,0,0,0,.012,2.248l3.8,2.191A4.3,4.3,0,0,0,543.165,284.172Zm9.774,5.643,3.772-2.178a1.186,1.186,0,0,0-.012-2.248l-3.8-2.191a4.3,4.3,0,0,0-3.892-.007l-3.772,2.178a1.186,1.186,0,0,0,.012,2.248l3.8,2.191A4.3,4.3,0,0,0,552.939,289.815Zm13.737,1.335-3.8-2.191a4.3,4.3,0,0,0-3.892-.007l-3.772,2.178a1.185,1.185,0,0,0,.012,2.246l3.8,2.191a4.3,4.3,0,0,0,3.892.007l3.772-2.178A1.185,1.185,0,0,0,566.675,291.15ZM424.351,228.268l12.255,7.074a4.3,4.3,0,0,0,3.892.007l3.773-2.178a1.186,1.186,0,0,0-.013-2.246L432,223.849a4.3,4.3,0,0,0-3.892-.007l-3.773,2.178A1.186,1.186,0,0,0,424.351,228.268Zm18.233,10.526,3.8,2.191a4.3,4.3,0,0,0,3.892.007l3.772-2.178a1.186,1.186,0,0,0-.012-2.248l-3.8-2.191a4.3,4.3,0,0,0-3.892-.007l-3.772,2.178A1.186,1.186,0,0,0,442.584,238.794Zm9.774,5.643,3.8,2.191a4.3,4.3,0,0,0,3.892.007l3.772-2.178a1.187,1.187,0,0,0-.012-2.248l-3.8-2.191a4.3,4.3,0,0,0-3.892-.007l-3.772,2.178A1.186,1.186,0,0,0,452.358,244.437Zm9.774,5.643,3.8,2.191a4.3,4.3,0,0,0,3.892.007l3.772-2.178a1.186,1.186,0,0,0-.012-2.248l-3.8-2.191a4.3,4.3,0,0,0-3.892-.007l-3.773,2.178A1.187,1.187,0,0,0,462.132,250.08Zm17.46,7.841,3.773-2.178a1.187,1.187,0,0,0-.012-2.248l-3.8-2.191a4.3,4.3,0,0,0-3.893-.007l-3.772,2.178a1.186,1.186,0,0,0,.012,2.246l3.8,2.192A4.3,4.3,0,0,0,479.592,257.921Zm9.774,5.642,3.772-2.178a1.185,1.185,0,0,0-.012-2.246l-3.8-2.191a4.3,4.3,0,0,0-3.892-.007l-3.772,2.178a1.186,1.186,0,0,0,.012,2.246l3.8,2.192A4.3,4.3,0,0,0,489.366,263.563Zm9.774,5.643,3.772-2.178a1.185,1.185,0,0,0-.012-2.246l-3.8-2.191a4.3,4.3,0,0,0-3.892-.007l-3.772,2.178a1.185,1.185,0,0,0,.012,2.246l3.8,2.191A4.3,4.3,0,0,0,499.139,269.206Zm9.774,5.643,3.772-2.178a1.186,1.186,0,0,0-.012-2.246l-3.8-2.191a4.3,4.3,0,0,0-3.892-.007l-3.772,2.178a1.185,1.185,0,0,0,.012,2.246l3.8,2.191A4.3,4.3,0,0,0,508.913,274.849Zm9.774,5.643,3.772-2.178a1.186,1.186,0,0,0-.012-2.246l-3.8-2.192a4.3,4.3,0,0,0-3.892-.006l-3.773,2.177a1.187,1.187,0,0,0,.013,2.248l3.794,2.191A4.3,4.3,0,0,0,518.687,280.491Zm9.773,5.643,3.773-2.178a1.186,1.186,0,0,0-.013-2.248l-3.8-2.191a4.3,4.3,0,0,0-3.892-.007l-3.772,2.178a1.187,1.187,0,0,0,.012,2.248l3.8,2.191A4.3,4.3,0,0,0,528.46,286.134Zm2.086,3.445,3.8,2.191a4.3,4.3,0,0,0,3.892.007l3.772-2.178a1.186,1.186,0,0,0-.012-2.248l-3.8-2.191a4.3,4.3,0,0,0-3.892-.007l-3.772,2.178A1.187,1.187,0,0,0,530.546,289.579Zm27.077,6.8-9.651-5.572a4.3,4.3,0,0,0-3.892-.007l-3.772,2.178a1.186,1.186,0,0,0,.012,2.248l9.651,5.572a4.3,4.3,0,0,0,3.892.007l3.772-2.178A1.186,1.186,0,0,0,557.623,296.376ZM415.337,233.764,432.723,243.8a4.861,4.861,0,0,0,4.4.008l3.269-1.887c1.21-.7,1.2-1.835-.013-2.538l-17.388-10.038a4.86,4.86,0,0,0-4.4-.008l-3.269,1.887C414.112,231.925,414.119,233.061,415.337,233.764Zm23.871,13.782,3.29,1.9a4.861,4.861,0,0,0,4.4.008l3.269-1.887c1.21-.7,1.2-1.835-.014-2.538l-3.29-1.9a4.858,4.858,0,0,0-4.4-.008l-3.269,1.887C437.984,245.707,437.99,246.843,439.208,247.546Zm9.774,5.643,3.29,1.9a4.861,4.861,0,0,0,4.4.008l3.269-1.887c1.209-.7,1.2-1.835-.014-2.538l-3.29-1.9a4.853,4.853,0,0,0-4.4-.008l-3.268,1.887C447.758,251.349,447.764,252.486,448.982,253.189Zm9.774,5.643,3.29,1.9a4.861,4.861,0,0,0,4.4.008l3.268-1.888c1.21-.7,1.2-1.835-.013-2.537l-3.29-1.9a4.857,4.857,0,0,0-4.4-.007l-3.269,1.887C457.531,256.992,457.538,258.129,458.755,258.832Zm9.774,5.643,3.29,1.9a4.858,4.858,0,0,0,4.4.008l3.269-1.888c1.21-.7,1.2-1.835-.013-2.538l-3.29-1.9a4.857,4.857,0,0,0-4.4-.007l-3.269,1.887C467.3,262.635,467.311,263.772,468.529,264.475Zm9.773,5.643,3.29,1.9a4.857,4.857,0,0,0,4.4.007l3.269-1.887c1.21-.7,1.2-1.835-.014-2.538l-3.288-1.9a4.857,4.857,0,0,0-4.4-.007l-3.269,1.887C477.078,268.278,477.084,269.415,478.3,270.118Zm9.774,5.643,3.29,1.9a4.857,4.857,0,0,0,4.4.007l3.269-1.887c1.21-.7,1.2-1.835-.014-2.538l-3.29-1.9a4.858,4.858,0,0,0-4.4-.008l-3.269,1.888C486.852,273.921,486.858,275.058,488.076,275.761Zm9.774,5.643,3.29,1.9a4.857,4.857,0,0,0,4.4.007l3.268-1.887c1.21-.7,1.2-1.835-.013-2.538l-3.29-1.9a4.861,4.861,0,0,0-4.4-.008l-3.269,1.888C496.626,279.564,496.632,280.7,497.85,281.4Zm9.774,5.642,3.29,1.9a4.861,4.861,0,0,0,4.4.007l3.269-1.887c1.21-.7,1.2-1.835-.013-2.538l-3.29-1.9a4.86,4.86,0,0,0-4.4-.008l-3.269,1.887C506.4,285.207,506.4,286.342,507.624,287.045Zm9.773,5.643,3.29,1.9a4.86,4.86,0,0,0,4.4.008l3.269-1.887c1.21-.7,1.2-1.835-.013-2.538l-3.29-1.9a4.861,4.861,0,0,0-4.4-.008l-3.269,1.887C516.173,290.849,516.179,291.985,517.4,292.688Zm9.774,5.643,3.29,1.9a4.86,4.86,0,0,0,4.4.008l3.269-1.887c1.21-.7,1.2-1.835-.014-2.538l-3.29-1.9a4.858,4.858,0,0,0-4.4-.008l-3.269,1.887C525.947,296.492,525.953,297.628,527.17,298.331Zm20.932,3.25-3.29-1.9a4.861,4.861,0,0,0-4.4-.008l-3.269,1.887c-1.21.7-1.2,1.835.014,2.538l3.288,1.9a4.86,4.86,0,0,0,4.4.008l3.269-1.887C549.326,303.42,549.32,302.284,548.1,301.581Zm-126.54-62.6-7.627-4.4a4.86,4.86,0,0,0-4.4-.008l-3.268,1.888c-1.21.7-1.2,1.835.013,2.538l7.627,4.4a4.861,4.861,0,0,0,4.4.007l3.269-1.887C422.787,240.817,422.78,239.68,421.563,238.977Zm9.774,5.643-3.29-1.9a4.86,4.86,0,0,0-4.4-.008l-3.269,1.887c-1.209.7-1.2,1.835.014,2.538l3.29,1.9a4.861,4.861,0,0,0,4.4.008l3.268-1.887C432.56,246.458,432.554,245.323,431.336,244.62Zm9.774,5.643-3.29-1.9a4.86,4.86,0,0,0-4.4-.008l-3.269,1.887c-1.21.7-1.2,1.835.014,2.538l3.29,1.9a4.858,4.858,0,0,0,4.4.008l3.269-1.887C442.334,252.1,442.328,250.966,441.11,250.262Zm68.415,39.5-61.93-35.755a4.857,4.857,0,0,0-4.4-.008l-3.269,1.887c-1.21.7-1.2,1.835.013,2.538l61.932,35.755a4.857,4.857,0,0,0,4.4.008l3.269-1.887C510.75,291.6,510.744,290.465,509.525,289.762ZM519.3,295.4l-3.29-1.9a4.861,4.861,0,0,0-4.4-.008l-3.268,1.887c-1.21.7-1.2,1.835.013,2.538l3.29,1.9a4.86,4.86,0,0,0,4.4.008l3.269-1.887C520.522,297.244,520.516,296.108,519.3,295.4Zm9.774,5.643-3.29-1.9a4.86,4.86,0,0,0-4.4-.008l-3.269,1.887c-1.21.7-1.2,1.835.014,2.538l3.29,1.9a4.858,4.858,0,0,0,4.4.008l3.269-1.887C530.3,302.886,530.29,301.751,529.073,301.048Zm9.977,5.76-3.29-1.9a4.857,4.857,0,0,0-4.4-.007l-3.269,1.887c-1.21.7-1.2,1.835.014,2.538l3.29,1.9a4.858,4.858,0,0,0,4.4.008l3.269-1.888C540.273,308.647,540.267,307.51,539.05,306.807Z" transform="translate(-358.17 -76.117)" fill="#72b5e8"/><path d="M451.455,211.8l8.241,4.758a4.181,4.181,0,0,0,3.784.006,1.153,1.153,0,0,0-.012-2.184l-8.241-4.758a4.181,4.181,0,0,0-3.784-.007A1.153,1.153,0,0,0,451.455,211.8Zm14.111,8.146,3.9,2.255a4.181,4.181,0,0,0,3.784.006,1.153,1.153,0,0,0-.012-2.184l-3.9-2.255a4.181,4.181,0,0,0-3.784-.006A1.153,1.153,0,0,0,465.567,219.946Zm9.774,5.643,3.9,2.254a4.181,4.181,0,0,0,3.784.007,1.153,1.153,0,0,0-.012-2.184l-3.9-2.255a4.184,4.184,0,0,0-3.784-.007A1.153,1.153,0,0,0,475.341,225.589Zm9.773,5.643,3.9,2.254a4.181,4.181,0,0,0,3.784.007,1.154,1.154,0,0,0-.012-2.185l-3.9-2.254a4.187,4.187,0,0,0-3.785-.007A1.154,1.154,0,0,0,485.113,231.232Zm9.774,5.643,3.9,2.254a4.181,4.181,0,0,0,3.784.007,1.153,1.153,0,0,0-.011-2.185l-3.905-2.254a4.184,4.184,0,0,0-3.784-.007A1.154,1.154,0,0,0,494.887,236.875Zm9.774,5.643,3.9,2.254a4.181,4.181,0,0,0,3.784.007,1.153,1.153,0,0,0-.012-2.185l-3.9-2.254a4.181,4.181,0,0,0-3.784-.007A1.153,1.153,0,0,0,504.661,242.518Zm9.774,5.643,3.9,2.254a4.185,4.185,0,0,0,3.784.007,1.153,1.153,0,0,0-.012-2.185l-3.9-2.254a4.181,4.181,0,0,0-3.784-.007A1.153,1.153,0,0,0,514.435,248.161Zm9.773,5.643,3.905,2.254a4.181,4.181,0,0,0,3.784.006,1.153,1.153,0,0,0-.012-2.184l-3.9-2.254a4.181,4.181,0,0,0-3.784-.007A1.153,1.153,0,0,0,524.207,253.8Zm9.774,5.642,3.9,2.255a4.183,4.183,0,0,0,3.785.006,1.153,1.153,0,0,0-.012-2.184l-3.905-2.254a4.181,4.181,0,0,0-3.784-.007A1.153,1.153,0,0,0,533.981,259.445Zm9.774,5.643,3.9,2.255a4.181,4.181,0,0,0,3.784.006,1.152,1.152,0,0,0-.012-2.184l-3.9-2.255a4.181,4.181,0,0,0-3.784-.006A1.153,1.153,0,0,0,543.755,265.088Zm9.774,5.643,3.9,2.254a4.177,4.177,0,0,0,3.784.007,1.153,1.153,0,0,0-.012-2.184l-3.9-2.255a4.181,4.181,0,0,0-3.784-.006A1.153,1.153,0,0,0,553.529,270.731Zm9.774,5.643,3.9,2.254a4.181,4.181,0,0,0,3.784.007,1.153,1.153,0,0,0-.012-2.185l-3.9-2.254a4.184,4.184,0,0,0-3.784-.007A1.153,1.153,0,0,0,563.3,276.374Zm9.977,5.761,3.9,2.254a4.185,4.185,0,0,0,3.784.007,1.154,1.154,0,0,0-.012-2.185l-3.9-2.254a4.181,4.181,0,0,0-3.784-.007A1.153,1.153,0,0,0,573.28,282.135ZM442.664,217.177l3.38,1.951a4.757,4.757,0,0,0,4.306.008l3.359-1.939a1.313,1.313,0,0,0-.015-2.487l-3.38-1.952a4.758,4.758,0,0,0-4.306-.007l-3.358,1.939A1.313,1.313,0,0,0,442.664,217.177Zm17.46,7.6,3.358-1.94a1.312,1.312,0,0,0-.013-2.486l-3.38-1.952a4.757,4.757,0,0,0-4.306-.007l-3.358,1.939a1.312,1.312,0,0,0,.013,2.487l3.38,1.951A4.761,4.761,0,0,0,460.124,224.779Zm2.088,3.684,3.38,1.951a4.761,4.761,0,0,0,4.306.008l3.358-1.94a1.312,1.312,0,0,0-.013-2.486l-3.38-1.952a4.757,4.757,0,0,0-4.306-.007l-3.359,1.939A1.313,1.313,0,0,0,462.212,228.463Zm9.773,5.643,3.381,1.951a4.758,4.758,0,0,0,4.305.008l3.359-1.94a1.312,1.312,0,0,0-.013-2.486l-3.38-1.952a4.758,4.758,0,0,0-4.306-.007l-3.359,1.939A1.313,1.313,0,0,0,471.985,234.106Zm20.8,3.177-3.38-1.952a4.755,4.755,0,0,0-4.305-.007l-3.359,1.939a1.313,1.313,0,0,0,.013,2.487l3.38,1.951a4.761,4.761,0,0,0,4.306.008l3.359-1.94A1.312,1.312,0,0,0,492.79,237.282Zm9.774,5.642-3.38-1.951a4.761,4.761,0,0,0-4.306-.008l-3.358,1.94a1.312,1.312,0,0,0,.013,2.486l3.38,1.952a4.757,4.757,0,0,0,4.306.007l3.359-1.939A1.313,1.313,0,0,0,502.564,242.924Zm9.774,5.643-3.38-1.951a4.761,4.761,0,0,0-4.306-.008l-3.358,1.94a1.312,1.312,0,0,0,.013,2.486l3.38,1.952a4.757,4.757,0,0,0,4.306.007l3.358-1.939A1.312,1.312,0,0,0,512.337,248.567Zm9.774,5.643-3.38-1.951a4.761,4.761,0,0,0-4.306-.008l-3.359,1.94a1.312,1.312,0,0,0,.014,2.486l3.38,1.952a4.758,4.758,0,0,0,4.306.007l3.358-1.939A1.313,1.313,0,0,0,522.111,254.21Zm9.774,5.643-3.38-1.951a4.758,4.758,0,0,0-4.306-.008l-3.359,1.94a1.312,1.312,0,0,0,.013,2.485l3.38,1.952a4.757,4.757,0,0,0,4.306.007l3.359-1.939A1.313,1.313,0,0,0,531.885,259.853Zm9.773,5.643-3.38-1.952a4.761,4.761,0,0,0-4.306-.007l-3.358,1.939a1.313,1.313,0,0,0,.013,2.487l3.38,1.952a4.765,4.765,0,0,0,4.306.007l3.359-1.939A1.313,1.313,0,0,0,541.658,265.5ZM540.4,273.6l3.38,1.951a4.761,4.761,0,0,0,4.306.008l3.358-1.94a1.312,1.312,0,0,0-.013-2.486l-3.38-1.952a4.757,4.757,0,0,0-4.306-.007l-3.358,1.939A1.312,1.312,0,0,0,540.4,273.6Zm20.8,3.177-3.38-1.952a4.758,4.758,0,0,0-4.306-.007l-3.359,1.939a1.313,1.313,0,0,0,.014,2.487l3.38,1.951a4.761,4.761,0,0,0,4.306.008l3.358-1.94A1.312,1.312,0,0,0,561.206,276.781Zm14.315,8.264L567.8,280.59a4.761,4.761,0,0,0-4.306-.008l-3.359,1.94a1.312,1.312,0,0,0,.014,2.485l7.717,4.457a4.761,4.761,0,0,0,4.306.007l3.358-1.939A1.312,1.312,0,0,0,575.52,285.046ZM433.612,222.4l7.717,4.455a4.757,4.757,0,0,0,4.306.007l3.359-1.939a1.313,1.313,0,0,0-.013-2.487l-7.719-4.455a4.755,4.755,0,0,0-4.305-.007l-3.359,1.939A1.313,1.313,0,0,0,433.612,222.4Zm14.112,8.146,3.38,1.952a4.758,4.758,0,0,0,4.306.007l3.359-1.939a1.313,1.313,0,0,0-.015-2.487l-3.38-1.951a4.761,4.761,0,0,0-4.306-.008l-3.358,1.94A1.312,1.312,0,0,0,447.723,230.55Zm13.154,7.594a4.757,4.757,0,0,0,4.306.008l3.358-1.939a1.312,1.312,0,0,0-.013-2.487l-3.38-1.951a4.754,4.754,0,0,0-4.306-.008l-3.358,1.939a1.312,1.312,0,0,0,.013,2.487Zm9.774,5.643a4.761,4.761,0,0,0,4.306.008l3.358-1.94a1.312,1.312,0,0,0-.013-2.486l-3.38-1.952a4.758,4.758,0,0,0-4.306-.007l-3.359,1.939a1.313,1.313,0,0,0,.014,2.487Zm9.739-.733-3.359,1.939a1.313,1.313,0,0,0,.013,2.487l3.381,1.951a4.759,4.759,0,0,0,4.305.008l3.359-1.94a1.312,1.312,0,0,0-.013-2.486l-3.38-1.952A4.758,4.758,0,0,0,480.39,243.054Zm9.979,5.523-3.772,2.178A1.187,1.187,0,0,0,486.61,253l3.8,2.191a4.3,4.3,0,0,0,3.892.007l3.773-2.178a1.187,1.187,0,0,0-.013-2.248l-3.794-2.191A4.306,4.306,0,0,0,490.369,248.576Zm9.774,5.643-3.771,2.178a1.186,1.186,0,0,0,.012,2.248l3.8,2.191a4.3,4.3,0,0,0,3.892.007l3.772-2.178a1.186,1.186,0,0,0-.012-2.248l-3.8-2.191A4.3,4.3,0,0,0,500.143,254.219Zm9.774,5.643-3.772,2.178a1.186,1.186,0,0,0,.012,2.248l3.8,2.191a4.3,4.3,0,0,0,3.892.007l3.772-2.178a1.186,1.186,0,0,0-.012-2.247l-3.8-2.191A4.3,4.3,0,0,0,509.917,259.862Zm9.774,5.643-3.772,2.178a1.185,1.185,0,0,0,.012,2.246l3.8,2.192a4.3,4.3,0,0,0,3.892.007l3.772-2.178a1.187,1.187,0,0,0-.012-2.248l-3.8-2.191A4.3,4.3,0,0,0,519.691,265.505Zm9.774,5.643-3.773,2.178a1.186,1.186,0,0,0,.012,2.246l3.8,2.192a4.306,4.306,0,0,0,3.893.006l3.772-2.177a1.186,1.186,0,0,0-.012-2.248l-3.8-2.191A4.3,4.3,0,0,0,529.465,271.148Zm13.7,12.265,3.773-2.178a1.186,1.186,0,0,0-.013-2.246l-3.8-2.191a4.3,4.3,0,0,0-3.892-.007l-3.772,2.178a1.186,1.186,0,0,0,.012,2.246l3.8,2.191A4.3,4.3,0,0,0,543.165,283.414Zm9.774,5.643,3.772-2.178a1.185,1.185,0,0,0-.012-2.246l-3.8-2.191a4.3,4.3,0,0,0-3.892-.007l-3.772,2.178a1.186,1.186,0,0,0,.012,2.246l3.8,2.191A4.3,4.3,0,0,0,552.939,289.056Zm13.737,1.335-3.8-2.191a4.3,4.3,0,0,0-3.892-.007l-3.772,2.178a1.186,1.186,0,0,0,.012,2.248l3.8,2.191a4.3,4.3,0,0,0,3.892.007l3.772-2.178A1.186,1.186,0,0,0,566.675,290.392ZM424.351,227.51l12.255,7.076a4.3,4.3,0,0,0,3.892.006l3.773-2.177a1.187,1.187,0,0,0-.013-2.248L432,223.093a4.3,4.3,0,0,0-3.892-.007l-3.773,2.178A1.186,1.186,0,0,0,424.351,227.51Zm18.233,10.526,3.8,2.192a4.3,4.3,0,0,0,3.892.006l3.772-2.178a1.185,1.185,0,0,0-.012-2.246l-3.8-2.191a4.3,4.3,0,0,0-3.892-.007l-3.772,2.178A1.186,1.186,0,0,0,442.584,238.036Zm9.774,5.643,3.8,2.191a4.3,4.3,0,0,0,3.892.007l3.772-2.178a1.186,1.186,0,0,0-.012-2.246l-3.8-2.191a4.3,4.3,0,0,0-3.892-.007l-3.772,2.178A1.185,1.185,0,0,0,452.358,243.679Zm9.774,5.643,3.8,2.191a4.3,4.3,0,0,0,3.892.007l3.772-2.178a1.186,1.186,0,0,0-.012-2.246l-3.8-2.192a4.3,4.3,0,0,0-3.892-.006l-3.773,2.178A1.186,1.186,0,0,0,462.132,249.322Zm17.46,7.841,3.773-2.178a1.186,1.186,0,0,0-.012-2.246l-3.8-2.192a4.306,4.306,0,0,0-3.893-.006l-3.772,2.177a1.186,1.186,0,0,0,.012,2.248l3.8,2.191A4.3,4.3,0,0,0,479.592,257.163Zm9.774,5.643,3.772-2.178a1.185,1.185,0,0,0-.012-2.246l-3.8-2.192a4.3,4.3,0,0,0-3.892-.007l-3.772,2.178a1.187,1.187,0,0,0,.012,2.248l3.8,2.191A4.3,4.3,0,0,0,489.366,262.806Zm9.774,5.643,3.772-2.178a1.186,1.186,0,0,0-.012-2.248l-3.8-2.191a4.3,4.3,0,0,0-3.892-.007L491.44,264a1.186,1.186,0,0,0,.012,2.248l3.8,2.191A4.3,4.3,0,0,0,499.139,268.449Zm9.774,5.643,3.772-2.178a1.187,1.187,0,0,0-.012-2.248l-3.8-2.191a4.3,4.3,0,0,0-3.892-.007l-3.772,2.178a1.186,1.186,0,0,0,.012,2.248l3.8,2.191A4.3,4.3,0,0,0,508.913,274.092Zm9.774,5.643,3.772-2.178a1.187,1.187,0,0,0-.012-2.248l-3.8-2.191a4.3,4.3,0,0,0-3.892-.007l-3.773,2.178a1.186,1.186,0,0,0,.013,2.246l3.794,2.192A4.305,4.305,0,0,0,518.687,279.735Zm9.773,5.643,3.773-2.178a1.186,1.186,0,0,0-.013-2.247l-3.8-2.191a4.3,4.3,0,0,0-3.892-.007l-3.772,2.178a1.186,1.186,0,0,0,.012,2.246l3.8,2.192A4.307,4.307,0,0,0,528.46,285.377Zm2.086,3.443,3.8,2.192a4.3,4.3,0,0,0,3.892.006l3.772-2.177a1.186,1.186,0,0,0-.012-2.248l-3.8-2.191a4.3,4.3,0,0,0-3.892-.007l-3.772,2.178A1.186,1.186,0,0,0,530.546,288.821Zm27.077,6.8-9.651-5.572a4.3,4.3,0,0,0-3.892-.007l-3.772,2.178a1.185,1.185,0,0,0,.012,2.246l9.651,5.572a4.3,4.3,0,0,0,3.892.007l3.772-2.178A1.185,1.185,0,0,0,557.623,295.619ZM415.337,233.007l17.387,10.038a4.861,4.861,0,0,0,4.4.008l3.269-1.888c1.21-.7,1.2-1.834-.013-2.537l-17.388-10.039a4.857,4.857,0,0,0-4.4-.007l-3.269,1.887C414.112,231.167,414.119,232.3,415.337,233.007Zm23.871,13.782,3.29,1.9a4.861,4.861,0,0,0,4.4.008l3.269-1.888c1.21-.7,1.2-1.835-.014-2.538l-3.29-1.9a4.854,4.854,0,0,0-4.4-.007l-3.269,1.887C437.984,244.949,437.99,246.086,439.208,246.789Zm9.774,5.643,3.29,1.9a4.857,4.857,0,0,0,4.4.007l3.269-1.887c1.209-.7,1.2-1.835-.014-2.538l-3.29-1.9a4.86,4.86,0,0,0-4.4-.008l-3.268,1.888C447.758,250.592,447.764,251.729,448.982,252.432Zm9.774,5.643,3.29,1.9a4.857,4.857,0,0,0,4.4.007l3.268-1.887c1.21-.7,1.2-1.835-.013-2.538l-3.29-1.9a4.86,4.86,0,0,0-4.4-.008l-3.269,1.888C457.531,256.235,457.538,257.371,458.755,258.075Zm9.774,5.642,3.29,1.9a4.854,4.854,0,0,0,4.4.008l3.269-1.887c1.21-.7,1.2-1.835-.013-2.538l-3.29-1.9a4.86,4.86,0,0,0-4.4-.008l-3.269,1.888C467.3,261.878,467.311,263.014,468.529,263.717Zm9.773,5.643,3.29,1.9a4.861,4.861,0,0,0,4.4.008l3.269-1.887c1.21-.7,1.2-1.835-.014-2.538l-3.288-1.9a4.86,4.86,0,0,0-4.4-.008l-3.269,1.887C477.078,267.521,477.084,268.657,478.3,269.36ZM488.076,275l3.29,1.9a4.86,4.86,0,0,0,4.4.008l3.269-1.887c1.21-.7,1.2-1.835-.014-2.538l-3.29-1.9a4.858,4.858,0,0,0-4.4-.008l-3.269,1.887C486.852,273.164,486.858,274.3,488.076,275Zm9.774,5.643,3.29,1.9a4.86,4.86,0,0,0,4.4.008l3.268-1.887c1.21-.7,1.2-1.835-.013-2.538l-3.29-1.9a4.864,4.864,0,0,0-4.4-.007l-3.269,1.887C496.626,278.807,496.632,279.943,497.85,280.646Zm9.774,5.643,3.29,1.9a4.858,4.858,0,0,0,4.4.008l3.269-1.888c1.21-.7,1.2-1.834-.013-2.537l-3.29-1.9a4.857,4.857,0,0,0-4.4-.007l-3.269,1.887C506.4,284.448,506.4,285.585,507.624,286.289Zm9.773,5.643,3.29,1.9a4.86,4.86,0,0,0,4.4.008l3.269-1.888c1.21-.7,1.2-1.835-.013-2.537l-3.29-1.9a4.857,4.857,0,0,0-4.4-.007l-3.269,1.887C516.173,290.091,516.179,291.228,517.4,291.931Zm9.774,5.643,3.29,1.9a4.857,4.857,0,0,0,4.4.007l3.269-1.887c1.21-.7,1.2-1.835-.014-2.538l-3.29-1.9a4.854,4.854,0,0,0-4.4-.007l-3.269,1.887C525.947,295.734,525.953,296.871,527.17,297.574Zm20.932,3.249-3.29-1.9a4.857,4.857,0,0,0-4.4-.007l-3.269,1.887c-1.21.7-1.2,1.835.014,2.538l3.288,1.9a4.861,4.861,0,0,0,4.4.008l3.269-1.888C549.326,302.663,549.32,301.526,548.1,300.823Zm-126.54-62.6-7.627-4.4a4.861,4.861,0,0,0-4.4-.008l-3.268,1.887c-1.21.7-1.2,1.835.013,2.538l7.627,4.4a4.86,4.86,0,0,0,4.4.008l3.269-1.888C422.787,240.059,422.78,238.923,421.563,238.22Zm9.774,5.642-3.29-1.9a4.857,4.857,0,0,0-4.4-.007l-3.269,1.887c-1.209.7-1.2,1.835.014,2.538l3.29,1.9a4.86,4.86,0,0,0,4.4.008l3.268-1.888C432.56,245.7,432.554,244.566,431.336,243.861Zm9.774,5.643-3.29-1.9a4.857,4.857,0,0,0-4.4-.007l-3.269,1.887c-1.21.7-1.2,1.835.014,2.538l3.29,1.9a4.854,4.854,0,0,0,4.4.007l3.269-1.887C442.334,251.344,442.328,250.207,441.11,249.5ZM509.525,289l-61.93-35.757a4.861,4.861,0,0,0-4.4-.008l-3.269,1.888c-1.21.7-1.2,1.835.013,2.538l61.932,35.755a4.861,4.861,0,0,0,4.4.008l3.269-1.888C510.75,290.844,510.744,289.708,509.525,289Zm9.774,5.643-3.29-1.9a4.857,4.857,0,0,0-4.4-.007l-3.268,1.887c-1.21.7-1.2,1.835.013,2.538l3.29,1.9a4.86,4.86,0,0,0,4.4.008l3.269-1.888C520.522,296.487,520.516,295.35,519.3,294.648Zm9.774,5.642-3.29-1.9a4.857,4.857,0,0,0-4.4-.007l-3.269,1.887c-1.21.7-1.2,1.835.014,2.538l3.29,1.9a4.858,4.858,0,0,0,4.4.008l3.269-1.888C530.3,302.13,530.29,300.993,529.073,300.289Zm9.977,5.761-3.29-1.9a4.861,4.861,0,0,0-4.4-.008l-3.269,1.887c-1.21.7-1.2,1.835.014,2.538l3.29,1.9a4.858,4.858,0,0,0,4.4.008l3.269-1.887C540.273,307.889,540.267,306.753,539.05,306.05Z" transform="translate(-358.17 -76.27)" fill="#a8cff0"/><g transform="translate(95.731)"><path d="M584.3,301.385,454.825,226.59c-5.013-2.893-9.077-10.657-9.077-17.341V107.681c0-6.683,4.064-9.755,9.077-6.86L584.3,175.615c5.012,2.893,9.076,10.657,9.076,17.341V294.524C593.371,301.207,589.308,304.279,584.3,301.385Z" transform="translate(-445.748 -98.365)" fill="#a8cff0"/><path d="M584.608,295.182l-128.09-73.988c-4.034-2.564-6.529-7.686-6.529-12.928V106.206a1.61,1.61,0,0,1,2.423-1.386l.285.166,128.192,74.06c4.8,2.768,6.529,7.686,6.529,12.928V293.8a1.737,1.737,0,0,1-2.6,1.507Z" transform="translate(-444.892 -97.382)" fill="#03336e"/><path d="M580.889,179.045,452.7,104.986l-.285-.166a1.61,1.61,0,0,0-2.423,1.386V208.267c0,5.241,2.5,10.364,6.529,12.928l128.09,73.988.213.121a1.737,1.737,0,0,0,2.6-1.507V191.974C587.418,186.732,585.691,181.814,580.889,179.045ZM586.4,293.8a.722.722,0,0,1-.721.719.7.7,0,0,1-.352-.1l-128.3-74.106c-3.643-2.316-6.019-7.053-6.019-12.045V106.206a.592.592,0,0,1,.593-.589.583.583,0,0,1,.3.083l128.481,74.228c4.976,2.868,6.02,8.133,6.02,12.045Z" transform="translate(-444.892 -97.382)" fill="#022652"/><path d="M586.292,174.478,456.821,99.684a6.133,6.133,0,0,0-5.311-.78c-.19.073-2.72,1.418-2.9,1.517l-.008,0c1.547-.75,3.508-.611,5.646.625L583.72,175.845c5.012,2.893,9.076,10.657,9.076,17.341V294.754c0,4.171-1.583,6.934-3.991,7.72a1.511,1.511,0,0,0,.8-.27c.114-.066,2.86-1.617,2.971-1.692,1.724-1.208,2.8-3.689,2.8-7.124V191.819C595.367,185.136,591.3,177.373,586.292,174.478Z" transform="translate(-445.172 -98.594)" fill="#3f92d1"/><path d="M586.292,174.478,456.821,99.684a6.133,6.133,0,0,0-5.311-.78c-.19.073-2.72,1.418-2.9,1.517l-.008,0c1.547-.75,3.508-.611,5.646.625L583.72,175.845Z" transform="translate(-445.172 -98.594)" fill="#4f9fdb"/><path d="M584.052,175.432,454.58,100.638a6.02,6.02,0,0,0-5.466-.7,6.7,6.7,0,0,1,4.377,1.025l129.471,74.794c5.013,2.894,9.076,10.658,9.076,17.342V294.667c0,3.943-1.419,6.614-3.609,7.56,2.8-.444,4.7-3.321,4.7-7.886V192.774C593.127,186.09,589.063,178.326,584.052,175.432Z" transform="translate(-445.068 -98.4)" fill="#fff" style="mix-blend-mode:screen;isolation:isolate"/></g></g><path d="M595.177,177.351l-108.232-61.5c-.276,14.407-.026,59.553-.107,74.305-.131,23.885-3.7,42.7-31.279,64.282-8.773,6.868-47.485,27.956-78.9,44.462-12.744,6.7-13.711,9.523-20.156,14.981-6.244,5.29-15.823,10.207-18.625,11.84L445.4,387.89c2.01-1.191,12.469-6.439,19.337-12.256,6.445-5.459,7.412-11.28,20.156-17.977C516.3,341.15,570.12,308.1,579.674,302.366c12.257-7.353,15.393-11.984,15.393-31.322C595.066,256.21,594.893,191.493,595.177,177.351Z" transform="translate(0 3.484)" fill="#001a46" opacity="0.1"/><path d="M594.914,177.713l-108.232-61.5c-.276,6.892-.026,64.041-.107,78.793-.131,23.885-3.7,30.694-31.279,52.278-8.773,6.868-47.485,27.956-78.9,44.462-12.744,6.7-14.8,15.243-21.245,20.7-6.245,5.29-13.169,6.737-15.971,8.369L446.7,382.985c2.01-1.192,9.815-2.969,16.684-8.787,6.445-5.458,8.5-14,21.245-20.7,31.412-16.507,70.123-37.6,78.9-44.463,27.575-21.584,31.148-28.393,31.279-52.278C594.884,241.924,594.63,184.338,594.914,177.713Z" transform="translate(0.263 3.557)" fill="#fff"/><g transform="translate(364.265 167.456)"><path d="M404.955,265.02q-1.7.914-3.343,1.793l76.155,44.1q1.714-.909,3.4-1.8Z" transform="translate(-351.398 -133.854)" fill="#a8cff0"/><path d="M410.834,261.847q-1.68.91-3.332,1.8l76.228,44.1,3.388-1.812Z" transform="translate(-350.209 -134.495)" fill="#a8cff0"/><path d="M422.517,255.453q-1.648.91-3.3,1.821l76.389,44.1q1.706-.927,3.365-1.831Z" transform="translate(-347.844 -135.786)" fill="#a8cff0"/><path d="M416.688,258.659q-1.664.909-3.318,1.81l76.305,44.1q1.709-.918,3.379-1.82Z" transform="translate(-349.024 -135.138)" fill="#a8cff0"/><path d="M428.31,252.226q-1.626.912-3.284,1.835L501.5,298.169q1.705-.934,3.35-1.841Z" transform="translate(-346.67 -136.437)" fill="#a8cff0"/><path d="M382.621,264.157c-1.178.624-3.781,1.833-4.833,2.388l59.283,34.1c.989-.653,3.516-1.906,4.644-2.537Z" transform="translate(-356.208 -134.028)" fill="#0fbab8"/><path d="M375.205,267.8l-1.5.788c-.638.335-1.233.678-1.805,1.023l91.929,53.006q1.219-1.121,2.631-2.238Z" transform="translate(-357.397 -133.293)" fill="#a8cff0"/><path d="M423.655,241.642c-1.068.611-3.742,2.028-4.845,2.653l61.945,35.5c1.133-.629,3.838-2.048,4.923-2.655Z" transform="translate(-347.926 -138.574)" fill="#0fbab8"/><path d="M361.908,279.915c-.655.846-1.341,1.689-2.075,2.522l92.476,53.437c.5-.361.986-.74,1.466-1.147a14.41,14.41,0,0,0,1.151-1.1Z" transform="translate(-359.833 -130.847)" fill="#a8cff0"/><path d="M468.819,162.337,524.86,193.7c0-1.594,0-4.367-.006-5.9l-56.042-31.91v1.755C468.814,159.223,468.817,160.792,468.819,162.337Z" transform="translate(-337.83 -155.888)" fill="#0fbab8"/><path d="M468.826,168.386l91.39,51.449q0-1.125,0-2.26c0-.51,0-1,0-1.5L468.822,164.7Q468.824,166.583,468.826,168.386Z" transform="translate(-337.828 -154.109)" fill="#a8cff0"/><path d="M369.589,271.192a28.9,28.9,0,0,0-2.522,2.262L460,327.077c.671-.821,1.394-1.657,2.173-2.5Z" transform="translate(-358.372 -132.608)" fill="#a8cff0"/><path d="M365.361,275.36c-.685.846-1.337,1.7-1.984,2.573l93.164,53.8c.362-.476.728-.967,1.109-1.481.279-.374.565-.757.855-1.143Z" transform="translate(-359.117 -131.766)" fill="#a8cff0"/><path d="M463.934,207.429c-.528.917-1.1,1.827-1.72,2.736l93.638,53.168a30.129,30.129,0,0,0,1.756-2.775Z" transform="translate(-339.162 -145.482)" fill="#a8cff0"/><path d="M466.279,202.267c-.375,1.019-.793,2.017-1.25,3l93.558,53.063a27.4,27.4,0,0,0,1.025-3.19Z" transform="translate(-338.594 -146.524)" fill="#a8cff0"/><path d="M467.76,194.936c-.222,1.121-.472,4.238-.762,5.3L542.654,242.9c.162-1.133.287-4.335.379-5.582Z" transform="translate(-338.196 -148.004)" fill="#0fbab8"/><path d="M468.828,171.21c0,1.285,0,2.518,0,3.691l91.4,51.521q0-1.848,0-3.761Z" transform="translate(-337.827 -152.794)" fill="#a8cff0"/><path d="M468.828,177.724c0,1.375,0,2.617-.008,3.69l91.413,51.6q0-1.81,0-3.763Z" transform="translate(-337.828 -151.479)" fill="#a8cff0"/><path d="M468.8,184.218c-.025,1.25-.067,2.457-.121,3.631L560.256,239.6c0-1.139,0-2.4,0-3.762Z" transform="translate(-337.856 -150.168)" fill="#a8cff0"/><path d="M443.526,228.431q-1.327,1.06-2.727,2.161l92.06,52.546c1.186-.752,2.206-1.423,3.071-2.018Z" transform="translate(-343.486 -141.241)" fill="#a8cff0"/><path d="M438.675,232.183c-.888.614-1.9,1.285-3.007,2l91.526,52.29q1.711-1.017,3.215-1.931Z" transform="translate(-344.522 -140.484)" fill="#a8cff0"/><path d="M433.32,235.658q-1.5.925-3.15,1.917l91.277,52.2q1.7-.977,3.274-1.894Z" transform="translate(-345.632 -139.782)" fill="#a8cff0"/><path d="M460.78,212.141c-.66.838-1.349,1.677-2.093,2.525l93.361,53.07q1.229-1.273,2.267-2.484Z" transform="translate(-339.874 -144.53)" fill="#a8cff0"/><path d="M453.958,219.535c-.817.744-2.861,2.8-3.745,3.571l66.1,37.6c.94-.77,3.032-2.817,3.891-3.542Z" transform="translate(-341.585 -143.038)" fill="#0fbab8"/><path d="M448.234,224.577q-1.285,1.078-2.66,2.2l92.539,52.766c.953-.751,1.879-1.483,2.766-2.193Z" transform="translate(-342.522 -142.02)" fill="#a8cff0"/><g transform="translate(45.998 112.747)"><path d="M425.919,252.571a4.556,4.556,0,0,1-4.121-.007,1.256,1.256,0,0,1-.013-2.38,4.556,4.556,0,0,1,4.121.007A1.256,1.256,0,0,1,425.919,252.571Z" transform="translate(-393.494 -249.695)" fill="#0fbab8"/><path d="M420.211,255.717a4.559,4.559,0,0,1-4.123-.007,1.256,1.256,0,0,1-.012-2.38,4.556,4.556,0,0,1,4.121.007A1.256,1.256,0,0,1,420.211,255.717Z" transform="translate(-394.646 -249.06)" fill="#0fbab8"/><ellipse cx="1.683" cy="2.915" rx="1.683" ry="2.915" transform="matrix(0.005, -1, 1, 0.005, 13.713, 10.911)" fill="#0fbab8"/><path d="M408.794,262.009a4.553,4.553,0,0,1-4.121-.008,1.255,1.255,0,0,1-.013-2.379,4.553,4.553,0,0,1,4.121.007A1.256,1.256,0,0,1,408.794,262.009Z" transform="translate(-396.951 -247.79)" fill="#0fbab8"/><path d="M403.086,265.155a4.555,4.555,0,0,1-4.122-.008,1.256,1.256,0,0,1-.012-2.38,4.553,4.553,0,0,1,4.121.008A1.256,1.256,0,0,1,403.086,265.155Z" transform="translate(-398.104 -247.155)" fill="#0fbab8"/></g></g><g transform="translate(399.918 105.106)"><g transform="translate(58.052)"><path d="M437.8,259.062s41.643-1.207,57.268-9.019S518.5,219.395,518.5,207.976s1.8-39.062,1.8-39.062-19.831-6.01-39.663-22.836c-11.565-9.814-33.052-42.067-33.052-42.067V206.775C447.59,228.409,437.8,259.062,437.8,259.062Z" transform="translate(-437.797 -104.012)" opacity="0.1" fill="url(#a)" style="mix-blend-mode:multiply;isolation:isolate"/><path d="M437.8,258.73s40.72-1.442,56.01-9.172c15.6-7.953,23.165-30.432,23.165-41.634s1.769-39.287,1.769-39.287-19.455-5.207-38.912-21.715C468.484,137.3,447.4,105.655,447.4,105.655V207.434C447.4,228.658,437.8,258.73,437.8,258.73Z" transform="translate(-437.797 -103.68)" opacity="0.143" fill="url(#b)" style="mix-blend-mode:multiply;isolation:isolate"/><path d="M437.8,258.4s39.821-1.63,54.75-9.324c15.609-8.044,22.9-30.216,22.9-41.2s1.734-39.511,1.734-39.511-19.079-4.4-38.159-20.593c-11.126-9.441-31.8-40.472-31.8-40.472v100.8C447.219,228.908,437.8,258.4,437.8,258.4Z" transform="translate(-437.797 -103.349)" opacity="0.186" fill="url(#c)" style="mix-blend-mode:multiply;isolation:isolate"/><path d="M437.8,258.067s38.908-1.846,53.491-9.477c15.6-8.163,22.625-30,22.625-40.768s1.7-39.736,1.7-39.736-18.7-3.6-37.406-19.472c-10.908-9.255-31.173-39.674-31.173-39.674v99.813C447.034,229.157,437.8,258.067,437.8,258.067Z" transform="translate(-437.797 -103.017)" opacity="0.229" fill="url(#d)" style="mix-blend-mode:multiply;isolation:isolate"/><path d="M437.8,257.735s37.993-2.065,52.232-9.63c15.59-8.285,22.353-29.784,22.353-40.336s1.666-39.961,1.666-39.961-18.328-2.8-36.654-18.349c-10.689-9.07-30.546-38.877-30.546-38.877v98.83C446.847,229.407,437.8,257.735,437.8,257.735Z" transform="translate(-437.797 -102.685)" opacity="0.271" fill="url(#e)" style="mix-blend-mode:multiply;isolation:isolate"/><path d="M437.8,257.4s37.079-2.286,50.973-9.782c15.58-8.407,22.082-29.568,22.082-39.9s1.631-40.186,1.631-40.186-17.95-2-35.9-17.228c-10.469-8.883-29.919-38.079-29.919-38.079v97.847C446.662,229.657,437.8,257.4,437.8,257.4Z" transform="translate(-437.797 -102.354)" opacity="0.314" fill="url(#f)" style="mix-blend-mode:multiply;isolation:isolate"/><path d="M437.8,257.072s36.162-2.508,49.714-9.935c15.57-8.532,21.81-29.352,21.81-39.47s1.6-40.41,1.6-40.41-17.575-1.193-35.151-16.107c-10.25-8.7-29.293-37.281-29.293-37.281v96.864C446.476,229.905,437.8,257.072,437.8,257.072Z" transform="translate(-437.797 -102.022)" opacity="0.357" fill="url(#g)" style="mix-blend-mode:multiply;isolation:isolate"/><path d="M437.8,256.74S473.04,254,486.252,246.653c15.557-8.658,21.539-29.135,21.539-39.038s1.564-40.635,1.564-40.635-17.2-.392-34.4-14.984c-10.03-8.511-28.665-36.484-28.665-36.484v95.88C446.291,230.155,437.8,256.74,437.8,256.74Z" transform="translate(-437.797 -101.69)" opacity="0.4" fill="url(#h)" style="mix-blend-mode:multiply;isolation:isolate"/><path d="M437.8,256.409s34.325-2.964,47.2-10.24c15.545-8.788,21.269-28.919,21.269-38.605s1.53-40.859,1.53-40.859-16.824.41-33.647-13.864c-9.811-8.324-28.039-35.686-28.039-35.686v94.9C446.1,230.4,437.8,256.409,437.8,256.409Z" transform="translate(-437.797 -101.358)" opacity="0.443" fill="url(#i)" style="mix-blend-mode:multiply;isolation:isolate"/><path d="M437.8,256.077s33.4-3.195,45.937-10.393c15.53-8.921,21-28.7,21-38.172s1.5-41.083,1.5-41.083-16.447,1.213-32.895-12.743c-9.591-8.138-27.412-34.889-27.412-34.889v93.914C445.919,230.654,437.8,256.077,437.8,256.077Z" transform="translate(-437.797 -101.027)" opacity="0.486" fill="url(#j)" style="mix-blend-mode:multiply;isolation:isolate"/><path d="M437.8,255.745s32.483-3.429,44.677-10.545c15.515-9.055,20.727-28.486,20.727-37.74s1.46-41.308,1.46-41.308-16.071,2.016-32.142-11.621c-9.372-7.952-26.786-34.091-26.786-34.091v92.931C445.733,230.9,437.8,255.745,437.8,255.745Z" transform="translate(-437.797 -100.695)" opacity="0.529" fill="url(#k)" style="mix-blend-mode:multiply;isolation:isolate"/><path d="M437.8,255.414s31.56-3.665,43.417-10.7c15.5-9.192,20.456-28.271,20.456-37.307s1.427-41.533,1.427-41.533-15.7,2.818-31.391-10.5c-9.152-7.766-26.158-33.293-26.158-33.293v91.948C445.548,231.153,437.8,255.414,437.8,255.414Z" transform="translate(-437.797 -100.363)" opacity="0.571" fill="url(#l)" style="mix-blend-mode:multiply;isolation:isolate"/><path d="M437.8,255.082s30.635-3.9,42.159-10.851c15.478-9.333,20.183-28.055,20.183-36.874s1.393-41.758,1.393-41.758-15.32,3.62-30.638-9.377c-8.935-7.58-25.533-32.5-25.533-32.5v90.965C445.362,231.4,437.8,255.082,437.8,255.082Z" transform="translate(-437.797 -100.032)" opacity="0.614" fill="url(#m)" style="mix-blend-mode:multiply;isolation:isolate"/><path d="M437.8,254.75s29.71-4.144,40.9-11c15.458-9.476,19.913-27.838,19.913-36.442s1.359-41.982,1.359-41.982-14.943,4.423-29.886-8.256c-8.715-7.394-24.906-31.7-24.906-31.7v89.982C445.177,231.652,437.8,254.75,437.8,254.75Z" transform="translate(-437.797 -99.7)" opacity="0.657" fill="url(#n)" style="mix-blend-mode:multiply;isolation:isolate"/><path d="M437.8,254.418s28.783-4.387,39.641-11.156c15.435-9.622,19.641-27.622,19.641-36.009s1.324-42.207,1.324-42.207-14.567,5.226-29.134-7.134c-8.495-7.208-24.28-30.9-24.28-30.9v89C444.99,231.9,437.8,254.418,437.8,254.418Z" transform="translate(-437.797 -99.368)" opacity="0.7" fill="url(#o)" style="mix-blend-mode:multiply;isolation:isolate"/><path d="M437.8,254.087s27.854-4.632,38.382-11.309c15.41-9.773,19.371-27.406,19.371-35.576s1.29-42.432,1.29-42.432-14.191,6.029-28.382-6.013c-8.276-7.022-23.652-30.1-23.652-30.1V216.67C444.805,232.151,437.8,254.087,437.8,254.087Z" transform="translate(-437.797 -99.037)" opacity="0.743" fill="url(#p)" style="mix-blend-mode:multiply;isolation:isolate"/><path d="M437.8,253.755s26.924-4.88,37.122-11.461c15.382-9.928,19.1-27.189,19.1-35.144s1.256-42.657,1.256-42.657-13.816,6.832-27.63-4.891c-8.056-6.836-23.026-29.306-23.026-29.306v87.032C444.619,232.4,437.8,253.755,437.8,253.755Z" transform="translate(-437.797 -98.705)" opacity="0.786" fill="url(#q)" style="mix-blend-mode:multiply;isolation:isolate"/><path d="M437.8,253.423s25.992-5.129,35.864-11.614c15.351-10.085,18.829-26.973,18.829-34.711s1.221-42.88,1.221-42.88-13.438,7.632-26.878-3.77c-7.838-6.65-22.4-28.508-22.4-28.508v86.049C444.434,232.65,437.8,253.423,437.8,253.423Z" transform="translate(-437.797 -98.373)" opacity="0.829" fill="url(#r)" style="mix-blend-mode:multiply;isolation:isolate"/><path d="M437.8,253.092s25.06-5.38,34.6-11.767c15.317-10.249,18.559-26.758,18.559-34.278s1.187-43.1,1.187-43.1a22.286,22.286,0,0,1-26.127-2.649c-7.618-6.464-21.771-27.71-21.771-27.71v85.066C444.249,232.9,437.8,253.092,437.8,253.092Z" transform="translate(-437.797 -98.042)" opacity="0.871" fill="url(#s)" style="mix-blend-mode:multiply;isolation:isolate"/><path d="M437.8,252.76s24.125-5.633,33.344-11.919A42.077,42.077,0,0,0,489.428,207c0-7.305,1.154-43.33,1.154-43.33s-12.687,9.238-25.375-1.528c-7.4-6.278-21.145-26.912-21.145-26.912v84.083C444.063,233.149,437.8,252.76,437.8,252.76Z" transform="translate(-437.797 -97.71)" opacity="0.914" fill="url(#t)" style="mix-blend-mode:multiply;isolation:isolate"/><path d="M437.8,252.428s23.187-5.888,32.086-12.072A41.564,41.564,0,0,0,487.9,206.943c0-7.089,1.12-43.555,1.12-43.555s-12.312,10.041-24.623-.405c-7.179-6.092-20.518-26.115-20.518-26.115v83.1C443.877,233.4,437.8,252.428,437.8,252.428Z" transform="translate(-437.797 -97.378)" opacity="0.957" fill="url(#u)" style="mix-blend-mode:multiply;isolation:isolate"/><path d="M437.8,252.1s22.25-6.145,30.826-12.225a41.06,41.06,0,0,0,17.745-32.98c0-6.872,1.085-43.779,1.085-43.779s-11.935,10.844-23.871.716c-6.96-5.906-19.891-25.317-19.891-25.317v82.116C443.691,233.648,437.8,252.1,437.8,252.1Z" transform="translate(-437.797 -97.046)" fill="url(#v)" style="mix-blend-mode:multiply;isolation:isolate"/></g><path d="M487.828,172.374c-15.179-8.588-30.02-23.238-42.458-41.9l-.168-.1c-12.438,4.3-27.28,1.815-42.46-7.125l-.579-.341.819,28.362c2.881,43.964,17.876,63.1,42.01,103.975l.588.339c24.134-13.007,39.13-14.828,42.01-55.467l.82-27.417Z" transform="translate(-386.94 -100.197)" fill="#a8cff0"/><path d="M496.364,166.946c-15.18-8.588-30.02-23.236-42.46-41.9l-.168-.1c-12.437,4.3-27.278,1.815-42.458-7.125l-.581-.341-8.4,6.62.418.245c15.179,8.94,30.02,11.426,42.458,7.125l.168.1c12.439,18.666,27.278,33.316,42.46,41.9l.579.328-.82,27.417c-1.88,26.525-8.923,36.51-20.3,43.866,14.211-8.393,26.747-20.575,28.86-50.39l.82-27.415Z" transform="translate(-386.912 -101.293)" fill="#d1ebff"/><path d="M489.742,166.022l-.581-.329c-15.18-8.588-30.02-23.236-42.46-41.9l-.168-.1-8.561,6.524.168.1c12.438,18.666,27.278,33.315,42.46,41.9l.579.328Z" transform="translate(-379.71 -100.038)" fill="#d1ebff"/><path d="M477.468,165.434l-.82,27.417c-1.88,26.525-8.923,36.51-20.3,43.866,14.211-8.393,26.747-20.575,28.86-50.39l.82-27.415Z" transform="translate(-375.999 -92.928)" fill="#72b5e8"/><path d="M440.744,234.118c-18.735-31.076-28.158-46.711-30.431-80.819l-.518-17.9c12.029,5.439,23.561,7.173,33.95,5.1,10.387,14.063,21.919,25.645,33.949,34.1l-.518,17.307c-2.273,31.487-11.7,36.24-30.435,45.685q-1.471.743-3,1.516Z" transform="translate(-385.399 -97.676)" fill="#084c94"/><ellipse cx="25.962" cy="44.97" rx="25.962" ry="44.97" transform="translate(11.852 62.546) rotate(-30.311)" fill="url(#w)" style="mix-blend-mode:multiply;isolation:isolate"/><path d="M448.276,236.234c-.981.5-1.978,1-3,1.516q-1.531-2.54-3-4.984c-18.735-31.078-28.159-46.712-30.432-80.821l-.458-15.858c-.531-.227-1.061-.452-1.594-.692l.518,17.9c2.273,34.109,11.7,49.743,30.431,80.819l3,4.985q1.527-.775,3-1.516c7.645-3.853,13.738-6.928,18.429-11.353C460.708,229.96,455.115,232.786,448.276,236.234Z" transform="translate(-385.399 -97.676)" fill="#001a46"/><path d="M488.275,171.867c-15.18-8.589-30.021-23.238-42.46-41.9l-.168-.1c-12.438,4.3-27.278,1.815-42.458-7.125l-.554.587c15.152,8.9,29.965,11.375,42.381,7.079l.168.1c12.438,18.666,27.28,33.315,42.458,41.9l.581.328-.82,27.417c-1.56,22.012-6.677,32.633-14.871,39.814,8.565-7.19,13.9-17.785,15.5-40.355l.82-27.417Z" transform="translate(-386.844 -100.23)" fill="#fff"/><g transform="translate(0 42.392)"><path d="M390.1,168.98a.6.6,0,0,1-.6-.6q0-1.239.057-2.43a.6.6,0,1,1,1.2.055q-.052,1.165-.054,2.375A.6.6,0,0,1,390.1,168.98Zm.358-6a.53.53,0,0,1-.076,0,.6.6,0,0,1-.522-.669q.153-1.237.371-2.411a.6.6,0,0,1,1.181.22q-.211,1.139-.361,2.339A.6.6,0,0,1,390.456,162.985Zm1.192-5.88a.588.588,0,0,1-.168-.024.6.6,0,0,1-.409-.745c.231-.791.49-1.573.769-2.322a.6.6,0,0,1,1.127.421c-.27.721-.52,1.475-.742,2.238A.6.6,0,0,1,391.648,157.1Zm2.232-5.566a.6.6,0,0,1-.53-.883c.387-.726.81-1.437,1.258-2.113a.6.6,0,0,1,1,.665c-.428.644-.831,1.321-1.2,2.013A.6.6,0,0,1,393.88,151.539Zm3.46-4.887a.593.593,0,0,1-.41-.162.6.6,0,0,1-.029-.85,20.8,20.8,0,0,1,1.794-1.7.6.6,0,0,1,.773.921,19.425,19.425,0,0,0-1.689,1.6A.6.6,0,0,1,397.341,146.652Zm4.7-3.7a.6.6,0,0,1-.3-1.125,20.256,20.256,0,0,1,2.229-1.077.6.6,0,0,1,.456,1.113,18.6,18.6,0,0,0-2.095,1.012A.593.593,0,0,1,402.04,142.949Zm5.6-2.1a.6.6,0,0,1-.124-1.189,22.8,22.8,0,0,1,2.439-.379.622.622,0,0,1,.656.537.6.6,0,0,1-.537.659,21.7,21.7,0,0,0-2.309.358A.63.63,0,0,1,407.64,140.852Z" transform="translate(-389.497 -139.282)" fill="#a8cff0"/></g><g transform="translate(6.549 100.001)"><path d="M413.013,215.588a.6.6,0,0,1-.442-.195q-.815-.889-1.612-1.8a.6.6,0,1,1,.905-.791q.788.9,1.592,1.78a.6.6,0,0,1-.037.85A.6.6,0,0,1,413.013,215.588Zm-3.911-4.558a.6.6,0,0,1-.469-.225q-.755-.941-1.49-1.9a.6.6,0,0,1,.956-.731q.727.954,1.471,1.883a.6.6,0,0,1-.468.977Zm-3.608-4.8a.6.6,0,0,1-.493-.255q-.692-.988-1.367-2a.6.6,0,0,1,1-.668q.664,1,1.351,1.972a.6.6,0,0,1-.147.837A.593.593,0,0,1,405.494,206.227Zm-3.3-5.019a.6.6,0,0,1-.512-.285q-.635-1.029-1.243-2.074a.6.6,0,0,1,1.04-.6q.6,1.031,1.226,2.048a.6.6,0,0,1-.511.916Zm-3-5.209a.6.6,0,0,1-.53-.319q-.568-1.067-1.114-2.145a.6.6,0,1,1,1.073-.541q.537,1.065,1.1,2.12a.6.6,0,0,1-.531.885Zm-2.672-5.385a.6.6,0,0,1-.546-.35q-.507-1.1-.982-2.212a.6.6,0,0,1,1.106-.474q.469,1.1.968,2.184a.6.6,0,0,1-.546.851Z" transform="translate(-394.946 -187.215)" fill="#a8cff0"/></g><g transform="translate(10.18 55.289)"><path d="M428.483,224.645c-16.827-9.716-30.516-33.33-30.516-52.64,0-9.445,3.225-16.508,9.083-19.89,5.907-3.411,13.733-2.65,22.034,2.142a49.291,49.291,0,0,1,8.165,5.978l-.8.9a48.094,48.094,0,0,0-7.965-5.833c-7.912-4.568-15.31-5.329-20.833-2.142-5.469,3.159-8.482,9.853-8.482,18.849,0,18.928,13.42,42.074,29.915,51.6Z" transform="translate(-397.967 -150.014)" fill="#f76195"/></g><path d="M425.784,213.026c-.047.989-.726,1.421-1.517.964a3.107,3.107,0,0,1-1.346-2.617c.048-.988.726-1.419,1.517-.963A3.1,3.1,0,0,1,425.784,213.026Z" transform="translate(-382.749 -82.567)" fill="#eb4680"/><g transform="translate(45.558 62.342)"><path d="M432.505,160.759l-4.648-1.162a.6.6,0,1,1,.291-1.166l2.44.611-.87-2.349a.6.6,0,1,1,1.127-.418Z" transform="translate(-427.402 -155.882)" fill="#f76195"/></g><g transform="translate(17.641 63.523)"><g transform="translate(0.224)"><path d="M410.461,176.431c.329-12.043,9.083-16.83,19.822-10.63,5.528,3.191,10.531,8.691,14.134,14.97l3.961-1c-4.513-8.186-10.953-15.406-18.1-19.531-13.514-7.8-24.524-1.635-24.688,13.734l3.169,2.879Z" transform="translate(-404.112 -156.864)" fill="#f5b500"/><path d="M440.484,210.561a17.046,17.046,0,0,1-9.953-2.645c-10.172-5.873-18.571-19.549-19.711-31.535l-4.847-2.443c.008.088-1.62.418-1.612.506,1.4,14.919,13.506,31.718,26.17,39.029,4.6,2.656,7.711,4.052,11.4,3.66.155-.017,1.5-.4,1.656-.422Z" transform="translate(-404.361 -153.417)" fill="#f5b500"/><path d="M440.069,179.95a37.929,37.929,0,0,1,3.843,15.633c0,7.2-2.933,11.923-7.489,13.47l3.068,6.077c5.642-1.941,9.263-7.823,9.263-16.751a47.133,47.133,0,0,0-4.748-19.419Z" transform="translate(-397.888 -152.403)" fill="#f5b500"/></g><path d="M434.684,191.864A16.913,16.913,0,0,1,431.2,187.7c-.574-.964-.555-2.01,0-2.335a4.447,4.447,0,0,0,1.778-1.982c.611.168,1.367-.056,1.367-.893a3.309,3.309,0,0,0-.881-2.252c-.149-3.654-1.4-7.407-5.6-9.833a5.22,5.22,0,0,0-3.4-.959c-.192.036-1.858.475-2.02.556-1.139.566-.091,1.79-.176,3.77-.5-.112-.881.381-.881,1.236a4.038,4.038,0,0,0,1.367,2.471,19.885,19.885,0,0,0,1.776,4.034c.56.974.581,2.042,0,2.341a4.585,4.585,0,0,1-3.481.148,2.617,2.617,0,0,0-1.454-.059c-.123.035-1.619.423-1.731.478-.781.388.111.958.111,2.284v3.767a2.54,2.54,0,0,0,1.151,1.987l16.142,10.684c.28.162,1.865-.4,2.065-.477a.755.755,0,0,0,.416-.776v-3.767A8.972,8.972,0,0,0,434.684,191.864Z" transform="translate(-401.474 -154.333)" fill="#f5b500"/><g transform="translate(0.62 0.31)"><path d="M409.558,176.689c.329-12.043,9.083-16.83,19.822-10.631,5.528,3.192,10.531,8.692,14.134,14.971l3.961-1c-4.513-8.186-10.953-15.406-18.1-19.531-13.514-7.8-24.524-1.635-24.688,13.734Z" transform="translate(-404.691 -157.122)" fill="#fff"/><path d="M439.31,210.819a17.047,17.047,0,0,1-9.953-2.645c-10.172-5.872-18.571-19.549-19.711-31.535L404.8,174.2c1.3,14.982,11.819,32.181,24.558,39.535,4.792,2.767,9.268,3.77,13.059,3.238Z" transform="translate(-404.669 -153.675)" fill="#fff"/><path d="M439.166,180.208a37.929,37.929,0,0,1,3.842,15.633c0,7.2-2.933,11.923-7.489,13.47l3.068,6.077c5.642-1.941,9.263-7.823,9.263-16.751a47.138,47.138,0,0,0-4.747-19.419Z" transform="translate(-398.467 -152.661)" fill="#fff"/></g><path d="M433.708,192.122a16.911,16.911,0,0,1-3.482-4.168c-.575-.964-.555-2.01,0-2.335a4.447,4.447,0,0,0,1.778-1.982c.611.168,1.367-.057,1.367-.893a3.307,3.307,0,0,0-.881-2.252c-.149-3.654-1.4-7.407-5.6-9.833s-5.449-.113-5.6,3.368c-.5-.112-.881.381-.881,1.236a4.038,4.038,0,0,0,1.367,2.471,19.852,19.852,0,0,0,1.776,4.034c.56.974.58,2.042,0,2.341a4.585,4.585,0,0,1-3.481.148c-1.764-.534-3.074.531-3.074,2.7v3.767a2.54,2.54,0,0,0,1.151,1.987L435.631,202.8c.636.368,1.151.073,1.151-.656v-3.767A8.972,8.972,0,0,0,433.708,192.122Z" transform="translate(-401.584 -154.281)" fill="#fff"/><g transform="translate(0 0.465)"><path d="M409.042,176.818c.329-12.043,9.083-16.83,19.822-10.631,5.528,3.192,10.531,8.692,14.134,14.971l3.961-1c-4.513-8.186-10.953-15.406-18.1-19.531-13.514-7.8-24.524-1.635-24.688,13.734Z" transform="translate(-404.175 -157.251)" fill="#ffd70f"/><path d="M438.794,210.948a17.046,17.046,0,0,1-9.953-2.645c-10.172-5.872-18.571-19.549-19.711-31.535l-4.847-2.443c1.3,14.982,11.82,32.181,24.558,39.535,4.792,2.767,9.268,3.77,13.059,3.238Z" transform="translate(-404.153 -153.804)" fill="#ffd70f"/><path d="M438.65,180.337a37.93,37.93,0,0,1,3.842,15.633c0,7.2-2.933,11.923-7.489,13.47l3.068,6.077c5.642-1.941,9.263-7.823,9.263-16.751a47.138,47.138,0,0,0-4.748-19.419Z" transform="translate(-397.951 -152.79)" fill="#ffd70f"/></g><path d="M433.192,192.251a16.915,16.915,0,0,1-3.482-4.168c-.574-.964-.555-2.01,0-2.335a4.447,4.447,0,0,0,1.778-1.982c.611.168,1.367-.057,1.367-.893a3.307,3.307,0,0,0-.881-2.252c-.149-3.654-1.4-7.407-5.6-9.833s-5.449-.113-5.6,3.368c-.5-.112-.881.381-.881,1.236a4.038,4.038,0,0,0,1.367,2.471,19.858,19.858,0,0,0,1.776,4.034c.56.974.581,2.042,0,2.341a4.585,4.585,0,0,1-3.481.148c-1.764-.534-3.074.531-3.074,2.7v3.767a2.538,2.538,0,0,0,1.151,1.987l17.471,10.086c.636.368,1.151.073,1.151-.656V198.5A8.972,8.972,0,0,0,433.192,192.251Z" transform="translate(-401.688 -154.255)" fill="#ffd70f"/></g></g><g transform="translate(567.467 214.668)"><path d="M580.434,247.65l-46.712-27.012c-2.663-1.537-4.822-5.662-4.822-9.213V200.357c0-3.55,2.159-5.183,4.822-3.645l46.712,27.012c2.663,1.538,4.822,5.662,4.822,9.213V244C585.256,247.555,583.1,249.187,580.434,247.65Z" transform="translate(-528.9 -194.975)" fill="#0fbab8"/><path d="M580.6,242.241l-45.979-26.584a8.2,8.2,0,0,1-3.469-6.868v-7.934a.855.855,0,0,1,1.287-.736l.151.088,46.033,26.621c2.552,1.47,3.469,4.083,3.469,6.868V241.5a.922.922,0,0,1-1.38.8Z" transform="translate(-528.445 -194.194)" fill="#084c94"/><path d="M581.484,241.672l-.112-.064-45.98-26.584a8.2,8.2,0,0,1-3.467-6.868v-7.934a.865.865,0,0,1,.03-.218.852.852,0,0,0-.8.849v7.934a8.2,8.2,0,0,0,3.469,6.868L580.6,242.24l.113.064a.921.921,0,0,0,1.334-.522A.9.9,0,0,1,581.484,241.672Z" transform="translate(-528.445 -194.193)" fill="#001a46"/><path d="M582.4,222.76l-46.713-27.012a3.258,3.258,0,0,0-2.821-.415c-.1.038-2.35,1.186-2.445,1.238l0,0a3.157,3.157,0,0,1,3,.331l46.712,27.013c2.663,1.537,4.822,5.661,4.822,9.211V244.2c0,2.216-.841,3.684-2.12,4.1a.8.8,0,0,0,.422-.143c.061-.035,2.424-1.291,2.483-1.332a4.453,4.453,0,0,0,1.486-3.785v-11.07C587.22,228.421,585.062,224.3,582.4,222.76Z" transform="translate(-528.594 -195.169)" fill="#0ba19f"/><path d="M582.4,222.76l-46.713-27.012a3.258,3.258,0,0,0-2.821-.415c-.1.038-2.35,1.186-2.445,1.238l0,0a3.157,3.157,0,0,1,3,.331l46.712,27.013Z" transform="translate(-528.594 -195.169)" fill="#3ecfcd"/><path d="M580.3,223.626l-46.713-27.012a3.2,3.2,0,0,0-2.9-.371,3.557,3.557,0,0,1,2.326.546L579.727,223.8c2.662,1.537,4.821,5.661,4.821,9.211v11.07c0,2.095-.755,3.514-1.917,4.017,1.487-.237,2.495-1.764,2.495-4.19v-11.07C585.126,229.288,582.967,225.163,580.3,223.626Z" transform="translate(-528.539 -194.993)" fill="#fff" opacity="0.7"/><g transform="translate(10.749 14.102)"><path d="M562.8,223.454a6.407,6.407,0,0,0,2.906,5.014c1.606.927,2.907.185,2.907-1.657A6.4,6.4,0,0,0,565.7,221.8C564.1,220.869,562.8,221.611,562.8,223.454Z" transform="translate(-532.805 -203.976)" fill="#001a46"/><path d="M556.558,219.829a6.4,6.4,0,0,0,2.906,5.014c1.606.927,2.907.185,2.907-1.657a6.407,6.407,0,0,0-2.907-5.014C557.859,217.245,556.558,217.988,556.558,219.829Z" transform="translate(-534.064 -204.707)" fill="#001a46"/><path d="M550.32,216.206a6.4,6.4,0,0,0,2.906,5.013c1.606.928,2.907.185,2.907-1.657a6.4,6.4,0,0,0-2.907-5.013C551.62,213.622,550.32,214.364,550.32,216.206Z" transform="translate(-535.324 -205.439)" fill="#001a46"/><path d="M544.081,212.582a6.407,6.407,0,0,0,2.907,5.014c1.606.927,2.907.185,2.907-1.657a6.4,6.4,0,0,0-2.907-5.014C545.383,210,544.081,210.74,544.081,212.582Z" transform="translate(-536.584 -206.17)" fill="#001a46"/><path d="M537.843,208.958a6.4,6.4,0,0,0,2.907,5.014c1.606.927,2.906.185,2.906-1.657a6.405,6.405,0,0,0-2.906-5.014C539.145,206.374,537.843,207.117,537.843,208.958Z" transform="translate(-537.843 -206.902)" fill="#001a46"/></g><g transform="translate(9.85 14.162)"><path d="M562.047,223.5a6.407,6.407,0,0,0,2.907,5.014c1.606.927,2.906.185,2.906-1.657a6.4,6.4,0,0,0-2.906-5.014C563.349,220.919,562.047,221.661,562.047,223.5Z" transform="translate(-532.057 -204.026)" fill="#a8cff0"/><path d="M555.809,219.879a6.4,6.4,0,0,0,2.907,5.014c1.6.927,2.906.185,2.906-1.657a6.409,6.409,0,0,0-2.906-5.014C557.111,217.3,555.809,218.038,555.809,219.879Z" transform="translate(-533.317 -204.757)" fill="#a8cff0"/><path d="M549.571,216.256a6.4,6.4,0,0,0,2.907,5.013c1.6.927,2.906.185,2.906-1.657a6.407,6.407,0,0,0-2.906-5.013C550.873,213.672,549.571,214.414,549.571,216.256Z" transform="translate(-534.576 -205.489)" fill="#a8cff0"/><path d="M543.333,212.633a6.409,6.409,0,0,0,2.906,5.014c1.606.927,2.907.184,2.907-1.657a6.405,6.405,0,0,0-2.907-5.014C544.635,210.048,543.333,210.79,543.333,212.633Z" transform="translate(-535.836 -206.22)" fill="#a8cff0"/><path d="M537.095,209.008A6.407,6.407,0,0,0,540,214.023c1.606.927,2.907.185,2.907-1.657A6.407,6.407,0,0,0,540,207.351C538.4,206.424,537.095,207.167,537.095,209.008Z" transform="translate(-537.095 -206.952)" fill="#a8cff0"/></g></g><g transform="translate(572.205 273.881)"><path d="M572.332,328.914l-36.9-21.238c-3.84-2.216-3.358-6.089,1.076-8.648h0c4.433-2.56,19.1-2.574,22.938-.358l32.712,18.877c5.894,3.478.059,8.251-4.85,10.745h0C582.877,330.852,576.171,331.13,572.332,328.914Z" transform="translate(-532.842 -233.812)" fill="#92b4d1" opacity="0.2"/><path d="M586.628,289.793l-53.348-19.9v39.567c-.173,1.285.507,2.537,2.083,3.446L571.438,333.8c3.125,1.8,8.583,1.578,12.192-.5h0c1.909-1.1,2.917-2.5,2.981-3.846l.018.007Z" transform="translate(-532.759 -239.295)" fill="#72b5e8"/><path d="M571.438,294.976l-36.075-20.893c-3.126-1.8-2.733-4.955.875-7.04h0c3.608-2.083,9.067-2.309,12.192-.5L584.5,287.431c3.125,1.8,2.733,4.955-.875,7.04h0C580.02,296.554,574.563,296.78,571.438,294.976Z" transform="translate(-532.759 -240.219)" fill="#a8cff0"/><path d="M583.63,293.05c-3.609,2.083-9.067,2.31-12.192.506l-36.075-20.893a3.729,3.729,0,0,1-2.089-2.788c-.15,1.267.532,2.5,2.089,3.4l36.075,20.893c3.125,1.8,8.583,1.578,12.192-.5,2.1-1.214,3.1-2.79,2.963-4.251C586.441,290.688,585.442,292,583.63,293.05Z" transform="translate(-532.759 -239.299)" fill="#fff"/><g transform="translate(8.092)"><path d="M562.232,246.476h0a15.113,15.113,0,0,0-22.657,13.1v16.39h0c0,.012,0,.023,0,.023,0,1.607,2.221,2.9,4.96,2.9S549.5,277.592,549.5,276c0-.019,0-.037,0-.056h.053V261.686a6.4,6.4,0,0,1,9.595-5.553h0a15.973,15.973,0,0,1,8.014,13.848v21.854h.053c.054,1.569,2.25,2.831,4.955,2.831,2.724,0,4.932-1.278,4.958-2.861h0V272.24A29.734,29.734,0,0,0,562.232,246.476Z" transform="translate(-539.575 -244.436)" fill="#2672ab"/><g transform="translate(21.44 9.144)"><path d="M558.339,252.507a9.345,9.345,0,0,0-.925-.463,17.411,17.411,0,0,1,7.682,14.412V292.1a6.022,6.022,0,0,0,1.938.709v-25.26A17.409,17.409,0,0,0,558.339,252.507Z" transform="translate(-557.413 -252.044)" fill="#3f92d1"/></g><g transform="translate(4.117 6.979)"><path d="M551.172,250.242a8.128,8.128,0,0,0-8.119,8.119V275.48L543,277.256a6.991,6.991,0,0,0,2.844-.341l.052-1.776V258.02a8.134,8.134,0,0,1,5.738-7.763C551.481,250.248,551.327,250.242,551.172,250.242Z" transform="translate(-543.001 -250.242)" fill="#084c94"/></g><path d="M556.451,247.618a15.69,15.69,0,0,1,7.377,1.851,27.879,27.879,0,0,0-2.734-1.8,13.21,13.21,0,0,0-6.669-1.812,13.46,13.46,0,0,0-13.43,13.43v.036A16.218,16.218,0,0,1,556.451,247.618Z" transform="translate(-539.288 -244.149)" fill="#3f92d1"/><path d="M567.63,271.311l0,19.18a6.154,6.154,0,0,0,2.482-.863,1.626,1.626,0,0,0,.171-.672l0-19.565C570.283,260.932,567.63,262.689,567.63,271.311Z" transform="translate(-533.911 -240.511)" fill="#084c94"/></g><path d="M557.412,297.35a10.782,10.782,0,0,0-4.892-8.437c-2.7-1.559-4.892-.31-4.892,2.79a10.642,10.642,0,0,0,2.474,6.3v9.82l4.837,2.793V300.8C556.414,300.684,557.412,299.44,557.412,297.35Z" transform="translate(-529.857 -235.591)" fill="#084c94"/><path d="M550.945,307.453v-9.82a10.641,10.641,0,0,1-2.474-6.3,3.492,3.492,0,0,1,1.284-3.04c-1.285.27-2.127,1.48-2.127,3.4A10.642,10.642,0,0,0,550.1,298v9.82l4.837,2.793v-.85Z" transform="translate(-529.857 -235.581)" fill="#001a46"/></g></g></g></svg>