<svg xmlns="http://www.w3.org/2000/svg" xmlns:xlink="http://www.w3.org/1999/xlink" width="210.639" height="168.736" viewBox="0 0 210.639 168.736"><defs><clipPath id="a"><rect width="210.639" height="168.736" fill="none"/></clipPath></defs><g transform="translate(10748.922 11975.896)"><g transform="translate(-10748.922 -11975.896)"><g clip-path="url(#a)"><path d="M203.14,22.265a7.439,7.439,0,0,0-1.052.108,14.518,14.518,0,0,0-21.647-12.51,18.5,18.5,0,0,0-34.22,3.831,11.64,11.64,0,0,0-2.5-.281,11.922,11.922,0,1,0,8.9,19.78,18.329,18.329,0,0,0,24-.847,14.412,14.412,0,0,0,20.218,1.44,7.492,7.492,0,1,0,6.309-11.521" fill="#e6fcfa"/><path d="M203.14,32.7a7.489,7.489,0,0,1-6.309-3.469,14.413,14.413,0,0,1-20.218-1.444,18.323,18.323,0,0,1-24,.847,11.859,11.859,0,0,1-20.589-5.578,11.769,11.769,0,0,0-.229,2.28,11.873,11.873,0,0,0,20.818,7.86,18.328,18.328,0,0,0,24-.846,14.412,14.412,0,0,0,20.218,1.44,7.461,7.461,0,0,0,13.416-6.309A7.472,7.472,0,0,1,203.14,32.7" fill="#c8ebf3"/><path d="M5.174,106.917a5.009,5.009,0,0,1,.722.076A10.077,10.077,0,0,1,15.97,97.075a9.958,9.958,0,0,1,4.848,1.291,12.754,12.754,0,0,1,23.59,2.641,8.332,8.332,0,0,1,1.732-.187A8.218,8.218,0,1,1,40,114.451a12.635,12.635,0,0,1-16.546-.583,9.936,9.936,0,0,1-13.937,1,5.164,5.164,0,1,1-4.341-7.947" fill="#e6fcfa"/><path d="M5.174,114.108a5.138,5.138,0,0,0,4.341-2.388,9.94,9.94,0,0,0,13.937-1A12.64,12.64,0,0,0,40,111.307a8.179,8.179,0,0,0,14.2-3.845,7.9,7.9,0,0,1,.16,1.576A8.187,8.187,0,0,1,40,114.451a12.635,12.635,0,0,1-16.546-.583,9.936,9.936,0,0,1-13.937,1A5.161,5.161,0,0,1,0,112.085a5.293,5.293,0,0,1,.267-1.576,5.157,5.157,0,0,0,4.907,3.6" fill="#c8ebf3"/><path d="M107.549,159.644a4.268,4.268,0,0,0-.635.066,8.8,8.8,0,0,0-13.128-7.589,11.219,11.219,0,0,0-20.755,2.325,7.046,7.046,0,0,0-1.524-.17,7.23,7.23,0,1,0,5.4,12,11.126,11.126,0,0,0,14.558-.513,8.747,8.747,0,0,0,12.263.874,4.543,4.543,0,1,0,3.821-6.989" fill="#e6fcfa"/><path d="M107.549,165.97a4.532,4.532,0,0,1-3.821-2.107,8.737,8.737,0,0,1-12.263-.874,11.116,11.116,0,0,1-14.558.514,7.191,7.191,0,0,1-12.486-3.38,6.993,6.993,0,0,0-.139,1.381,7.2,7.2,0,0,0,12.625,4.768,11.125,11.125,0,0,0,14.558-.514,8.746,8.746,0,0,0,12.263.875,4.525,4.525,0,0,0,8.134-3.828,4.534,4.534,0,0,1-4.313,3.165" fill="#c8ebf3"/></g></g></g></svg>