<svg xmlns="http://www.w3.org/2000/svg" xmlns:xlink="http://www.w3.org/1999/xlink" width="523" height="431" viewBox="0 0 523 431"><defs><filter id="a" x="0" y="0" width="523" height="431" filterUnits="userSpaceOnUse"><feOffset dy="3" input="SourceAlpha"/><feGaussianBlur stdDeviation="3" result="b"/><feFlood flood-opacity="0.161"/><feComposite operator="in" in2="b"/><feComposite in="SourceGraphic"/></filter><filter id="c" x="48.812" y="259.854" width="89.376" height="56" filterUnits="userSpaceOnUse"><feOffset dx="3" dy="3" input="SourceAlpha"/><feGaussianBlur stdDeviation="3" result="d"/><feFlood flood-opacity="0.161"/><feComposite operator="in" in2="d"/><feComposite in="SourceGraphic"/></filter><filter id="e" x="33" y="37" width="114" height="42" filterUnits="userSpaceOnUse"><feOffset dy="3" input="SourceAlpha"/><feGaussianBlur stdDeviation="3" result="f"/><feFlood flood-opacity="0.161"/><feComposite operator="in" in2="f"/><feComposite in="SourceGraphic"/></filter><filter id="g" x="33" y="83" width="114" height="42" filterUnits="userSpaceOnUse"><feOffset dy="3" input="SourceAlpha"/><feGaussianBlur stdDeviation="3" result="h"/><feFlood flood-opacity="0.161"/><feComposite operator="in" in2="h"/><feComposite in="SourceGraphic"/></filter><filter id="i" x="44" y="133" width="92" height="53" filterUnits="userSpaceOnUse"><feOffset dy="3" input="SourceAlpha"/><feGaussianBlur stdDeviation="3" result="j"/><feFlood flood-opacity="0.161"/><feComposite operator="in" in2="j"/><feComposite in="SourceGraphic"/></filter><filter id="k" x="304" y="321" width="92" height="53" filterUnits="userSpaceOnUse"><feOffset dy="3" input="SourceAlpha"/><feGaussianBlur stdDeviation="3" result="l"/><feFlood flood-opacity="0.161"/><feComposite operator="in" in2="l"/><feComposite in="SourceGraphic"/></filter><filter id="m" x="398" y="321" width="92" height="53" filterUnits="userSpaceOnUse"><feOffset dy="3" input="SourceAlpha"/><feGaussianBlur stdDeviation="3" result="n"/><feFlood flood-opacity="0.161"/><feComposite operator="in" in2="n"/><feComposite in="SourceGraphic"/></filter><filter id="o" x="45" y="323" width="92" height="53" filterUnits="userSpaceOnUse"><feOffset dy="3" input="SourceAlpha"/><feGaussianBlur stdDeviation="3" result="p"/><feFlood flood-opacity="0.161"/><feComposite operator="in" in2="p"/><feComposite in="SourceGraphic"/></filter><filter id="q" x="145" y="299.273" width="150.999" height="94.82" filterUnits="userSpaceOnUse"><feOffset dy="3" input="SourceAlpha"/><feGaussianBlur stdDeviation="3" result="r"/><feFlood flood-opacity="0.161"/><feComposite operator="in" in2="r"/><feComposite in="SourceGraphic"/></filter><filter id="s" x="44" y="193" width="92" height="53" filterUnits="userSpaceOnUse"><feOffset dy="3" input="SourceAlpha"/><feGaussianBlur stdDeviation="3" result="t"/><feFlood flood-opacity="0.161"/><feComposite operator="in" in2="t"/><feComposite in="SourceGraphic"/></filter></defs><g transform="translate(-276 -4677)"><g transform="matrix(1, 0, 0, 1, 276, 4677)" filter="url(#a)"><rect width="505" height="413" transform="translate(9 6)" fill="#fff"/></g><g transform="translate(-22 17)"><g transform="matrix(1, 0, 0, 1, 298, 4660)" filter="url(#c)"><path d="M5266-7638h70l-12,37h-46Z" transform="translate(-5210.5 7904.35)" fill="#80cab6" stroke="#707070" stroke-width="1"/></g><g transform="matrix(1, 0, 0, 1, 298, 4660)" filter="url(#e)"><g transform="translate(42 43)" fill="#e2eacb" stroke="#707070" stroke-width="1"><rect width="96" height="24" stroke="none"/><rect x="0.5" y="0.5" width="95" height="23" fill="none"/></g></g><g transform="matrix(1, 0, 0, 1, 298, 4660)" filter="url(#g)"><g transform="translate(42 89)" fill="#f1cc4b" stroke="#707070" stroke-width="1"><rect width="96" height="24" stroke="none"/><rect x="0.5" y="0.5" width="95" height="23" fill="none"/></g></g><g transform="matrix(1, 0, 0, 1, 298, 4660)" filter="url(#i)"><g transform="translate(53 139)" fill="#f1cc4b" stroke="#707070" stroke-width="1"><rect width="74" height="35" stroke="none"/><rect x="0.5" y="0.5" width="73" height="34" fill="none"/></g></g><path d="M6.62,13.464V2.679a.429.429,0,0,0-.429-.429h-2a.429.429,0,0,0-.429.429V13.464H2.117a.857.857,0,0,0-.606,1.463L4.585,18A.857.857,0,0,0,5.8,18l3.074-3.074a.857.857,0,0,0-.606-1.463H6.62Z" transform="translate(383.309 4898.249)"/><path d="M6.62,13.464V2.679a.429.429,0,0,0-.429-.429h-2a.429.429,0,0,0-.429.429V13.464H2.117a.857.857,0,0,0-.606,1.463L4.585,18A.857.857,0,0,0,5.8,18l3.074-3.074a.857.857,0,0,0-.606-1.463H6.62Z" transform="translate(383.309 4964.603)"/><path d="M6.62,13.464V2.679a.429.429,0,0,0-.429-.429h-2a.429.429,0,0,0-.429.429V13.464H2.117a.857.857,0,0,0-.606,1.463L4.585,18A.857.857,0,0,0,5.8,18l3.074-3.074a.857.857,0,0,0-.606-1.463H6.62Z" transform="translate(383.309 4837.249)"/><path d="M6.62,13.464V2.679a.429.429,0,0,0-.429-.429h-2a.429.429,0,0,0-.429.429V13.464H2.117a.857.857,0,0,0-.606,1.463L4.585,18A.857.857,0,0,0,5.8,18l3.074-3.074a.857.857,0,0,0-.606-1.463H6.62Z" transform="translate(383.309 4777.249)"/><path d="M6.62,13.464V2.679a.429.429,0,0,0-.429-.429h-2a.429.429,0,0,0-.429.429V13.464H2.117a.857.857,0,0,0-.606,1.463L4.585,18A.857.857,0,0,0,5.8,18l3.074-3.074a.857.857,0,0,0-.606-1.463H6.62Z" transform="translate(383.309 4725.249)"/><path d="M5219-6819.5h128.5V-6692H5219" transform="translate(-4829 11696)" fill="none" stroke="#707070" stroke-width="1"/><path d="M5354-6692.315h226" transform="translate(-4829 11696)" fill="none" stroke="#707070" stroke-width="1"/><g transform="matrix(1, 0, 0, 1, 298, 4660)" filter="url(#k)"><g transform="translate(313 327)" fill="#f1cc4b" stroke="#707070" stroke-width="1"><rect width="74" height="35" stroke="none"/><rect x="0.5" y="0.5" width="73" height="34" fill="none"/></g></g><g transform="matrix(1, 0, 0, 1, 298, 4660)" filter="url(#m)"><g transform="translate(407 327)" fill="#f1cc4b" stroke="#707070" stroke-width="1"><rect width="74" height="35" stroke="none"/><rect x="0.5" y="0.5" width="73" height="34" fill="none"/></g></g><g transform="matrix(1, 0, 0, 1, 298, 4660)" filter="url(#o)"><g transform="translate(54 329)" fill="#f1cc4b" stroke="#707070" stroke-width="1"><rect width="74" height="35" stroke="none"/><rect x="0.5" y="0.5" width="73" height="34" fill="none"/></g></g><g transform="matrix(1, 0, 0, 1, 298, 4660)" filter="url(#q)"><path d="M5451.5-7649l-65.5,38.4,65.5,37.268L5517-7610.6Z" transform="translate(-5231 7954.85)" fill="#afafaf" stroke="#707070" stroke-width="1"/></g><g transform="matrix(1, 0, 0, 1, 298, 4660)" filter="url(#s)"><g transform="translate(53 199)" fill="#f1cc4b" stroke="#707070" stroke-width="1"><rect width="74" height="35" stroke="none"/><rect x="0.5" y="0.5" width="73" height="34" fill="none"/></g></g></g></g></svg>