<svg xmlns="http://www.w3.org/2000/svg" width="49.28" height="64" viewBox="0 0 49.28 64">
  <g id="molinillo" transform="translate(-12.36 -5)">
    <g id="Grupo_958661" data-name="Grupo 958661">
      <g id="Grupo_958636" data-name="Grupo 958636">
        <g id="Grupo_958634" data-name="Grupo 958634">
          <path id="Trazado_723026" data-name="Trazado 723026" d="M32.99,27.78h4.29V68.5H32.99Z" fill="#363a3d"/>
        </g>
        <g id="Grupo_958635" data-name="Grupo 958635">
          <path id="Trazado_723027" data-name="Trazado 723027" d="M37.28,69H32.99a.5.5,0,0,1-.5-.5V27.78a.5.5,0,0,1,.5-.5h4.29a.5.5,0,0,1,.5.5V68.5A.5.5,0,0,1,37.28,69Zm-3.79-1h3.29V28.28H33.49Z"/>
        </g>
      </g>
      <g id="Grupo_958660" data-name="Grupo 958660">
        <g id="Grupo_958657" data-name="Grupo 958657">
          <g id="Grupo_958641" data-name="Grupo 958641">
            <g id="Grupo_958637" data-name="Grupo 958637">
              <path id="Trazado_723028" data-name="Trazado 723028" d="M57.41,5.5,39.7,5.51,26.28,18.93l8.85,8.85Z" fill="#978adc"/>
            </g>
            <g id="Grupo_958638" data-name="Grupo 958638">
              <path id="Trazado_723029" data-name="Trazado 723029" d="M35.13,28.28a.469.469,0,0,1-.35-.15l-8.85-8.85a.5.5,0,0,1,0-.71L39.34,5.16a.509.509,0,0,1,.35-.15L57.41,5a.5.5,0,0,1,.46.31.491.491,0,0,1-.11.54L35.49,28.13A.507.507,0,0,1,35.13,28.28Zm-8.14-9.35,8.14,8.14L56.2,6l-16.29.01Z"/>
            </g>
            <g id="Grupo_958639" data-name="Grupo 958639">
              <path id="Trazado_723030" data-name="Trazado 723030" d="M26.28,18.93,39.7,5.51,35.13,27.78Z" fill="#b5afef"/>
            </g>
            <g id="Grupo_958640" data-name="Grupo 958640">
              <path id="Trazado_723031" data-name="Trazado 723031" d="M35.13,28.28a.469.469,0,0,1-.35-.15l-8.85-8.85a.5.5,0,0,1,0-.71L39.34,5.16a.5.5,0,0,1,.59-.09.49.49,0,0,1,.25.54L35.62,27.88a.5.5,0,0,1-.35.38.59.59,0,0,1-.14.02Zm-8.14-9.35,7.84,7.84L38.87,7.05Z"/>
            </g>
          </g>
          <g id="Grupo_958646" data-name="Grupo 958646">
            <g id="Grupo_958642" data-name="Grupo 958642">
              <path id="Trazado_723032" data-name="Trazado 723032" d="M12.86,5.5l.01,17.71L26.28,36.63l8.85-8.85Z" fill="#feca26"/>
            </g>
            <g id="Grupo_958643" data-name="Grupo 958643">
              <path id="Trazado_723033" data-name="Trazado 723033" d="M26.28,37.13a.469.469,0,0,1-.35-.15L12.51,23.56a.509.509,0,0,1-.15-.35V5.5a.5.5,0,0,1,.31-.46.491.491,0,0,1,.54.11L35.48,27.42a.5.5,0,0,1,0,.71l-8.85,8.85a.491.491,0,0,1-.35.15ZM13.37,23,26.29,35.92l8.14-8.14L13.36,6.71Z"/>
            </g>
            <g id="Grupo_958644" data-name="Grupo 958644">
              <path id="Trazado_723034" data-name="Trazado 723034" d="M26.28,36.63,12.87,23.21l22.26,4.57Z" fill="#ffd766"/>
            </g>
            <g id="Grupo_958645" data-name="Grupo 958645">
              <path id="Trazado_723035" data-name="Trazado 723035" d="M26.28,37.13a.469.469,0,0,1-.35-.15L12.51,23.56a.5.5,0,0,1-.09-.59.49.49,0,0,1,.54-.25l22.27,4.56a.5.5,0,0,1,.38.35.511.511,0,0,1-.13.5l-8.85,8.85a.491.491,0,0,1-.35.15ZM14.4,24.04,26.28,35.92l7.84-7.84Z"/>
            </g>
          </g>
          <g id="Grupo_958651" data-name="Grupo 958651">
            <g id="Grupo_958647" data-name="Grupo 958647">
              <path id="Trazado_723036" data-name="Trazado 723036" d="M12.86,50.05l17.71-.01L43.98,36.63l-8.85-8.85Z" fill="#97c81f"/>
            </g>
            <g id="Grupo_958648" data-name="Grupo 958648">
              <path id="Trazado_723037" data-name="Trazado 723037" d="M12.86,50.55a.5.5,0,0,1-.46-.31.491.491,0,0,1,.11-.54L34.78,27.43a.513.513,0,0,1,.71,0l8.85,8.85a.5.5,0,0,1,0,.71L30.92,50.39a.509.509,0,0,1-.35.15ZM35.13,28.48,14.07,49.55l16.29-.01L43.28,36.62Z"/>
            </g>
            <g id="Grupo_958649" data-name="Grupo 958649">
              <path id="Trazado_723038" data-name="Trazado 723038" d="M43.98,36.63,30.57,50.04l4.56-22.26Z" fill="#b9dd4a"/>
            </g>
            <g id="Grupo_958650" data-name="Grupo 958650">
              <path id="Trazado_723039" data-name="Trazado 723039" d="M30.57,50.54a.533.533,0,0,1-.24-.06.49.49,0,0,1-.25-.54l4.56-22.27a.5.5,0,0,1,.35-.38.511.511,0,0,1,.5.13l8.85,8.85a.5.5,0,0,1,0,.71L30.92,50.39a.469.469,0,0,1-.35.15Zm4.87-21.75L31.4,48.51,43.28,36.63Z"/>
            </g>
          </g>
          <g id="Grupo_958656" data-name="Grupo 958656">
            <g id="Grupo_958652" data-name="Grupo 958652">
              <path id="Trazado_723040" data-name="Trazado 723040" d="M57.41,50.05,57.4,32.34,43.98,18.93l-8.85,8.85Z" fill="#ff4d39"/>
            </g>
            <g id="Grupo_958653" data-name="Grupo 958653">
              <path id="Trazado_723041" data-name="Trazado 723041" d="M57.41,50.55a.469.469,0,0,1-.35-.15L34.78,28.13a.509.509,0,0,1-.15-.35.469.469,0,0,1,.15-.35l8.85-8.85a.5.5,0,0,1,.71,0L57.76,32a.509.509,0,0,1,.15.35l.01,17.71a.5.5,0,0,1-.31.46.747.747,0,0,1-.2.03ZM35.84,27.78,56.91,48.85l-.01-16.3L43.98,19.63Z"/>
            </g>
            <g id="Grupo_958654" data-name="Grupo 958654">
              <path id="Trazado_723042" data-name="Trazado 723042" d="M43.98,18.93,57.4,32.34,35.13,27.78Z" fill="#ff786e"/>
            </g>
            <g id="Grupo_958655" data-name="Grupo 958655">
              <path id="Trazado_723043" data-name="Trazado 723043" d="M57.4,32.84a.34.34,0,0,1-.1-.01L35.03,28.26a.5.5,0,0,1-.38-.35.511.511,0,0,1,.13-.5l8.85-8.85a.5.5,0,0,1,.71,0L57.76,31.98a.5.5,0,0,1,.09.59A.526.526,0,0,1,57.4,32.84ZM36.14,27.47l19.72,4.04L43.98,19.63Z"/>
            </g>
          </g>
        </g>
        <g id="Grupo_958658" data-name="Grupo 958658">
          <path id="Trazado_723044" data-name="Trazado 723044" d="M38.39,24.52a4.6,4.6,0,1,1-6.51,0A4.6,4.6,0,0,1,38.39,24.52Z" fill="#f0e8e5"/>
        </g>
        <g id="Grupo_958659" data-name="Grupo 958659">
          <path id="Trazado_723045" data-name="Trazado 723045" d="M35.13,32.87a5.105,5.105,0,0,1-3.61-8.71,5.06,5.06,0,0,1,3.6-1.49h.01a5.1,5.1,0,0,1,3.6,8.7,4.984,4.984,0,0,1-3.6,1.5Zm0-9.19a4.1,4.1,0,0,0-4.1,4.1,4.036,4.036,0,0,0,1.2,2.9,4.1,4.1,0,0,0,5.8-5.8,4.036,4.036,0,0,0-2.9-1.2Z"/>
        </g>
      </g>
    </g>
    <g id="Grupo_958666" data-name="Grupo 958666">
      <g id="Grupo_958662" data-name="Grupo 958662">
        <path id="Trazado_723046" data-name="Trazado 723046" d="M49.81,55.87H40.59a.5.5,0,0,1,0-1h9.22a2.525,2.525,0,1,0-2.53-2.53.5.5,0,0,1-1,0,3.525,3.525,0,1,1,3.53,3.53Z"/>
      </g>
      <g id="Grupo_958663" data-name="Grupo 958663">
        <path id="Trazado_723047" data-name="Trazado 723047" d="M58.12,67.92a3.534,3.534,0,0,1-3.53-3.52.5.5,0,0,1,1,0,2.525,2.525,0,1,0,2.53-2.53H40.58a.5.5,0,0,1,0-1H58.12a3.525,3.525,0,0,1,0,7.05Z"/>
      </g>
      <g id="Grupo_958664" data-name="Grupo 958664">
        <path id="Trazado_723048" data-name="Trazado 723048" d="M54.65,58.87H45.81a.5.5,0,0,1,0-1h8.84a.5.5,0,0,1,0,1Z"/>
      </g>
      <g id="Grupo_958665" data-name="Grupo 958665">
        <path id="Trazado_723049" data-name="Trazado 723049" d="M43.13,58.87H40.58a.5.5,0,0,1,0-1h2.55a.5.5,0,0,1,0,1Z"/>
      </g>
    </g>
  </g>
</svg>
