<svg xmlns="http://www.w3.org/2000/svg" width="152.101" height="167.91" viewBox="0 0 152.101 167.91">
  <g id="Grupo_959220" data-name="Grupo 959220" transform="translate(-253.418 -1556.757)">
    <g id="_x38_1_Decree" transform="translate(223.208 1550.017)">
      <g id="Grupo_959158" data-name="Grupo 959158" transform="translate(30.21 6.74)">
        <path id="Trazado_723442" data-name="Trazado 723442" d="M140.148,62.777V194.084a9.608,9.608,0,0,1-9.608,9.608H45.01a9.608,9.608,0,0,1-9.608-9.608V62.777a9.608,9.608,0,0,1,9.608-9.608h85.53A9.607,9.607,0,0,1,140.148,62.777Z" transform="translate(-33.653 -37.531)" fill="#ebd8ae"/>
        <path id="Trazado_723443" data-name="Trazado 723443" d="M140.143,62.76V194.067a9.6,9.6,0,0,1-9.608,9.608H45.009a9.6,9.6,0,0,1-9.608-9.608V185.2a80.7,80.7,0,0,0,80.706-80.722A80.324,80.324,0,0,0,97.676,53.152h32.859A9.6,9.6,0,0,1,140.143,62.76Z" transform="translate(-33.653 -37.52)" opacity="0.12"/>
        <path id="Trazado_723444" data-name="Trazado 723444" d="M181.384,21.541V152.848a9.608,9.608,0,0,1-9.608,9.608H86.246a9.608,9.608,0,0,1-9.608-9.608V21.541a9.608,9.608,0,0,1,9.608-9.608h85.53a9.608,9.608,0,0,1,9.608,9.608Z" transform="translate(-61 -10.184)" fill="#e8f1f8"/>
        <path id="Trazado_723445" data-name="Trazado 723445" d="M181.378,21.541V152.848a9.615,9.615,0,0,1-9.608,9.608H86.228a9.615,9.615,0,0,1-9.608-9.608V137.924A76.966,76.966,0,0,0,145.108,11.933H171.77a9.615,9.615,0,0,1,9.608,9.608Z" transform="translate(-60.988 -10.184)" opacity="0.12"/>
        <path id="Trazado_723446" data-name="Trazado 723446" d="M428.079,380.424V329.306H444.42v51.118a6.4,6.4,0,0,1-6.4,6.4h-3.547A6.4,6.4,0,0,1,428.079,380.424Z" transform="translate(-294.07 -220.66)" fill="#f14f4a"/>
        <path id="Trazado_723447" data-name="Trazado 723447" d="M428.079,190.322H444.42v46.812H428.079Z" transform="translate(-294.07 -128.488)" fill="#475da9"/>
        <path id="Trazado_723448" data-name="Trazado 723448" d="M428.1,380.429V329.3h6.157c-.07,1.626-.105,3.271-.105,4.915a113.1,113.1,0,0,0,10.215,47.12,6.393,6.393,0,0,1-6.332,5.475h-3.551a6.375,6.375,0,0,1-6.384-6.384Z" transform="translate(-294.083 -220.659)" opacity="0.12"/>
        <path id="Trazado_723449" data-name="Trazado 723449" d="M428.1,237.146V190.341h16.336v4.46a112.816,112.816,0,0,0-10.18,42.345H428.1Z" transform="translate(-294.083 -128.501)" opacity="0.12"/>
        <path id="Trazado_723450" data-name="Trazado 723450" d="M428.067,169.711l3.1-7.148a5.53,5.53,0,0,1,10.147,0l3.094,7.145Z" transform="translate(-294.062 -107.871)" fill="#f78721"/>
        <g id="Grupo_959157" data-name="Grupo 959157" transform="translate(0 0)">
          <path id="Trazado_723451" data-name="Trazado 723451" d="M128.149,85.535h67.727a1.749,1.749,0,1,0,0-3.5H128.149a1.749,1.749,0,0,0,0,3.5Z" transform="translate(-94.002 -56.676)"/>
          <path id="Trazado_723452" data-name="Trazado 723452" d="M128.149,144.508h67.727a1.749,1.749,0,1,0,0-3.5H128.149a1.749,1.749,0,1,0,0,3.5Z" transform="translate(-94.002 -95.785)"/>
          <path id="Trazado_723453" data-name="Trazado 723453" d="M128.149,203.481h67.727a1.749,1.749,0,1,0,0-3.5H128.149a1.749,1.749,0,0,0,0,3.5Z" transform="translate(-94.002 -134.895)"/>
          <path id="Trazado_723454" data-name="Trazado 723454" d="M128.149,262.454h67.727a1.749,1.749,0,1,0,0-3.5H128.149a1.749,1.749,0,0,0,0,3.5Z" transform="translate(-94.002 -174.005)"/>
          <path id="Trazado_723455" data-name="Trazado 723455" d="M174.915,319.679a1.748,1.748,0,0,0-1.749-1.749H128.149a1.749,1.749,0,0,0,0,3.5h45.016A1.748,1.748,0,0,0,174.915,319.679Z" transform="translate(-94.002 -213.116)"/>
          <path id="Trazado_723456" data-name="Trazado 723456" d="M237.745,335.574c-2.462-.162-5.065,1.761-5.008,4.354.05,2.232,1.805,3.445,3.088,4.33,1.3.9,2.8,1.813,1.612,4.414a13.047,13.047,0,0,1-2.854,3.534c-1.4,1.38-4.04,3.558-4.967,1.823a4.873,4.873,0,0,1,.065-2.54c.891-5.166-2.012-6.884-4.622-6.134-3.15.894-3.848,3.637-4.109,6.634a13.779,13.779,0,0,1-.241,1.86c-.483,2.141-1.782,3.043-2.98-.842-.948-3.076-2.668-4.782-4.97-4.672-2.432.123-3.883,2.373-4.238,4.547-.243,1.464-.131,2.889-.572,3.821-.709,1.5-3.1,1.846-4.781,1.148-2.128-.888-3.776-2.977-5.232-4.82a1.749,1.749,0,1,0-2.746,2.166c1.633,2.07,3.667,4.646,6.632,5.883,3.276,1.366,7.676.53,9.29-2.88.793-1.677.638-3.4.861-4.75.145-.893.637-1.6.962-1.619h.012c.376,0,1.011.816,1.438,2.205,2.285,7.437,8.525,5.953,9.736.591a16.618,16.618,0,0,0,.316-2.337c.12-1.4.222-3.184,1.58-3.57.7-.2.369,1.3.219,2.174a7.27,7.27,0,0,0,.3,4.781c1.411,2.641,5.388,4.082,10.513-.98a15.932,15.932,0,0,0,3.577-4.569c1.689-3.7.509-6.455-2.806-8.745-.948-.654-1.57-1.114-1.578-1.531-.008-.293.636-.819,1.353-.781a7.02,7.02,0,0,1,3.257,1.5,1.749,1.749,0,0,0,1.947-2.907,10.071,10.071,0,0,0-5.047-2.093Z" transform="translate(-139.372 -224.811)"/>
          <path id="Trazado_723457" data-name="Trazado 723457" d="M448.893,411.7a1.748,1.748,0,0,0,1.749-1.749V384.4a1.749,1.749,0,0,0-3.5,0v25.551a1.748,1.748,0,0,0,1.749,1.749Z" transform="translate(-306.713 -256.036)"/>
          <path id="Trazado_723458" data-name="Trazado 723458" d="M442.565,158.5l-3.082-7.12a7.16,7.16,0,0,0-4.933-4.163v-2.051a1.749,1.749,0,1,0-3.5,0v2.052a7.155,7.155,0,0,0-4.926,4.161l-3.1,7.148a.041.041,0,0,0,0,.005.072.072,0,0,0,0,.008,2.031,2.031,0,0,0-.136.675c0,1.557,0,.063,0,97.931a8.156,8.156,0,0,0,8.148,8.146h3.546a8.156,8.156,0,0,0,8.148-8.146V159.217a3.07,3.07,0,0,0-.161-.715Zm-16.181,2.471h12.843v43.306H426.382Zm2.95-8.2a3.776,3.776,0,0,1,6.938,0l2.033,4.7H427.3Zm9.893,104.375a4.654,4.654,0,0,1-4.649,4.648h-3.546a4.654,4.654,0,0,1-4.649-4.648v-49.37h12.845v49.37Z" transform="translate(-290.624 -97.383)"/>
          <path id="Trazado_723459" data-name="Trazado 723459" d="M140.985,6.74H55.455A11.37,11.37,0,0,0,44.1,18.1v2.532H41.567A11.37,11.37,0,0,0,30.21,31.985V163.293A11.37,11.37,0,0,0,41.567,174.65H127.1a11.37,11.37,0,0,0,11.357-11.357v-2.532h2.532A11.37,11.37,0,0,0,152.342,149.4V18.1A11.37,11.37,0,0,0,140.985,6.74Zm-6.03,156.554a7.868,7.868,0,0,1-7.859,7.859H41.567a7.868,7.868,0,0,1-7.859-7.859V31.985a7.868,7.868,0,0,1,7.859-7.859H44.1V149.4a11.37,11.37,0,0,0,11.357,11.357h79.5Zm13.888-13.888a7.868,7.868,0,0,1-7.859,7.859H55.455a7.868,7.868,0,0,1-7.859-7.859V18.1a7.868,7.868,0,0,1,7.859-7.859h85.53a7.868,7.868,0,0,1,7.859,7.859V149.405Z" transform="translate(-30.21 -6.74)"/>
        </g>
      </g>
    </g>
  </g>
</svg>
