<svg id="tacometro" xmlns="http://www.w3.org/2000/svg" width="58.889" height="58.889" viewBox="0 0 58.889 58.889">
  <circle id="Elipse_5641" data-name="Elipse 5641" cx="28.582" cy="28.582" r="28.582" transform="translate(0.863 0.863)" fill="#e2dfe2"/>
  <path id="Trazado_723062" data-name="Trazado 723062" d="M37.917,64.606q-.911.057-1.836.058a28.582,28.582,0,1,1,0-57.163q.925,0,1.836.058a28.583,28.583,0,0,0,0,57.048Z" transform="translate(-6.637 -6.637)" fill="#cbcbcb"/>
  <circle id="Elipse_5642" data-name="Elipse 5642" cx="23.439" cy="23.439" r="23.439" transform="translate(6.005 6.005)" fill="#665e66"/>
  <path id="Trazado_723063" data-name="Trazado 723063" d="M142.914,361.435c7.757,0,14.737,2.4,14.737,5.358s-6.98,5.358-14.737,5.358-14.7-2.4-14.7-5.358S135.157,361.435,142.914,361.435Z" transform="translate(-113.47 -319.864)" fill="#6bbcd5"/>
  <path id="Trazado_723064" data-name="Trazado 723064" d="M107.263,88.1a19.315,19.315,0,0,0-16.2,29.6,3.5,3.5,0,0,0,5.437.617l.119-.119a3.519,3.519,0,0,0,.47-4.361,12.153,12.153,0,1,1,20.612.037,3.49,3.49,0,0,0,.493,4.324l.119.119a3.5,3.5,0,0,0,5.426-.6A19.315,19.315,0,0,0,107.263,88.1Z" transform="translate(-77.967 -77.967)" fill="#e2dfe2"/>
  <path id="Trazado_723065" data-name="Trazado 723065" d="M335.769,137.277l-5.062,5.062a12.158,12.158,0,0,1,1.7,15.057,3.491,3.491,0,0,0,.493,4.324l.12.12a3.5,3.5,0,0,0,5.426-.6,19.318,19.318,0,0,0-2.679-23.963Z" transform="translate(-292.67 -121.488)" fill="#da4a54"/>
  <path id="Trazado_723066" data-name="Trazado 723066" d="M220.584,121.084l-8.411,12.258a5.122,5.122,0,1,0,9.332,3.27l1.08-14.827A1.1,1.1,0,0,0,220.584,121.084Z" transform="translate(-186.974 -106.733)" fill="#ecbe6b"/>
  <circle id="Elipse_5643" data-name="Elipse 5643" cx="2.231" cy="2.231" r="2.231" transform="translate(27.214 27.214)" fill="#818181"/>
  <path id="Trazado_723067" data-name="Trazado 723067" d="M51.055,9.445a.863.863,0,1,0-1.266,1.172A27.734,27.734,0,1,1,47.372,8.3a.863.863,0,1,0,1.116-1.315,29.426,29.426,0,1,0,2.567,2.457Z" transform="translate(0)"/>
  <path id="Trazado_723068" data-name="Trazado 723068" d="M69.014,44.712a24.3,24.3,0,1,0,24.3,24.3,24.329,24.329,0,0,0-24.3-24.3ZM54.74,86.492a22.574,22.574,0,0,1,28.547,0,22.53,22.53,0,0,1-28.547,0ZM84.6,85.336a24.294,24.294,0,0,0-31.163,0,22.576,22.576,0,1,1,31.163,0Z" transform="translate(-39.569 -39.569)"/>
  <path id="Trazado_723069" data-name="Trazado 723069" d="M100.772,80.595h-.154A20.19,20.19,0,0,0,81.2,105.7a.863.863,0,1,0,1.673-.422,18.451,18.451,0,0,1,30.315-18.149l-3.848,3.848a13.018,13.018,0,0,0-1.78-1.312l.235-3.225a1.961,1.961,0,0,0-3.573-1.252h0l-1.83,2.667a13.063,13.063,0,0,0-1.5-.1h-.123a13.018,13.018,0,0,0-11.05,19.9,2.652,2.652,0,0,1-.348,3.3l-.119.12a2.638,2.638,0,0,1-4.1-.467,18.425,18.425,0,0,1-1.193-2.211.863.863,0,0,0-1.571.713A20.142,20.142,0,0,0,83.7,111.52a4.355,4.355,0,0,0,3.214,2.015,4.42,4.42,0,0,0,.49.027,4.33,4.33,0,0,0,3.072-1.276l.12-.12a4.37,4.37,0,0,0,.592-5.428,11.309,11.309,0,0,1,9.694-17.259c.131,0,.262.006.393.011l-5.459,7.955a5.985,5.985,0,1,0,10.9,3.821l.7-9.623a11.3,11.3,0,0,1,2.916,15.13,4.33,4.33,0,0,0,.614,5.392l.12.12a4.337,4.337,0,0,0,3.077,1.277,4.421,4.421,0,0,0,.489-.027,4.333,4.333,0,0,0,3.2-2,20.177,20.177,0,0,0-17.063-30.943Zm1.824,24.076a4.26,4.26,0,0,1-5.359-6.249l8.411-12.258a.236.236,0,0,1,.429.15L105,101.142a4.269,4.269,0,0,1-2.4,3.529Zm13.78,5.945a2.635,2.635,0,0,1-4.087.451l-.12-.12a2.613,2.613,0,0,1-.373-3.254A13.017,13.017,0,0,0,110.563,92.2l3.85-3.85a18.458,18.458,0,0,1,1.963,22.268Z" transform="translate(-71.328 -71.325)"/>
  <path id="Trazado_723070" data-name="Trazado 723070" d="M233.223,229.267a3.093,3.093,0,0,0-3.811,4.26h0a3.093,3.093,0,1,0,3.811-4.26Zm-.43,4.152a1.368,1.368,0,1,1,.64-1.826,1.359,1.359,0,0,1-.64,1.826Z" transform="translate(-202.756 -202.742)"/>
  <path id="Trazado_723071" data-name="Trazado 723071" d="M218.769,387.957a.863.863,0,0,0-.863.863v3.825a.863.863,0,1,0,1.725,0V388.82A.863.863,0,0,0,218.769,387.957Z" transform="translate(-192.843 -343.335)"/>
  <path id="Trazado_723072" data-name="Trazado 723072" d="M249.363,387.957a.863.863,0,0,0-.863.863v3.825a.863.863,0,1,0,1.725,0V388.82A.863.863,0,0,0,249.363,387.957Z" transform="translate(-219.918 -343.335)"/>
  <path id="Trazado_723073" data-name="Trazado 723073" d="M279.957,387.957a.863.863,0,0,0-.863.863v3.825a.863.863,0,1,0,1.725,0V388.82A.863.863,0,0,0,279.957,387.957Z" transform="translate(-246.993 -343.335)"/>
</svg>
