<svg xmlns="http://www.w3.org/2000/svg" width="55.265" height="68.751" viewBox="0 0 55.265 68.751">
  <g id="cronometro" transform="translate(-0.5 0)">
    <path id="Trazado_723074" data-name="Trazado 723074" d="M192.248,62.109a21.361,21.361,0,0,1,2.26.122v-7.7h-4.52v7.7a21.372,21.372,0,0,1,2.26-.122Zm0,0" transform="translate(-164.044 -47.209)" fill="#f4b537"/>
    <path id="Trazado_723075" data-name="Trazado 723075" d="M193.255,54.531h-3.267v7.7a21.37,21.37,0,0,1,2.26-.122c.337,0,.672.01,1.007.026Zm0,0" transform="translate(-164.044 -47.209)" fill="#e59d1f"/>
    <path id="Trazado_723076" data-name="Trazado 723076" d="M291.562,96.531l3.02-5.309-3.958-2.183L287.629,94.3A26.673,26.673,0,0,1,291.562,96.531Zm0,0" transform="translate(-248.574 -77.083)" fill="#f4b537"/>
    <path id="Trazado_723077" data-name="Trazado 723077" d="M291.536,93.317l1.635-2.874-2.547-1.4L287.629,94.3a26.7,26.7,0,0,1,3.933,2.229l.859-1.51q-.22-.117-.442-.231a1.063,1.063,0,0,1-.443-1.472Zm0,0" transform="translate(-248.574 -77.082)" fill="#e59d1f"/>
    <path id="Trazado_723078" data-name="Trazado 723078" d="M81.183,94.306l-2.994-5.263-3.959,2.182,3.02,5.309A26.618,26.618,0,0,1,81.183,94.306Zm0,0" transform="translate(-63.83 -77.086)" fill="#f4b537"/>
    <path id="Trazado_723079" data-name="Trazado 723079" d="M78.046,91.817a.676.676,0,0,1,.261-.926l.712-.392-.83-1.459-3.959,2.183,3.02,5.309a26.59,26.59,0,0,1,2.588-1.563Zm0,0" transform="translate(-63.83 -77.083)" fill="#e59d1f"/>
    <path id="Trazado_723080" data-name="Trazado 723080" d="M61.5,133.876A26.677,26.677,0,1,1,34.826,107.2,26.677,26.677,0,0,1,61.5,133.876Zm0,0" transform="translate(-6.621 -92.804)" fill="#54a0ff"/>
    <path id="Trazado_723081" data-name="Trazado 723081" d="M12.177,133.876a26.679,26.679,0,0,1,24.663-26.6q-1-.075-2.014-.075a26.677,26.677,0,1,0,0,53.355q1.016,0,2.014-.076a26.679,26.679,0,0,1-24.663-26.6Zm0,0" transform="translate(-6.622 -92.804)" fill="#338def"/>
    <path id="Trazado_723082" data-name="Trazado 723082" d="M86.177,163.08A22.147,22.147,0,1,1,64.03,140.933,22.147,22.147,0,0,1,86.177,163.08Zm0,0" transform="translate(-35.825 -122.008)" fill="#e4eaf8"/>
    <path id="Trazado_723083" data-name="Trazado 723083" d="M45.912,163.081a22.148,22.148,0,0,1,20.133-22.055c-.664-.06-1.335-.092-2.014-.092a22.147,22.147,0,1,0,0,44.294c.679,0,1.351-.032,2.014-.092a22.149,22.149,0,0,1-20.133-22.055Zm0,0" transform="translate(-35.826 -122.009)" fill="#d8dce5"/>
    <path id="Trazado_723084" data-name="Trazado 723084" d="M209.876,163.08h19.091a22.147,22.147,0,0,0-22.147-22.147v18.956a2.916,2.916,0,0,1,3.056,3.191Zm0,0" transform="translate(-178.616 -122.008)" fill="#ff6b6b"/>
    <path id="Trazado_723085" data-name="Trazado 723085" d="M210.848,141.3a22.259,22.259,0,0,0-4.028-.367V159.89a2.916,2.916,0,0,1,3.056,3.191h.972Zm0,0" transform="translate(-178.616 -122.009)" fill="#ee5253"/>
    <path id="Trazado_723086" data-name="Trazado 723086" d="M187.977,283.565a3.459,3.459,0,1,1-3.459-3.459A3.459,3.459,0,0,1,187.977,283.565Zm0,0" transform="translate(-156.313 -242.493)" fill="#576574"/>
    <path id="Trazado_723087" data-name="Trazado 723087" d="M185.087,283.565a3.454,3.454,0,0,1,1.445-2.811,3.459,3.459,0,1,0,0,5.623A3.455,3.455,0,0,1,185.087,283.565Zm0,0" transform="translate(-156.314 -242.493)" fill="#3e4b5a"/>
    <path id="Trazado_723088" data-name="Trazado 723088" d="M153.674,7.539H138.482a1.831,1.831,0,0,0-1.825,1.825v3.748a1.831,1.831,0,0,0,1.825,1.825h15.192a1.831,1.831,0,0,0,1.825-1.825V9.364A1.83,1.83,0,0,0,153.674,7.539Zm0,0" transform="translate(-117.873 -6.526)" fill="#feca57"/>
    <path id="Trazado_723089" data-name="Trazado 723089" d="M153.674,21.775H138.482a1.83,1.83,0,0,1-1.819-1.685c0,.046-.007.093-.007.14v3.748a1.831,1.831,0,0,0,1.825,1.825h15.192a1.831,1.831,0,0,0,1.825-1.825V20.23c0-.047,0-.094-.007-.14A1.83,1.83,0,0,1,153.674,21.775Zm0,0" transform="translate(-117.873 -17.392)" fill="#f4b537"/>
    <path id="Trazado_723090" data-name="Trazado 723090" d="M51.974,48.793l-5.369,2.959a.736.736,0,0,0-.289,1l2.233,4.05a.736.736,0,0,0,1,.29l5.368-2.959a.736.736,0,0,0,.29-1l-2.233-4.05a.736.736,0,0,0-1-.289Zm0,0" transform="translate(-39.585 -42.161)" fill="#feca57"/>
    <path id="Trazado_723091" data-name="Trazado 723091" d="M50.345,52.752a.736.736,0,0,1,.289-1l2.923-1.611-.583-1.058a.736.736,0,0,0-1-.29l-5.368,2.959a.736.736,0,0,0-.289,1l2.233,4.05a.736.736,0,0,0,1,.29l2.445-1.348Zm0,0" transform="translate(-39.585 -42.161)" fill="#f4b537"/>
    <path id="Trazado_723092" data-name="Trazado 723092" d="M303.168,48.793l5.368,2.959a.736.736,0,0,1,.289,1l-2.233,4.05a.736.736,0,0,1-1,.29l-5.368-2.959a.736.736,0,0,1-.289-1l2.233-4.05A.736.736,0,0,1,303.168,48.793Zm0,0" transform="translate(-259.148 -42.161)" fill="#feca57"/>
    <path id="Trazado_723093" data-name="Trazado 723093" d="M304.252,54.132a.736.736,0,0,1-.289-1l1.649-2.992-2.445-1.348a.737.737,0,0,0-1,.29l-2.233,4.05a.736.736,0,0,0,.29,1l5.368,2.959a.736.736,0,0,0,1-.29l.584-1.058Zm0,0" transform="translate(-259.147 -42.161)" fill="#f4b537"/>
    <path id="Trazado_723094" data-name="Trazado 723094" d="M57.392,133.395a23.154,23.154,0,1,0,23.154,23.154A23.177,23.177,0,0,0,57.392,133.395Zm21.115,22.147H61.744A4.49,4.49,0,0,0,58.4,152.2V135.434a20.978,20.978,0,0,1,8.676,2.328l-.893,1.547a1.007,1.007,0,0,0,1.745,1.007l.892-1.544a21.272,21.272,0,0,1,6.35,6.35l-1.544.892a1.007,1.007,0,1,0,1.007,1.744l1.547-.893a20.966,20.966,0,0,1,2.329,8.677ZM57.392,154.1a2.452,2.452,0,1,1-2.452,2.452A2.455,2.455,0,0,1,57.392,154.1Zm11.427,20.23-.892-1.545a1.007,1.007,0,1,0-1.745,1.007l.894,1.548a20.988,20.988,0,0,1-8.677,2.328v-1.79a1.007,1.007,0,1,0-2.014,0v1.79a20.993,20.993,0,0,1-8.677-2.328l.894-1.548a1.007,1.007,0,1,0-1.745-1.007l-.892,1.545a21.3,21.3,0,0,1-6.351-6.351l1.545-.892a1.007,1.007,0,1,0-1.007-1.745l-1.548.894a20.993,20.993,0,0,1-2.328-8.677h1.79a1.007,1.007,0,1,0,0-2.014h-1.79a20.989,20.989,0,0,1,2.328-8.677l1.548.893a1.007,1.007,0,1,0,1.007-1.744l-1.545-.892a21.3,21.3,0,0,1,6.351-6.351l.892,1.545A1.007,1.007,0,0,0,48.6,139.31l-.894-1.548a20.993,20.993,0,0,1,8.677-2.328V152.2a4.466,4.466,0,1,0,5.358,5.358H78.508a20.989,20.989,0,0,1-2.328,8.677l-1.548-.893a1.007,1.007,0,1,0-1.007,1.744l1.545.892a21.3,21.3,0,0,1-6.351,6.351Zm0,0" transform="translate(-29.208 -115.482)"/>
    <path id="Trazado_723095" data-name="Trazado 723095" d="M54.845,39.72a1.008,1.008,0,0,0,.916-1.091,27.708,27.708,0,0,0-11.208-19.89l1.569-2.846a1.743,1.743,0,0,0,2.185-.771l2.233-4.051A1.743,1.743,0,0,0,49.854,8.7L44.486,5.744a1.746,1.746,0,0,0-2.368.685L39.885,10.48a1.74,1.74,0,0,0,.514,2.259L38.866,15.52a27.592,27.592,0,0,0-7.414-1.945V9.414H35.78a2.836,2.836,0,0,0,2.833-2.832V2.833A2.836,2.836,0,0,0,35.781,0H30.534a1.007,1.007,0,0,0,0,2.014h5.246a.819.819,0,0,1,.818.818V6.581a.819.819,0,0,1-.818.818H20.588a.819.819,0,0,1-.818-.818V2.833a.819.819,0,0,1,.818-.818h5.246a1.007,1.007,0,0,0,0-2.014H20.588a2.835,2.835,0,0,0-2.832,2.832V6.581a2.836,2.836,0,0,0,2.832,2.832h4.329v4.162a27.466,27.466,0,0,0-7.412,1.95L15.97,12.739a1.746,1.746,0,0,0,.514-2.26L14.25,6.429a1.745,1.745,0,0,0-2.368-.685h0L6.515,8.7a1.743,1.743,0,0,0-.686,2.368l2.233,4.05a1.742,1.742,0,0,0,2.185.772l1.575,2.857A27.679,27.679,0,1,0,55.761,43.5a1.007,1.007,0,0,0-2.007-.175,25.669,25.669,0,1,1,0-4.525,1.007,1.007,0,0,0,1.091.916Zm-40.634-26,1.458,2.645c-.744.378-1.473.79-2.18,1.234l-1.472-2.67ZM7.724,10.337l4.893-2.7,1.971,3.576L9.7,13.912Zm36.027-2.7,4.893,2.7-1.971,3.575-4.893-2.7ZM40.7,16.368l1.458-2.645,2.194,1.21L42.88,17.6q-1.052-.661-2.157-1.222l-.023-.012ZM26.932,13.411v-4h2.506v4C28.6,13.373,27.782,13.372,26.932,13.411Zm0,0"/>
  </g>
</svg>
