<svg id="Grupo_959218" data-name="Grupo 959218" xmlns="http://www.w3.org/2000/svg" width="292.563" height="334.082" viewBox="0 0 292.563 334.082">
  <g id="Grupo_958773" data-name="Grupo 958773">
    <g id="Grupo_958727" data-name="Grupo 958727" transform="translate(102.315 51.469)">
      <g id="Grupo_958724" data-name="Grupo 958724" transform="translate(0.577 1.211)">
        <path id="Trazado_723186" data-name="Trazado 723186" d="M585.948,230.371c-18.6,7.78-52.359,33.168-52.147,41.955.394,16.212,36.753,37.338,43.875,42.1,3.037,2.032,16.194-25.795,12.993-28.033-2.789-1.95-23.412-11.284-23.179-14.2.095-1.2,12.471-14.485,23.347-30.783C599.168,228.932,591.456,228.068,585.948,230.371Z" transform="translate(-533.801 -229.365)" fill="#eb9481"/>
        <g id="Grupo_958723" data-name="Grupo 958723" transform="translate(38.389 53.698)">
          <g id="Grupo_958722" data-name="Grupo 958722">
            <g id="Grupo_958718" data-name="Grupo 958718">
              <g id="Grupo_958717" data-name="Grupo 958717">
                <path id="Trazado_723187" data-name="Trazado 723187" d="M525.676,274.032s3.019,1.961,11.451,4.382c6.588,1.893,20.749,10.93,23.011,30.06.867,7.331-3.9,11.139-6.15,3.685-1.587-5.251-2.235-9.027-3.233-10.595,0,0-3.105,7.8-7.832,8.951a89.653,89.653,0,0,1-12.568,2.124,18.866,18.866,0,0,1-.608-2.317,10.224,10.224,0,0,1-9.988-4.361l-6.366-3.967Z" transform="translate(-513.393 -274.032)" fill="#eb9481"/>
              </g>
            </g>
            <g id="Grupo_958721" data-name="Grupo 958721" transform="translate(12.865 7.786)">
              <path id="Trazado_723188" data-name="Trazado 723188" d="M536.468,280.509c2.022,2.969,6.2,9.335,7.809,15.732,1.785,7.1,3.31,21.274-1.949,22.537-3.855.927-4.913-4.431-4.913-4.431s-.6,5.989-4.27,6.064c-3.341.068-3.911-4.125-3.911-4.125s-.991,3.569-4.222,3.016c-3.885-.666-1.171-8.039-4.524-12.114C519.735,306.273,536.468,280.509,536.468,280.509Z" transform="translate(-520.464 -280.509)" fill="#eb9481"/>
              <g id="Grupo_958719" data-name="Grupo 958719" transform="translate(15.924 16.346)">
                <path id="Trazado_723189" data-name="Trazado 723189" d="M526.819,294.126a29.177,29.177,0,0,1,1.072,17.368c-.042.144-.173.19-.163.05a71.939,71.939,0,0,0-.975-17.4C526.744,294.1,526.8,294.092,526.819,294.126Z" transform="translate(-526.752 -294.106)" fill="#263238"/>
              </g>
              <g id="Grupo_958720" data-name="Grupo 958720" transform="translate(8.738 18.355)">
                <path id="Trazado_723190" data-name="Trazado 723190" d="M533.415,295.8c.97,2.806,2.12,11.008.034,17.4-.047.143-.182.18-.166.041a77.069,77.069,0,0,0,.064-17.429C533.341,295.772,533.4,295.764,533.415,295.8Z" transform="translate(-533.281 -295.777)" fill="#263238"/>
              </g>
            </g>
          </g>
        </g>
      </g>
      <g id="Grupo_958726" data-name="Grupo 958726" transform="translate(0)">
        <g id="Grupo_958725" data-name="Grupo 958725">
          <path id="Trazado_723191" data-name="Trazado 723191" d="M588.719,285.456l-24.279,28.5s-34.526-27.455-31.515-42.972c1.969-10.148,34.525-32.869,48.812-39.489s17.2-2.677,9.137,11.031-22.925,29.876-22.925,30.244S588.719,285.456,588.719,285.456Z" transform="translate(-532.74 -228.356)" fill="#ffc727"/>
          <path id="Trazado_723192" data-name="Trazado 723192" d="M543.063,246.755l19.836,16.7c2.6-3.126,5.746-7.009,8.812-11.132l-16.6-13.981C551.142,240.925,547.006,243.8,543.063,246.755Z" transform="translate(-521.565 -226.339)" fill="#ebebeb"/>
          <path id="Trazado_723193" data-name="Trazado 723193" d="M532.742,281.665c7.417,14.919,29.261,32.29,29.261,32.29l24.275-28.5s-20.765-12.312-20.765-12.672,14.859-16.542,22.913-30.247c7-11.9,5.734-16.446-4.051-13.116Z" transform="translate(-530.298 -228.357)" opacity="0.1"/>
        </g>
      </g>
    </g>
    <g id="Grupo_958742" data-name="Grupo 958742" transform="translate(0 129.102)">
      <g id="Grupo_958734" data-name="Grupo 958734" transform="translate(0)">
        <g id="Grupo_958731" data-name="Grupo 958731" transform="translate(0 124.502)">
          <path id="Trazado_723194" data-name="Trazado 723194" d="M572.666,468.647c.529-2.793,38.338-70.012,41.4-71.654,1.154-.644,11.27,4.294,23.322,10.612l.375.2c2.486,1.3,51.476,8.7,51.476,8.7l-24.589,44.007-50.794-9.062-.726-.43s-25.981,19.256-29.543,20.709C580.048,473.16,572.127,471.436,572.666,468.647Z" transform="translate(-572.338 -396.411)" fill="#eb9481"/>
          <path id="Trazado_723195" data-name="Trazado 723195" d="M682.181,409.782l-24.59,43.235-8.81-1.577-.731-.427s-25.983,19.258-29.54,20.709-11.471-.289-10.924-3.07c.522-2.8,38.337-70.02,41.394-71.655,1.159-.649,11.278,4.285,23.334,10.609.114.063.239.138.367.2C673.3,408.131,681.931,409.692,682.181,409.782Z" transform="translate(-607.256 -396.41)" fill="#ebebeb"/>
          <g id="Grupo_958730" data-name="Grupo 958730">
            <path id="Trazado_723196" data-name="Trazado 723196" d="M615.7,469.064c.53-2.819,38.474-70.829,41.56-72.509,1.167-.643,11.394,4.305,23.583,10.636L656.507,451.11s-26.175,19.541-29.758,21.019S615.169,471.883,615.7,469.064Z" transform="translate(-615.675 -396.499)" fill="#455a64"/>
            <g id="Grupo_958729" data-name="Grupo 958729" transform="translate(3.058 4.173)">
              <g id="Grupo_958728" data-name="Grupo 958728" transform="translate(0)">
                <path id="Trazado_723197" data-name="Trazado 723197" d="M635.7,468.9c6.641-11.244,32.362-57.223,38.073-68.843.047-.094-.017-.129-.071-.04-6.826,11-32.175,57.189-38.189,68.78C635.382,469.046,635.555,469.142,635.7,468.9Z" transform="translate(-635.465 -399.97)" fill="#263238"/>
                <path id="Trazado_723198" data-name="Trazado 723198" d="M659.128,459.316a10.485,10.485,0,0,0,1.022-8.373A10.159,10.159,0,0,0,655.484,445c-.069-.036-.141.089-.077.137a12.118,12.118,0,0,1,3.578,14.1A.082.082,0,0,0,659.128,459.316Z" transform="translate(-646.225 -390.868)" fill="#263238"/>
                <path id="Trazado_723199" data-name="Trazado 723199" d="M637.144,447.723c2.61-4.527,3.95-10.716,1.8-15.634-.084-.19-.354-.07-.358.1a72.22,72.22,0,0,1-2.048,15.3A.329.329,0,0,0,637.144,447.723Z" transform="translate(-602.971 -393.496)" fill="#263238"/>
                <path id="Trazado_723200" data-name="Trazado 723200" d="M639.921,450.017c2.61-4.529,3.95-10.716,1.8-15.634-.083-.191-.352-.07-.358.1a72.151,72.151,0,0,1-2.047,15.3A.329.329,0,0,0,639.921,450.017Z" transform="translate(-609.087 -393.033)" fill="#263238"/>
                <path id="Trazado_723201" data-name="Trazado 723201" d="M642.7,452.31c2.609-4.529,3.95-10.717,1.8-15.634-.083-.191-.352-.07-.359.1a72.141,72.141,0,0,1-2.047,15.3A.329.329,0,0,0,642.7,452.31Z" transform="translate(-615.203 -392.569)" fill="#263238"/>
                <path id="Trazado_723202" data-name="Trazado 723202" d="M645.475,454.6c2.609-4.529,3.95-10.717,1.8-15.634-.083-.191-.352-.07-.358.1a72.3,72.3,0,0,1-2.047,15.294A.329.329,0,0,0,645.475,454.6Z" transform="translate(-621.318 -392.106)" fill="#263238"/>
              </g>
              <path id="Trazado_723203" data-name="Trazado 723203" d="M631.077,453.832c-1.8-4.235-1.711-9.1-2.146-13.605a.64.64,0,0,1,.827-.616.137.137,0,0,1,.209-.07,27.41,27.41,0,0,1,9.356,10.657c1.195,2.534,1.442,6.488-1.761,7.729C634.531,459.1,632.129,456.3,631.077,453.832Zm3.662,2.32c5.217,2.317,3.9-4.291,2.949-6.123a29.418,29.418,0,0,0-2.148-3.384,82.142,82.142,0,0,0-5.327-6.344c.349,2.2.506,4.407.774,6.617C631.305,449.551,631.862,454.875,634.739,456.152Z" transform="translate(-593.965 -391.975)" fill="#263238"/>
              <path id="Trazado_723204" data-name="Trazado 723204" d="M639.006,427.535c2.78,2.02,1.527,5.779-.275,7.922a27.429,27.429,0,0,1-11.77,7.908.137.137,0,0,1-.185-.121c-.391-.016-.806-.365-.642-.805,1.572-4.241,2.728-8.971,5.555-12.6C633.34,427.715,636.376,425.625,639.006,427.535Zm-9.174,8.96c-.823,2.068-1.541,4.163-2.442,6.2a82.355,82.355,0,0,0,6.773-4.77,29.326,29.326,0,0,0,2.942-2.722c1.392-1.527,4.354-7.577-1.283-6.674C632.716,429.027,630.815,434.032,629.833,436.5Z" transform="translate(-591.051 -394.549)" fill="#263238"/>
            </g>
          </g>
        </g>
        <g id="Grupo_958733" data-name="Grupo 958733" transform="translate(52.64)">
          <path id="Trazado_723205" data-name="Trazado 723205" d="M627.148,292.94s.981,27.424-3.128,40.928c0,0-4.487,2.36-5.828,3.2,0,0,34.067,81.576,32.127,112.96-.637,10.291-12.292,27.2-24.061,34.522-20.829,12.961-120.36-3.038-120.36-3.038l12.613-56.495s66.645,8.954,68.269,5.474c2.059-4.413-13.1-44.1-23.323-71.976-1.033-2.817-11.316-13.207-10.119-32.005,1.168-18.3,10.628-33.571,10.628-33.571Z" transform="translate(-505.897 -292.934)" fill="#ffc727"/>
          <path id="Trazado_723206" data-name="Trazado 723206" d="M578.533,462.981c4.484.517,9.257,1.022,14.161,1.491l11.1-57.139c-4.568-.421-9.425-.926-14.173-1.443Z" transform="translate(-546.611 -270.099)" fill="#ebebeb"/>
          <g id="Grupo_958732" data-name="Grupo 958732" transform="translate(11.135 4.842)">
            <path id="Trazado_723207" data-name="Trazado 723207" d="M553.114,431c14.954.977,54.051,4.539,55.816,4.539a15.583,15.583,0,0,0,3.661-.328,4.547,4.547,0,0,0,2.82-1.677c.932-1.39.431-3.157.109-4.662-.7-3.3-1.5-6.576-2.371-9.835-3.532-13.247-8.593-29.78-12.934-42.777q-3.354-10.04-6.707-20.082c-.544-1.627-1.088-3.257-1.772-4.832a41.332,41.332,0,0,0-2.2-4.2,39.237,39.237,0,0,1-3.81-8.272c-3.793-12.469-.145-25.372,4.288-37.134q.894-2.371,1.857-4.714c.044-.107.214-.061.177.054C588,309.5,583.183,322.417,585.9,335.669a31.89,31.89,0,0,0,3.239,8.916c.775,1.422,1.627,2.8,2.384,4.233a35.089,35.089,0,0,1,1.957,4.521c2.374,6.583,4.479,13.273,6.706,19.907,4.431,13.2,9.539,29.948,13.231,43.376.92,3.343,1.772,6.706,2.526,10.09.555,2.492,1.8,5.888-.371,7.954-1.593,1.512-4.1,1.7-6.177,1.714-3.495.023-50.719-4-56.289-4.89C552.79,431.439,552.8,430.98,553.114,431Z" transform="translate(-539.91 -296.963)" opacity="0.1"/>
            <path id="Trazado_723208" data-name="Trazado 723208" d="M607.992,454.392c1.04-5.912,4.69-21.339,5.128-23.214.937-4,4.917-21.025,5.3-21.777.042-.084.2-.034.2.047.017,1.325-3.9,20.48-4.233,21.911-1.02,4.412-5.075,19.791-5.973,23.088C608.366,454.632,607.958,454.588,607.992,454.392Z" transform="translate(-607.99 -274.24)" opacity="0.1"/>
          </g>
          <path id="Trazado_723209" data-name="Trazado 723209" d="M601.074,392.881,528.9,366.74c-1.013-2.776-2.027-5.525-3.013-8.222-1.04-2.815-11.315-13.21-10.118-32.009,1.158-18.3,10.62-33.574,10.62-33.574h63.18s.992,27.43-3.126,40.928c0,0-4.486,2.368-5.828,3.211C580.616,337.074,591.865,364,601.074,392.881Z" transform="translate(-468.325 -292.935)" opacity="0.1"/>
        </g>
      </g>
      <g id="Grupo_958741" data-name="Grupo 958741" transform="translate(99.976 0.006)">
        <g id="Grupo_958738" data-name="Grupo 958738" transform="translate(106.477 124.954)">
          <path id="Trazado_723210" data-name="Trazado 723210" d="M511.039,476.408c-2.723.819-79.8-1.731-82.674-3.694-1.1-.727-1.387-11.981-1.339-25.587l.006-.427c0-2.8,6.375-49.82,6.375-49.82l50.742,1.627-7.371,49.284-.047.843s29.068,14.172,32,16.663C511.638,467.778,513.762,475.6,511.039,476.408Z" transform="translate(-426.787 -396.88)" fill="#eb9481"/>
          <path id="Trazado_723211" data-name="Trazado 723211" d="M511.04,469.778c-2.723.816-79.8-1.737-82.672-3.7-1.1-.737-1.394-11.986-1.342-25.588v-.434c.013-.763.487-4.842,1.171-10.354l50.611,1.973-2.027,9.473-.052.842s29.074,14.182,32.008,16.669C511.633,461.148,513.764,468.963,511.04,469.778Z" transform="translate(-426.789 -390.244)" fill="#ebebeb"/>
          <g id="Grupo_958737" data-name="Grupo 958737" transform="translate(0 38.526)">
            <path id="Trazado_723212" data-name="Trazado 723212" d="M511.361,468.288c-2.749.82-80.585-1.773-83.491-3.747-1.106-.743-1.39-12.1-1.343-25.835l50.187,1.526s29.357,14.321,32.312,16.829C511.964,459.569,514.11,467.468,511.361,468.288Z" transform="translate(-426.522 -426.95)" fill="#455a64"/>
            <g id="Grupo_958736" data-name="Grupo 958736" transform="translate(5.11)">
              <g id="Grupo_958735" data-name="Grupo 958735" transform="translate(0 14.723)">
                <path id="Trazado_723213" data-name="Trazado 723213" d="M506.968,461.087c-13.038-.755-65.692-2.569-78.635-2.324-.106,0-.108.073,0,.08,12.905,1.031,65.573,2.419,78.63,2.457C507.236,461.3,507.243,461.1,506.968,461.087Z" transform="translate(-428.252 -437.623)" fill="#263238"/>
                <path id="Trazado_723214" data-name="Trazado 723214" d="M444.6,451.51a10.49,10.49,0,0,0-7.911,2.926,10.154,10.154,0,0,0-3.147,6.869c0,.078.143.085.158,0a12.118,12.118,0,0,1,10.9-9.637A.082.082,0,0,0,444.6,451.51Z" transform="translate(-372.123 -439.089)" fill="#263238"/>
                <path id="Trazado_723215" data-name="Trazado 723215" d="M466.726,441.2c-5.22-.246-11.336,1.4-14.723,5.559-.131.161.1.345.257.271a72.164,72.164,0,0,1,14.534-5.183A.329.329,0,0,0,466.726,441.2Z" transform="translate(-416.626 -441.174)" fill="#263238"/>
                <path id="Trazado_723216" data-name="Trazado 723216" d="M463.416,442.618c-5.22-.246-11.335,1.394-14.723,5.558-.131.161.1.345.257.27a72.133,72.133,0,0,1,14.534-5.183A.328.328,0,0,0,463.416,442.618Z" transform="translate(-409.337 -440.887)" fill="#263238"/>
                <path id="Trazado_723217" data-name="Trazado 723217" d="M460.106,444.037c-5.22-.246-11.335,1.395-14.723,5.558-.131.161.1.345.257.271a72.137,72.137,0,0,1,14.534-5.183A.328.328,0,0,0,460.106,444.037Z" transform="translate(-402.048 -440.6)" fill="#263238"/>
                <path id="Trazado_723218" data-name="Trazado 723218" d="M456.8,445.456c-5.22-.248-11.335,1.395-14.723,5.558-.132.161.1.346.257.27a72.33,72.33,0,0,1,14.534-5.182A.328.328,0,0,0,456.8,445.456Z" transform="translate(-394.759 -440.313)" fill="#263238"/>
              </g>
              <path id="Trazado_723219" data-name="Trazado 723219" d="M458.252,437.568c-2.939,3.542-7.309,5.688-11.113,8.136a.639.639,0,0,1-.926-.453.137.137,0,0,1-.157-.155,27.413,27.413,0,0,1,5.19-13.2c1.706-2.222,5.108-4.253,7.678-1.973C461.355,432.084,459.969,435.5,458.252,437.568Zm.386-4.318c-.331-5.7-5.6-1.505-6.793.182a29.678,29.678,0,0,0-2.026,3.46,82.034,82.034,0,0,0-3.2,7.64c1.795-1.318,3.687-2.469,5.529-3.718C454.341,439.323,458.82,436.392,458.638,433.25Z" transform="translate(-402.716 -428.927)" fill="#263238"/>
              <path id="Trazado_723220" data-name="Trazado 723220" d="M456.9,439.7c.523-3.4,4.437-4,7.169-3.383a27.408,27.408,0,0,1,12.42,6.843.137.137,0,0,1-.023.22.637.637,0,0,1-.422.939c-4.491.544-9.224,1.683-13.749.833C459.654,444.655,456.4,442.91,456.9,439.7Zm12.166,4.052c2.214-.215,4.406-.536,6.629-.668a82.313,82.313,0,0,0-7.342-3.836,29.608,29.608,0,0,0-3.766-1.37c-2-.537-8.73-.4-5.346,4.2C461.106,444.608,466.424,444.005,469.065,443.751Z" transform="translate(-431.994 -427.477)" fill="#263238"/>
            </g>
          </g>
        </g>
        <g id="Grupo_958740" data-name="Grupo 958740" transform="translate(0)">
          <path id="Trazado_723221" data-name="Trazado 723221" d="M605.035,468.176,551.664,466.6s10.158-83.728,6.581-89.094c-1.569-2.354-79.926,5.5-102.852-19.33-20.96-22.7.37-65.237.37-65.237H520.08s1.314,18.232,4.773,25.517c1.485,3.126,73.334-1.325,84.58,19.2C624.461,365.094,605.035,468.176,605.035,468.176Z" transform="translate(-446.172 -292.94)" fill="#ffc727"/>
          <path id="Trazado_723222" data-name="Trazado 723222" d="M449.743,420.592l54.579,1.3c.649-4.328,1.31-9.1,1.971-14.15l-55.083-1.31C450.717,411.359,450.212,416.155,449.743,420.592Z" transform="translate(-341.622 -269.996)" fill="#ebebeb"/>
          <g id="Grupo_958739" data-name="Grupo 958739" transform="translate(7.342 3.831)">
            <path id="Trazado_723223" data-name="Trazado 723223" d="M455.883,428.8c6-.08,21.839.632,23.763.714,4.108.174,21.573.914,22.383,1.147.091.026.072.195-.007.21-1.3.263-20.849-.018-22.317-.077-4.524-.18-20.39-1.3-23.8-1.568C455.717,429.212,455.684,428.8,455.883,428.8Z" transform="translate(-351.98 -269.305)" opacity="0.1"/>
            <path id="Trazado_723224" data-name="Trazado 723224" d="M546.924,319.558c1.53.05,12.4-.414,15.891-3.489,3.128-2.753,6.779-10.911,7.238-13.487.021-.114.218-.1.2.016-.391,2.692-1.67,10.9-6.341,14.82-3.875,3.245-14.213,3.063-17.06,2.439C546.657,319.814,546.74,319.552,546.924,319.558Z" transform="translate(-529.533 -294.838)" opacity="0.1"/>
            <path id="Trazado_723225" data-name="Trazado 723225" d="M598.517,372.978a3.528,3.528,0,0,0-2.959-2.806,29.091,29.091,0,0,0-5.219-.1c-4.021.037-8.043.084-12.064.093-15.84.032-31.814-.415-47.391-3.534a110.586,110.586,0,0,1-22.158-6.689c-6.046-2.616-12.09-6.2-15.858-11.764-4.336-6.4-4.677-14.778-4.527-22.265a85.32,85.32,0,0,1,3.881-23.828q.923-2.941,2.085-5.8c.049-.12-.128-.221-.18-.1a82.532,82.532,0,0,0-6.285,22.994,79.888,79.888,0,0,0-.535,11.746,45.27,45.27,0,0,0,1.487,11.406c4.105,14.013,19.81,19.8,32.51,23.364,15.28,4.282,31.224,5.471,47.029,5.707,7.946.119,15.9.025,23.841-.107,1.52-.026,4.017-.45,4.917,1.143a8.734,8.734,0,0,1,.71,2.889c.177,1.119.3,2.246.383,3.375a95.477,95.477,0,0,1-.168,12.677q-.758,12.866-1.78,25.716c-.683,8.612-2.214,20.79-2.841,29.406-.154,2.111-.36,4.216-.562,6.322-.023.24.394.289.426.047,2.207-17.028,4.357-37.707,5.476-54.842.277-4.23.588-8.468.7-12.708A45.644,45.644,0,0,0,598.517,372.978Z" transform="translate(-487.274 -296.127)" opacity="0.1"/>
          </g>
          <path id="Trazado_723226" data-name="Trazado 723226" d="M523.653,305.334,594.81,308.1c-1.358-7.417-1.911-15.159-1.911-15.159H528.582A99.4,99.4,0,0,0,523.653,305.334Z" transform="translate(-518.991 -292.94)" opacity="0.1"/>
        </g>
      </g>
    </g>
    <g id="Grupo_958772" data-name="Grupo 958772" transform="translate(103.68)">
      <g id="Grupo_958745" data-name="Grupo 958745" transform="translate(0 50.313)">
        <g id="Grupo_958744" data-name="Grupo 958744">
          <g id="Grupo_958743" data-name="Grupo 958743">
            <path id="Trazado_723227" data-name="Trazado 723227" d="M520.2,314.312c0-.006,69.357,5.046,69.363,5.042.054-.034,4.453-2.534,5.489-7.035,3.246-14.092,1.928-46.906-.956-73.36-1.2-11.028-14.973-14.894-25.005-8.414-24,15.5-45.251,62.474-51.1,77.51C516.94,310.769,520.183,314.469,520.2,314.312Z" transform="translate(-517.785 -227.395)" fill="#ffc727"/>
          </g>
          <path id="Trazado_723228" data-name="Trazado 723228" d="M517.973,265.793l60.758,4.244c-.156-4.664-.409-9.473-.721-14.282l-51.585-3.594C523.431,256.6,520.606,261.2,517.973,265.793Z" transform="translate(-499.788 -222.389)" fill="#ebebeb"/>
        </g>
      </g>
      <g id="Grupo_958759" data-name="Grupo 958759" transform="translate(58.826)">
        <g id="Grupo_958747" data-name="Grupo 958747" transform="translate(0 36.497)">
          <g id="Grupo_958746" data-name="Grupo 958746">
            <path id="Trazado_723229" data-name="Trazado 723229" d="M526.838,245.853c-3.992-.2-10.5-6.857-11.62-12.969-.073-.42,1.708-3.977,3.67-8.4,1.181-2.69,2.431-5.714,3.372-8.555.191-.585,16.387,10.235,16.387,10.235a47.735,47.735,0,0,0-5.339,10.34,6.685,6.685,0,0,0-.263,1.207c-.012.055-.018.125-.039.2C532.634,240.243,531.11,246.065,526.838,245.853Z" transform="translate(-515.216 -215.903)" fill="#eb9481"/>
          </g>
          <path id="Trazado_723230" data-name="Trazado 723230" d="M525.812,237.668c-.018.058-.026.131-.047.2a12.584,12.584,0,0,1-1.855-.509c-10.412-3.709-8.829-17.755-8.26-21.259,3.016,1.5,15.758,10.021,15.758,10.021a47.8,47.8,0,0,0-5.342,10.343A6.562,6.562,0,0,0,525.812,237.668Z" transform="translate(-507.977 -215.863)" fill="#263238"/>
        </g>
        <g id="Grupo_958758" data-name="Grupo 958758" transform="translate(3.514)">
          <g id="Grupo_958748" data-name="Grupo 958748" transform="translate(3.285 6.756)">
            <path id="Trazado_723231" data-name="Trazado 723231" d="M506.773,197.71c-3.84,5.8-5.938,25.241-2.618,30.7,4.814,7.912,15.419,11.677,22.828,5.268,7.183-6.212,9.468-31.591,5.506-36.83C526.652,189.129,512.446,189.135,506.773,197.71Z" transform="translate(-502.503 -191.164)" fill="#eb9481"/>
          </g>
          <g id="Grupo_958754" data-name="Grupo 958754" transform="translate(18.829 23.289)">
            <g id="Grupo_958749" data-name="Grupo 958749" transform="translate(0.474 4.858)">
              <path id="Trazado_723232" data-name="Trazado 723232" d="M515.073,210.229c0-.052-.109.05-.114.1-.106,1.313-.449,2.8-1.682,3.1-.038.01-.042.076,0,.075C514.747,213.467,515.182,211.49,515.073,210.229Z" transform="translate(-512.106 -208.704)" fill="#263238"/>
              <path id="Trazado_723233" data-name="Trazado 723233" d="M515.2,208.984c-2.086-.4-2.728,3.8-.795,4.174C516.312,213.52,516.953,209.317,515.2,208.984Z" transform="translate(-513.252 -208.958)" fill="#263238"/>
            </g>
            <g id="Grupo_958750" data-name="Grupo 958750" transform="translate(10.658 6.561)">
              <path id="Trazado_723234" data-name="Trazado 723234" d="M506.542,211.362c.017-.048.093.077.083.13-.24,1.3-.3,2.819.814,3.432.035.018.022.083-.022.071C506.012,214.573,506.107,212.551,506.542,211.362Z" transform="translate(-506.257 -210.177)" fill="#263238"/>
              <path id="Trazado_723235" data-name="Trazado 723235" d="M506.295,210.378c2.118.161,1.641,4.384-.321,4.235C504.043,214.467,504.52,210.243,506.295,210.378Z" transform="translate(-504.64 -210.374)" fill="#263238"/>
            </g>
            <path id="Trazado_723236" data-name="Trazado 723236" d="M513.308,207.628a16.573,16.573,0,0,0,1.714-.326,2.808,2.808,0,0,0,1.685-.665.9.9,0,0,0,.022-1.1,2.228,2.228,0,0,0-2.187-.565,3.277,3.277,0,0,0-2.079,1.114A.96.96,0,0,0,513.308,207.628Z" transform="translate(-512.246 -204.917)" fill="#263238"/>
            <path id="Trazado_723237" data-name="Trazado 723237" d="M506.408,209.348a16.834,16.834,0,0,1-1.6-.688,2.828,2.828,0,0,1-1.5-1.013.9.9,0,0,1,.216-1.077,2.229,2.229,0,0,1,2.256-.079,3.272,3.272,0,0,1,1.789,1.539A.959.959,0,0,1,506.408,209.348Z" transform="translate(-492.148 -204.652)" fill="#263238"/>
            <path id="Trazado_723238" data-name="Trazado 723238" d="M513.862,220.129c.265.352.512.819.979.93a3.463,3.463,0,0,0,1.449-.114.047.047,0,0,1,.047.076,1.771,1.771,0,0,1-1.76.454,1.4,1.4,0,0,1-.849-1.307C513.719,220.09,513.823,220.078,513.862,220.129Z" transform="translate(-513.469 -201.847)" fill="#263238"/>
            <g id="Grupo_958752" data-name="Grupo 958752" transform="translate(2.339 1.335)">
              <g id="Grupo_958751" data-name="Grupo 958751">
                <path id="Trazado_723239" data-name="Trazado 723239" d="M507.374,219.285a4.478,4.478,0,0,0,2.657,2.424,5.628,5.628,0,0,0,1.583.316,1.5,1.5,0,0,0,.31.012c.1,0,.184,0,.292,0a.328.328,0,0,0,.305-.251v-.01a.631.631,0,0,0,.008-.136v-.01l.014-.114c.18-1,.316-2.537.316-2.537.338.239,2.077,1.363,2.128.836a67.462,67.462,0,0,0,.327-13.676.122.122,0,0,0-.243,0c-.553,4.188-.367,8.446-.855,12.662a7.852,7.852,0,0,0-2-.955c-.148.02-.208,2.979-.326,3.421a.168.168,0,0,1-.016.047,6.215,6.215,0,0,1-4.37-2.124C507.428,219.1,507.312,219.169,507.374,219.285Z" transform="translate(-507.357 -206.027)" fill="#263238"/>
              </g>
            </g>
            <g id="Grupo_958753" data-name="Grupo 958753" transform="translate(1.49 14.56)">
              <path id="Trazado_723240" data-name="Trazado 723240" d="M515.655,219.2a5.332,5.332,0,0,1-2.355,1.31,2.4,2.4,0,0,1-1.45-.13c-1-.432-.879-1.39-.562-2.177a5.7,5.7,0,0,1,.656-1.178A6.885,6.885,0,0,0,515.655,219.2Z" transform="translate(-511.062 -217.028)" fill="#263238"/>
              <path id="Trazado_723241" data-name="Trazado 723241" d="M515.257,220.315a2.4,2.4,0,0,1-1.45-.13c-1-.432-.879-1.39-.562-2.177A2.472,2.472,0,0,1,515.257,220.315Z" transform="translate(-513.018 -216.83)" fill="#ff99ba"/>
            </g>
          </g>
          <path id="Trazado_723242" data-name="Trazado 723242" d="M502.048,213.623c2.53,1.539,5.625-1.113,6.812-2.626s2.638-11.38,4.7-13.569,5.317-2.807,7.387-1.5,4.152,5.1,5.863,5.418,3.129-3.177,4.291-2.85c2.556.721,3.473,7.785,3.143,10.716,0,0,3.834-12.572-8.093-17.125-11.635-4.44-18.349,2.493-20.406,5.8C501.8,204.214,502.048,213.623,502.048,213.623Z" transform="translate(-499.075 -184.512)" fill="#263238"/>
          <g id="Grupo_958755" data-name="Grupo 958755" transform="translate(0 23.463)">
            <path id="Trazado_723243" data-name="Trazado 723243" d="M533.079,211.518s-2.545-7.149-5.677-6.4-2.368,10.306.5,12.373a3.369,3.369,0,0,0,4.833-.549Z" transform="translate(-525.378 -205.061)" fill="#eb9481"/>
            <path id="Trazado_723244" data-name="Trazado 723244" d="M526.977,207.382c-.05-.018-.079.051-.041.082,1.991,1.523,2.6,3.924,2.832,6.3a1.86,1.86,0,0,0-2.549-1.229c-.068.026-.038.133.029.137a2.072,2.072,0,0,1,2.008,1.3,10,10,0,0,1,.564,2.068c.049.23.441.221.428-.03l0-.056C531.085,213.118,529.964,208.512,526.977,207.382Z" transform="translate(-524.665 -204.593)" fill="#263238"/>
          </g>
          <g id="Grupo_958757" data-name="Grupo 958757" transform="translate(0.605)">
            <path id="Trazado_723245" data-name="Trazado 723245" d="M536.083,207.7s1.315-19.885-16.407-21.2-19.349,18.551-19.349,18.551Z" transform="translate(-498.892 -185.363)" fill="#ffc727"/>
            <rect id="Rectángulo_340216" data-name="Rectángulo 340216" width="38.522" height="2.824" transform="translate(38.417 23.839) rotate(-175.768)" fill="#ffc727"/>
            <g id="Grupo_958756" data-name="Grupo 958756" transform="translate(19.262)">
              <path id="Trazado_723246" data-name="Trazado 723246" d="M508.679,205.165l8,.592-.441-19.622-8-.592Z" transform="translate(-508.238 -185.544)" fill="#ffc727"/>
              <path id="Trazado_723247" data-name="Trazado 723247" d="M508.679,205.165l8,.592-.441-19.622-8-.592Z" transform="translate(-508.238 -185.544)" opacity="0.1"/>
            </g>
          </g>
        </g>
      </g>
      <g id="Grupo_958771" data-name="Grupo 958771" transform="translate(44.454 55.202)">
        <g id="Grupo_958770" data-name="Grupo 958770" transform="translate(0)">
          <g id="Grupo_958767" data-name="Grupo 958767" transform="translate(1.354 2.077)">
            <path id="Trazado_723248" data-name="Trazado 723248" d="M493.249,239.479c-6.367,20.569-6.26,65.928.333,72.608,10.185,10.32,54.082-5.7,62.863-8.272,3.742-1.1-10.772-29.632-14.8-28.544-3.508.95-24.545,10.157-26.771,7.974-.916-.9-3.325-20.135-9.23-40.205C501.122,227.665,495.133,233.391,493.249,239.479Z" transform="translate(-488.554 -233.19)" fill="#eb9481"/>
            <g id="Grupo_958766" data-name="Grupo 958766" transform="translate(45.805 30.729)">
              <g id="Grupo_958765" data-name="Grupo 958765">
                <g id="Grupo_958761" data-name="Grupo 958761">
                  <g id="Grupo_958760" data-name="Grupo 958760">
                    <path id="Trazado_723249" data-name="Trazado 723249" d="M460.5,273.608s3.524-1.533,10.648-7.616c5.565-4.752,21.955-12.04,40.323-2.784,7.037,3.545,7.623,10.032-.343,7.647-5.611-1.681-9.354-3.328-11.338-3.362,0,0,5.118,7.361,3.356,12.248a95.509,95.509,0,0,1-5.511,12.443,20.207,20.207,0,0,1-2.421-.822,10.916,10.916,0,0,1-9.768,6.325l-6.711,2.181Z" transform="translate(-460.496 -258.752)" fill="#eb9481"/>
                  </g>
                </g>
                <g id="Grupo_958764" data-name="Grupo 958764" transform="translate(16.704 4.662)">
                  <path id="Trazado_723250" data-name="Trazado 723250" d="M462.158,262.641c3.835-.052,11.965-.024,18.608,2.313,7.379,2.594,20.894,9.582,18.922,15.009-1.446,3.98-6.84,1.765-6.84,1.765s4.977,4.066,2.885,7.375c-1.907,3.015-5.977,1.053-5.977,1.053s2.6,2.985.2,5.536c-2.883,3.068-7.848-3.692-13.452-3.106C475.244,292.717,462.158,262.641,462.158,262.641Z" transform="translate(-462.158 -262.63)" fill="#eb9481"/>
                  <g id="Grupo_958762" data-name="Grupo 958762" transform="translate(14.521 9.662)">
                    <path id="Trazado_723251" data-name="Trazado 723251" d="M468.026,270.667a31.165,31.165,0,0,1,16.1,9.276c.1.123.067.266-.05.176A76.788,76.788,0,0,0,468,270.737C467.961,270.721,467.985,270.662,468.026,270.667Z" transform="translate(-467.98 -270.667)" fill="#263238"/>
                  </g>
                  <g id="Grupo_958763" data-name="Grupo 958763" transform="translate(12.116 17.187)">
                    <path id="Trazado_723252" data-name="Trazado 723252" d="M470.516,276.927c3.07.79,11.053,4.6,15.515,10.218.1.126.053.268-.061.172A82.291,82.291,0,0,0,470.487,277C470.449,276.977,470.476,276.916,470.516,276.927Z" transform="translate(-470.469 -276.926)" fill="#263238"/>
                  </g>
                </g>
              </g>
            </g>
          </g>
          <g id="Grupo_958769" data-name="Grupo 958769" transform="translate(0)">
            <path id="Trazado_723253" data-name="Trazado 723253" d="M542.243,277.118l14.966,32.889s-52.725,15.472-59.112,6.469-4.162-56.724.2-72.961,9.584-15.923,15.293.069,8.777,39.239,9.079,39.491S542.243,277.118,542.243,277.118Z" transform="translate(-494.04 -231.463)" fill="#ffc727"/>
            <path id="Trazado_723254" data-name="Trazado 723254" d="M523.705,276.87l27.458-4.809c-.613-3.57-1.491-8.535-2.657-13.933l-24.1,4.22C524.054,267.084,523.813,272.013,523.705,276.87Z" transform="translate(-523.565 -226.072)" fill="#ebebeb"/>
            <path id="Trazado_723255" data-name="Trazado 723255" d="M536.262,269.44s-24.511,7.558-29.7,9.448" transform="translate(-488.059 -223.785)" fill="none" stroke="#263238" stroke-miterlimit="10" stroke-width="1"/>
            <g id="Grupo_958768" data-name="Grupo 958768" transform="translate(0 25.638)">
              <path id="Trazado_723256" data-name="Trazado 723256" d="M508.543,252.789s-5.417,52.142,2.187,59.375,41.958-2,44.016-2.5" transform="translate(-506.673 -252.789)" fill="none" stroke="#263238" stroke-miterlimit="10" stroke-width="1"/>
              <path id="Trazado_723257" data-name="Trazado 723257" d="M545.89,256.268s-.268,6.4.832,9.147" transform="translate(-545.759 -252.086)" fill="none" stroke="#263238" stroke-miterlimit="10" stroke-width="0.75"/>
            </g>
            <path id="Trazado_723258" data-name="Trazado 723258" d="M529.271,279.459c-.234-1.069-5.306-25.43-6.421-30.113" transform="translate(-500.645 -227.847)" fill="none" stroke="#263238" stroke-miterlimit="10" stroke-width="1"/>
            <path id="Trazado_723259" data-name="Trazado 723259" d="M526.159,250.768a27.231,27.231,0,0,1-.125,8.339" transform="translate(-501.636 -227.56)" fill="none" stroke="#263238" stroke-miterlimit="10" stroke-width="0.75"/>
          </g>
        </g>
      </g>
    </g>
  </g>
</svg>
