<svg xmlns="http://www.w3.org/2000/svg" xmlns:xlink="http://www.w3.org/1999/xlink" width="610" height="224.046" viewBox="0 0 610 224.046">
  <defs>
    <clipPath id="clip-path">
      <circle id="SVGID" cx="90.305" cy="90.305" r="90.305" fill="#fff"/>
    </clipPath>
  </defs>
  <g id="Grupo_959217" data-name="Grupo 959217" transform="translate(-810 -4275)">
    <rect id="Rectángulo_340168" data-name="Rectángulo 340168" width="610" height="216" transform="translate(810 4275)" fill="#f3f9ff"/>
    <g id="Grupo_959146" data-name="Grupo 959146" transform="translate(739.931 4051.767)">
      <g id="Grupo_958995" data-name="Grupo 958995" transform="translate(103.07 243.234)">
        <g id="Grupo_958839" data-name="Grupo 958839" transform="translate(12.266 0)">
          <g id="Grupo_958838" data-name="Grupo 958838">
            <g id="Grupo_958837" data-name="Grupo 958837">
              <path id="Trazado_723367" data-name="Trazado 723367" d="M301.668,264.766q.209-.037.415-.081c3.967-.849,6.7-3.372,8.934-6.608,2.252-3.267,4.6-7.011,8.443-7.995,6.338-1.622,12.672,5.276,18.935,3.384,5.5-1.662,7.9-9.363,13.613-10.024,4.708-.545,8.856,4.2,13.551,3.559,3.337-.456,5.926-3.559,9.288-3.757,5.587-.329,8.561,7.07,13.94,8.618,2.824.813,5.952-.123,8.739.808a6.663,6.663,0,0,1,1.288,12.137c-2.106,1.474-7.021,5.088-8.682,1.275a9.207,9.207,0,0,1-.537-2.851c-.221-2.371-1.224-4.317-3.82-4.431a5.44,5.44,0,0,0-5.037,2.816c-1.5,3.092-.175,6.877,1.956,9.573s4.994,4.732,7.2,7.368c5.762,6.889,6.2,16.637,6.374,25.617.065,3.423.114,6.941-1.084,10.148s-3.949,6.075-7.361,6.362c-3.715.313-7.6-2.375-10.975-.783-6.134,2.9-.854,13.687-5.553,18.578-3.322,3.457-9.137,1.562-13.234-.928s-8.947-5.487-13.32-3.521c-3.749,1.685-5.176,6.469-4.543,10.531s2.807,7.686,4.462,11.448,2.806,8.1,1.322,11.936c-1.991,5.14-7.944,7.51-13.4,8.265s-11.221.523-16.189,2.911c-7.106,3.415-10.833,11.275-16.812,16.414-8.843,7.6-21.476,8.458-33.135,8.658q-22.765.39-45.524-.708c-6.165-.3-12.8-.859-17.507-4.853-7.067-6-5.784-19.069,2.315-23.58-11.431-6.143-17.851-20.377-14.89-33.012,1.575-6.718,5.474-13.662,2.925-20.074-2.657-6.683-11.645-10.286-11.918-17.473-.209-5.512,5.067-9.636,10.194-11.671s10.909-3.164,14.8-7.078c3.5-3.522,4.753-8.605,6.507-13.247s4.66-9.486,9.463-10.734c9.831-2.554,18.786,11.519,28.337,8.061,5-1.808,7.183-7.592,11.172-11.1,4.848-4.265,12.128-4.782,18.318-2.944,5.164,1.533,9.493,4.472,13.885,7.459A9.134,9.134,0,0,0,301.668,264.766Z" transform="translate(-181.835 -243.234)" fill="#e5e6eb"/>
            </g>
          </g>
        </g>
        <g id="Grupo_958909" data-name="Grupo 958909" transform="translate(65.827 16.385)">
          <g id="Grupo_958842" data-name="Grupo 958842" transform="translate(0 108.956)">
            <g id="Grupo_958841" data-name="Grupo 958841">
              <g id="Grupo_958840" data-name="Grupo 958840">
                <rect id="Rectángulo_340221" data-name="Rectángulo 340221" width="182.341" height="71.629" fill="#84a9ff"/>
              </g>
            </g>
          </g>
          <g id="Grupo_958870" data-name="Grupo 958870" transform="translate(52.329 70.316)">
            <g id="Grupo_958845" data-name="Grupo 958845" transform="translate(1.14 1.14)">
              <g id="Grupo_958844" data-name="Grupo 958844">
                <g id="Grupo_958843" data-name="Grupo 958843">
                  <path id="Trazado_723368" data-name="Trazado 723368" d="M872.232,871.535h-3.115V818.2a10.913,10.913,0,0,1,10.9-10.9H934.2v3.115H880.018a7.8,7.8,0,0,0-7.786,7.786Z" transform="translate(-869.117 -807.295)" fill="#155bcd"/>
                </g>
              </g>
            </g>
            <g id="Grupo_958848" data-name="Grupo 958848" transform="translate(28.267 23.267)">
              <g id="Grupo_958847" data-name="Grupo 958847">
                <g id="Grupo_958846" data-name="Grupo 958846">
                  <path id="Trazado_723369" data-name="Trazado 723369" d="M1046.425,991.5h-3.115V960.287a10.913,10.913,0,0,1,10.9-10.9h28.634V952.5h-28.634a7.8,7.8,0,0,0-7.786,7.786Z" transform="translate(-1043.31 -949.386)" fill="#155bcd"/>
                </g>
              </g>
            </g>
            <g id="Grupo_958851" data-name="Grupo 958851" transform="translate(88.187 13.431)">
              <g id="Grupo_958850" data-name="Grupo 958850">
                <g id="Grupo_958849" data-name="Grupo 958849">
                  <path id="Trazado_723370" data-name="Trazado 723370" d="M1465.922,911.435h-3.115V897.127a7.8,7.8,0,0,0-7.786-7.786h-16.035a7.8,7.8,0,0,0-7.786,7.786v14.308h-3.115V897.127a10.913,10.913,0,0,1,10.9-10.9h16.035a10.913,10.913,0,0,1,10.9,10.9Z" transform="translate(-1428.085 -886.226)" fill="#155bcd"/>
                </g>
              </g>
            </g>
            <g id="Grupo_958854" data-name="Grupo 958854" transform="translate(58.607)">
              <g id="Grupo_958853" data-name="Grupo 958853">
                <g id="Grupo_958852" data-name="Grupo 958852">
                  <rect id="Rectángulo_340222" data-name="Rectángulo 340222" width="7.62" height="5.394" fill="#050f64"/>
                </g>
              </g>
            </g>
            <g id="Grupo_958857" data-name="Grupo 958857" transform="translate(58.235 22.128)">
              <g id="Grupo_958856" data-name="Grupo 958856">
                <g id="Grupo_958855" data-name="Grupo 958855">
                  <rect id="Rectángulo_340223" data-name="Rectángulo 340223" width="7.62" height="5.394" fill="#050f64"/>
                </g>
              </g>
            </g>
            <g id="Grupo_958860" data-name="Grupo 958860" transform="translate(0 50.65)">
              <g id="Grupo_958859" data-name="Grupo 958859" transform="translate(0 0)">
                <g id="Grupo_958858" data-name="Grupo 958858">
                  <rect id="Rectángulo_340224" data-name="Rectángulo 340224" width="7.62" height="5.394" transform="translate(0 7.62) rotate(-90)" fill="#050f64"/>
                </g>
              </g>
            </g>
            <g id="Grupo_958863" data-name="Grupo 958863" transform="translate(27.127 50.65)">
              <g id="Grupo_958862" data-name="Grupo 958862" transform="translate(0 0)">
                <g id="Grupo_958861" data-name="Grupo 958861">
                  <rect id="Rectángulo_340225" data-name="Rectángulo 340225" width="7.62" height="5.394" transform="translate(0 7.62) rotate(-90)" fill="#050f64"/>
                </g>
              </g>
            </g>
            <g id="Grupo_958866" data-name="Grupo 958866" transform="translate(87.047 31.021)">
              <g id="Grupo_958865" data-name="Grupo 958865" transform="translate(0 0)">
                <g id="Grupo_958864" data-name="Grupo 958864">
                  <rect id="Rectángulo_340226" data-name="Rectángulo 340226" width="7.62" height="5.394" transform="translate(0 7.62) rotate(-90)" fill="#050f64"/>
                </g>
              </g>
            </g>
            <g id="Grupo_958869" data-name="Grupo 958869" transform="translate(121.77 31.021)">
              <g id="Grupo_958868" data-name="Grupo 958868" transform="translate(0 0)">
                <g id="Grupo_958867" data-name="Grupo 958867">
                  <rect id="Rectángulo_340227" data-name="Rectángulo 340227" width="7.62" height="5.394" transform="translate(0 7.62) rotate(-90)" fill="#050f64"/>
                </g>
              </g>
            </g>
          </g>
          <g id="Grupo_958883" data-name="Grupo 958883" transform="translate(113.344)">
            <g id="Grupo_958873" data-name="Grupo 958873">
              <g id="Grupo_958872" data-name="Grupo 958872">
                <g id="Grupo_958871" data-name="Grupo 958871">
                  <path id="Trazado_723371" data-name="Trazado 723371" d="M1280.07,529.061H1253.6c1.652-20.181,2.78-39.35,3.551-57.666q.453-10.738.751-21.1.353-12,.539-23.527.182-10.734.26-21.1.1-11.988.112-23.527.023-10.717.02-21.1,0-6.358.012-12.6h15.979q.012,6.246.012,12.6,0,10.386.02,21.1.021,11.549.112,23.527.084,10.367.26,21.1.2,11.535.539,23.527.3,10.362.75,21.1C1277.291,489.712,1278.419,508.88,1280.07,529.061Z" transform="translate(-1253.601 -348.45)" fill="#155bcd"/>
                </g>
              </g>
            </g>
            <g id="Grupo_958876" data-name="Grupo 958876" transform="translate(5.212 12.605)">
              <g id="Grupo_958875" data-name="Grupo 958875">
                <g id="Grupo_958874" data-name="Grupo 958874">
                  <path id="Trazado_723372" data-name="Trazado 723372" d="M1303.116,450.485h-16.045q.023-10.717.02-21.1h16Q1303.1,439.776,1303.116,450.485Z" transform="translate(-1287.071 -429.39)" fill="#050f64"/>
                </g>
              </g>
            </g>
            <g id="Grupo_958879" data-name="Grupo 958879" transform="translate(4.84 57.227)">
              <g id="Grupo_958878" data-name="Grupo 958878">
                <g id="Grupo_958877" data-name="Grupo 958877">
                  <path id="Trazado_723373" data-name="Trazado 723373" d="M1284.681,737.025h16.789q-.182-10.734-.26-21.1h-16.269Z" transform="translate(-1284.681 -715.93)" fill="#050f64"/>
                </g>
              </g>
            </g>
            <g id="Grupo_958882" data-name="Grupo 958882" transform="translate(3.551 101.85)">
              <g id="Grupo_958881" data-name="Grupo 958881">
                <g id="Grupo_958880" data-name="Grupo 958880">
                  <path id="Trazado_723374" data-name="Trazado 723374" d="M1295.769,1023.565H1276.4q.453-10.738.75-21.095h17.867Q1295.322,1012.832,1295.769,1023.565Z" transform="translate(-1276.401 -1002.47)" fill="#050f64"/>
                </g>
              </g>
            </g>
          </g>
          <g id="Grupo_958896" data-name="Grupo 958896" transform="translate(146.619)">
            <g id="Grupo_958886" data-name="Grupo 958886">
              <g id="Grupo_958885" data-name="Grupo 958885">
                <g id="Grupo_958884" data-name="Grupo 958884">
                  <path id="Trazado_723375" data-name="Trazado 723375" d="M1493.747,529.061h-26.469c1.652-20.181,2.78-39.35,3.551-57.666q.453-10.738.751-21.1.353-12,.539-23.527.182-10.734.26-21.1.1-11.988.112-23.527.024-10.717.02-21.1,0-6.358.012-12.6H1488.5q.012,6.246.012,12.6,0,10.386.02,21.1.021,11.549.112,23.527.084,10.367.26,21.1.2,11.535.539,23.527.3,10.362.751,21.1C1490.967,489.712,1492.1,508.88,1493.747,529.061Z" transform="translate(-1467.278 -348.45)" fill="#155bcd"/>
                </g>
              </g>
            </g>
            <g id="Grupo_958889" data-name="Grupo 958889" transform="translate(5.212 12.605)">
              <g id="Grupo_958888" data-name="Grupo 958888">
                <g id="Grupo_958887" data-name="Grupo 958887">
                  <path id="Trazado_723376" data-name="Trazado 723376" d="M1516.793,450.485h-16.045q.023-10.717.02-21.1h16Q1516.777,439.776,1516.793,450.485Z" transform="translate(-1500.748 -429.39)" fill="#050f64"/>
                </g>
              </g>
            </g>
            <g id="Grupo_958892" data-name="Grupo 958892" transform="translate(4.84 57.227)">
              <g id="Grupo_958891" data-name="Grupo 958891">
                <g id="Grupo_958890" data-name="Grupo 958890">
                  <path id="Trazado_723377" data-name="Trazado 723377" d="M1498.358,737.025h16.789q-.182-10.734-.26-21.1h-16.269Z" transform="translate(-1498.358 -715.93)" fill="#050f64"/>
                </g>
              </g>
            </g>
            <g id="Grupo_958895" data-name="Grupo 958895" transform="translate(3.551 101.85)">
              <g id="Grupo_958894" data-name="Grupo 958894">
                <g id="Grupo_958893" data-name="Grupo 958893">
                  <path id="Trazado_723378" data-name="Trazado 723378" d="M1509.446,1023.565h-19.368q.453-10.738.751-21.095H1508.7Q1509,1012.832,1509.446,1023.565Z" transform="translate(-1490.078 -1002.47)" fill="#050f64"/>
                </g>
              </g>
            </g>
          </g>
          <g id="Grupo_958899" data-name="Grupo 958899" transform="translate(11.815 128.585)">
            <g id="Grupo_958898" data-name="Grupo 958898">
              <g id="Grupo_958897" data-name="Grupo 958897">
                <rect id="Rectángulo_340228" data-name="Rectángulo 340228" width="85.368" height="52.001" fill="#155bcd"/>
              </g>
            </g>
          </g>
          <g id="Grupo_958902" data-name="Grupo 958902" transform="translate(78.56 137.863)">
            <g id="Grupo_958901" data-name="Grupo 958901">
              <g id="Grupo_958900" data-name="Grupo 958900">
                <rect id="Rectángulo_340229" data-name="Rectángulo 340229" width="12.579" height="5.915" fill="#ffbd00"/>
              </g>
            </g>
          </g>
          <g id="Grupo_958905" data-name="Grupo 958905" transform="translate(59.937 137.863)">
            <g id="Grupo_958904" data-name="Grupo 958904">
              <g id="Grupo_958903" data-name="Grupo 958903">
                <rect id="Rectángulo_340230" data-name="Rectángulo 340230" width="12.579" height="5.915" fill="#ffbd00"/>
              </g>
            </g>
          </g>
          <g id="Grupo_958908" data-name="Grupo 958908" transform="translate(41.315 137.863)">
            <g id="Grupo_958907" data-name="Grupo 958907">
              <g id="Grupo_958906" data-name="Grupo 958906">
                <rect id="Rectángulo_340231" data-name="Rectángulo 340231" width="12.579" height="5.915" fill="#ffbd00"/>
              </g>
            </g>
          </g>
        </g>
        <g id="Grupo_958951" data-name="Grupo 958951" transform="translate(0 9.024)">
          <g id="Grupo_958913" data-name="Grupo 958913" transform="translate(30.968 62.968)">
            <g id="Grupo_958912" data-name="Grupo 958912">
              <g id="Grupo_958911" data-name="Grupo 958911">
                <g id="Grupo_958910" data-name="Grupo 958910">
                  <rect id="Rectángulo_340232" data-name="Rectángulo 340232" width="14.868" height="124.979" fill="#155bcd"/>
                </g>
              </g>
            </g>
          </g>
          <g id="Grupo_958917" data-name="Grupo 958917" transform="translate(33.088 62.083)">
            <g id="Grupo_958916" data-name="Grupo 958916">
              <g id="Grupo_958915" data-name="Grupo 958915">
                <g id="Grupo_958914" data-name="Grupo 958914">
                  <path id="Trazado_723379" data-name="Trazado 723379" d="M326.169,825.707H324.4V701.612h-7.092V825.707h-1.769V699.843h10.63Z" transform="translate(-315.539 -699.843)" fill="#fff"/>
                </g>
              </g>
            </g>
          </g>
          <g id="Grupo_958921" data-name="Grupo 958921">
            <g id="Grupo_958920" data-name="Grupo 958920">
              <g id="Grupo_958919" data-name="Grupo 958919">
                <g id="Grupo_958918" data-name="Grupo 958918">
                  <path id="Trazado_723380" data-name="Trazado 723380" d="M139.135,377.017l-35.1-35.1a3.3,3.3,0,0,1,0-4.673l35.1-35.1a3.3,3.3,0,0,1,4.673,0l35.1,35.1a3.3,3.3,0,0,1,0,4.673l-35.1,35.1A3.3,3.3,0,0,1,139.135,377.017Z" transform="translate(-103.07 -301.18)" fill="#ffbd00"/>
                </g>
              </g>
            </g>
          </g>
          <g id="Grupo_958925" data-name="Grupo 958925" transform="translate(4.885 4.885)">
            <g id="Grupo_958924" data-name="Grupo 958924">
              <g id="Grupo_958923" data-name="Grupo 958923">
                <g id="Grupo_958922" data-name="Grupo 958922">
                  <path id="Trazado_723381" data-name="Trazado 723381" d="M168.294,399.245l-.514-.039-.307-.1-.148-.148-32.887-32.891,33.518-33.518,33.518,33.518Zm-31.354-33.179,31.014,31.018,31.018-31.018-31.016-31.016Z" transform="translate(-134.438 -332.548)" fill="#fff"/>
                </g>
              </g>
            </g>
          </g>
          <g id="Grupo_958934" data-name="Grupo 958934" transform="translate(36.28 11.715)">
            <g id="Grupo_958929" data-name="Grupo 958929" transform="translate(0)">
              <g id="Grupo_958928" data-name="Grupo 958928">
                <g id="Grupo_958927" data-name="Grupo 958927">
                  <g id="Grupo_958926" data-name="Grupo 958926">
                    <circle id="Elipse_5708" data-name="Elipse 5708" cx="2.123" cy="2.123" r="2.123" fill="#dca000"/>
                  </g>
                </g>
              </g>
            </g>
            <g id="Grupo_958933" data-name="Grupo 958933" transform="translate(0 49.131)">
              <g id="Grupo_958932" data-name="Grupo 958932">
                <g id="Grupo_958931" data-name="Grupo 958931">
                  <g id="Grupo_958930" data-name="Grupo 958930">
                    <circle id="Elipse_5709" data-name="Elipse 5709" cx="2.123" cy="2.123" r="2.123" fill="#dca000"/>
                  </g>
                </g>
              </g>
            </g>
          </g>
          <g id="Grupo_958950" data-name="Grupo 958950" transform="translate(24.209 22.482)">
            <g id="Grupo_958937" data-name="Grupo 958937">
              <g id="Grupo_958936" data-name="Grupo 958936">
                <g id="Grupo_958935" data-name="Grupo 958935">
                  <path id="Trazado_723382" data-name="Trazado 723382" d="M263.366,453.377l1.4,1.4a10.517,10.517,0,0,1,3.014-2.963l-1.421-1.421a2.837,2.837,0,1,0-4.839-1.85,2.837,2.837,0,1,0,1.849,4.839Z" transform="translate(-258.523 -445.546)" fill="#fff"/>
                </g>
              </g>
            </g>
            <g id="Grupo_958940" data-name="Grupo 958940" transform="translate(0 20.887)">
              <g id="Grupo_958939" data-name="Grupo 958939">
                <g id="Grupo_958938" data-name="Grupo 958938">
                  <path id="Trazado_723383" data-name="Trazado 723383" d="M264.762,579.669l-1.4,1.4a2.837,2.837,0,1,0-1.849,4.838,2.837,2.837,0,1,0,4.839-1.849l1.421-1.421A10.507,10.507,0,0,1,264.762,579.669Z" transform="translate(-258.523 -579.669)" fill="#fff"/>
                </g>
              </g>
            </g>
            <g id="Grupo_958943" data-name="Grupo 958943" transform="translate(20.764 20.739)">
              <g id="Grupo_958942" data-name="Grupo 958942">
                <g id="Grupo_958941" data-name="Grupo 958941">
                  <path id="Trazado_723384" data-name="Trazado 723384" d="M396.366,580.266l-1.544-1.543a10.514,10.514,0,0,1-2.964,3.013l1.519,1.519a5.383,5.383,0,1,0,2.989-2.988Z" transform="translate(-391.858 -578.723)" fill="#fff"/>
                </g>
              </g>
            </g>
            <g id="Grupo_958946" data-name="Grupo 958946" transform="translate(20.764)">
              <g id="Grupo_958945" data-name="Grupo 958945">
                <g id="Grupo_958944" data-name="Grupo 958944">
                  <path id="Trazado_723385" data-name="Trazado 723385" d="M394.822,454.921l1.544-1.543a5.382,5.382,0,1,0-2.989-2.988l-1.519,1.519A10.517,10.517,0,0,1,394.822,454.921Z" transform="translate(-391.858 -445.546)" fill="#fff"/>
                </g>
              </g>
            </g>
            <g id="Grupo_958949" data-name="Grupo 958949" transform="translate(6.46 5.999)">
              <g id="Grupo_958948" data-name="Grupo 958948">
                <g id="Grupo_958947" data-name="Grupo 958947">
                  <path id="Trazado_723386" data-name="Trazado 723386" d="M317.2,492.106a8.617,8.617,0,0,0-17.2,0,7.938,7.938,0,0,0,4.086,6.846l.437,2.784a18.847,18.847,0,0,0,8.148,0l.437-2.784A7.939,7.939,0,0,0,317.2,492.106Zm-14.662,1.351a2.519,2.519,0,1,1,2.5,2.186A2.357,2.357,0,0,1,302.537,493.457Zm7.352,6.015-1.143-.314a.542.542,0,0,0-.291,0l-1.143.314a.549.549,0,0,1-.621-.8l1.434-2.483a.549.549,0,0,1,.95,0l1.433,2.483A.549.549,0,0,1,309.889,499.472Zm2.279-3.829a2.205,2.205,0,1,1,2.5-2.186A2.357,2.357,0,0,1,312.168,495.643Z" transform="translate(-300.003 -484.065)" fill="#fff"/>
                </g>
              </g>
            </g>
          </g>
        </g>
        <g id="Grupo_958994" data-name="Grupo 958994" transform="translate(50.183 92.267)">
          <g id="Grupo_958954" data-name="Grupo 958954" transform="translate(1.754)">
            <g id="Grupo_958953" data-name="Grupo 958953">
              <g id="Grupo_958952" data-name="Grupo 958952">
                <rect id="Rectángulo_340233" data-name="Rectángulo 340233" width="62.02" height="103.615" fill="#155bcd"/>
              </g>
            </g>
          </g>
          <g id="Grupo_958961" data-name="Grupo 958961" transform="translate(12.281 31.324)">
            <g id="Grupo_958957" data-name="Grupo 958957" transform="translate(0 0)">
              <g id="Grupo_958956" data-name="Grupo 958956">
                <g id="Grupo_958955" data-name="Grupo 958955">
                  <circle id="Elipse_5710" data-name="Elipse 5710" cx="14.484" cy="14.484" r="14.484" transform="translate(0 20.483) rotate(-45)" fill="#fff"/>
                </g>
              </g>
            </g>
            <g id="Grupo_958960" data-name="Grupo 958960" transform="translate(15.47 11.403)">
              <g id="Grupo_958959" data-name="Grupo 958959">
                <g id="Grupo_958958" data-name="Grupo 958958">
                  <path id="Trazado_723387" data-name="Trazado 723387" d="M608.523,1128.253h0a5.009,5.009,0,0,1-4.631-6.916l4.631-11.244,4.631,11.244A5.009,5.009,0,0,1,608.523,1128.253Z" transform="translate(-603.509 -1110.093)" fill="#050f64"/>
                </g>
              </g>
            </g>
          </g>
          <g id="Grupo_958974" data-name="Grupo 958974">
            <g id="Grupo_958964" data-name="Grupo 958964" transform="translate(0 101.51)">
              <g id="Grupo_958963" data-name="Grupo 958963">
                <g id="Grupo_958962" data-name="Grupo 958962">
                  <path id="Rectángulo_340234" data-name="Rectángulo 340234" d="M1.432,0H64.1a1.431,1.431,0,0,1,1.431,1.431v.356A1.432,1.432,0,0,1,64.1,3.219H1.431A1.431,1.431,0,0,1,0,1.787V1.432A1.432,1.432,0,0,1,1.432,0Z" fill="#050f64"/>
                </g>
              </g>
            </g>
            <g id="Grupo_958967" data-name="Grupo 958967" transform="translate(0 78.79)">
              <g id="Grupo_958966" data-name="Grupo 958966">
                <g id="Grupo_958965" data-name="Grupo 958965">
                  <rect id="Rectángulo_340235" data-name="Rectángulo 340235" width="65.528" height="3.219" rx="1.431" fill="#050f64"/>
                </g>
              </g>
            </g>
            <g id="Grupo_958970" data-name="Grupo 958970" transform="translate(0 22.72)">
              <g id="Grupo_958969" data-name="Grupo 958969">
                <g id="Grupo_958968" data-name="Grupo 958968">
                  <rect id="Rectángulo_340236" data-name="Rectángulo 340236" width="65.528" height="3.219" rx="1.431" fill="#050f64"/>
                </g>
              </g>
            </g>
            <g id="Grupo_958973" data-name="Grupo 958973">
              <g id="Grupo_958972" data-name="Grupo 958972">
                <g id="Grupo_958971" data-name="Grupo 958971">
                  <path id="Rectángulo_340237" data-name="Rectángulo 340237" d="M1.432,0H64.1a1.431,1.431,0,0,1,1.431,1.431v.356A1.432,1.432,0,0,1,64.1,3.219H1.431A1.431,1.431,0,0,1,0,1.787V1.432A1.432,1.432,0,0,1,1.432,0Z" fill="#050f64"/>
                </g>
              </g>
            </g>
          </g>
          <g id="Grupo_958990" data-name="Grupo 958990" transform="translate(6.681 25.725)">
            <g id="Grupo_958977" data-name="Grupo 958977" transform="translate(0 0)">
              <g id="Grupo_958976" data-name="Grupo 958976">
                <g id="Grupo_958975" data-name="Grupo 958975">
                  <circle id="Elipse_5711" data-name="Elipse 5711" cx="18.443" cy="18.443" r="18.443" transform="translate(0 26.083) rotate(-45)" fill="#ffbd00"/>
                </g>
              </g>
            </g>
            <g id="Grupo_958980" data-name="Grupo 958980" transform="translate(10.069 12.258)">
              <g id="Grupo_958979" data-name="Grupo 958979">
                <g id="Grupo_958978" data-name="Grupo 958978">
                  <path id="Trazado_723388" data-name="Trazado 723388" d="M547.222,1090.743a3.168,3.168,0,0,0-1.511,2.616H532.869a16.073,16.073,0,0,1,7.932-13.737Z" transform="translate(-532.869 -1079.622)" fill="#050f64"/>
                </g>
              </g>
            </g>
            <g id="Grupo_958983" data-name="Grupo 958983" transform="translate(18.156 28.875)">
              <g id="Grupo_958982" data-name="Grupo 958982">
                <g id="Grupo_958981" data-name="Grupo 958981">
                  <path id="Trazado_723389" data-name="Trazado 723389" d="M600.661,1197.446a15.992,15.992,0,0,1-15.859-.007l6.415-11.114a3.167,3.167,0,0,0,3.023,0Z" transform="translate(-584.802 -1186.325)" fill="#050f64"/>
                </g>
              </g>
            </g>
            <g id="Grupo_958986" data-name="Grupo 958986" transform="translate(27.745 12.256)">
              <g id="Grupo_958985" data-name="Grupo 958985">
                <g id="Grupo_958984" data-name="Grupo 958984">
                  <path id="Trazado_723390" data-name="Trazado 723390" d="M660.727,1093.35H647.885a3.167,3.167,0,0,0-1.511-2.616l6.423-11.123a16.028,16.028,0,0,1,7.93,13.739Z" transform="translate(-646.374 -1079.611)" fill="#050f64"/>
                </g>
              </g>
            </g>
            <g id="Grupo_958989" data-name="Grupo 958989" transform="translate(22.681 22.681)">
              <g id="Grupo_958988" data-name="Grupo 958988" transform="translate(0 0)">
                <g id="Grupo_958987" data-name="Grupo 958987">
                  <circle id="Elipse_5712" data-name="Elipse 5712" cx="2.432" cy="2.432" r="2.432" transform="translate(0 3.91) rotate(-53.491)" fill="#050f64"/>
                </g>
              </g>
            </g>
          </g>
          <g id="Grupo_958993" data-name="Grupo 958993" transform="translate(32.764)" opacity="0.5">
            <g id="Grupo_958992" data-name="Grupo 958992">
              <g id="Grupo_958991" data-name="Grupo 958991">
                <rect id="Rectángulo_340238" data-name="Rectángulo 340238" width="31.01" height="104.729" fill="#050f64"/>
              </g>
            </g>
          </g>
        </g>
      </g>
      <g id="Grupo_959011" data-name="Grupo 959011" transform="translate(385.585 249.722)">
        <g id="Grupo_959010" data-name="Grupo 959010" transform="translate(0 0)">
          <circle id="SVGID-2" data-name="SVGID" cx="90.305" cy="90.305" r="90.305" fill="#fff"/>
          <g id="Grupo_959009" data-name="Grupo 959009" clip-path="url(#clip-path)">
            <g id="Grupo_959008" data-name="Grupo 959008" transform="translate(10.384 -2.468)">
              <g id="Grupo_958998" data-name="Grupo 958998" transform="translate(52.022)">
                <g id="Grupo_958997" data-name="Grupo 958997">
                  <g id="Grupo_958996" data-name="Grupo 958996">
                    <path id="Trazado_723391" data-name="Trazado 723391" d="M2378.523,397.864a5.127,5.127,0,0,1,.03-1.307c.2-.724.9-1.394.945-2.143a2.248,2.248,0,0,0,0-.534.82.82,0,0,0-.186-.313c-.3-.419-.7-.806-1.025-1.212a7.685,7.685,0,0,1-1.495-2.571,1.18,1.18,0,0,1,.328-1.424c.47-.442-.3-1.189.027-1.764.428-.758,1.288-1.171,1.689-1.974a4.213,4.213,0,0,0,.375-2.085,20.16,20.16,0,0,1,.088-2.482,2.33,2.33,0,0,1,1.256-1.912c.41-.3.455-.346.441-.806a5.116,5.116,0,0,1,.1-1.519,3.733,3.733,0,0,1,.946-1.779,4.186,4.186,0,0,0,.85-2.278,1.7,1.7,0,0,1,.434-1.025,2.431,2.431,0,0,0,.548-.949,44.293,44.293,0,0,0,1.223-4.862,13.211,13.211,0,0,1,.606-1.774c.115-.294.431-1.438.8-1.6.17-.077.359.011.553-.078.585-.27.886-1.294,1.546-1.434.262-.056.485.145.715.214.386.116.511.033.846-.224a9.559,9.559,0,0,0,1.661-1.637,15.49,15.49,0,0,1,1.635-1.475c.429-.412.851-.83,1.282-1.24a8.364,8.364,0,0,1,1.237-1.1c.327-.164.3.023.555.176.9.541,1.522-1.437,2.083-1.831.071-.05.2-.038.281-.089.248-.165.4-.659.5-.914.186-.459.215-1.166.713-.613a3.962,3.962,0,0,1,.612,1.317c.082.223.256,1.132.462,1.281.175.127.349.066.579.1.869.117,1.337.869,2.156,1.07a3.259,3.259,0,0,0,2.383-.82c.337-.228.721-.634,1.171-.565a5.041,5.041,0,0,1,1.563.9c.539-.214.749-.826,1.1-1.238a3.987,3.987,0,0,0,.67-1.231c.477-1.177.461-2.656,1.349-3.613a3.045,3.045,0,0,1,1.024-.68c.716-.353,1.381-.787,2.108-1.12a10.37,10.37,0,0,0,2.708-1.228c.409-.375.279-1.2.276-1.675-.009-1.134-.086-2.307-.006-3.438.02-.283.138-.529.161-.817a10.426,10.426,0,0,0-.37-2.476,3.86,3.86,0,0,0-.575-1.959c-.4-.46-.783-.095-1.25.188-.61.369-1.311.706-1.884,1.132-.314.233-.657.749-1.025.9a3.462,3.462,0,0,1-1.1.021,3.83,3.83,0,0,1-1.346-.139,3.318,3.318,0,0,1-2.1-2.86c0-.2-.016-.391-.011-.586a12.748,12.748,0,0,1,.3-1.386,8.137,8.137,0,0,0-.031-2.011,13.721,13.721,0,0,0-.532-2.13,2.7,2.7,0,0,1-.292-1.209c.118-.953,1.1-.806,1.759-.62.433.121,1.683.527,1.947-.04a3.536,3.536,0,0,0,.171-1.375,5.308,5.308,0,0,0-.3-2.21c-.445-.05-.606.564-1.011.667a9.885,9.885,0,0,1-2.119,0c-.608,0-1.217.019-1.824.015a1.541,1.541,0,0,1-.964-.171,4.4,4.4,0,0,1-.856-1.294c-.094-.163-.285-.7-.483-.771a11.843,11.843,0,0,0-.015,2.491,8.1,8.1,0,0,1-.145,1.243c-.04.266-.047.517-.1.785a2.141,2.141,0,0,0,0,.832,5.81,5.81,0,0,1,.1,1.224,2.964,2.964,0,0,0,.114,1.315.732.732,0,0,0,.541.413,1.565,1.565,0,0,1,.531.559,2.879,2.879,0,0,1,.444.641c.171.456.046,1.009.221,1.479a3.909,3.909,0,0,0,.505.741c.252.39.124,1.037.124,1.5,0,.753,0,1.505,0,2.258a4.721,4.721,0,0,0,.1,1.426,2.24,2.24,0,0,1,.179.787,1.8,1.8,0,0,0,.038.756,2.9,2.9,0,0,0,1.031.974c.291.2,1.164.812.839,1.24-.225.3-1.561.117-1.722.106a2.408,2.408,0,0,1-1.949-.814c-.726-.738-1.279-1.617-1.942-2.405a6.085,6.085,0,0,0-.981-1q-.165-.15-.339-.29c-.249-.055-.347.184-.522.247a1.7,1.7,0,0,1-.554.023,11.233,11.233,0,0,0-3.1.206,7.326,7.326,0,0,0-2,.994,5.018,5.018,0,0,0,3.192,1.7,7.32,7.32,0,0,1,3.137.838,2.451,2.451,0,0,1,1.011,1.291,6.931,6.931,0,0,1,.171,1.616c.1.711.568,1.346.6,2.068a9.114,9.114,0,0,1-2.543-1.419,18.568,18.568,0,0,1-2.074-2.5c-.138-.167-.634-.89-1-.843-.272.035-.509.462-.661.624a1.516,1.516,0,0,1-2.094.405,10.224,10.224,0,0,1-1.337-.775c-.252-.174-.641-.313-.687-.656a9.7,9.7,0,0,0-1.745,3.233c-.229.577-.518,1.135-.741,1.712a.815.815,0,0,0-.048.611,6.335,6.335,0,0,0,.355.9,3.187,3.187,0,0,1,.157,1.31c-.052.662-.407.866-.708,1.4a1.609,1.609,0,0,0-.149.943c.016.789,0,1.58,0,2.37a18.921,18.921,0,0,1,.018,2.29c-.109.858-1.271,1.308-1.937,1.656a4.339,4.339,0,0,1-1.392.265,7.214,7.214,0,0,0-2.545,1.222c-.267.155-.436.479-.719.56-1.051.3-2.194-.979-2.738-1.673a10.92,10.92,0,0,1-1.676-2.918,4.4,4.4,0,0,1-.155-1.644c.011-.65,0-1.3,0-1.952,0-.472-.2-1.019.367-1.146.732-.165,1.66-.056,2.3-.549a11.02,11.02,0,0,1,2.066-1.308l1.275-.582a.963.963,0,0,0,.9-.492,9.184,9.184,0,0,1-1.147-.593,4.105,4.105,0,0,1-1.086-1.265,7.277,7.277,0,0,1-.9-2.822,7.451,7.451,0,0,1-.054-1.421,2.211,2.211,0,0,0-.3-1.132,7.323,7.323,0,0,1-.654-2.727,24.038,24.038,0,0,1,.014-2.992,3.318,3.318,0,0,1,.434-1.5,12.625,12.625,0,0,1,1.064-1.246c.1-.12.142-.257.223-.378a1.388,1.388,0,0,1,.665-.479,3.654,3.654,0,0,0,1.378-.751c.09-.106.155-.233.249-.338.22-.248.632-.388.832-.629a.691.691,0,0,0,.074-.61c-.136-.5-.7-.7-.7-1.27a1.423,1.423,0,0,1,.288-.759c.236-.372.429-.746.642-1.132a1.964,1.964,0,0,1,.749-.8,2.583,2.583,0,0,0,.688-.517c-.227-.175.469-1.342.436-1.5a11.275,11.275,0,0,0-.7-2.092,5.673,5.673,0,0,0-1.418-2.069c-.8-.732-1.872-1.146-2.718-1.815a1.68,1.68,0,0,1-.837-1.2,6.157,6.157,0,0,1,.068-1.754,3.88,3.88,0,0,0,.226-.907,6.581,6.581,0,0,0-.138-.82c-.044-.318-.014-.552-.356-.714-.359-.17-.678.054-1.017.177a5.423,5.423,0,0,1-2.587.462,3.728,3.728,0,0,1-2.006-1.1c-.225-.195-.5-.554-.809-.572a.984.984,0,0,0-.143.654,6.123,6.123,0,0,0,1.12,3.182c.61,1.04,1.681,1.886,2.168,3a3.233,3.233,0,0,1,.183,1.216,2.516,2.516,0,0,0,.725,2.091,5.7,5.7,0,0,0,1.131.972,1.6,1.6,0,0,1,.677.587c.1.2.027.281.069.483a1.654,1.654,0,0,0,.2.413,1.4,1.4,0,0,1-.222,1.512,2.479,2.479,0,0,1-1.8.352,11.759,11.759,0,0,1-3.483-1,4.73,4.73,0,0,1-2.167-1.7,4.084,4.084,0,0,1-.674-1.91,20.808,20.808,0,0,1-.4-2.063,4.929,4.929,0,0,0,.014-.666,8.476,8.476,0,0,0-1.138-2.165c-.629-1.086-1.323-2.173-1.892-3.3a8.147,8.147,0,0,1-.541-3.907,7.868,7.868,0,0,1,.055-2.2,11.594,11.594,0,0,1,1.188-1.9c.092-.171.059-.4.141-.546.141-.243.625-.118.863-.122a3.968,3.968,0,0,0,1.357-.176,4.7,4.7,0,0,1,.477-.212,1.3,1.3,0,0,1,.82.007q.669.532,1.283,1.126l1.146.824c.44.281.965.692,1.485.43.359-.181.549-.526.878-.74,1.166-.756,2.136,1.291,2.572,2.071-.128-1.159-.372-2.311-.6-3.453a15.732,15.732,0,0,0-.885-3.521,3.8,3.8,0,0,0-.617-1,21.8,21.8,0,0,0-1.843-1.273,7.733,7.733,0,0,1-1.056-1.089,5.914,5.914,0,0,0-1.245-1.049,23.425,23.425,0,0,0-3.875-1.863,11.6,11.6,0,0,1-2.278-1.1c-.583-.473-.8-1.266-1.351-1.745-.35-.3-.753-.127-1.208-.157a2.925,2.925,0,0,1-1.493-.685,21.237,21.237,0,0,0-2.053-1.321c-.614-.35-1.225-.714-1.844-1.052-.286-.156-.607-.071-.953-.193-.135-.048-.244-.14-.376-.2-.251-.115-.55-.161-.811-.257-.418-.154-.813-.38-1.234-.534a14.965,14.965,0,0,0-1.667-.442c-1.222-.288-2.485-.393-3.695-.735a5.219,5.219,0,0,1-.956-.5,1.629,1.629,0,0,1-.79-.824c-.162-.313-.382-.589-.543-.9-.305-.585-.468-1.335-1.182-1.465a27.287,27.287,0,0,0-3.686-.678c-.768-.03-1.863.26-2.485-.294-.552-.492-.892-1.766-1.81-1.643-.566.075-1.071.591-1.591.823a6.9,6.9,0,0,1-1.52.509,15.944,15.944,0,0,0-2.172.635,7.977,7.977,0,0,1-2.356.845,7.7,7.7,0,0,1-2.73-.916,3.337,3.337,0,0,0-2.341.316,6.773,6.773,0,0,1-1.239.558c-.107.018-.211-.02-.313-.009a10.966,10.966,0,0,0-1.492.487c-1.382.377-2.63,1.26-4.029,1.56a5.122,5.122,0,0,1-1.085.024c-.678,0-1.357-.007-2.035,0a1.777,1.777,0,0,1-1.527-.41A1.443,1.443,0,0,1,2318,281.9a16.97,16.97,0,0,0-.042-2.749c1.447-.629,3.171-.506,4.618-1.2.888-.426,1.826-.7,2.712-1.121a19.366,19.366,0,0,0,2.263-1.307c.288-.187,1.2-.759,1.18-1.18-.048-1.008,1.94-1.439,2.758-1.884a28.274,28.274,0,0,1,8.026-3.168,7.178,7.178,0,0,1,4.037.111c.671.311,1.257.728,1.952,1a14.233,14.233,0,0,0,5.982,1.185,16.253,16.253,0,0,0,4.156-.551c.574-.186,1.147-.413,1.719-.61a29.481,29.481,0,0,1,4.018-.956,20.006,20.006,0,0,1,3.91-.218c1.312,0,2.635-.091,3.944.032,1.763.166,3.46.723,5.219.924,2.229.255,4.473.109,6.7.414,1.7.232,3.338.684,5.015,1.022.661.133,1.325.234,1.982.388a6.29,6.29,0,0,1,1.749.48,16.217,16.217,0,0,1,1.7,1.14c.024.352,1,.464,1.217.714a19.5,19.5,0,0,0,2.693,2.423c2.779,2.171,5.85,3.971,8.614,6.167a75.828,75.828,0,0,1,9.26,8.928c5.021,5.617,10.088,11.5,13.838,18.057,3.046,5.323,4.727,11.3,7.421,16.808a69.384,69.384,0,0,0,3.962,7.222c1.368,2.118,2.869,4.138,4.188,6.287a39.216,39.216,0,0,1,4.515,10.707c1.238,4.806,2.8,9.529,3.834,14.387.677,3.193,1.765,6.353,1.72,9.651a48.835,48.835,0,0,1-1.47,10.34c-.47,2.007-1.05,3.988-1.507,6a59.6,59.6,0,0,1-1.83,6.957c-.81,2.265-1.838,4.478-2.8,6.683a34.28,34.28,0,0,1-1.874,4.067,25.624,25.624,0,0,1-1.793,2.368c-.885,1.143-1.669,2.368-2.6,3.479-3.575,4.278-8.188,7.666-12.348,11.338-1.649,1.455-3.337,2.827-4.928,4.35-.776.743-1.6,1.42-2.439,2.091-.344.274-.923.918-1.405.956-.214-.015-.568-.145-.615-.263a15.185,15.185,0,0,0-.676-1.458,13.05,13.05,0,0,0-1.265-1.892,1.753,1.753,0,0,0-.78-.664,5.351,5.351,0,0,0-1.849-.125,4.268,4.268,0,0,0-1.427.039,2.41,2.41,0,0,1-.094-1.124,4.911,4.911,0,0,1,.136-1.164,6.16,6.16,0,0,1,.7-1.787c.1-.154.218-.269.316-.418a3.223,3.223,0,0,0,.243-.538c.025-.06.082-.075.092-.139a5.955,5.955,0,0,1,.1-.794,7.328,7.328,0,0,0,.26-2.118,4.492,4.492,0,0,0-.017-.825,6.927,6.927,0,0,1-.263-.849,2.486,2.486,0,0,1,.373-1.685c.568-.882,1.3-1.649,1.841-2.549a2.451,2.451,0,0,0,.24-.485c.137-.4.37-.709.541-1.088a6.366,6.366,0,0,0,.478-1.729,4.94,4.94,0,0,0-.142-1.639,11.762,11.762,0,0,1-.188-3.244c.042-.508.073-1,.073-1.512a2.922,2.922,0,0,0,.015-.453.9.9,0,0,0-.38-.505,2.634,2.634,0,0,1-.715-.869c-.218-.433-.369-.925-.544-1.378q-.315-.824-.642-1.643-.193-.46-.371-.925c-.169-.682.1-1.435-.031-2.122s-.646-.675-1.207-.642c-1.111.065-2.186.38-3.27.543a14.653,14.653,0,0,0-3.368,1.3c-.992.42-2.014.78-3,1.215.126-.056-1.377.563-1.45.8-.1.315.083.685-.026,1.025a4.082,4.082,0,0,1-1.748,2.1c-.408.257-.83.474-1.225.752a3.407,3.407,0,0,1-.6.359,4.071,4.071,0,0,1-1.685.534,4.347,4.347,0,0,1-1.14-.107c-.185-.051-.356-.146-.541-.184a1.13,1.13,0,0,0-.205-.018,1.506,1.506,0,0,0-.831.346,12.136,12.136,0,0,1-1.5.774.89.89,0,0,1-1.116-.275c-.306-.309-.494-.694-.775-1.025a6.753,6.753,0,0,0-.945-.868c-.309-.247-.743-.666-1.162-.67a5.963,5.963,0,0,1-1.782-.082c-.193-.064-.392-.127-.584-.2a5.466,5.466,0,0,1-1.654-1.276c-.4-.334-.911-.549-1.193-1-.166-.265-.388-.3-.626-.488a4.088,4.088,0,0,0-.425-.348,1.821,1.821,0,0,1-.308-.2,2.058,2.058,0,0,1-.5-.952c-.094-.331-.166-.98-.538-1.135a2.047,2.047,0,0,0-.617-.01,1.554,1.554,0,0,0-.26,0A1.52,1.52,0,0,1,2378.523,397.864Z" transform="translate(-2317.954 -269.051)" fill="#e5e6eb"/>
                  </g>
                </g>
              </g>
              <g id="Grupo_959001" data-name="Grupo 959001" transform="translate(18.087 127.961)">
                <g id="Grupo_959000" data-name="Grupo 959000">
                  <g id="Grupo_958999" data-name="Grupo 958999">
                    <path id="Trazado_723392" data-name="Trazado 723392" d="M2101.56,1101.5c-.238,1.34-.974,2.568-1.271,3.906a3.71,3.71,0,0,0-.012,2.554,8.317,8.317,0,0,0,3.045,2.258c1.1.563,2.21.976,3.353,1.441.771.314.612.114.712.646.1.508-.089,1.118.026,1.666a8.007,8.007,0,0,0,1.839,3.454c.486.563,1.124,1,1.608,1.576a31.2,31.2,0,0,1,1.719,2.864,18.088,18.088,0,0,1,1.923,2.846c.4.952.348,2.011.766,2.972.674,1.552,1.988,2.693,2.739,4.212a6.741,6.741,0,0,1,.9,2.353c.036.62-.113.829.273,1.377.76,1.079,2.249,1.752,3.326,2.472,1.142.763,1.8,1.969,3.029,2.635,2.951,1.6,6.358,1.344,9.56,1.472.994.04,1.754.565,2.749.625a11.305,11.305,0,0,0,4.19-.493,6.281,6.281,0,0,0,2.878-1.86,14.738,14.738,0,0,0,1.458-1.54,1.553,1.553,0,0,1,1.141-.3,8.179,8.179,0,0,0,2.278-.63,10.414,10.414,0,0,1,2.136-.45,5.475,5.475,0,0,0,1.432-.332,19.542,19.542,0,0,0,3.722-1.363c1.135-.668,2.147-2.028,3.4-2.427.391-.125.942.156,1.3-.049.7-.4.281-2.317.3-2.989.015-.458-.073-.742.262-1.071.187-.183.6-.275.827-.453.5-.386.912-.9,1.392-1.316a14.9,14.9,0,0,0,1.384-1.046c.45-.509.208-1.1.333-1.756a11.5,11.5,0,0,0,.288-1.273c.092-1.241-.692-1.905-1.562-2.627-2.516-2.087-5.2-3.831-8.508-3.944a5.738,5.738,0,0,1-1.269-.033,6.585,6.585,0,0,1-1.014-.74c-1.063-.693-2.376-.674-3.581-.986-1.806-.469-2.118-2.389-2.96-3.857a14.513,14.513,0,0,0-5.059-5.524,11.974,11.974,0,0,0-2.643-.993,24.166,24.166,0,0,1-4.554-2.056,13.474,13.474,0,0,0-2.72-1.329c-.543-.146-1.048-.084-1.556-.213s-.944-.691-1.362-1.015c-1.077-.839-2.158-1.656-3.21-2.528a4.339,4.339,0,0,0-1.72-1.088c-.331-.072-.514,0-.819-.147a5.884,5.884,0,0,0-.99-.55,18.119,18.119,0,0,1-4.332-1.667c-1.079-.674-2.137-1.375-3.235-2.018a8.619,8.619,0,0,0-2.773-1.408c-.926-.129-.917.605-1.642.833-.5.157-1.159-.084-1.676-.011-.3.675,0,1.452-.288,2.129a2.521,2.521,0,0,1-.573.707,25.306,25.306,0,0,1-1.7,1.948,9.687,9.687,0,0,1-1.806,1A6.55,6.55,0,0,0,2101.56,1101.5Z" transform="translate(-2100.043 -1090.745)" fill="#e5e6eb"/>
                  </g>
                </g>
              </g>
              <g id="Grupo_959004" data-name="Grupo 959004" transform="translate(18.503 103.749)">
                <g id="Grupo_959003" data-name="Grupo 959003">
                  <g id="Grupo_959002" data-name="Grupo 959002">
                    <path id="Trazado_723393" data-name="Trazado 723393" d="M2102.713,938.324c1.94-.143,3.649,1.069,5.131,2.2a6.327,6.327,0,0,1,1.884,1.8c.161.331.066.609.185.948a7.022,7.022,0,0,0,.77,1.082,1.543,1.543,0,0,1,.513.81q.051.677.093,1.355a5.363,5.363,0,0,0,2.1,2.819c.4.306.952.61,1.305.942.274.258.374.665.651.922.451.417.845.3,1.4.377,1.269.188,2.517.411,3.8.5a1.619,1.619,0,0,1,.89.248,19.013,19.013,0,0,1,2.56,1.112c.538.384,1,.79,1.548,1.168.47.322.764.8,1.347.929-.114-.186-.358-.322-.461-.536-.13-.271-.025-.693-.093-.981a3.254,3.254,0,0,0-.719-1.309,6.876,6.876,0,0,0-1.516-.907,10.676,10.676,0,0,1-1.347-.962c-.572-.465-1.268-.692-1.825-1.169a6.13,6.13,0,0,0-1.665-1.122,113.18,113.18,0,0,1-3.168-1.605c-.377-.364-.421-1.3-.616-1.811a8.379,8.379,0,0,0-.823-1.717,7.749,7.749,0,0,0-2.757-2.784c-1.5-.833-3.035-1.748-4.467-2.7-.678-.448-.827-1.017-1.262-1.681a1.8,1.8,0,0,0-2.057-.935A5.626,5.626,0,0,1,2102.713,938.324Z" transform="translate(-2102.713 -935.27)" fill="#e5e6eb"/>
                  </g>
                </g>
              </g>
              <g id="Grupo_959007" data-name="Grupo 959007" transform="translate(0 18.057)">
                <g id="Grupo_959006" data-name="Grupo 959006">
                  <g id="Grupo_959005" data-name="Grupo 959005">
                    <path id="Trazado_723394" data-name="Trazado 723394" d="M2004.6,493.28a15.258,15.258,0,0,0-1.792-3.353,6.829,6.829,0,0,1-1.3-2.8c-.041-1.295,1.182-1.975,1.42-3.071.224-1.029.78-2.873-.214-3.644a10.51,10.51,0,0,0-3.509-1.191,3.864,3.864,0,0,1-1.467-.791,2.446,2.446,0,0,1-1.405-1.995,26.671,26.671,0,0,1,.012-2.69c-.014-1.091-.18-1.748-1.247-2.225-.827-.369-1.642-.458-2.06-1.347a9.891,9.891,0,0,1-.488-2.962c-.1-1.127-.058-2.252-.055-3.381,0-.924,0-1.848,0-2.771a4.458,4.458,0,0,1,.03-1.354c.2-.477.843-.659,1.286-.82a9.515,9.515,0,0,1,2-.5,11.81,11.81,0,0,1,1.851-.032c.313-.057.513-.231.811-.3a15.616,15.616,0,0,1,2.763.009,6.264,6.264,0,0,1,3.391,1.456,2.569,2.569,0,0,1,1.013,1.9,26.413,26.413,0,0,1,.057,4.77,2.874,2.874,0,0,0,.261,1.584,1.663,1.663,0,0,0,2.193.966,32.276,32.276,0,0,0,.027-5.229c0-.418-.22-1.265.116-1.563.426-.377,2.266-.029,2.87-.028.9,0,3.26.479,3.8-.469.2-.346.107-.845.207-1.23.174-.671.4-1.327.571-2.006.162-.655.306-1.919.839-2.371.388-.329.579-.243,1.086-.245a5.509,5.509,0,0,0,2.188-.676c2.288-1,4.427-2.322,6.8-3.123a7.238,7.238,0,0,0,2.157-.734,2.4,2.4,0,0,1,1.529-.712c.761-.021,1.539-.006,2.3.017a6.771,6.771,0,0,0,2.866-.659c.436-.183,1.03-.779,1.515-.742a5.7,5.7,0,0,0-.012-2.18c-.074-.5-.5-1.643-.17-2.164.42-.666,1.736-.3,2.432-.311a23.245,23.245,0,0,1,3.552.275,7.332,7.332,0,0,1,2.262.3c.447.322.242,1.252.238,1.712a12.2,12.2,0,0,0,.043,2.941c1.509.442,2.2-2.156,2.2-3.282,0-.869-.427-1.019-.885-1.628a1.978,1.978,0,0,1-.533-.974,12.092,12.092,0,0,1-.545-3.46,3.122,3.122,0,0,0-.285-1.72c-.518-.96-1.633-1.491-2.182-2.454a2.033,2.033,0,0,1-.285-1.255,16.1,16.1,0,0,1,.491-5.281,5.533,5.533,0,0,0,.354-1.968,3.613,3.613,0,0,0-.637-1.914,4.243,4.243,0,0,0-.758-1.266c-.512-.5-.924-.114-1.47-.359-.687-.308-1.281-1.54-1.587-2.246-.954.249-1.838,2.023-2.407,2.74-.309.39-.426.909-.742,1.277-.463.538-1.314.657-1.941.96-.781.378-.671.5-.65,1.341.034,1.348-.112,3.713-1.648,4.174a6.77,6.77,0,0,1-1.5-.022c-.934.028-1.286-.155-1.632-1.168-.1-.287-.059-.75-.171-1-.138-.3-.228-.228-.388-.471-.419-.642-.572-1.352-1.045-2.009a7.1,7.1,0,0,1-1.072-1.741c-.315-.82-.771-1.684-1.052-2.5a5.685,5.685,0,0,1,.228-3.3,4.329,4.329,0,0,1,1.731-2.177c.53-.325.981-.89,1.568-1.053a10.1,10.1,0,0,1,2.236.019h6.237a5.509,5.509,0,0,0,1.313,0c.91-.266,1.29-1.685,1.686-2.471.427-.847-.038-.408.6-.533a5.6,5.6,0,0,1,2.044.678c1.016.509,1.174,1.427,1.377,2.451a12.032,12.032,0,0,1,.484,2.678,5.589,5.589,0,0,0,.149,2.44c.131.269.3.686.7.535.417-.158.209-.966.3-1.256.274-.86.947-.512,1.613-.83a2.3,2.3,0,0,0,1.1-1.756,6.871,6.871,0,0,0-.135-2.687c-.341-1.019-.5-2.041-.777-3.081-.466-1.748-.167-3.774-.2-5.567-.022-1.238-.1-1.455,1.172-2.1.68-.346,1.356-1.036,2.057-1.306a5.707,5.707,0,0,1,5.024.925,8.991,8.991,0,0,1,2.439,4.238c.491,2.413-.472,4.912-1.272,7.14-.236.657-.285,1.291-.465,1.949-.294,1.07-.885,2.029-1.158,3.108a12.126,12.126,0,0,0-.092,2.962,9.037,9.037,0,0,0,.085,2.607c.391,1.3,1.463,2.387,1.985,3.651a3.057,3.057,0,0,0,.727,1.354,3.811,3.811,0,0,0,2.342.86c.824-1.586.36-4.344.36-6.01,0-.868.008-1.736,0-2.6a2.9,2.9,0,0,1,.848-2.423,8.65,8.65,0,0,1,3.853-1.382,6.762,6.762,0,0,0,1.79-.517l1.95-.518a5.466,5.466,0,0,0,2.01-.575c.214-.3-.063-1.493.009-1.786.255-1.046,1.2-2.032,1.679-3.013.237-.481,1.073-1.753.768-2.4-.2-.412-.8-.325-1.081-.549a10.065,10.065,0,0,1-1.307-2.081c-.769-1.3-1.138-2.768-1.833-4.11-.6-1.157-.742-2.45-1.318-3.6-.3-.6-.76-1.111-1.068-1.706-.352-.679-.314-1.323-1.228-1.432a52.284,52.284,0,0,0-6.162.012,12.414,12.414,0,0,1-2.166-.028,15.043,15.043,0,0,1-3.314-1.162c-1.8-.773-4.151-1.231-5.939-.3a12.572,12.572,0,0,0-2.389,1.788c-.327.3-.383.52-.895.565a3.806,3.806,0,0,1-1.732-.584,8.378,8.378,0,0,1-2.291-1.11c-.822.225-1.523,1.395-2.02,2.039-.392.507-.491.608-1.148.259-.618-.328-1.29-1.843-2.1-1.809-.7.03-.952,1.019-1.522,1.161a3.7,3.7,0,0,1-1.164-.236,2.392,2.392,0,0,1-1.143-1.39c-.085-.316.018-.775-.032-1.113-.073-.492-.2-.919-.226-1.409a2.049,2.049,0,0,1,.241-1.533c1.03-1.372,2.521-2.385,3.47-3.836a3.48,3.48,0,0,0,.427-2.163c0-.493.093-1.582-.268-1.984-.788-.879-3.252.824-3.915,1.2a1.648,1.648,0,0,1-1.942.041c-.628-.3-1.112-.841-1.706-1.146a4.3,4.3,0,0,0-2.04-.192c-1.908.014-3.529.834-5.462.447a7.491,7.491,0,0,0-.953,2.533c-.43,1.564-.8,3.141-1.314,4.682-.36,1.083-.986,1.4-1.7,2.327-.53.686-6.731,8.063-6.958,8.537-.7,1.459-2.219,1.892-3.15,3.053q.05-.177-.123-.208a15.479,15.479,0,0,1-1.74,2.513,18.073,18.073,0,0,1-2.269,1.877,26.864,26.864,0,0,0-4.35,3.972,22.849,22.849,0,0,0-3.367,6.037c-.52,1.235-1.263,2.369-1.859,3.55-1.381,2.736-3.193,5.273-4.475,8.064-.617,1.344-.934,2.82-1.514,4.141-.785,1.788-2.416,2.875-2.409,4.953,0,1.588.806,2.834,1.109,4.3a20.252,20.252,0,0,1,.063,3.973c-.01,2.039.264,4.026.254,6.061a19.152,19.152,0,0,0,.8,4.3,3.123,3.123,0,0,0,.2.954c.131.234.373.338.516.56.725,1.122.317,2.443,1.519,3.413.527.425,1.107.569,1.459,1.159a23.212,23.212,0,0,1,1.017,2.316c.816,1.808,1.661,3.22,1.668,5.244a5.413,5.413,0,0,0,1.093,3.058,4.815,4.815,0,0,1,.821,2.954,3.832,3.832,0,0,0,.582,2.448c.609.911,1.5,1.233,1.916,2.309a15,15,0,0,1,.58,2.322,10.941,10.941,0,0,0,1.149,2.448c.447.946.489,2.028,1,2.976C2000.224,493.5,2004.164,496.915,2004.6,493.28Z" transform="translate(-1983.899 -385)" fill="#e5e6eb"/>
                  </g>
                </g>
              </g>
            </g>
          </g>
        </g>
      </g>
      <g id="Grupo_959048" data-name="Grupo 959048" transform="translate(367.144 296.859)">
        <g id="Grupo_959015" data-name="Grupo 959015" transform="translate(8.844 12.325)">
          <g id="Grupo_959014" data-name="Grupo 959014">
            <g id="Grupo_959013" data-name="Grupo 959013">
              <g id="Grupo_959012" data-name="Grupo 959012">
                <path id="Trazado_723395" data-name="Trazado 723395" d="M1864.2,765.3h-8.608V697.961a32.929,32.929,0,0,1,8.047-21.887,28.062,28.062,0,0,1,8.929-6.8,25.627,25.627,0,0,1,22.237,0,28.065,28.065,0,0,1,8.929,6.8,32.929,32.929,0,0,1,8.047,21.887h-8.607c0-12.472-8.742-22.619-19.487-22.619s-19.487,10.147-19.487,22.619Z" transform="translate(-1855.593 -666.734)" fill="#ffbd00"/>
              </g>
            </g>
          </g>
        </g>
        <g id="Grupo_959019" data-name="Grupo 959019" transform="translate(3.885 59.856)">
          <g id="Grupo_959018" data-name="Grupo 959018" transform="translate(0)">
            <g id="Grupo_959017" data-name="Grupo 959017">
              <g id="Grupo_959016" data-name="Grupo 959016">
                <rect id="Rectángulo_340239" data-name="Rectángulo 340239" width="18.526" height="83.514" transform="translate(18.526 83.514) rotate(180)" fill="#155bcd"/>
              </g>
            </g>
          </g>
        </g>
        <g id="Grupo_959028" data-name="Grupo 959028" transform="translate(0 83.669)">
          <g id="Grupo_959023" data-name="Grupo 959023">
            <g id="Grupo_959022" data-name="Grupo 959022">
              <g id="Grupo_959021" data-name="Grupo 959021">
                <g id="Grupo_959020" data-name="Grupo 959020">
                  <circle id="Elipse_5713" data-name="Elipse 5713" cx="10.929" cy="10.929" r="10.929" transform="translate(0 5.022) rotate(-13.283)" fill="#050f64"/>
                </g>
              </g>
            </g>
          </g>
          <g id="Grupo_959027" data-name="Grupo 959027" transform="translate(6.044 6.044)">
            <g id="Grupo_959026" data-name="Grupo 959026">
              <g id="Grupo_959025" data-name="Grupo 959025">
                <g id="Grupo_959024" data-name="Grupo 959024">
                  <circle id="Elipse_5714" data-name="Elipse 5714" cx="7.104" cy="7.104" r="7.104" fill="#84a9ff"/>
                </g>
              </g>
            </g>
          </g>
        </g>
        <g id="Grupo_959032" data-name="Grupo 959032" transform="translate(15.336 1.335)">
          <g id="Grupo_959031" data-name="Grupo 959031">
            <g id="Grupo_959030" data-name="Grupo 959030">
              <g id="Grupo_959029" data-name="Grupo 959029">
                <path id="Trazado_723396" data-name="Trazado 723396" d="M1937.9,601.327h-38.04a2.582,2.582,0,0,1,0-5.165h38.04a2.582,2.582,0,0,1,0,5.165Z" transform="translate(-1897.281 -596.162)" fill="#ffbd00"/>
              </g>
            </g>
          </g>
        </g>
        <g id="Grupo_959036" data-name="Grupo 959036" transform="translate(34.356 1.335)">
          <g id="Grupo_959035" data-name="Grupo 959035">
            <g id="Grupo_959034" data-name="Grupo 959034">
              <g id="Grupo_959033" data-name="Grupo 959033">
                <path id="Trazado_723397" data-name="Trazado 723397" d="M2022,614.74a2.582,2.582,0,0,1-2.582-2.582V598.744a2.582,2.582,0,0,1,5.165,0v13.414A2.583,2.583,0,0,1,2022,614.74Z" transform="translate(-2019.417 -596.162)" fill="#ffbd00"/>
              </g>
            </g>
          </g>
        </g>
        <g id="Grupo_959040" data-name="Grupo 959040" transform="translate(14.001 0)">
          <g id="Grupo_959039" data-name="Grupo 959039">
            <g id="Grupo_959038" data-name="Grupo 959038">
              <g id="Grupo_959037" data-name="Grupo 959037">
                <circle id="Elipse_5715" data-name="Elipse 5715" cx="3.917" cy="3.917" r="3.917" fill="#ffbd00"/>
              </g>
            </g>
          </g>
        </g>
        <g id="Grupo_959044" data-name="Grupo 959044" transform="translate(29.374 9.767)">
          <g id="Grupo_959043" data-name="Grupo 959043">
            <g id="Grupo_959042" data-name="Grupo 959042">
              <g id="Grupo_959041" data-name="Grupo 959041">
                <circle id="Elipse_5716" data-name="Elipse 5716" cx="7.564" cy="7.564" r="7.564" fill="#ffbd00"/>
              </g>
            </g>
          </g>
        </g>
        <g id="Grupo_959047" data-name="Grupo 959047" transform="translate(52.647 43.168)">
          <g id="Grupo_959046" data-name="Grupo 959046">
            <g id="Grupo_959045" data-name="Grupo 959045">
              <path id="Trazado_723398" data-name="Trazado 723398" d="M2150.79,870.225h-11.2a2.719,2.719,0,0,1-2.719-2.719h0a2.719,2.719,0,0,1,2.719-2.719h11.2a2.719,2.719,0,0,1,2.719,2.719h0A2.719,2.719,0,0,1,2150.79,870.225Z" transform="translate(-2136.871 -864.786)" fill="#155bcd"/>
            </g>
          </g>
        </g>
      </g>
      <g id="Grupo_959055" data-name="Grupo 959055" transform="translate(410.584 376.018)">
        <g id="Grupo_959051" data-name="Grupo 959051" transform="translate(0)">
          <g id="Grupo_959050" data-name="Grupo 959050">
            <g id="Grupo_959049" data-name="Grupo 959049">
              <path id="Trazado_723399" data-name="Trazado 723399" d="M2077.752,1095.9l2.211,61.168a3.158,3.158,0,0,0,3.156,3.044h24.316a3.158,3.158,0,0,0,3.156-3.044l2.211-61.168Z" transform="translate(-2077.752 -1095.9)" fill="#84a9ff"/>
            </g>
          </g>
        </g>
        <g id="Grupo_959054" data-name="Grupo 959054" transform="translate(1.998 20.295)">
          <g id="Grupo_959053" data-name="Grupo 959053">
            <g id="Grupo_959052" data-name="Grupo 959052">
              <path id="Trazado_723400" data-name="Trazado 723400" d="M2121.529,1229.22l-1.368,37.83a1.888,1.888,0,0,1-1.894,1.827h-24.316a1.888,1.888,0,0,1-1.893-1.827l-1.476-40.827a16.271,16.271,0,0,1,7.963,2.8c3.255,2.257,5.991,5.846,9.94,6.162,2.412.193,4.73-.934,6.761-2.248s3.952-2.865,6.223-3.7Z" transform="translate(-2090.582 -1226.223)" fill="#155bcd"/>
            </g>
          </g>
        </g>
      </g>
      <g id="Grupo_959069" data-name="Grupo 959069" transform="translate(506.287 345.497)">
        <g id="Grupo_959058" data-name="Grupo 959058" transform="translate(0 0)">
          <g id="Grupo_959057" data-name="Grupo 959057">
            <g id="Grupo_959056" data-name="Grupo 959056">
              <circle id="Elipse_5717" data-name="Elipse 5717" cx="35.985" cy="35.985" r="35.985" transform="translate(0 50.891) rotate(-45)" fill="#84a9ff"/>
            </g>
          </g>
        </g>
        <g id="Grupo_959068" data-name="Grupo 959068" transform="translate(29.313 40.778)">
          <g id="Grupo_959061" data-name="Grupo 959061" transform="translate(0 0.302)">
            <g id="Grupo_959060" data-name="Grupo 959060">
              <g id="Grupo_959059" data-name="Grupo 959059">
                <path id="Trazado_723401" data-name="Trazado 723401" d="M2895.683,1163.705v19.621h-4.513v-8.093h-6.124v8.093h-4.514v-19.621h4.514v7.647h6.124v-7.647Z" transform="translate(-2880.532 -1163.705)" fill="#fff"/>
              </g>
            </g>
          </g>
          <g id="Grupo_959064" data-name="Grupo 959064" transform="translate(17.295 9.962)">
            <g id="Grupo_959063" data-name="Grupo 959063">
              <g id="Grupo_959062" data-name="Grupo 959062">
                <path id="Trazado_723402" data-name="Trazado 723402" d="M2999.118,1233.741l-.165,1.955h-7.36v-1.9q.36-.273,1.186-.855a23.59,23.59,0,0,0,2.94-2.368,2.594,2.594,0,0,0,.92-1.707,1.277,1.277,0,0,0-.366-.938,1.323,1.323,0,0,0-.985-.37q-1.438,0-1.667,1.876l-2.027-.453q.683-3.241,3.788-3.241a3.657,3.657,0,0,1,2.67.913,2.945,2.945,0,0,1,.931,2.178,3.305,3.305,0,0,1-.974,2.336,17.84,17.84,0,0,1-3.583,2.58Z" transform="translate(-2991.593 -1225.734)" fill="#fff"/>
              </g>
            </g>
          </g>
          <g id="Grupo_959067" data-name="Grupo 959067" transform="translate(26.41)">
            <g id="Grupo_959066" data-name="Grupo 959066">
              <g id="Grupo_959065" data-name="Grupo 959065">
                <path id="Trazado_723403" data-name="Trazado 723403" d="M3058.422,1181.991a7.142,7.142,0,0,1-6.133-2.975,11.893,11.893,0,0,1-2.168-7.2,11.466,11.466,0,0,1,2.2-7.173,7.415,7.415,0,0,1,6.262-2.875,7.009,7.009,0,0,1,6.2,3.069,12.18,12.18,0,0,1,2.09,7.022,11.831,11.831,0,0,1-2.154,7.2A7.319,7.319,0,0,1,3058.422,1181.991Zm.129-16.473q-3.615,0-3.615,6.354t3.615,6.368q3.5,0,3.5-6.354T3058.551,1165.518Z" transform="translate(-3050.12 -1161.766)" fill="#fff"/>
              </g>
            </g>
          </g>
        </g>
      </g>
      <g id="Grupo_959129" data-name="Grupo 959129" transform="translate(440.673 287.497)">
        <g id="Grupo_959072" data-name="Grupo 959072" transform="translate(39.494)">
          <g id="Grupo_959071" data-name="Grupo 959071">
            <g id="Grupo_959070" data-name="Grupo 959070">
              <path id="Trazado_723404" data-name="Trazado 723404" d="M2526.689,534.241a11.036,11.036,0,1,1,21.586,4.423,5.636,5.636,0,0,1-.091,10.395c.055.17.1.344.141.522a5.636,5.636,0,0,1-8.849,5.74c-.072.019-.144.037-.217.053a5.638,5.638,0,0,0-5.152,1.124,9.811,9.811,0,0,1-7.08-13.206,5.635,5.635,0,0,1-.338-9.052Z" transform="translate(-2524.573 -527.465)" fill="#050f64"/>
            </g>
          </g>
        </g>
        <g id="Grupo_959080" data-name="Grupo 959080" transform="translate(0 25.67)">
          <g id="Grupo_959076" data-name="Grupo 959076" transform="translate(0 0.518)">
            <g id="Grupo_959075" data-name="Grupo 959075">
              <g id="Grupo_959074" data-name="Grupo 959074">
                <g id="Grupo_959073" data-name="Grupo 959073">
                  <path id="Trazado_723405" data-name="Trazado 723405" d="M2271.3,717.679a1.523,1.523,0,0,1,1.931-.387,25.818,25.818,0,0,0,11.667,3.864,18.08,18.08,0,0,0,5.8-.569,18.067,18.067,0,0,0,5.183-2.341,20.6,20.6,0,0,0,2.3-1.734l.275-.234.267-.249c.177-.166.357-.328.532-.5.341-.353.694-.683,1.02-1.055a33.716,33.716,0,0,0,3.62-4.743,58.213,58.213,0,0,0,5.373-11.111,4.619,4.619,0,0,1,1.075-1.588,4.692,4.692,0,0,1,.76-.585,5.17,5.17,0,0,1,.863-.441,5.546,5.546,0,0,1,4.05.006,5.075,5.075,0,0,1,2.9,2.848,4.934,4.934,0,0,1,.281.984,5.043,5.043,0,0,1,.061,1.03,4.854,4.854,0,0,1-.549,2.071c-1.121,2.081-2.324,4.133-3.652,6.129a59.208,59.208,0,0,1-4.348,5.793,41.649,41.649,0,0,1-5.265,5.188c-.472.4-.986.772-1.481,1.152-.255.184-.516.362-.773.542l-.387.268-.4.255a27.481,27.481,0,0,1-3.33,1.842,24.191,24.191,0,0,1-7.329,2.129,23.411,23.411,0,0,1-7.489-.307,27.632,27.632,0,0,1-6.836-2.385,31.577,31.577,0,0,1-5.921-3.851A1.416,1.416,0,0,1,2271.3,717.679Z" transform="translate(-2270.963 -695.63)" fill="#ea8096"/>
                </g>
              </g>
            </g>
          </g>
          <g id="Grupo_959079" data-name="Grupo 959079" transform="translate(30.764)">
            <g id="Grupo_959078" data-name="Grupo 959078">
              <g id="Grupo_959077" data-name="Grupo 959077">
                <path id="Trazado_723406" data-name="Trazado 723406" d="M2468.509,706.425l5.5-10.486A6.366,6.366,0,0,1,2482.6,693h0a6.79,6.79,0,0,1,2.9,8.963l-5.5,10.486Z" transform="translate(-2468.509 -692.303)" fill="#84a9ff"/>
              </g>
            </g>
          </g>
        </g>
        <g id="Grupo_959083" data-name="Grupo 959083" transform="translate(50.926 148.834)">
          <g id="Grupo_959082" data-name="Grupo 959082">
            <g id="Grupo_959081" data-name="Grupo 959081">
              <path id="Trazado_723407" data-name="Trazado 723407" d="M2598.282,1485.455a1.712,1.712,0,0,1,1.083-.576,10.4,10.4,0,0,1,1.254-.073,6.639,6.639,0,0,0,2.931-.849,9.887,9.887,0,0,1,1.407-.768l2.944.077a3.37,3.37,0,0,1,.786,1.587,5.941,5.941,0,0,1,.093,1.613v.614h-10.8v-.614h0A1.664,1.664,0,0,1,2598.282,1485.455Z" transform="translate(-2597.978 -1483.19)" fill="#050f64"/>
            </g>
          </g>
        </g>
        <g id="Grupo_959086" data-name="Grupo 959086" transform="translate(57.654 145.697)">
          <g id="Grupo_959085" data-name="Grupo 959085">
            <g id="Grupo_959084" data-name="Grupo 959084">
              <path id="Trazado_723408" data-name="Trazado 723408" d="M2644.74,1463.046l-.364,3.214-2.944-.077-.25-3.078Z" transform="translate(-2641.182 -1463.046)" fill="#f5bdc8"/>
            </g>
          </g>
        </g>
        <g id="Grupo_959089" data-name="Grupo 959089" transform="translate(18.877 60.839)">
          <g id="Grupo_959088" data-name="Grupo 959088">
            <g id="Grupo_959087" data-name="Grupo 959087">
              <path id="Trazado_723409" data-name="Trazado 723409" d="M2422.05,939.669a69.415,69.415,0,0,1-10.792,18.878l-4.535,45.218-14.542-.827,6.78-44.263a39.336,39.336,0,0,1,1.362-5.856l10.43-32.434c1.1-4.24,24.006-1.184,24.006-1.184,6.326,8.783,2.348,36.731,2.348,36.731l3.386,46.962-15.479.259.065-46.578Z" transform="translate(-2392.181 -918.136)" fill="#155bcd"/>
            </g>
          </g>
        </g>
        <g id="Grupo_959092" data-name="Grupo 959092" transform="translate(23.96 145.955)">
          <g id="Grupo_959091" data-name="Grupo 959091">
            <g id="Grupo_959090" data-name="Grupo 959090">
              <path id="Trazado_723410" data-name="Trazado 723410" d="M2428.661,1464.9l-.9,2.757-2.944-.073.439-2.877Z" transform="translate(-2424.818 -1464.707)" fill="#f5bdc8"/>
            </g>
          </g>
        </g>
        <g id="Grupo_959095" data-name="Grupo 959095" transform="translate(16.986 148.833)">
          <g id="Grupo_959094" data-name="Grupo 959094">
            <g id="Grupo_959093" data-name="Grupo 959093">
              <path id="Trazado_723411" data-name="Trazado 723411" d="M2380.337,1485.457a1.712,1.712,0,0,1,1.082-.578,10.372,10.372,0,0,1,1.254-.074,6.643,6.643,0,0,0,2.929-.853,9.887,9.887,0,0,1,1.406-.77l2.944.074a3.371,3.371,0,0,1,.789,1.586,5.942,5.942,0,0,1,.095,1.613v.614l-10.8.014v-.614h0A1.663,1.663,0,0,1,2380.337,1485.457Z" transform="translate(-2380.035 -1483.183)" fill="#050f64"/>
            </g>
          </g>
        </g>
        <g id="Grupo_959098" data-name="Grupo 959098" transform="translate(36.781 23.194)">
          <g id="Grupo_959097" data-name="Grupo 959097">
            <g id="Grupo_959096" data-name="Grupo 959096">
              <path id="Trazado_723412" data-name="Trazado 723412" d="M2522.766,676.431h0a14.737,14.737,0,0,0-15.555,16.031l.607,23.836c9.811,4.112,17.406,2.118,24.006-1.184l2.292-24.831A12.192,12.192,0,0,0,2522.766,676.431Z" transform="translate(-2507.151 -676.404)" fill="#84a9ff"/>
            </g>
          </g>
        </g>
        <g id="Grupo_959101" data-name="Grupo 959101" transform="translate(36.518 23.722)">
          <g id="Grupo_959100" data-name="Grupo 959100">
            <g id="Grupo_959099" data-name="Grupo 959099">
              <path id="Trazado_723413" data-name="Trazado 723413" d="M2524.956,679.8l.014.277a12.229,12.229,0,0,1,7.022,7l.267-.021a12.429,12.429,0,0,0-7.3-7.259Zm-16.773,40.336a26.766,26.766,0,0,0,8.981,1.6,24.967,24.967,0,0,0,5.7-.664l-.028-.26a25.389,25.389,0,0,1-14.62-.944Zm-2.66-24.792.053,2.061.261-.026-.052-2.05a14.746,14.746,0,0,1,9.264-15.034l-.047-.254a15.017,15.017,0,0,0-5.612,3.85A14.832,14.832,0,0,0,2505.523,695.341Zm.587,12.794h-.26l.2,7.734h.261Zm21.841,10.977v.282c.84-.352,1.692-.745,2.564-1.182l.131-.065.531-5.745-.251-.139-.527,5.715C2529.6,718.378,2528.783,718.76,2527.951,719.111Z" transform="translate(-2505.462 -679.796)" fill="#155bcd"/>
            </g>
          </g>
        </g>
        <g id="Grupo_959117" data-name="Grupo 959117" transform="translate(43.62 6.252)">
          <g id="Grupo_959104" data-name="Grupo 959104" transform="translate(4.301 11.91)">
            <g id="Grupo_959103" data-name="Grupo 959103">
              <g id="Grupo_959102" data-name="Grupo 959102">
                <path id="Trazado_723414" data-name="Trazado 723414" d="M2578.69,644.109l.032,9.041a5.012,5.012,0,0,0,5.89-.021l-.031-9.041Z" transform="translate(-2578.69 -644.089)" fill="#f5bdc8"/>
              </g>
            </g>
          </g>
          <g id="Grupo_959107" data-name="Grupo 959107" transform="translate(4.304 12.729)">
            <g id="Grupo_959106" data-name="Grupo 959106">
              <g id="Grupo_959105" data-name="Grupo 959105">
                <path id="Trazado_723415" data-name="Trazado 723415" d="M2578.705,649.37l.008,2.242a6.431,6.431,0,0,0,3,.891c.061,0,.123,0,.184,0a3.92,3.92,0,0,0,2.711-1.089l-.007-2.068Z" transform="translate(-2578.705 -649.349)" fill="#ea8096"/>
              </g>
            </g>
          </g>
          <g id="Grupo_959110" data-name="Grupo 959110" transform="translate(1.829 1.234)">
            <g id="Grupo_959109" data-name="Grupo 959109">
              <g id="Grupo_959108" data-name="Grupo 959108">
                <path id="Trazado_723416" data-name="Trazado 723416" d="M2562.816,577.726l.144,5.265.033,1.168a5.6,5.6,0,0,0,5.351,5.39,3.16,3.16,0,0,0,.88-.086,3.375,3.375,0,0,0,.334-.1c.023-.007.046-.016.069-.025a3.051,3.051,0,0,0,1.127-.746,9.436,9.436,0,0,0,1.572-2.379,16.09,16.09,0,0,0,.939-2.193,7.244,7.244,0,0,0,.384-2.752l-.17-4.62-8.931-1.118Z" transform="translate(-2562.816 -575.532)" fill="#f5bdc8"/>
              </g>
            </g>
          </g>
          <g id="Grupo_959113" data-name="Grupo 959113">
            <g id="Grupo_959112" data-name="Grupo 959112">
              <g id="Grupo_959111" data-name="Grupo 959111">
                <path id="Trazado_723417" data-name="Trazado 723417" d="M2551.075,572.461a9.781,9.781,0,0,1,.554-1.925,3.425,3.425,0,0,1,1.1-.959,1.645,1.645,0,0,1,.736-.137,3.622,3.622,0,0,1,1.063-.855,8.57,8.57,0,0,1,6.45-.586c1.067.46,3.117.675,2.717,1.1.718-.019.253.906.748,2.781.441,1.672.351,4.483-.507,5.023s-2.094.334-1.318-1.715c0,0,.012-.083.023-.227a1.575,1.575,0,0,1-.878-.576,3.183,3.183,0,0,1-.542-1.47,10.869,10.869,0,0,0-.277-1.558,3.469,3.469,0,0,0-1.181-1.665c-.076-.033-.153-.065-.23-.1a4.1,4.1,0,0,0-.5.285,8.833,8.833,0,0,0-1.421,1.816,7,7,0,0,1-3.633,2.532,3.147,3.147,0,0,1-.994.13c0,.087.01.174.019.26,0,0-1.181-.07-1.536-.634A2.27,2.27,0,0,1,2551.075,572.461Z" transform="translate(-2551.068 -567.61)" fill="#050f64"/>
              </g>
            </g>
          </g>
          <g id="Grupo_959116" data-name="Grupo 959116" transform="translate(9.753 4.983)">
            <g id="Grupo_959115" data-name="Grupo 959115" transform="translate(0 0)">
              <g id="Grupo_959114" data-name="Grupo 959114">
                <circle id="Elipse_5718" data-name="Elipse 5718" cx="2.143" cy="2.143" r="2.143" transform="translate(0 3.031) rotate(-45)" fill="#f5bdc8"/>
              </g>
            </g>
          </g>
        </g>
        <g id="Grupo_959128" data-name="Grupo 959128" transform="translate(51.654 26.136)">
          <g id="Grupo_959121" data-name="Grupo 959121" transform="translate(0.889 0.138)">
            <g id="Grupo_959120" data-name="Grupo 959120">
              <g id="Grupo_959119" data-name="Grupo 959119">
                <g id="Grupo_959118" data-name="Grupo 959118">
                  <path id="Trazado_723418" data-name="Trazado 723418" d="M2629.6,750.848a1.515,1.515,0,0,1-1.288-1.458c.04-1.021.021-2.062-.037-3.1-.023-.518-.072-1.038-.113-1.556s-.1-1.036-.171-1.553a54.614,54.614,0,0,0-1.154-6.143,67.079,67.079,0,0,0-4.131-11.761l-.318-.71-.34-.7-.68-1.4-.721-1.381c-.242-.459-.475-.921-.737-1.371-.514-.9-1.006-1.813-1.556-2.7l-.8-1.33c-.276-.439-.563-.873-.843-1.309a102.415,102.415,0,0,0-7.4-9.992,4.581,4.581,0,0,1-.878-3.6,5.611,5.611,0,0,1,2.088-3.463h0a5.161,5.161,0,0,1,3.889-1.086,4.664,4.664,0,0,1,3.343,2.11,111.819,111.819,0,0,1,6.443,11.945c.235.515.476,1.026.706,1.542l.663,1.563c.454,1.034.849,2.1,1.261,3.15.211.523.393,1.061.583,1.593l.563,1.6.517,1.616.257.807.234.815a72.807,72.807,0,0,1,2.622,13.262,58.9,58.9,0,0,1,.29,6.746c-.006.563-.033,1.127-.055,1.689s-.064,1.125-.119,1.688c-.1,1.125-.238,2.247-.445,3.374A1.4,1.4,0,0,1,2629.6,750.848Z" transform="translate(-2608.364 -696.188)" fill="#f5bdc8"/>
                </g>
              </g>
            </g>
          </g>
          <g id="Grupo_959124" data-name="Grupo 959124" transform="translate(0.264)">
            <g id="Grupo_959123" data-name="Grupo 959123">
              <g id="Grupo_959122" data-name="Grupo 959122">
                <path id="Trazado_723419" data-name="Trazado 723419" d="M2622.8,708.115l-6.636-9.808a6.366,6.366,0,0,0-8.857-1.962h0a6.79,6.79,0,0,0-1.886,9.23l6.635,9.808Z" transform="translate(-2604.351 -695.299)" fill="#84a9ff"/>
              </g>
            </g>
          </g>
          <g id="Grupo_959127" data-name="Grupo 959127" transform="translate(0 0.187)">
            <g id="Grupo_959126" data-name="Grupo 959126">
              <g id="Grupo_959125" data-name="Grupo 959125">
                <path id="Trazado_723420" data-name="Trazado 723420" d="M2607,711.512l3.553,5.251,1.852-1.254-.115-.237-1.666,1.127-3.4-5.025Zm-3.723-5.645.259-.069a6.839,6.839,0,0,1,2.338-8.437,6.1,6.1,0,0,1,1.113-.6l-.055-.262a6.43,6.43,0,0,0-1.2.643,7.106,7.106,0,0,0-2.918,4.417A6.8,6.8,0,0,0,2603.278,705.867Zm8.96-9.094-.062.263a6.938,6.938,0,0,1,2.557,2.287l2.294,3.389.238-.114-2.316-3.422A7.188,7.188,0,0,0,2612.238,696.773Zm9.131,12.358-6.162,4.169.169.2,6.356-4.3-1.892-2.8-.216.148Z" transform="translate(-2602.656 -696.502)" fill="#155bcd"/>
              </g>
            </g>
          </g>
        </g>
      </g>
      <g id="Grupo_959138" data-name="Grupo 959138" transform="translate(421.254 349.145)">
        <g id="Grupo_959133" data-name="Grupo 959133" transform="translate(0 0)">
          <g id="Grupo_959132" data-name="Grupo 959132">
            <g id="Grupo_959131" data-name="Grupo 959131">
              <g id="Grupo_959130" data-name="Grupo 959130">
                <path id="Trazado_723421" data-name="Trazado 723421" d="M2159.246,935.583l-6.124-12.248L2147,935.583a6.847,6.847,0,0,0,6.124,9.909h0A6.847,6.847,0,0,0,2159.246,935.583Z" transform="translate(-2146.266 -923.335)" fill="#155bcd"/>
              </g>
            </g>
          </g>
        </g>
        <g id="Grupo_959137" data-name="Grupo 959137" transform="translate(3.994 11.382)">
          <g id="Grupo_959136" data-name="Grupo 959136">
            <g id="Grupo_959135" data-name="Grupo 959135">
              <g id="Grupo_959134" data-name="Grupo 959134">
                <path id="Trazado_723422" data-name="Trazado 723422" d="M2174.777,1006.2a5.882,5.882,0,0,1-2.681-.645.333.333,0,0,1,.3-.591,5.213,5.213,0,0,0,2.376.571,5.185,5.185,0,0,0,4.637-7.5l-.564-1.128a.333.333,0,0,1,.6-.3l.564,1.128a5.849,5.849,0,0,1-5.232,8.466Z" transform="translate(-2171.916 -996.425)" fill="#fff"/>
              </g>
            </g>
          </g>
        </g>
      </g>
      <g id="Grupo_959142" data-name="Grupo 959142" transform="translate(558.476 268.956)">
        <g id="Grupo_959141" data-name="Grupo 959141" transform="translate(0 0)">
          <g id="Grupo_959140" data-name="Grupo 959140">
            <g id="Grupo_959139" data-name="Grupo 959139">
              <path id="Trazado_723423" data-name="Trazado 723423" d="M3027.708,422.483a3.47,3.47,0,0,1,4.611-4.54,4.374,4.374,0,0,1,6.281-5.059,6.328,6.328,0,0,1,12.378,1.854c0,.172-.009.342-.022.511a3.467,3.467,0,0,1,3.886,4.051h.055a3.469,3.469,0,0,1,3.457,3.184Z" transform="translate(-3027.423 -408.411)" fill="#e5e6eb"/>
            </g>
          </g>
        </g>
      </g>
      <g id="Grupo_959145" data-name="Grupo 959145" transform="translate(367.685 252.021)">
        <g id="Grupo_959144" data-name="Grupo 959144" transform="translate(0 0)">
          <g id="Grupo_959143" data-name="Grupo 959143">
            <path id="Trazado_723424" data-name="Trazado 723424" d="M1837.03,314.857a4.88,4.88,0,0,0-2.37-2.65,4.865,4.865,0,0,0-4.51-6.685,4.9,4.9,0,0,0-.709.052A7.6,7.6,0,0,0,1815,304.366a4.865,4.865,0,0,0-6.91,4.412,4.9,4.9,0,0,0,.052.713,4.865,4.865,0,0,0-5.833,5.366Z" transform="translate(-1802.275 -299.66)" fill="#e5e6eb"/>
          </g>
        </g>
      </g>
    </g>
  </g>
</svg>
