<svg xmlns="http://www.w3.org/2000/svg" xmlns:xlink="http://www.w3.org/1999/xlink" width="1600" height="220" viewBox="0 0 1600 220">
  <defs>
    <clipPath id="clip-path">
      <rect id="Rectángulo_5590" data-name="Rectángulo 5590" width="1600" height="220" transform="translate(-10371 -12107)" fill="#fff" stroke="#707070" stroke-width="1"/>
    </clipPath>
    <clipPath id="clip-path-2">
      <rect id="Rectángulo_5084" data-name="Rectángulo 5084" width="398.317" height="166.358" fill="#80cab6"/>
    </clipPath>
    <clipPath id="clip-path-4">
      <rect id="Rectángulo_5562" data-name="Rectángulo 5562" width="247.81" height="197.72" fill="none"/>
    </clipPath>
    <clipPath id="clip-path-6">
      <rect id="Rectángulo_5559" data-name="Rectángulo 5559" width="30.344" height="92.743" transform="translate(84.291 44.92)" fill="none"/>
    </clipPath>
    <clipPath id="clip-path-7">
      <rect id="Rectángulo_5560" data-name="Rectángulo 5560" width="93.61" height="69.504" transform="translate(82.871 43.704)" fill="none"/>
    </clipPath>
    <clipPath id="clip-path-8">
      <rect id="Rectángulo_5578" data-name="Rectángulo 5578" width="136.765" height="166.333" fill="none"/>
    </clipPath>
    <clipPath id="clip-path-10">
      <rect id="Rectángulo_5575" data-name="Rectángulo 5575" width="115.178" height="75.818" fill="none"/>
    </clipPath>
    <clipPath id="clip-path-11">
      <rect id="Rectángulo_5576" data-name="Rectángulo 5576" width="59.968" height="161.486" fill="none"/>
    </clipPath>
    <clipPath id="clip-path-12">
      <rect id="Rectángulo_5578-2" data-name="Rectángulo 5578" width="143.891" height="175" fill="none"/>
    </clipPath>
    <clipPath id="clip-path-14">
      <rect id="Rectángulo_5575-2" data-name="Rectángulo 5575" width="121.179" height="79.768" fill="none"/>
    </clipPath>
    <clipPath id="clip-path-15">
      <rect id="Rectángulo_5576-2" data-name="Rectángulo 5576" width="63.092" height="169.9" fill="none"/>
    </clipPath>
  </defs>
  <g id="Enmascarar_grupo_46" data-name="Enmascarar grupo 46" transform="translate(10371 12107)" clip-path="url(#clip-path)">
    <g id="Grupo_56423" data-name="Grupo 56423" transform="translate(-10371 -12176)">
      <g id="Grupo_53028" data-name="Grupo 53028">
        <g id="Grupo_49020" data-name="Grupo 49020" transform="translate(0 69)">
          <g id="Group_1153" data-name="Group 1153">
            <path id="Recurso_1" data-name="Recurso 1" d="M0,0H1600V220H0Z" fill="#0540b7"/>
          </g>
        </g>
      </g>
      <g id="Grupo_53488" data-name="Grupo 53488" transform="translate(373 69)">
        <g id="Grupo_53487" data-name="Grupo 53487" clip-path="url(#clip-path-2)">
          <path id="Trazado_99991" data-name="Trazado 99991" d="M584.52,11.2a4.991,4.991,0,1,1-4.991-4.991A4.991,4.991,0,0,1,584.52,11.2Z" transform="translate(-186.571 -2.016)" fill="#80cab6" stroke="#fff" stroke-linecap="round" stroke-linejoin="round" stroke-width="1.092"/>
          <path id="Trazado_99992" data-name="Trazado 99992" d="M98.21,3.188A3.188,3.188,0,1,1,95.022,0,3.188,3.188,0,0,1,98.21,3.188" transform="translate(-29.821)" fill="#80cab6"/>
          <path id="Trazado_99993" data-name="Trazado 99993" d="M415.873,151.942a3.188,3.188,0,1,1-3.188-3.188,3.188,3.188,0,0,1,3.188,3.188" transform="translate(-132.977 -48.305)" fill="#80cab6"/>
          <path id="Trazado_99994" data-name="Trazado 99994" d="M211.893,99.58a1.734,1.734,0,1,1-1.734-1.735,1.734,1.734,0,0,1,1.734,1.735" transform="translate(-67.682 -31.773)" fill="#80cab6"/>
          <path id="Trazado_99995" data-name="Trazado 99995" d="M312.457,219.279a1.734,1.734,0,1,1-1.735-1.735,1.734,1.734,0,0,1,1.735,1.735" transform="translate(-100.338 -70.644)" fill="#80cab6"/>
          <path id="Trazado_99996" data-name="Trazado 99996" d="M3.468,242.956a1.734,1.734,0,1,1-1.734-1.735,1.734,1.734,0,0,1,1.734,1.735" transform="translate(0 -78.332)" fill="#80cab6"/>
        </g>
      </g>
      <g id="Grupo_53489" data-name="Grupo 53489" transform="translate(938.342 69)">
        <g id="Grupo_53487-2" data-name="Grupo 53487" clip-path="url(#clip-path-2)">
          <path id="Trazado_99991-2" data-name="Trazado 99991" d="M584.52,11.2a4.991,4.991,0,1,1-4.991-4.991A4.991,4.991,0,0,1,584.52,11.2Z" transform="translate(-186.571 -2.016)" fill="#80cab6" stroke="#fff" stroke-linecap="round" stroke-linejoin="round" stroke-width="1.092"/>
          <path id="Trazado_99992-2" data-name="Trazado 99992" d="M98.21,3.188A3.188,3.188,0,1,1,95.022,0,3.188,3.188,0,0,1,98.21,3.188" transform="translate(-29.821)" fill="#80cab6"/>
          <path id="Trazado_99993-2" data-name="Trazado 99993" d="M415.873,151.942a3.188,3.188,0,1,1-3.188-3.188,3.188,3.188,0,0,1,3.188,3.188" transform="translate(-132.977 -48.305)" fill="#80cab6"/>
          <path id="Trazado_99994-2" data-name="Trazado 99994" d="M211.893,99.58a1.734,1.734,0,1,1-1.734-1.735,1.734,1.734,0,0,1,1.734,1.735" transform="translate(-67.682 -31.773)" fill="#80cab6"/>
          <path id="Trazado_99995-2" data-name="Trazado 99995" d="M312.457,219.279a1.734,1.734,0,1,1-1.735-1.735,1.734,1.734,0,0,1,1.735,1.735" transform="translate(-100.338 -70.644)" fill="#80cab6"/>
          <path id="Trazado_99996-2" data-name="Trazado 99996" d="M3.468,242.956a1.734,1.734,0,1,1-1.734-1.735,1.734,1.734,0,0,1,1.734,1.735" transform="translate(0 -78.332)" fill="#80cab6"/>
        </g>
      </g>
    </g>
    <g id="Grupo_56753" data-name="Grupo 56753" transform="translate(-10448.81 -12156.126)">
      <g id="Grupo_56677" data-name="Grupo 56677" clip-path="url(#clip-path-4)">
        <g id="Grupo_56676" data-name="Grupo 56676">
          <g id="Grupo_56675" data-name="Grupo 56675" clip-path="url(#clip-path-4)">
            <path id="Trazado_104740" data-name="Trazado 104740" d="M38.013,190.536c8.216.558,16.013,3.681,24.053,5.461a74.415,74.415,0,0,0,86.171-47.639c3.462-9.7,5.025-20.349,11.066-28.69,7.94-10.962,21.736-15.541,33.976-21.322,16.5-7.793,31.7-19.05,41.964-34.133s15.21-34.239,11.145-52.026c-36.6,1.2-72.818-6.605-109.27-10.056C91.793-2.16,45.983.3.965,7.1,0,35.9-.967,64.812,1.945,93.486c2.251,22.163,6.8,44.018,9.16,66.166.6,5.62,1.073,11.257,1.315,16.9.15,3.495-1.266,10.829,1.224,13.69,4.547,5.224,18.4-.116,24.369.29" fill="#829b1b"/>
            <path id="Trazado_104741" data-name="Trazado 104741" d="M109.876,46.76A77.87,77.87,0,0,0,128.37,57.885a20.3,20.3,0,0,1,4.448-6.728c3.224-2.925,6.268-3.551,7.915-1.561,1.4,2.168-.122,4.879-3.894,7.053a18.369,18.369,0,0,1-6.472,2.046,78.553,78.553,0,0,0,10.246,3.265,20.248,20.248,0,0,1,3.571-7.657c2.787-3.354,5.714-4.39,7.614-2.643,1.68,1.957.555,4.847-2.879,7.526a19.449,19.449,0,0,1-6.846,3.114c1.4.323,2.8.608,4.223.851,2.559.435,5.152.748,7.751.951a20.4,20.4,0,0,1,2.665-8.055c2.377-3.647,5.166-5.008,7.257-3.5,1.889,1.75,1.114,4.751-1.983,7.807a19.4,19.4,0,0,1-6.383,3.865,84.514,84.514,0,0,0,10.028.046,20.547,20.547,0,0,1,2.3-8.221c2.214-3.747,4.933-5.239,7.091-3.826,1.979,1.663,1.327,4.7-1.63,7.889a19.084,19.084,0,0,1-5.918,4.031c1.686-.134,3.354-.3,5.025-.524.69-.1,1.424-.208,2.156-.326a20.359,20.359,0,0,1,7.091-4.433c4.156-1.3,7.181-.6,7.831,1.907.348,2.557-2.165,4.376-6.5,4.761a19.967,19.967,0,0,1-8.079-1.311A73.709,73.709,0,0,1,163.213,65.3a19.249,19.249,0,0,1,6.049,3.944c3.022,3.137,3.725,6.164,1.777,7.852-2.131,1.463-4.882.016-7.16-3.691a20.63,20.63,0,0,1-2.453-8.079,89.969,89.969,0,0,1-12.179-.777,20.022,20.022,0,0,1,5.914,5.308c2.425,3.609,2.605,6.714.407,8.049-2.353,1.061-4.822-.82-6.431-4.873a20.741,20.741,0,0,1-1.012-8.641,83.163,83.163,0,0,1-11.56-2.527,20.656,20.656,0,0,1,6.68,5.766c2.441,3.606,2.623,6.71.408,8.041-2.345,1.081-4.811-.82-6.414-4.857a21.165,21.165,0,0,1-.978-9.038c-2.06-.61-4.079-1.31-6.074-2.091-.64-.246-1.274-.515-1.909-.778-.193.009-.316.01-.316.01s.019-.046.05-.118q-2.182-.933-4.3-1.994a17.862,17.862,0,0,1,3.684,4.9c1.874,3.922,1.584,7.015-.8,8.013-2.478.705-4.633-1.528-5.627-5.766A20.47,20.47,0,0,1,121.2,55.5a78.8,78.8,0,0,1-11.924-8.006.474.474,0,0,1,.6-.734" fill="#3a8931"/>
            <path id="Trazado_104742" data-name="Trazado 104742" d="M84.288,44.926s.492.287,1.416.832c.8.575,2.239,1.351,3.555,2.439A61.125,61.125,0,0,1,99.274,57.33a63.611,63.611,0,0,1,9.2,13.734,61.379,61.379,0,0,1,5.308,16.615,60.1,60.1,0,0,1,.383,17.429,62.643,62.643,0,0,1-4.27,15.968,67.951,67.951,0,0,1-3.236,6.638c-1.088,1.987-2.347,3.78-3.341,5.238a42.032,42.032,0,0,1-2.594,3.456c-.645.806-1.081,1.253-1.081,1.253s-.55-.277-1.426-.827c-.812-.567-2.252-1.352-3.574-2.437-1.406-1.067-3.181-2.357-4.852-3.889a68.463,68.463,0,0,1-5.2-5.241A62.4,62.4,0,0,1,75.4,111.538,60.412,60.412,0,0,1,70.146,94.9a61.215,61.215,0,0,1-.333-17.439,63.481,63.481,0,0,1,4.281-15.96,61.644,61.644,0,0,1,6.531-11.881c.9-1.452,2.008-2.659,2.585-3.451.7-.817,1.078-1.248,1.078-1.248" fill="#aed144"/>
            <path id="Trazado_104743" data-name="Trazado 104743" d="M74.553,83.207q5.9-11.751,11.778-23.488L89.79,80.643c-.1.082-.217.138-.27.247q-6.231,12.429-12.462,24.851c-.4.81.915,1.3,1.312.5Q84.262,94.5,90.142,82.751l3.467,20.928c-.1.081-.224.149-.273.257q-3.6,7.172-7.2,14.345c-.4.814.916,1.3,1.311.5q3.261-6.5,6.513-12.99l4.748,28.683,1.149-.2-4.642-28.064q5.151,4.633,10.31,9.259c.669.616,1.485-.542.806-1.131q-5.736-5.163-11.481-10.321L91.4,83.175q.444.4.9.812c2.234,2.014,4.49,4.025,6.735,6.045,3.4,3.053,6.8,6.118,10.208,9.159.667.621,1.479-.533.813-1.13q-9.516-8.541-19.018-17.088L87.579,60.132c.3.271.6.541.889.81q3.372,3.018,6.738,6.052,5.113,4.579,10.21,9.164c.671.606,1.483-.545.813-1.143q-9.5-8.542-19.016-17.081l-.994-6.026-1.157.194.914,5.5c-.1.076-.224.138-.271.248Q79.466,70.272,73.247,82.7c-.412.809.9,1.3,1.306.506" fill="#246b1a"/>
            <g id="Grupo_56671" data-name="Grupo 56671" opacity="0.1">
              <g id="Grupo_56670" data-name="Grupo 56670">
                <g id="Grupo_56669" data-name="Grupo 56669" clip-path="url(#clip-path-6)">
                  <path id="Trazado_104744" data-name="Trazado 104744" d="M99.649,137.663s.442-.447,1.081-1.247a42.154,42.154,0,0,0,2.6-3.456c.984-1.466,2.249-3.261,3.339-5.247a66.76,66.76,0,0,0,3.23-6.64,62.215,62.215,0,0,0,4.274-15.964,60.4,60.4,0,0,0-.381-17.432,61.785,61.785,0,0,0-5.307-16.619A63.621,63.621,0,0,0,99.28,57.331a61.5,61.5,0,0,0-10.016-9.136,41.389,41.389,0,0,0-3.556-2.436c-.917-.533-1.415-.831-1.417-.839Z" fill="#211a72"/>
                </g>
              </g>
            </g>
            <path id="Trazado_104745" data-name="Trazado 104745" d="M92.751,75.352a77.956,77.956,0,0,1,15.87,14.629,20.234,20.234,0,0,0-5.208,6.158c-1.9,3.914-1.649,7.011.725,8.035,2.471.731,4.646-1.489,5.674-5.719a18.446,18.446,0,0,0,.148-6.787,78.67,78.67,0,0,1,6.008,8.917,20.262,20.262,0,0,0-6.346,5.578c-2.436,3.616-2.61,6.715-.4,8.049,2.35,1.064,4.806-.828,6.413-4.877a19.432,19.432,0,0,0,1.067-7.444c.7,1.254,1.373,2.522,2,3.814,1.135,2.335,2.164,4.736,3.087,7.172a20.43,20.43,0,0,0-6.981,4.82c-2.834,3.306-3.355,6.365-1.324,7.948,2.211,1.321,4.875-.264,6.936-4.095a19.447,19.447,0,0,0,1.921-7.21,85.558,85.558,0,0,1,2.858,9.611,20.552,20.552,0,0,0-7.246,4.518c-2.972,3.18-3.643,6.207-1.678,7.882,2.149,1.428,4.884-.047,7.112-3.781a19.1,19.1,0,0,0,2.206-6.809c.345,1.652.658,3.3.91,4.968.1.69.2,1.425.29,2.161a20.385,20.385,0,0,0-2.261,8.051c-.086,4.356,1.442,7.06,4.026,6.979,2.554-.382,3.593-3.3,2.747-7.571a20,20,0,0,0-3.524-7.383,74.234,74.234,0,0,0-2.265-11.626,19.227,19.227,0,0,0,5.483,4.7c3.858,2.021,6.96,1.846,8.035-.5.8-2.456-1.357-4.692-5.553-5.836a20.648,20.648,0,0,0-8.442-.086,89.88,89.88,0,0,0-4.164-11.472,19.944,19.944,0,0,0,6.753,4.185c4.145,1.317,7.173.618,7.841-1.868.358-2.555-2.144-4.4-6.483-4.8a20.677,20.677,0,0,0-8.575,1.456,83.156,83.156,0,0,0-5.676-10.388,20.68,20.68,0,0,0,7.411,4.793c4.145,1.33,7.176.633,7.832-1.866.379-2.552-2.137-4.388-6.461-4.791a21.116,21.116,0,0,0-8.95,1.6c-1.165-1.806-2.4-3.548-3.713-5.244-.413-.546-.85-1.078-1.283-1.611-.043-.189-.077-.309-.077-.309l-.1.083q-1.5-1.832-3.12-3.568a17.864,17.864,0,0,0,5.736,2.162c4.293.695,7.178-.451,7.469-3.013-.018-2.577-2.769-4.019-7.116-3.783a20.45,20.45,0,0,0-8.051,2.592,78.351,78.351,0,0,0-11.031-9.195.472.472,0,0,0-.535.778" fill="#3a8931"/>
            <path id="Trazado_104746" data-name="Trazado 104746" d="M82.873,46.088s.676-.174,1.952-.507c1.19-.2,3.112-.766,5.192-.962a75.035,75.035,0,0,1,16.587-.743,77.777,77.777,0,0,1,19.876,3.93,75.175,75.175,0,0,1,18.982,9.821,73.64,73.64,0,0,1,15.426,14.779,76.715,76.715,0,0,1,10.118,17.541,81.256,81.256,0,0,1,2.937,8.561,75.047,75.047,0,0,1,1.642,7.44,48.555,48.555,0,0,1,.744,5.239c.143,1.257.148,2.02.148,2.02s-.719.235-1.95.523c-1.2.2-3.127.775-5.215.977-2.142.287-4.8.708-7.575.828a83.473,83.473,0,0,1-9.04-.041,76.613,76.613,0,0,1-19.862-3.947,74.02,74.02,0,0,1-18.952-9.872A74.565,74.565,0,0,1,98.5,86.83,77.5,77.5,0,0,1,88.39,69.282a75.741,75.741,0,0,1-4.627-15.946c-.47-2.04-.555-4.056-.742-5.235-.1-1.309-.148-2.013-.148-2.013" fill="#aed144"/>
            <path id="Trazado_104747" data-name="Trazado 104747" d="M107.568,87.708q-5.049-15.287-10.12-30.558l21.117,15.143a1,1,0,0,0-.021.449q5.358,16.176,10.71,32.343c.359,1.049,1.916.337,1.57-.7Q125.771,89.1,120.7,73.825l21.124,15.14a1.075,1.075,0,0,0-.025.464q3.1,9.332,6.18,18.672c.355,1.048,1.927.33,1.573-.695q-2.8-8.467-5.592-16.906l28.947,20.755.824-1.166L145.412,89.783q8.477-.444,16.954-.9c1.113-.043.818-1.751-.274-1.673q-9.448.479-18.9.985L122.149,73.1c.5-.021.993-.04,1.478-.071,3.687-.19,7.386-.394,11.08-.584q8.393-.447,16.779-.895c1.116-.044.823-1.749-.273-1.68q-15.645.817-31.285,1.64L98.889,56.427c.5-.027.987-.054,1.484-.077,3.689-.2,7.389-.391,11.074-.572q8.4-.46,16.789-.9c1.11-.054.818-1.751-.283-1.684Q112.314,54,96.676,54.831L90.6,50.475l-.843,1.157L95.31,55.61a.983.983,0,0,0-.026.455Q100.645,72.237,106,88.4c.342,1.057,1.9.338,1.565-.7" fill="#246b1a"/>
            <g id="Grupo_56674" data-name="Grupo 56674" opacity="0.1">
              <g id="Grupo_56673" data-name="Grupo 56673">
                <g id="Grupo_56672" data-name="Grupo 56672" clip-path="url(#clip-path-7)">
                  <path id="Trazado_104748" data-name="Trazado 104748" d="M176.481,113.208c0-.007,0-.769-.144-2.024a52.579,52.579,0,0,0-.734-5.246c-.418-2.118-.869-4.776-1.655-7.439a79.326,79.326,0,0,0-2.939-8.554A76.43,76.43,0,0,0,160.9,72.4a74.24,74.24,0,0,0-15.423-14.783A75.438,75.438,0,0,0,126.484,47.8a77.5,77.5,0,0,0-19.866-3.935,75.328,75.328,0,0,0-16.6.741,52.07,52.07,0,0,0-5.189.967c-1.257.334-1.953.508-1.959.505Z" fill="#211a72"/>
                </g>
              </g>
            </g>
          </g>
        </g>
      </g>
    </g>
    <g id="Grupo_56754" data-name="Grupo 56754" transform="translate(534 112.358)">
      <path id="Trazado_104900" data-name="Trazado 104900" d="M203.14,22.265a7.439,7.439,0,0,0-1.052.108,14.518,14.518,0,0,0-21.647-12.51,18.5,18.5,0,0,0-34.22,3.831,11.64,11.64,0,0,0-2.5-.281,11.922,11.922,0,1,0,8.9,19.78,18.329,18.329,0,0,0,24-.847,14.412,14.412,0,0,0,20.218,1.44,7.492,7.492,0,1,0,6.309-11.521" transform="translate(-10201 -12080.11)" fill="#e6fcfa"/>
      <path id="Trazado_104901" data-name="Trazado 104901" d="M203.14,32.7a7.489,7.489,0,0,1-6.309-3.469,14.413,14.413,0,0,1-20.218-1.444,18.323,18.323,0,0,1-24,.847,11.859,11.859,0,0,1-20.589-5.578,11.769,11.769,0,0,0-.229,2.28,11.873,11.873,0,0,0,20.818,7.86,18.328,18.328,0,0,0,24-.846,14.412,14.412,0,0,0,20.218,1.44,7.461,7.461,0,0,0,13.416-6.309A7.472,7.472,0,0,1,203.14,32.7" transform="translate(-10201 -12080.11)" fill="#c8ebf3"/>
    </g>
    <g id="Grupo_56755" data-name="Grupo 56755" transform="translate(-41 -32.887)">
      <path id="Trazado_104902" data-name="Trazado 104902" d="M5.174,106.917a5.009,5.009,0,0,1,.722.076A10.077,10.077,0,0,1,15.97,97.075a9.958,9.958,0,0,1,4.848,1.291,12.754,12.754,0,0,1,23.59,2.641,8.332,8.332,0,0,1,1.732-.187A8.218,8.218,0,1,1,40,114.451a12.635,12.635,0,0,1-16.546-.583,9.936,9.936,0,0,1-13.937,1,5.164,5.164,0,1,1-4.341-7.947" transform="translate(-10201 -12080.11)" fill="#e6fcfa"/>
      <path id="Trazado_104903" data-name="Trazado 104903" d="M5.174,114.108a5.138,5.138,0,0,0,4.341-2.388,9.94,9.94,0,0,0,13.937-1A12.64,12.64,0,0,0,40,111.307a8.179,8.179,0,0,0,14.2-3.845,7.9,7.9,0,0,1,.16,1.576A8.187,8.187,0,0,1,40,114.451a12.635,12.635,0,0,1-16.546-.583,9.936,9.936,0,0,1-13.937,1A5.161,5.161,0,0,1,0,112.085a5.293,5.293,0,0,1,.267-1.576,5.157,5.157,0,0,0,4.907,3.6" transform="translate(-10201 -12080.11)" fill="#c8ebf3"/>
    </g>
    <path id="Trazado_104904" data-name="Trazado 104904" d="M107.549,159.644a4.268,4.268,0,0,0-.635.066,8.8,8.8,0,0,0-13.128-7.589,11.219,11.219,0,0,0-20.755,2.325,7.046,7.046,0,0,0-1.524-.17,7.23,7.23,0,1,0,5.4,12,11.126,11.126,0,0,0,14.558-.513,8.747,8.747,0,0,0,12.263.874,4.543,4.543,0,1,0,3.821-6.989" transform="translate(-9962 -12192.11)" fill="#e6fcfa"/>
    <path id="Trazado_104916" data-name="Trazado 104916" d="M107.549,159.644a4.268,4.268,0,0,0-.635.066,8.8,8.8,0,0,0-13.128-7.589,11.219,11.219,0,0,0-20.755,2.325,7.046,7.046,0,0,0-1.524-.17,7.23,7.23,0,1,0,5.4,12,11.126,11.126,0,0,0,14.558-.513,8.747,8.747,0,0,0,12.263.874,4.543,4.543,0,1,0,3.821-6.989" transform="translate(-9310 -12192.11)" fill="#e6fcfa"/>
    <path id="Trazado_104905" data-name="Trazado 104905" d="M107.549,165.97a4.532,4.532,0,0,1-3.821-2.107,8.737,8.737,0,0,1-12.263-.874,11.116,11.116,0,0,1-14.558.514,7.191,7.191,0,0,1-12.486-3.38,6.993,6.993,0,0,0-.139,1.381,7.2,7.2,0,0,0,12.625,4.768,11.125,11.125,0,0,0,14.558-.514,8.746,8.746,0,0,0,12.263.875,4.525,4.525,0,0,0,8.134-3.828,4.534,4.534,0,0,1-4.313,3.165" transform="translate(-9962 -12192.11)" fill="#c8ebf3"/>
    <rect id="Rectángulo_5584" data-name="Rectángulo 5584" width="210.639" height="168.736" transform="translate(-10201 -12080.11)" fill="none"/>
    <g id="Grupo_56756" data-name="Grupo 56756" transform="translate(-8769.583 -12086.762)">
      <g id="Grupo_56721" data-name="Grupo 56721" transform="translate(-92.666 40.177)" clip-path="url(#clip-path-8)">
        <g id="Grupo_56720" data-name="Grupo 56720">
          <g id="Grupo_56719" data-name="Grupo 56719" clip-path="url(#clip-path-8)">
            <path id="Trazado_104883" data-name="Trazado 104883" d="M16.742,142.492s.116-.81.337-2.341c.326-1.383.573-3.724,1.3-6.074a88.439,88.439,0,0,1,6.688-18.344A91.615,91.615,0,0,1,38.331,95.952,88.357,88.357,0,0,1,57.57,79.784,86.571,86.571,0,0,1,80.583,69.73,90.175,90.175,0,0,1,104.2,66.682a97.615,97.615,0,0,1,10.618.676c3.24.362,6.324,1.062,8.809,1.585a60.34,60.34,0,0,1,6.025,1.566c1.428.417,2.26.752,2.26.752s-.066.886-.321,2.355c-.31,1.392-.569,3.742-1.29,6.1-.653,2.457-1.4,5.529-2.524,8.595a100.234,100.234,0,0,1-4.137,9.8,89.933,89.933,0,0,1-13.267,19.768,86.806,86.806,0,0,1-19.288,16.1,88.069,88.069,0,0,1-23.053,9.992A91.53,91.53,0,0,1,44.418,147a88.882,88.882,0,0,1-19.408-2.2c-2.426-.408-4.642-1.223-6.012-1.558-1.473-.484-2.256-.752-2.256-.752" transform="translate(4.854 19.33)" fill="#4cad3e"/>
            <path id="Trazado_104884" data-name="Trazado 104884" d="M71.231,133.127q-18.886-1.43-37.744-2.838l25.985-16.066a1.283,1.283,0,0,0,.479.228q19.975,1.5,39.938,3c1.3.085,1.231-1.928-.05-2.023Q80.971,114,62.09,112.6L88.079,96.525a1.189,1.189,0,0,0,.493.224q11.528.873,23.057,1.745c1.3.085,1.227-1.934-.045-2.028q-10.44-.786-20.877-1.566l35.622-22.029-.891-1.423L90.582,93q3.357-9.4,6.7-18.805c.458-1.231-1.535-1.683-1.946-.457Q91.583,84.2,87.86,94.685L61.969,110.7q.3-.813.591-1.634c1.46-4.083,2.906-8.191,4.369-12.288,2.2-6.208,4.427-12.417,6.616-18.616.462-1.231-1.521-1.679-1.952-.466q-6.17,17.356-12.359,34.7L33.353,128.4c.2-.547.39-1.1.591-1.63q2.177-6.143,4.378-12.291,3.3-9.318,6.621-18.621c.439-1.227-1.536-1.678-1.966-.457q-6.19,17.33-12.355,34.687l-7.484,4.623.891,1.437,6.821-4.226a1.122,1.122,0,0,0,.479.23q19.975,1.5,39.942,2.99c1.3.107,1.236-1.917-.04-2.015" transform="translate(6.708 20.713)" fill="#aacd44"/>
            <g id="Grupo_56715" data-name="Grupo 56715" transform="translate(21.587 86.005)" opacity="0.1">
              <g id="Grupo_56714" data-name="Grupo 56714">
                <g id="Grupo_56713" data-name="Grupo 56713" clip-path="url(#clip-path-10)">
                  <path id="Trazado_104885" data-name="Trazado 104885" d="M131.913,71.258s-.837-.344-2.251-.756a59.605,59.605,0,0,0-6.03-1.576c-2.493-.511-5.578-1.212-8.823-1.575a95.1,95.1,0,0,0-10.613-.672,89.684,89.684,0,0,0-23.612,3.044,87.021,87.021,0,0,0-23.021,10.05A88.973,88.973,0,0,0,38.324,95.94a91.579,91.579,0,0,0-13.255,19.785,88.535,88.535,0,0,0-6.692,18.349,60.64,60.64,0,0,0-1.3,6.074c-.21,1.513-.332,2.336-.344,2.345Z" transform="translate(-16.735 -66.675)" fill="#211a72"/>
                </g>
              </g>
            </g>
            <path id="Trazado_104886" data-name="Trazado 104886" d="M43.98,122.724A112.392,112.392,0,0,1,54.786,93.57a29.152,29.152,0,0,0,11.057,3.568c6.257.395,10.246-1.642,10.308-5.362-.375-3.693-4.525-5.376-10.724-4.432A26.578,26.578,0,0,0,56.3,90.863a113.072,113.072,0,0,1,8.591-12.887c1.759,1.361,6.159,4.423,10.909,5.4,6.15,1.267,10.376-.2,10.944-3.876.13-3.716-3.737-5.954-10.008-5.878a27.961,27.961,0,0,0-10.5,2.655q1.925-2.43,3.983-4.758c2.493-2.789,5.13-5.474,7.868-8.039,1.558,1.517,5.6,5.129,10.247,6.665,5.953,1.965,10.318.984,11.316-2.588.55-3.67-3.022-6.351-9.258-7a27.989,27.989,0,0,0-10.657,1.387,122.233,122.233,0,0,1,11.244-9.068c1.455,1.562,5.371,5.407,9.986,7.18,5.864,2.22,10.264,1.455,11.423-2.077.725-3.649-2.736-6.482-8.935-7.409a27.533,27.533,0,0,0-10.282.788c2.015-1.365,4.043-2.686,6.124-3.934.863-.506,1.79-1.044,2.72-1.567,2.3.17,7.543.322,11.965-1.4,5.851-2.265,8.617-5.784,7.1-9.185-1.906-3.191-6.373-2.977-11.594.488a28.861,28.861,0,0,0-7.914,8.733,107.028,107.028,0,0,0-14.248,9.387,27.787,27.787,0,0,0,3.258-9.878c.578-6.25-1.352-10.287-5.067-10.434-3.711.272-5.505,4.378-4.735,10.594.609,4.8,3.311,9.432,4.507,11.294A129.175,129.175,0,0,0,72.28,67.291,28.738,28.738,0,0,0,74.159,56c-.515-6.244-3.1-9.9-6.781-9.428-3.6.922-4.688,5.265-2.852,11.267,1.495,4.911,5.3,9.231,6.634,10.631a120.293,120.293,0,0,0-10.733,13.25c.644-1.571,2.766-7.194,2.327-12.5-.5-6.253-3.084-9.91-6.773-9.419-3.607.9-4.677,5.251-2.847,11.236,1.707,5.6,6.4,10.42,7.029,11.052-1.768,2.537-3.412,5.143-4.956,7.816-.5.85-.971,1.723-1.446,2.591-.227.161-.366.273-.366.273s.062.035.165.089q-1.618,3.009-3.048,6.11a25.769,25.769,0,0,0-.255-8.827c-1.428-6.1-4.534-9.32-8.106-8.3C38.725,83.279,38.309,87.733,41,93.4c2.091,4.387,6.137,7.928,7.861,9.307a113.585,113.585,0,0,0-6.217,19.736.682.682,0,0,0,1.334.286" transform="translate(11.377 9.572)" fill="#aed144"/>
            <path id="Trazado_104887" data-name="Trazado 104887" d="M21.766,161.48s-.6-.806-1.741-2.323c-.922-1.477-2.726-3.729-4.126-6.393a107.927,107.927,0,0,1-10.068-21.7A112,112,0,0,1,.186,102.43,108.274,108.274,0,0,1,2.881,71.759,106.145,106.145,0,0,1,14.13,43.115,110.6,110.6,0,0,1,31.968,20.026a117.429,117.429,0,0,1,9.8-8.6,109.6,109.6,0,0,1,9.015-6.262,71.291,71.291,0,0,1,6.576-3.858C58.955.43,59.967,0,59.967,0s.707.828,1.763,2.314c.931,1.482,2.744,3.743,4.159,6.411,1.558,2.7,3.572,6.016,5.251,9.646a120.447,120.447,0,0,1,4.893,12.068,110.4,110.4,0,0,1,5.612,28.626,106.569,106.569,0,0,1-2.78,30.662A107.439,107.439,0,0,1,67.5,118.356a111.708,111.708,0,0,1-17.851,23.075,108.773,108.773,0,0,1-18.715,14.892c-2.462,1.745-5.1,2.964-6.572,3.859-1.687.846-2.6,1.3-2.6,1.3" transform="translate(0.001 0.001)" fill="#3a8931"/>
            <path id="Trazado_104888" data-name="Trazado 104888" d="M62.267,104.581q-17.605,15.1-35.178,30.215l8.617-36.428a1.467,1.467,0,0,0,.613-.219Q54.937,82.155,73.552,66.176c1.2-1.053-.6-2.74-1.792-1.71q-17.6,15.1-35.183,30.219L45.19,58.243a1.489,1.489,0,0,0,.631-.219q10.738-9.239,21.5-18.455c1.2-1.049-.613-2.749-1.79-1.716Q55.789,46.22,46.068,54.559L57.88,4.623l-2.01-.462L44.318,53.02q-5.232-11.06-10.484-22.1c-.667-1.459-2.778-.134-2.077,1.281q5.808,12.327,11.657,24.641L34.819,93.149c-.3-.649-.6-1.3-.9-1.928-2.27-4.809-4.566-9.629-6.844-14.446Q21.88,65.837,16.695,54.9c-.671-1.459-2.78-.138-2.091,1.286q9.655,20.4,19.311,40.792L25.333,133.27q-.457-.962-.912-1.935-3.425-7.209-6.827-14.44Q12.391,105.959,7.2,95.015c-.68-1.45-2.784-.134-2.091,1.3q9.636,20.4,19.307,40.782l-2.475,10.488,2,.489,2.26-9.584a1.394,1.394,0,0,0,.618-.215q18.619-15.994,37.229-31.987c1.222-1.033-.591-2.722-1.787-1.705" transform="translate(1.443 1.206)" fill="#aacd44"/>
            <g id="Grupo_56718" data-name="Grupo 56718" opacity="0.1">
              <g id="Grupo_56717" data-name="Grupo 56717">
                <g id="Grupo_56716" data-name="Grupo 56716" clip-path="url(#clip-path-11)">
                  <path id="Trazado_104889" data-name="Trazado 104889" d="M59.968,0c-.009.005-1.02.426-2.619,1.3a75.983,75.983,0,0,0-6.589,3.85c-2.591,1.714-5.886,3.773-9.006,6.275a115.509,115.509,0,0,0-9.789,8.6A110.031,110.031,0,0,0,14.122,43.1,106.829,106.829,0,0,0,2.865,71.745,108.634,108.634,0,0,0,.183,102.427a111.529,111.529,0,0,0,5.632,28.626,108.633,108.633,0,0,0,10.07,21.714c1.4,2.662,3.214,4.933,4.132,6.388,1.133,1.49,1.747,2.323,1.747,2.332Z" transform="translate(0 0)" fill="#211a72"/>
                </g>
              </g>
            </g>
          </g>
        </g>
      </g>
    </g>
    <g id="Grupo_56757" data-name="Grupo 56757" transform="translate(-8979.557 -12055.252)">
      <g id="Grupo_56721-2" data-name="Grupo 56721" clip-path="url(#clip-path-12)">
        <g id="Grupo_56720-2" data-name="Grupo 56720">
          <g id="Grupo_56719-2" data-name="Grupo 56719" clip-path="url(#clip-path-12)">
            <path id="Trazado_104883-2" data-name="Trazado 104883" d="M137.912,146.442s-.122-.852-.354-2.463c-.343-1.455-.6-3.918-1.369-6.391a93.047,93.047,0,0,0-7.037-19.3A96.39,96.39,0,0,0,115.2,97.477a92.962,92.962,0,0,0-20.241-17.01A91.082,91.082,0,0,0,70.744,69.889,94.873,94.873,0,0,0,45.9,66.682a102.7,102.7,0,0,0-11.172.711c-3.409.381-6.654,1.117-9.268,1.668a63.479,63.479,0,0,0-6.339,1.648c-1.5.438-2.378.791-2.378.791s.069.932.338,2.478c.326,1.464.6,3.937,1.357,6.414.687,2.585,1.474,5.817,2.656,9.042a105.462,105.462,0,0,0,4.352,10.309A94.619,94.619,0,0,0,39.4,120.54,91.33,91.33,0,0,0,59.7,137.484,92.658,92.658,0,0,0,83.95,148a96.3,96.3,0,0,0,24.843,3.189,93.515,93.515,0,0,0,20.419-2.313c2.553-.429,4.884-1.287,6.326-1.639,1.55-.509,2.374-.791,2.374-.791" transform="translate(-16.742 23.812)" fill="#4cad3e"/>
            <path id="Trazado_104884-2" data-name="Trazado 104884" d="M81.107,136.341q19.87-1.5,39.71-2.986l-27.339-16.9a1.35,1.35,0,0,1-.5.24q-21.016,1.576-42.019,3.155c-1.365.09-1.295-2.029.053-2.128q19.85-1.5,39.715-2.972L63.38,97.831a1.251,1.251,0,0,1-.518.236Q50.734,98.986,38.6,99.9c-1.371.09-1.291-2.034.047-2.133q10.985-.826,21.965-1.648L23.138,72.946l.938-1.5L60.748,94.121Q57.216,84.23,53.7,74.336c-.482-1.295,1.615-1.771,2.048-.48q3.943,11.013,7.86,22.041l27.24,16.846q-.311-.855-.622-1.719c-1.536-4.3-3.058-8.618-4.6-12.928-2.318-6.532-4.658-13.064-6.961-19.586-.486-1.295,1.6-1.767,2.053-.49q6.492,18.26,13,36.508l27.23,16.842c-.208-.575-.41-1.155-.622-1.715q-2.29-6.463-4.606-12.932-3.477-9.8-6.966-19.591c-.461-1.291,1.616-1.766,2.068-.48q6.512,18.234,13,36.494l7.874,4.864-.938,1.512-7.176-4.446a1.181,1.181,0,0,1-.5.242q-21.016,1.582-42.023,3.146c-1.371.113-1.3-2.017.042-2.12" transform="translate(-19.216 25.516)" fill="#aacd44"/>
            <g id="Grupo_56715-2" data-name="Grupo 56715" transform="translate(0 90.486)" opacity="0.1">
              <g id="Grupo_56714-2" data-name="Grupo 56714">
                <g id="Grupo_56713-2" data-name="Grupo 56713" clip-path="url(#clip-path-14)">
                  <path id="Trazado_104885-2" data-name="Trazado 104885" d="M16.735,71.5s.881-.362,2.368-.8a62.707,62.707,0,0,1,6.344-1.658c2.623-.537,5.868-1.276,9.283-1.657A100.06,100.06,0,0,1,45.9,66.679a94.357,94.357,0,0,1,24.842,3.2,91.555,91.555,0,0,1,24.22,10.573A93.609,93.609,0,0,1,115.2,97.465a96.35,96.35,0,0,1,13.946,20.815,93.148,93.148,0,0,1,7.041,19.3,63.8,63.8,0,0,1,1.365,6.391c.221,1.592.349,2.458.362,2.467Z" transform="translate(-16.735 -66.675)" fill="#211a72"/>
                </g>
              </g>
            </g>
            <path id="Trazado_104886-2" data-name="Trazado 104886" d="M120.792,127.4a118.249,118.249,0,0,0-11.369-30.674c-2.294,1.235-6.942,3.443-11.633,3.754-6.583.415-10.78-1.728-10.845-5.642.395-3.885,4.761-5.656,11.283-4.663a27.963,27.963,0,0,1,9.6,3.7,118.965,118.965,0,0,0-9.038-13.559c-1.851,1.432-6.48,4.654-11.477,5.685C80.841,87.335,76.4,85.791,75.8,81.924c-.137-3.91,3.932-6.264,10.53-6.184A29.418,29.418,0,0,1,97.38,78.533q-2.025-2.557-4.191-5.006c-2.623-2.934-5.4-5.76-8.278-8.458-1.639,1.6-5.9,5.4-10.781,7.012-6.263,2.067-10.856,1.035-11.906-2.722-.578-3.861,3.18-6.682,9.74-7.365a29.447,29.447,0,0,1,11.212,1.459,128.6,128.6,0,0,0-11.83-9.541C69.816,55.556,65.7,59.6,60.84,61.466,54.67,63.8,50.041,63,48.821,59.281c-.763-3.839,2.878-6.819,9.4-7.8a28.968,28.968,0,0,1,10.818.829c-2.12-1.436-4.253-2.826-6.444-4.139-.908-.532-1.884-1.1-2.862-1.649-2.417.179-7.936.339-12.589-1.468-6.156-2.383-9.066-6.085-7.47-9.664,2.006-3.358,6.705-3.132,12.2.513,4.021,2.656,7,7.012,8.326,9.188A112.6,112.6,0,0,1,75.19,54.971a29.235,29.235,0,0,1-3.428-10.393C71.154,38,73.184,33.755,77.093,33.6c3.9.286,5.792,4.606,4.982,11.146-.641,5.05-3.484,9.923-4.742,11.883A135.906,135.906,0,0,1,91.018,69.077,30.236,30.236,0,0,1,89.041,57.2c.541-6.57,3.264-10.413,7.134-9.919,3.792.97,4.932,5.54,3,11.854C97.6,64.3,93.6,68.846,92.2,70.32a126.562,126.562,0,0,1,11.293,13.94c-.677-1.653-2.91-7.569-2.448-13.149.522-6.579,3.245-10.427,7.126-9.91,3.794.942,4.921,5.525,3,11.822-1.8,5.891-6.73,10.963-7.395,11.628,1.861,2.669,3.59,5.411,5.214,8.223.528.894,1.022,1.813,1.521,2.726.239.17.385.288.385.288s-.065.037-.174.094q1.7,3.165,3.207,6.429a27.112,27.112,0,0,1,.269-9.287c1.5-6.419,4.77-9.805,8.528-8.736,3.6,1.51,4.042,6.2,1.206,12.154-2.2,4.616-6.457,8.341-8.27,9.792A119.5,119.5,0,0,1,122.2,127.1a.718.718,0,0,1-1.4.3" transform="translate(-35.143 11.791)" fill="#aed144"/>
            <path id="Trazado_104887-2" data-name="Trazado 104887" d="M63.186,169.894s.631-.848,1.832-2.444c.97-1.554,2.868-3.923,4.341-6.726A113.55,113.55,0,0,0,79.952,137.9a117.841,117.841,0,0,0,5.939-30.131A113.916,113.916,0,0,0,83.055,75.5,111.676,111.676,0,0,0,71.22,45.362,116.36,116.36,0,0,0,52.453,21.069a123.546,123.546,0,0,0-10.309-9.047,115.3,115.3,0,0,0-9.485-6.589A75.006,75.006,0,0,0,25.74,1.375C24.059.452,23,0,23,0s-.744.871-1.855,2.435C20.16,4,18.253,6.377,16.764,9.184c-1.639,2.839-3.758,6.33-5.525,10.149a126.722,126.722,0,0,0-5.148,12.7,116.152,116.152,0,0,0-5.9,30.117,113.121,113.121,0,0,0,14.877,62.377A117.529,117.529,0,0,0,33.845,148.8a114.442,114.442,0,0,0,19.69,15.668c2.591,1.836,5.365,3.119,6.914,4.06,1.775.89,2.736,1.365,2.736,1.365" transform="translate(57.803 0.001)" fill="#3a8931"/>
            <path id="Trazado_104888-2" data-name="Trazado 104888" d="M17.267,109.814Q35.79,125.7,54.279,141.6l-9.066-38.326a1.544,1.544,0,0,1-.645-.231Q24.979,86.219,5.394,69.407c-1.266-1.107.631-2.883,1.885-1.8Q25.8,83.494,44.3,99.4l-9.061-38.34a1.566,1.566,0,0,1-.664-.231q-11.3-9.72-22.62-19.416c-1.262-1.1.645-2.892,1.884-1.8q10.25,8.8,20.476,17.576L21.883,4.647,24,4.161l12.154,51.4q5.5-11.636,11.031-23.251c.7-1.535,2.923-.141,2.185,1.348Q43.256,46.631,37.1,59.587l9.042,38.2c.316-.683.627-1.365.951-2.029,2.389-5.059,4.8-10.131,7.2-15.2q5.462-11.508,10.917-23.011c.706-1.535,2.925-.145,2.2,1.353Q57.256,80.36,47.1,101.818L56.126,140q.48-1.012.959-2.036,3.6-7.585,7.183-15.193,5.474-11.506,10.93-23.019c.715-1.525,2.929-.141,2.2,1.367q-10.138,21.46-20.313,42.907l2.6,11.035-2.1.514-2.378-10.083a1.467,1.467,0,0,1-.65-.227q-19.589-16.827-39.169-33.654c-1.285-1.087.622-2.864,1.88-1.794" transform="translate(59.594 1.486)" fill="#aacd44"/>
            <g id="Grupo_56718-2" data-name="Grupo 56718" transform="translate(80.798)" opacity="0.1">
              <g id="Grupo_56717-2" data-name="Grupo 56717">
                <g id="Grupo_56716-2" data-name="Grupo 56716" clip-path="url(#clip-path-15)">
                  <path id="Trazado_104889-2" data-name="Trazado 104889" d="M0,0c.01.005,1.073.448,2.755,1.365A79.941,79.941,0,0,1,9.687,5.417c2.726,1.8,6.193,3.97,9.475,6.6a121.529,121.529,0,0,1,10.3,9.047A115.764,115.764,0,0,1,48.234,45.349,112.4,112.4,0,0,1,60.078,75.484a114.294,114.294,0,0,1,2.821,32.28,117.34,117.34,0,0,1-5.925,30.117,114.292,114.292,0,0,1-10.595,22.846c-1.475,2.8-3.382,5.19-4.347,6.72-1.192,1.567-1.838,2.444-1.838,2.454Z" transform="translate(0 0)" fill="#211a72"/>
                </g>
              </g>
            </g>
          </g>
        </g>
      </g>
    </g>
  </g>
</svg>
